<svg xmlns="http://www.w3.org/2000/svg" xmlns:xlink="http://www.w3.org/1999/xlink" width="1030" height="284" viewBox="0 0 1030 284">
  <defs>
    <clipPath id="clip-path">
      <path id="Unión_4" data-name="Unión 4" d="M498.4,182a19,19,0,0,1-19-19V91H340.6v72a19,19,0,0,1-19,19H178.8a19,19,0,0,1-19-19V91H0V19A19,19,0,0,1,19,0H161.8a19,19,0,0,1,19,19V91H319.6V19a19,19,0,0,1,19-19H481.4a19,19,0,0,1,19,19V91H639.2V19a19,19,0,0,1,19-19H801a19,19,0,0,1,19,19V91H660.2v72a19,19,0,0,1-19,19Z" transform="translate(0.001 -0.001)" fill="#ffe9f6"/>
    </clipPath>
    <clipPath id="clip-path-2">
      <rect id="Rectángulo_44574" data-name="Rectángulo 44574" width="834" height="201" transform="translate(0 0.474)" fill="#ff2195"/>
    </clipPath>
    <clipPath id="clip-path-3">
      <path id="Rectángulo_44573" data-name="Rectángulo 44573" d="M19,0H815a19,19,0,0,1,19,19V182a19,19,0,0,1-19,19H19A19,19,0,0,1,0,182V19A19,19,0,0,1,19,0Z" transform="translate(0 0.474)" fill="#ff2195"/>
    </clipPath>
    <clipPath id="clip-path-4">
      <rect id="Rectángulo_44572" data-name="Rectángulo 44572" width="834" height="320" transform="translate(0 0.474)" fill="#ff2195"/>
    </clipPath>
    <linearGradient id="linear-gradient" x1="0.5" x2="0.854" y2="0.319" gradientUnits="objectBoundingBox">
      <stop offset="0" stop-color="#00a6b7"/>
      <stop offset="1" stop-color="#4795e9"/>
    </linearGradient>
  </defs>
  <g id="Grupo_156413" data-name="Grupo 156413" transform="translate(-285 -1057)">
    <path id="Trazado_600480" data-name="Trazado 600480" d="M0,0H1030V284H0Z" transform="translate(285 1057)" fill="none"/>
    <path id="Trazado_600481" data-name="Trazado 600481" d="M33.074,13.287H27.818v3.938h6.144V19H25.594V6.2H33.9V8H27.818v3.533h5.256Zm4.5-3.8.062.993a3.422,3.422,0,0,1,2.742-1.169,2.629,2.629,0,0,1,2.61,1.459,3.373,3.373,0,0,1,2.918-1.459,2.965,2.965,0,0,1,2.342.87,3.831,3.831,0,0,1,.787,2.566V19H46.9V12.813a1.891,1.891,0,0,0-.4-1.327,1.731,1.731,0,0,0-1.31-.422A1.778,1.778,0,0,0,44,11.455a2.063,2.063,0,0,0-.646,1.024L43.366,19H41.23V12.742a1.523,1.523,0,0,0-1.714-1.679A1.88,1.88,0,0,0,37.7,12.109V19H35.561V9.49Zm21.981,4.852a5.662,5.662,0,0,1-1,3.52,3.481,3.481,0,0,1-5.194.286v4.509H51.223V9.49h1.969l.088.967a3.137,3.137,0,0,1,2.558-1.143,3.242,3.242,0,0,1,2.729,1.3,5.813,5.813,0,0,1,.989,3.6Zm-2.127-.185a3.966,3.966,0,0,0-.567-2.259,1.843,1.843,0,0,0-1.622-.835,1.965,1.965,0,0,0-1.881,1.081v4.219a1.983,1.983,0,0,0,1.9,1.107,1.841,1.841,0,0,0,1.6-.822A4.366,4.366,0,0,0,57.428,14.157ZM67.043,19a3.3,3.3,0,0,1-.246-.888,3.593,3.593,0,0,1-4.834.246,2.615,2.615,0,0,1-.905-2.021A2.7,2.7,0,0,1,62.188,14a5.473,5.473,0,0,1,3.23-.813h1.31v-.624a1.666,1.666,0,0,0-.413-1.182,1.638,1.638,0,0,0-1.257-.444,1.881,1.881,0,0,0-1.2.365,1.129,1.129,0,0,0-.466.927H61.26a2.37,2.37,0,0,1,.519-1.463A3.455,3.455,0,0,1,63.189,9.7a4.955,4.955,0,0,1,1.991-.387,3.99,3.99,0,0,1,2.663.839,2.993,2.993,0,0,1,1.02,2.36V16.8a4.861,4.861,0,0,0,.36,2.048V19ZM64.7,17.462a2.429,2.429,0,0,0,1.191-.308,2.055,2.055,0,0,0,.839-.826V14.535H65.576a3.148,3.148,0,0,0-1.784.413,1.338,1.338,0,0,0-.6,1.169,1.248,1.248,0,0,0,.409.98A1.583,1.583,0,0,0,64.7,17.462ZM73.776,7.179V9.49h1.679v1.582H73.776v5.309a1.169,1.169,0,0,0,.215.787,1,1,0,0,0,.769.242,3.29,3.29,0,0,0,.747-.088v1.652a5.26,5.26,0,0,1-1.406.2q-2.461,0-2.461-2.716V11.072H70.076V9.49H71.64V7.179ZM79.357,19H77.221V9.49h2.136ZM77.089,7.021A1.133,1.133,0,0,1,77.4,6.2a1.179,1.179,0,0,1,.892-.325,1.193,1.193,0,0,1,.9.325,1.125,1.125,0,0,1,.316.817,1.1,1.1,0,0,1-.316.8,1.2,1.2,0,0,1-.9.321,1.188,1.188,0,0,1-.892-.321A1.107,1.107,0,0,1,77.089,7.021Zm6.873,10.274h5.063V19H81.308V17.6l4.825-6.39H81.4V9.49H88.84v1.354ZM96.417,19a3.3,3.3,0,0,1-.246-.888,3.593,3.593,0,0,1-4.834.246,2.615,2.615,0,0,1-.905-2.021A2.7,2.7,0,0,1,91.561,14a5.473,5.473,0,0,1,3.23-.813H96.1v-.624a1.666,1.666,0,0,0-.413-1.182,1.638,1.638,0,0,0-1.257-.444,1.881,1.881,0,0,0-1.2.365,1.129,1.129,0,0,0-.466.927H90.633a2.37,2.37,0,0,1,.519-1.463A3.455,3.455,0,0,1,92.563,9.7a4.955,4.955,0,0,1,1.991-.387,3.99,3.99,0,0,1,2.663.839,2.993,2.993,0,0,1,1.02,2.36V16.8a4.861,4.861,0,0,0,.36,2.048V19ZM94.07,17.462a2.429,2.429,0,0,0,1.191-.308,2.055,2.055,0,0,0,.839-.826V14.535H94.949a3.148,3.148,0,0,0-1.784.413,1.338,1.338,0,0,0-.6,1.169,1.248,1.248,0,0,0,.409.98A1.583,1.583,0,0,0,94.07,17.462Zm11.382-6.021a5.285,5.285,0,0,0-.87-.07A1.959,1.959,0,0,0,102.6,12.5V19h-2.136V9.49h2.039l.053,1.063A2.406,2.406,0,0,1,104.7,9.314a2,2,0,0,1,.756.123Z" transform="translate(416 1287)" fill="#00316e"/>
    <path id="Trazado_600482" data-name="Trazado 600482" d="M48.165,19H45.95V6.2h2.215Zm2.127-4.825a5.654,5.654,0,0,1,1.02-3.529,3.267,3.267,0,0,1,2.733-1.332,3.1,3.1,0,0,1,2.443,1.055V5.5h2.136V19H56.69l-.105-.984a3.148,3.148,0,0,1-2.558,1.16,3.248,3.248,0,0,1-2.7-1.345A5.861,5.861,0,0,1,50.292,14.175Zm2.136.185a3.958,3.958,0,0,0,.558,2.263,1.811,1.811,0,0,0,1.586.813,2.017,2.017,0,0,0,1.916-1.169V12.206a1.986,1.986,0,0,0-1.9-1.143,1.824,1.824,0,0,0-1.6.822A4.408,4.408,0,0,0,52.427,14.359ZM65.04,19.176A4.419,4.419,0,0,1,61.748,17.9a4.639,4.639,0,0,1-1.261-3.406v-.264a5.706,5.706,0,0,1,.549-2.544,4.181,4.181,0,0,1,1.542-1.745,4.078,4.078,0,0,1,2.215-.624,3.733,3.733,0,0,1,3,1.239,5.24,5.24,0,0,1,1.059,3.507v.861H62.64a2.856,2.856,0,0,0,.787,1.863,2.362,2.362,0,0,0,1.736.686,2.892,2.892,0,0,0,2.391-1.187l1.151,1.1a3.845,3.845,0,0,1-1.525,1.323A4.774,4.774,0,0,1,65.04,19.176Zm-.255-8.147a1.8,1.8,0,0,0-1.419.615,3.189,3.189,0,0,0-.69,1.714h4.069V13.2a2.6,2.6,0,0,0-.571-1.622A1.785,1.785,0,0,0,64.785,11.028ZM76.193,19a3.3,3.3,0,0,1-.246-.888,3.593,3.593,0,0,1-4.834.246,2.615,2.615,0,0,1-.905-2.021A2.7,2.7,0,0,1,71.337,14a5.473,5.473,0,0,1,3.23-.813h1.31v-.624a1.666,1.666,0,0,0-.413-1.182,1.638,1.638,0,0,0-1.257-.444,1.881,1.881,0,0,0-1.2.365,1.129,1.129,0,0,0-.466.927H70.41a2.37,2.37,0,0,1,.519-1.463A3.455,3.455,0,0,1,72.339,9.7a4.955,4.955,0,0,1,1.991-.387,3.99,3.99,0,0,1,2.663.839,2.993,2.993,0,0,1,1.02,2.36V16.8a4.861,4.861,0,0,0,.36,2.048V19Zm-2.347-1.538a2.429,2.429,0,0,0,1.191-.308,2.055,2.055,0,0,0,.839-.826V14.535H74.725a3.148,3.148,0,0,0-1.784.413,1.338,1.338,0,0,0-.6,1.169,1.248,1.248,0,0,0,.409.98A1.583,1.583,0,0,0,73.846,17.462Zm11.382-6.021a5.285,5.285,0,0,0-.87-.07A1.959,1.959,0,0,0,82.38,12.5V19H80.245V9.49h2.039l.053,1.063a2.406,2.406,0,0,1,2.145-1.239,2,2,0,0,1,.756.123Z" transform="translate(735 1287)" fill="#00316e"/>
    <path id="Trazado_600483" data-name="Trazado 600483" d="M47.11,16.214,50.362,6.2h2.443L48.2,19H46.046L41.458,6.2h2.435ZM59.318,19a3.3,3.3,0,0,1-.246-.888,3.593,3.593,0,0,1-4.834.246,2.615,2.615,0,0,1-.905-2.021A2.7,2.7,0,0,1,54.462,14a5.473,5.473,0,0,1,3.23-.813H59v-.624a1.666,1.666,0,0,0-.413-1.182,1.638,1.638,0,0,0-1.257-.444,1.881,1.881,0,0,0-1.2.365,1.129,1.129,0,0,0-.466.927H53.535a2.37,2.37,0,0,1,.519-1.463A3.455,3.455,0,0,1,55.464,9.7a4.955,4.955,0,0,1,1.991-.387,3.99,3.99,0,0,1,2.663.839,2.993,2.993,0,0,1,1.02,2.36V16.8a4.861,4.861,0,0,0,.36,2.048V19Zm-2.347-1.538a2.429,2.429,0,0,0,1.191-.308A2.055,2.055,0,0,0,59,16.328V14.535H57.85a3.148,3.148,0,0,0-1.784.413,1.338,1.338,0,0,0-.6,1.169,1.248,1.248,0,0,0,.409.98A1.583,1.583,0,0,0,56.971,17.462ZM65.646,19H63.51V5.5h2.136Zm4.6,0H68.107V9.49h2.136ZM67.975,7.021a1.133,1.133,0,0,1,.312-.817,1.179,1.179,0,0,1,.892-.325,1.193,1.193,0,0,1,.9.325,1.125,1.125,0,0,1,.316.817,1.1,1.1,0,0,1-.316.8,1.2,1.2,0,0,1-.9.321,1.188,1.188,0,0,1-.892-.321A1.107,1.107,0,0,1,67.975,7.021Zm4.192,7.154a5.654,5.654,0,0,1,1.02-3.529A3.267,3.267,0,0,1,75.92,9.314a3.1,3.1,0,0,1,2.443,1.055V5.5H80.5V19H78.566l-.105-.984a3.148,3.148,0,0,1-2.558,1.16,3.248,3.248,0,0,1-2.7-1.345A5.861,5.861,0,0,1,72.167,14.175Zm2.136.185a3.958,3.958,0,0,0,.558,2.263,1.811,1.811,0,0,0,1.586.813,2.017,2.017,0,0,0,1.916-1.169V12.206a1.986,1.986,0,0,0-1.9-1.143,1.824,1.824,0,0,0-1.6.822A4.408,4.408,0,0,0,74.3,14.359ZM88.41,19a3.3,3.3,0,0,1-.246-.888,3.593,3.593,0,0,1-4.834.246,2.615,2.615,0,0,1-.905-2.021A2.7,2.7,0,0,1,83.554,14a5.473,5.473,0,0,1,3.23-.813h1.31v-.624a1.666,1.666,0,0,0-.413-1.182,1.638,1.638,0,0,0-1.257-.444,1.881,1.881,0,0,0-1.2.365,1.129,1.129,0,0,0-.466.927H82.626a2.37,2.37,0,0,1,.519-1.463A3.455,3.455,0,0,1,84.556,9.7a4.955,4.955,0,0,1,1.991-.387,3.99,3.99,0,0,1,2.663.839,2.993,2.993,0,0,1,1.02,2.36V16.8a4.861,4.861,0,0,0,.36,2.048V19Zm-2.347-1.538a2.429,2.429,0,0,0,1.191-.308,2.055,2.055,0,0,0,.839-.826V14.535H86.942a3.148,3.148,0,0,0-1.784.413,1.338,1.338,0,0,0-.6,1.169,1.248,1.248,0,0,0,.409.98A1.583,1.583,0,0,0,86.063,17.462Zm11.382-6.021a5.285,5.285,0,0,0-.87-.07A1.959,1.959,0,0,0,94.6,12.5V19H92.461V9.49H94.5l.053,1.063A2.406,2.406,0,0,1,96.7,9.314a2,2,0,0,1,.756.123Z" transform="translate(1050 1287)" fill="#00316e"/>
    <path id="Trazado_600484" data-name="Trazado 600484" d="M39.885,19V6.2h3.779a5.928,5.928,0,0,1,3.01.756A5.154,5.154,0,0,1,48.709,9.1a6.807,6.807,0,0,1,.721,3.182v.642a6.779,6.779,0,0,1-.725,3.2,5.092,5.092,0,0,1-2.065,2.127A6.2,6.2,0,0,1,43.568,19ZM42.109,8v9.229h1.45a3.339,3.339,0,0,0,2.685-1.094,4.766,4.766,0,0,0,.954-3.142v-.712a4.891,4.891,0,0,0-.905-3.182A3.209,3.209,0,0,0,43.665,8Zm13.518,11.18A4.419,4.419,0,0,1,52.335,17.9a4.639,4.639,0,0,1-1.261-3.406v-.264a5.706,5.706,0,0,1,.549-2.544,4.181,4.181,0,0,1,1.542-1.745,4.078,4.078,0,0,1,2.215-.624,3.733,3.733,0,0,1,3,1.239,5.24,5.24,0,0,1,1.059,3.507v.861H53.227a2.856,2.856,0,0,0,.787,1.863,2.362,2.362,0,0,0,1.736.686,2.892,2.892,0,0,0,2.391-1.187l1.151,1.1a3.845,3.845,0,0,1-1.525,1.323A4.774,4.774,0,0,1,55.626,19.176Zm-.255-8.147a1.8,1.8,0,0,0-1.419.615,3.189,3.189,0,0,0-.69,1.714h4.069V13.2a2.6,2.6,0,0,0-.571-1.622A1.785,1.785,0,0,0,55.372,11.028ZM61.665,19V11.072h-1.45V9.49h1.45V8.84a3.8,3.8,0,0,1,.475-1.916,2.952,2.952,0,0,1,1.318-1.2,4.745,4.745,0,0,1,2.048-.4,5.969,5.969,0,0,1,1.349.149q.646.149,1.34.378L67.87,7.609a6.8,6.8,0,0,0-2.215-.422,1.979,1.979,0,0,0-1.415.426A1.705,1.705,0,0,0,63.8,8.893v.6h1.872v1.582H63.8V19Zm7.541,0H67.07V9.49h2.136Zm4.351-9.51.062,1.1a3.419,3.419,0,0,1,2.769-1.274q2.971,0,3.023,3.4V19H77.274V12.839a1.958,1.958,0,0,0-.391-1.34,1.645,1.645,0,0,0-1.279-.435,2.058,2.058,0,0,0-1.925,1.169V19H71.543V9.49ZM83.857,19H81.721V9.49h2.136ZM81.589,7.021A1.133,1.133,0,0,1,81.9,6.2a1.179,1.179,0,0,1,.892-.325,1.193,1.193,0,0,1,.9.325,1.125,1.125,0,0,1,.316.817,1.1,1.1,0,0,1-.316.8,1.2,1.2,0,0,1-.9.321,1.188,1.188,0,0,1-.892-.321A1.107,1.107,0,0,1,81.589,7.021Zm9.571,4.421a5.285,5.285,0,0,0-.87-.07A1.959,1.959,0,0,0,88.313,12.5V19H86.177V9.49h2.039l.053,1.063a2.406,2.406,0,0,1,2.145-1.239,2,2,0,0,1,.756.123Z" transform="translate(575 1083)" fill="#00316e"/>
    <path id="Trazado_600485" data-name="Trazado 600485" d="M28.266,14.254V19H26.042V6.2h4.9a4.95,4.95,0,0,1,3.406,1.117A3.757,3.757,0,0,1,35.6,10.277a3.633,3.633,0,0,1-1.235,2.93,5.19,5.19,0,0,1-3.458,1.047Zm0-1.793h2.672a2.632,2.632,0,0,0,1.811-.558,2.051,2.051,0,0,0,.624-1.613,2.213,2.213,0,0,0-.633-1.657A2.439,2.439,0,0,0,31,8H28.266Zm14.054-1.02a5.285,5.285,0,0,0-.87-.07A1.959,1.959,0,0,0,39.472,12.5V19H37.336V9.49h2.039l.053,1.063a2.406,2.406,0,0,1,2.145-1.239,2,2,0,0,1,.756.123Zm.633,2.716a5.607,5.607,0,0,1,.554-2.518,4.044,4.044,0,0,1,1.556-1.723,4.383,4.383,0,0,1,2.3-.6,4.154,4.154,0,0,1,3.125,1.239,4.874,4.874,0,0,1,1.3,3.287l.009.5a5.658,5.658,0,0,1-.541,2.514,4,4,0,0,1-1.547,1.714,4.415,4.415,0,0,1-2.325.606,4.125,4.125,0,0,1-3.221-1.34,5.133,5.133,0,0,1-1.208-3.573Zm2.136.185a3.832,3.832,0,0,0,.606,2.3,1.971,1.971,0,0,0,1.688.831,1.95,1.95,0,0,0,1.683-.844,4.232,4.232,0,0,0,.6-2.47,3.782,3.782,0,0,0-.62-2.285,2.089,2.089,0,0,0-3.344-.013A4.152,4.152,0,0,0,45.088,14.342ZM56.277,7.179V9.49h1.679v1.582H56.277v5.309a1.169,1.169,0,0,0,.215.787,1,1,0,0,0,.769.242,3.29,3.29,0,0,0,.747-.088v1.652a5.26,5.26,0,0,1-1.406.2q-2.461,0-2.461-2.716V11.072H52.577V9.49h1.564V7.179Zm2.646,6.979a5.607,5.607,0,0,1,.554-2.518,4.044,4.044,0,0,1,1.556-1.723,4.383,4.383,0,0,1,2.3-.6,4.154,4.154,0,0,1,3.125,1.239,4.874,4.874,0,0,1,1.3,3.287l.009.5a5.658,5.658,0,0,1-.541,2.514,4,4,0,0,1-1.547,1.714,4.415,4.415,0,0,1-2.325.606,4.125,4.125,0,0,1-3.221-1.34,5.133,5.133,0,0,1-1.208-3.573Zm2.136.185a3.832,3.832,0,0,0,.606,2.3,1.971,1.971,0,0,0,1.688.831,1.95,1.95,0,0,0,1.683-.844,4.232,4.232,0,0,0,.6-2.47,3.782,3.782,0,0,0-.62-2.285,2.089,2.089,0,0,0-3.344-.013A4.152,4.152,0,0,0,61.058,14.342ZM72.247,7.179V9.49h1.679v1.582H72.247v5.309a1.169,1.169,0,0,0,.215.787,1,1,0,0,0,.769.242,3.29,3.29,0,0,0,.747-.088v1.652a5.26,5.26,0,0,1-1.406.2q-2.461,0-2.461-2.716V11.072H68.546V9.49h1.564V7.179ZM77.828,19H75.692V9.49h2.136ZM75.56,7.021a1.133,1.133,0,0,1,.312-.817,1.179,1.179,0,0,1,.892-.325,1.193,1.193,0,0,1,.9.325,1.125,1.125,0,0,1,.316.817,1.1,1.1,0,0,1-.316.8,1.2,1.2,0,0,1-.9.321,1.188,1.188,0,0,1-.892-.321A1.107,1.107,0,0,1,75.56,7.021Zm12.92,7.321a5.662,5.662,0,0,1-1,3.52,3.481,3.481,0,0,1-5.194.286v4.509H80.148V9.49h1.969l.088.967a3.137,3.137,0,0,1,2.558-1.143,3.242,3.242,0,0,1,2.729,1.3,5.813,5.813,0,0,1,.989,3.6Zm-2.127-.185a3.966,3.966,0,0,0-.567-2.259,1.843,1.843,0,0,0-1.622-.835,1.965,1.965,0,0,0-1.881,1.081v4.219a1.983,1.983,0,0,0,1.9,1.107,1.841,1.841,0,0,0,1.6-.822A4.366,4.366,0,0,0,86.353,14.157ZM95.968,19a3.3,3.3,0,0,1-.246-.888,3.593,3.593,0,0,1-4.834.246,2.615,2.615,0,0,1-.905-2.021A2.7,2.7,0,0,1,91.112,14a5.473,5.473,0,0,1,3.23-.813h1.31v-.624a1.666,1.666,0,0,0-.413-1.182,1.638,1.638,0,0,0-1.257-.444,1.881,1.881,0,0,0-1.2.365,1.129,1.129,0,0,0-.466.927H90.185a2.37,2.37,0,0,1,.519-1.463A3.455,3.455,0,0,1,92.114,9.7,4.955,4.955,0,0,1,94.1,9.314a3.99,3.99,0,0,1,2.663.839,2.993,2.993,0,0,1,1.02,2.36V16.8a4.861,4.861,0,0,0,.36,2.048V19Zm-2.347-1.538a2.429,2.429,0,0,0,1.191-.308,2.055,2.055,0,0,0,.839-.826V14.535H94.5a3.148,3.148,0,0,0-1.784.413,1.338,1.338,0,0,0-.6,1.169,1.248,1.248,0,0,0,.409.98A1.583,1.583,0,0,0,93.622,17.462ZM105,11.441a5.285,5.285,0,0,0-.87-.07,1.959,1.959,0,0,0-1.978,1.125V19H100.02V9.49h2.039l.053,1.063a2.406,2.406,0,0,1,2.145-1.239,2,2,0,0,1,.756.123Z" transform="translate(890 1083)" fill="#00316e"/>
    <g id="Enmascarar_grupo_69" data-name="Enmascarar grupo 69" transform="translate(389.999 1105.001)" clip-path="url(#clip-path)">
      <g id="Grupo_155252" data-name="Grupo 155252" transform="translate(0.001 -126.475)">
        <g id="Grupo_155251" data-name="Grupo 155251" transform="translate(0 0)">
          <g id="Grupo_155250" data-name="Grupo 155250" transform="translate(-7 116)" clip-path="url(#clip-path-2)">
            <g id="Grupo_155249" data-name="Grupo 155249">
              <g id="Grupo_155248" data-name="Grupo 155248" clip-path="url(#clip-path-3)">
                <g id="Grupo_155247" data-name="Grupo 155247">
                  <g id="Grupo_155246" data-name="Grupo 155246">
                    <g id="Grupo_155245" data-name="Grupo 155245" clip-path="url(#clip-path-4)">
                      <path id="Trazado_598847" data-name="Trazado 598847" d="M0,0H834.3V204.116H0Z" transform="translate(-0.126 0.071)" fill="url(#linear-gradient)"/>
                    </g>
                  </g>
                </g>
              </g>
            </g>
          </g>
        </g>
      </g>
    </g>
    <path id="Trazado_600486" data-name="Trazado 600486" d="M19,0H120a19,19,0,0,1,19,19V120a19,19,0,0,1-19,19H19A19,19,0,0,1,0,120V19A19,19,0,0,1,19,0Z" transform="translate(411 1126)" fill="#b6c3d4"/>
    <path id="Trazado_596392" data-name="Trazado 596392" d="M18.94,0H120.616a18.97,18.97,0,0,1,18.94,19V121a18.97,18.97,0,0,1-18.94,19H18.94A18.97,18.97,0,0,1,0,121V19A18.97,18.97,0,0,1,18.94,0Z" transform="translate(730 1126)" fill="#b6c3d4"/>
    <path id="Trazado_600487" data-name="Trazado 600487" d="M19,0H120a19,19,0,0,1,19,19V120a19,19,0,0,1-19,19H19A19,19,0,0,1,0,120V19A19,19,0,0,1,19,0Z" transform="translate(1050 1126)" fill="#b6c3d4"/>
    <path id="Trazado_600488" data-name="Trazado 600488" d="M19,0H120a19,19,0,0,1,19,19V120a19,19,0,0,1-19,19H19A19,19,0,0,1,0,120V19A19,19,0,0,1,19,0Z" transform="translate(710 1265) rotate(180)" fill="#b6c3d4"/>
    <path id="Trazado_600489" data-name="Trazado 600489" d="M19,0H120a19,19,0,0,1,19,19V120a19,19,0,0,1-19,19H19A19,19,0,0,1,0,120V19A19,19,0,0,1,19,0Z" transform="translate(1029 1265) rotate(180)" fill="#b6c3d4"/>
    <path id="Trazado_600490" data-name="Trazado 600490" d="M19,0h83a19,19,0,0,1,19,19v83a19,19,0,0,1-19,19H19A19,19,0,0,1,0,102V19A19,19,0,0,1,19,0Z" transform="translate(420 1135)" fill="#fff"/>
    <path id="Trazado_600491" data-name="Trazado 600491" d="M19,0h83a19,19,0,0,1,19,19v83a19,19,0,0,1-19,19H19A19,19,0,0,1,0,102V19A19,19,0,0,1,19,0Z" transform="translate(580 1136)" fill="#fff"/>
    <path id="Trazado_600492" data-name="Trazado 600492" d="M19,0h83a19,19,0,0,1,19,19v83a19,19,0,0,1-19,19H19A19,19,0,0,1,0,102V19A19,19,0,0,1,19,0Z" transform="translate(740 1135)" fill="#fff"/>
    <path id="Trazado_600493" data-name="Trazado 600493" d="M19,0h83a19,19,0,0,1,19,19v83a19,19,0,0,1-19,19H19A19,19,0,0,1,0,102V19A19,19,0,0,1,19,0Z" transform="translate(899 1136)" fill="#fff"/>
    <path id="Trazado_600494" data-name="Trazado 600494" d="M19,0h83a19,19,0,0,1,19,19v83a19,19,0,0,1-19,19H19A19,19,0,0,1,0,102V19A19,19,0,0,1,19,0Z" transform="translate(1059 1135)" fill="#fff"/>
    <path id="Trazado_600495" data-name="Trazado 600495" d="M8395.713,11739H8382a6,6,0,0,1-6-6v-27a6,6,0,0,1,6-6h45a6,6,0,0,1,6,6v27a6,6,0,0,1-6,6h-12.712l-9.287,13Z" transform="translate(-7924 -10474)" fill="#ff2195"/>
    <path id="Trazado_600496" data-name="Trazado 600496" d="M8395.713,11739H8382a6,6,0,0,1-6-6v-27a6,6,0,0,1,6-6h45a6,6,0,0,1,6,6v27a6,6,0,0,1-6,6h-12.712l-9.287,13Z" transform="translate(-7603.999 -10474)" fill="#ff2195"/>
    <path id="Trazado_600497" data-name="Trazado 600497" d="M8395.713,11739H8382a6,6,0,0,1-6-6v-27a6,6,0,0,1,6-6h45a6,6,0,0,1,6,6v27a6,6,0,0,1-6,6h-12.712l-9.287,13Z" transform="translate(-7284.999 -10474)" fill="#ff2195"/>
    <path id="Trazado_600498" data-name="Trazado 600498" d="M8395.713,11739H8382a6,6,0,0,1-6-6v-27a6,6,0,0,1,6-6h45a6,6,0,0,1,6,6v27a6,6,0,0,1-6,6h-12.712l-9.287,13Z" transform="translate(9364.001 12865) rotate(180)" fill="#ff2195"/>
    <path id="Trazado_600499" data-name="Trazado 600499" d="M8395.713,11739H8382a6,6,0,0,1-6-6v-27a6,6,0,0,1,6-6h45a6,6,0,0,1,6,6v27a6,6,0,0,1-6,6h-12.712l-9.287,13Z" transform="translate(9045.001 12865) rotate(180)" fill="#ff2195"/>
    <path id="Trazado_600500" data-name="Trazado 600500" d="M29.043,19.079a7.838,7.838,0,0,1-1.617,5.353,5.552,5.552,0,0,1-4.376,1.825,5.6,5.6,0,0,1-4.407-1.825,7.819,7.819,0,0,1-1.624-5.353V15.16a7.867,7.867,0,0,1,1.617-5.353A5.549,5.549,0,0,1,23.025,7.97a5.572,5.572,0,0,1,4.388,1.837,7.827,7.827,0,0,1,1.63,5.353Zm-3.552-4.285a5.849,5.849,0,0,0-.635-3.094,2.2,2.2,0,0,0-3.662-.006,5.939,5.939,0,0,0-.623,3.1V19.42a5.952,5.952,0,0,0,.629,3.125,2.06,2.06,0,0,0,1.849.977,2.024,2.024,0,0,0,1.819-.977,6,6,0,0,0,.623-3.125Zm5.42,9.07,3-.366V11.461h-3.04V9.423l6.592-1.2V23.5l3,.366V26H30.911Z" transform="translate(452 1229)" fill="#fff"/>
    <path id="Trazado_600501" data-name="Trazado 600501" d="M27.658,19.079a7.838,7.838,0,0,1-1.617,5.353,5.552,5.552,0,0,1-4.376,1.825,5.6,5.6,0,0,1-4.407-1.825,7.819,7.819,0,0,1-1.624-5.353V15.16a7.867,7.867,0,0,1,1.617-5.353A5.549,5.549,0,0,1,21.64,7.97a5.572,5.572,0,0,1,4.388,1.837,7.827,7.827,0,0,1,1.63,5.353Zm-3.552-4.285a5.849,5.849,0,0,0-.635-3.094,2.2,2.2,0,0,0-3.662-.006,5.939,5.939,0,0,0-.623,3.1V19.42a5.952,5.952,0,0,0,.629,3.125,2.06,2.06,0,0,0,1.849.977,2.024,2.024,0,0,0,1.819-.977,6,6,0,0,0,.623-3.125ZM29.623,26V23.668l5.75-6.165a13.913,13.913,0,0,0,1.77-2.411,3.91,3.91,0,0,0,.525-1.825,2.746,2.746,0,0,0-.6-1.837,2.123,2.123,0,0,0-1.715-.714,2.216,2.216,0,0,0-1.874.836,3.569,3.569,0,0,0-.641,2.228H29.367l-.024-.073a5.373,5.373,0,0,1,1.581-4.071A5.931,5.931,0,0,1,35.348,7.97,6.194,6.194,0,0,1,39.669,9.4a4.891,4.891,0,0,1,1.575,3.809,5.374,5.374,0,0,1-.885,2.979,28.059,28.059,0,0,1-2.936,3.564L34.262,23.2l.024.061H38.9l.146-1.758h2.71V26Z" transform="translate(612 1129)" fill="#fff"/>
    <path id="Trazado_600502" data-name="Trazado 600502" d="M27.523,19.079a7.838,7.838,0,0,1-1.617,5.353,5.552,5.552,0,0,1-4.376,1.825,5.6,5.6,0,0,1-4.407-1.825A7.819,7.819,0,0,1,15.5,19.079V15.16a7.867,7.867,0,0,1,1.617-5.353A5.549,5.549,0,0,1,21.505,7.97a5.572,5.572,0,0,1,4.388,1.837,7.827,7.827,0,0,1,1.63,5.353Zm-3.552-4.285a5.849,5.849,0,0,0-.635-3.094,2.2,2.2,0,0,0-3.662-.006,5.939,5.939,0,0,0-.623,3.1V19.42a5.952,5.952,0,0,0,.629,3.125,2.06,2.06,0,0,0,1.849.977,2.024,2.024,0,0,0,1.819-.977,6,6,0,0,0,.623-3.125Zm16.04,4.59h2.014v2.368H40.011V23.5l1.892.366V26H34.555V23.864l1.9-.366V21.752H29.208l-.171-1.746,7.385-11.78h3.589Zm-7.642,0h4.089V12.975l-.073-.024-.293.513Z" transform="translate(931 1129)" fill="#fff"/>
    <path id="Trazado_600503" data-name="Trazado 600503" d="M27.78,19.079a7.838,7.838,0,0,1-1.617,5.353,5.552,5.552,0,0,1-4.376,1.825,5.6,5.6,0,0,1-4.407-1.825,7.819,7.819,0,0,1-1.624-5.353V15.16a7.867,7.867,0,0,1,1.617-5.353A5.549,5.549,0,0,1,21.762,7.97,5.572,5.572,0,0,1,26.15,9.807a7.827,7.827,0,0,1,1.63,5.353Zm-3.552-4.285a5.849,5.849,0,0,0-.635-3.094,2.2,2.2,0,0,0-3.662-.006,5.939,5.939,0,0,0-.623,3.1V19.42a5.952,5.952,0,0,0,.629,3.125,2.06,2.06,0,0,0,1.849.977,2.024,2.024,0,0,0,1.819-.977,6,6,0,0,0,.623-3.125ZM33.5,15.6h2a2.432,2.432,0,0,0,1.88-.665A2.634,2.634,0,0,0,38,13.085a2.406,2.406,0,0,0-.61-1.721,2.317,2.317,0,0,0-1.77-.647,2.5,2.5,0,0,0-1.685.586,1.928,1.928,0,0,0-.684,1.538H29.794l-.024-.073a4.044,4.044,0,0,1,1.6-3.442,6.38,6.38,0,0,1,4.15-1.355,6.826,6.826,0,0,1,4.4,1.318,4.543,4.543,0,0,1,1.642,3.76,3.774,3.774,0,0,1-.732,2.2,4.87,4.87,0,0,1-2.014,1.63,4.532,4.532,0,0,1,2.252,1.611,4.238,4.238,0,0,1,.775,2.527,4.618,4.618,0,0,1-1.776,3.839,7.131,7.131,0,0,1-4.547,1.4,6.96,6.96,0,0,1-4.254-1.312,4.192,4.192,0,0,1-1.715-3.7l.024-.073h3.455a2.184,2.184,0,0,0,.732,1.691,2.654,2.654,0,0,0,1.855.665,2.7,2.7,0,0,0,1.947-.684,2.448,2.448,0,0,0,.714-1.855,2.688,2.688,0,0,0-.7-2.057,2.936,2.936,0,0,0-2.069-.653h-2Z" transform="translate(772 1229)" fill="#fff"/>
    <path id="Trazado_600504" data-name="Trazado 600504" d="M27.9,19.079a7.838,7.838,0,0,1-1.617,5.353,5.552,5.552,0,0,1-4.376,1.825A5.6,5.6,0,0,1,17.5,24.431a7.819,7.819,0,0,1-1.624-5.353V15.16A7.867,7.867,0,0,1,17.5,9.807,5.549,5.549,0,0,1,21.884,7.97a5.572,5.572,0,0,1,4.388,1.837A7.827,7.827,0,0,1,27.9,15.16ZM24.35,14.794a5.849,5.849,0,0,0-.635-3.094,2.2,2.2,0,0,0-3.662-.006,5.939,5.939,0,0,0-.623,3.1V19.42a5.952,5.952,0,0,0,.629,3.125,2.06,2.06,0,0,0,1.849.977,2.024,2.024,0,0,0,1.819-.977,6,6,0,0,0,.623-3.125Zm14.807-2.515-.317-1.2H34.054l-.5,4.1a4.453,4.453,0,0,1,1.2-.6,5.559,5.559,0,0,1,5.505,1.3,6.443,6.443,0,0,1,1.4,4.419,6.089,6.089,0,0,1-1.544,4.26,5.711,5.711,0,0,1-4.449,1.7,6.685,6.685,0,0,1-4.187-1.337,4.229,4.229,0,0,1-1.685-3.68l.024-.061,3.418-.171a2.487,2.487,0,0,0,.671,1.849,2.389,2.389,0,0,0,1.758.665,2.065,2.065,0,0,0,1.843-.891,4.064,4.064,0,0,0,.6-2.307,4.294,4.294,0,0,0-.635-2.466,2.142,2.142,0,0,0-1.892-.928,2.706,2.706,0,0,0-1.556.378,2.065,2.065,0,0,0-.775,1.025L30.1,18.126l1.025-9.9H41.354v4.053Z" transform="translate(1091 1229)" fill="#fff"/>
    <path id="unido" d="M4.355,55.829l.033.033,6.141,5.806A5.233,5.233,0,0,0,14.873,69.7,5.5,5.5,0,0,0,20.289,75a5.5,5.5,0,0,0,9.391,3.808l3.339-3.339.748.748a5.58,5.58,0,0,0,7.872,0l.045-.045a5.587,5.587,0,0,0,1.63-3.8,5.521,5.521,0,0,0,3.964-1.63l.045-.045a5.514,5.514,0,0,0,1.63-3.886,5.524,5.524,0,0,0,3.875-1.63l.045-.045a5.58,5.58,0,0,0,0-7.872L52.3,56.7l.29-.29c13.924-15.13-6.778-35.81-21.9-21.9l-2.859,2.859-2.557-2.49A14.8,14.8,0,0,0,4.355,55.829Zm46.094,6.99a2.211,2.211,0,0,1-3.138,0L44.24,59.748a2.231,2.231,0,0,1,0-3.138l.045-.045a2.231,2.231,0,0,1,3.138,0l3.071,3.071a2.211,2.211,0,0,1,0,3.138Zm-8.7,5.561-5.025-5.025a2.231,2.231,0,0,1,0-3.138l.045-.045a2.211,2.211,0,0,1,3.138,0l1.943,1.943,3.071,3.071a2.231,2.231,0,0,1,0,3.138l-.045.045A2.207,2.207,0,0,1,41.75,68.379Zm-5.639,5.471-1.988-1.988a2.231,2.231,0,0,1,0-3.138l.045-.045a2.211,2.211,0,0,1,3.138,0l1.988,1.988a2.211,2.211,0,0,1,0,3.138l-.045.045A2.231,2.231,0,0,1,36.111,73.851ZM13.623,63.131l11.49-11.49a.155.155,0,0,1,.212,0l1.854,1.854a6.009,6.009,0,1,0,8.431-8.564l-5.371-5.215,2.825-2.825A12.136,12.136,0,0,1,50.226,54.053l-.29.29L49.79,54.2a5.6,5.6,0,0,0-7.872,0l-.045.045a5.507,5.507,0,0,0-1.4,2.345,5.573,5.573,0,0,0-6.052,1.206l-.045.045a5.592,5.592,0,0,0-.592,7.18,5.554,5.554,0,0,0-1.976,1.273l-.045.045a5.6,5.6,0,0,0-.96,6.6l-3.5,3.5a2.156,2.156,0,1,1-3.037-3.06l3.1-3.1A1.674,1.674,0,0,0,25.012,67.9L21.9,71.015a2.156,2.156,0,0,1-3.048-3.048l3.138-3.138a1.674,1.674,0,0,0-2.367-2.367L16.3,65.778a1.887,1.887,0,0,1-2.669,0,1.85,1.85,0,0,1-.011-2.646ZM6.722,37.27a11.464,11.464,0,0,1,16.213.022l10.34,10.05a2.657,2.657,0,1,1-3.73,3.785l-1.854-1.854a3.5,3.5,0,0,0-4.947,0l-9.938,9.938-6.1-5.773A11.44,11.44,0,0,1,6.722,37.27Z" transform="translate(451.975 1132.087)" fill="#516e75"/>
    <g id="contrato" transform="translate(611.982 1178.567)">
      <g id="Grupo_155729" data-name="Grupo 155729" transform="translate(0.018)">
        <g id="Grupo_155728" data-name="Grupo 155728">
          <path id="Trazado_598116" data-name="Trazado 598116" d="M55.654,17.973a5.026,5.026,0,0,0-7.1,0l-5.034,5.038V9.752A4.986,4.986,0,0,0,42.051,6.2L37.319,1.47A4.986,4.986,0,0,0,33.769,0H5.038A5.025,5.025,0,0,0,.018,5.02V52.092a5.025,5.025,0,0,0,5.02,5.02H38.5a5.025,5.025,0,0,0,5.02-5.02V37.215L55.654,25.072A5.017,5.017,0,0,0,55.654,17.973ZM33.482,3.346a1.826,1.826,0,0,1,1.47.49l4.732,4.733a1.826,1.826,0,0,1,.49,1.47H33.482Zm6.693,48.746A1.675,1.675,0,0,1,38.5,53.765H5.038a1.675,1.675,0,0,1-1.673-1.673V5.02A1.675,1.675,0,0,1,5.038,3.346h25.1v8.366a1.673,1.673,0,0,0,1.673,1.673h8.366V26.361L35.238,31.3l-2.365,2.365a1.673,1.673,0,0,0-.4.654L30.1,41.42a1.673,1.673,0,0,0,2.116,2.116l7.1-2.366a1.672,1.672,0,0,0,.654-.4l.2-.2V52.092ZM36.422,34.85l2.366,2.366-.9.9L34.335,39.3l1.183-3.549Zm4.732,0-2.366-2.366,8.043-8.05L49.2,26.8ZM53.288,22.706l-1.725,1.726L49.2,22.066l1.725-1.727a1.673,1.673,0,1,1,2.366,2.367Z" transform="translate(-0.018)" fill="#516e75"/>
        </g>
      </g>
      <g id="Grupo_155731" data-name="Grupo 155731" transform="translate(6.711 16.732)">
        <g id="Grupo_155730" data-name="Grupo 155730">
          <path id="Trazado_598117" data-name="Trazado 598117" d="M85.116,150H61.691a1.673,1.673,0,0,0,0,3.346H85.116a1.673,1.673,0,1,0,0-3.346Z" transform="translate(-60.018 -150)" fill="#516e75"/>
        </g>
      </g>
      <g id="Grupo_155733" data-name="Grupo 155733" transform="translate(6.711 23.425)">
        <g id="Grupo_155732" data-name="Grupo 155732">
          <path id="Trazado_598118" data-name="Trazado 598118" d="M78.423,210H61.691a1.673,1.673,0,0,0,0,3.346H78.423a1.673,1.673,0,1,0,0-3.346Z" transform="translate(-60.018 -210)" fill="#516e75"/>
        </g>
      </g>
      <g id="Grupo_155735" data-name="Grupo 155735" transform="translate(6.711 30.118)">
        <g id="Grupo_155734" data-name="Grupo 155734">
          <path id="Trazado_598119" data-name="Trazado 598119" d="M78.423,270H61.691a1.673,1.673,0,0,0,0,3.346H78.423a1.673,1.673,0,1,0,0-3.346Z" transform="translate(-60.018 -270)" fill="#516e75"/>
        </g>
      </g>
      <g id="Grupo_155737" data-name="Grupo 155737" transform="translate(6.711 36.81)">
        <g id="Grupo_155736" data-name="Grupo 155736">
          <path id="Trazado_598120" data-name="Trazado 598120" d="M78.423,330H61.691a1.673,1.673,0,1,0,0,3.346H78.423a1.673,1.673,0,1,0,0-3.346Z" transform="translate(-60.018 -330)" fill="#516e75"/>
        </g>
      </g>
      <g id="Grupo_155739" data-name="Grupo 155739" transform="translate(20.096 47.073)">
        <g id="Grupo_155738" data-name="Grupo 155738">
          <path id="Trazado_598121" data-name="Trazado 598121" d="M191.73,422H181.691a1.673,1.673,0,1,0,0,3.346H191.73a1.673,1.673,0,1,0,0-3.346Z" transform="translate(-180.018 -422)" fill="#516e75"/>
        </g>
      </g>
    </g>
    <g id="bombilla_2_" data-name="bombilla(2)" transform="translate(772 1156)">
      <path id="Trazado_598131" data-name="Trazado 598131" d="M119.842,35.424a20.272,20.272,0,0,0,7.231-15.748C127.073,8.827,118.982,0,109.037,0S91,8.827,91,19.676a20.272,20.272,0,0,0,7.231,15.748,7.418,7.418,0,0,1,2.493,4.471,4.919,4.919,0,0,0,.114,9.233v1.921a4.925,4.925,0,0,0,4.919,4.919h6.559a4.925,4.925,0,0,0,4.919-4.919V49.128a4.919,4.919,0,0,0,.114-9.233A7.416,7.416,0,0,1,119.842,35.424ZM115.6,46.13h-3.279a1.64,1.64,0,1,0,0,3.279h1.64v1.64a1.642,1.642,0,0,1-1.64,1.64h-6.559a1.642,1.642,0,0,1-1.64-1.64v-1.64h1.64a1.64,1.64,0,0,0,0-3.279h-3.279a1.64,1.64,0,1,1,0-3.279H115.6a1.64,1.64,0,0,1,0,3.279Zm2.172-13.246a10.809,10.809,0,0,0-3.685,6.687h-3.405V25.953a4.927,4.927,0,0,0,3.279-4.637V18.037a1.64,1.64,0,1,0-3.279,0v3.279a1.64,1.64,0,0,1-3.279,0V18.037a1.64,1.64,0,1,0-3.279,0v3.279a4.927,4.927,0,0,0,3.279,4.637V39.571h-3.405a10.809,10.809,0,0,0-3.685-6.687A17.114,17.114,0,0,1,94.28,19.676c0-9.041,6.62-16.4,14.757-16.4s14.757,7.356,14.757,16.4a17.114,17.114,0,0,1-6.027,13.208Zm0,0" transform="translate(-81.053)" fill="#516e75"/>
      <path id="Trazado_598132" data-name="Trazado 598132" d="M456.028,150H452.64a1.64,1.64,0,0,0,0,3.279h3.389a1.64,1.64,0,0,0,0-3.279Zm0,0" transform="translate(-401.7 -133.603)" fill="#516e75"/>
      <path id="Trazado_598133" data-name="Trazado 598133" d="M0,151.64a1.64,1.64,0,0,0,1.64,1.64H5.028a1.64,1.64,0,1,0,0-3.279H1.64A1.64,1.64,0,0,0,0,151.64Zm0,0" transform="translate(0 -133.603)" fill="#516e75"/>
      <path id="Trazado_598134" data-name="Trazado 598134" d="M425.321,34.7l2.84-1.64a1.639,1.639,0,1,0-1.64-2.84l-2.84,1.64a1.639,1.639,0,1,0,1.64,2.84Zm0,0" transform="translate(-376.638 -26.719)" fill="#516e75"/>
      <path id="Trazado_598135" data-name="Trazado 598135" d="M35.611,259.7l2.84-1.64a1.639,1.639,0,1,0-1.64-2.84l-2.84,1.64a1.639,1.639,0,1,0,1.64,2.84Zm0,0" transform="translate(-29.527 -227.123)" fill="#516e75"/>
      <path id="Trazado_598136" data-name="Trazado 598136" d="M423.682,258.057l2.84,1.64a1.639,1.639,0,1,0,1.64-2.84l-2.84-1.64a1.639,1.639,0,1,0-1.64,2.84Zm0,0" transform="translate(-376.638 -227.123)" fill="#516e75"/>
      <path id="Trazado_598137" data-name="Trazado 598137" d="M38.453,31.858l-2.84-1.64a1.639,1.639,0,1,0-1.64,2.84l2.84,1.64a1.639,1.639,0,0,0,1.64-2.84Zm0,0" transform="translate(-29.529 -26.719)" fill="#516e75"/>
    </g>
    <g id="prototipo_1_" data-name="prototipo(1)" transform="translate(931 1180)">
      <g id="Grupo_155740" data-name="Grupo 155740" transform="translate(0 4.229)">
        <path id="Trazado_598138" data-name="Trazado 598138" d="M50.861,44.692H41.816v3.524h9.045a.588.588,0,0,1,.587.587V82.632a.588.588,0,0,1-.587.587H7.635a4.116,4.116,0,0,1-4.111-4.111V77.115a3.937,3.937,0,0,1,3.7-2.264,3.918,3.918,0,0,1,3.762,2.417,1.8,1.8,0,0,0,3.465-.627V43.259A7.224,7.224,0,1,0,0,43.259V79.108a7.644,7.644,0,0,0,7.635,7.635H50.861a4.116,4.116,0,0,0,4.111-4.111V48.8A4.116,4.116,0,0,0,50.861,44.692ZM3.524,43.259a3.7,3.7,0,1,1,7.4,0V72.234a7.86,7.86,0,0,0-3.7-.907,7.862,7.862,0,0,0-3.7.9Z" transform="translate(0 -36)" fill="#516e75"/>
        <path id="Trazado_598139" data-name="Trazado 598139" d="M148,110h6.343v3.524H148Z" transform="translate(-130.616 -101.308)" fill="#516e75"/>
        <path id="Trazado_598140" data-name="Trazado 598140" d="M167.459,209.492h-4.41a1.762,1.762,0,0,1-1.71-1.339l-.534-2.162q-.371-.141-.739-.309l-1.927,1.151a1.762,1.762,0,0,1-2.14-.257l-3.115-3.068a1.762,1.762,0,0,1-.262-2.183l1.166-1.883q-.15-.336-.283-.686l-2.16-.523A1.762,1.762,0,0,1,150,196.522v-4.338a1.762,1.762,0,0,1,1.347-1.712l2.167-.525q.132-.352.279-.684l-1.157-1.875a1.762,1.762,0,0,1,.264-2.182l3.118-3.065,2.47,2.513-2.115,2.08.935,1.515a1.762,1.762,0,0,1,.032,1.8,8.639,8.639,0,0,0-.771,1.876,1.762,1.762,0,0,1-1.277,1.22l-1.769.428v1.566l1.761.427a1.762,1.762,0,0,1,1.278,1.225,8.748,8.748,0,0,0,.777,1.88,1.762,1.762,0,0,1-.037,1.794l-.944,1.524,1.142,1.125,1.586-.948a1.763,1.763,0,0,1,1.753-.031,9.149,9.149,0,0,0,1.92.8,1.762,1.762,0,0,1,1.233,1.273l.436,1.764h1.651l.434-1.756a1.762,1.762,0,0,1,1.238-1.274,9.14,9.14,0,0,0,1.923-.788,1.763,1.763,0,0,1,1.747.033l1.6.952,1.148-1.13-.937-1.518a1.762,1.762,0,0,1-.032-1.8,8.643,8.643,0,0,0,.771-1.877,1.762,1.762,0,0,1,1.277-1.22l1.77-.429V193.6l-1.761-.427a1.762,1.762,0,0,1-1.278-1.225,8.74,8.74,0,0,0-.777-1.879,1.762,1.762,0,0,1,.036-1.794l.944-1.524-2.113-2.081,2.473-2.511,3.115,3.068a1.762,1.762,0,0,1,.262,2.183l-1.166,1.883q.15.336.283.686l2.16.523a1.762,1.762,0,0,1,1.347,1.712v4.338a1.762,1.762,0,0,1-1.347,1.712l-2.167.526q-.132.353-.28.686l1.158,1.877a1.762,1.762,0,0,1-.264,2.181l-3.118,3.069a1.762,1.762,0,0,1-2.138.258l-1.941-1.157q-.368.165-.741.3l-.531,2.148A1.762,1.762,0,0,1,167.459,209.492Z" transform="translate(-132.379 -164.974)" fill="#516e75"/>
      </g>
      <g id="Grupo_155741" data-name="Grupo 155741">
        <path id="Trazado_598141" data-name="Trazado 598141" d="M301,109h3.524v3.289H301Z" transform="translate(-265.644 -96.197)" fill="#516e75"/>
        <path id="Trazado_598142" data-name="Trazado 598142" d="M239.219,10.337a1.762,1.762,0,0,0,1.762-1.762V4.084A4.114,4.114,0,0,0,236.848,0h-3.715A4.113,4.113,0,0,0,229,4.084V31.09a1.762,1.762,0,0,0,.332,1.03l4.229,5.873a1.779,1.779,0,0,0,2.86,0l4.229-5.873a1.762,1.762,0,0,0,.332-1.03V18.324h-3.524v12.2l-2.467,3.426-2.467-3.426V10.337Zm-6.7-6.252a.587.587,0,0,1,.609-.56h3.715a.587.587,0,0,1,.609.56V6.813h-4.933V4.084Z" transform="translate(-202.101)" fill="#516e75"/>
        <path id="Trazado_598143" data-name="Trazado 598143" fill="#516e75"/>
      </g>
    </g>
    <g id="Grupo_156003" data-name="Grupo 156003">
      <path id="facturacion" d="M54.773,61.37h-9.25V27.385a3.98,3.98,0,0,0-3.975-3.975H3.975A3.98,3.98,0,0,0,0,27.385V66.245A8.545,8.545,0,0,0,8.535,74.78H48a8.545,8.545,0,0,0,8.535-8.535V63.137A1.767,1.767,0,0,0,54.773,61.37ZM13.536,63.137v3.107a5,5,0,1,1-10,0V27.385a.448.448,0,0,1,.442-.442H41.547a.448.448,0,0,1,.442.442V61.37H15.3A1.767,1.767,0,0,0,13.536,63.137Zm39.47,3.107a5.007,5.007,0,0,1-5,5H15.447a8.489,8.489,0,0,0,1.623-5V64.9H53.006ZM37.837,35.485a1.767,1.767,0,0,1-1.767,1.767H25.845a1.767,1.767,0,0,1,0-3.534H36.07A1.767,1.767,0,0,1,37.837,35.485Zm0,9.254a1.767,1.767,0,0,1-1.767,1.767H25.845a1.767,1.767,0,0,1,0-3.534H36.07A1.767,1.767,0,0,1,37.837,44.739Zm0,9.254A1.767,1.767,0,0,1,36.07,55.76H25.845a1.767,1.767,0,0,1,0-3.534H36.07A1.767,1.767,0,0,1,37.837,53.993Z" transform="translate(1091 1132.654)" fill="#516e75"/>
      <path id="Trazado_598144" data-name="Trazado 598144" d="M9.848,11.466a1.538,1.538,0,0,1-1.1-.455L6.685,8.944A1.551,1.551,0,0,1,8.876,6.752l.972.97,3.039-3.037a1.551,1.551,0,0,1,2.191,2.191l-4.135,4.135a1.538,1.538,0,0,1-1.1.455Z" transform="translate(1094.79 1159.36)" fill="#516e75"/>
      <path id="Trazado_598145" data-name="Trazado 598145" d="M9.848,16.466a1.538,1.538,0,0,1-1.1-.455L6.685,13.944a1.551,1.551,0,0,1,2.191-2.191l.972.97,3.039-3.037a1.551,1.551,0,0,1,2.191,2.191l-4.135,4.135A1.538,1.538,0,0,1,9.848,16.466Z" transform="translate(1094.79 1164.697)" fill="#516e75"/>
      <path id="Trazado_598146" data-name="Trazado 598146" d="M9.888,21.466a1.538,1.538,0,0,1-1.1-.455L6.725,18.944a1.551,1.551,0,1,1,2.191-2.191l.972.97,3.039-3.037a1.551,1.551,0,0,1,2.191,2.191l-4.135,4.135a1.538,1.538,0,0,1-1.1.455Z" transform="translate(1094.75 1170.034)" fill="#516e75"/>
    </g>
  </g>
</svg>
