<svg xmlns="http://www.w3.org/2000/svg" xmlns:xlink="http://www.w3.org/1999/xlink" width="1030" height="298" viewBox="0 0 1030 298">
  <defs>
    <clipPath id="clip-path">
      <rect id="Rectángulo_45055" data-name="Rectángulo 45055" width="942.411" height="214.452" fill="none"/>
    </clipPath>
    <clipPath id="clip-path-2">
      <rect id="Rectángulo_45056" data-name="Rectángulo 45056" width="210.36" height="259.706" fill="none"/>
    </clipPath>
    <clipPath id="clip-path-3">
      <rect id="Rectángulo_45057" data-name="Rectángulo 45057" width="102.984" height="117.08" transform="translate(107.375 0.618)" fill="none"/>
    </clipPath>
    <clipPath id="clip-path-4">
      <rect id="Rectángulo_45059" data-name="Rectángulo 45059" width="210.36" height="259.706" fill="#ca4590"/>
    </clipPath>
    <radialGradient id="radial-gradient" cx="0.712" cy="0.285" r="0.5" gradientUnits="objectBoundingBox">
      <stop offset="0" stop-color="#fff"/>
      <stop offset="0.13" stop-color="#fefef8"/>
      <stop offset="1" stop-color="#ffa8d9"/>
    </radialGradient>
    <radialGradient id="radial-gradient-2" cx="0.712" cy="0.285" r="0.5" gradientUnits="objectBoundingBox">
      <stop offset="0" stop-color="#fff"/>
      <stop offset="0.13" stop-color="#fefef8"/>
      <stop offset="1" stop-color="#c0d6f6"/>
    </radialGradient>
    <radialGradient id="radial-gradient-3" cx="0.712" cy="0.285" r="0.5" gradientUnits="objectBoundingBox">
      <stop offset="0" stop-color="#fff"/>
      <stop offset="0.13" stop-color="#fefef8"/>
      <stop offset="1" stop-color="#cbf0aa"/>
    </radialGradient>
  </defs>
  <g id="Grupo_155715" data-name="Grupo 155715" transform="translate(-285 -3005)">
    <rect id="Rectángulo_45060" data-name="Rectángulo 45060" width="1030" height="298" transform="translate(285 3005)" fill="none"/>
    <g id="Grupo_155703" data-name="Grupo 155703" transform="translate(285 3040.627)">
      <rect id="Rectángulo_45051" data-name="Rectángulo 45051" width="373.89" height="10.414" transform="translate(503.041 31.613)" fill="#00a6b7"/>
      <rect id="Rectángulo_45052" data-name="Rectángulo 45052" width="487.661" height="11.047" transform="translate(521.75 79.485)" fill="#ff2195"/>
      <rect id="Rectángulo_45053" data-name="Rectángulo 45053" width="283.748" height="9.072" transform="translate(543.859 108.332)" fill="#4795e9"/>
      <rect id="Rectángulo_45054" data-name="Rectángulo 45054" width="363.693" height="10" transform="translate(571.922 146.34)" fill="#6f88aa"/>
      <g id="Grupo_155702" data-name="Grupo 155702">
        <g id="Grupo_155701" data-name="Grupo 155701" clip-path="url(#clip-path)">
          <path id="Trazado_598087" data-name="Trazado 598087" d="M443.06,110.077l-43.654,3.968c-35.028,3.178-55.242-26.578-76.649-58.089-3.275-4.821-6.661-9.806-10.092-14.654-12.544-17.726-25.185-19.974-33.582-18.751-19,2.784-37.253,26.207-50.072,64.263-20.472,60.775-43.812,98.157-67.5,108.1-2.419,1.015-12.849,1.439-45.662-35.707C94.558,135.1,71.688,104.322,53.312,79.589c-13.757-18.519-23.7-31.9-28.685-36.724C18.373,36.812,9.319,32.074,0,28.441V39.214c6.873,2.94,13.221,6.528,17.673,10.837,4.4,4.258,15.158,18.737,27.612,35.5,18.488,24.885,41.5,55.856,63.072,80.279,23.72,26.851,40.015,39.381,51.553,39.381a14.014,14.014,0,0,0,5.476-1.073c26.786-11.25,51.381-49.65,73.1-114.133,11.235-33.351,27.345-55.407,42.046-57.561,8.185-1.2,16.249,3.725,23.969,14.634,3.376,4.769,6.735,9.714,9.983,14.5,20.964,30.858,42.6,62.713,79.7,62.711q3,0,6.131-.282l43.654-3.968Z" fill="#4795e9"/>
          <path id="Trazado_598088" data-name="Trazado 598088" d="M413.934,34.133c-23.544,3.162-35.607,17.237-48.378,32.138-9.045,10.552-18.4,21.465-32.676,29.064-20.958,11.156-45.766-13.415-72.032-39.427C248.3,43.48,235.32,30.627,221.956,20.876c-45.995-33.563-94.9,3.267-138.049,35.761C51.662,80.92,16.41,83.993,0,83.917V93.984c17.854.169,55.1-3.131,89.922-29.359,50.433-37.98,89-62.77,126.14-35.671,12.756,9.308,25.461,21.891,37.749,34.06,14.2,14.059,27.606,27.339,41.059,35.893,9.719,6.18,18.655,9.26,26.985,9.26a32.992,32.992,0,0,0,15.724-4c15.944-8.486,26.371-20.651,35.57-31.384C385.142,58.784,395.5,46.7,415.265,44.043Z" fill="#00a6b7"/>
          <path id="Trazado_598089" data-name="Trazado 598089" d="M456.559,136.108c-.383.194-38.685,19.475-68.023,22.734-15.712,1.752-39.673-11.514-62.846-24.336-19.052-10.543-38.754-21.444-56.191-25.629-13.162-3.164-23.586,1.085-30.988,12.619-5.928,9.234-9.223,21.915-12.41,34.176-3.21,12.348-6.529,25.117-12.024,30.716-7.974,8.12-20.336-2.064-41.5-20.767-11.234-9.929-23.968-21.182-38.68-30.923-15.008-9.938-29.747-9.957-43.8-.059-11.57,8.149-21.011,21.534-30.143,34.481-6.932,9.828-13.48,19.111-19.833,24.254C26.2,204.64,9.062,193.785,0,186.221v12.634c7.791,5.238,17.2,9.392,26.751,9.392a30.521,30.521,0,0,0,19.656-7.1c7.432-6.018,14.369-15.851,21.713-26.264,20.836-29.541,36.288-47.716,60.255-31.847,14.131,9.357,26.588,20.365,37.579,30.078,15.65,13.83,29.751,26.294,42.043,26.292,4.671,0,9.083-1.8,13.216-6.014,7.366-7.5,10.863-20.959,14.566-35.2,7.174-27.6,12.863-44.038,31.386-39.588,16.117,3.869,35.215,14.437,53.684,24.655,25.671,14.207,49.923,27.626,68.791,25.527,31.157-3.463,69.812-22.928,71.442-23.755Z" fill="#6f88aa"/>
          <path id="Trazado_598090" data-name="Trazado 598090" d="M438.682,80.091l-8.368,5.23a1.924,1.924,0,0,1,.747-1.167c-.158.087-4.105,2.042-23.495-3.924-16.884-5.195-29.456-23.586-41.613-41.371C353.012,19.927,340.789,2.045,323.309.1c-3.855-.431-9.558.288-14.853,6.138-21.128,23.339-18.765,115.587-12.132,146.707,7.777,36.5,2,46.757-.848,49.475-.835.8-3.377,3.224-10.57,1.34-9.32-2.442-32.648-29.7-55.208-56.054-31.223-36.479-63.508-74.2-86.028-82.685-40.149-15.13-83.2,40.654-99.411,61.654-1,1.3-1.9,2.455-2.662,3.432C36.108,137.1,18.01,149.611,0,161.069V172.9c19.509-12.2,42.334-27.545,49.46-36.615.783-.995,1.69-2.172,2.715-3.5,13.539-17.542,54.741-70.922,87.968-58.407,20.119,7.581,52.972,45.965,81.957,79.83,29.713,34.715,48.52,56.148,60.272,59.226a28.939,28.939,0,0,0,7.331,1.015,17.751,17.751,0,0,0,12.679-4.8c9.087-8.675,10.3-27.907,3.722-58.791-6.182-29-7.875-118.425,9.765-137.912,2.666-2.944,4.894-3.072,6.336-2.91,12.918,1.435,23.883,17.477,35.493,34.46,13.127,19.2,26.7,39.063,46.927,45.286,19.624,6.038,29.792,6.282,34,.81,2.525-3.284,1.85-7.644.06-10.507" fill="#ff2195"/>
        </g>
      </g>
    </g>
    <g id="Grupo_155710" data-name="Grupo 155710" transform="translate(684.64 3018)">
      <g id="Grupo_155705" data-name="Grupo 155705">
        <g id="Grupo_155704" data-name="Grupo 155704" clip-path="url(#clip-path-2)">
          <path id="Trazado_598091" data-name="Trazado 598091" d="M79.254,238.324a6.7,6.7,0,0,1-7.674-7.3l7.675-74.878,13.679-2.092L84.9,232.389a6.7,6.7,0,0,1-5.65,5.937" fill="#152e60"/>
          <path id="Trazado_598092" data-name="Trazado 598092" d="M40.777,259.691c-5.153.372-7.564-6.317-6.341-8.391.6-2.162,30.672-110.26,30.672-110.26H78.792L47.132,254.866a6.591,6.591,0,0,1-6.35,4.825" fill="#152e60"/>
          <path id="Trazado_598093" data-name="Trazado 598093" d="M160.686,259.691a6.592,6.592,0,0,0,6.35-8.358L136.355,141.04H122.671l31.664,113.826a6.593,6.593,0,0,0,6.351,4.825" fill="#152e60"/>
          <path id="Trazado_598094" data-name="Trazado 598094" d="M204.126,104.684C191.643-13.441-9.461-29.729.347,105.853c12.485,118.121,213.589,134.409,203.779-1.168" fill="#f08f3c"/>
          <path id="Trazado_598095" data-name="Trazado 598095" d="M119.357,193.242C-5.17,195.869-46.653,7.614,95.395.027,219.918-2.6,261.4,185.657,119.357,193.242" fill="#f9ce68"/>
          <path id="Trazado_598096" data-name="Trazado 598096" d="M116.723,172.006C19.569,174.056-12.8,27.183,98.023,21.263c97.151-2.048,129.516,144.825,18.7,150.743" fill="#fff"/>
          <path id="Trazado_598097" data-name="Trazado 598097" d="M114.089,150.77C44.307,152.243,21.062,46.75,100.661,42.5c69.779-1.471,93.025,104.022,13.428,108.272" fill="#f9ce68"/>
          <path id="Trazado_598098" data-name="Trazado 598098" d="M111.456,129.535c-42.409.895-56.535-63.216-8.161-65.8,42.407-.894,56.534,63.217,8.161,65.8" fill="#fff"/>
          <path id="Trazado_598099" data-name="Trazado 598099" d="M119.676,96.566c1.2,16.374-23.112,14.4-24.6.14-1.2-16.374,23.112-14.4,24.6-.14" fill="#f9ce68"/>
        </g>
      </g>
      <g id="Grupo_155707" data-name="Grupo 155707" opacity="0.26">
        <g id="Grupo_155706" data-name="Grupo 155706" clip-path="url(#clip-path-3)">
          <path id="Trazado_598100" data-name="Trazado 598100" d="M107.375.618s32.759,111.283,102,117.081C216.007,95.848,190.048,7.16,107.375.618" fill="#f08f3c"/>
        </g>
      </g>
      <g id="Grupo_155709" data-name="Grupo 155709">
        <g id="Grupo_155708" data-name="Grupo 155708" clip-path="url(#clip-path-4)">
          <path id="Trazado_598101" data-name="Trazado 598101" d="M141.435,63.253l18.7-17.766-4.042-15.743-19,18.048Z" fill="#ff2195"/>
          <path id="Trazado_598102" data-name="Trazado 598102" d="M142.607,64.487l18.7-17.766,15.514,4.846-19,18.048Z" fill="#ff2195"/>
          <rect id="Rectángulo_45058" data-name="Rectángulo 45058" width="74.035" height="3.909" transform="translate(105.707 95.665) rotate(-43.541)" fill="#152e60"/>
        </g>
      </g>
    </g>
    <g id="Grupo_155711" data-name="Grupo 155711" transform="translate(3)">
      <path id="Trazado_598103" data-name="Trazado 598103" d="M7.7,13.556.059,22.67S-.6,26.427,2.5,27.02s3.888-.857,3.888-.857L17.456,15.092v-3.1L4.737,0H2.5L.059,1.384V3.625L1.376,6.393Z" transform="translate(1151.382 3063.753)" fill="#00a6b7"/>
      <g id="proximo" transform="translate(1149.904 3061.753)">
        <g id="Grupo_155338" data-name="Grupo 155338" transform="translate(0 0)">
          <g id="Grupo_155337" data-name="Grupo 155337">
            <path id="Trazado_596737" data-name="Trazado 596737" d="M18.624,11.518,8.576,1.47a5.023,5.023,0,1,0-7.1,7.1l6.5,6.5-6.5,6.5a5.023,5.023,0,1,0,7.1,7.1L18.624,18.622a5.022,5.022,0,0,0,0-7.1Zm-1.776,5.328L6.8,26.894a2.571,2.571,0,0,1-3.552,0,2.514,2.514,0,0,1,0-3.552L11.52,15.07,3.248,6.8A2.513,2.513,0,0,1,6.8,3.243L16.848,13.291a2.514,2.514,0,0,1,0,3.555Z" fill="#00a6b7"/>
          </g>
        </g>
      </g>
    </g>
    <g id="Grupo_155712" data-name="Grupo 155712" transform="translate(134.096 48)">
      <path id="Trazado_598103-2" data-name="Trazado 598103" d="M7.7,13.556.059,22.67S-.6,26.427,2.5,27.02s3.888-.857,3.888-.857L17.456,15.092v-3.1L4.737,0H2.5L.059,1.384V3.625L1.376,6.393Z" transform="translate(1151.382 3063.753)" fill="#ff2195"/>
      <g id="proximo-2" data-name="proximo" transform="translate(1149.904 3061.753)">
        <g id="Grupo_155338-2" data-name="Grupo 155338" transform="translate(0 0)">
          <g id="Grupo_155337-2" data-name="Grupo 155337">
            <path id="Trazado_596737-2" data-name="Trazado 596737" d="M18.624,11.518,8.576,1.47a5.023,5.023,0,1,0-7.1,7.1l6.5,6.5-6.5,6.5a5.023,5.023,0,1,0,7.1,7.1L18.624,18.622a5.022,5.022,0,0,0,0-7.1Zm-1.776,5.328L6.8,26.894a2.571,2.571,0,0,1-3.552,0,2.514,2.514,0,0,1,0-3.552L11.52,15.07,3.248,6.8A2.513,2.513,0,0,1,6.8,3.243L16.848,13.291a2.514,2.514,0,0,1,0,3.555Z" fill="#ff2195"/>
          </g>
        </g>
      </g>
    </g>
    <g id="Grupo_155713" data-name="Grupo 155713" transform="translate(-47 76.143)">
      <path id="Trazado_598103-3" data-name="Trazado 598103" d="M7.7,13.556.059,22.67S-.6,26.427,2.5,27.02s3.888-.857,3.888-.857L17.456,15.092v-3.1L4.737,0H2.5L.059,1.384V3.625L1.376,6.393Z" transform="translate(1151.382 3063.753)" fill="#4795e9"/>
      <g id="proximo-3" data-name="proximo" transform="translate(1149.904 3061.753)">
        <g id="Grupo_155338-3" data-name="Grupo 155338" transform="translate(0 0)">
          <g id="Grupo_155337-3" data-name="Grupo 155337">
            <path id="Trazado_596737-3" data-name="Trazado 596737" d="M18.624,11.518,8.576,1.47a5.023,5.023,0,1,0-7.1,7.1l6.5,6.5-6.5,6.5a5.023,5.023,0,1,0,7.1,7.1L18.624,18.622a5.022,5.022,0,0,0,0-7.1Zm-1.776,5.328L6.8,26.894a2.571,2.571,0,0,1-3.552,0,2.514,2.514,0,0,1,0-3.552L11.52,15.07,3.248,6.8A2.513,2.513,0,0,1,6.8,3.243L16.848,13.291a2.514,2.514,0,0,1,0,3.555Z" fill="#4795e9"/>
          </g>
        </g>
      </g>
    </g>
    <g id="Grupo_155714" data-name="Grupo 155714" transform="translate(60.096 115.143)">
      <path id="Trazado_598103-4" data-name="Trazado 598103" d="M7.7,13.556.059,22.67S-.6,26.427,2.5,27.02s3.888-.857,3.888-.857L17.456,15.092v-3.1L4.737,0H2.5L.059,1.384V3.625L1.376,6.393Z" transform="translate(1151.382 3063.753)" fill="#6f88aa"/>
      <g id="proximo-4" data-name="proximo" transform="translate(1149.904 3061.753)">
        <g id="Grupo_155338-4" data-name="Grupo 155338" transform="translate(0 0)">
          <g id="Grupo_155337-4" data-name="Grupo 155337">
            <path id="Trazado_596737-4" data-name="Trazado 596737" d="M18.624,11.518,8.576,1.47a5.023,5.023,0,1,0-7.1,7.1l6.5,6.5-6.5,6.5a5.023,5.023,0,1,0,7.1,7.1L18.624,18.622a5.022,5.022,0,0,0,0-7.1Zm-1.776,5.328L6.8,26.894a2.571,2.571,0,0,1-3.552,0,2.514,2.514,0,0,1,0-3.552L11.52,15.07,3.248,6.8A2.513,2.513,0,0,1,6.8,3.243L16.848,13.291a2.514,2.514,0,0,1,0,3.555Z" fill="#6f88aa"/>
          </g>
        </g>
      </g>
    </g>
    <circle id="Elipse_5581" data-name="Elipse 5581" cx="11.5" cy="11.5" r="11.5" transform="translate(521.419 3040.627)" fill="url(#radial-gradient)"/>
    <circle id="Elipse_5582" data-name="Elipse 5582" cx="11.5" cy="11.5" r="11.5" transform="translate(618 3255.079)" fill="url(#radial-gradient-2)"/>
    <circle id="Elipse_5583" data-name="Elipse 5583" cx="11.5" cy="11.5" r="11.5" transform="translate(390 3124.853)" fill="url(#radial-gradient-3)"/>
  </g>
</svg>
