<svg xmlns="http://www.w3.org/2000/svg" width="328" height="264.721" viewBox="0 0 328 264.721">
  <g id="Grupo_156346" data-name="Grupo 156346" transform="translate(-1007 -3796.279)">
    <g id="Grupo_156344" data-name="Grupo 156344">
      <g id="Grupo_155991" data-name="Grupo 155991" transform="translate(20)">
        <rect id="Rectángulo_44622" data-name="Rectángulo 44622" width="328" height="61" transform="translate(987 3859)" fill="#d1eff2"/>
        <rect id="Rectángulo_44623" data-name="Rectángulo 44623" width="271" height="82" transform="translate(1044 3838)" fill="#7fd2db"/>
        <path id="Trazado_600407" data-name="Trazado 600407" d="M63.915,18h-2.49V12.82H56.569V18h-2.49V5.914h2.49v4.9h4.856v-4.9h2.49Zm6.151.166a4.409,4.409,0,0,1-3.217-1.212,4.308,4.308,0,0,1-1.241-3.229v-.232a5.426,5.426,0,0,1,.523-2.42,3.838,3.838,0,0,1,1.482-1.644A4.159,4.159,0,0,1,69.8,8.853a3.727,3.727,0,0,1,2.9,1.162,4.722,4.722,0,0,1,1.058,3.3v.979H68.041a2.229,2.229,0,0,0,.7,1.411,2.12,2.12,0,0,0,1.482.531,2.589,2.589,0,0,0,2.167-1l1.179,1.32a3.6,3.6,0,0,1-1.461,1.191A4.793,4.793,0,0,1,70.066,18.166Zm-.274-7.379a1.5,1.5,0,0,0-1.158.484,2.5,2.5,0,0,0-.569,1.384H71.4v-.192a1.786,1.786,0,0,0-.432-1.238A1.547,1.547,0,0,0,69.792,10.787Zm10.376.481A6.517,6.517,0,0,0,79.3,11.2a1.757,1.757,0,0,0-1.785.921V18h-2.4V9.019h2.266l.066,1.071a2.223,2.223,0,0,1,2-1.237,2.514,2.514,0,0,1,.747.108Zm6.2,0a6.517,6.517,0,0,0-.863-.066,1.757,1.757,0,0,0-1.785.921V18h-2.4V9.019h2.266l.066,1.071a2.223,2.223,0,0,1,2-1.237,2.514,2.514,0,0,1,.747.108ZM92.478,18a2.664,2.664,0,0,1-.241-.805,2.9,2.9,0,0,1-2.266.971,3.189,3.189,0,0,1-2.187-.764,2.456,2.456,0,0,1-.867-1.926,2.538,2.538,0,0,1,1.058-2.191,5.222,5.222,0,0,1,3.059-.772h1.1V12a1.48,1.48,0,0,0-.32-1,1.257,1.257,0,0,0-1.009-.374,1.429,1.429,0,0,0-.95.291.987.987,0,0,0-.344.8h-2.4a2.41,2.41,0,0,1,.481-1.444A3.182,3.182,0,0,1,88.959,9.23a4.961,4.961,0,0,1,1.976-.378,3.92,3.92,0,0,1,2.635.834,2.918,2.918,0,0,1,.975,2.345v3.893a4.294,4.294,0,0,0,.357,1.934V18Zm-1.984-1.668a2.066,2.066,0,0,0,.979-.237,1.554,1.554,0,0,0,.664-.635V13.916h-.9q-1.8,0-1.917,1.245l-.008.141a.96.96,0,0,0,.315.739A1.225,1.225,0,0,0,90.494,16.332Zm8.143-7.313.075,1a3.156,3.156,0,0,1,2.582-1.17,2.4,2.4,0,0,1,2.382,1.37,3.084,3.084,0,0,1,2.7-1.37,2.679,2.679,0,0,1,2.175.851,3.911,3.911,0,0,1,.714,2.561V18h-2.407V12.272a1.71,1.71,0,0,0-.3-1.116A1.324,1.324,0,0,0,105.5,10.8a1.5,1.5,0,0,0-1.494,1.029L104.016,18h-2.4V12.281a1.689,1.689,0,0,0-.307-1.129,1.337,1.337,0,0,0-1.046-.349,1.555,1.555,0,0,0-1.478.847V18h-2.4V9.019Zm15,8.981H111.23V9.019h2.407ZM111.089,6.694a1.181,1.181,0,0,1,.361-.888,1.556,1.556,0,0,1,1.963,0,1.175,1.175,0,0,1,.365.888,1.178,1.178,0,0,1-.369.9,1.539,1.539,0,0,1-1.951,0A1.178,1.178,0,0,1,111.089,6.694Zm8.658,11.472a4.409,4.409,0,0,1-3.217-1.212,4.308,4.308,0,0,1-1.241-3.229v-.232a5.426,5.426,0,0,1,.523-2.42,3.838,3.838,0,0,1,1.482-1.644,4.159,4.159,0,0,1,2.187-.577,3.727,3.727,0,0,1,2.9,1.162,4.722,4.722,0,0,1,1.058,3.3v.979h-5.719a2.229,2.229,0,0,0,.7,1.411,2.12,2.12,0,0,0,1.482.531,2.589,2.589,0,0,0,2.167-1l1.179,1.32a3.6,3.6,0,0,1-1.461,1.191A4.793,4.793,0,0,1,119.746,18.166Zm-.274-7.379a1.5,1.5,0,0,0-1.158.484,2.5,2.5,0,0,0-.569,1.384h3.337v-.192a1.786,1.786,0,0,0-.432-1.238A1.547,1.547,0,0,0,119.472,10.787Zm7.537-1.768.075,1.038a3.136,3.136,0,0,1,2.582-1.2,2.606,2.606,0,0,1,2.125.838A3.912,3.912,0,0,1,132.5,12.2V18h-2.4V12.256a1.556,1.556,0,0,0-.332-1.108,1.486,1.486,0,0,0-1.1-.344,1.65,1.65,0,0,0-1.519.863V18h-2.4V9.019Zm10.185-2.208V9.019h1.536v1.76h-1.536v4.482a1.07,1.07,0,0,0,.191.714.959.959,0,0,0,.73.216,3.826,3.826,0,0,0,.706-.058V17.95a4.939,4.939,0,0,1-1.453.216,2.29,2.29,0,0,1-2.573-2.548V10.778h-1.312V9.019H134.8V6.811ZM145.271,18a2.664,2.664,0,0,1-.241-.805,2.9,2.9,0,0,1-2.266.971,3.189,3.189,0,0,1-2.187-.764,2.456,2.456,0,0,1-.867-1.926,2.538,2.538,0,0,1,1.058-2.191,5.222,5.222,0,0,1,3.059-.772h1.1V12a1.48,1.48,0,0,0-.32-1,1.257,1.257,0,0,0-1.009-.374,1.429,1.429,0,0,0-.95.291.987.987,0,0,0-.344.8h-2.4a2.41,2.41,0,0,1,.481-1.444,3.182,3.182,0,0,1,1.361-1.042,4.961,4.961,0,0,1,1.976-.378,3.92,3.92,0,0,1,2.635.834,2.918,2.918,0,0,1,.975,2.345v3.893a4.294,4.294,0,0,0,.357,1.934V18Zm-1.984-1.668a2.066,2.066,0,0,0,.979-.237,1.554,1.554,0,0,0,.664-.635V13.916h-.9q-1.8,0-1.917,1.245l-.008.141a.96.96,0,0,0,.315.739A1.225,1.225,0,0,0,143.287,16.332Zm10.758-.813a.773.773,0,0,0-.436-.693,4.95,4.95,0,0,0-1.4-.452q-3.2-.672-3.2-2.723a2.468,2.468,0,0,1,.992-2,4,4,0,0,1,2.594-.8,4.307,4.307,0,0,1,2.735.805,2.538,2.538,0,0,1,1.025,2.092h-2.4a1.161,1.161,0,0,0-.332-.851,1.405,1.405,0,0,0-1.038-.336,1.436,1.436,0,0,0-.938.274.865.865,0,0,0-.332.7.739.739,0,0,0,.378.643,3.885,3.885,0,0,0,1.274.423,10.407,10.407,0,0,1,1.511.4,2.482,2.482,0,0,1,1.9,2.416,2.343,2.343,0,0,1-1.054,1.988,4.548,4.548,0,0,1-2.723.76,4.75,4.75,0,0,1-2-.4,3.363,3.363,0,0,1-1.374-1.1,2.565,2.565,0,0,1-.5-1.515H151a1.252,1.252,0,0,0,.473.979,1.877,1.877,0,0,0,1.179.34,1.737,1.737,0,0,0,1.042-.261A.814.814,0,0,0,154.045,15.518Z" transform="translate(1105 3866)" fill="#12263f"/>
        <path id="Intersección_13" data-name="Intersección 13" d="M8441,11822v-82h60.017a65.074,65.074,0,0,1-28.75,82Z" transform="translate(-7397 -7902)" fill="#12263f" opacity="0.11"/>
        <circle id="Elipse_5511" data-name="Elipse 5511" cx="57" cy="57" r="57" transform="translate(987 3806)" fill="#00a6b7"/>
        <circle id="Elipse_5513" data-name="Elipse 5513" cx="32" cy="32" r="32" transform="translate(1012 3831)" fill="#e8e8e8"/>
        <path id="Unión_22" data-name="Unión 22" d="M29.8,71.482,0,49.436,33.932,10.277A24.2,24.2,0,1,1,70.82,41.326L39.2,77.6Z" transform="translate(1027.109 3796.279)" fill="#6f88aa"/>
        <path id="Trazado_600410" data-name="Trazado 600410" d="M21.388,19.079a7.838,7.838,0,0,1-1.617,5.353,5.552,5.552,0,0,1-4.376,1.825,5.6,5.6,0,0,1-4.407-1.825,7.819,7.819,0,0,1-1.624-5.353V15.16a7.867,7.867,0,0,1,1.617-5.353A5.549,5.549,0,0,1,15.37,7.97a5.572,5.572,0,0,1,4.388,1.837,7.827,7.827,0,0,1,1.63,5.353Zm-3.552-4.285A5.849,5.849,0,0,0,17.2,11.7a2.05,2.05,0,0,0-1.831-.983,2.035,2.035,0,0,0-1.831.977,5.939,5.939,0,0,0-.623,3.1V19.42a5.952,5.952,0,0,0,.629,3.125,2.06,2.06,0,0,0,1.849.977,2.024,2.024,0,0,0,1.819-.977,6,6,0,0,0,.623-3.125Zm9.277.806h2A2.432,2.432,0,0,0,31,14.934a2.634,2.634,0,0,0,.61-1.849A2.406,2.406,0,0,0,31,11.364a2.317,2.317,0,0,0-1.77-.647,2.5,2.5,0,0,0-1.685.586,1.928,1.928,0,0,0-.684,1.538H23.4l-.024-.073a4.044,4.044,0,0,1,1.6-3.442,6.38,6.38,0,0,1,4.15-1.355,6.826,6.826,0,0,1,4.4,1.318,4.543,4.543,0,0,1,1.642,3.76,3.774,3.774,0,0,1-.732,2.2,4.87,4.87,0,0,1-2.014,1.63,4.532,4.532,0,0,1,2.252,1.611,4.238,4.238,0,0,1,.775,2.527,4.618,4.618,0,0,1-1.776,3.839,7.131,7.131,0,0,1-4.547,1.4,6.96,6.96,0,0,1-4.254-1.312,4.192,4.192,0,0,1-1.715-3.7l.024-.073h3.455a2.184,2.184,0,0,0,.732,1.691,2.654,2.654,0,0,0,1.855.665,2.7,2.7,0,0,0,1.947-.684,2.448,2.448,0,0,0,.714-1.855,2.688,2.688,0,0,0-.7-2.057,2.936,2.936,0,0,0-2.069-.653h-2Z" transform="translate(1058.999 3802.081)" fill="#fff"/>
        <circle id="Elipse_5514" data-name="Elipse 5514" cx="25" cy="25" r="25" transform="translate(1019 3838)" fill="#fff"/>
        <g id="gafas-de-realidad-virtual" transform="translate(1028 3847)">
          <path id="XMLID_2784_" d="M28,8H24.259C22.842,4.035,19.412,2,14,2,8.926,2,3,4.619,3,12A15.147,15.147,0,0,0,7.373,22.663a8.891,8.891,0,0,1-1.914,5.654,1,1,0,0,0,1.463,1.365c2.22-2.378,2.459-6.013,2.459-7.465a1,1,0,0,0-.358-.767A12.857,12.857,0,0,1,5.056,13H17.142A4,4,0,0,0,21,16h3.873l.5,1H24a1,1,0,0,0-1,1v3.5a.5.5,0,0,1-.5.5H18a1,1,0,0,0-1,1c0,2.361.187,5,1.566,6.643A1,1,0,0,0,20.1,28.358c-.866-1.032-1.05-2.948-1.089-4.357H22.5A2.5,2.5,0,0,0,25,21.5V19h2a1,1,0,0,0,.894-1.451L27.113,16H28a1,1,0,0,0,1-1V9a1,1,0,0,0-1-1ZM14,4c4.192,0,6.865,1.312,8.13,4H21a4,4,0,0,0-3.858,3H5.063C5.7,4.366,12.567,4,14,4Zm5,8a2,2,0,0,1,2-2h6v4H21A2,2,0,0,1,19,12Z" fill="#6f88aa"/>
          <path id="XMLID_278_" d="M22,12a1,1,0,1,1-1-1A1,1,0,0,1,22,12Z" fill="#6f88aa"/>
        </g>
      </g>
      <rect id="Rectángulo_45169" data-name="Rectángulo 45169" width="328" height="141" transform="translate(1007 3920)" fill="#d1eff2"/>
      <text id="_Realidad_virtual._Maquetas_toscas._Tiendas_efímeras._Exploraciones_en_tamaño_real." data-name="● Realidad virtual.
● Maquetas toscas.
● Tiendas efímeras.
● Exploraciones en tamaño real." transform="translate(1032 3942)" fill="#ff2195" font-size="16" font-family="SegoeUI, Segoe UI"><tspan x="0" y="17">●</tspan><tspan y="17" font-family="Roboto-Regular, Roboto"> </tspan><tspan y="17" fill="#12263f" font-family="Roboto-Regular, Roboto">Realidad virtual.</tspan><tspan x="0" y="41">●</tspan><tspan y="41" fill="#727997" font-family="Roboto-Regular, Roboto"> </tspan><tspan y="41" fill="#12263f" font-family="Roboto-Regular, Roboto">Maquetas toscas.</tspan><tspan x="0" y="65">●</tspan><tspan y="65" font-family="Roboto-Regular, Roboto"> </tspan><tspan y="65" fill="#12263f" font-family="Roboto-Regular, Roboto">Tiendas efímeras.</tspan><tspan x="0" y="89">●</tspan><tspan y="89" font-family="Roboto-Regular, Roboto"> </tspan><tspan y="89" fill="#12263f" font-family="Roboto-Regular, Roboto">Exploraciones en tamaño real.</tspan></text>
    </g>
  </g>
</svg>
