<svg xmlns="http://www.w3.org/2000/svg" width="820" height="245.401" viewBox="0 0 820 245.401">
  <g id="Grupo_156410" data-name="Grupo 156410" transform="translate(-390 -4593.65)">
    <path id="Trazado_600379" data-name="Trazado 600379" d="M895,4680.505V4839H878.279Z" fill="#fff"/>
    <path id="Trazado_600378" data-name="Trazado 600378" d="M-7642.624-7069.989v-25.969l161.624,5.771v20.2Z" transform="translate(8376 11700)" fill="#fff"/>
    <g id="Grupo_156344" data-name="Grupo 156344" transform="translate(0 23.65)">
      <g id="Grupo_155297" data-name="Grupo 155297">
        <rect id="Rectángulo_44644" data-name="Rectángulo 44644" width="820" height="244" transform="translate(390 4570)" fill="none"/>
        <g id="Grupo_156409" data-name="Grupo 156409">
          <path id="Trazado_600380" data-name="Trazado 600380" d="M25.5,0h349a25.5,25.5,0,0,1,0,51H25.5a25.5,25.5,0,0,1,0-51Z" transform="translate(810 4620)" fill="#ffd7ec"/>
          <path id="Trazado_600381" data-name="Trazado 600381" d="M25.5,0h349a25.5,25.5,0,0,1,0,51H25.5a25.5,25.5,0,0,1,0-51Z" transform="translate(390 4620)" fill="#ffd7ec"/>
          <path id="Trazado_600382" data-name="Trazado 600382" d="M8800.575,11793.394H8498.137a7.8,7.8,0,0,0,.753-2.355c.131-1.556-.523-10.939-.9-13.73-.2-1.472,1.043-2.626,2.121-3.335a12.272,12.272,0,0,1,2.413-1.2c.062-.021,6.264-2.111,15.671-10.1,6.447-5.475,9.4-15.056,10.585-20.279h271.8a25.5,25.5,0,1,1,0,51Z" transform="translate(-7636.074 -7059.393)" fill="#fff"/>
          <path id="Trazado_600383" data-name="Trazado 600383" d="M8750.5,11765.886h-349a25.5,25.5,0,1,1,0-51h321.262a44.727,44.727,0,0,0,12.413,4.3c4.586.838,7.584,2.121,9.166,3.923a6.174,6.174,0,0,1,1.395,4.446,12.61,12.61,0,0,1-.517,3.032,15.919,15.919,0,0,0-.579,6.531c.6,4.506,1.3,5.787,2.39,6.576.151.109.3.213.475.335a6.128,6.128,0,0,1,2.418,2.654c.312.663.681,1.76,1.071,2.92l.01.028a16.413,16.413,0,0,0,1.708,4.127,4.888,4.888,0,0,0,1.991,1.1c-.016.057-2.226,7.926-2.959,11.008C8751.327,11765.876,8750.908,11765.886,8750.5,11765.886Z" transform="translate(-7966 -7031.885)" fill="#fff"/>
          <path id="Trazado_600384" data-name="Trazado 600384" d="M8901.263,11857.364h-287.99c-.932-5.5-3-15.919-4.569-23.691a54.336,54.336,0,0,1-.43-16.113,87.612,87.612,0,0,1,1.91-11.194h291.079a25.5,25.5,0,1,1,0,51Z" transform="translate(-7760.763 -7060.365)" fill="#ffd7ec"/>
          <path id="Trazado_600385" data-name="Trazado 600385" d="M8683.958,11759.518H8401.5a25.5,25.5,0,1,1,0-51H8655.87a20.85,20.85,0,0,0,7.752,5.636c7.258,3.235,8.558,5.063,8.568,5.081l2.691,5.68a4.422,4.422,0,0,0,0,2.39,24.231,24.231,0,0,1,.8,2.791c-.011.022-1.094,2.2-.8,3.188s2.963,1.984,2.989,1.994l1.494,5.479,1.994.8h.006a20.1,20.1,0,0,1,2.635-.309c.334,0,.519.042.55.124.018.048-.017.11-.1.186-.791.693-.994,13.52-1,13.649l.508,4.314Z" transform="translate(-7942 -6962.52)" fill="#ffd7ec"/>
          <path id="Trazado_600386" data-name="Trazado 600386" d="M64.31,18V5.914h4.142a5.057,5.057,0,0,1,3.121.822,2.894,2.894,0,0,1,1.071,2.449,2.61,2.61,0,0,1-.448,1.494,2.885,2.885,0,0,1-1.312,1.029,2.668,2.668,0,0,1,1.515,1,2.913,2.913,0,0,1,.535,1.764,3.218,3.218,0,0,1-1.092,2.615A4.746,4.746,0,0,1,68.717,18Zm2.1-5.454v3.777h2.333a2.257,2.257,0,0,0,1.544-.49,1.719,1.719,0,0,0,.556-1.361,1.725,1.725,0,0,0-1.926-1.926Zm0-1.544h2.059A2.381,2.381,0,0,0,70,10.558,1.522,1.522,0,0,0,70.552,9.3a1.542,1.542,0,0,0-.51-1.295,2.578,2.578,0,0,0-1.59-.4H66.41Zm8.052,2.424a5.3,5.3,0,0,1,.523-2.378,3.819,3.819,0,0,1,1.469-1.627,4.14,4.14,0,0,1,2.175-.569,3.923,3.923,0,0,1,2.951,1.17,4.6,4.6,0,0,1,1.224,3.1l.008.473a5.343,5.343,0,0,1-.51,2.374,3.773,3.773,0,0,1-1.461,1.619,4.17,4.17,0,0,1-2.2.573A3.9,3.9,0,0,1,75.6,16.9a4.848,4.848,0,0,1-1.141-3.374Zm2.017.174a3.619,3.619,0,0,0,.573,2.171,1.862,1.862,0,0,0,1.594.784,1.842,1.842,0,0,0,1.59-.8,4,4,0,0,0,.569-2.333,3.572,3.572,0,0,0-.585-2.158,1.973,1.973,0,0,0-3.158-.012A3.922,3.922,0,0,0,76.479,13.6ZM89.552,15.56a.914.914,0,0,0-.444-.822,4.723,4.723,0,0,0-1.473-.5,7.574,7.574,0,0,1-1.718-.548,2.293,2.293,0,0,1-1.511-2.117,2.391,2.391,0,0,1,.979-1.942,3.872,3.872,0,0,1,2.49-.78,4.029,4.029,0,0,1,2.6.8,2.529,2.529,0,0,1,.992,2.067H89.453a1.243,1.243,0,0,0-.432-.967,1.654,1.654,0,0,0-1.146-.386,1.787,1.787,0,0,0-1.083.307.968.968,0,0,0-.419.822.818.818,0,0,0,.39.722,5.365,5.365,0,0,0,1.577.519,7.466,7.466,0,0,1,1.864.623,2.639,2.639,0,0,1,1,.867,2.212,2.212,0,0,1,.328,1.229,2.34,2.34,0,0,1-1,1.963,4.283,4.283,0,0,1-2.631.751,4.644,4.644,0,0,1-1.967-.4,3.238,3.238,0,0,1-1.345-1.1,2.594,2.594,0,0,1-.481-1.5h1.959a1.421,1.421,0,0,0,.54,1.1,2.1,2.1,0,0,0,1.32.386,2.04,2.04,0,0,0,1.212-.3A.938.938,0,0,0,89.552,15.56Zm3.362-2.125a5.307,5.307,0,0,1,.963-3.345,3.129,3.129,0,0,1,2.606-1.237,2.941,2.941,0,0,1,2.382,1.054l.116-.888h1.793V21.453H98.758V17.236a3.011,3.011,0,0,1-2.291.93,3.1,3.1,0,0,1-2.582-1.258A5.557,5.557,0,0,1,92.914,13.435Zm2.017.174a3.748,3.748,0,0,0,.544,2.162,1.733,1.733,0,0,0,1.507.784,1.911,1.911,0,0,0,1.776-1.021V11.451A1.912,1.912,0,0,0,97,10.471a1.762,1.762,0,0,0-1.515.772A4.089,4.089,0,0,0,94.931,13.609Zm13.456,3.511a3.128,3.128,0,0,1-2.523,1.046,2.788,2.788,0,0,1-2.212-.855,3.637,3.637,0,0,1-.751-2.474V9.019h2.017v5.794q0,1.71,1.419,1.71a1.993,1.993,0,0,0,1.984-1.054V9.019h2.017V18h-1.9Zm7.96,1.046a4.173,4.173,0,0,1-3.109-1.208,4.381,4.381,0,0,1-1.191-3.217v-.249a5.389,5.389,0,0,1,.519-2.4,3.949,3.949,0,0,1,1.457-1.648,3.851,3.851,0,0,1,2.092-.589,3.525,3.525,0,0,1,2.835,1.17,4.949,4.949,0,0,1,1,3.312v.813h-5.869a2.7,2.7,0,0,0,.743,1.76,2.23,2.23,0,0,0,1.639.647,2.731,2.731,0,0,0,2.258-1.121l1.087,1.038a3.631,3.631,0,0,1-1.44,1.249A4.509,4.509,0,0,1,116.347,18.166Zm-.241-7.695a1.7,1.7,0,0,0-1.341.581,3.012,3.012,0,0,0-.652,1.619h3.843v-.149a2.452,2.452,0,0,0-.54-1.531A1.686,1.686,0,0,0,116.106,10.471Zm7.512-1.453V18.8a2.955,2.955,0,0,1-.685,2.1,2.625,2.625,0,0,1-2,.726,4.031,4.031,0,0,1-1.071-.141V19.893a3.108,3.108,0,0,0,.714.075q1,0,1.029-1.1V9.019Zm-2.191-2.333a1.071,1.071,0,0,1,.295-.772,1.113,1.113,0,0,1,.843-.307,1.127,1.127,0,0,1,.847.307,1.062,1.062,0,0,1,.3.772,1.038,1.038,0,0,1-.3.76,1.136,1.136,0,0,1-.847.3,1.122,1.122,0,0,1-.843-.3A1.046,1.046,0,0,1,121.427,6.686Zm3.968,6.74a5.3,5.3,0,0,1,.523-2.378,3.819,3.819,0,0,1,1.469-1.627,4.14,4.14,0,0,1,2.175-.569,3.923,3.923,0,0,1,2.951,1.17,4.6,4.6,0,0,1,1.224,3.1l.008.473a5.343,5.343,0,0,1-.51,2.374,3.773,3.773,0,0,1-1.461,1.619,4.17,4.17,0,0,1-2.2.573,3.9,3.9,0,0,1-3.042-1.266,4.848,4.848,0,0,1-1.141-3.374Zm2.017.174a3.619,3.619,0,0,0,.573,2.171,1.862,1.862,0,0,0,1.594.784,1.842,1.842,0,0,0,1.59-.8,4,4,0,0,0,.569-2.333,3.572,3.572,0,0,0-.585-2.158,1.973,1.973,0,0,0-3.158-.012A3.922,3.922,0,0,0,127.412,13.6ZM147.683,18h-8.126V16.614l4.026-4.391a10.026,10.026,0,0,0,1.241-1.623,2.629,2.629,0,0,0,.369-1.307,1.986,1.986,0,0,0-.486-1.395,1.684,1.684,0,0,0-1.307-.531,1.942,1.942,0,0,0-1.519.6,2.35,2.35,0,0,0-.54,1.635h-2.017a3.953,3.953,0,0,1,.5-1.988,3.458,3.458,0,0,1,1.436-1.374,4.571,4.571,0,0,1,2.154-.49,4.088,4.088,0,0,1,2.777.884,3.069,3.069,0,0,1,1.017,2.445,4.148,4.148,0,0,1-.51,1.9,10.786,10.786,0,0,1-1.673,2.254l-2.955,3.163h5.611Zm1.859,0V5.914h3.569a5.6,5.6,0,0,1,2.843.714,4.868,4.868,0,0,1,1.922,2.025,6.429,6.429,0,0,1,.681,3v.606a6.4,6.4,0,0,1-.685,3.021,4.809,4.809,0,0,1-1.951,2.009,5.858,5.858,0,0,1-2.9.706Zm2.1-10.393v8.716h1.37a3.154,3.154,0,0,0,2.536-1.033,4.5,4.5,0,0,0,.9-2.968V11.65a4.619,4.619,0,0,0-.855-3,3.031,3.031,0,0,0-2.482-1.038Zm12.725,6.068h-4.358V12.048h4.358Zm8.1-2.64H173.7a2.2,2.2,0,0,0,1.473-.481,1.718,1.718,0,0,0,.544-1.37,1.872,1.872,0,0,0-.452-1.341,1.821,1.821,0,0,0-1.382-.477,1.926,1.926,0,0,0-1.336.469,1.567,1.567,0,0,0-.523,1.224H170a3.053,3.053,0,0,1,.494-1.693,3.318,3.318,0,0,1,1.378-1.191,4.489,4.489,0,0,1,1.98-.427,4.157,4.157,0,0,1,2.843.909,3.19,3.19,0,0,1,1.033,2.528,2.568,2.568,0,0,1-.519,1.531,3.253,3.253,0,0,1-1.341,1.083,2.965,2.965,0,0,1,1.515,1.071,2.932,2.932,0,0,1,.519,1.743,3.246,3.246,0,0,1-1.116,2.59,4.9,4.9,0,0,1-5.79.033,3.062,3.062,0,0,1-1.112-2.474H171.9a1.687,1.687,0,0,0,.535,1.295,2.03,2.03,0,0,0,1.44.5,2.094,2.094,0,0,0,1.478-.5,1.868,1.868,0,0,0,.54-1.444,1.887,1.887,0,0,0-.564-1.469,2.413,2.413,0,0,0-1.677-.515h-1.187ZM180.122,18V5.914h3.569a5.6,5.6,0,0,1,2.843.714,4.868,4.868,0,0,1,1.922,2.025,6.429,6.429,0,0,1,.681,3v.606a6.4,6.4,0,0,1-.685,3.021,4.809,4.809,0,0,1-1.951,2.009,5.858,5.858,0,0,1-2.9.706Zm2.1-10.393v8.716h1.37a3.154,3.154,0,0,0,2.536-1.033,4.5,4.5,0,0,0,.9-2.968V11.65a4.619,4.619,0,0,0-.855-3,3.031,3.031,0,0,0-2.482-1.038Z" transform="translate(491 4636)" fill="#00316e"/>
          <path id="Trazado_600387" data-name="Trazado 600387" d="M3.329,13.518V18h-2.1V5.914H5.852A4.675,4.675,0,0,1,9.069,6.969,3.549,3.549,0,0,1,10.26,9.761a3.431,3.431,0,0,1-1.166,2.767,4.9,4.9,0,0,1-3.266.989Zm0-1.693H5.852a2.485,2.485,0,0,0,1.71-.527,1.937,1.937,0,0,0,.589-1.523,2.09,2.09,0,0,0-.6-1.565,2.3,2.3,0,0,0-1.644-.6H3.329ZM16.6,10.861a4.991,4.991,0,0,0-.822-.066,1.85,1.85,0,0,0-1.868,1.063V18H11.9V9.019h1.926l.05,1A2.273,2.273,0,0,1,15.9,8.853a1.888,1.888,0,0,1,.714.116Zm.6,2.565a5.3,5.3,0,0,1,.523-2.378,3.819,3.819,0,0,1,1.469-1.627,4.14,4.14,0,0,1,2.175-.569,3.923,3.923,0,0,1,2.951,1.17,4.6,4.6,0,0,1,1.224,3.1l.008.473a5.343,5.343,0,0,1-.51,2.374,3.773,3.773,0,0,1-1.461,1.619,4.17,4.17,0,0,1-2.2.573A3.9,3.9,0,0,1,18.341,16.9,4.848,4.848,0,0,1,17.2,13.526Zm2.017.174a3.619,3.619,0,0,0,.573,2.171,1.862,1.862,0,0,0,1.594.784,1.842,1.842,0,0,0,1.59-.8,4,4,0,0,0,.569-2.333,3.572,3.572,0,0,0-.585-2.158,1.973,1.973,0,0,0-3.158-.012A3.922,3.922,0,0,0,19.216,13.6Zm7.662-.158a5.34,5.34,0,0,1,.963-3.333,3.085,3.085,0,0,1,2.582-1.258,2.931,2.931,0,0,1,2.308,1V5.25h2.017V18H32.921l-.1-.93a2.973,2.973,0,0,1-2.416,1.1,3.068,3.068,0,0,1-2.552-1.27A5.535,5.535,0,0,1,26.878,13.443Zm2.017.174a3.739,3.739,0,0,0,.527,2.137,1.71,1.71,0,0,0,1.5.768,1.9,1.9,0,0,0,1.81-1.1V11.583A1.876,1.876,0,0,0,30.937,10.5a1.723,1.723,0,0,0-1.511.776A4.163,4.163,0,0,0,28.9,13.617Zm13.4,3.5a3.128,3.128,0,0,1-2.523,1.046,2.788,2.788,0,0,1-2.212-.855,3.637,3.637,0,0,1-.751-2.474V9.019h2.017v5.794q0,1.71,1.419,1.71a1.993,1.993,0,0,0,1.984-1.054V9.019h2.017V18h-1.9Zm7.695-.564a1.824,1.824,0,0,0,1.253-.44,1.5,1.5,0,0,0,.531-1.087h1.9a2.963,2.963,0,0,1-.523,1.565,3.43,3.43,0,0,1-1.328,1.15,3.958,3.958,0,0,1-1.81.423,3.829,3.829,0,0,1-2.988-1.22,4.84,4.84,0,0,1-1.1-3.37v-.208a4.759,4.759,0,0,1,1.1-3.283A3.8,3.8,0,0,1,50,8.853a3.69,3.69,0,0,1,2.611.934,3.345,3.345,0,0,1,1.058,2.453h-1.9a1.847,1.847,0,0,0-.527-1.27,1.7,1.7,0,0,0-1.258-.5,1.775,1.775,0,0,0-1.511.71,3.621,3.621,0,0,0-.54,2.154v.324a3.682,3.682,0,0,0,.527,2.179A1.773,1.773,0,0,0,49.987,16.556Zm7.736-9.72V9.019h1.585v1.494H57.724v5.014a1.1,1.1,0,0,0,.2.743.943.943,0,0,0,.726.228,3.107,3.107,0,0,0,.706-.083v1.561a4.968,4.968,0,0,1-1.328.191q-2.324,0-2.324-2.565V10.513H54.229V9.019h1.478V6.835Zm2.5,6.591a5.3,5.3,0,0,1,.523-2.378,3.819,3.819,0,0,1,1.469-1.627,4.14,4.14,0,0,1,2.175-.569,3.923,3.923,0,0,1,2.951,1.17,4.6,4.6,0,0,1,1.224,3.1l.008.473a5.343,5.343,0,0,1-.51,2.374A3.773,3.773,0,0,1,66.6,17.593a4.17,4.17,0,0,1-2.2.573A3.9,3.9,0,0,1,61.364,16.9a4.848,4.848,0,0,1-1.141-3.374Zm2.017.174a3.619,3.619,0,0,0,.573,2.171,1.862,1.862,0,0,0,1.594.784,1.842,1.842,0,0,0,1.59-.8,4,4,0,0,0,.569-2.333,3.572,3.572,0,0,0-.585-2.158,1.973,1.973,0,0,0-3.158-.012A3.922,3.922,0,0,0,62.239,13.6Zm16.975-2.739a4.991,4.991,0,0,0-.822-.066,1.85,1.85,0,0,0-1.868,1.063V18H74.508V9.019h1.926l.05,1a2.273,2.273,0,0,1,2.025-1.17,1.888,1.888,0,0,1,.714.116Zm5.229,7.3a4.173,4.173,0,0,1-3.109-1.208,4.381,4.381,0,0,1-1.191-3.217v-.249a5.389,5.389,0,0,1,.519-2.4A3.949,3.949,0,0,1,82.12,9.442a3.851,3.851,0,0,1,2.092-.589,3.525,3.525,0,0,1,2.835,1.17,4.949,4.949,0,0,1,1,3.312v.813H82.178a2.7,2.7,0,0,0,.743,1.76,2.23,2.23,0,0,0,1.639.647,2.731,2.731,0,0,0,2.258-1.121l1.087,1.038a3.631,3.631,0,0,1-1.44,1.249A4.509,4.509,0,0,1,84.444,18.166ZM84.2,10.471a1.7,1.7,0,0,0-1.341.581,3.012,3.012,0,0,0-.652,1.619h3.843v-.149a2.452,2.452,0,0,0-.54-1.531A1.686,1.686,0,0,0,84.2,10.471ZM94.978,18a3.113,3.113,0,0,1-.232-.838,3.393,3.393,0,0,1-4.565.232,2.47,2.47,0,0,1-.855-1.909,2.55,2.55,0,0,1,1.067-2.2,5.169,5.169,0,0,1,3.051-.768h1.237v-.589a1.573,1.573,0,0,0-.39-1.116,1.547,1.547,0,0,0-1.187-.419,1.777,1.777,0,0,0-1.129.344,1.066,1.066,0,0,0-.44.876H89.516a2.239,2.239,0,0,1,.49-1.382,3.263,3.263,0,0,1,1.332-1.009,4.68,4.68,0,0,1,1.88-.365,3.769,3.769,0,0,1,2.515.793,2.827,2.827,0,0,1,.963,2.229v4.051a4.591,4.591,0,0,0,.34,1.934V18Zm-2.216-1.453a2.294,2.294,0,0,0,1.125-.291,1.941,1.941,0,0,0,.793-.78V13.783H93.591a2.973,2.973,0,0,0-1.685.39,1.264,1.264,0,0,0-.564,1.1,1.179,1.179,0,0,0,.386.926A1.5,1.5,0,0,0,92.761,16.547ZM100.954,18H98.937V5.25h2.017Z" transform="translate(919 4636)" fill="#00316e"/>
          <path id="Trazado_600388" data-name="Trazado 600388" d="M13.343,5.914l3.486,9.264,3.478-9.264h2.714V18H20.93V14.016l.208-5.329L17.568,18h-1.5L12.5,8.695l.208,5.321V18H10.62V5.914ZM30.675,18a3.113,3.113,0,0,1-.232-.838,3.393,3.393,0,0,1-4.565.232,2.47,2.47,0,0,1-.855-1.909,2.55,2.55,0,0,1,1.067-2.2,5.169,5.169,0,0,1,3.051-.768h1.237v-.589a1.573,1.573,0,0,0-.39-1.116,1.547,1.547,0,0,0-1.187-.419,1.777,1.777,0,0,0-1.129.344,1.066,1.066,0,0,0-.44.876H25.213a2.239,2.239,0,0,1,.49-1.382,3.263,3.263,0,0,1,1.332-1.009,4.68,4.68,0,0,1,1.88-.365,3.769,3.769,0,0,1,2.515.793,2.827,2.827,0,0,1,.963,2.229v4.051a4.591,4.591,0,0,0,.34,1.934V18Zm-2.216-1.453a2.294,2.294,0,0,0,1.125-.291,1.941,1.941,0,0,0,.793-.78V13.783H29.289a2.973,2.973,0,0,0-1.685.39,1.264,1.264,0,0,0-.564,1.1,1.179,1.179,0,0,0,.386.926A1.5,1.5,0,0,0,28.458,16.547Zm5.669-3.113a5.307,5.307,0,0,1,.963-3.345A3.129,3.129,0,0,1,37.7,8.853,2.941,2.941,0,0,1,40.08,9.907l.116-.888h1.793V21.453H39.972V17.236a3.011,3.011,0,0,1-2.291.93A3.1,3.1,0,0,1,35.1,16.908,5.557,5.557,0,0,1,34.128,13.435Zm2.017.174a3.748,3.748,0,0,0,.544,2.162,1.733,1.733,0,0,0,1.507.784,1.911,1.911,0,0,0,1.776-1.021V11.451a1.912,1.912,0,0,0-1.76-.979,1.762,1.762,0,0,0-1.515.772A4.089,4.089,0,0,0,36.145,13.609ZM49.6,17.12a3.128,3.128,0,0,1-2.523,1.046,2.788,2.788,0,0,1-2.212-.855,3.637,3.637,0,0,1-.751-2.474V9.019h2.017v5.794q0,1.71,1.419,1.71a1.993,1.993,0,0,0,1.984-1.054V9.019h2.017V18h-1.9Zm7.96,1.046a4.173,4.173,0,0,1-3.109-1.208,4.381,4.381,0,0,1-1.191-3.217v-.249a5.389,5.389,0,0,1,.519-2.4,3.949,3.949,0,0,1,1.457-1.648,3.851,3.851,0,0,1,2.092-.589,3.525,3.525,0,0,1,2.835,1.17,4.949,4.949,0,0,1,1,3.312v.813H55.295a2.7,2.7,0,0,0,.743,1.76,2.23,2.23,0,0,0,1.639.647,2.731,2.731,0,0,0,2.258-1.121l1.087,1.038a3.631,3.631,0,0,1-1.44,1.249A4.509,4.509,0,0,1,57.561,18.166Zm-.241-7.695a1.7,1.7,0,0,0-1.341.581,3.012,3.012,0,0,0-.652,1.619h3.843v-.149a2.452,2.452,0,0,0-.54-1.531A1.686,1.686,0,0,0,57.32,10.471Zm7.936-3.636V9.019h1.585v1.494H65.256v5.014a1.1,1.1,0,0,0,.2.743.943.943,0,0,0,.726.228,3.107,3.107,0,0,0,.706-.083v1.561a4.968,4.968,0,0,1-1.328.191q-2.324,0-2.324-2.565V10.513H61.761V9.019h1.478V6.835ZM73.748,18a3.113,3.113,0,0,1-.232-.838,3.393,3.393,0,0,1-4.565.232,2.47,2.47,0,0,1-.855-1.909,2.55,2.55,0,0,1,1.067-2.2,5.169,5.169,0,0,1,3.051-.768h1.237v-.589a1.573,1.573,0,0,0-.39-1.116,1.547,1.547,0,0,0-1.187-.419,1.777,1.777,0,0,0-1.129.344,1.066,1.066,0,0,0-.44.876H68.286a2.239,2.239,0,0,1,.49-1.382,3.263,3.263,0,0,1,1.332-1.009,4.68,4.68,0,0,1,1.88-.365,3.769,3.769,0,0,1,2.515.793,2.827,2.827,0,0,1,.963,2.229v4.051a4.591,4.591,0,0,0,.34,1.934V18Zm-2.216-1.453a2.294,2.294,0,0,0,1.125-.291,1.941,1.941,0,0,0,.793-.78V13.783H72.361a2.973,2.973,0,0,0-1.685.39,1.264,1.264,0,0,0-.564,1.1,1.179,1.179,0,0,0,.386.926A1.5,1.5,0,0,0,71.531,16.547ZM89.677,13.6a5.348,5.348,0,0,1-.946,3.324,3.287,3.287,0,0,1-4.906.27v4.258H81.808V9.019h1.859l.083.913a2.963,2.963,0,0,1,2.416-1.079,3.062,3.062,0,0,1,2.577,1.224,5.49,5.49,0,0,1,.934,3.4Zm-2.009-.174a3.746,3.746,0,0,0-.535-2.133A1.741,1.741,0,0,0,85.6,10.5a1.856,1.856,0,0,0-1.776,1.021V15.51a1.873,1.873,0,0,0,1.793,1.046,1.739,1.739,0,0,0,1.507-.776A4.124,4.124,0,0,0,87.668,13.426ZM96.749,18a3.113,3.113,0,0,1-.232-.838,3.393,3.393,0,0,1-4.565.232,2.47,2.47,0,0,1-.855-1.909,2.55,2.55,0,0,1,1.067-2.2,5.169,5.169,0,0,1,3.051-.768H96.45v-.589a1.573,1.573,0,0,0-.39-1.116,1.547,1.547,0,0,0-1.187-.419,1.777,1.777,0,0,0-1.129.344,1.066,1.066,0,0,0-.44.876H91.287a2.239,2.239,0,0,1,.49-1.382,3.263,3.263,0,0,1,1.332-1.009,4.68,4.68,0,0,1,1.88-.365,3.769,3.769,0,0,1,2.515.793,2.827,2.827,0,0,1,.963,2.229v4.051a4.591,4.591,0,0,0,.34,1.934V18Zm-2.216-1.453a2.294,2.294,0,0,0,1.125-.291,1.941,1.941,0,0,0,.793-.78V13.783H95.363a2.973,2.973,0,0,0-1.685.39,1.264,1.264,0,0,0-.564,1.1,1.179,1.179,0,0,0,.386.926A1.5,1.5,0,0,0,94.533,16.547ZM108.445,13.6a5.348,5.348,0,0,1-.946,3.324,3.287,3.287,0,0,1-4.906.27v4.258h-2.017V9.019h1.859l.083.913a2.963,2.963,0,0,1,2.416-1.079,3.062,3.062,0,0,1,2.577,1.224,5.49,5.49,0,0,1,.934,3.4Zm-2.009-.174a3.746,3.746,0,0,0-.535-2.133,1.741,1.741,0,0,0-1.531-.789,1.856,1.856,0,0,0-1.776,1.021V15.51a1.873,1.873,0,0,0,1.793,1.046,1.739,1.739,0,0,0,1.507-.776A4.124,4.124,0,0,0,106.436,13.426Zm7.67,4.74A4.173,4.173,0,0,1,111,16.958a4.381,4.381,0,0,1-1.191-3.217v-.249a5.389,5.389,0,0,1,.519-2.4,3.949,3.949,0,0,1,1.457-1.648,3.851,3.851,0,0,1,2.092-.589,3.525,3.525,0,0,1,2.835,1.17,4.949,4.949,0,0,1,1,3.312v.813H111.84a2.7,2.7,0,0,0,.743,1.76,2.23,2.23,0,0,0,1.639.647,2.731,2.731,0,0,0,2.258-1.121l1.087,1.038a3.631,3.631,0,0,1-1.44,1.249A4.509,4.509,0,0,1,114.106,18.166Zm-.241-7.695a1.7,1.7,0,0,0-1.341.581,3.012,3.012,0,0,0-.652,1.619h3.843v-.149a2.452,2.452,0,0,0-.54-1.531A1.686,1.686,0,0,0,113.865,10.471ZM121.419,18H119.4V5.25h2.017Zm6.051-4.574a5.3,5.3,0,0,1,.523-2.378,3.819,3.819,0,0,1,1.469-1.627,4.14,4.14,0,0,1,2.175-.569,3.923,3.923,0,0,1,2.951,1.17,4.6,4.6,0,0,1,1.224,3.1l.008.473a5.343,5.343,0,0,1-.51,2.374,3.773,3.773,0,0,1-1.461,1.619,4.17,4.17,0,0,1-2.2.573,3.9,3.9,0,0,1-3.042-1.266,4.848,4.848,0,0,1-1.141-3.374Zm2.017.174a3.619,3.619,0,0,0,.573,2.171,1.862,1.862,0,0,0,1.594.784,1.842,1.842,0,0,0,1.59-.8,4,4,0,0,0,.569-2.333,3.572,3.572,0,0,0-.585-2.158,1.973,1.973,0,0,0-3.158-.012A3.922,3.922,0,0,0,129.487,13.6Zm15.962,2.955a1.824,1.824,0,0,0,1.253-.44,1.5,1.5,0,0,0,.531-1.087h1.9a2.963,2.963,0,0,1-.523,1.565,3.43,3.43,0,0,1-1.328,1.15,3.958,3.958,0,0,1-1.81.423,3.829,3.829,0,0,1-2.988-1.22,4.84,4.84,0,0,1-1.1-3.37v-.208a4.759,4.759,0,0,1,1.1-3.283,3.8,3.8,0,0,1,2.988-1.233,3.69,3.69,0,0,1,2.611.934,3.345,3.345,0,0,1,1.058,2.453h-1.9a1.847,1.847,0,0,0-.527-1.27,1.7,1.7,0,0,0-1.258-.5,1.775,1.775,0,0,0-1.511.71,3.621,3.621,0,0,0-.54,2.154v.324a3.682,3.682,0,0,0,.527,2.179A1.773,1.773,0,0,0,145.45,16.556ZM156.025,18a3.113,3.113,0,0,1-.232-.838,3.393,3.393,0,0,1-4.565.232,2.47,2.47,0,0,1-.855-1.909,2.55,2.55,0,0,1,1.067-2.2,5.169,5.169,0,0,1,3.051-.768h1.237v-.589a1.573,1.573,0,0,0-.39-1.116,1.547,1.547,0,0,0-1.187-.419,1.777,1.777,0,0,0-1.129.344,1.066,1.066,0,0,0-.44.876h-2.017a2.239,2.239,0,0,1,.49-1.382,3.263,3.263,0,0,1,1.332-1.009,4.68,4.68,0,0,1,1.88-.365,3.769,3.769,0,0,1,2.515.793,2.827,2.827,0,0,1,.963,2.229v4.051a4.591,4.591,0,0,0,.34,1.934V18Zm-2.216-1.453a2.294,2.294,0,0,0,1.125-.291,1.941,1.941,0,0,0,.793-.78V13.783h-1.087a2.973,2.973,0,0,0-1.685.39,1.264,1.264,0,0,0-.564,1.1,1.179,1.179,0,0,0,.386.926A1.5,1.5,0,0,0,153.809,16.547Zm10.75-5.686a4.991,4.991,0,0,0-.822-.066,1.85,1.85,0,0,0-1.868,1.063V18h-2.017V9.019h1.926l.05,1a2.273,2.273,0,0,1,2.025-1.17,1.888,1.888,0,0,1,.714.116Zm4.217-4.026V9.019h1.585v1.494h-1.585v5.014a1.1,1.1,0,0,0,.2.743.943.943,0,0,0,.726.228,3.107,3.107,0,0,0,.706-.083v1.561a4.968,4.968,0,0,1-1.328.191q-2.324,0-2.324-2.565V10.513H165.28V9.019h1.478V6.835Zm2.748,6.591a5.3,5.3,0,0,1,.523-2.378,3.819,3.819,0,0,1,1.469-1.627,4.14,4.14,0,0,1,2.175-.569,3.923,3.923,0,0,1,2.951,1.17,4.6,4.6,0,0,1,1.224,3.1l.008.473a5.343,5.343,0,0,1-.51,2.374,3.773,3.773,0,0,1-1.461,1.619,4.17,4.17,0,0,1-2.2.573,3.9,3.9,0,0,1-3.042-1.266,4.848,4.848,0,0,1-1.141-3.374Zm2.017.174a3.619,3.619,0,0,0,.573,2.171,1.862,1.862,0,0,0,1.594.784,1.842,1.842,0,0,0,1.59-.8,4,4,0,0,0,.569-2.333,3.572,3.572,0,0,0-.585-2.158,1.973,1.973,0,0,0-3.158-.012A3.922,3.922,0,0,0,173.54,13.6Zm2.706-8.351h2.3l-2.3,2.515-1.619,0Zm7.205,3.769.058,1.038a3.229,3.229,0,0,1,2.615-1.2q2.806,0,2.855,3.212V18h-2.017V12.181a1.85,1.85,0,0,0-.369-1.266,1.554,1.554,0,0,0-1.208-.411,1.944,1.944,0,0,0-1.818,1.1V18H181.55V9.019Z" transform="translate(491 4699)" fill="#00316e"/>
          <path id="Trazado_600389" data-name="Trazado 600389" d="M3.329,13.518V18h-2.1V5.914H5.852A4.675,4.675,0,0,1,9.069,6.969,3.549,3.549,0,0,1,10.26,9.761a3.431,3.431,0,0,1-1.166,2.767,4.9,4.9,0,0,1-3.266.989Zm0-1.693H5.852a2.485,2.485,0,0,0,1.71-.527,1.937,1.937,0,0,0,.589-1.523,2.09,2.09,0,0,0-.6-1.565,2.3,2.3,0,0,0-1.644-.6H3.329ZM16.6,10.861a4.991,4.991,0,0,0-.822-.066,1.85,1.85,0,0,0-1.868,1.063V18H11.9V9.019h1.926l.05,1A2.273,2.273,0,0,1,15.9,8.853a1.888,1.888,0,0,1,.714.116Zm.6,2.565a5.3,5.3,0,0,1,.523-2.378,3.819,3.819,0,0,1,1.469-1.627,4.14,4.14,0,0,1,2.175-.569,3.923,3.923,0,0,1,2.951,1.17,4.6,4.6,0,0,1,1.224,3.1l.008.473a5.343,5.343,0,0,1-.51,2.374,3.773,3.773,0,0,1-1.461,1.619,4.17,4.17,0,0,1-2.2.573A3.9,3.9,0,0,1,18.341,16.9,4.848,4.848,0,0,1,17.2,13.526Zm2.017.174a3.619,3.619,0,0,0,.573,2.171,1.862,1.862,0,0,0,1.594.784,1.842,1.842,0,0,0,1.59-.8,4,4,0,0,0,.569-2.333,3.572,3.572,0,0,0-.585-2.158,1.973,1.973,0,0,0-3.158-.012A3.922,3.922,0,0,0,19.216,13.6Zm7.662-.158a5.34,5.34,0,0,1,.963-3.333,3.085,3.085,0,0,1,2.582-1.258,2.931,2.931,0,0,1,2.308,1V5.25h2.017V18H32.921l-.1-.93a2.973,2.973,0,0,1-2.416,1.1,3.068,3.068,0,0,1-2.552-1.27A5.535,5.535,0,0,1,26.878,13.443Zm2.017.174a3.739,3.739,0,0,0,.527,2.137,1.71,1.71,0,0,0,1.5.768,1.9,1.9,0,0,0,1.81-1.1V11.583A1.876,1.876,0,0,0,30.937,10.5a1.723,1.723,0,0,0-1.511.776A4.163,4.163,0,0,0,28.9,13.617Zm13.4,3.5a3.128,3.128,0,0,1-2.523,1.046,2.788,2.788,0,0,1-2.212-.855,3.637,3.637,0,0,1-.751-2.474V9.019h2.017v5.794q0,1.71,1.419,1.71a1.993,1.993,0,0,0,1.984-1.054V9.019h2.017V18h-1.9Zm7.695-.564a1.824,1.824,0,0,0,1.253-.44,1.5,1.5,0,0,0,.531-1.087h1.9a2.963,2.963,0,0,1-.523,1.565,3.43,3.43,0,0,1-1.328,1.15,3.958,3.958,0,0,1-1.81.423,3.829,3.829,0,0,1-2.988-1.22,4.84,4.84,0,0,1-1.1-3.37v-.208a4.759,4.759,0,0,1,1.1-3.283A3.8,3.8,0,0,1,50,8.853a3.69,3.69,0,0,1,2.611.934,3.345,3.345,0,0,1,1.058,2.453h-1.9a1.847,1.847,0,0,0-.527-1.27,1.7,1.7,0,0,0-1.258-.5,1.775,1.775,0,0,0-1.511.71,3.621,3.621,0,0,0-.54,2.154v.324a3.682,3.682,0,0,0,.527,2.179A1.773,1.773,0,0,0,49.987,16.556Zm8.9,0a1.824,1.824,0,0,0,1.253-.44,1.5,1.5,0,0,0,.531-1.087h1.9a2.963,2.963,0,0,1-.523,1.565,3.43,3.43,0,0,1-1.328,1.15,3.958,3.958,0,0,1-1.81.423,3.829,3.829,0,0,1-2.988-1.22,4.84,4.84,0,0,1-1.1-3.37v-.208a4.759,4.759,0,0,1,1.1-3.283A3.8,3.8,0,0,1,58.9,8.853a3.69,3.69,0,0,1,2.611.934,3.345,3.345,0,0,1,1.058,2.453h-1.9a1.847,1.847,0,0,0-.527-1.27,1.7,1.7,0,0,0-1.258-.5,1.775,1.775,0,0,0-1.511.71,3.621,3.621,0,0,0-.54,2.154v.324a3.682,3.682,0,0,0,.527,2.179A1.773,1.773,0,0,0,58.886,16.556ZM66.24,18H64.223V9.019H66.24ZM64.1,6.686a1.071,1.071,0,0,1,.295-.772,1.113,1.113,0,0,1,.843-.307,1.127,1.127,0,0,1,.847.307,1.062,1.062,0,0,1,.3.772,1.038,1.038,0,0,1-.3.76,1.136,1.136,0,0,1-.847.3,1.122,1.122,0,0,1-.843-.3A1.046,1.046,0,0,1,64.1,6.686Zm3.959,6.74a5.3,5.3,0,0,1,.523-2.378A3.819,3.819,0,0,1,70.05,9.421a4.14,4.14,0,0,1,2.175-.569,3.923,3.923,0,0,1,2.951,1.17,4.6,4.6,0,0,1,1.224,3.1l.008.473a5.343,5.343,0,0,1-.51,2.374,3.773,3.773,0,0,1-1.461,1.619,4.17,4.17,0,0,1-2.2.573A3.9,3.9,0,0,1,69.2,16.9a4.848,4.848,0,0,1-1.141-3.374Zm2.017.174a3.619,3.619,0,0,0,.573,2.171,1.862,1.862,0,0,0,1.594.784,1.842,1.842,0,0,0,1.59-.8,4,4,0,0,0,.569-2.333,3.572,3.572,0,0,0-.585-2.158,1.973,1.973,0,0,0-3.158-.012A3.922,3.922,0,0,0,70.075,13.6ZM72.781,5.25h2.3l-2.3,2.515-1.619,0Zm7.205,3.769.058,1.038a3.229,3.229,0,0,1,2.615-1.2q2.806,0,2.855,3.212V18H83.5V12.181a1.85,1.85,0,0,0-.369-1.266A1.554,1.554,0,0,0,81.92,10.5a1.944,1.944,0,0,0-1.818,1.1V18H78.085V9.019ZM97.169,18a3.113,3.113,0,0,1-.232-.838,3.393,3.393,0,0,1-4.565.232,2.47,2.47,0,0,1-.855-1.909,2.55,2.55,0,0,1,1.067-2.2,5.169,5.169,0,0,1,3.051-.768H96.87v-.589a1.573,1.573,0,0,0-.39-1.116,1.547,1.547,0,0,0-1.187-.419,1.777,1.777,0,0,0-1.129.344,1.066,1.066,0,0,0-.44.876H91.707a2.239,2.239,0,0,1,.49-1.382,3.263,3.263,0,0,1,1.332-1.009,4.68,4.68,0,0,1,1.88-.365,3.769,3.769,0,0,1,2.515.793,2.827,2.827,0,0,1,.963,2.229v4.051a4.591,4.591,0,0,0,.34,1.934V18Zm-2.216-1.453a2.294,2.294,0,0,0,1.125-.291,1.941,1.941,0,0,0,.793-.78V13.783H95.783a2.973,2.973,0,0,0-1.685.39,1.264,1.264,0,0,0-.564,1.1,1.179,1.179,0,0,0,.386.926A1.5,1.5,0,0,0,94.953,16.547ZM113.1,13.6a5.348,5.348,0,0,1-.946,3.324,3.287,3.287,0,0,1-4.906.27v4.258h-2.017V9.019h1.859l.083.913a2.963,2.963,0,0,1,2.416-1.079,3.062,3.062,0,0,1,2.577,1.224,5.49,5.49,0,0,1,.934,3.4Zm-2.009-.174a3.746,3.746,0,0,0-.535-2.133,1.741,1.741,0,0,0-1.531-.789,1.856,1.856,0,0,0-1.776,1.021V15.51a1.873,1.873,0,0,0,1.793,1.046,1.739,1.739,0,0,0,1.507-.776A4.124,4.124,0,0,0,111.089,13.426Zm7.67,4.74a4.173,4.173,0,0,1-3.109-1.208,4.381,4.381,0,0,1-1.191-3.217v-.249a5.389,5.389,0,0,1,.519-2.4,3.949,3.949,0,0,1,1.457-1.648,3.851,3.851,0,0,1,2.092-.589,3.525,3.525,0,0,1,2.835,1.17,4.949,4.949,0,0,1,1,3.312v.813h-5.869a2.7,2.7,0,0,0,.743,1.76,2.23,2.23,0,0,0,1.639.647,2.731,2.731,0,0,0,2.258-1.121l1.087,1.038a3.631,3.631,0,0,1-1.44,1.249A4.509,4.509,0,0,1,118.759,18.166Zm-.241-7.695a1.7,1.7,0,0,0-1.341.581,3.012,3.012,0,0,0-.652,1.619h3.843v-.149a2.452,2.452,0,0,0-.54-1.531A1.686,1.686,0,0,0,118.519,10.471Zm5.03,2.963a5.307,5.307,0,0,1,.963-3.345,3.129,3.129,0,0,1,2.606-1.237A2.941,2.941,0,0,1,129.5,9.907l.116-.888h1.793V21.453h-2.017V17.236a3.011,3.011,0,0,1-2.291.93,3.1,3.1,0,0,1-2.582-1.258A5.557,5.557,0,0,1,123.549,13.435Zm2.017.174a3.748,3.748,0,0,0,.544,2.162,1.733,1.733,0,0,0,1.507.784,1.911,1.911,0,0,0,1.776-1.021V11.451a1.912,1.912,0,0,0-1.76-.979,1.762,1.762,0,0,0-1.515.772A4.089,4.089,0,0,0,125.566,13.609Zm13.456,3.511a3.128,3.128,0,0,1-2.523,1.046,2.788,2.788,0,0,1-2.212-.855,3.637,3.637,0,0,1-.751-2.474V9.019h2.017v5.794q0,1.71,1.419,1.71a1.993,1.993,0,0,0,1.984-1.054V9.019h2.017V18h-1.9Zm7.96,1.046a4.173,4.173,0,0,1-3.109-1.208,4.381,4.381,0,0,1-1.191-3.217v-.249a5.389,5.389,0,0,1,.519-2.4,3.949,3.949,0,0,1,1.457-1.648,3.851,3.851,0,0,1,2.092-.589,3.525,3.525,0,0,1,2.835,1.17,4.949,4.949,0,0,1,1,3.312v.813h-5.869a2.7,2.7,0,0,0,.743,1.76,2.23,2.23,0,0,0,1.639.647,2.731,2.731,0,0,0,2.258-1.121l1.087,1.038A3.631,3.631,0,0,1,149,17.722,4.509,4.509,0,0,1,146.982,18.166Zm-.241-7.695a1.7,1.7,0,0,0-1.341.581,3.012,3.012,0,0,0-.652,1.619h3.843v-.149a2.452,2.452,0,0,0-.54-1.531A1.686,1.686,0,0,0,146.741,10.471Zm7.28-1.453.058,1.038a3.229,3.229,0,0,1,2.615-1.2q2.806,0,2.855,3.212V18h-2.017V12.181a1.85,1.85,0,0,0-.369-1.266,1.554,1.554,0,0,0-1.208-.411,1.944,1.944,0,0,0-1.818,1.1V18H152.12V9.019Zm4.9-3.586a2.231,2.231,0,0,1-.527,1.519,1.681,1.681,0,0,1-1.324.606,1.972,1.972,0,0,1-.56-.071,3.564,3.564,0,0,1-.672-.32,3.323,3.323,0,0,0-.614-.3,1.465,1.465,0,0,0-.394-.05.7.7,0,0,0-.535.237.872.872,0,0,0-.22.618l-1.237-.066a2.3,2.3,0,0,1,.527-1.536,1.654,1.654,0,0,1,1.316-.623,2.449,2.449,0,0,1,1.141.374,2.413,2.413,0,0,0,1.1.374.717.717,0,0,0,.54-.237.874.874,0,0,0,.224-.627ZM166.97,18a3.113,3.113,0,0,1-.232-.838,3.393,3.393,0,0,1-4.565.232,2.47,2.47,0,0,1-.855-1.909,2.55,2.55,0,0,1,1.067-2.2,5.169,5.169,0,0,1,3.051-.768h1.237v-.589a1.573,1.573,0,0,0-.39-1.116,1.547,1.547,0,0,0-1.187-.419,1.777,1.777,0,0,0-1.129.344,1.066,1.066,0,0,0-.44.876h-2.017a2.239,2.239,0,0,1,.49-1.382,3.263,3.263,0,0,1,1.332-1.009,4.68,4.68,0,0,1,1.88-.365,3.769,3.769,0,0,1,2.515.793,2.827,2.827,0,0,1,.963,2.229v4.051a4.591,4.591,0,0,0,.34,1.934V18Zm-2.216-1.453a2.294,2.294,0,0,0,1.125-.291,1.941,1.941,0,0,0,.793-.78V13.783h-1.087a2.973,2.973,0,0,0-1.685.39,1.264,1.264,0,0,0-.564,1.1,1.179,1.179,0,0,0,.386.926A1.5,1.5,0,0,0,164.754,16.547Zm14.236,1.619a4.173,4.173,0,0,1-3.109-1.208,4.381,4.381,0,0,1-1.191-3.217v-.249a5.389,5.389,0,0,1,.519-2.4,3.949,3.949,0,0,1,1.457-1.648,3.851,3.851,0,0,1,2.092-.589,3.525,3.525,0,0,1,2.835,1.17,4.949,4.949,0,0,1,1,3.312v.813h-5.869a2.7,2.7,0,0,0,.743,1.76,2.23,2.23,0,0,0,1.639.647,2.731,2.731,0,0,0,2.258-1.121l1.087,1.038a3.631,3.631,0,0,1-1.44,1.249A4.509,4.509,0,0,1,178.99,18.166Zm-.241-7.695a1.7,1.7,0,0,0-1.341.581,3.012,3.012,0,0,0-.652,1.619H180.6v-.149a2.452,2.452,0,0,0-.54-1.531A1.686,1.686,0,0,0,178.749,10.471Zm10.442,5.088a.914.914,0,0,0-.444-.822,4.723,4.723,0,0,0-1.473-.5,7.574,7.574,0,0,1-1.718-.548,2.293,2.293,0,0,1-1.511-2.117,2.391,2.391,0,0,1,.979-1.942,3.872,3.872,0,0,1,2.49-.78,4.029,4.029,0,0,1,2.6.8,2.529,2.529,0,0,1,.992,2.067h-2.017a1.243,1.243,0,0,0-.432-.967,1.654,1.654,0,0,0-1.146-.386,1.787,1.787,0,0,0-1.083.307.968.968,0,0,0-.419.822.818.818,0,0,0,.39.722,5.365,5.365,0,0,0,1.577.519,7.466,7.466,0,0,1,1.864.623,2.639,2.639,0,0,1,1,.867,2.212,2.212,0,0,1,.328,1.229,2.34,2.34,0,0,1-1,1.963,4.283,4.283,0,0,1-2.631.751,4.644,4.644,0,0,1-1.967-.4,3.238,3.238,0,0,1-1.345-1.1,2.594,2.594,0,0,1-.481-1.5h1.959a1.421,1.421,0,0,0,.54,1.1,2.1,2.1,0,0,0,1.32.386,2.04,2.04,0,0,0,1.212-.3A.938.938,0,0,0,189.191,15.56Zm7.429,1a1.824,1.824,0,0,0,1.253-.44,1.5,1.5,0,0,0,.531-1.087h1.9a2.963,2.963,0,0,1-.523,1.565,3.43,3.43,0,0,1-1.328,1.15,3.958,3.958,0,0,1-1.81.423,3.829,3.829,0,0,1-2.988-1.22,4.84,4.84,0,0,1-1.1-3.37v-.208a4.759,4.759,0,0,1,1.1-3.283,3.8,3.8,0,0,1,2.988-1.233,3.69,3.69,0,0,1,2.611.934,3.345,3.345,0,0,1,1.058,2.453h-1.9a1.847,1.847,0,0,0-.527-1.27,1.7,1.7,0,0,0-1.258-.5,1.775,1.775,0,0,0-1.511.71,3.621,3.621,0,0,0-.54,2.154v.324a3.682,3.682,0,0,0,.527,2.179A1.773,1.773,0,0,0,196.621,16.556ZM207.2,18a3.113,3.113,0,0,1-.232-.838,3.393,3.393,0,0,1-4.565.232,2.47,2.47,0,0,1-.855-1.909,2.55,2.55,0,0,1,1.067-2.2,5.169,5.169,0,0,1,3.051-.768H206.9v-.589a1.573,1.573,0,0,0-.39-1.116,1.547,1.547,0,0,0-1.187-.419,1.777,1.777,0,0,0-1.129.344,1.066,1.066,0,0,0-.44.876h-2.017a2.239,2.239,0,0,1,.49-1.382,3.263,3.263,0,0,1,1.332-1.009,4.68,4.68,0,0,1,1.88-.365,3.769,3.769,0,0,1,2.515.793,2.827,2.827,0,0,1,.963,2.229v4.051a4.591,4.591,0,0,0,.34,1.934V18Zm-2.216-1.453a2.294,2.294,0,0,0,1.125-.291,1.941,1.941,0,0,0,.793-.78V13.783H205.81a2.973,2.973,0,0,0-1.685.39,1.264,1.264,0,0,0-.564,1.1,1.179,1.179,0,0,0,.386.926A1.5,1.5,0,0,0,204.979,16.547ZM213.172,18h-2.017V5.25h2.017Zm7.562,0a3.113,3.113,0,0,1-.232-.838,3.393,3.393,0,0,1-4.565.232,2.47,2.47,0,0,1-.855-1.909,2.55,2.55,0,0,1,1.067-2.2,5.169,5.169,0,0,1,3.051-.768h1.237v-.589a1.573,1.573,0,0,0-.39-1.116,1.547,1.547,0,0,0-1.187-.419,1.777,1.777,0,0,0-1.129.344,1.066,1.066,0,0,0-.44.876h-2.017a2.239,2.239,0,0,1,.49-1.382,3.263,3.263,0,0,1,1.332-1.009,4.68,4.68,0,0,1,1.88-.365,3.769,3.769,0,0,1,2.515.793,2.827,2.827,0,0,1,.963,2.229v4.051a4.591,4.591,0,0,0,.34,1.934V18Zm-2.216-1.453a2.294,2.294,0,0,0,1.125-.291,1.941,1.941,0,0,0,.793-.78V13.783h-1.087a2.973,2.973,0,0,0-1.685.39,1.264,1.264,0,0,0-.564,1.1,1.179,1.179,0,0,0,.386.926A1.5,1.5,0,0,0,218.518,16.547Z" transform="translate(919 4699)" fill="#00316e"/>
          <path id="Trazado_600390" data-name="Trazado 600390" d="M91.935,18H89.843V5.914h2.092Zm4.283-8.981.058.938a3.232,3.232,0,0,1,2.59-1.1,2.483,2.483,0,0,1,2.465,1.378,3.186,3.186,0,0,1,2.756-1.378,2.8,2.8,0,0,1,2.212.822,3.618,3.618,0,0,1,.743,2.424V18h-2.017V12.156a1.786,1.786,0,0,0-.374-1.253,1.635,1.635,0,0,0-1.237-.4,1.679,1.679,0,0,0-1.125.369,1.948,1.948,0,0,0-.61.967L101.688,18H99.671V12.09A1.439,1.439,0,0,0,98.052,10.5a1.776,1.776,0,0,0-1.718.988V18H94.317V9.019Zm20.76,4.582a5.348,5.348,0,0,1-.946,3.324,3.287,3.287,0,0,1-4.906.27v4.258h-2.017V9.019h1.859l.083.913a2.963,2.963,0,0,1,2.416-1.079,3.062,3.062,0,0,1,2.577,1.224,5.49,5.49,0,0,1,.934,3.4Zm-2.009-.174a3.746,3.746,0,0,0-.535-2.133A1.741,1.741,0,0,0,112.9,10.5a1.856,1.856,0,0,0-1.776,1.021V15.51a1.873,1.873,0,0,0,1.793,1.046,1.739,1.739,0,0,0,1.507-.776A4.124,4.124,0,0,0,114.969,13.426Zm8.417-2.565a4.991,4.991,0,0,0-.822-.066,1.85,1.85,0,0,0-1.868,1.063V18H118.68V9.019h1.926l.05,1a2.273,2.273,0,0,1,2.025-1.17,1.888,1.888,0,0,1,.714.116Zm5.229,7.3a4.173,4.173,0,0,1-3.109-1.208,4.381,4.381,0,0,1-1.191-3.217v-.249a5.389,5.389,0,0,1,.519-2.4,3.949,3.949,0,0,1,1.457-1.648,3.851,3.851,0,0,1,2.092-.589,3.525,3.525,0,0,1,2.835,1.17,4.949,4.949,0,0,1,1,3.312v.813H126.35a2.7,2.7,0,0,0,.743,1.76,2.23,2.23,0,0,0,1.639.647,2.731,2.731,0,0,0,2.258-1.121l1.087,1.038a3.631,3.631,0,0,1-1.44,1.249A4.509,4.509,0,0,1,128.616,18.166Zm-.241-7.695a1.7,1.7,0,0,0-1.341.581,3.012,3.012,0,0,0-.652,1.619h3.843v-.149a2.452,2.452,0,0,0-.54-1.531A1.686,1.686,0,0,0,128.375,10.471Zm10.442,5.088a.914.914,0,0,0-.444-.822,4.723,4.723,0,0,0-1.473-.5,7.574,7.574,0,0,1-1.718-.548,2.293,2.293,0,0,1-1.511-2.117,2.391,2.391,0,0,1,.979-1.942,3.872,3.872,0,0,1,2.49-.78,4.029,4.029,0,0,1,2.6.8,2.529,2.529,0,0,1,.992,2.067h-2.017a1.243,1.243,0,0,0-.432-.967,1.654,1.654,0,0,0-1.146-.386,1.787,1.787,0,0,0-1.083.307.968.968,0,0,0-.419.822.818.818,0,0,0,.39.722,5.365,5.365,0,0,0,1.577.519,7.466,7.466,0,0,1,1.864.623,2.639,2.639,0,0,1,1,.867,2.212,2.212,0,0,1,.328,1.229,2.34,2.34,0,0,1-1,1.963,4.283,4.283,0,0,1-2.631.751,4.644,4.644,0,0,1-1.967-.4,3.238,3.238,0,0,1-1.345-1.1,2.594,2.594,0,0,1-.481-1.5h1.959a1.421,1.421,0,0,0,.54,1.1,2.1,2.1,0,0,0,1.32.386,2.04,2.04,0,0,0,1.212-.3A.938.938,0,0,0,138.817,15.56ZM144.7,18h-2.017V9.019H144.7ZM142.561,6.686a1.07,1.07,0,0,1,.295-.772,1.113,1.113,0,0,1,.843-.307,1.127,1.127,0,0,1,.847.307,1.062,1.062,0,0,1,.3.772,1.038,1.038,0,0,1-.3.76,1.136,1.136,0,0,1-.847.3,1.122,1.122,0,0,1-.843-.3A1.046,1.046,0,0,1,142.561,6.686Zm3.959,6.74a5.3,5.3,0,0,1,.523-2.378,3.819,3.819,0,0,1,1.469-1.627,4.14,4.14,0,0,1,2.175-.569,3.923,3.923,0,0,1,2.951,1.17,4.6,4.6,0,0,1,1.224,3.1l.008.473a5.343,5.343,0,0,1-.51,2.374,3.773,3.773,0,0,1-1.461,1.619,4.17,4.17,0,0,1-2.2.573,3.9,3.9,0,0,1-3.042-1.266,4.848,4.848,0,0,1-1.141-3.374Zm2.017.174a3.619,3.619,0,0,0,.573,2.171,1.862,1.862,0,0,0,1.594.784,1.842,1.842,0,0,0,1.59-.8,4,4,0,0,0,.569-2.333,3.572,3.572,0,0,0-.585-2.158,1.973,1.973,0,0,0-3.158-.012A3.922,3.922,0,0,0,148.538,13.6Zm2.706-8.351h2.3l-2.3,2.515-1.619,0Zm7.205,3.769.058,1.038a3.229,3.229,0,0,1,2.615-1.2q2.806,0,2.855,3.212V18H161.96V12.181a1.85,1.85,0,0,0-.369-1.266,1.554,1.554,0,0,0-1.208-.411,1.944,1.944,0,0,0-1.818,1.1V18h-2.017V9.019Zm14.02,2.017H173.7a2.2,2.2,0,0,0,1.473-.481,1.718,1.718,0,0,0,.544-1.37,1.872,1.872,0,0,0-.452-1.341,1.821,1.821,0,0,0-1.382-.477,1.926,1.926,0,0,0-1.336.469,1.567,1.567,0,0,0-.523,1.224H170a3.053,3.053,0,0,1,.494-1.693,3.318,3.318,0,0,1,1.378-1.191,4.489,4.489,0,0,1,1.98-.427,4.157,4.157,0,0,1,2.843.909,3.19,3.19,0,0,1,1.033,2.528,2.568,2.568,0,0,1-.519,1.531,3.253,3.253,0,0,1-1.341,1.083,2.965,2.965,0,0,1,1.515,1.071,2.932,2.932,0,0,1,.519,1.743,3.246,3.246,0,0,1-1.116,2.59,4.9,4.9,0,0,1-5.79.033,3.062,3.062,0,0,1-1.112-2.474H171.9a1.687,1.687,0,0,0,.535,1.295,2.03,2.03,0,0,0,1.44.5,2.094,2.094,0,0,0,1.478-.5,1.868,1.868,0,0,0,.54-1.444,1.887,1.887,0,0,0-.564-1.469,2.413,2.413,0,0,0-1.677-.515h-1.187ZM180.122,18V5.914h3.569a5.6,5.6,0,0,1,2.843.714,4.868,4.868,0,0,1,1.922,2.025,6.429,6.429,0,0,1,.681,3v.606a6.4,6.4,0,0,1-.685,3.021,4.809,4.809,0,0,1-1.951,2.009,5.858,5.858,0,0,1-2.9.706Zm2.1-10.393v8.716h1.37a3.154,3.154,0,0,0,2.536-1.033,4.5,4.5,0,0,0,.9-2.968V11.65a4.619,4.619,0,0,0-.855-3,3.031,3.031,0,0,0-2.482-1.038Z" transform="translate(491 4762)" fill="#00316e"/>
          <path id="Trazado_600391" data-name="Trazado 600391" d="M3.329,13.518V18h-2.1V5.914H5.852A4.675,4.675,0,0,1,9.069,6.969,3.549,3.549,0,0,1,10.26,9.761a3.431,3.431,0,0,1-1.166,2.767,4.9,4.9,0,0,1-3.266.989Zm0-1.693H5.852a2.485,2.485,0,0,0,1.71-.527,1.937,1.937,0,0,0,.589-1.523,2.09,2.09,0,0,0-.6-1.565,2.3,2.3,0,0,0-1.644-.6H3.329ZM16.6,10.861a4.991,4.991,0,0,0-.822-.066,1.85,1.85,0,0,0-1.868,1.063V18H11.9V9.019h1.926l.05,1A2.273,2.273,0,0,1,15.9,8.853a1.888,1.888,0,0,1,.714.116Zm.6,2.565a5.3,5.3,0,0,1,.523-2.378,3.819,3.819,0,0,1,1.469-1.627,4.14,4.14,0,0,1,2.175-.569,3.923,3.923,0,0,1,2.951,1.17,4.6,4.6,0,0,1,1.224,3.1l.008.473a5.343,5.343,0,0,1-.51,2.374,3.773,3.773,0,0,1-1.461,1.619,4.17,4.17,0,0,1-2.2.573A3.9,3.9,0,0,1,18.341,16.9,4.848,4.848,0,0,1,17.2,13.526Zm2.017.174a3.619,3.619,0,0,0,.573,2.171,1.862,1.862,0,0,0,1.594.784,1.842,1.842,0,0,0,1.59-.8,4,4,0,0,0,.569-2.333,3.572,3.572,0,0,0-.585-2.158,1.973,1.973,0,0,0-3.158-.012A3.922,3.922,0,0,0,19.216,13.6Zm7.662-.158a5.34,5.34,0,0,1,.963-3.333,3.085,3.085,0,0,1,2.582-1.258,2.931,2.931,0,0,1,2.308,1V5.25h2.017V18H32.921l-.1-.93a2.973,2.973,0,0,1-2.416,1.1,3.068,3.068,0,0,1-2.552-1.27A5.535,5.535,0,0,1,26.878,13.443Zm2.017.174a3.739,3.739,0,0,0,.527,2.137,1.71,1.71,0,0,0,1.5.768,1.9,1.9,0,0,0,1.81-1.1V11.583A1.876,1.876,0,0,0,30.937,10.5a1.723,1.723,0,0,0-1.511.776A4.163,4.163,0,0,0,28.9,13.617Zm13.4,3.5a3.128,3.128,0,0,1-2.523,1.046,2.788,2.788,0,0,1-2.212-.855,3.637,3.637,0,0,1-.751-2.474V9.019h2.017v5.794q0,1.71,1.419,1.71a1.993,1.993,0,0,0,1.984-1.054V9.019h2.017V18h-1.9Zm7.695-.564a1.824,1.824,0,0,0,1.253-.44,1.5,1.5,0,0,0,.531-1.087h1.9a2.963,2.963,0,0,1-.523,1.565,3.43,3.43,0,0,1-1.328,1.15,3.958,3.958,0,0,1-1.81.423,3.829,3.829,0,0,1-2.988-1.22,4.84,4.84,0,0,1-1.1-3.37v-.208a4.759,4.759,0,0,1,1.1-3.283A3.8,3.8,0,0,1,50,8.853a3.69,3.69,0,0,1,2.611.934,3.345,3.345,0,0,1,1.058,2.453h-1.9a1.847,1.847,0,0,0-.527-1.27,1.7,1.7,0,0,0-1.258-.5,1.775,1.775,0,0,0-1.511.71,3.621,3.621,0,0,0-.54,2.154v.324a3.682,3.682,0,0,0,.527,2.179A1.773,1.773,0,0,0,49.987,16.556Zm8.9,0a1.824,1.824,0,0,0,1.253-.44,1.5,1.5,0,0,0,.531-1.087h1.9a2.963,2.963,0,0,1-.523,1.565,3.43,3.43,0,0,1-1.328,1.15,3.958,3.958,0,0,1-1.81.423,3.829,3.829,0,0,1-2.988-1.22,4.84,4.84,0,0,1-1.1-3.37v-.208a4.759,4.759,0,0,1,1.1-3.283A3.8,3.8,0,0,1,58.9,8.853a3.69,3.69,0,0,1,2.611.934,3.345,3.345,0,0,1,1.058,2.453h-1.9a1.847,1.847,0,0,0-.527-1.27,1.7,1.7,0,0,0-1.258-.5,1.775,1.775,0,0,0-1.511.71,3.621,3.621,0,0,0-.54,2.154v.324a3.682,3.682,0,0,0,.527,2.179A1.773,1.773,0,0,0,58.886,16.556ZM66.24,18H64.223V9.019H66.24ZM64.1,6.686a1.071,1.071,0,0,1,.295-.772,1.113,1.113,0,0,1,.843-.307,1.127,1.127,0,0,1,.847.307,1.062,1.062,0,0,1,.3.772,1.038,1.038,0,0,1-.3.76,1.136,1.136,0,0,1-.847.3,1.122,1.122,0,0,1-.843-.3A1.046,1.046,0,0,1,64.1,6.686Zm3.959,6.74a5.3,5.3,0,0,1,.523-2.378A3.819,3.819,0,0,1,70.05,9.421a4.14,4.14,0,0,1,2.175-.569,3.923,3.923,0,0,1,2.951,1.17,4.6,4.6,0,0,1,1.224,3.1l.008.473a5.343,5.343,0,0,1-.51,2.374,3.773,3.773,0,0,1-1.461,1.619,4.17,4.17,0,0,1-2.2.573A3.9,3.9,0,0,1,69.2,16.9a4.848,4.848,0,0,1-1.141-3.374Zm2.017.174a3.619,3.619,0,0,0,.573,2.171,1.862,1.862,0,0,0,1.594.784,1.842,1.842,0,0,0,1.59-.8,4,4,0,0,0,.569-2.333,3.572,3.572,0,0,0-.585-2.158,1.973,1.973,0,0,0-3.158-.012A3.922,3.922,0,0,0,70.075,13.6ZM72.781,5.25h2.3l-2.3,2.515-1.619,0Zm7.205,3.769.058,1.038a3.229,3.229,0,0,1,2.615-1.2q2.806,0,2.855,3.212V18H83.5V12.181a1.85,1.85,0,0,0-.369-1.266A1.554,1.554,0,0,0,81.92,10.5a1.944,1.944,0,0,0-1.818,1.1V18H78.085V9.019Zm15.771,9.147a4.173,4.173,0,0,1-3.109-1.208,4.381,4.381,0,0,1-1.191-3.217v-.249a5.389,5.389,0,0,1,.519-2.4,3.949,3.949,0,0,1,1.457-1.648,3.851,3.851,0,0,1,2.092-.589,3.525,3.525,0,0,1,2.835,1.17,4.949,4.949,0,0,1,1,3.312v.813H93.492a2.7,2.7,0,0,0,.743,1.76,2.23,2.23,0,0,0,1.639.647,2.731,2.731,0,0,0,2.258-1.121l1.087,1.038a3.631,3.631,0,0,1-1.44,1.249A4.509,4.509,0,0,1,95.758,18.166Zm-.241-7.695a1.7,1.7,0,0,0-1.341.581,3.012,3.012,0,0,0-.652,1.619h3.843v-.149a2.452,2.452,0,0,0-.54-1.531A1.686,1.686,0,0,0,95.517,10.471Zm7.28-1.453.058,1.038a3.229,3.229,0,0,1,2.615-1.2q2.806,0,2.855,3.212V18h-2.017V12.181a1.85,1.85,0,0,0-.369-1.266,1.554,1.554,0,0,0-1.208-.411,1.944,1.944,0,0,0-1.818,1.1V18H100.9V9.019Zm13.713,0,.058.938a3.232,3.232,0,0,1,2.59-1.1,2.483,2.483,0,0,1,2.465,1.378,3.186,3.186,0,0,1,2.756-1.378,2.8,2.8,0,0,1,2.212.822,3.618,3.618,0,0,1,.743,2.424V18h-2.017V12.156a1.786,1.786,0,0,0-.374-1.253,1.635,1.635,0,0,0-1.237-.4,1.679,1.679,0,0,0-1.125.369,1.948,1.948,0,0,0-.61.967L121.98,18h-2.017V12.09a1.439,1.439,0,0,0-1.619-1.585,1.776,1.776,0,0,0-1.718.988V18h-2.017V9.019ZM134.771,18a3.113,3.113,0,0,1-.232-.838,3.393,3.393,0,0,1-4.565.232,2.47,2.47,0,0,1-.855-1.909,2.55,2.55,0,0,1,1.067-2.2,5.169,5.169,0,0,1,3.051-.768h1.237v-.589a1.573,1.573,0,0,0-.39-1.116,1.547,1.547,0,0,0-1.187-.419,1.777,1.777,0,0,0-1.129.344,1.066,1.066,0,0,0-.44.876H129.31a2.239,2.239,0,0,1,.49-1.382,3.263,3.263,0,0,1,1.332-1.009,4.68,4.68,0,0,1,1.88-.365,3.769,3.769,0,0,1,2.515.793,2.827,2.827,0,0,1,.963,2.229v4.051a4.591,4.591,0,0,0,.34,1.934V18Zm-2.216-1.453a2.294,2.294,0,0,0,1.125-.291,1.941,1.941,0,0,0,.793-.78V13.783h-1.087a2.973,2.973,0,0,0-1.685.39,1.264,1.264,0,0,0-.564,1.1,1.179,1.179,0,0,0,.386.926A1.5,1.5,0,0,0,132.555,16.547Zm11.082-.988a.914.914,0,0,0-.444-.822,4.723,4.723,0,0,0-1.473-.5A7.574,7.574,0,0,1,140,13.692a2.293,2.293,0,0,1-1.511-2.117,2.391,2.391,0,0,1,.979-1.942,3.872,3.872,0,0,1,2.49-.78,4.029,4.029,0,0,1,2.6.8,2.529,2.529,0,0,1,.992,2.067h-2.017a1.243,1.243,0,0,0-.432-.967,1.654,1.654,0,0,0-1.146-.386,1.787,1.787,0,0,0-1.083.307.968.968,0,0,0-.419.822.818.818,0,0,0,.39.722,5.365,5.365,0,0,0,1.577.519,7.466,7.466,0,0,1,1.864.623,2.639,2.639,0,0,1,1,.867,2.212,2.212,0,0,1,.328,1.229,2.34,2.34,0,0,1-1,1.963,4.283,4.283,0,0,1-2.631.751,4.644,4.644,0,0,1-1.967-.4,3.238,3.238,0,0,1-1.345-1.1,2.594,2.594,0,0,1-.481-1.5h1.959a1.421,1.421,0,0,0,.54,1.1,2.1,2.1,0,0,0,1.32.386,2.04,2.04,0,0,0,1.212-.3A.938.938,0,0,0,143.637,15.56ZM152.743,18a3.113,3.113,0,0,1-.232-.838,3.393,3.393,0,0,1-4.565.232,2.47,2.47,0,0,1-.855-1.909,2.55,2.55,0,0,1,1.067-2.2,5.169,5.169,0,0,1,3.051-.768h1.237v-.589a1.573,1.573,0,0,0-.39-1.116,1.547,1.547,0,0,0-1.187-.419,1.777,1.777,0,0,0-1.129.344,1.066,1.066,0,0,0-.44.876h-2.017a2.239,2.239,0,0,1,.49-1.382A3.263,3.263,0,0,1,149.1,9.218a4.68,4.68,0,0,1,1.88-.365,3.769,3.769,0,0,1,2.515.793,2.827,2.827,0,0,1,.963,2.229v4.051a4.591,4.591,0,0,0,.34,1.934V18Zm-2.216-1.453a2.294,2.294,0,0,0,1.125-.291,1.941,1.941,0,0,0,.793-.78V13.783h-1.087a2.973,2.973,0,0,0-1.685.39,1.264,1.264,0,0,0-.564,1.1,1.179,1.179,0,0,0,.386.926A1.5,1.5,0,0,0,150.526,16.547Z" transform="translate(919 4762)" fill="#00316e"/>
        </g>
      </g>
    </g>
    <path id="Sustracción_20" data-name="Sustracción 20" d="M297.54,233.3H110.968L134.915,0,319.448,19.86,297.54,233.3Z" transform="translate(584 4605.697)" fill="#d6e3f6"/>
    <g id="Grupo_156345" data-name="Grupo 156345" transform="translate(722.891 4641.883)">
      <path id="Trazado_600331" data-name="Trazado 600331" d="M329.152,111.423s12.937-2.834,24.488,4.359,31.6,22.449,28.77,47.3-17.218,50.348-17.218,50.348l-17.655-25.283s20.924-37.925-11.333-50.784S329.152,111.423,329.152,111.423Z" transform="translate(-263.822 -99.795)" fill="#fff" stroke="#383838" stroke-miterlimit="10" stroke-width="2"/>
      <path id="Trazado_600332" data-name="Trazado 600332" d="M328.184,116.539s14.465-3.9,30.609,5.772c0,0-16.6-18.114-39.055-10.812s-3.747,7.388-3.747,7.388Z" transform="translate(-259.126 -99.326)" fill="#fff" stroke="#383838" stroke-miterlimit="10" stroke-width="2"/>
      <path id="Trazado_600333" data-name="Trazado 600333" d="M301.436,227.436l1.962-7.683,4.414-2.289,29.751,33.347,1.144,19.616,12.26,30.9-72.416,26.809-30.732-32.693V278.111l48.55-47.9Z" transform="translate(-233.359 -144.918)" fill="#fff" stroke="#383838" stroke-miterlimit="10" stroke-width="2"/>
      <path id="Trazado_600334" data-name="Trazado 600334" d="M272.677,91.957c25.472,5.123,34,28.443,28.116,40.54-3.891,8-23.975,32.911-29.424,35.527a13.581,13.581,0,0,1-10.026.872L223.2,131.189s-2.07-2.071,2.616-5.667S256.33,96.316,256.33,96.316,264.341,90.281,272.677,91.957Z" transform="translate(-222.745 -91.663)" fill="#fff" stroke="#383838" stroke-miterlimit="10" stroke-width="2"/>
      <path id="Trazado_600335" data-name="Trazado 600335" d="M247.819,279.791l30.241,32.366,54.925-58.031L303.4,221.433Z" transform="translate(-233.359 -146.598)" fill="#fff" stroke="#383838" stroke-miterlimit="10" stroke-width="2"/>
      <path id="Trazado_600336" data-name="Trazado 600336" d="M313.3,234.756l-44.79,47.079L289.6,305.21l25.715-26.939,18.912-19.813Z" transform="translate(-242.119 -152.238)" fill="#fff" stroke="#383838" stroke-miterlimit="10" stroke-width="2"/>
      <line id="Línea_501" data-name="Línea 501" y2="45.414" transform="translate(71.142 82.889)" fill="#fff" stroke="#383838" stroke-miterlimit="10" stroke-width="2"/>
      <line id="Línea_502" data-name="Línea 502" y1="17.654" transform="translate(45.191 165.56)" fill="#fff" stroke="#383838" stroke-miterlimit="10" stroke-width="2"/>
      <line id="Línea_503" data-name="Línea 503" y1="11.362" x2="31.758" transform="translate(37.319 130.347)" fill="#fff" stroke="#383838" stroke-miterlimit="10" stroke-width="2"/>
      <line id="Línea_504" data-name="Línea 504" y1="1.635" x2="4.577" transform="translate(99.626 105.894)" fill="#fff" stroke="#383838" stroke-miterlimit="10" stroke-width="2"/>
    </g>
    <g id="Grupo_156347" data-name="Grupo 156347" transform="translate(813.291 4634.744)">
      <path id="Trazado_600345" data-name="Trazado 600345" d="M64.264,238.467a28.756,28.756,0,0,0-4.79-35.848,34.354,34.354,0,0,0-17.513-9.369,32.756,32.756,0,0,0-9.521-.407c-1.092-.316-2.193-.6-3.306-.835-6.455-1.354-12.932-.361-18.165,4.274-5.4,4.783-8.174,11.738-9.215,18.77-.037.252-.07.507-.1.761a25.159,25.159,0,0,0-.791,15.421A34.356,34.356,0,0,0,5.676,241.4a24.244,24.244,0,0,0,8.606,7.7,49.864,49.864,0,0,0,5.656,2.35c1.549.606,3.058,1.461,3.545,3.16.47,1.639.472,3.417,1.653,4.767a3.759,3.759,0,0,0,.3.3A2.7,2.7,0,0,0,25.758,263a2.53,2.53,0,0,0,.254.228c-.776,1.109-1.347,2.481-.4,3.681a3.789,3.789,0,0,0,2.654,1.215.706.706,0,0,0,.018.317q.41,1.481.822,2.962l.411,1.481a3.618,3.618,0,0,0,.428,1.187c.509.7,1.658.6,2.427.644q.753.044,1.507.044c-1.283,11.487,1.251,22.918,1.7,34.381a67.2,67.2,0,0,1-.291,10.008c-.1.906,1.319.9,1.418,0,1.3-11.767-1.4-23.438-1.75-35.177a65.1,65.1,0,0,1,.336-9.252l.084,0a28.1,28.1,0,0,0,2.963-.329c.973-.16,1.785-.221,2.018-1.307a31.976,31.976,0,0,0,.668-5.959.722.722,0,0,0-.006-.073,5.037,5.037,0,0,0,.5-.15,2.031,2.031,0,0,0,1.43-1.83,3.628,3.628,0,0,0-.956-2.24c.02-.017.041-.033.06-.051a2.443,2.443,0,0,0,.255-3.415c1-1.222.316-3,.95-4.408,1.125-2.5,4.356-3.426,6.71-4.3a27.855,27.855,0,0,0,14.3-12.185" transform="translate(0.001 -191.451)" fill="#fff"/>
      <path id="Trazado_600346" data-name="Trazado 600346" d="M56.917,219.286a33.878,33.878,0,0,0-6.219-16.12,11.32,11.32,0,0,0-2.05-3.293c-2.321-2.539-5.6-3.848-8.748-4.978a72.168,72.168,0,0,0-9.473-2.887c-6.455-1.353-12.932-.36-18.165,4.274-5.4,4.784-8.174,11.739-9.215,18.771-1.86,12.558.085,28.851,13.333,33.292,6.229,2.088,13.275,1.4,19.549-.709a33.674,33.674,0,0,0,15.956-10.917,24.7,24.7,0,0,0,5.034-17.433" transform="translate(-1.289 -191.45)" fill="#ffd150"/>
      <path id="Trazado_600338" data-name="Trazado 600338" d="M20.318,251.442a44.86,44.86,0,0,1-5.589-2.353,22.11,22.11,0,0,1-4.658-3.342A28.573,28.573,0,0,1,3.914,236.7,25.608,25.608,0,0,1,1.4,226.759a24.579,24.579,0,0,1,1.725-9.549,34.042,34.042,0,0,1,12.445-15.216,35.555,35.555,0,0,1,21.9-6.523,32.327,32.327,0,0,1,17.906,6.779,30.107,30.107,0,0,1,10.717,15.474,28.221,28.221,0,0,1-13.217,31.435c-2.522,1.378-5.387,1.994-7.864,3.45a7.411,7.411,0,0,0-2.855,2.739,5.531,5.531,0,0,0-.622,2.021c-.087.764.211,1.837-.332,2.464a2.717,2.717,0,0,1-1.8.643c-1.03.1-2.068.144-3.1.2-2.227.117-4.466.215-6.7.194-1.69-.016-3.4-.386-4.023-2.156-.547-1.552-.47-3.289-1.45-4.679a7.938,7.938,0,0,0-3.809-2.592c-.851-.333-1.219,1.038-.377,1.367,1.549.606,3.057,1.461,3.545,3.16.47,1.639.473,3.416,1.654,4.767,1.222,1.4,3.19,1.564,4.925,1.549q3.472-.029,6.939-.232c1.589-.091,3.769.073,5.054-1.072,1.367-1.22.521-3.157,1.2-4.675,1.125-2.5,4.357-3.426,6.71-4.3a27.854,27.854,0,0,0,14.3-12.185,28.754,28.754,0,0,0-4.79-35.848,34.351,34.351,0,0,0-17.513-9.369A35.452,35.452,0,0,0,18.7,198.419,37.692,37.692,0,0,0,3.673,212.793a26.072,26.072,0,0,0-2.813,19.8,34.347,34.347,0,0,0,4.819,10.164,24.243,24.243,0,0,0,8.606,7.7,49.823,49.823,0,0,0,5.656,2.35c.854.325,1.222-1.045.377-1.367" transform="translate(0.001 -192.807)"/>
      <path id="Trazado_600339" data-name="Trazado 600339" d="M53.925,334.19a2.691,2.691,0,0,0-.249,3.95,3.391,3.391,0,0,0,2.265.889c1,.1,2.007.161,3.011.212a52.557,52.557,0,0,0,5.934-.01c1.684-.106,3.764-.094,5.083-1.312,1.254-1.158,1.156-3.413-.649-3.951a.71.71,0,0,0-.377,1.367c.595.177.567.9.26,1.322a2.924,2.924,0,0,1-2.013.94,35.21,35.21,0,0,1-5.328.3c-1.786,0-3.572-.1-5.352-.242-.708-.058-1.561-.042-1.987-.717a1.3,1.3,0,0,1,.4-1.75c.711-.571-.3-1.569-1-1" transform="translate(-27.914 -266.597)"/>
      <path id="Trazado_600340" data-name="Trazado 600340" d="M54.507,341.739c-.963,1.181-1.989,2.858-.863,4.289.98,1.246,2.873,1.265,4.312,1.316a35.983,35.983,0,0,0,5.964-.355c1.018-.134,2.031-.291,3.044-.46a13.9,13.9,0,0,0,2.588-.511,2.033,2.033,0,0,0,1.431-1.83,3.962,3.962,0,0,0-1.141-2.471c-.579-.706-1.577.3-1,1,.361.44,1.125,1.392.457,1.864a5.978,5.978,0,0,1-2.252.5c-1.872.317-3.75.609-5.644.755a20.992,20.992,0,0,1-5.282-.064c-.546-.1-1.3-.283-1.509-.879-.258-.752.463-1.619.9-2.156.572-.7-.425-1.71-1-1" transform="translate(-28.032 -270.574)"/>
      <path id="Trazado_600341" data-name="Trazado 600341" d="M59.815,352.112l.822,2.962.411,1.481a3.615,3.615,0,0,0,.428,1.187c.509.7,1.658.6,2.427.644a26.471,26.471,0,0,0,3.006,0,28.088,28.088,0,0,0,2.963-.329c.973-.159,1.785-.221,2.018-1.307a31.933,31.933,0,0,0,.668-5.959.709.709,0,0,0-1.418,0,31.143,31.143,0,0,1-.494,4.948c-.037.2-.106.429-.124.634l-.044.211q.2-.184-.138-.046a8.526,8.526,0,0,0-1.164.2,24.534,24.534,0,0,1-2.482.239q-1.18.057-2.363.007-.644-.027-1.286-.086a1.682,1.682,0,0,1-.526-.067c.181.1.067-.036.012-.235-.445-1.623-.9-3.244-1.35-4.866a.71.71,0,0,0-1.367.377" transform="translate(-31.531 -275.127)"/>
      <path id="Trazado_600342" data-name="Trazado 600342" d="M59.425,298.825q-3.535-12.006-6.071-24.275-.719-3.486-1.355-6.987l-1.041.8a44.952,44.952,0,0,1,5.336,4.288.718.718,0,0,0,1.113-.144,20.5,20.5,0,0,0,2.244-5.757l-1.3.17,1.941,2.845.906,1.328a3.057,3.057,0,0,0,.822.969c.917.553,1.608-.387,2.166-.987l2.391-2.567-1.21-.5c.829,8.155-2.118,16.018-2.835,24.063a31.571,31.571,0,0,0,.086,6.9.733.733,0,0,0,.709.709.712.712,0,0,0,.709-.709c-1.062-8.134,1.841-16.034,2.681-24.045a33.622,33.622,0,0,0,.069-6.916.719.719,0,0,0-1.21-.5l-1.753,1.882-.957,1.027-.159.172q-.307.167-.051.219.206.119.026-.049l-.194-.284L59.579,266.2a.718.718,0,0,0-1.3.169,19.206,19.206,0,0,1-2.1,5.418l1.113-.143a47.379,47.379,0,0,0-5.623-4.51c-.558-.382-1.142.247-1.041.8q2.241,12.312,5.494,24.41.925,3.437,1.932,6.852a.71.71,0,0,0,1.367-.377" transform="translate(-26.697 -230.701)"/>
      <path id="Trazado_600343" data-name="Trazado 600343" d="M108.172,220.86a19.124,19.124,0,0,1,9.885,13.919c.137.9,1.5.517,1.367-.377a20.446,20.446,0,0,0-10.537-14.766c-.806-.427-1.523.8-.716,1.224" transform="translate(-56.862 -206.269)"/>
      <path id="Trazado_600344" data-name="Trazado 600344" d="M71.358,365.3c-1.494,11.752,1.158,23.443,1.619,35.168a67.2,67.2,0,0,1-.291,10.008c-.1.906,1.319.9,1.418,0,1.3-11.767-1.4-23.438-1.751-35.176a64.026,64.026,0,0,1,.422-10c.115-.9-1.3-.894-1.418,0" transform="translate(-37.395 -282.783)"/>
    </g>
    <path id="Trazado_600347" data-name="Trazado 600347" d="M-7681.032-6861l23.952-234.986,184.186,20.679L-7494.053-6861" transform="translate(8376 11700)" fill="none" stroke="#707070" stroke-width="1"/>
  </g>
</svg>
