<svg xmlns="http://www.w3.org/2000/svg" xmlns:xlink="http://www.w3.org/1999/xlink" width="820" height="282" viewBox="0 0 820 282">
  <defs>
    <clipPath id="clip-path">
      <rect id="Rectángulo_44636" data-name="Rectángulo 44636" width="190.326" height="233.935" fill="none"/>
    </clipPath>
  </defs>
  <g id="Grupo_156347" data-name="Grupo 156347" transform="translate(-390 -4570)">
    <g id="Grupo_156346" data-name="Grupo 156346">
      <path id="Trazado_600411" data-name="Trazado 600411" d="M0,0H820V282H0Z" transform="translate(390 4570)" fill="none"/>
      <path id="Trazado_600412" data-name="Trazado 600412" d="M25.5,0h349a25.5,25.5,0,0,1,0,51H25.5a25.5,25.5,0,0,1,0-51Z" transform="translate(810 4620)" fill="#fff"/>
      <path id="Trazado_600413" data-name="Trazado 600413" d="M25.5,0h349a25.5,25.5,0,0,1,0,51H25.5a25.5,25.5,0,0,1,0-51Z" transform="translate(390 4620)" fill="#fff"/>
      <path id="Trazado_600414" data-name="Trazado 600414" d="M8800.575,11793.394H8498.137a7.8,7.8,0,0,0,.753-2.355c.131-1.556-.523-10.939-.9-13.73-.2-1.472,1.043-2.626,2.121-3.335a12.272,12.272,0,0,1,2.413-1.2c.062-.021,6.264-2.111,15.671-10.1,6.447-5.475,9.4-15.056,10.585-20.279h271.8a25.5,25.5,0,1,1,0,51Z" transform="translate(-7636.074 -7059.393)" fill="#fff"/>
      <path id="Trazado_600415" data-name="Trazado 600415" d="M8750.5,11765.886h-349a25.5,25.5,0,1,1,0-51h321.262a44.727,44.727,0,0,0,12.413,4.3c4.586.838,7.584,2.121,9.166,3.923a6.174,6.174,0,0,1,1.395,4.446,12.61,12.61,0,0,1-.517,3.032,15.919,15.919,0,0,0-.579,6.531c.6,4.506,1.3,5.787,2.39,6.576.151.109.3.213.475.335a6.128,6.128,0,0,1,2.418,2.654c.312.663.681,1.76,1.071,2.92l.01.028a16.413,16.413,0,0,0,1.708,4.127,4.888,4.888,0,0,0,1.991,1.1c-.016.057-2.226,7.926-2.959,11.008C8751.327,11765.876,8750.908,11765.886,8750.5,11765.886Z" transform="translate(-7966 -7031.885)" fill="#fff"/>
      <path id="Trazado_600416" data-name="Trazado 600416" d="M8901.263,11857.364h-287.99c-.932-5.5-3-15.919-4.569-23.691a54.336,54.336,0,0,1-.43-16.113,87.612,87.612,0,0,1,1.91-11.194h291.079a25.5,25.5,0,1,1,0,51Z" transform="translate(-7760.763 -7060.365)" fill="#fff"/>
      <path id="Trazado_600417" data-name="Trazado 600417" d="M8683.958,11759.518H8401.5a25.5,25.5,0,1,1,0-51H8655.87a20.85,20.85,0,0,0,7.752,5.636c7.258,3.235,8.558,5.063,8.568,5.081l2.691,5.68a4.422,4.422,0,0,0,0,2.39,24.231,24.231,0,0,1,.8,2.791c-.011.022-1.094,2.2-.8,3.188s2.963,1.984,2.989,1.994l1.494,5.479,1.994.8h.006a20.1,20.1,0,0,1,2.635-.309c.334,0,.519.042.55.124.018.048-.017.11-.1.186-.791.693-.994,13.52-1,13.649l.508,4.314Z" transform="translate(-7942 -6962.52)" fill="#fff"/>
      <path id="Trazado_600418" data-name="Trazado 600418" d="M64.31,18V5.914h4.142a5.057,5.057,0,0,1,3.121.822,2.894,2.894,0,0,1,1.071,2.449,2.61,2.61,0,0,1-.448,1.494,2.885,2.885,0,0,1-1.312,1.029,2.668,2.668,0,0,1,1.515,1,2.913,2.913,0,0,1,.535,1.764,3.218,3.218,0,0,1-1.092,2.615A4.746,4.746,0,0,1,68.717,18Zm2.1-5.454v3.777h2.333a2.257,2.257,0,0,0,1.544-.49,1.719,1.719,0,0,0,.556-1.361,1.725,1.725,0,0,0-1.926-1.926Zm0-1.544h2.059A2.381,2.381,0,0,0,70,10.558,1.522,1.522,0,0,0,70.552,9.3a1.542,1.542,0,0,0-.51-1.295,2.578,2.578,0,0,0-1.59-.4H66.41Zm8.052,2.424a5.3,5.3,0,0,1,.523-2.378,3.819,3.819,0,0,1,1.469-1.627,4.14,4.14,0,0,1,2.175-.569,3.923,3.923,0,0,1,2.951,1.17,4.6,4.6,0,0,1,1.224,3.1l.008.473a5.343,5.343,0,0,1-.51,2.374,3.773,3.773,0,0,1-1.461,1.619,4.17,4.17,0,0,1-2.2.573A3.9,3.9,0,0,1,75.6,16.9a4.848,4.848,0,0,1-1.141-3.374Zm2.017.174a3.619,3.619,0,0,0,.573,2.171,1.862,1.862,0,0,0,1.594.784,1.842,1.842,0,0,0,1.59-.8,4,4,0,0,0,.569-2.333,3.572,3.572,0,0,0-.585-2.158,1.973,1.973,0,0,0-3.158-.012A3.922,3.922,0,0,0,76.479,13.6ZM89.552,15.56a.914.914,0,0,0-.444-.822,4.723,4.723,0,0,0-1.473-.5,7.574,7.574,0,0,1-1.718-.548,2.293,2.293,0,0,1-1.511-2.117,2.391,2.391,0,0,1,.979-1.942,3.872,3.872,0,0,1,2.49-.78,4.029,4.029,0,0,1,2.6.8,2.529,2.529,0,0,1,.992,2.067H89.453a1.243,1.243,0,0,0-.432-.967,1.654,1.654,0,0,0-1.146-.386,1.787,1.787,0,0,0-1.083.307.968.968,0,0,0-.419.822.818.818,0,0,0,.39.722,5.365,5.365,0,0,0,1.577.519,7.466,7.466,0,0,1,1.864.623,2.639,2.639,0,0,1,1,.867,2.212,2.212,0,0,1,.328,1.229,2.34,2.34,0,0,1-1,1.963,4.283,4.283,0,0,1-2.631.751,4.644,4.644,0,0,1-1.967-.4,3.238,3.238,0,0,1-1.345-1.1,2.594,2.594,0,0,1-.481-1.5h1.959a1.421,1.421,0,0,0,.54,1.1,2.1,2.1,0,0,0,1.32.386,2.04,2.04,0,0,0,1.212-.3A.938.938,0,0,0,89.552,15.56Zm3.362-2.125a5.307,5.307,0,0,1,.963-3.345,3.129,3.129,0,0,1,2.606-1.237,2.941,2.941,0,0,1,2.382,1.054l.116-.888h1.793V21.453H98.758V17.236a3.011,3.011,0,0,1-2.291.93,3.1,3.1,0,0,1-2.582-1.258A5.557,5.557,0,0,1,92.914,13.435Zm2.017.174a3.748,3.748,0,0,0,.544,2.162,1.733,1.733,0,0,0,1.507.784,1.911,1.911,0,0,0,1.776-1.021V11.451A1.912,1.912,0,0,0,97,10.471a1.762,1.762,0,0,0-1.515.772A4.089,4.089,0,0,0,94.931,13.609Zm13.456,3.511a3.128,3.128,0,0,1-2.523,1.046,2.788,2.788,0,0,1-2.212-.855,3.637,3.637,0,0,1-.751-2.474V9.019h2.017v5.794q0,1.71,1.419,1.71a1.993,1.993,0,0,0,1.984-1.054V9.019h2.017V18h-1.9Zm7.96,1.046a4.173,4.173,0,0,1-3.109-1.208,4.381,4.381,0,0,1-1.191-3.217v-.249a5.389,5.389,0,0,1,.519-2.4,3.949,3.949,0,0,1,1.457-1.648,3.851,3.851,0,0,1,2.092-.589,3.525,3.525,0,0,1,2.835,1.17,4.949,4.949,0,0,1,1,3.312v.813h-5.869a2.7,2.7,0,0,0,.743,1.76,2.23,2.23,0,0,0,1.639.647,2.731,2.731,0,0,0,2.258-1.121l1.087,1.038a3.631,3.631,0,0,1-1.44,1.249A4.509,4.509,0,0,1,116.347,18.166Zm-.241-7.695a1.7,1.7,0,0,0-1.341.581,3.012,3.012,0,0,0-.652,1.619h3.843v-.149a2.452,2.452,0,0,0-.54-1.531A1.686,1.686,0,0,0,116.106,10.471Zm7.512-1.453V18.8a2.955,2.955,0,0,1-.685,2.1,2.625,2.625,0,0,1-2,.726,4.031,4.031,0,0,1-1.071-.141V19.893a3.108,3.108,0,0,0,.714.075q1,0,1.029-1.1V9.019Zm-2.191-2.333a1.071,1.071,0,0,1,.295-.772,1.113,1.113,0,0,1,.843-.307,1.127,1.127,0,0,1,.847.307,1.062,1.062,0,0,1,.3.772,1.038,1.038,0,0,1-.3.76,1.136,1.136,0,0,1-.847.3,1.122,1.122,0,0,1-.843-.3A1.046,1.046,0,0,1,121.427,6.686Zm3.968,6.74a5.3,5.3,0,0,1,.523-2.378,3.819,3.819,0,0,1,1.469-1.627,4.14,4.14,0,0,1,2.175-.569,3.923,3.923,0,0,1,2.951,1.17,4.6,4.6,0,0,1,1.224,3.1l.008.473a5.343,5.343,0,0,1-.51,2.374,3.773,3.773,0,0,1-1.461,1.619,4.17,4.17,0,0,1-2.2.573,3.9,3.9,0,0,1-3.042-1.266,4.848,4.848,0,0,1-1.141-3.374Zm2.017.174a3.619,3.619,0,0,0,.573,2.171,1.862,1.862,0,0,0,1.594.784,1.842,1.842,0,0,0,1.59-.8,4,4,0,0,0,.569-2.333,3.572,3.572,0,0,0-.585-2.158,1.973,1.973,0,0,0-3.158-.012A3.922,3.922,0,0,0,127.412,13.6ZM147.683,18h-8.126V16.614l4.026-4.391a10.026,10.026,0,0,0,1.241-1.623,2.629,2.629,0,0,0,.369-1.307,1.986,1.986,0,0,0-.486-1.395,1.684,1.684,0,0,0-1.307-.531,1.942,1.942,0,0,0-1.519.6,2.35,2.35,0,0,0-.54,1.635h-2.017a3.953,3.953,0,0,1,.5-1.988,3.458,3.458,0,0,1,1.436-1.374,4.571,4.571,0,0,1,2.154-.49,4.088,4.088,0,0,1,2.777.884,3.069,3.069,0,0,1,1.017,2.445,4.148,4.148,0,0,1-.51,1.9,10.786,10.786,0,0,1-1.673,2.254l-2.955,3.163h5.611Zm1.859,0V5.914h3.569a5.6,5.6,0,0,1,2.843.714,4.868,4.868,0,0,1,1.922,2.025,6.429,6.429,0,0,1,.681,3v.606a6.4,6.4,0,0,1-.685,3.021,4.809,4.809,0,0,1-1.951,2.009,5.858,5.858,0,0,1-2.9.706Zm2.1-10.393v8.716h1.37a3.154,3.154,0,0,0,2.536-1.033,4.5,4.5,0,0,0,.9-2.968V11.65a4.619,4.619,0,0,0-.855-3,3.031,3.031,0,0,0-2.482-1.038Zm12.725,6.068h-4.358V12.048h4.358Zm8.1-2.64H173.7a2.2,2.2,0,0,0,1.473-.481,1.718,1.718,0,0,0,.544-1.37,1.872,1.872,0,0,0-.452-1.341,1.821,1.821,0,0,0-1.382-.477,1.926,1.926,0,0,0-1.336.469,1.567,1.567,0,0,0-.523,1.224H170a3.053,3.053,0,0,1,.494-1.693,3.318,3.318,0,0,1,1.378-1.191,4.489,4.489,0,0,1,1.98-.427,4.157,4.157,0,0,1,2.843.909,3.19,3.19,0,0,1,1.033,2.528,2.568,2.568,0,0,1-.519,1.531,3.253,3.253,0,0,1-1.341,1.083,2.965,2.965,0,0,1,1.515,1.071,2.932,2.932,0,0,1,.519,1.743,3.246,3.246,0,0,1-1.116,2.59,4.9,4.9,0,0,1-5.79.033,3.062,3.062,0,0,1-1.112-2.474H171.9a1.687,1.687,0,0,0,.535,1.295,2.03,2.03,0,0,0,1.44.5,2.094,2.094,0,0,0,1.478-.5,1.868,1.868,0,0,0,.54-1.444,1.887,1.887,0,0,0-.564-1.469,2.413,2.413,0,0,0-1.677-.515h-1.187ZM180.122,18V5.914h3.569a5.6,5.6,0,0,1,2.843.714,4.868,4.868,0,0,1,1.922,2.025,6.429,6.429,0,0,1,.681,3v.606a6.4,6.4,0,0,1-.685,3.021,4.809,4.809,0,0,1-1.951,2.009,5.858,5.858,0,0,1-2.9.706Zm2.1-10.393v8.716h1.37a3.154,3.154,0,0,0,2.536-1.033,4.5,4.5,0,0,0,.9-2.968V11.65a4.619,4.619,0,0,0-.855-3,3.031,3.031,0,0,0-2.482-1.038Z" transform="translate(495 4636)" fill="#00316e"/>
      <path id="Trazado_600419" data-name="Trazado 600419" d="M3.329,13.518V18h-2.1V5.914H5.852A4.675,4.675,0,0,1,9.069,6.969,3.549,3.549,0,0,1,10.26,9.761a3.431,3.431,0,0,1-1.166,2.767,4.9,4.9,0,0,1-3.266.989Zm0-1.693H5.852a2.485,2.485,0,0,0,1.71-.527,1.937,1.937,0,0,0,.589-1.523,2.09,2.09,0,0,0-.6-1.565,2.3,2.3,0,0,0-1.644-.6H3.329ZM16.6,10.861a4.991,4.991,0,0,0-.822-.066,1.85,1.85,0,0,0-1.868,1.063V18H11.9V9.019h1.926l.05,1A2.273,2.273,0,0,1,15.9,8.853a1.888,1.888,0,0,1,.714.116Zm.6,2.565a5.3,5.3,0,0,1,.523-2.378,3.819,3.819,0,0,1,1.469-1.627,4.14,4.14,0,0,1,2.175-.569,3.923,3.923,0,0,1,2.951,1.17,4.6,4.6,0,0,1,1.224,3.1l.008.473a5.343,5.343,0,0,1-.51,2.374,3.773,3.773,0,0,1-1.461,1.619,4.17,4.17,0,0,1-2.2.573A3.9,3.9,0,0,1,18.341,16.9,4.848,4.848,0,0,1,17.2,13.526Zm2.017.174a3.619,3.619,0,0,0,.573,2.171,1.862,1.862,0,0,0,1.594.784,1.842,1.842,0,0,0,1.59-.8,4,4,0,0,0,.569-2.333,3.572,3.572,0,0,0-.585-2.158,1.973,1.973,0,0,0-3.158-.012A3.922,3.922,0,0,0,19.216,13.6Zm7.662-.158a5.34,5.34,0,0,1,.963-3.333,3.085,3.085,0,0,1,2.582-1.258,2.931,2.931,0,0,1,2.308,1V5.25h2.017V18H32.921l-.1-.93a2.973,2.973,0,0,1-2.416,1.1,3.068,3.068,0,0,1-2.552-1.27A5.535,5.535,0,0,1,26.878,13.443Zm2.017.174a3.739,3.739,0,0,0,.527,2.137,1.71,1.71,0,0,0,1.5.768,1.9,1.9,0,0,0,1.81-1.1V11.583A1.876,1.876,0,0,0,30.937,10.5a1.723,1.723,0,0,0-1.511.776A4.163,4.163,0,0,0,28.9,13.617Zm13.4,3.5a3.128,3.128,0,0,1-2.523,1.046,2.788,2.788,0,0,1-2.212-.855,3.637,3.637,0,0,1-.751-2.474V9.019h2.017v5.794q0,1.71,1.419,1.71a1.993,1.993,0,0,0,1.984-1.054V9.019h2.017V18h-1.9Zm7.695-.564a1.824,1.824,0,0,0,1.253-.44,1.5,1.5,0,0,0,.531-1.087h1.9a2.963,2.963,0,0,1-.523,1.565,3.43,3.43,0,0,1-1.328,1.15,3.958,3.958,0,0,1-1.81.423,3.829,3.829,0,0,1-2.988-1.22,4.84,4.84,0,0,1-1.1-3.37v-.208a4.759,4.759,0,0,1,1.1-3.283A3.8,3.8,0,0,1,50,8.853a3.69,3.69,0,0,1,2.611.934,3.345,3.345,0,0,1,1.058,2.453h-1.9a1.847,1.847,0,0,0-.527-1.27,1.7,1.7,0,0,0-1.258-.5,1.775,1.775,0,0,0-1.511.71,3.621,3.621,0,0,0-.54,2.154v.324a3.682,3.682,0,0,0,.527,2.179A1.773,1.773,0,0,0,49.987,16.556Zm7.736-9.72V9.019h1.585v1.494H57.724v5.014a1.1,1.1,0,0,0,.2.743.943.943,0,0,0,.726.228,3.107,3.107,0,0,0,.706-.083v1.561a4.968,4.968,0,0,1-1.328.191q-2.324,0-2.324-2.565V10.513H54.229V9.019h1.478V6.835Zm2.5,6.591a5.3,5.3,0,0,1,.523-2.378,3.819,3.819,0,0,1,1.469-1.627,4.14,4.14,0,0,1,2.175-.569,3.923,3.923,0,0,1,2.951,1.17,4.6,4.6,0,0,1,1.224,3.1l.008.473a5.343,5.343,0,0,1-.51,2.374A3.773,3.773,0,0,1,66.6,17.593a4.17,4.17,0,0,1-2.2.573A3.9,3.9,0,0,1,61.364,16.9a4.848,4.848,0,0,1-1.141-3.374Zm2.017.174a3.619,3.619,0,0,0,.573,2.171,1.862,1.862,0,0,0,1.594.784,1.842,1.842,0,0,0,1.59-.8,4,4,0,0,0,.569-2.333,3.572,3.572,0,0,0-.585-2.158,1.973,1.973,0,0,0-3.158-.012A3.922,3.922,0,0,0,62.239,13.6Zm16.975-2.739a4.991,4.991,0,0,0-.822-.066,1.85,1.85,0,0,0-1.868,1.063V18H74.508V9.019h1.926l.05,1a2.273,2.273,0,0,1,2.025-1.17,1.888,1.888,0,0,1,.714.116Zm5.229,7.3a4.173,4.173,0,0,1-3.109-1.208,4.381,4.381,0,0,1-1.191-3.217v-.249a5.389,5.389,0,0,1,.519-2.4A3.949,3.949,0,0,1,82.12,9.442a3.851,3.851,0,0,1,2.092-.589,3.525,3.525,0,0,1,2.835,1.17,4.949,4.949,0,0,1,1,3.312v.813H82.178a2.7,2.7,0,0,0,.743,1.76,2.23,2.23,0,0,0,1.639.647,2.731,2.731,0,0,0,2.258-1.121l1.087,1.038a3.631,3.631,0,0,1-1.44,1.249A4.509,4.509,0,0,1,84.444,18.166ZM84.2,10.471a1.7,1.7,0,0,0-1.341.581,3.012,3.012,0,0,0-.652,1.619h3.843v-.149a2.452,2.452,0,0,0-.54-1.531A1.686,1.686,0,0,0,84.2,10.471ZM94.978,18a3.113,3.113,0,0,1-.232-.838,3.393,3.393,0,0,1-4.565.232,2.47,2.47,0,0,1-.855-1.909,2.55,2.55,0,0,1,1.067-2.2,5.169,5.169,0,0,1,3.051-.768h1.237v-.589a1.573,1.573,0,0,0-.39-1.116,1.547,1.547,0,0,0-1.187-.419,1.777,1.777,0,0,0-1.129.344,1.066,1.066,0,0,0-.44.876H89.516a2.239,2.239,0,0,1,.49-1.382,3.263,3.263,0,0,1,1.332-1.009,4.68,4.68,0,0,1,1.88-.365,3.769,3.769,0,0,1,2.515.793,2.827,2.827,0,0,1,.963,2.229v4.051a4.591,4.591,0,0,0,.34,1.934V18Zm-2.216-1.453a2.294,2.294,0,0,0,1.125-.291,1.941,1.941,0,0,0,.793-.78V13.783H93.591a2.973,2.973,0,0,0-1.685.39,1.264,1.264,0,0,0-.564,1.1,1.179,1.179,0,0,0,.386.926A1.5,1.5,0,0,0,92.761,16.547ZM100.954,18H98.937V5.25h2.017Z" transform="translate(915 4636)" fill="#00316e"/>
      <path id="Trazado_600420" data-name="Trazado 600420" d="M13.343,5.914l3.486,9.264,3.478-9.264h2.714V18H20.93V14.016l.208-5.329L17.568,18h-1.5L12.5,8.695l.208,5.321V18H10.62V5.914ZM30.675,18a3.113,3.113,0,0,1-.232-.838,3.393,3.393,0,0,1-4.565.232,2.47,2.47,0,0,1-.855-1.909,2.55,2.55,0,0,1,1.067-2.2,5.169,5.169,0,0,1,3.051-.768h1.237v-.589a1.573,1.573,0,0,0-.39-1.116,1.547,1.547,0,0,0-1.187-.419,1.777,1.777,0,0,0-1.129.344,1.066,1.066,0,0,0-.44.876H25.213a2.239,2.239,0,0,1,.49-1.382,3.263,3.263,0,0,1,1.332-1.009,4.68,4.68,0,0,1,1.88-.365,3.769,3.769,0,0,1,2.515.793,2.827,2.827,0,0,1,.963,2.229v4.051a4.591,4.591,0,0,0,.34,1.934V18Zm-2.216-1.453a2.294,2.294,0,0,0,1.125-.291,1.941,1.941,0,0,0,.793-.78V13.783H29.289a2.973,2.973,0,0,0-1.685.39,1.264,1.264,0,0,0-.564,1.1,1.179,1.179,0,0,0,.386.926A1.5,1.5,0,0,0,28.458,16.547Zm5.669-3.113a5.307,5.307,0,0,1,.963-3.345A3.129,3.129,0,0,1,37.7,8.853,2.941,2.941,0,0,1,40.08,9.907l.116-.888h1.793V21.453H39.972V17.236a3.011,3.011,0,0,1-2.291.93A3.1,3.1,0,0,1,35.1,16.908,5.557,5.557,0,0,1,34.128,13.435Zm2.017.174a3.748,3.748,0,0,0,.544,2.162,1.733,1.733,0,0,0,1.507.784,1.911,1.911,0,0,0,1.776-1.021V11.451a1.912,1.912,0,0,0-1.76-.979,1.762,1.762,0,0,0-1.515.772A4.089,4.089,0,0,0,36.145,13.609ZM49.6,17.12a3.128,3.128,0,0,1-2.523,1.046,2.788,2.788,0,0,1-2.212-.855,3.637,3.637,0,0,1-.751-2.474V9.019h2.017v5.794q0,1.71,1.419,1.71a1.993,1.993,0,0,0,1.984-1.054V9.019h2.017V18h-1.9Zm7.96,1.046a4.173,4.173,0,0,1-3.109-1.208,4.381,4.381,0,0,1-1.191-3.217v-.249a5.389,5.389,0,0,1,.519-2.4,3.949,3.949,0,0,1,1.457-1.648,3.851,3.851,0,0,1,2.092-.589,3.525,3.525,0,0,1,2.835,1.17,4.949,4.949,0,0,1,1,3.312v.813H55.295a2.7,2.7,0,0,0,.743,1.76,2.23,2.23,0,0,0,1.639.647,2.731,2.731,0,0,0,2.258-1.121l1.087,1.038a3.631,3.631,0,0,1-1.44,1.249A4.509,4.509,0,0,1,57.561,18.166Zm-.241-7.695a1.7,1.7,0,0,0-1.341.581,3.012,3.012,0,0,0-.652,1.619h3.843v-.149a2.452,2.452,0,0,0-.54-1.531A1.686,1.686,0,0,0,57.32,10.471Zm7.936-3.636V9.019h1.585v1.494H65.256v5.014a1.1,1.1,0,0,0,.2.743.943.943,0,0,0,.726.228,3.107,3.107,0,0,0,.706-.083v1.561a4.968,4.968,0,0,1-1.328.191q-2.324,0-2.324-2.565V10.513H61.761V9.019h1.478V6.835ZM73.748,18a3.113,3.113,0,0,1-.232-.838,3.393,3.393,0,0,1-4.565.232,2.47,2.47,0,0,1-.855-1.909,2.55,2.55,0,0,1,1.067-2.2,5.169,5.169,0,0,1,3.051-.768h1.237v-.589a1.573,1.573,0,0,0-.39-1.116,1.547,1.547,0,0,0-1.187-.419,1.777,1.777,0,0,0-1.129.344,1.066,1.066,0,0,0-.44.876H68.286a2.239,2.239,0,0,1,.49-1.382,3.263,3.263,0,0,1,1.332-1.009,4.68,4.68,0,0,1,1.88-.365,3.769,3.769,0,0,1,2.515.793,2.827,2.827,0,0,1,.963,2.229v4.051a4.591,4.591,0,0,0,.34,1.934V18Zm-2.216-1.453a2.294,2.294,0,0,0,1.125-.291,1.941,1.941,0,0,0,.793-.78V13.783H72.361a2.973,2.973,0,0,0-1.685.39,1.264,1.264,0,0,0-.564,1.1,1.179,1.179,0,0,0,.386.926A1.5,1.5,0,0,0,71.531,16.547ZM89.677,13.6a5.348,5.348,0,0,1-.946,3.324,3.287,3.287,0,0,1-4.906.27v4.258H81.808V9.019h1.859l.083.913a2.963,2.963,0,0,1,2.416-1.079,3.062,3.062,0,0,1,2.577,1.224,5.49,5.49,0,0,1,.934,3.4Zm-2.009-.174a3.746,3.746,0,0,0-.535-2.133A1.741,1.741,0,0,0,85.6,10.5a1.856,1.856,0,0,0-1.776,1.021V15.51a1.873,1.873,0,0,0,1.793,1.046,1.739,1.739,0,0,0,1.507-.776A4.124,4.124,0,0,0,87.668,13.426ZM96.749,18a3.113,3.113,0,0,1-.232-.838,3.393,3.393,0,0,1-4.565.232,2.47,2.47,0,0,1-.855-1.909,2.55,2.55,0,0,1,1.067-2.2,5.169,5.169,0,0,1,3.051-.768H96.45v-.589a1.573,1.573,0,0,0-.39-1.116,1.547,1.547,0,0,0-1.187-.419,1.777,1.777,0,0,0-1.129.344,1.066,1.066,0,0,0-.44.876H91.287a2.239,2.239,0,0,1,.49-1.382,3.263,3.263,0,0,1,1.332-1.009,4.68,4.68,0,0,1,1.88-.365,3.769,3.769,0,0,1,2.515.793,2.827,2.827,0,0,1,.963,2.229v4.051a4.591,4.591,0,0,0,.34,1.934V18Zm-2.216-1.453a2.294,2.294,0,0,0,1.125-.291,1.941,1.941,0,0,0,.793-.78V13.783H95.363a2.973,2.973,0,0,0-1.685.39,1.264,1.264,0,0,0-.564,1.1,1.179,1.179,0,0,0,.386.926A1.5,1.5,0,0,0,94.533,16.547ZM108.445,13.6a5.348,5.348,0,0,1-.946,3.324,3.287,3.287,0,0,1-4.906.27v4.258h-2.017V9.019h1.859l.083.913a2.963,2.963,0,0,1,2.416-1.079,3.062,3.062,0,0,1,2.577,1.224,5.49,5.49,0,0,1,.934,3.4Zm-2.009-.174a3.746,3.746,0,0,0-.535-2.133,1.741,1.741,0,0,0-1.531-.789,1.856,1.856,0,0,0-1.776,1.021V15.51a1.873,1.873,0,0,0,1.793,1.046,1.739,1.739,0,0,0,1.507-.776A4.124,4.124,0,0,0,106.436,13.426Zm7.67,4.74A4.173,4.173,0,0,1,111,16.958a4.381,4.381,0,0,1-1.191-3.217v-.249a5.389,5.389,0,0,1,.519-2.4,3.949,3.949,0,0,1,1.457-1.648,3.851,3.851,0,0,1,2.092-.589,3.525,3.525,0,0,1,2.835,1.17,4.949,4.949,0,0,1,1,3.312v.813H111.84a2.7,2.7,0,0,0,.743,1.76,2.23,2.23,0,0,0,1.639.647,2.731,2.731,0,0,0,2.258-1.121l1.087,1.038a3.631,3.631,0,0,1-1.44,1.249A4.509,4.509,0,0,1,114.106,18.166Zm-.241-7.695a1.7,1.7,0,0,0-1.341.581,3.012,3.012,0,0,0-.652,1.619h3.843v-.149a2.452,2.452,0,0,0-.54-1.531A1.686,1.686,0,0,0,113.865,10.471ZM121.419,18H119.4V5.25h2.017Zm6.051-4.574a5.3,5.3,0,0,1,.523-2.378,3.819,3.819,0,0,1,1.469-1.627,4.14,4.14,0,0,1,2.175-.569,3.923,3.923,0,0,1,2.951,1.17,4.6,4.6,0,0,1,1.224,3.1l.008.473a5.343,5.343,0,0,1-.51,2.374,3.773,3.773,0,0,1-1.461,1.619,4.17,4.17,0,0,1-2.2.573,3.9,3.9,0,0,1-3.042-1.266,4.848,4.848,0,0,1-1.141-3.374Zm2.017.174a3.619,3.619,0,0,0,.573,2.171,1.862,1.862,0,0,0,1.594.784,1.842,1.842,0,0,0,1.59-.8,4,4,0,0,0,.569-2.333,3.572,3.572,0,0,0-.585-2.158,1.973,1.973,0,0,0-3.158-.012A3.922,3.922,0,0,0,129.487,13.6Zm15.962,2.955a1.824,1.824,0,0,0,1.253-.44,1.5,1.5,0,0,0,.531-1.087h1.9a2.963,2.963,0,0,1-.523,1.565,3.43,3.43,0,0,1-1.328,1.15,3.958,3.958,0,0,1-1.81.423,3.829,3.829,0,0,1-2.988-1.22,4.84,4.84,0,0,1-1.1-3.37v-.208a4.759,4.759,0,0,1,1.1-3.283,3.8,3.8,0,0,1,2.988-1.233,3.69,3.69,0,0,1,2.611.934,3.345,3.345,0,0,1,1.058,2.453h-1.9a1.847,1.847,0,0,0-.527-1.27,1.7,1.7,0,0,0-1.258-.5,1.775,1.775,0,0,0-1.511.71,3.621,3.621,0,0,0-.54,2.154v.324a3.682,3.682,0,0,0,.527,2.179A1.773,1.773,0,0,0,145.45,16.556ZM156.025,18a3.113,3.113,0,0,1-.232-.838,3.393,3.393,0,0,1-4.565.232,2.47,2.47,0,0,1-.855-1.909,2.55,2.55,0,0,1,1.067-2.2,5.169,5.169,0,0,1,3.051-.768h1.237v-.589a1.573,1.573,0,0,0-.39-1.116,1.547,1.547,0,0,0-1.187-.419,1.777,1.777,0,0,0-1.129.344,1.066,1.066,0,0,0-.44.876h-2.017a2.239,2.239,0,0,1,.49-1.382,3.263,3.263,0,0,1,1.332-1.009,4.68,4.68,0,0,1,1.88-.365,3.769,3.769,0,0,1,2.515.793,2.827,2.827,0,0,1,.963,2.229v4.051a4.591,4.591,0,0,0,.34,1.934V18Zm-2.216-1.453a2.294,2.294,0,0,0,1.125-.291,1.941,1.941,0,0,0,.793-.78V13.783h-1.087a2.973,2.973,0,0,0-1.685.39,1.264,1.264,0,0,0-.564,1.1,1.179,1.179,0,0,0,.386.926A1.5,1.5,0,0,0,153.809,16.547Zm10.75-5.686a4.991,4.991,0,0,0-.822-.066,1.85,1.85,0,0,0-1.868,1.063V18h-2.017V9.019h1.926l.05,1a2.273,2.273,0,0,1,2.025-1.17,1.888,1.888,0,0,1,.714.116Zm4.217-4.026V9.019h1.585v1.494h-1.585v5.014a1.1,1.1,0,0,0,.2.743.943.943,0,0,0,.726.228,3.107,3.107,0,0,0,.706-.083v1.561a4.968,4.968,0,0,1-1.328.191q-2.324,0-2.324-2.565V10.513H165.28V9.019h1.478V6.835Zm2.748,6.591a5.3,5.3,0,0,1,.523-2.378,3.819,3.819,0,0,1,1.469-1.627,4.14,4.14,0,0,1,2.175-.569,3.923,3.923,0,0,1,2.951,1.17,4.6,4.6,0,0,1,1.224,3.1l.008.473a5.343,5.343,0,0,1-.51,2.374,3.773,3.773,0,0,1-1.461,1.619,4.17,4.17,0,0,1-2.2.573,3.9,3.9,0,0,1-3.042-1.266,4.848,4.848,0,0,1-1.141-3.374Zm2.017.174a3.619,3.619,0,0,0,.573,2.171,1.862,1.862,0,0,0,1.594.784,1.842,1.842,0,0,0,1.59-.8,4,4,0,0,0,.569-2.333,3.572,3.572,0,0,0-.585-2.158,1.973,1.973,0,0,0-3.158-.012A3.922,3.922,0,0,0,173.54,13.6Zm2.706-8.351h2.3l-2.3,2.515-1.619,0Zm7.205,3.769.058,1.038a3.229,3.229,0,0,1,2.615-1.2q2.806,0,2.855,3.212V18h-2.017V12.181a1.85,1.85,0,0,0-.369-1.266,1.554,1.554,0,0,0-1.208-.411,1.944,1.944,0,0,0-1.818,1.1V18H181.55V9.019Z" transform="translate(495 4699)" fill="#00316e"/>
      <path id="Trazado_600421" data-name="Trazado 600421" d="M3.329,13.518V18h-2.1V5.914H5.852A4.675,4.675,0,0,1,9.069,6.969,3.549,3.549,0,0,1,10.26,9.761a3.431,3.431,0,0,1-1.166,2.767,4.9,4.9,0,0,1-3.266.989Zm0-1.693H5.852a2.485,2.485,0,0,0,1.71-.527,1.937,1.937,0,0,0,.589-1.523,2.09,2.09,0,0,0-.6-1.565,2.3,2.3,0,0,0-1.644-.6H3.329ZM16.6,10.861a4.991,4.991,0,0,0-.822-.066,1.85,1.85,0,0,0-1.868,1.063V18H11.9V9.019h1.926l.05,1A2.273,2.273,0,0,1,15.9,8.853a1.888,1.888,0,0,1,.714.116Zm.6,2.565a5.3,5.3,0,0,1,.523-2.378,3.819,3.819,0,0,1,1.469-1.627,4.14,4.14,0,0,1,2.175-.569,3.923,3.923,0,0,1,2.951,1.17,4.6,4.6,0,0,1,1.224,3.1l.008.473a5.343,5.343,0,0,1-.51,2.374,3.773,3.773,0,0,1-1.461,1.619,4.17,4.17,0,0,1-2.2.573A3.9,3.9,0,0,1,18.341,16.9,4.848,4.848,0,0,1,17.2,13.526Zm2.017.174a3.619,3.619,0,0,0,.573,2.171,1.862,1.862,0,0,0,1.594.784,1.842,1.842,0,0,0,1.59-.8,4,4,0,0,0,.569-2.333,3.572,3.572,0,0,0-.585-2.158,1.973,1.973,0,0,0-3.158-.012A3.922,3.922,0,0,0,19.216,13.6Zm7.662-.158a5.34,5.34,0,0,1,.963-3.333,3.085,3.085,0,0,1,2.582-1.258,2.931,2.931,0,0,1,2.308,1V5.25h2.017V18H32.921l-.1-.93a2.973,2.973,0,0,1-2.416,1.1,3.068,3.068,0,0,1-2.552-1.27A5.535,5.535,0,0,1,26.878,13.443Zm2.017.174a3.739,3.739,0,0,0,.527,2.137,1.71,1.71,0,0,0,1.5.768,1.9,1.9,0,0,0,1.81-1.1V11.583A1.876,1.876,0,0,0,30.937,10.5a1.723,1.723,0,0,0-1.511.776A4.163,4.163,0,0,0,28.9,13.617Zm13.4,3.5a3.128,3.128,0,0,1-2.523,1.046,2.788,2.788,0,0,1-2.212-.855,3.637,3.637,0,0,1-.751-2.474V9.019h2.017v5.794q0,1.71,1.419,1.71a1.993,1.993,0,0,0,1.984-1.054V9.019h2.017V18h-1.9Zm7.695-.564a1.824,1.824,0,0,0,1.253-.44,1.5,1.5,0,0,0,.531-1.087h1.9a2.963,2.963,0,0,1-.523,1.565,3.43,3.43,0,0,1-1.328,1.15,3.958,3.958,0,0,1-1.81.423,3.829,3.829,0,0,1-2.988-1.22,4.84,4.84,0,0,1-1.1-3.37v-.208a4.759,4.759,0,0,1,1.1-3.283A3.8,3.8,0,0,1,50,8.853a3.69,3.69,0,0,1,2.611.934,3.345,3.345,0,0,1,1.058,2.453h-1.9a1.847,1.847,0,0,0-.527-1.27,1.7,1.7,0,0,0-1.258-.5,1.775,1.775,0,0,0-1.511.71,3.621,3.621,0,0,0-.54,2.154v.324a3.682,3.682,0,0,0,.527,2.179A1.773,1.773,0,0,0,49.987,16.556Zm8.9,0a1.824,1.824,0,0,0,1.253-.44,1.5,1.5,0,0,0,.531-1.087h1.9a2.963,2.963,0,0,1-.523,1.565,3.43,3.43,0,0,1-1.328,1.15,3.958,3.958,0,0,1-1.81.423,3.829,3.829,0,0,1-2.988-1.22,4.84,4.84,0,0,1-1.1-3.37v-.208a4.759,4.759,0,0,1,1.1-3.283A3.8,3.8,0,0,1,58.9,8.853a3.69,3.69,0,0,1,2.611.934,3.345,3.345,0,0,1,1.058,2.453h-1.9a1.847,1.847,0,0,0-.527-1.27,1.7,1.7,0,0,0-1.258-.5,1.775,1.775,0,0,0-1.511.71,3.621,3.621,0,0,0-.54,2.154v.324a3.682,3.682,0,0,0,.527,2.179A1.773,1.773,0,0,0,58.886,16.556ZM66.24,18H64.223V9.019H66.24ZM64.1,6.686a1.071,1.071,0,0,1,.295-.772,1.113,1.113,0,0,1,.843-.307,1.127,1.127,0,0,1,.847.307,1.062,1.062,0,0,1,.3.772,1.038,1.038,0,0,1-.3.76,1.136,1.136,0,0,1-.847.3,1.122,1.122,0,0,1-.843-.3A1.046,1.046,0,0,1,64.1,6.686Zm3.959,6.74a5.3,5.3,0,0,1,.523-2.378A3.819,3.819,0,0,1,70.05,9.421a4.14,4.14,0,0,1,2.175-.569,3.923,3.923,0,0,1,2.951,1.17,4.6,4.6,0,0,1,1.224,3.1l.008.473a5.343,5.343,0,0,1-.51,2.374,3.773,3.773,0,0,1-1.461,1.619,4.17,4.17,0,0,1-2.2.573A3.9,3.9,0,0,1,69.2,16.9a4.848,4.848,0,0,1-1.141-3.374Zm2.017.174a3.619,3.619,0,0,0,.573,2.171,1.862,1.862,0,0,0,1.594.784,1.842,1.842,0,0,0,1.59-.8,4,4,0,0,0,.569-2.333,3.572,3.572,0,0,0-.585-2.158,1.973,1.973,0,0,0-3.158-.012A3.922,3.922,0,0,0,70.075,13.6ZM72.781,5.25h2.3l-2.3,2.515-1.619,0Zm7.205,3.769.058,1.038a3.229,3.229,0,0,1,2.615-1.2q2.806,0,2.855,3.212V18H83.5V12.181a1.85,1.85,0,0,0-.369-1.266A1.554,1.554,0,0,0,81.92,10.5a1.944,1.944,0,0,0-1.818,1.1V18H78.085V9.019ZM97.169,18a3.113,3.113,0,0,1-.232-.838,3.393,3.393,0,0,1-4.565.232,2.47,2.47,0,0,1-.855-1.909,2.55,2.55,0,0,1,1.067-2.2,5.169,5.169,0,0,1,3.051-.768H96.87v-.589a1.573,1.573,0,0,0-.39-1.116,1.547,1.547,0,0,0-1.187-.419,1.777,1.777,0,0,0-1.129.344,1.066,1.066,0,0,0-.44.876H91.707a2.239,2.239,0,0,1,.49-1.382,3.263,3.263,0,0,1,1.332-1.009,4.68,4.68,0,0,1,1.88-.365,3.769,3.769,0,0,1,2.515.793,2.827,2.827,0,0,1,.963,2.229v4.051a4.591,4.591,0,0,0,.34,1.934V18Zm-2.216-1.453a2.294,2.294,0,0,0,1.125-.291,1.941,1.941,0,0,0,.793-.78V13.783H95.783a2.973,2.973,0,0,0-1.685.39,1.264,1.264,0,0,0-.564,1.1,1.179,1.179,0,0,0,.386.926A1.5,1.5,0,0,0,94.953,16.547ZM113.1,13.6a5.348,5.348,0,0,1-.946,3.324,3.287,3.287,0,0,1-4.906.27v4.258h-2.017V9.019h1.859l.083.913a2.963,2.963,0,0,1,2.416-1.079,3.062,3.062,0,0,1,2.577,1.224,5.49,5.49,0,0,1,.934,3.4Zm-2.009-.174a3.746,3.746,0,0,0-.535-2.133,1.741,1.741,0,0,0-1.531-.789,1.856,1.856,0,0,0-1.776,1.021V15.51a1.873,1.873,0,0,0,1.793,1.046,1.739,1.739,0,0,0,1.507-.776A4.124,4.124,0,0,0,111.089,13.426Zm7.67,4.74a4.173,4.173,0,0,1-3.109-1.208,4.381,4.381,0,0,1-1.191-3.217v-.249a5.389,5.389,0,0,1,.519-2.4,3.949,3.949,0,0,1,1.457-1.648,3.851,3.851,0,0,1,2.092-.589,3.525,3.525,0,0,1,2.835,1.17,4.949,4.949,0,0,1,1,3.312v.813h-5.869a2.7,2.7,0,0,0,.743,1.76,2.23,2.23,0,0,0,1.639.647,2.731,2.731,0,0,0,2.258-1.121l1.087,1.038a3.631,3.631,0,0,1-1.44,1.249A4.509,4.509,0,0,1,118.759,18.166Zm-.241-7.695a1.7,1.7,0,0,0-1.341.581,3.012,3.012,0,0,0-.652,1.619h3.843v-.149a2.452,2.452,0,0,0-.54-1.531A1.686,1.686,0,0,0,118.519,10.471Zm5.03,2.963a5.307,5.307,0,0,1,.963-3.345,3.129,3.129,0,0,1,2.606-1.237A2.941,2.941,0,0,1,129.5,9.907l.116-.888h1.793V21.453h-2.017V17.236a3.011,3.011,0,0,1-2.291.93,3.1,3.1,0,0,1-2.582-1.258A5.557,5.557,0,0,1,123.549,13.435Zm2.017.174a3.748,3.748,0,0,0,.544,2.162,1.733,1.733,0,0,0,1.507.784,1.911,1.911,0,0,0,1.776-1.021V11.451a1.912,1.912,0,0,0-1.76-.979,1.762,1.762,0,0,0-1.515.772A4.089,4.089,0,0,0,125.566,13.609Zm13.456,3.511a3.128,3.128,0,0,1-2.523,1.046,2.788,2.788,0,0,1-2.212-.855,3.637,3.637,0,0,1-.751-2.474V9.019h2.017v5.794q0,1.71,1.419,1.71a1.993,1.993,0,0,0,1.984-1.054V9.019h2.017V18h-1.9Zm7.96,1.046a4.173,4.173,0,0,1-3.109-1.208,4.381,4.381,0,0,1-1.191-3.217v-.249a5.389,5.389,0,0,1,.519-2.4,3.949,3.949,0,0,1,1.457-1.648,3.851,3.851,0,0,1,2.092-.589,3.525,3.525,0,0,1,2.835,1.17,4.949,4.949,0,0,1,1,3.312v.813h-5.869a2.7,2.7,0,0,0,.743,1.76,2.23,2.23,0,0,0,1.639.647,2.731,2.731,0,0,0,2.258-1.121l1.087,1.038A3.631,3.631,0,0,1,149,17.722,4.509,4.509,0,0,1,146.982,18.166Zm-.241-7.695a1.7,1.7,0,0,0-1.341.581,3.012,3.012,0,0,0-.652,1.619h3.843v-.149a2.452,2.452,0,0,0-.54-1.531A1.686,1.686,0,0,0,146.741,10.471Zm7.28-1.453.058,1.038a3.229,3.229,0,0,1,2.615-1.2q2.806,0,2.855,3.212V18h-2.017V12.181a1.85,1.85,0,0,0-.369-1.266,1.554,1.554,0,0,0-1.208-.411,1.944,1.944,0,0,0-1.818,1.1V18H152.12V9.019Zm4.9-3.586a2.231,2.231,0,0,1-.527,1.519,1.681,1.681,0,0,1-1.324.606,1.972,1.972,0,0,1-.56-.071,3.564,3.564,0,0,1-.672-.32,3.323,3.323,0,0,0-.614-.3,1.465,1.465,0,0,0-.394-.05.7.7,0,0,0-.535.237.872.872,0,0,0-.22.618l-1.237-.066a2.3,2.3,0,0,1,.527-1.536,1.654,1.654,0,0,1,1.316-.623,2.449,2.449,0,0,1,1.141.374,2.413,2.413,0,0,0,1.1.374.717.717,0,0,0,.54-.237.874.874,0,0,0,.224-.627ZM166.97,18a3.113,3.113,0,0,1-.232-.838,3.393,3.393,0,0,1-4.565.232,2.47,2.47,0,0,1-.855-1.909,2.55,2.55,0,0,1,1.067-2.2,5.169,5.169,0,0,1,3.051-.768h1.237v-.589a1.573,1.573,0,0,0-.39-1.116,1.547,1.547,0,0,0-1.187-.419,1.777,1.777,0,0,0-1.129.344,1.066,1.066,0,0,0-.44.876h-2.017a2.239,2.239,0,0,1,.49-1.382,3.263,3.263,0,0,1,1.332-1.009,4.68,4.68,0,0,1,1.88-.365,3.769,3.769,0,0,1,2.515.793,2.827,2.827,0,0,1,.963,2.229v4.051a4.591,4.591,0,0,0,.34,1.934V18Zm-2.216-1.453a2.294,2.294,0,0,0,1.125-.291,1.941,1.941,0,0,0,.793-.78V13.783h-1.087a2.973,2.973,0,0,0-1.685.39,1.264,1.264,0,0,0-.564,1.1,1.179,1.179,0,0,0,.386.926A1.5,1.5,0,0,0,164.754,16.547Zm14.236,1.619a4.173,4.173,0,0,1-3.109-1.208,4.381,4.381,0,0,1-1.191-3.217v-.249a5.389,5.389,0,0,1,.519-2.4,3.949,3.949,0,0,1,1.457-1.648,3.851,3.851,0,0,1,2.092-.589,3.525,3.525,0,0,1,2.835,1.17,4.949,4.949,0,0,1,1,3.312v.813h-5.869a2.7,2.7,0,0,0,.743,1.76,2.23,2.23,0,0,0,1.639.647,2.731,2.731,0,0,0,2.258-1.121l1.087,1.038a3.631,3.631,0,0,1-1.44,1.249A4.509,4.509,0,0,1,178.99,18.166Zm-.241-7.695a1.7,1.7,0,0,0-1.341.581,3.012,3.012,0,0,0-.652,1.619H180.6v-.149a2.452,2.452,0,0,0-.54-1.531A1.686,1.686,0,0,0,178.749,10.471Zm10.442,5.088a.914.914,0,0,0-.444-.822,4.723,4.723,0,0,0-1.473-.5,7.574,7.574,0,0,1-1.718-.548,2.293,2.293,0,0,1-1.511-2.117,2.391,2.391,0,0,1,.979-1.942,3.872,3.872,0,0,1,2.49-.78,4.029,4.029,0,0,1,2.6.8,2.529,2.529,0,0,1,.992,2.067h-2.017a1.243,1.243,0,0,0-.432-.967,1.654,1.654,0,0,0-1.146-.386,1.787,1.787,0,0,0-1.083.307.968.968,0,0,0-.419.822.818.818,0,0,0,.39.722,5.365,5.365,0,0,0,1.577.519,7.466,7.466,0,0,1,1.864.623,2.639,2.639,0,0,1,1,.867,2.212,2.212,0,0,1,.328,1.229,2.34,2.34,0,0,1-1,1.963,4.283,4.283,0,0,1-2.631.751,4.644,4.644,0,0,1-1.967-.4,3.238,3.238,0,0,1-1.345-1.1,2.594,2.594,0,0,1-.481-1.5h1.959a1.421,1.421,0,0,0,.54,1.1,2.1,2.1,0,0,0,1.32.386,2.04,2.04,0,0,0,1.212-.3A.938.938,0,0,0,189.191,15.56Zm7.429,1a1.824,1.824,0,0,0,1.253-.44,1.5,1.5,0,0,0,.531-1.087h1.9a2.963,2.963,0,0,1-.523,1.565,3.43,3.43,0,0,1-1.328,1.15,3.958,3.958,0,0,1-1.81.423,3.829,3.829,0,0,1-2.988-1.22,4.84,4.84,0,0,1-1.1-3.37v-.208a4.759,4.759,0,0,1,1.1-3.283,3.8,3.8,0,0,1,2.988-1.233,3.69,3.69,0,0,1,2.611.934,3.345,3.345,0,0,1,1.058,2.453h-1.9a1.847,1.847,0,0,0-.527-1.27,1.7,1.7,0,0,0-1.258-.5,1.775,1.775,0,0,0-1.511.71,3.621,3.621,0,0,0-.54,2.154v.324a3.682,3.682,0,0,0,.527,2.179A1.773,1.773,0,0,0,196.621,16.556ZM207.2,18a3.113,3.113,0,0,1-.232-.838,3.393,3.393,0,0,1-4.565.232,2.47,2.47,0,0,1-.855-1.909,2.55,2.55,0,0,1,1.067-2.2,5.169,5.169,0,0,1,3.051-.768H206.9v-.589a1.573,1.573,0,0,0-.39-1.116,1.547,1.547,0,0,0-1.187-.419,1.777,1.777,0,0,0-1.129.344,1.066,1.066,0,0,0-.44.876h-2.017a2.239,2.239,0,0,1,.49-1.382,3.263,3.263,0,0,1,1.332-1.009,4.68,4.68,0,0,1,1.88-.365,3.769,3.769,0,0,1,2.515.793,2.827,2.827,0,0,1,.963,2.229v4.051a4.591,4.591,0,0,0,.34,1.934V18Zm-2.216-1.453a2.294,2.294,0,0,0,1.125-.291,1.941,1.941,0,0,0,.793-.78V13.783H205.81a2.973,2.973,0,0,0-1.685.39,1.264,1.264,0,0,0-.564,1.1,1.179,1.179,0,0,0,.386.926A1.5,1.5,0,0,0,204.979,16.547ZM213.172,18h-2.017V5.25h2.017Zm7.562,0a3.113,3.113,0,0,1-.232-.838,3.393,3.393,0,0,1-4.565.232,2.47,2.47,0,0,1-.855-1.909,2.55,2.55,0,0,1,1.067-2.2,5.169,5.169,0,0,1,3.051-.768h1.237v-.589a1.573,1.573,0,0,0-.39-1.116,1.547,1.547,0,0,0-1.187-.419,1.777,1.777,0,0,0-1.129.344,1.066,1.066,0,0,0-.44.876h-2.017a2.239,2.239,0,0,1,.49-1.382,3.263,3.263,0,0,1,1.332-1.009,4.68,4.68,0,0,1,1.88-.365,3.769,3.769,0,0,1,2.515.793,2.827,2.827,0,0,1,.963,2.229v4.051a4.591,4.591,0,0,0,.34,1.934V18Zm-2.216-1.453a2.294,2.294,0,0,0,1.125-.291,1.941,1.941,0,0,0,.793-.78V13.783h-1.087a2.973,2.973,0,0,0-1.685.39,1.264,1.264,0,0,0-.564,1.1,1.179,1.179,0,0,0,.386.926A1.5,1.5,0,0,0,218.518,16.547Z" transform="translate(915 4699)" fill="#00316e"/>
      <path id="Trazado_600422" data-name="Trazado 600422" d="M91.935,18H89.843V5.914h2.092Zm4.283-8.981.058.938a3.232,3.232,0,0,1,2.59-1.1,2.483,2.483,0,0,1,2.465,1.378,3.186,3.186,0,0,1,2.756-1.378,2.8,2.8,0,0,1,2.212.822,3.618,3.618,0,0,1,.743,2.424V18h-2.017V12.156a1.786,1.786,0,0,0-.374-1.253,1.635,1.635,0,0,0-1.237-.4,1.679,1.679,0,0,0-1.125.369,1.948,1.948,0,0,0-.61.967L101.688,18H99.671V12.09A1.439,1.439,0,0,0,98.052,10.5a1.776,1.776,0,0,0-1.718.988V18H94.317V9.019Zm20.76,4.582a5.348,5.348,0,0,1-.946,3.324,3.287,3.287,0,0,1-4.906.27v4.258h-2.017V9.019h1.859l.083.913a2.963,2.963,0,0,1,2.416-1.079,3.062,3.062,0,0,1,2.577,1.224,5.49,5.49,0,0,1,.934,3.4Zm-2.009-.174a3.746,3.746,0,0,0-.535-2.133A1.741,1.741,0,0,0,112.9,10.5a1.856,1.856,0,0,0-1.776,1.021V15.51a1.873,1.873,0,0,0,1.793,1.046,1.739,1.739,0,0,0,1.507-.776A4.124,4.124,0,0,0,114.969,13.426Zm8.417-2.565a4.991,4.991,0,0,0-.822-.066,1.85,1.85,0,0,0-1.868,1.063V18H118.68V9.019h1.926l.05,1a2.273,2.273,0,0,1,2.025-1.17,1.888,1.888,0,0,1,.714.116Zm5.229,7.3a4.173,4.173,0,0,1-3.109-1.208,4.381,4.381,0,0,1-1.191-3.217v-.249a5.389,5.389,0,0,1,.519-2.4,3.949,3.949,0,0,1,1.457-1.648,3.851,3.851,0,0,1,2.092-.589,3.525,3.525,0,0,1,2.835,1.17,4.949,4.949,0,0,1,1,3.312v.813H126.35a2.7,2.7,0,0,0,.743,1.76,2.23,2.23,0,0,0,1.639.647,2.731,2.731,0,0,0,2.258-1.121l1.087,1.038a3.631,3.631,0,0,1-1.44,1.249A4.509,4.509,0,0,1,128.616,18.166Zm-.241-7.695a1.7,1.7,0,0,0-1.341.581,3.012,3.012,0,0,0-.652,1.619h3.843v-.149a2.452,2.452,0,0,0-.54-1.531A1.686,1.686,0,0,0,128.375,10.471Zm10.442,5.088a.914.914,0,0,0-.444-.822,4.723,4.723,0,0,0-1.473-.5,7.574,7.574,0,0,1-1.718-.548,2.293,2.293,0,0,1-1.511-2.117,2.391,2.391,0,0,1,.979-1.942,3.872,3.872,0,0,1,2.49-.78,4.029,4.029,0,0,1,2.6.8,2.529,2.529,0,0,1,.992,2.067h-2.017a1.243,1.243,0,0,0-.432-.967,1.654,1.654,0,0,0-1.146-.386,1.787,1.787,0,0,0-1.083.307.968.968,0,0,0-.419.822.818.818,0,0,0,.39.722,5.365,5.365,0,0,0,1.577.519,7.466,7.466,0,0,1,1.864.623,2.639,2.639,0,0,1,1,.867,2.212,2.212,0,0,1,.328,1.229,2.34,2.34,0,0,1-1,1.963,4.283,4.283,0,0,1-2.631.751,4.644,4.644,0,0,1-1.967-.4,3.238,3.238,0,0,1-1.345-1.1,2.594,2.594,0,0,1-.481-1.5h1.959a1.421,1.421,0,0,0,.54,1.1,2.1,2.1,0,0,0,1.32.386,2.04,2.04,0,0,0,1.212-.3A.938.938,0,0,0,138.817,15.56ZM144.7,18h-2.017V9.019H144.7ZM142.561,6.686a1.07,1.07,0,0,1,.295-.772,1.113,1.113,0,0,1,.843-.307,1.127,1.127,0,0,1,.847.307,1.062,1.062,0,0,1,.3.772,1.038,1.038,0,0,1-.3.76,1.136,1.136,0,0,1-.847.3,1.122,1.122,0,0,1-.843-.3A1.046,1.046,0,0,1,142.561,6.686Zm3.959,6.74a5.3,5.3,0,0,1,.523-2.378,3.819,3.819,0,0,1,1.469-1.627,4.14,4.14,0,0,1,2.175-.569,3.923,3.923,0,0,1,2.951,1.17,4.6,4.6,0,0,1,1.224,3.1l.008.473a5.343,5.343,0,0,1-.51,2.374,3.773,3.773,0,0,1-1.461,1.619,4.17,4.17,0,0,1-2.2.573,3.9,3.9,0,0,1-3.042-1.266,4.848,4.848,0,0,1-1.141-3.374Zm2.017.174a3.619,3.619,0,0,0,.573,2.171,1.862,1.862,0,0,0,1.594.784,1.842,1.842,0,0,0,1.59-.8,4,4,0,0,0,.569-2.333,3.572,3.572,0,0,0-.585-2.158,1.973,1.973,0,0,0-3.158-.012A3.922,3.922,0,0,0,148.538,13.6Zm2.706-8.351h2.3l-2.3,2.515-1.619,0Zm7.205,3.769.058,1.038a3.229,3.229,0,0,1,2.615-1.2q2.806,0,2.855,3.212V18H161.96V12.181a1.85,1.85,0,0,0-.369-1.266,1.554,1.554,0,0,0-1.208-.411,1.944,1.944,0,0,0-1.818,1.1V18h-2.017V9.019Zm14.02,2.017H173.7a2.2,2.2,0,0,0,1.473-.481,1.718,1.718,0,0,0,.544-1.37,1.872,1.872,0,0,0-.452-1.341,1.821,1.821,0,0,0-1.382-.477,1.926,1.926,0,0,0-1.336.469,1.567,1.567,0,0,0-.523,1.224H170a3.053,3.053,0,0,1,.494-1.693,3.318,3.318,0,0,1,1.378-1.191,4.489,4.489,0,0,1,1.98-.427,4.157,4.157,0,0,1,2.843.909,3.19,3.19,0,0,1,1.033,2.528,2.568,2.568,0,0,1-.519,1.531,3.253,3.253,0,0,1-1.341,1.083,2.965,2.965,0,0,1,1.515,1.071,2.932,2.932,0,0,1,.519,1.743,3.246,3.246,0,0,1-1.116,2.59,4.9,4.9,0,0,1-5.79.033,3.062,3.062,0,0,1-1.112-2.474H171.9a1.687,1.687,0,0,0,.535,1.295,2.03,2.03,0,0,0,1.44.5,2.094,2.094,0,0,0,1.478-.5,1.868,1.868,0,0,0,.54-1.444,1.887,1.887,0,0,0-.564-1.469,2.413,2.413,0,0,0-1.677-.515h-1.187ZM180.122,18V5.914h3.569a5.6,5.6,0,0,1,2.843.714,4.868,4.868,0,0,1,1.922,2.025,6.429,6.429,0,0,1,.681,3v.606a6.4,6.4,0,0,1-.685,3.021,4.809,4.809,0,0,1-1.951,2.009,5.858,5.858,0,0,1-2.9.706Zm2.1-10.393v8.716h1.37a3.154,3.154,0,0,0,2.536-1.033,4.5,4.5,0,0,0,.9-2.968V11.65a4.619,4.619,0,0,0-.855-3,3.031,3.031,0,0,0-2.482-1.038Z" transform="translate(495 4762)" fill="#00316e"/>
      <path id="Trazado_600423" data-name="Trazado 600423" d="M3.329,13.518V18h-2.1V5.914H5.852A4.675,4.675,0,0,1,9.069,6.969,3.549,3.549,0,0,1,10.26,9.761a3.431,3.431,0,0,1-1.166,2.767,4.9,4.9,0,0,1-3.266.989Zm0-1.693H5.852a2.485,2.485,0,0,0,1.71-.527,1.937,1.937,0,0,0,.589-1.523,2.09,2.09,0,0,0-.6-1.565,2.3,2.3,0,0,0-1.644-.6H3.329ZM16.6,10.861a4.991,4.991,0,0,0-.822-.066,1.85,1.85,0,0,0-1.868,1.063V18H11.9V9.019h1.926l.05,1A2.273,2.273,0,0,1,15.9,8.853a1.888,1.888,0,0,1,.714.116Zm.6,2.565a5.3,5.3,0,0,1,.523-2.378,3.819,3.819,0,0,1,1.469-1.627,4.14,4.14,0,0,1,2.175-.569,3.923,3.923,0,0,1,2.951,1.17,4.6,4.6,0,0,1,1.224,3.1l.008.473a5.343,5.343,0,0,1-.51,2.374,3.773,3.773,0,0,1-1.461,1.619,4.17,4.17,0,0,1-2.2.573A3.9,3.9,0,0,1,18.341,16.9,4.848,4.848,0,0,1,17.2,13.526Zm2.017.174a3.619,3.619,0,0,0,.573,2.171,1.862,1.862,0,0,0,1.594.784,1.842,1.842,0,0,0,1.59-.8,4,4,0,0,0,.569-2.333,3.572,3.572,0,0,0-.585-2.158,1.973,1.973,0,0,0-3.158-.012A3.922,3.922,0,0,0,19.216,13.6Zm7.662-.158a5.34,5.34,0,0,1,.963-3.333,3.085,3.085,0,0,1,2.582-1.258,2.931,2.931,0,0,1,2.308,1V5.25h2.017V18H32.921l-.1-.93a2.973,2.973,0,0,1-2.416,1.1,3.068,3.068,0,0,1-2.552-1.27A5.535,5.535,0,0,1,26.878,13.443Zm2.017.174a3.739,3.739,0,0,0,.527,2.137,1.71,1.71,0,0,0,1.5.768,1.9,1.9,0,0,0,1.81-1.1V11.583A1.876,1.876,0,0,0,30.937,10.5a1.723,1.723,0,0,0-1.511.776A4.163,4.163,0,0,0,28.9,13.617Zm13.4,3.5a3.128,3.128,0,0,1-2.523,1.046,2.788,2.788,0,0,1-2.212-.855,3.637,3.637,0,0,1-.751-2.474V9.019h2.017v5.794q0,1.71,1.419,1.71a1.993,1.993,0,0,0,1.984-1.054V9.019h2.017V18h-1.9Zm7.695-.564a1.824,1.824,0,0,0,1.253-.44,1.5,1.5,0,0,0,.531-1.087h1.9a2.963,2.963,0,0,1-.523,1.565,3.43,3.43,0,0,1-1.328,1.15,3.958,3.958,0,0,1-1.81.423,3.829,3.829,0,0,1-2.988-1.22,4.84,4.84,0,0,1-1.1-3.37v-.208a4.759,4.759,0,0,1,1.1-3.283A3.8,3.8,0,0,1,50,8.853a3.69,3.69,0,0,1,2.611.934,3.345,3.345,0,0,1,1.058,2.453h-1.9a1.847,1.847,0,0,0-.527-1.27,1.7,1.7,0,0,0-1.258-.5,1.775,1.775,0,0,0-1.511.71,3.621,3.621,0,0,0-.54,2.154v.324a3.682,3.682,0,0,0,.527,2.179A1.773,1.773,0,0,0,49.987,16.556Zm8.9,0a1.824,1.824,0,0,0,1.253-.44,1.5,1.5,0,0,0,.531-1.087h1.9a2.963,2.963,0,0,1-.523,1.565,3.43,3.43,0,0,1-1.328,1.15,3.958,3.958,0,0,1-1.81.423,3.829,3.829,0,0,1-2.988-1.22,4.84,4.84,0,0,1-1.1-3.37v-.208a4.759,4.759,0,0,1,1.1-3.283A3.8,3.8,0,0,1,58.9,8.853a3.69,3.69,0,0,1,2.611.934,3.345,3.345,0,0,1,1.058,2.453h-1.9a1.847,1.847,0,0,0-.527-1.27,1.7,1.7,0,0,0-1.258-.5,1.775,1.775,0,0,0-1.511.71,3.621,3.621,0,0,0-.54,2.154v.324a3.682,3.682,0,0,0,.527,2.179A1.773,1.773,0,0,0,58.886,16.556ZM66.24,18H64.223V9.019H66.24ZM64.1,6.686a1.071,1.071,0,0,1,.295-.772,1.113,1.113,0,0,1,.843-.307,1.127,1.127,0,0,1,.847.307,1.062,1.062,0,0,1,.3.772,1.038,1.038,0,0,1-.3.76,1.136,1.136,0,0,1-.847.3,1.122,1.122,0,0,1-.843-.3A1.046,1.046,0,0,1,64.1,6.686Zm3.959,6.74a5.3,5.3,0,0,1,.523-2.378A3.819,3.819,0,0,1,70.05,9.421a4.14,4.14,0,0,1,2.175-.569,3.923,3.923,0,0,1,2.951,1.17,4.6,4.6,0,0,1,1.224,3.1l.008.473a5.343,5.343,0,0,1-.51,2.374,3.773,3.773,0,0,1-1.461,1.619,4.17,4.17,0,0,1-2.2.573A3.9,3.9,0,0,1,69.2,16.9a4.848,4.848,0,0,1-1.141-3.374Zm2.017.174a3.619,3.619,0,0,0,.573,2.171,1.862,1.862,0,0,0,1.594.784,1.842,1.842,0,0,0,1.59-.8,4,4,0,0,0,.569-2.333,3.572,3.572,0,0,0-.585-2.158,1.973,1.973,0,0,0-3.158-.012A3.922,3.922,0,0,0,70.075,13.6ZM72.781,5.25h2.3l-2.3,2.515-1.619,0Zm7.205,3.769.058,1.038a3.229,3.229,0,0,1,2.615-1.2q2.806,0,2.855,3.212V18H83.5V12.181a1.85,1.85,0,0,0-.369-1.266A1.554,1.554,0,0,0,81.92,10.5a1.944,1.944,0,0,0-1.818,1.1V18H78.085V9.019Zm15.771,9.147a4.173,4.173,0,0,1-3.109-1.208,4.381,4.381,0,0,1-1.191-3.217v-.249a5.389,5.389,0,0,1,.519-2.4,3.949,3.949,0,0,1,1.457-1.648,3.851,3.851,0,0,1,2.092-.589,3.525,3.525,0,0,1,2.835,1.17,4.949,4.949,0,0,1,1,3.312v.813H93.492a2.7,2.7,0,0,0,.743,1.76,2.23,2.23,0,0,0,1.639.647,2.731,2.731,0,0,0,2.258-1.121l1.087,1.038a3.631,3.631,0,0,1-1.44,1.249A4.509,4.509,0,0,1,95.758,18.166Zm-.241-7.695a1.7,1.7,0,0,0-1.341.581,3.012,3.012,0,0,0-.652,1.619h3.843v-.149a2.452,2.452,0,0,0-.54-1.531A1.686,1.686,0,0,0,95.517,10.471Zm7.28-1.453.058,1.038a3.229,3.229,0,0,1,2.615-1.2q2.806,0,2.855,3.212V18h-2.017V12.181a1.85,1.85,0,0,0-.369-1.266,1.554,1.554,0,0,0-1.208-.411,1.944,1.944,0,0,0-1.818,1.1V18H100.9V9.019Zm13.713,0,.058.938a3.232,3.232,0,0,1,2.59-1.1,2.483,2.483,0,0,1,2.465,1.378,3.186,3.186,0,0,1,2.756-1.378,2.8,2.8,0,0,1,2.212.822,3.618,3.618,0,0,1,.743,2.424V18h-2.017V12.156a1.786,1.786,0,0,0-.374-1.253,1.635,1.635,0,0,0-1.237-.4,1.679,1.679,0,0,0-1.125.369,1.948,1.948,0,0,0-.61.967L121.98,18h-2.017V12.09a1.439,1.439,0,0,0-1.619-1.585,1.776,1.776,0,0,0-1.718.988V18h-2.017V9.019ZM134.771,18a3.113,3.113,0,0,1-.232-.838,3.393,3.393,0,0,1-4.565.232,2.47,2.47,0,0,1-.855-1.909,2.55,2.55,0,0,1,1.067-2.2,5.169,5.169,0,0,1,3.051-.768h1.237v-.589a1.573,1.573,0,0,0-.39-1.116,1.547,1.547,0,0,0-1.187-.419,1.777,1.777,0,0,0-1.129.344,1.066,1.066,0,0,0-.44.876H129.31a2.239,2.239,0,0,1,.49-1.382,3.263,3.263,0,0,1,1.332-1.009,4.68,4.68,0,0,1,1.88-.365,3.769,3.769,0,0,1,2.515.793,2.827,2.827,0,0,1,.963,2.229v4.051a4.591,4.591,0,0,0,.34,1.934V18Zm-2.216-1.453a2.294,2.294,0,0,0,1.125-.291,1.941,1.941,0,0,0,.793-.78V13.783h-1.087a2.973,2.973,0,0,0-1.685.39,1.264,1.264,0,0,0-.564,1.1,1.179,1.179,0,0,0,.386.926A1.5,1.5,0,0,0,132.555,16.547Zm11.082-.988a.914.914,0,0,0-.444-.822,4.723,4.723,0,0,0-1.473-.5A7.574,7.574,0,0,1,140,13.692a2.293,2.293,0,0,1-1.511-2.117,2.391,2.391,0,0,1,.979-1.942,3.872,3.872,0,0,1,2.49-.78,4.029,4.029,0,0,1,2.6.8,2.529,2.529,0,0,1,.992,2.067h-2.017a1.243,1.243,0,0,0-.432-.967,1.654,1.654,0,0,0-1.146-.386,1.787,1.787,0,0,0-1.083.307.968.968,0,0,0-.419.822.818.818,0,0,0,.39.722,5.365,5.365,0,0,0,1.577.519,7.466,7.466,0,0,1,1.864.623,2.639,2.639,0,0,1,1,.867,2.212,2.212,0,0,1,.328,1.229,2.34,2.34,0,0,1-1,1.963,4.283,4.283,0,0,1-2.631.751,4.644,4.644,0,0,1-1.967-.4,3.238,3.238,0,0,1-1.345-1.1,2.594,2.594,0,0,1-.481-1.5h1.959a1.421,1.421,0,0,0,.54,1.1,2.1,2.1,0,0,0,1.32.386,2.04,2.04,0,0,0,1.212-.3A.938.938,0,0,0,143.637,15.56ZM152.743,18a3.113,3.113,0,0,1-.232-.838,3.393,3.393,0,0,1-4.565.232,2.47,2.47,0,0,1-.855-1.909,2.55,2.55,0,0,1,1.067-2.2,5.169,5.169,0,0,1,3.051-.768h1.237v-.589a1.573,1.573,0,0,0-.39-1.116,1.547,1.547,0,0,0-1.187-.419,1.777,1.777,0,0,0-1.129.344,1.066,1.066,0,0,0-.44.876h-2.017a2.239,2.239,0,0,1,.49-1.382A3.263,3.263,0,0,1,149.1,9.218a4.68,4.68,0,0,1,1.88-.365,3.769,3.769,0,0,1,2.515.793,2.827,2.827,0,0,1,.963,2.229v4.051a4.591,4.591,0,0,0,.34,1.934V18Zm-2.216-1.453a2.294,2.294,0,0,0,1.125-.291,1.941,1.941,0,0,0,.793-.78V13.783h-1.087a2.973,2.973,0,0,0-1.685.39,1.264,1.264,0,0,0-.564,1.1,1.179,1.179,0,0,0,.386.926A1.5,1.5,0,0,0,150.526,16.547Z" transform="translate(915 4762)" fill="#00316e"/>
      <g id="Grupo_155290" data-name="Grupo 155290" transform="translate(705 4594)">
        <g id="Grupo_155287" data-name="Grupo 155287">
          <g id="Grupo_155286" data-name="Grupo 155286" clip-path="url(#clip-path)">
            <path id="Trazado_596530" data-name="Trazado 596530" d="M220.427,62.6a47.032,47.032,0,0,0-13.509-19.743,14.919,14.919,0,0,0-3.754-3.708c-3.838-2.551-8.468-3-12.88-3.253a86.96,86.96,0,0,0-13.08-.054,29.085,29.085,0,0,0-12.094,3.761,43.775,43.775,0,0,0-2.618-9.4,49.337,49.337,0,0,0-16.9-21.353A47.2,47.2,0,0,0,119.022.012,53.108,53.108,0,0,0,91.166,7.361a51.958,51.958,0,0,0-19.9,21.33,57.9,57.9,0,0,0-6.161,28.643,50.779,50.779,0,0,0,3,15.473,31.318,31.318,0,0,0,8.648,12.68A37.3,37.3,0,0,0,89.4,92.65a44.492,44.492,0,0,0,7.2,1.726c2.533.409,5.425.755,7.491,2.426,1.585,1.283,2.894,3.6,2.008,5.644a.7.7,0,0,0-.528.51,20.42,20.42,0,0,0-.5,9.54c.072.393.157.792.252,1.189a.716.716,0,0,0,.044.165,14.537,14.537,0,0,0,1.117,3.118c.8,1.564,2.285,1.848,3.886,2.088l.031,0a.664.664,0,0,0-.309.812q.846,2.717,1.692,5.434c.454,1.457.789,3.2,2.364,3.838a4.52,4.52,0,0,0,1.336.3,136,136,0,0,0-5.119,19.475,59.24,59.24,0,0,0-.838,10.329,32.376,32.376,0,0,0,.467,5.621c-2.807,2.836-4.343,7.183-5.206,10.881a35.625,35.625,0,0,0-.9,9.881,47.172,47.172,0,0,0,.61,5.107,17.454,17.454,0,0,1,.253,5.205,17.95,17.95,0,0,1-3.108,7.558,15.189,15.189,0,0,0-3.137-2.677c-2.3-1.338-5.474-1.479-7.371.658-1.774,2-1.108,4.758.872,6.322a6.159,6.159,0,0,0,7.241.225,11.143,11.143,0,0,0,2.514-2.192,18.836,18.836,0,0,1,2.81,3.914,42.02,42.02,0,0,1,2.729,8.139,52.424,52.424,0,0,1,1.417,6.14,39.923,39.923,0,0,1,.362,5.53c.015,1.207.013,2.413.013,3.62a.758.758,0,0,0,1.515,0,53.882,53.882,0,0,0-.918-12.093c-.594-2.61-1.367-5.181-2.128-7.746a20.815,20.815,0,0,0-3.269-6.842c-.5-.653-1.033-1.274-1.588-1.878a22.507,22.507,0,0,0,1.871-3.227,16.422,16.422,0,0,0,1.623-9.43c-.223-1.729-.571-3.437-.718-5.175a34.606,34.606,0,0,1-.068-4.871,34.006,34.006,0,0,1,2.1-9.985,18.09,18.09,0,0,1,2.914-5.294,13.857,13.857,0,0,0,.553,1.532,8.071,8.071,0,0,0,5.522,4.875,5.709,5.709,0,0,0,6.214-2.185,5.9,5.9,0,0,0-.672-6.6,6.983,6.983,0,0,0-7.028-2.2,9.434,9.434,0,0,0-3.685,1.645,41.577,41.577,0,0,1-.131-9.356c.556-6.989,2.4-13.809,4.466-20.485.465-1.506.945-3.008,1.427-4.509a8.4,8.4,0,0,0,1.933-.589,4.454,4.454,0,0,0,1.813-1.373,6.819,6.819,0,0,0,.95-2.334,42.021,42.021,0,0,0,1.148-6.023,4.645,4.645,0,0,0,1.85-.9c1.17-.976,1.51-2.605,1.8-4.025.029-.143.049-.289.076-.433a.638.638,0,0,0,.122-.7,26.454,26.454,0,0,0-.373-10.192.691.691,0,0,0-.955-.49,6.292,6.292,0,0,1,1.932-4.1c1.858-1.9,4.459-2.541,7-2.948A46.98,46.98,0,0,0,142.4,93.7c.1-.034.2-.072.3-.108a41.229,41.229,0,0,0,11.073,18.258,51.814,51.814,0,0,0,5.542,4.433c1.785,1.284,3.731,2.74,4.6,4.839a9.741,9.741,0,0,1,.5,3.959c-.031,1.466-.079,2.932-.119,4.4s-.072,2.954-.12,4.43c-.033,1-.206,2.007-.162,3.01a5.858,5.858,0,0,0,3.339,4.721,10.617,10.617,0,0,0,3.135,1.038c.829,2.389.342,5.982,3.53,6.644a12.239,12.239,0,0,0,2.253.177c.11,0,.219.009.328.013a79.312,79.312,0,0,0-1.356,36.325c.6,3.059,1.449,6.058,2.214,9.079a80.74,80.74,0,0,1,1.728,9.111,57.42,57.42,0,0,1,.4,13.179c-.518,5.348-1.578,10.643-2.284,15.968-.054.409.387.754.758.758a.776.776,0,0,0,.758-.758c.641-4.843,1.543-9.652,2.124-14.5a54.611,54.611,0,0,0,.028-12.406,85.217,85.217,0,0,0-1.333-8.706c-.657-3.064-1.549-6.07-2.277-9.117a77.436,77.436,0,0,1,.783-38.847c0-.009,0-.016,0-.025.322.014.644.031.965.037,1.441.03,3.147.158,4.249-.962,1.358-1.381,1.463-3.634,1.73-5.446a7.771,7.771,0,0,0,3.157-.591c2.188-1,2.6-3.516,2.56-5.686-.049-2.905-.333-5.827-.6-8.719a19.488,19.488,0,0,1-.284-4.253,3.172,3.172,0,0,1,1.9-2.371,26.144,26.144,0,0,1,3.114-1.2c1.1-.409,2.184-.869,3.242-1.377a38.34,38.34,0,0,0,6.108-3.671,42,42,0,0,0,9.755-10.077,45.757,45.757,0,0,0,7.659-22.2A38.8,38.8,0,0,0,220.427,62.6M94.308,207.378a4.259,4.259,0,0,1-2.526-2.213,2.573,2.573,0,0,1,.9-3.071c2.491-1.895,5.414.014,7.25,1.844q.39.388.773.783c-1.567,1.848-3.908,3.511-6.4,2.657m25.676-43.048c1.709,1.255,2.626,3.96,1.383,5.83-1.324,1.993-4.24,1.843-6.112.8-2.045-1.134-3.072-3.356-3.6-5.572a8.827,8.827,0,0,1,.774-.6c2.141-1.451,5.327-2.105,7.56-.465" transform="translate(-32.193 0)" fill="#fff"/>
            <path id="Trazado_596531" data-name="Trazado 596531" d="M68.683,241.7a30.734,30.734,0,0,0-5.119-38.314,36.716,36.716,0,0,0-18.718-10.013,35.008,35.008,0,0,0-10.175-.435c-1.167-.337-2.344-.643-3.534-.892-6.9-1.447-13.822-.385-19.415,4.568-5.773,5.112-8.736,12.546-9.849,20.061-.04.269-.075.542-.112.814a26.89,26.89,0,0,0-.846,16.482,36.719,36.719,0,0,0,5.15,10.863,25.911,25.911,0,0,0,9.2,8.235,53.29,53.29,0,0,0,6.045,2.511c1.656.648,3.268,1.561,3.789,3.377.5,1.752.5,3.652,1.766,5.095a4.016,4.016,0,0,0,.32.322,2.883,2.883,0,0,0,.345,3.542,2.7,2.7,0,0,0,.271.244c-.83,1.185-1.44,2.652-.43,3.934a4.049,4.049,0,0,0,2.837,1.3.755.755,0,0,0,.02.338q.439,1.583.878,3.165l.439,1.583A3.867,3.867,0,0,0,32,279.747c.545.748,1.772.64,2.594.688q.8.047,1.611.047c-1.371,12.277,1.338,24.494,1.819,36.746a71.825,71.825,0,0,1-.311,10.7c-.106.968,1.41.96,1.515,0,1.387-12.577-1.495-25.05-1.87-37.6a69.578,69.578,0,0,1,.359-9.888l.09,0a30.023,30.023,0,0,0,3.167-.352c1.04-.171,1.907-.236,2.156-1.4a34.176,34.176,0,0,0,.714-6.369.772.772,0,0,0-.006-.078,5.376,5.376,0,0,0,.533-.161,2.171,2.171,0,0,0,1.528-1.956,3.878,3.878,0,0,0-1.022-2.394c.021-.019.043-.035.065-.054a2.611,2.611,0,0,0,.273-3.65c1.07-1.306.338-3.2,1.015-4.712,1.2-2.677,4.656-3.662,7.171-4.593A29.771,29.771,0,0,0,68.683,241.7" transform="translate(0 -94.748)" fill="#fff"/>
            <path id="Trazado_596532" data-name="Trazado 596532" d="M303.537,97.5a47.031,47.031,0,0,0-13.508-19.743,14.929,14.929,0,0,0-3.754-3.708c-3.838-2.551-8.468-3-12.879-3.253a86.964,86.964,0,0,0-13.08-.054c-8.7.813-16.618,4.886-21.689,13.486-5.234,8.877-6.364,19.667-5.259,29.843,1.972,18.173,10.089,39.935,28.521,40.571,8.668.3,17.416-3.582,24.687-9.124a49.841,49.841,0,0,0,16.573-21.77,38.91,38.91,0,0,0,.389-26.248" transform="translate(-115.301 -34.897)" fill="#7fd2db"/>
            <path id="Trazado_596533" data-name="Trazado 596533" d="M60.663,221.2a36.208,36.208,0,0,0-6.647-17.229,12.1,12.1,0,0,0-2.191-3.52c-2.481-2.713-5.981-4.113-9.35-5.32a77.135,77.135,0,0,0-10.125-3.086c-6.9-1.446-13.822-.385-19.415,4.568C7.162,201.727,4.2,209.16,3.086,216.676c-1.988,13.422.091,30.835,14.25,35.582,6.658,2.232,14.188,1.5,20.894-.758a35.99,35.99,0,0,0,17.053-11.667,26.4,26.4,0,0,0,5.38-18.632" transform="translate(-1.21 -94.748)" fill="#ff8fca"/>
            <path id="Trazado_596562" data-name="Trazado 596562" d="M-7632.307-7060.334s1.6-28.158,24.725-35.254,44.182-5.265,57.917,15.109,5.952,45.785-9.844,56.544-45.785,8.7-60.436-3.434-12.362-32.965-12.362-32.965" transform="translate(7671 7106)" fill="#ffd150" opacity="0.4"/>
          </g>
        </g>
        <g id="Grupo_155289" data-name="Grupo 155289">
          <g id="Grupo_155288" data-name="Grupo 155288" clip-path="url(#clip-path)">
            <path id="Trazado_596534" data-name="Trazado 596534" d="M107.4,103.229a6.117,6.117,0,0,0-1.095-6.325,10.753,10.753,0,0,0-6.334-3.457c-2.542-.563-5.129-.826-7.65-1.5a38.42,38.42,0,0,1-6.745-2.48A32.857,32.857,0,0,1,74.234,80.69a34.432,34.432,0,0,1-6.509-14.73,55.862,55.862,0,0,1,1.77-29.1,52.1,52.1,0,0,1,16.252-23.9,51.547,51.547,0,0,1,26.358-11.1,46.539,46.539,0,0,1,27.466,5.012,48.067,48.067,0,0,1,19.193,19,43.812,43.812,0,0,1,4.661,12.75,53.955,53.955,0,0,1,.189,17.355,78.3,78.3,0,0,1-3.957,16.843,36.609,36.609,0,0,1-8.17,13.311,24.342,24.342,0,0,1-12.716,6.953c-2.744.507-5.578.618-8.241,1.509a10.068,10.068,0,0,0-5.492,4.168,6.233,6.233,0,0,0-.527,6.009c.413.882,1.72.114,1.308-.765-.955-2.039.115-4.314,1.573-5.8,1.859-1.9,4.46-2.541,7-2.948A47.079,47.079,0,0,0,142.4,93.7a25.029,25.029,0,0,0,6.512-3.4c8.906-6.44,12.951-17.065,15.062-27.473a72.664,72.664,0,0,0,1.677-18.308A44.45,44.45,0,0,0,162.5,30.209,49.339,49.339,0,0,0,145.6,8.856,47.212,47.212,0,0,0,119.027.011,53.111,53.111,0,0,0,91.171,7.36a51.961,51.961,0,0,0-19.9,21.33,57.9,57.9,0,0,0-6.16,28.642,50.764,50.764,0,0,0,3,15.474,31.322,31.322,0,0,0,8.648,12.68,37.313,37.313,0,0,0,12.644,7.163,44.531,44.531,0,0,0,7.2,1.726c2.533.409,5.425.755,7.491,2.427,1.59,1.287,2.9,3.615,2,5.662-.39.884.915,1.656,1.308.765" transform="translate(-32.196 0)"/>
            <path id="Trazado_596535" data-name="Trazado 596535" d="M146.722,205.786a25.132,25.132,0,0,0,9.979,1.408c1.684-.062,3.363-.227,5.036-.43.825-.1,1.65-.21,2.474-.321.754-.1,1.435-.249,1.706-1.049.314-.926-1.15-1.323-1.461-.4.088-.26.127-.093-.117-.084-.175.006-.356.051-.53.075q-.58.078-1.16.153c-.76.1-1.521.19-2.283.271-1.483.157-2.973.271-4.464.295a23.188,23.188,0,0,1-8.776-1.375c-.911-.35-1.305,1.114-.4,1.461" transform="translate(-72.359 -101.093)"/>
            <path id="Trazado_596536" data-name="Trazado 596536" d="M144.439,203.135a20.433,20.433,0,0,0-.5,9.54,16.448,16.448,0,0,0,1.413,4.471c.8,1.564,2.285,1.848,3.886,2.088a42.655,42.655,0,0,0,10.451.3,7.018,7.018,0,0,0,3.975-1.222c1.169-.975,1.509-2.6,1.8-4.025a26.412,26.412,0,0,0-.175-11.32c-.222-.949-1.684-.548-1.461.4a24.788,24.788,0,0,1,.455,8.869,12.885,12.885,0,0,1-1.009,4.15c-.615,1.182-1.875,1.443-3.1,1.58a41.3,41.3,0,0,1-9.16-.016q-1.115-.125-2.221-.316a2.858,2.858,0,0,1-1.816-.734,5.768,5.768,0,0,1-.843-1.835,18.991,18.991,0,0,1-.579-2.033,18.776,18.776,0,0,1,.349-9.5.758.758,0,0,0-1.461-.4" transform="translate(-71.063 -100.179)"/>
            <path id="Trazado_596537" data-name="Trazado 596537" d="M145.2,215.438a42.856,42.856,0,0,0,20.231-.028c.951-.214.549-1.675-.4-1.461a41.35,41.35,0,0,1-19.426.028c-.95-.211-1.356,1.25-.4,1.461" transform="translate(-71.589 -105.872)"/>
            <path id="Trazado_596538" data-name="Trazado 596538" d="M145.277,224.426c6.743,1.866,14.113,2.739,20.616-.432.876-.427.109-1.735-.765-1.308-6.113,2.981-13.133,2.027-19.448.279a.758.758,0,0,0-.4,1.461" transform="translate(-71.632 -110.164)"/>
            <path id="Trazado_596539" data-name="Trazado 596539" d="M154.171,235.538l1.692,5.434c.453,1.457.789,3.2,2.364,3.838a6.6,6.6,0,0,0,4.888-.382,4.452,4.452,0,0,0,1.813-1.374,6.809,6.809,0,0,0,.95-2.333,42.274,42.274,0,0,0,1.182-6.28c.11-.967-1.406-.959-1.515,0a39.588,39.588,0,0,1-1.128,5.877,3.917,3.917,0,0,1-1.182,2.315,5.308,5.308,0,0,1-2.466.909,3.143,3.143,0,0,1-2.381-.377,4.844,4.844,0,0,1-.93-2.169l-1.824-5.861c-.289-.928-1.752-.532-1.461.4" transform="translate(-76.279 -115.667)"/>
            <path id="Trazado_596540" data-name="Trazado 596540" d="M141.344,158.895a169.484,169.484,0,0,0-3.753-20.878q-1.251-5.072-2.813-10.061a83.68,83.68,0,0,0-3.386-9.692c-1.169-2.576-3.211-4.868-6.224-4.963a4.213,4.213,0,0,0-4.41,4.944c.447,3,3.073,4.727,5.833,5.4a27.585,27.585,0,0,0,4.867.635,22.114,22.114,0,0,0,5.166-.253,11.806,11.806,0,0,0,7.45-4.324c1.576-2.086,2.393-5.178.989-7.571a4.117,4.117,0,0,0-6.636-.4c-2.016,2.25-1.466,5.767.124,8.085,2.884,4.2,8.687,5.369,13.467,4.95,2.841-.25,6.053-1.1,7.1-4.089a3.894,3.894,0,0,0-.556-3.759,3.814,3.814,0,0,0-3.228-1.275c-2.93.21-4.666,2.576-5.307,5.254a36.118,36.118,0,0,0-.643,4.893q-.268,2.752-.537,5.5-1.112,11.382-2.224,22.764-.267,2.751-.537,5.5c-.094.97,1.421.963,1.515,0q.966-9.881,1.93-19.762.483-4.94.965-9.88.239-2.439.477-4.878a24.132,24.132,0,0,1,.614-4.127c.57-2.055,2.2-4.2,4.613-3.713a2.02,2.02,0,0,1,1.652,2.11,3.547,3.547,0,0,1-1.76,2.826c-2.018,1.248-4.815,1.3-7.119,1.149a14.7,14.7,0,0,1-6.286-1.736,7.808,7.808,0,0,1-3.883-4.8,4.552,4.552,0,0,1,.583-3.813,3.056,3.056,0,0,1,2.8-1.175c2.515.421,2.313,3.92,1.524,5.641A9.134,9.134,0,0,1,138.393,122a20.28,20.28,0,0,1-8.972.586c-2.408-.269-5.379-.812-6.673-3.124a3.632,3.632,0,0,1-.315-3.148,2.688,2.688,0,0,1,2.483-1.5c2.619-.058,4.241,2.136,5.208,4.3a79.883,79.883,0,0,1,2.911,8.344q1.408,4.436,2.584,8.94a165.2,165.2,0,0,1,3.6,17.86q.336,2.312.605,4.631c.112.957,1.628.968,1.515,0" transform="translate(-59.736 -54.557)"/>
            <path id="Trazado_596541" data-name="Trazado 596541" d="M140.283,254.126a141.159,141.159,0,0,0-5.38,20.295,59.242,59.242,0,0,0-.838,10.329,22.925,22.925,0,0,0,1.464,8.923,8.07,8.07,0,0,0,5.521,4.875,5.707,5.707,0,0,0,6.214-2.185,5.9,5.9,0,0,0-.672-6.6,6.984,6.984,0,0,0-7.028-2.2c-6.2,1.282-8.959,8.2-10.239,13.69a35.624,35.624,0,0,0-.9,9.881,47.142,47.142,0,0,0,.61,5.107,17.454,17.454,0,0,1,.253,5.205,18.25,18.25,0,0,1-3.715,8.386c-1.557,1.995-4.053,3.966-6.723,3.051a4.259,4.259,0,0,1-2.526-2.213,2.573,2.573,0,0,1,.9-3.071c2.491-1.895,5.414.014,7.25,1.844a24.033,24.033,0,0,1,4.63,5.812,42.017,42.017,0,0,1,2.729,8.138,52.525,52.525,0,0,1,1.417,6.14,39.844,39.844,0,0,1,.362,5.53c.015,1.206.013,2.413.013,3.62a.758.758,0,0,0,1.515,0,53.881,53.881,0,0,0-.918-12.093c-.594-2.61-1.367-5.181-2.128-7.746A20.825,20.825,0,0,0,128.835,332a30.9,30.9,0,0,0-2.452-2.8,16.238,16.238,0,0,0-3.334-2.879c-2.3-1.338-5.474-1.479-7.372.657-1.774,2-1.107,4.758.873,6.322a6.159,6.159,0,0,0,7.241.225,15.489,15.489,0,0,0,5.329-6.635,16.419,16.419,0,0,0,1.623-9.431c-.223-1.729-.571-3.436-.718-5.175a34.6,34.6,0,0,1-.068-4.871,34,34,0,0,1,2.1-9.985c1-2.685,2.475-5.486,4.91-7.136,2.141-1.451,5.327-2.105,7.56-.465,1.709,1.255,2.626,3.96,1.383,5.83-1.324,1.993-4.24,1.843-6.112.8-2.429-1.347-3.426-4.23-3.859-6.815a40.475,40.475,0,0,1-.195-9.8c.556-6.989,2.4-13.809,4.466-20.485.5-1.616,1.013-3.227,1.53-4.836.3-.931-1.164-1.329-1.461-.4" transform="translate(-56.738 -125.505)"/>
            <path id="Trazado_596542" data-name="Trazado 596542" d="M21.715,255.391a47.944,47.944,0,0,1-5.973-2.514,23.63,23.63,0,0,1-4.978-3.572,30.538,30.538,0,0,1-6.581-9.671A27.369,27.369,0,0,1,1.5,229.011,26.269,26.269,0,0,1,3.341,218.8a36.383,36.383,0,0,1,13.3-16.263,38,38,0,0,1,23.406-6.971,34.55,34.55,0,0,1,19.137,7.246,32.178,32.178,0,0,1,11.454,16.539,30.162,30.162,0,0,1-14.126,33.6c-2.7,1.472-5.757,2.132-8.4,3.688a7.921,7.921,0,0,0-3.051,2.928,5.912,5.912,0,0,0-.665,2.16c-.093.816.225,1.964-.355,2.633a2.9,2.9,0,0,1-1.928.687c-1.1.1-2.21.154-3.314.212-2.381.125-4.773.23-7.158.208-1.806-.017-3.633-.412-4.3-2.3-.585-1.658-.5-3.515-1.55-5a8.484,8.484,0,0,0-4.071-2.77c-.909-.356-1.3,1.109-.4,1.461,1.656.648,3.268,1.561,3.788,3.378.5,1.752.505,3.651,1.767,5.094,1.306,1.495,3.409,1.671,5.264,1.655q3.71-.031,7.416-.247c1.7-.1,4.028.078,5.4-1.146,1.461-1.3.557-3.375,1.285-5,1.2-2.677,4.657-3.662,7.172-4.593a29.77,29.77,0,0,0,15.279-13.023,30.731,30.731,0,0,0-5.119-38.313,36.713,36.713,0,0,0-18.718-10.014,37.89,37.89,0,0,0-24.863,4.075,40.285,40.285,0,0,0-16.06,15.362,27.866,27.866,0,0,0-3.007,21.16,36.709,36.709,0,0,0,5.151,10.863,25.911,25.911,0,0,0,9.2,8.235,53.246,53.246,0,0,0,6.045,2.511c.912.348,1.306-1.117.4-1.461" transform="translate(0 -96.02)"/>
            <path id="Trazado_596543" data-name="Trazado 596543" d="M53.993,334.208a2.876,2.876,0,0,0-.266,4.222,3.625,3.625,0,0,0,2.421.95c1.07.1,2.145.172,3.218.226a56.17,56.17,0,0,0,6.343-.011c1.8-.113,4.023-.1,5.432-1.4,1.341-1.237,1.235-3.648-.694-4.223a.758.758,0,0,0-.4,1.461c.635.189.606.965.278,1.413a3.125,3.125,0,0,1-2.152,1.005,37.629,37.629,0,0,1-5.694.325c-1.909,0-3.818-.1-5.72-.259-.757-.062-1.668-.045-2.123-.766a1.391,1.391,0,0,1,.431-1.871c.76-.611-.318-1.677-1.071-1.071" transform="translate(-26.194 -165.263)"/>
            <path id="Trazado_596544" data-name="Trazado 596544" d="M54.6,341.757c-1.029,1.262-2.125,3.055-.922,4.584,1.048,1.331,3.071,1.352,4.609,1.406a38.456,38.456,0,0,0,6.374-.379c1.087-.143,2.171-.311,3.253-.491a14.856,14.856,0,0,0,2.765-.547,2.173,2.173,0,0,0,1.529-1.956,4.235,4.235,0,0,0-1.22-2.641c-.619-.755-1.685.323-1.071,1.071.386.471,1.2,1.487.488,1.992a6.389,6.389,0,0,1-2.407.537c-2,.339-4.007.651-6.032.807a22.435,22.435,0,0,1-5.645-.069c-.584-.107-1.393-.3-1.612-.94-.276-.8.5-1.73.962-2.3.611-.75-.455-1.828-1.071-1.071" transform="translate(-26.304 -168.995)"/>
            <path id="Trazado_596545" data-name="Trazado 596545" d="M59.817,352.25l.878,3.166L61.135,357a3.863,3.863,0,0,0,.457,1.268c.545.748,1.772.64,2.594.688a28.29,28.29,0,0,0,3.213,0,30.023,30.023,0,0,0,3.167-.352c1.04-.17,1.907-.236,2.156-1.4a34.129,34.129,0,0,0,.714-6.369.758.758,0,0,0-1.515,0,33.285,33.285,0,0,1-.528,5.288c-.04.217-.114.459-.132.678l-.047.226q.211-.2-.147-.049a9.11,9.11,0,0,0-1.244.216,26.227,26.227,0,0,1-2.653.256q-1.261.061-2.525.008-.688-.029-1.374-.091a1.8,1.8,0,0,1-.562-.072c.194.1.071-.039.013-.252-.476-1.735-.962-3.467-1.443-5.2a.758.758,0,0,0-1.461.4" transform="translate(-29.588 -173.267)"/>
            <path id="Trazado_596546" data-name="Trazado 596546" d="M60.03,301.092q-3.778-12.832-6.489-25.945-.768-3.725-1.448-7.467l-1.113.856a48.045,48.045,0,0,1,5.7,4.583.767.767,0,0,0,1.19-.154,21.914,21.914,0,0,0,2.4-6.153l-1.385.181,2.074,3.041.968,1.419a3.267,3.267,0,0,0,.879,1.036c.98.591,1.718-.414,2.315-1.055l2.555-2.744-1.294-.536c.886,8.716-2.264,17.12-3.03,25.718a33.742,33.742,0,0,0,.091,7.372A.784.784,0,0,0,64.2,302a.761.761,0,0,0,.758-.758c-1.135-8.693,1.967-17.137,2.865-25.7a35.934,35.934,0,0,0,.073-7.391.768.768,0,0,0-1.294-.535l-1.873,2.012-1.022,1.1-.17.183q-.328.178-.055.234.22.127.028-.053l-.207-.3L60.2,266.228a.768.768,0,0,0-1.385.181,20.527,20.527,0,0,1-2.245,5.791l1.19-.153a50.632,50.632,0,0,0-6.009-4.82c-.6-.408-1.221.264-1.113.856q2.395,13.159,5.871,26.089.989,3.674,2.065,7.323a.758.758,0,0,0,1.461-.4" transform="translate(-25.052 -131.579)"/>
            <path id="Trazado_596547" data-name="Trazado 596547" d="M108.2,220.951a20.439,20.439,0,0,1,10.565,14.876c.146.961,1.606.553,1.461-.4a21.853,21.853,0,0,0-11.261-15.782c-.861-.457-1.627.851-.765,1.308" transform="translate(-53.358 -108.653)"/>
            <path id="Trazado_596548" data-name="Trazado 596548" d="M71.389,365.346c-1.6,12.56,1.238,25.055,1.73,37.586a71.824,71.824,0,0,1-.311,10.7c-.107.968,1.409.96,1.515,0,1.386-12.577-1.5-25.05-1.871-37.6a68.43,68.43,0,0,1,.451-10.687c.123-.965-1.394-.956-1.515,0" transform="translate(-35.091 -180.452)"/>
            <path id="Trazado_596549" data-name="Trazado 596549" d="M257.214,179.723c-2.849-.036-5.708.087-8.553-.088-2.132-.131-4.635-.278-6.487-1.464a5.014,5.014,0,0,1-1.967-2.094,5.469,5.469,0,0,1-.16-2.563c.221-2.672.2-5.371.277-8.051.07-2.592.35-5.313-.958-7.669a15.05,15.05,0,0,0-4.593-4.575,53.078,53.078,0,0,1-5.326-4.229,38.617,38.617,0,0,1-4.569-5.135,39.894,39.894,0,0,1-7.811-25.983A41.819,41.819,0,0,1,228.291,92a44.034,44.034,0,0,1,24.991-13.026c9.681-1.55,20.089.1,27.779,6.485,6.658,5.532,10.912,13.577,12.74,21.961a46.5,46.5,0,0,1-3.19,29.165,40.009,40.009,0,0,1-19.262,19.43c-1.038.478-2.1.9-3.179,1.272a16.877,16.877,0,0,0-2.875,1.18,4.779,4.779,0,0,0-2.054,2.1,7.341,7.341,0,0,0-.266,3.838q.445,4.411.7,8.839c.108,1.9.531,4.99-1.536,6.031-1.471.741-3.336.462-4.921.438a.758.758,0,0,0,0,1.515c1.829.027,3.778.231,5.492-.553,2.188-1,2.6-3.516,2.56-5.686-.049-2.906-.333-5.827-.6-8.72a19.451,19.451,0,0,1-.285-4.252,3.173,3.173,0,0,1,1.9-2.371,26.121,26.121,0,0,1,3.114-1.2q1.651-.614,3.242-1.377a38.372,38.372,0,0,0,6.108-3.671,42,42,0,0,0,9.755-10.077,47.04,47.04,0,0,0,7.664-30.167,43.608,43.608,0,0,0-9.8-24.55,32.66,32.66,0,0,0-10.233-8.17,35.722,35.722,0,0,0-15.761-3.514,45.947,45.947,0,0,0-27.695,9.134A43.446,43.446,0,0,0,216.7,110.313a41.243,41.243,0,0,0,11.533,39.613,51.825,51.825,0,0,0,5.543,4.433c1.784,1.285,3.731,2.739,4.6,4.839a9.722,9.722,0,0,1,.5,3.959c-.031,1.466-.079,2.932-.119,4.4s-.071,2.954-.12,4.43c-.033,1-.206,2.007-.162,3.01a5.857,5.857,0,0,0,3.339,4.72c2.036,1.106,4.586,1.3,6.853,1.436,2.845.175,5.7.052,8.553.088a.758.758,0,0,0,0-1.515" transform="translate(-106.656 -38.073)"/>
            <path id="Trazado_596550" data-name="Trazado 596550" d="M263.032,244.309a57.483,57.483,0,0,1,22.957,1.021.758.758,0,0,0,.4-1.461,59.394,59.394,0,0,0-23.763-1.021c-.96.153-.553,1.613.4,1.461" transform="translate(-129.702 -119.816)"/>
            <path id="Trazado_596551" data-name="Trazado 596551" d="M262.832,255.3a235.013,235.013,0,0,0,24.292,1.135.758.758,0,0,0,0-1.515,235.013,235.013,0,0,1-24.292-1.135c-.97-.1-.963,1.42,0,1.515" transform="translate(-129.715 -125.595)"/>
            <path id="Trazado_596552" data-name="Trazado 596552" d="M264.072,266.624a225.419,225.419,0,0,0,24.036.545c.973-.03.977-1.545,0-1.515a225.419,225.419,0,0,1-24.036-.545c-.973-.074-.968,1.442,0,1.515" transform="translate(-130.328 -131.199)"/>
            <path id="Trazado_596553" data-name="Trazado 596553" d="M273.707,281.5c.849,2.389.337,6.019,3.542,6.684a12.247,12.247,0,0,0,2.254.177c.949.019,1.894.09,2.843.11,1.441.03,3.148.158,4.25-.962,1.374-1.4,1.465-3.691,1.74-5.513.143-.954-1.317-1.365-1.461-.4s-.24,1.925-.47,2.867a3.316,3.316,0,0,1-1.228,2.24,4.4,4.4,0,0,1-2.1.266c-1.082-.008-2.16-.077-3.241-.113-1.408-.047-3.061.156-3.693-1.392-.567-1.39-.476-2.955-.976-4.365-.324-.912-1.789-.519-1.461.4" transform="translate(-135.433 -138.855)"/>
            <path id="Trazado_596554" data-name="Trazado 596554" d="M278.624,199.086c2.927-7.889,5.42-15.93,8.3-23.836a94.022,94.022,0,0,0,4-12.375c.616-2.886,1.562-7.747-2.031-9.142a4.919,4.919,0,0,0-5,1.288c-1.537,1.5-2.092,3.7-2.569,5.714l1.385-.181c-1.665-2.426-2.994-6.051-6.582-5.739a3,3,0,0,0-2.881,2.532c-.264,1.849.565,3.946,1.229,5.636.729,1.854,1.578,3.66,2.338,5.5q1.174,2.843,2.216,5.739,2.065,5.732,3.608,11.634a136.046,136.046,0,0,1,2.809,13.542c.149.961,1.609.553,1.461-.4a135.863,135.863,0,0,0-5.259-21.821q-1.741-5.261-3.908-10.366c-.733-1.731-1.547-3.433-2.172-5.207a18.623,18.623,0,0,1-.7-2.447c-.151-.736-.37-1.742.208-2.355.822-.873,2.455-.484,3.289.16,1.4,1.081,2.054,2.939,3.028,4.359a.768.768,0,0,0,1.385-.181,10.836,10.836,0,0,1,1.937-4.79,3.415,3.415,0,0,1,3.818-1.123c1.323.648,1.5,2.344,1.457,3.645a25.584,25.584,0,0,1-.977,5.455c-.992,3.808-2.458,7.463-3.791,11.158-1.316,3.648-2.555,7.323-3.8,11-1.383,4.082-2.767,8.164-4.266,12.2-.339.916,1.124,1.311,1.461.4" transform="translate(-135.203 -75.956)"/>
            <path id="Trazado_596555" data-name="Trazado 596555" d="M283.176,294.852a79.3,79.3,0,0,0-1.441,36.644c.6,3.059,1.45,6.058,2.214,9.079a80.719,80.719,0,0,1,1.728,9.112,57.441,57.441,0,0,1,.4,13.178c-.518,5.349-1.578,10.643-2.285,15.969-.055.409.387.754.758.758a.777.777,0,0,0,.758-.758c.641-4.843,1.543-9.652,2.124-14.5a54.608,54.608,0,0,0,.028-12.406,85.214,85.214,0,0,0-1.334-8.707c-.656-3.064-1.548-6.07-2.276-9.117a77.433,77.433,0,0,1,.783-38.847.758.758,0,0,0-1.461-.4" transform="translate(-138.693 -145.657)"/>
          </g>
        </g>
      </g>
    </g>
  </g>
</svg>
