<svg xmlns="http://www.w3.org/2000/svg" width="77" height="64" viewBox="0 0 77 64">
  <g id="Grupo_156412" data-name="Grupo 156412" transform="translate(-705 -13539)">
    <g id="Grupo_155668" data-name="Grupo 155668" transform="translate(420 1323)">
      <circle id="Elipse_5535" data-name="Elipse 5535" cx="32" cy="32" r="32" transform="translate(298 12216)" fill="#4795e9"/>
      <rect id="Rectángulo_44947" data-name="Rectángulo 44947" width="45" height="64" transform="translate(285 12216)" fill="#4795e9"/>
    </g>
    <path id="Trazado_600407" data-name="Trazado 600407" d="M29.043,19.079a7.838,7.838,0,0,1-1.617,5.353,5.552,5.552,0,0,1-4.376,1.825,5.6,5.6,0,0,1-4.407-1.825,7.819,7.819,0,0,1-1.624-5.353V15.16a7.867,7.867,0,0,1,1.617-5.353A5.549,5.549,0,0,1,23.025,7.97a5.572,5.572,0,0,1,4.388,1.837,7.827,7.827,0,0,1,1.63,5.353Zm-3.552-4.285a5.849,5.849,0,0,0-.635-3.094,2.2,2.2,0,0,0-3.662-.006,5.939,5.939,0,0,0-.623,3.1V19.42a5.952,5.952,0,0,0,.629,3.125,2.06,2.06,0,0,0,1.849.977,2.024,2.024,0,0,0,1.819-.977,6,6,0,0,0,.623-3.125Zm5.42,9.07,3-.366V11.461h-3.04V9.423l6.592-1.2V23.5l3,.366V26H30.911Z" transform="translate(723 13555)" fill="#fff"/>
  </g>
</svg>
