<svg xmlns="http://www.w3.org/2000/svg" width="77" height="64" viewBox="0 0 77 64">
  <g id="Grupo_156415" data-name="Grupo 156415" transform="translate(6672 -2091)">
    <g id="Grupo_155671" data-name="Grupo 155671" transform="translate(-6957 -10692)">
      <circle id="Elipse_5538" data-name="Elipse 5538" cx="32" cy="32" r="32" transform="translate(298 12783)" fill="#00a6b7"/>
      <rect id="Rectángulo_44950" data-name="Rectángulo 44950" width="45" height="64" transform="translate(285 12783)" fill="#00a6b7"/>
    </g>
    <path id="Trazado_600409" data-name="Trazado 600409" d="M27.78,19.079a7.838,7.838,0,0,1-1.617,5.353,5.552,5.552,0,0,1-4.376,1.825,5.6,5.6,0,0,1-4.407-1.825,7.819,7.819,0,0,1-1.624-5.353V15.16a7.867,7.867,0,0,1,1.617-5.353A5.549,5.549,0,0,1,21.762,7.97,5.572,5.572,0,0,1,26.15,9.807a7.827,7.827,0,0,1,1.63,5.353Zm-3.552-4.285a5.849,5.849,0,0,0-.635-3.094,2.2,2.2,0,0,0-3.662-.006,5.939,5.939,0,0,0-.623,3.1V19.42a5.952,5.952,0,0,0,.629,3.125,2.06,2.06,0,0,0,1.849.977,2.024,2.024,0,0,0,1.819-.977,6,6,0,0,0,.623-3.125ZM33.5,15.6h2a2.432,2.432,0,0,0,1.88-.665A2.634,2.634,0,0,0,38,13.085a2.406,2.406,0,0,0-.61-1.721,2.317,2.317,0,0,0-1.77-.647,2.5,2.5,0,0,0-1.685.586,1.928,1.928,0,0,0-.684,1.538H29.794l-.024-.073a4.044,4.044,0,0,1,1.6-3.442,6.38,6.38,0,0,1,4.15-1.355,6.826,6.826,0,0,1,4.4,1.318,4.543,4.543,0,0,1,1.642,3.76,3.774,3.774,0,0,1-.732,2.2,4.87,4.87,0,0,1-2.014,1.63,4.532,4.532,0,0,1,2.252,1.611,4.238,4.238,0,0,1,.775,2.527,4.618,4.618,0,0,1-1.776,3.839,7.131,7.131,0,0,1-4.547,1.4,6.96,6.96,0,0,1-4.254-1.312,4.192,4.192,0,0,1-1.715-3.7l.024-.073h3.455a2.184,2.184,0,0,0,.732,1.691,2.654,2.654,0,0,0,1.855.665,2.7,2.7,0,0,0,1.947-.684,2.448,2.448,0,0,0,.714-1.855,2.688,2.688,0,0,0-.7-2.057,2.936,2.936,0,0,0-2.069-.653h-2Z" transform="translate(-6654 2105)" fill="#fff"/>
  </g>
</svg>
