<svg xmlns="http://www.w3.org/2000/svg" width="77" height="64" viewBox="0 0 77 64">
  <g id="Grupo_156414" data-name="Grupo 156414" transform="translate(6672 -1950)">
    <g id="Grupo_156413" data-name="Grupo 156413">
      <g id="Grupo_155669" data-name="Grupo 155669" transform="translate(-7472 -10266)">
        <circle id="Elipse_5536" data-name="Elipse 5536" cx="32" cy="32" r="32" transform="translate(813 12216)" fill="#ff2195"/>
        <rect id="Rectángulo_44948" data-name="Rectángulo 44948" width="45" height="64" transform="translate(800 12216)" fill="#ff2195"/>
      </g>
    </g>
    <path id="Trazado_600408" data-name="Trazado 600408" d="M27.658,19.079a7.838,7.838,0,0,1-1.617,5.353,5.552,5.552,0,0,1-4.376,1.825,5.6,5.6,0,0,1-4.407-1.825,7.819,7.819,0,0,1-1.624-5.353V15.16a7.867,7.867,0,0,1,1.617-5.353A5.549,5.549,0,0,1,21.64,7.97a5.572,5.572,0,0,1,4.388,1.837,7.827,7.827,0,0,1,1.63,5.353Zm-3.552-4.285a5.849,5.849,0,0,0-.635-3.094,2.2,2.2,0,0,0-3.662-.006,5.939,5.939,0,0,0-.623,3.1V19.42a5.952,5.952,0,0,0,.629,3.125,2.06,2.06,0,0,0,1.849.977,2.024,2.024,0,0,0,1.819-.977,6,6,0,0,0,.623-3.125ZM29.623,26V23.668l5.75-6.165a13.913,13.913,0,0,0,1.77-2.411,3.91,3.91,0,0,0,.525-1.825,2.746,2.746,0,0,0-.6-1.837,2.123,2.123,0,0,0-1.715-.714,2.216,2.216,0,0,0-1.874.836,3.569,3.569,0,0,0-.641,2.228H29.367l-.024-.073a5.373,5.373,0,0,1,1.581-4.071A5.931,5.931,0,0,1,35.348,7.97,6.194,6.194,0,0,1,39.669,9.4a4.891,4.891,0,0,1,1.575,3.809,5.374,5.374,0,0,1-.885,2.979,28.059,28.059,0,0,1-2.936,3.564L34.262,23.2l.024.061H38.9l.146-1.758h2.71V26Z" transform="translate(-6654 1964)" fill="#fff"/>
  </g>
</svg>
