<svg xmlns="http://www.w3.org/2000/svg" xmlns:xlink="http://www.w3.org/1999/xlink" width="295" height="136.305" viewBox="0 0 295 136.305">
  <defs>
    <clipPath id="clip-path">
      <rect id="Rectángulo_45183" data-name="Rectángulo 45183" width="64.208" height="125.305" fill="none"/>
    </clipPath>
  </defs>
  <g id="Grupo_156413" data-name="Grupo 156413" transform="translate(-285 -13526.695)">
    <g id="Grupo_156412" data-name="Grupo 156412">
      <g id="Grupo_156388" data-name="Grupo 156388">
        <ellipse id="Elipse_5614" data-name="Elipse 5614" cx="147.5" cy="16" rx="147.5" ry="16" transform="translate(285 13631)" fill="#c4dfe5"/>
        <g id="Grupo_156384" data-name="Grupo 156384" transform="translate(300 13526.695)">
          <g id="Grupo_156065" data-name="Grupo 156065" transform="translate(0 0)" clip-path="url(#clip-path)">
            <path id="Trazado_598792" data-name="Trazado 598792" d="M1.911,14.311V8.1S2.214.441,9.564.441H57.235s6.671-1.136,6.518,13.87-.606,102.768-.606,102.768.3,6.366-7.125,7.277-43.2,0-43.2,0-9.853.909-10.913-6.973,0-70.18,0-70.18L.294,46.092v-8.64l1.262-1.263V33.915H.294V25.477H1.658V17.949" transform="translate(0.02 0.029)" fill="#fff"/>
            <path id="Trazado_598793" data-name="Trazado 598793" d="M50.335,96.479h2.551V93.214H50.335V84.337H11.257v8.876H8.808V96.58h2.449l.084,8.695,38.993-.327Z" transform="translate(0.612 5.858)" fill="#fff"/>
            <path id="Trazado_598794" data-name="Trazado 598794" d="M50.161,85.035c-.066.74-.13,5.016-.171,8.165a1.4,1.4,0,0,1,.349-.046,1.363,1.363,0,0,1,.289.03c0-1.371,0-2.742-.017-4.112-.013-1.246.164-4.563.138-4.638a.7.7,0,0,0-.3-.14c-.075,0-18.287,0-21.621,0q-5.342,0-10.686.007c-.985,0-3.2,0-4.182.011a23.27,23.27,0,0,0-2.852.077c-.068.009-.06,3.685-.074,5.088-.013,1.257-.016,2.512-.019,3.769a1.531,1.531,0,0,1,.157-.01,1.418,1.418,0,0,1,.394.058c0-1.3-.005-2.592-.018-3.889-.007-.738-.009-1.475-.024-2.212a10.245,10.245,0,0,1,.147-2.462c.878,0,4.569.011,5.448.013q2.642,0,5.283.009H43.289c1.775,0,4.777,0,6.533-.074a.327.327,0,0,1,.339.354" transform="translate(0.765 5.855)" fill="#6f88aa"/>
            <path id="Trazado_598795" data-name="Trazado 598795" d="M48.106,95.716a1.41,1.41,0,0,1-.42.065,1.391,1.391,0,0,1-.26-.026c0,.459-.006.806-.006,1,0,1.405-.021,5.659.154,7.053.025.2.414,0,.43-.144.166-1.428.1-5.706.1-7.141,0-.268,0-.538,0-.806" transform="translate(3.293 6.648)" fill="#6f88aa"/>
            <path id="Trazado_598796" data-name="Trazado 598796" d="M50.754,104.168c-3.563-.114-8.111.045-11.586.045s-17.135,0-20.6.009c-1.954.006-5.182-.1-7.13.089.118-2.088.141-5.862.143-8.54a1.4,1.4,0,0,1-.356.048A1.439,1.439,0,0,1,11,95.8c-.042,2.755-.113,6.638-.064,8.863,0,.1,5.065-.014,6.718-.006,1.73.007,3.461.005,5.19.006,3.463,0,17.128.005,20.59.005,2,0,5.1,0,7.1-.093.123-.005.468-.4.225-.405" transform="translate(0.758 6.652)" fill="#6f88aa"/>
            <path id="Trazado_598797" data-name="Trazado 598797" d="M45.654,86.918c-1.912.795-3.721,1.8-5.538,2.729q-2.756,1.417-5.5,2.85-1.88.983-3.754,1.977c-3.077-1.542-6.155-3.082-9.206-4.659C19.667,88.786,17.7,87.66,15.6,86.8c-.057-.022-.241.05-.168.1A50.186,50.186,0,0,0,20.5,89.708q2.607,1.356,5.224,2.7,2.305,1.181,4.619,2.349-3.375,1.79-6.726,3.609-1.5.82-3,1.644c-1.054.579-2.17,1.126-3.151,1.791-.258.175-.047.321.214.2,1.879-.847,3.628-1.949,5.414-2.923q2.7-1.476,5.421-2.938,1.108-.6,2.221-1.189,2.75,1.386,5.512,2.755c2.027,1,6.834,3.281,8.91,4.209.075.034.292-.075.205-.121-3.742-1.985-10.3-5.22-14.1-7.126q4.121-2.2,8.272-4.354c2.079-1.08,4.258-2.088,6.234-3.3.138-.084.02-.155-.107-.1" transform="translate(1.07 6.029)" fill="#6f88aa"/>
            <path id="Trazado_598798" data-name="Trazado 598798" d="M12.853,92.544c-1.65-.127-3.9-.041-3.909-.081-.019-.123-.306.019-.32.108a18.868,18.868,0,0,0-.024,3.5,8.259,8.259,0,0,0,1.8.043,13.817,13.817,0,0,0,2.233-.026,20.623,20.623,0,0,0,0-3.214.054.054,0,0,0-.016-.032l.056,0c.112.007.4-.287.179-.3m-.553.447a11.786,11.786,0,0,0-.132,1.8c-.009.342-.032.7-.013,1.043-.566-.024-1.129-.028-1.7-.033A10.251,10.251,0,0,0,9,95.825c-.013-.661.029-2.235,0-2.883a.144.144,0,0,1,.149-.151c1.119.036,2.236-.018,3.354.048-.089.029-.188.1-.2.152" transform="translate(0.592 6.419)" fill="#6f88aa"/>
            <path id="Trazado_598799" data-name="Trazado 598799" d="M11.116,95.268a3.189,3.189,0,0,0-.677-.617c-.167-.13-.244-.29-.432-.391a4.76,4.76,0,0,0,.616-.477,2.935,2.935,0,0,0,.543-.511c.109-.148-.24-.083-.284-.058a4.177,4.177,0,0,0-.631.455,3.1,3.1,0,0,0-.579.538c-.057.02-.1.052-.076.1a1.764,1.764,0,0,0,.527.518,4.015,4.015,0,0,0,.812.527c.035.015.221-.016.181-.083" transform="translate(0.666 6.472)" fill="#6f88aa"/>
            <path id="Trazado_598800" data-name="Trazado 598800" d="M46.379,92.849l.056,0a.061.061,0,0,0-.016.032,20.624,20.624,0,0,0,0,3.214,13.782,13.782,0,0,0,2.233.027,8.311,8.311,0,0,0,1.8-.044,18.857,18.857,0,0,0-.024-3.5c-.014-.089-.3-.231-.32-.108-.006.041-2.259-.046-3.909.081-.221.017.066.312.179.3m.176-.01c1.118-.067,2.235-.012,3.354-.048a.142.142,0,0,1,.149.15c-.032.649.01,2.223,0,2.884a9.945,9.945,0,0,0-1.461-.024c-.567.005-1.13.01-1.7.033.02-.348,0-.7-.013-1.043a11.787,11.787,0,0,0-.132-1.8c-.009-.051-.109-.124-.2-.152" transform="translate(3.203 6.419)" fill="#6f88aa"/>
            <path id="Trazado_598801" data-name="Trazado 598801" d="M47.756,95.268a3.189,3.189,0,0,1,.677-.617c.167-.13.244-.29.432-.391a4.76,4.76,0,0,1-.616-.477,2.935,2.935,0,0,1-.543-.511c-.109-.148.24-.083.284-.058a4.177,4.177,0,0,1,.631.455,3.1,3.1,0,0,1,.579.538c.057.02.1.052.076.1a1.764,1.764,0,0,1-.527.518,4.015,4.015,0,0,1-.812.527c-.035.015-.221-.016-.181-.083" transform="translate(3.312 6.472)" fill="#6f88aa"/>
            <path id="Trazado_598802" data-name="Trazado 598802" d="M29.822,100.592a.278.278,0,0,0-.236-.057.419.419,0,0,0-.345.33.053.053,0,0,0,.018.047.214.214,0,0,0,.038.135c.122.168.386.063.5-.057a.284.284,0,0,0,.021-.4" transform="translate(2.031 6.982)" fill="#445666"/>
            <path id="Trazado_598803" data-name="Trazado 598803" d="M27.721,100.592a.276.276,0,0,0-.236-.057.418.418,0,0,0-.344.33.052.052,0,0,0,.017.047.222.222,0,0,0,.04.135c.122.168.386.063.5-.057a.283.283,0,0,0,.021-.4" transform="translate(1.885 6.982)" fill="#445666"/>
            <path id="Trazado_598804" data-name="Trazado 598804" d="M32.028,100.543a.536.536,0,0,0-.445.114.56.56,0,0,0-.118.122.3.3,0,0,0-.125.207c0,.11.116.183.21.206a.548.548,0,0,0,.432-.1.451.451,0,0,0,.191-.309.213.213,0,0,0-.145-.243" transform="translate(2.177 6.982)" fill="#445666"/>
            <rect id="Rectángulo_45178" data-name="Rectángulo 45178" width="41.169" height="31.53" transform="translate(11.998 12.32)" fill="#fff"/>
            <path id="Trazado_598805" data-name="Trazado 598805" d="M31.7,15.232c-.006,0-.02.013-.01.013s.021-.013.01-.013" transform="translate(2.201 1.058)" fill="#445666"/>
            <path id="Trazado_598806" data-name="Trazado 598806" d="M52.961,34.288q-.08-3.805-.1-7.611c-.016-2.469-.01-4.939,0-7.408,0-1.2.014-2.4.016-3.6,0-.868.1-4.1-.183-4.133a29.466,29.466,0,0,0-4.158-.086c-1.66-.005-5.127,0-6.786,0l-9.765.007c-6.122,0-13.5-.187-19.623.114a5,5,0,0,0-.98.016c-.005-.071-.01-.141-.016-.212-.027-.335-.722-.012-.739.249,0,.068-.007.138-.012.206-.053.06-.072.118-.009.145-.293,4.925-.315,19.8-.211,22.258.082,1.9.127,8.749.127,8.749a.148.148,0,0,0,.128.163.552.552,0,0,0,.034.048c.112.121,3.25.035,4.586.051,1.464.018,4.936.036,6.4.055q4.7.059,9.4.171c3.066.074,21.483.195,21.7-.038a8.141,8.141,0,0,0,.22-2.771c.063-.691.01-4.942-.02-6.374M11.411,12.1a4.947,4.947,0,0,0,.8-.029c2.762.121,6.742.08,9.505.09q4.872.016,9.744.022l9.755.007c2.669,0,7.162.229,9.836.088a.869.869,0,0,1,.919.88c-.026,1.508-.071,4.447-.1,6.036-.04,2.539-.043,5.079-.032,7.619q.016,3.709.083,7.416c.027,1.4,0,2.242.061,3.671-2.42-.213-34.51-.383-36.171-.41-1.419-.024-2.9-.139-4.325-.019-.053-1.218.249-20.669-.082-25.372M52.187,42.552c-.065.213.022.145-.2.184-.143.025-.461.025-.586.032l-.064,0c-2.833-.251-25.878-.18-28.945-.217-1.537-.019-5.13-.03-6.667-.033a30.15,30.15,0,0,0-4.406.142s.178-3.552.15-4.545c1.252.132,2.6.056,3.829.084,1.587.037,5.2.08,6.782.118,3.314.078,27.2.3,29.945.28a32.4,32.4,0,0,1,.164,3.953" transform="translate(0.718 0.78)" fill="#6f88aa"/>
            <path id="Trazado_598807" data-name="Trazado 598807" d="M13.33,38.391a5.232,5.232,0,0,0-.036-.55c-.035-.2-.134-.246-.2-.44-.043-.116-.287.032-.308.1a4.026,4.026,0,0,0-.2.576c-.028.188-.026.385-.037.575a1.82,1.82,0,0,0-.007.565c.046.149.147.3.21.444s.354-.039.385-.13a5.8,5.8,0,0,0,.21-.585,2.178,2.178,0,0,0-.007-.559" transform="translate(0.869 2.595)" fill="#6f88aa"/>
            <path id="Trazado_598808" data-name="Trazado 598808" d="M14.478,38.369a2.326,2.326,0,0,0-.063-.442c-.055-.191-.149-.339-.191-.539-.017-.078-.166.021-.174.072a10.883,10.883,0,0,0-.256,1.187,2.123,2.123,0,0,0,.049,1.107c.129.252.521-.059.587-.241a2.623,2.623,0,0,0,.048-1.144" transform="translate(0.955 2.595)" fill="#6f88aa"/>
            <path id="Trazado_598809" data-name="Trazado 598809" d="M46.868,38.435c-.746-.391-3.614-.221-4.443-.242-1.2-.03-8.287.009-10.629-.038q-2.835-.056-5.669-.117a2.718,2.718,0,0,0-.068-.475c-.079-.318-.816.087-.86.292-.012.055-.019.109-.027.164l-.2,0c-2.272-.048-6.747-.368-8.994.007-.09.015-.469.259-.231.328a33.881,33.881,0,0,0,4.949.24l3.594.1.832.025,0,.2c0,.332-.082.651.251.829.18.1.411-.042.525-.181a1.117,1.117,0,0,0,.251-.818q2.565.074,5.129.151c2.263.067,9.192.055,10.393.084a27.3,27.3,0,0,0,4.888-.1c.093-.026.548-.325.314-.447" transform="translate(1.088 2.601)" fill="#6f88aa"/>
            <path id="Trazado_598810" data-name="Trazado 598810" d="M48.332,39.351a4.925,4.925,0,0,1,.119-1.265c.009-.087-.371-.3-.517-.186-.21.17-.923.652-1.01.714a3.418,3.418,0,0,0-.112-.462c-.086-.268-.718.08-.715.3a9.826,9.826,0,0,0-.038,1.376c.037.135.49.071.563.04.135-.056.2-.441.2-.6.3.165.544.322.842.483.216.118.763-.112.674-.405" transform="translate(3.198 2.63)" fill="#6f88aa"/>
            <path id="Trazado_598811" data-name="Trazado 598811" d="M32.049,22.707C31.281,22.2,29.44,21.054,29.42,21c-.052-.142-.286-.012-.383.1a32.263,32.263,0,0,0-.062,3.666c-.034.367.349.375.65.2a15.451,15.451,0,0,0,2.345-1.844c.1-.087.232-.309.078-.412" transform="translate(2.01 1.454)" fill="#6f88aa"/>
            <path id="Trazado_598812" data-name="Trazado 598812" d="M35.961,21.536c-.431-2.622-2.677-3.5-4.983-3.216a6.2,6.2,0,0,0-4.033,1.361,4.469,4.469,0,0,0-1.04,6.54A5.575,5.575,0,0,0,32.5,28.074a6.524,6.524,0,0,0,3.462-6.538m-2.05,4.593a3.931,3.931,0,0,1-4.116,1.577c-2.5-.5-4.636-3-3.879-5.631A5.018,5.018,0,0,1,29,19.068c.022.036.081.051.2.013a5.609,5.609,0,0,1,1.753-.273,2.852,2.852,0,0,1,1.816.945c.045.049.224-.047.186-.112a2.91,2.91,0,0,0-.478-.621,3.539,3.539,0,0,1,2.782,3.493,6.493,6.493,0,0,1-1.345,3.617" transform="translate(1.73 1.269)" fill="#6f88aa"/>
            <path id="Trazado_598813" data-name="Trazado 598813" d="M5.115,15.542C4.684,12.174,3.553,4.3,7.909,3.319a65.639,65.639,0,0,1,6.707-.957,4.107,4.107,0,0,1,2.543.459,1.365,1.365,0,0,1,.437.81c.369,2.982,1.118,3.845,4.171,3.679,6.1-.126,17.457-.306,23.664-.4A4.273,4.273,0,0,0,47.5,5.376c.155-.26.185-.482.379-.9A3.075,3.075,0,0,1,49.66,3.311a11.5,11.5,0,0,1,5.935.1c1.3.2,2.863.772,3.389,2.131,1.04,2.171.637,5.529.737,7.847l.016,7.8L59.805,52.4c.009,20.595.169,42.189.068,62.294.889,4.074-3.108,6.292-6.624,6.218-10.991.28-27.671-.014-38.684-.042l-4.874-.057c-3.664-.511-5.344-4.39-5.347-7.681l0-4.859c.015-23.77.175-63.139.354-86.976.168,19.266.322,58.066.35,77.331l.022,9.667.022,4.806c.022,2.978,1.463,6.474,4.69,6.927,3,.021,11.333.06,14.455.067l19.327-.01c3.217-.025,6.447-.035,9.643-.152,3.044-.012,6.45-1.619,5.665-5.115-.033-30.031.1-63.4.151-93.612l.017-7.8c-.178-3.421,1.035-8.922-3.576-9.376-2.195-.5-5.37-.986-7.065.749A4.1,4.1,0,0,1,45.439,7.5c-4.495.046-15.949.156-20.291.171l-3.382.021c-1.674.138-3.858-.287-4.163-2.327-.246-.772-.077-1.719-.626-2.322a3.977,3.977,0,0,0-2.354-.426,65.6,65.6,0,0,0-6.687.872C3.7,4.355,4.742,12.33,5.115,15.542" transform="translate(0.302 0.163)" fill="#445666"/>
            <path id="Trazado_598814" data-name="Trazado 598814" d="M1.877,14.34l-.045-4.122c-.185-2.723.31-5.747,2.282-7.788C6.063.219,9.229.13,11.93.2l4.12-.027C21.4.127,51.262.024,57.255,0a4.9,4.9,0,0,1,2.832.788c5.2,4.175,3.921,12.5,4.1,18.375-.263,21.119-.6,44.311-.635,65.306l-.048,21.767L63.5,117.126c.128,3.967-3.244,7.22-7.072,7.582-14.5,1.114-29.067.351-43.593.219-3.311.184-7.73-.586-9.994-3.669-2.188-3.157-1.541-7.03-1.8-10.591-.258-14.107-.07-28.2.165-42.3l.406-21.14.14.272L.136,46.379,0,46.284V46.12l.048-8.639V37.37l.078-.077L1.4,36.037l-.075.181.013-2.274.243.243L.313,34.176l-.234,0,0-.229.087-8.438,0-.147.142,0,1.365.014-.132.13.078-7.528h.107l.077,7.528v.129H1.678l-1.365.014.145-.144.087,8.438-.232-.232c.19-.013,1.352,0,1.506-.014v.246l.012,2.274c.007.122,0,.107-.075.181L.5,37.668l.078-.187L.627,46.12l-.136-.258,1.623,1.1.141.1v.176L2.08,68.377c.022,12.384-.228,30.045.072,42.264.247,3.295-.335,7.151,1.6,9.945,2.029,2.7,5.883,3.423,9.106,3.257,14.462.2,29.012,1.018,43.451.1a6.97,6.97,0,0,0,6.53-6.809l.114-10.886.21-21.773c.261-20.963.1-44.233.135-65.318-.2-5.65.984-13.594-3.733-17.58A3.583,3.583,0,0,0,57.255.938L24.291.82,16.049.767c-2.363.057-5.9-.216-8.182.119C4.391,1.408,2.276,4.85,2.051,8.162c0,1.24-.064,4.875-.067,6.178H1.877" transform="translate(0 0)" fill="#445666"/>
            <rect id="Rectángulo_45179" data-name="Rectángulo 45179" width="10.485" height="9.202" transform="translate(11.622 68.73)" fill="#fff"/>
            <rect id="Rectángulo_45180" data-name="Rectángulo 45180" width="17.333" height="15.834" transform="translate(11.194 47.546)" fill="#fff"/>
            <rect id="Rectángulo_45181" data-name="Rectángulo 45181" width="10.699" height="9.202" transform="translate(26.173 68.73)" fill="#fff"/>
            <rect id="Rectángulo_45182" data-name="Rectángulo 45182" width="10.699" height="9.202" transform="translate(40.723 68.729)" fill="#fff"/>
            <path id="Trazado_598815" data-name="Trazado 598815" d="M28.45,56.562c-.006-1.482-.021-2.965-.033-4.448Q28.4,50,28.36,47.887c-.014-.77.009-1.553-.045-2.321a3.686,3.686,0,0,0-.326-1.191c.1-.17.045-.314-.308-.345-2.847-.249-5.82-.037-8.678-.01-1.428.014-5.141.042-6.568.082-1.348.037-1.348.037-1.687.359-.021-.056-.042-.111-.064-.165-.045-.1-.253.029-.276.094-.013.037-.02.076-.032.114-.035.014-.087.064-.028.072h.007a15.463,15.463,0,0,0-.31,3.924c-.03,1.469-.057,2.938-.066,4.407l-.029,4.185c0,.765-.029,1.534-.005,2.3a2.728,2.728,0,0,0,.321,1.679c.16.274,2.888.118,4.021.133,1.477.02,2.953.024,4.43.028,2.832.006,5.879.337,8.674-.161h0c.141.277.859-.136.909-.347a18.083,18.083,0,0,0,.148-4.161m-4.671,3.8-4.456.011c-2.747.006-8.239-.036-8.239-.036s.028-.689.055-1.136c.047-.763.01-1.534.005-2.3q-.016-2.187-.03-4.374c-.01-1.385-.034-2.769-.062-4.154a14.267,14.267,0,0,0-.244-3.737c.349.279.349.279,1.549.313,1.4.041,4.727.1,6.126.11,2.8.027,8.865-.133,8.865-.133a4.57,4.57,0,0,1,0,.754c-.09.765-.028,1.581-.041,2.35q-.04,2.239-.055,4.478c-.007,1.418-.018,2.836-.024,4.254a23.7,23.7,0,0,0,.026,3.675,22.665,22.665,0,0,0-3.471-.077" transform="translate(0.69 3.05)" fill="#6f88aa"/>
            <path id="Trazado_598816" data-name="Trazado 598816" d="M23.09,48.954a17.068,17.068,0,0,0,3.127-3.067c.1-.161-.127-.152-.221-.1a17.65,17.65,0,0,0-3.323,2.7q-1.744,1.561-3.432,3.184c-.048.046-.1.094-.143.14-1.154-1.041-2.323-2.066-3.524-3.053A17.594,17.594,0,0,0,11.68,45.9c-.046-.019-.207.055-.167.118a17.545,17.545,0,0,0,3.3,3.039c1.23,1.082,2.454,2.172,3.653,3.289.015.013.029.027.043.04q-1.3,1.269-2.567,2.57a23.54,23.54,0,0,0-3,3.345c-.251.386.4.3.568.156A69.9,69.9,0,0,0,19.042,52.9q1.431,1.344,2.831,2.723.841.831,1.665,1.678a6.285,6.285,0,0,0,1.852,1.593c.125.055.4-.106.36-.253a4.58,4.58,0,0,0-1.341-1.719q-.828-.844-1.669-1.675-1.527-1.5-3.111-2.946.135-.136.27-.27,1.579-1.556,3.191-3.075" transform="translate(0.799 3.178)" fill="#6f88aa"/>
            <path id="Trazado_598817" data-name="Trazado 598817" d="M50.295,44.664a25.59,25.59,0,0,0-4.407-.168q-2.855,0-5.712,0-2.759.006-5.518.029a31.8,31.8,0,0,0-5.71.273c-.064.013-.185.2,0,.249a20,20,0,0,0,4.939.273c1.9.019,3.792.026,5.688.03a82.586,82.586,0,0,0,10.72-.16c.147-.019.381-.472,0-.529" transform="translate(2.004 3.09)" fill="#6f88aa"/>
            <path id="Trazado_598818" data-name="Trazado 598818" d="M50.3,48.127a28.351,28.351,0,0,0-5.133-.154l-5.356.009c-3.443.006-7.447-.261-10.858.228-.086.012-.232.277,0,.318a31.231,31.231,0,0,0,4.983.2q2.666.022,5.33.028l5.129.01a42.652,42.652,0,0,0,5.906-.152c.128-.019.357-.417,0-.487" transform="translate(2.002 3.328)" fill="#6f88aa"/>
            <path id="Trazado_598819" data-name="Trazado 598819" d="M50.294,51.46a40.577,40.577,0,0,0-5.681-.1c-1.684,0-3.369,0-5.053.009s-3.378.012-5.068.033a33.08,33.08,0,0,0-5.545.266c-.055.011-.157.166,0,.212a21.5,21.5,0,0,0,5.02.267c1.675.021,3.348.024,5.023.032s3.36.007,5.039.01a57.989,57.989,0,0,0,6.265-.1c.168-.024.455-.545,0-.625" transform="translate(2.005 3.564)" fill="#6f88aa"/>
            <path id="Trazado_598820" data-name="Trazado 598820" d="M50.295,54.925a37.379,37.379,0,0,0-6.017-.109c-1.769,0-3.538,0-5.307.006-1.7.005-3.408.018-5.112.03a19.391,19.391,0,0,0-4.912.319.14.14,0,0,0,0,.267c1.259.568,3.137.3,4.495.308,1.69.011,3.381.025,5.07.029s3.391,0,5.086.006a56.817,56.817,0,0,0,6.7-.1c.195-.033.554-.633,0-.752" transform="translate(2.004 3.802)" fill="#6f88aa"/>
            <path id="Trazado_598821" data-name="Trazado 598821" d="M50.3,58.345c-.74-.3-.89-.137-1.677-.136q-1.264,0-2.528,0-2.743,0-5.487.017c-1.833.006-3.665.012-5.5.035a47.861,47.861,0,0,0-6.157.247c-.075.012-.211.241,0,.286a32.9,32.9,0,0,0,5.606.249c1.887.025,3.773.029,5.661.035q2.73.01,5.462.017a16.793,16.793,0,0,0,4.619-.159.312.312,0,0,0,0-.595" transform="translate(2.003 4.04)" fill="#6f88aa"/>
            <path id="Trazado_598822" data-name="Trazado 598822" d="M22.252,64.174c-1.773-.406-9.337-.3-11.052.224-.042.012-.185.125-.082.151,1.613.4,7.56.074,10.092.214a6.3,6.3,0,0,0-.08.766c-.114,1.049-.165,1.883-.187,2.937s-.036,2.082-.029,3.123a15.264,15.264,0,0,0,.034,1.677A21.875,21.875,0,0,0,16.031,73c-1.369.032-3.6.2-4.605.249a.36.36,0,0,1-.378-.4c.179-1.676.405-7.642-.181-8.209-.059-.057-.185.036-.212.09-.482.961-.27,7.2-.293,7.59-.029.5-.158,1.15.175,1.546.083.1.26-.018.306-.1v0a.1.1,0,0,0,.041.015c1.507.206,9.579.035,10.438.213a.619.619,0,0,0,.535-.344,22.351,22.351,0,0,0,.1-4.486c-.018-.822-.012-1.646-.035-2.467-.012-.405-.04-.6-.057-1-.009-.222-.093-.65-.1-.99l.127-.014c.141-.019.735-.428.361-.513" transform="translate(0.716 4.44)" fill="#6f88aa"/>
            <path id="Trazado_598823" data-name="Trazado 598823" d="M22.051,74.74a30.6,30.6,0,0,0-5.359-.167,34.791,34.791,0,0,0-6.318.228c0,.006,0,.012,0,.017a.213.213,0,0,0,0,.422c2.043.121,3.926.226,5.686.231a44.262,44.262,0,0,0,5.991-.166c.154-.02.411-.5,0-.566" transform="translate(0.707 5.177)" fill="#6f88aa"/>
            <path id="Trazado_598824" data-name="Trazado 598824" d="M22.04,77.36a29.484,29.484,0,0,0-6.36-.34c-1.089.013-2.184.012-3.27.089-.658.047-1.571-.055-2.047.487a.119.119,0,0,0,0,.134c.027.044-.026.088,0,.132.044.072,4.962-.034,5.991-.02a53.071,53.071,0,0,0,5.686-.073c.12-.011.29-.351,0-.407" transform="translate(0.718 5.348)" fill="#6f88aa"/>
            <path id="Trazado_598825" data-name="Trazado 598825" d="M22.054,79.579c-1.946-.44-2.875-.1-4.859-.093a64.431,64.431,0,0,0-6.819.086c-.435.051-.161.386,0,.491-.006,0,.007.01,0,.014a49.569,49.569,0,0,0,6.123.156A22.743,22.743,0,0,0,22.054,80c.1-.019.322-.351,0-.424" transform="translate(0.704 5.512)" fill="#6f88aa"/>
            <path id="Trazado_598826" data-name="Trazado 598826" d="M35.858,64.174c-1.774-.406-9.338-.3-11.052.224-.043.012-.185.125-.083.151,1.614.4,7.56.074,10.092.214a6.3,6.3,0,0,0-.08.766c-.114,1.049-.165,1.883-.187,2.937s-.036,2.082-.029,3.123a15.264,15.264,0,0,0,.034,1.677A21.875,21.875,0,0,0,29.636,73c-1.368.032-3.6.2-4.605.249a.359.359,0,0,1-.376-.4c.179-1.676.405-7.642-.181-8.209-.06-.057-.186.036-.212.09-.483.961-.271,7.2-.293,7.59-.03.5-.159,1.15.174,1.546.084.1.26-.018.307-.1v0a.1.1,0,0,0,.041.015c1.507.206,9.578.035,10.438.213a.622.622,0,0,0,.535-.344,22.51,22.51,0,0,0,.1-4.486c-.019-.822-.013-1.646-.036-2.467-.012-.405-.039-.6-.057-1-.009-.222-.093-.65-.1-.99l.127-.014c.141-.019.735-.428.363-.513" transform="translate(1.661 4.44)" fill="#6f88aa"/>
            <path id="Trazado_598827" data-name="Trazado 598827" d="M35.656,74.74a30.6,30.6,0,0,0-5.359-.167,34.791,34.791,0,0,0-6.318.228c0,.006,0,.012,0,.017a.213.213,0,0,0,0,.422c2.043.121,3.926.226,5.686.231a44.262,44.262,0,0,0,5.991-.166c.154-.02.411-.5,0-.566" transform="translate(1.652 5.177)" fill="#6f88aa"/>
            <path id="Trazado_598828" data-name="Trazado 598828" d="M35.645,77.36a29.484,29.484,0,0,0-6.36-.34c-1.089.013-2.184.012-3.27.089-.658.047-1.571-.055-2.047.487a.119.119,0,0,0,0,.134c.027.044-.026.088,0,.132.044.072,4.962-.034,5.991-.02a53.071,53.071,0,0,0,5.686-.073c.12-.011.29-.351,0-.407" transform="translate(1.663 5.348)" fill="#6f88aa"/>
            <path id="Trazado_598829" data-name="Trazado 598829" d="M35.659,79.579c-1.946-.44-2.875-.1-4.859-.093a64.431,64.431,0,0,0-6.819.086c-.435.051-.161.386,0,.491-.006,0,.007.01,0,.014a49.569,49.569,0,0,0,6.123.156A22.744,22.744,0,0,0,35.659,80c.1-.019.322-.351,0-.424" transform="translate(1.649 5.512)" fill="#6f88aa"/>
            <path id="Trazado_598830" data-name="Trazado 598830" d="M49.463,64.174c-1.773-.406-9.337-.3-11.052.224-.042.012-.185.125-.082.151,1.613.4,7.56.074,10.092.214a6.3,6.3,0,0,0-.08.766c-.114,1.049-.165,1.883-.187,2.937s-.036,2.082-.029,3.123a15.265,15.265,0,0,0,.034,1.677A21.875,21.875,0,0,0,43.242,73c-1.369.032-3.6.2-4.605.249a.36.36,0,0,1-.378-.4c.179-1.676.405-7.642-.181-8.209-.059-.057-.185.036-.212.09-.482.961-.27,7.2-.292,7.59-.03.5-.159,1.15.174,1.546.083.1.26-.018.306-.1v0a.1.1,0,0,0,.041.015c1.507.206,9.579.035,10.438.213a.619.619,0,0,0,.535-.344,22.35,22.35,0,0,0,.1-4.486c-.018-.822-.012-1.646-.035-2.467-.012-.405-.04-.6-.057-1-.009-.222-.093-.65-.1-.99l.127-.014c.141-.019.735-.428.361-.513" transform="translate(2.606 4.44)" fill="#6f88aa"/>
            <path id="Trazado_598831" data-name="Trazado 598831" d="M49.262,74.74a30.6,30.6,0,0,0-5.359-.167,34.791,34.791,0,0,0-6.318.228c0,.006,0,.012,0,.017a.213.213,0,0,0,0,.422c2.043.121,3.926.226,5.686.231a44.262,44.262,0,0,0,5.991-.166c.154-.02.411-.5,0-.566" transform="translate(2.597 5.177)" fill="#6f88aa"/>
            <path id="Trazado_598832" data-name="Trazado 598832" d="M49.251,77.36a29.484,29.484,0,0,0-6.36-.34c-1.089.013-2.184.012-3.27.089-.658.047-1.571-.055-2.047.487a.119.119,0,0,0,0,.134c.027.044-.026.088,0,.132.044.072,4.962-.034,5.991-.02a53.071,53.071,0,0,0,5.686-.073c.12-.011.29-.351,0-.407" transform="translate(2.608 5.348)" fill="#6f88aa"/>
            <path id="Trazado_598833" data-name="Trazado 598833" d="M49.265,79.579c-1.946-.44-2.875-.1-4.859-.093a64.431,64.431,0,0,0-6.819.086c-.435.051-.161.386,0,.491-.006,0,.007.01,0,.014a49.569,49.569,0,0,0,6.123.156A22.744,22.744,0,0,0,49.265,80c.1-.019.322-.351,0-.424" transform="translate(2.594 5.512)" fill="#6f88aa"/>
          </g>
        </g>
        <g id="Grupo_156387" data-name="Grupo 156387" transform="translate(42.002 13173.797)">
          <g id="Grupo_156385" data-name="Grupo 156385">
            <path id="Trazado_600352" data-name="Trazado 600352" d="M362.055,364.488s-.945-8.882,5.291-8.882H503.031s5.245.1,5.245,5.244v81.969l.4,12.331H362.433Z" fill="#fff"/>
            <path id="Trazado_600353" data-name="Trazado 600353" d="M361.955,364.494c-.4-3.669.763-9.123,5.362-9.035l3.907-.019c10.324.015,36.162-.369,46.882-.482,25.85-.331,52.248-.283,78.136-.017l3.907.036a25.449,25.449,0,0,1,4.012.185,5.619,5.619,0,0,1,4.632,6.235c-.228,20.833-.233,41.668-.15,62.5.014,8.95.136,22.384.629,31.232l.024.61-.619.005c-26.4.189-65.113.429-91.4.466-17.7-.089-37.239.037-54.842-.114l-.951-.008,0-.936c.084-28.406.539-62.254.469-90.659Zm.2-.011c.17,28.408.907,62.257,1.225,90.663l-.947-.944c12.187-.1,24.374-.055,36.561-.091,9.124-.055,27.442.006,36.561.035,18.213.02,54.911.268,73.122.409l-.6.614c-.638-20.483.09-42.057-.134-62.517-.036-10.418-.066-20.837-.19-31.255.219-3.528-2.33-5.413-5.667-5.18l-1.953.018c-27.2.3-54.868.362-82.036.019-10.793-.109-36.384-.494-46.878-.481l-3.906-.014c-4.432-.1-5.5,5.184-5.163,8.724Z" fill="#334554"/>
          </g>
          <path id="Trazado_600354" data-name="Trazado 600354" d="M366.213,361.843c38.4-.488,98.734-.676,137.575-.863l.861,0v.867l.134,85.606,0,1c-39.12-.125-98.75-.082-137.439-.372l-.631,0,0-.623c.129-20.347.392-61.3.627-81.638l.373,40.819.253,40.819-.626-.626,34.11-.171c21.666-.069,79.93-.168,102.33-.2l-1,1,.135-85.606.862.862c-39.015-.068-99.009-.488-137.574-.862Z" fill="#334554"/>
          <path id="Trazado_600355" data-name="Trazado 600355" d="M377.787,451.748q57.522-2.052,115.087,0-57.52,2.07-115.087,0Z" fill="#334554"/>
          <path id="Trazado_598815-2" data-name="Trazado 598815" d="M400.075,387.467c-.008-1.911-.027-3.823-.043-5.736q-.023-2.725-.073-5.451c-.019-.993.011-2-.059-2.993a4.711,4.711,0,0,0-.42-1.535c.129-.22.058-.405-.4-.445-3.671-.321-7.505-.048-11.191-.013-1.841.018-6.629.054-8.469.1-1.739.048-1.739.048-2.176.463-.027-.072-.054-.143-.082-.212-.058-.129-.327.037-.356.121-.017.048-.026.1-.041.147-.046.018-.113.082-.037.093h.009a19.944,19.944,0,0,0-.4,5.06c-.039,1.894-.074,3.789-.085,5.683l-.038,5.4c0,.986-.037,1.978-.006,2.965a3.513,3.513,0,0,0,.414,2.166c.206.353,3.724.152,5.185.171,1.9.026,3.808.031,5.713.036,3.651.008,7.581.435,11.185-.207h0c.182.357,1.108-.176,1.172-.448a23.332,23.332,0,0,0,.191-5.366m-6.023,4.9-5.747.014c-3.542.008-10.624-.047-10.624-.047s.036-.888.071-1.465c.06-.983.013-1.978.006-2.965q-.02-2.822-.038-5.641c-.013-1.786-.044-3.571-.08-5.357a18.42,18.42,0,0,0-.315-4.819c.45.36.45.36,2,.4,1.8.053,6.1.129,7.9.142,3.611.035,11.432-.172,11.432-.172a5.852,5.852,0,0,1,0,.973c-.116.986-.036,2.038-.053,3.03q-.051,2.887-.071,5.775c-.009,1.828-.023,3.657-.031,5.485a30.6,30.6,0,0,0,.034,4.739,29.344,29.344,0,0,0-4.476-.1" fill="#57769b"/>
          <path id="Trazado_598816-2" data-name="Trazado 598816" d="M393.3,377.821a21.985,21.985,0,0,0,4.033-3.955c.129-.207-.164-.2-.285-.129a22.785,22.785,0,0,0-4.286,3.482q-2.249,2.013-4.425,4.106c-.062.059-.129.121-.185.181-1.488-1.343-2.995-2.665-4.544-3.937a22.676,22.676,0,0,0-5.021-3.686c-.06-.024-.267.071-.216.152a22.617,22.617,0,0,0,4.256,3.919c1.586,1.395,3.164,2.8,4.71,4.241.02.017.038.035.056.052q-1.677,1.637-3.31,3.314a30.349,30.349,0,0,0-3.869,4.314c-.324.5.516.387.732.2a90,90,0,0,0,7.134-7.166q1.845,1.732,3.651,3.511,1.084,1.072,2.147,2.164a8.1,8.1,0,0,0,2.388,2.054c.161.071.516-.136.464-.326A5.9,5.9,0,0,0,395,388.1q-1.068-1.088-2.152-2.16-1.969-1.934-4.012-3.8c.116-.116.232-.233.348-.348q2.037-2.006,4.115-3.965" fill="#57769b"/>
          <path id="Trazado_598817-2" data-name="Trazado 598817" d="M429.939,372.176c-4.669-.088-9.313.517-13.988.561-4.446.27-8.938-.054-13.359.59a.813.813,0,0,0,.453-1.388.743.743,0,0,0-.456-.251,25.363,25.363,0,0,0,6.2.374c1.962.069,6.415.1,8.312.272,4.154.3,8.566.432,12.732.439.331.047.495-.548.1-.6a.3.3,0,0,1,.286.189c.075.244-.114.592-.374.589a93.585,93.585,0,0,1-15.562.955c.082-.011-5.822.089-5.443.074a26.41,26.41,0,0,1-6.666-.337,1.207,1.207,0,0,1-.593-.344,1.168,1.168,0,0,1,.641-1.927l.488-.064c4.395-.552,8.822-.157,13.237-.116,4.654.255,9.392.08,13.986.985Z" fill="#57769b"/>
          <path id="Trazado_598818-2" data-name="Trazado 598818" d="M429.943,376.948a36.6,36.6,0,0,0-6.619-.2l-6.907.011c-4.44.008-9.6-.336-14,.294-.111.016-.3.358,0,.41a40.11,40.11,0,0,0,6.426.258q3.438.029,6.873.036l6.614.013a54.857,54.857,0,0,0,7.616-.2c.165-.024.46-.537,0-.628" fill="#57769b"/>
          <path id="Trazado_598819-2" data-name="Trazado 598819" d="M429.939,381.551a52.385,52.385,0,0,0-7.326-.129c-2.171,0-4.344,0-6.516.011s-4.356.016-6.535.043a42.633,42.633,0,0,0-7.151.343c-.071.014-.2.214,0,.273a27.746,27.746,0,0,0,6.474.345c2.16.027,4.317.031,6.477.041s4.333.009,6.5.013a75.1,75.1,0,0,0,8.079-.129c.217-.031.587-.7,0-.806" fill="#57769b"/>
          <path id="Trazado_598820-2" data-name="Trazado 598820" d="M429.939,386.326a48.326,48.326,0,0,0-7.759-.141q-3.422,0-6.844.008c-2.192.006-4.395.023-6.592.039a24.964,24.964,0,0,0-6.334.411.181.181,0,0,0-.118.227.179.179,0,0,0,.118.117c1.623.733,4.045.387,5.8.4,2.18.014,4.36.032,6.538.037s4.373,0,6.559.008a73.252,73.252,0,0,0,8.64-.129c.251-.043.714-.817,0-.97" fill="#57769b"/>
          <path id="Trazado_598821-2" data-name="Trazado 598821" d="M429.944,391.043c-.954-.387-1.148-.177-2.162-.175h-3.26q-3.539,0-7.076.022c-2.364.007-4.726.015-7.093.045a61.728,61.728,0,0,0-7.939.318c-.1.016-.272.311,0,.369a42.4,42.4,0,0,0,7.229.321c2.433.032,4.865.037,7.3.045q3.521.014,7.043.022a21.622,21.622,0,0,0,5.957-.205.4.4,0,0,0,0-.767" fill="#57769b"/>
          <path id="Trazado_598815-3" data-name="Trazado 598815" d="M462.247,387.467c-.008-1.911-.027-3.823-.043-5.736q-.021-2.725-.073-5.451c-.018-.993.011-2-.058-2.993a4.738,4.738,0,0,0-.421-1.535c.129-.22.058-.405-.4-.445-3.671-.321-7.505-.048-11.19-.013-1.842.018-6.63.054-8.47.1-1.738.048-1.738.048-2.176.463-.027-.072-.054-.143-.082-.212-.058-.129-.326.037-.356.121-.017.048-.026.1-.041.147-.045.018-.112.082-.036.093h.009a19.9,19.9,0,0,0-.4,5.06c-.039,1.894-.074,3.789-.085,5.683l-.038,5.4c0,.986-.037,1.978-.006,2.965a3.513,3.513,0,0,0,.414,2.166c.206.353,3.724.152,5.185.171,1.9.026,3.808.031,5.713.036,3.652.008,7.581.435,11.185-.207h0c.182.357,1.108-.176,1.172-.448a23.332,23.332,0,0,0,.191-5.366m-6.023,4.9-5.746.014c-3.543.008-10.625-.047-10.625-.047s.036-.888.071-1.465c.061-.983.013-1.978.006-2.965q-.02-2.822-.038-5.641c-.013-1.786-.044-3.571-.08-5.357a18.42,18.42,0,0,0-.315-4.819c.45.36.45.36,2,.4,1.8.053,6.1.129,7.9.142,3.611.035,11.432-.172,11.432-.172a5.852,5.852,0,0,1,0,.973c-.116.986-.036,2.038-.053,3.03q-.051,2.887-.071,5.775c-.009,1.828-.023,3.657-.031,5.485a30.6,30.6,0,0,0,.034,4.739,29.341,29.341,0,0,0-4.476-.1" fill="#57769b"/>
          <path id="Trazado_598816-3" data-name="Trazado 598816" d="M455.475,377.821a21.985,21.985,0,0,0,4.033-3.955c.129-.207-.164-.2-.285-.129a22.747,22.747,0,0,0-4.285,3.482q-2.25,2.013-4.426,4.106c-.062.059-.129.121-.184.181-1.489-1.343-3-2.665-4.545-3.937a22.676,22.676,0,0,0-5.021-3.686c-.059-.024-.267.071-.216.152a22.647,22.647,0,0,0,4.256,3.919c1.586,1.395,3.164,2.8,4.711,4.241l.055.052q-1.677,1.637-3.31,3.314a30.351,30.351,0,0,0-3.869,4.314c-.323.5.516.387.733.2a90.154,90.154,0,0,0,7.133-7.166q1.846,1.732,3.651,3.511,1.084,1.072,2.147,2.164a8.118,8.118,0,0,0,2.388,2.054c.162.071.516-.136.465-.326a5.911,5.911,0,0,0-1.73-2.217q-1.068-1.088-2.152-2.16-1.969-1.934-4.012-3.8c.116-.116.232-.233.349-.348q2.035-2.006,4.114-3.965" fill="#57769b"/>
          <path id="Trazado_598817-3" data-name="Trazado 598817" d="M492.111,372.176c-4.668-.088-9.313.517-13.988.561-4.446.27-8.937-.054-13.359.59a.813.813,0,0,0,.454-1.388.744.744,0,0,0-.457-.251,25.363,25.363,0,0,0,6.2.374c1.962.069,6.415.1,8.312.272,4.154.3,8.566.432,12.732.439.331.047.495-.548.1-.6a.3.3,0,0,1,.287.189c.074.244-.115.592-.374.589a93.6,93.6,0,0,1-15.563.955c.082-.011-5.822.089-5.443.074a26.41,26.41,0,0,1-6.666-.337,1.207,1.207,0,0,1-.593-.344,1.169,1.169,0,0,1,.642-1.927l.488-.064c4.394-.552,8.821-.157,13.236-.116,4.655.255,9.392.08,13.986.985Z" fill="#57769b"/>
          <path id="Trazado_598818-3" data-name="Trazado 598818" d="M492.115,376.948a36.6,36.6,0,0,0-6.619-.2l-6.907.011c-4.44.008-9.6-.336-14,.294-.111.016-.3.358,0,.41a40.114,40.114,0,0,0,6.426.258q3.438.029,6.873.036l6.614.013a54.857,54.857,0,0,0,7.616-.2c.165-.024.461-.537,0-.628" fill="#57769b"/>
          <path id="Trazado_598819-3" data-name="Trazado 598819" d="M492.111,381.551a52.385,52.385,0,0,0-7.326-.129c-2.171,0-4.344,0-6.516.011s-4.356.016-6.535.043a42.633,42.633,0,0,0-7.151.343c-.071.014-.2.214,0,.273a27.746,27.746,0,0,0,6.474.345c2.16.027,4.317.031,6.477.041s4.333.009,6.5.013a75.091,75.091,0,0,0,8.079-.129c.217-.031.587-.7,0-.806" fill="#57769b"/>
          <path id="Trazado_598820-3" data-name="Trazado 598820" d="M492.111,386.326a48.326,48.326,0,0,0-7.759-.141q-3.421,0-6.844.008c-2.192.006-4.394.023-6.592.039a24.964,24.964,0,0,0-6.334.411.181.181,0,0,0-.118.227.179.179,0,0,0,.118.117c1.624.733,4.045.387,5.8.4,2.179.014,4.36.032,6.538.037s4.372,0,6.558.008a73.252,73.252,0,0,0,8.64-.129c.251-.043.714-.817,0-.97" fill="#57769b"/>
          <path id="Trazado_598821-3" data-name="Trazado 598821" d="M492.116,391.043c-.954-.387-1.147-.177-2.162-.175h-3.26q-3.537,0-7.076.022c-2.364.007-4.726.015-7.092.045a61.736,61.736,0,0,0-7.94.318c-.1.016-.272.311,0,.369a42.4,42.4,0,0,0,7.229.321c2.433.032,4.866.037,7.3.045q3.521.014,7.044.022a21.616,21.616,0,0,0,5.956-.205.4.4,0,0,0,0-.767" fill="#57769b"/>
          <path id="Trazado_598817-4" data-name="Trazado 598817" d="M491.831,399.7a97.888,97.888,0,0,0-9.815-.217H469.3q-6.144.008-12.289.037a121.9,121.9,0,0,0-12.717.352c-.143.017-.412.258,0,.321a76.508,76.508,0,0,0,11,.353c4.231.024,8.445.033,12.667.038,7.958.231,15.933.162,23.875-.206.328-.025.849-.609,0-.682" fill="#57769b"/>
          <path id="Trazado_598818-4" data-name="Trazado 598818" d="M491.838,404.467a108.655,108.655,0,0,0-11.432-.2l-11.928.011c-7.668.008-16.586-.336-24.183.294-.191.016-.516.357,0,.41,3.682.257,7.393.344,11.1.258q5.938.028,11.871.036l11.423.013c4.387.111,8.782.045,13.153-.2.285-.024.8-.538,0-.628" fill="#57769b"/>
          <path id="Trazado_598819-4" data-name="Trazado 598819" d="M491.831,409.07c-4.207-.215-8.435-.258-12.652-.129q-5.626,0-11.254.011c-3.75.012-7.523.016-11.287.043-4.126-.086-8.257.028-12.349.343-.123.014-.35.214,0,.273a82.152,82.152,0,0,0,11.18.344c3.73.028,7.456.031,11.187.042s7.483.009,11.222.013q6.978.153,13.953-.129c.374-.031,1.014-.7,0-.806" fill="#57769b"/>
          <path id="Trazado_598820-4" data-name="Trazado 598820" d="M491.831,413.845c-4.453-.256-8.934-.3-13.4-.141q-5.91,0-11.82.008c-3.786.006-7.59.023-11.385.039a73.95,73.95,0,0,0-10.939.411c-.165.03-.256.131-.2.226a.286.286,0,0,0,.2.118c2.8.733,6.986.387,10.011.4q5.645.022,11.291.038c3.762.005,7.552,0,11.327.008,4.974.127,9.957.083,14.922-.129.434-.043,1.234-.817,0-.97" fill="#57769b"/>
          <path id="Trazado_598821-4" data-name="Trazado 598821" d="M491.84,418.562a11.943,11.943,0,0,0-3.735-.176h-5.63q-6.109,0-12.22.022c-4.082.008-8.163.016-12.249.045-4.578-.064-9.158.042-13.713.319-.167.015-.47.311,0,.369,4.139.313,8.316.42,12.486.321,4.2.032,8.4.037,12.607.045q6.081.014,12.165.022a64.436,64.436,0,0,0,10.287-.2c.366-.067.569-.293.453-.505a.634.634,0,0,0-.453-.262" fill="#57769b"/>
          <path id="Trazado_598819-5" data-name="Trazado 598819" d="M491.831,424.343c-4.207-.214-8.435-.257-12.652-.129q-5.626,0-11.254.012c-3.75.011-7.523.015-11.287.042-4.126-.086-8.257.029-12.349.343-.123.015-.35.214,0,.274a82.315,82.315,0,0,0,11.18.344c3.73.027,7.456.031,11.187.041s7.483.009,11.222.013q6.978.154,13.953-.129c.374-.031,1.014-.7,0-.806" fill="#57769b"/>
          <path id="Trazado_598820-5" data-name="Trazado 598820" d="M491.831,429.118c-4.453-.255-8.934-.3-13.4-.14q-5.91,0-11.82.007c-3.786.007-7.59.024-11.385.039a74.221,74.221,0,0,0-10.939.411c-.165.031-.256.132-.2.227a.289.289,0,0,0,.2.118c2.8.732,6.986.387,10.011.4q5.645.021,11.291.037c3.762.006,7.552,0,11.327.008,4.974.127,9.957.084,14.922-.129.434-.042,1.234-.816,0-.97" fill="#57769b"/>
          <path id="Trazado_598821-5" data-name="Trazado 598821" d="M491.1,436.256a68.882,68.882,0,0,0-8.994-.175H468.551q-14.711,0-29.426.022-14.745.012-29.5.045c-11.023-.064-22.052.042-33.019.319-.4.015-1.131.31,0,.368,9.965.313,20.023.421,30.064.321q15.18.049,30.359.046,14.642.012,29.292.022c8.257.206,16.593.137,24.771-.2.881-.067,1.37-.293,1.092-.505a2.451,2.451,0,0,0-1.092-.263" fill="#57769b"/>
          <path id="Trazado_598794-2" data-name="Trazado 598794" d="M437.284,399.164c-.105,1.173-.206,7.948-.271,12.938a2.239,2.239,0,0,1,.553-.073,2.207,2.207,0,0,1,.458.048c0-2.173,0-4.345-.027-6.516-.021-1.974.26-7.23.218-7.349a1.106,1.106,0,0,0-.475-.222H403.481q-8.464,0-16.932.011c-1.561,0-5.071,0-6.627.018a36.849,36.849,0,0,0-4.519.122c-.107.014-.1,5.839-.117,8.062-.02,1.992-.025,3.98-.03,5.972a2.319,2.319,0,0,1,.249-.016,2.239,2.239,0,0,1,.624.092c0-2.06-.008-4.107-.028-6.162-.012-1.17-.015-2.337-.038-3.5a16.241,16.241,0,0,1,.232-3.9c1.392,0,7.24.017,8.633.02q4.186,0,8.371.015h33.1c2.812,0,7.569,0,10.352-.118a.518.518,0,0,1,.538.5.451.451,0,0,1,0,.064" fill="#57769b"/>
          <path id="Trazado_598796-2" data-name="Trazado 598796" d="M438.212,430.744c-5.645-.181-12.852.071-18.358.071s-27.151,0-32.641.014c-3.1.01-8.211-.158-11.3.141.187-3.308.224-9.288.227-13.531a2.241,2.241,0,0,1-.564.076,2.366,2.366,0,0,1-.357-.03c-.066,4.365-.179,10.518-.1,14.043,0,.159,8.025-.022,10.645-.009,2.741.011,5.484.008,8.223.009,5.487,0,27.14.008,32.626.008,3.169,0,8.081,0,11.25-.147.195-.008.741-.634.356-.642" fill="#57769b"/>
          <path id="Trazado_598797-2" data-name="Trazado 598797" d="M430.626,402.424c-3.03,1.259-5.9,2.852-8.776,4.324q-4.367,2.246-8.714,4.516-2.979,1.557-5.949,3.132c-4.875-2.443-9.752-4.883-14.587-7.382-3.151-1.63-6.268-3.415-9.6-4.777-.09-.035-.382.079-.266.158a79.517,79.517,0,0,0,8.031,4.45q4.129,2.148,8.277,4.278,3.652,1.871,7.319,3.722-5.348,2.836-10.658,5.718-2.376,1.3-4.753,2.605c-1.67.918-3.439,1.784-4.993,2.838-.409.277-.074.509.339.317,2.977-1.342,5.749-3.088,8.579-4.632q4.278-2.339,8.589-4.655,1.757-.951,3.52-1.884,4.357,2.2,8.734,4.366c3.211,1.584,10.828,5.2,14.118,6.669.119.054.462-.119.324-.192-5.929-3.145-16.32-8.271-22.341-11.291q6.529-3.486,13.107-6.9c3.294-1.712,6.747-3.309,9.878-5.229.218-.133.032-.246-.17-.159" fill="#57769b"/>
          <path id="Trazado_598802-2" data-name="Trazado 598802" d="M407.062,425.6a.439.439,0,0,0-.374-.091.663.663,0,0,0-.546.523.085.085,0,0,0,.028.075.342.342,0,0,0,.06.213c.194.267.612.1.793-.09a.451.451,0,0,0,.033-.634" fill="#334554"/>
          <path id="Trazado_598803-2" data-name="Trazado 598803" d="M403.5,425.6a.436.436,0,0,0-.374-.091.662.662,0,0,0-.545.523.082.082,0,0,0,.027.075.345.345,0,0,0,.063.213c.193.267.612.1.792-.09a.448.448,0,0,0,.034-.633h0" fill="#334554"/>
          <path id="Trazado_598804-2" data-name="Trazado 598804" d="M410.789,425.523a.926.926,0,0,0-.892.374.477.477,0,0,0-.2.328c0,.174.184.29.333.326a.867.867,0,0,0,.684-.158.717.717,0,0,0,.3-.49.338.338,0,0,0-.23-.385" fill="#334554"/>
          <g id="Grupo_156386" data-name="Grupo 156386">
            <path id="Trazado_600356" data-name="Trazado 600356" d="M360.543,454.252H376.76l-.354.543H495.118l-.9-.9h14.741s1.346-.414,3.4,1.358,19.772,15.484,19.772,15.484a3.222,3.222,0,0,1,.8,1.654,17.237,17.237,0,0,1-.567,2.787l-7.653,1.984H348.98a20.158,20.158,0,0,1-4.074-1.252c-.851-.567-1.613-.673-2-1.47a8.841,8.841,0,0,1-.408-2.693l17.457-16.6" fill="#fff"/>
            <path id="Trazado_600357" data-name="Trazado 600357" d="M360.543,454.152l16.217-.3.734-.014c-.144.265-.589.912-.743,1.183l-.345-.637,29.678-.338c27.647-.228,61.392-.12,89.034.307l-.313.757-.887-.908-.721-.738,1.024.006,14.74.085c2.006-.439,4.6,2.369,6.313,3.589l5.688,4.445c.017.024,11.408,8.863,11.426,8.885a3.473,3.473,0,0,1,.914,1.788,14,14,0,0,1-.6,3.244l-.227.061-7.635,2.056c-56.021.637-119.981.84-175.855.149a14.608,14.608,0,0,1-4.763-1.63c-.718-.343-1.777-.956-1.937-1.878a11.151,11.151,0,0,1-.282-2.725l.158-.146,17.728-16.315.138.145-17.186,16.885.153-.362c.094,1-.021,2.24.77,2.9.338.248,1.118.559,1.518.839a23.771,23.771,0,0,0,3.7,1.075c14.644-.2,29.289-.25,43.933-.373,38.926-.173,93.228.042,131.684.522l7.672-1.913-.283.278c.323-1.453,1.106-2.859-.126-4.089.244.213-11.35-8.952-11.3-8.907l-5.686-4.463a35.668,35.668,0,0,0-4.292-3.128,2.738,2.738,0,0,0-1.62-.246l-14.74.085.3-.731c.356.387,1.3,1.242,1.67,1.631l-1.075.012-29.678.338c-27.414.255-61.473-.012-89.034-.369l-.771-.008c.187-.309.6-.865.789-1.166l.336.62-16.217-.3v-.2Z" fill="#334554"/>
          </g>
          <path id="Trazado_600358" data-name="Trazado 600358" d="M412.441,464.362c16.076-.538,33.607-.914,49.677-.968h.581l.275.515c.546,1.027,3.622,6.774,4.105,7.683-.472,0-14.657-.024-15.555-.028-12.927-.085-28.855-.278-41.7-.721l-.373-.012c.987-2.2,2.022-4.372,2.995-6.469Zm0,0-2.4,6.331-.225-.339c8.014-.287,19.661-.484,27.8-.606,6.924-.079,20.879-.147,27.8-.14l-.875,1.454-3.287-6.246.855.515c-4.094,0-8.191-.064-12.294-.1-11.6-.137-25.772-.487-37.383-.865Z" fill="#334554"/>
          <path id="Trazado_600359" data-name="Trazado 600359" d="M495.071,456.283q3.451,3.216,6.86,6.477l-.624.017c-42.477,1.013-86,1.012-128.48-.028l-.441-.013c1.575-2.165,3.182-4.308,4.787-6.453-1.379,2.128-2.754,4.258-4.158,6.367l-.188-.359c31.508-.843,64.8-.887,96.36-.609,10.707.129,21.413.281,32.12.58l-.182.44q-3.051-3.186-6.054-6.419Z" fill="#334554"/>
        </g>
      </g>
    </g>
  </g>
</svg>
