<svg xmlns="http://www.w3.org/2000/svg" width="77" height="64" viewBox="0 0 77 64">
  <g id="Grupo_156416" data-name="Grupo 156416" transform="translate(6672 -2232)">
    <g id="Grupo_155670" data-name="Grupo 155670" transform="translate(-7472 -10551)">
      <circle id="Elipse_5537" data-name="Elipse 5537" cx="32" cy="32" r="32" transform="translate(813 12783)" fill="#6f88aa"/>
      <rect id="Rectángulo_44949" data-name="Rectángulo 44949" width="45" height="64" transform="translate(800 12783)" fill="#6f88aa"/>
    </g>
    <path id="Trazado_600410" data-name="Trazado 600410" d="M27.523,19.079a7.838,7.838,0,0,1-1.617,5.353,5.552,5.552,0,0,1-4.376,1.825,5.6,5.6,0,0,1-4.407-1.825A7.819,7.819,0,0,1,15.5,19.079V15.16a7.867,7.867,0,0,1,1.617-5.353A5.549,5.549,0,0,1,21.505,7.97a5.572,5.572,0,0,1,4.388,1.837,7.827,7.827,0,0,1,1.63,5.353Zm-3.552-4.285a5.849,5.849,0,0,0-.635-3.094,2.2,2.2,0,0,0-3.662-.006,5.939,5.939,0,0,0-.623,3.1V19.42a5.952,5.952,0,0,0,.629,3.125,2.06,2.06,0,0,0,1.849.977,2.024,2.024,0,0,0,1.819-.977,6,6,0,0,0,.623-3.125Zm16.04,4.59h2.014v2.368H40.011V23.5l1.892.366V26H34.555V23.864l1.9-.366V21.752H29.208l-.171-1.746,7.385-11.78h3.589Zm-7.642,0h4.089V12.975l-.073-.024-.293.513Z" transform="translate(-6654 2246)" fill="#fff"/>
  </g>
</svg>
