<svg xmlns="http://www.w3.org/2000/svg" xmlns:xlink="http://www.w3.org/1999/xlink" width="295" height="211" viewBox="0 0 295 211">
  <defs>
    <clipPath id="clip-path">
      <rect id="Rect치ngulo_44953" data-name="Rect치ngulo 44953" width="176.749" height="189.996" fill="none"/>
    </clipPath>
    <clipPath id="clip-path-2">
      <rect id="Rect치ngulo_44951" data-name="Rect치ngulo 44951" width="58.631" height="38.814" fill="none"/>
    </clipPath>
  </defs>
  <g id="Grupo_155566" data-name="Grupo 155566" transform="translate(-285 -13286)">
    <g id="Grupo_155565" data-name="Grupo 155565" transform="translate(349 13296.502)">
      <g id="Grupo_155564" data-name="Grupo 155564" clip-path="url(#clip-path)">
        <path id="Trazado_597572" data-name="Trazado 597572" d="M496.47,902.251l-32.9-13.844-25.665,17.318,13.627,5.734a5.877,5.877,0,0,1-.918.6,7.521,7.521,0,0,1-1.681.489c-1.146.211-2.553.177-3.37.728-1.277.862-.272,2.426,2.241,3.546.073.033.147.065.222.1,2.675,1.125,5.908,1.319,7.221.432,1.067-.72.246-1.863.883-2.7a6.464,6.464,0,0,1,1.064-.808l13.61,5.727,10.619-7.165-.136-.062a12.649,12.649,0,0,0-1.4-.512c-1.584-.348-3.725.074-5.093-.5-1.677-.746-1.334-2.44.729-3.832,2.086-1.408,5.142-1.975,6.827-1.266,1.045.466,1,1.2,1.409,1.8a3.1,3.1,0,0,0,.941.9c.05.031.24.126.48.233.2.09.438.188.658.262Z" transform="translate(-389.03 -789.248)" fill="#727997" opacity="0.28"/>
        <path id="Trazado_597573" data-name="Trazado 597573" d="M237.91,1246.727c-.83-.561-2.261-.525-3.425-.74a7.6,7.6,0,0,1-1.71-.5,5.95,5.95,0,0,1-.933-.607l13.85-5.828-10.791-7.281c.044-.022.091-.043.139-.065a12.837,12.837,0,0,1,1.42-.521c1.608-.354,3.785.075,5.233-.534,1.647-.735,1.3-2.456-.8-3.87-2.12-1.431-5.227-2.007-6.989-1.265-1.01.451-.97,1.2-1.381,1.806a3.148,3.148,0,0,1-.957.915c-.051.031-.245.129-.491.239-.2.091-.443.189-.665.264l-10.8-7.291-33.438,14.071,26.086,17.6,13.835-5.821a6.69,6.69,0,0,1,1.081.821c.647.851-.187,2.013.9,2.745,1.336.9,4.622.7,7.34-.44.076-.032.152-.065.226-.1,2.554-1.139,3.576-2.728,2.279-3.6" transform="translate(-165.389 -1085.119)" fill="#727997" opacity="0.28"/>
        <path id="Trazado_597574" data-name="Trazado 597574" d="M881.475,1041.861l13.833-5.821a6.645,6.645,0,0,1,1.082.82c.647.852-.187,2.013.9,2.745,1.336.9,4.621.7,7.34-.44.076-.032.151-.064.224-.1,2.554-1.139,3.578-2.73,2.28-3.606-.83-.559-2.26-.524-3.425-.739a7.629,7.629,0,0,1-1.709-.5,6.055,6.055,0,0,1-.933-.608l13.85-5.828,26.086,17.6-33.439,14.071-10.792-7.282c.043-.021.088-.041.134-.062a13,13,0,0,1,1.424-.523c1.609-.353,3.787.076,5.177-.509,1.7-.759,1.356-2.48-.741-3.895-2.12-1.431-5.227-2.007-6.938-1.287-1.062.473-1.021,1.218-1.432,1.828a3.152,3.152,0,0,1-.957.915c-.051.03-.245.128-.492.238-.2.091-.442.19-.664.264Z" transform="translate(-783.089 -913.074)" fill="#727997" opacity="0.28"/>
        <path id="Trazado_597575" data-name="Trazado 597575" d="M814.566,1386.153l-13.611-5.727a6.527,6.527,0,0,0-1.063.808c-.636.838.184,1.981-.883,2.7-1.314.886-4.547.693-7.221-.432q-.113-.048-.222-.1c-2.512-1.12-3.518-2.685-2.242-3.546.816-.551,2.224-.516,3.37-.727a7.467,7.467,0,0,0,1.681-.49,5.877,5.877,0,0,0,.918-.6l-13.626-5.734-10.63,7.173c-.22-.074-.456-.172-.658-.262-.24-.107-.429-.2-.479-.233a3.108,3.108,0,0,1-.943-.9c-.4-.6-.365-1.334-1.358-1.777-1.735-.731-4.791-.164-6.878,1.244-2.063,1.392-2.4,3.085-.784,3.808,1.424.6,3.565.177,5.148.525a12.569,12.569,0,0,1,1.4.512c.048.021.094.042.137.063L756,1389.627l32.9,13.844Z" transform="translate(-671.621 -1219.139)" fill="#727997" opacity="0.28"/>
        <path id="Trazado_597576" data-name="Trazado 597576" d="M288.167,922.476c0,4.618-8.413,8.361-18.792,8.361s-18.791-3.743-18.791-8.361,8.413-8.361,18.791-8.361,18.792,3.743,18.792,8.361" transform="translate(-222.615 -812.086)" fill="#727997" opacity="0.28"/>
        <path id="Trazado_597577" data-name="Trazado 597577" d="M462.729,955.326l.308-.057.308-2.588-.81-.958Z" transform="translate(-410.91 -845.497)" fill="#401427"/>
        <path id="Trazado_597578" data-name="Trazado 597578" d="M458.225,948.9l.371.21-.058-4.236-.654-.149Z" transform="translate(-406.778 -839.28)" fill="#161c29"/>
        <path id="Trazado_597579" data-name="Trazado 597579" d="M461.371,925.973l.688,2.271a15.293,15.293,0,0,0,1.707,3.051s1.393,1.909-1.213,1.782c0,0-2.78-.148-2.737-1.931a7.09,7.09,0,0,0-1.373-3.437,1.551,1.551,0,0,1,.182-1.831l.482-.55,2.338-.409Z" transform="translate(-407.076 -821.684)" fill="#e28262"/>
        <path id="Trazado_597580" data-name="Trazado 597580" d="M463.622,935.251a3.5,3.5,0,0,1-3.027-.916,12.125,12.125,0,0,1-1.274-2.451c.113.357-.737-2.809-.51-3.3l-.482.55a1.618,1.618,0,0,0-.229,1.879,6.736,6.736,0,0,1,1.421,3.388c-.042,1.783,2.737,1.931,2.737,1.931,1.564.076,1.687-.581,1.536-1.119a1.613,1.613,0,0,1-.172.041" transform="translate(-406.78 -824.937)" fill="#161c29"/>
        <path id="Trazado_597581" data-name="Trazado 597581" d="M477.092,969.925s.392.741-.853.741c0,0-4.664-.3-4.662-2.3l0-1.614a3,3,0,0,0,3.247,2.309s1.279,0,.618-.815Z" transform="translate(-418.941 -858.848)" fill="#161c29"/>
        <path id="Trazado_597582" data-name="Trazado 597582" d="M404.336,3.1a3.1,3.1,0,1,1-3.1-3.1,3.1,3.1,0,0,1,3.1,3.1" transform="translate(-353.692 0)" fill="#151e40"/>
        <path id="Trazado_597583" data-name="Trazado 597583" d="M445.665,85.79h6.113c-.278-.89-.854-3.193.038-4.762l-6.176-4.055s1.1,6.805.026,8.817" transform="translate(-395.899 -68.382)" fill="#f39672"/>
        <path id="Trazado_597584" data-name="Trazado 597584" d="M446.35,81.949a2.685,2.685,0,0,0,1.924,1.7,6.45,6.45,0,0,0,3.1.23,4.833,4.833,0,0,1,.436-2.848l-6.176-4.055s.334,2.076.454,4.273c.084.235.166.47.257.7" transform="translate(-395.899 -68.382)" fill="#db765e"/>
        <path id="Trazado_597585" data-name="Trazado 597585" d="M439.262,20.106l.324-.92.792-2.7a2.727,2.727,0,0,0,.014-1.435,4.343,4.343,0,0,1-.126-2.245,4.522,4.522,0,0,0-.589-3.746C438.241,6.792,434.85,6.8,434.85,6.8a4.723,4.723,0,0,0-4.534,4.276c-.673,2.7,1.48,4.942,1.484,4.947a2.993,2.993,0,0,1,.433,1.094,3.374,3.374,0,0,0,.615,1.026A7.539,7.539,0,0,0,435,19.871a8.3,8.3,0,0,0,3.232.762c.427,0,.847,0,1.033-.527" transform="translate(-382.171 -6.044)" fill="#f39672"/>
        <path id="Trazado_597586" data-name="Trazado 597586" d="M336.207,960.7l.311.044,1.122-2.352-.459-1.168Z" transform="translate(-298.681 -850.386)" fill="#401427"/>
        <path id="Trazado_597587" data-name="Trazado 597587" d="M333.664,953.173l.284.319,1.3-4.031-.572-.35Z" transform="translate(-296.422 -843.175)" fill="#161c29"/>
        <path id="Trazado_597588" data-name="Trazado 597588" d="M346.363,937.811c-.062,1.892-.2,4.017.561,5.809,0,0,.707,2.255-1.721,1.3,0,0-2.585-1.032-1.973-2.707a7.09,7.09,0,0,0-.2-3.7,1.551,1.551,0,0,1,.759-1.675l.634-.367h2.43Z" transform="translate(-304.713 -831.949)" fill="#f39672"/>
        <path id="Trazado_597589" data-name="Trazado 597589" d="M346.377,944.334A3.5,3.5,0,0,1,343.8,942.5a12.1,12.1,0,0,1-.42-2.731c-.007.375.2-2.9.577-3.293l-.634.367a1.618,1.618,0,0,0-.82,1.706,6.735,6.735,0,0,1,.258,3.665c-.612,1.675,1.973,2.707,1.973,2.707,1.457.574,1.784-.009,1.814-.567a1.561,1.561,0,0,1-.176-.016" transform="translate(-304.249 -831.948)" fill="#161c29"/>
        <path id="Trazado_597590" data-name="Trazado 597590" d="M348.25,979.141s.134.828-1.046.429c0,0-4.322-1.777-3.677-3.674l.516-1.529a3,3,0,0,0,2.334,3.229s1.211.411.847-.574Z" transform="translate(-305.126 -865.612)" fill="#161c29"/>
        <path id="Trazado_597591" data-name="Trazado 597591" d="M359.382,676.037c-3.1,5.723-3.648,8.053-4.2,12.405-.322,2.531-.215,13.194-.547,14.784-.139.659,2.367.3,2.367.3.458-1.115,7.756-25.614,7.756-25.614s.816-2.538.139-2.979c-3.4-2.217-4.165-1.39-5.516,1.105" transform="translate(-315.048 -598.456)" fill="#f39672"/>
        <path id="Trazado_597592" data-name="Trazado 597592" d="M352.115,704.036c.458-1.116,7.68-26.125,7.68-26.125s.816-2.538.139-2.979c-3.4-2.217-4.165-1.389-5.516,1.105-3.1,5.724-3.648,8.053-4.2,12.405-.322,2.531-.844,12.826-1.176,14.417,0,0,1.854,2.209,3.072,1.177" transform="translate(-310.085 -598.457)" fill="#1d2127"/>
        <path id="Trazado_597593" data-name="Trazado 597593" d="M400.9,312.7s2.382,10.082,2.062,11.183c-.921,3.172-9.467,7.624-17.26,1.132a57.7,57.7,0,0,1,5.481-13.765s1.359,1.4,9.717,1.449" transform="translate(-342.649 -276.509)" fill="#1d2127"/>
        <path id="Trazado_597594" data-name="Trazado 597594" d="M417.023,139.612s3.118,6.027,4.509,9.334c-.583,3.876-2.689,9.626-3.536,10.839-1.855,2.657-10.335.285-10.335.285l-2.444-8.16c7.135-2.562,3.378-10.08,3.378-10.08l1.119-.706a5.6,5.6,0,0,0,5.785,3.563s1.526-.993.4-5.208a6.53,6.53,0,0,1,1.121.135" transform="translate(-359.99 -123.909)" fill="#4c3887"/>
        <path id="Trazado_597595" data-name="Trazado 597595" d="M441.451,403.826s.821,16.265,3.83,25.013c.448,1.3,5.59-.429,5.59-.429s2.595-13.995,2.439-19.793c-.088-3.277-1.26-10.343-1.26-10.343s-9.644-1.261-10.6,5.552" transform="translate(-392.179 -353.739)" fill="#e28262"/>
        <path id="Trazado_597596" data-name="Trazado 597596" d="M457.863,669.377l5.443-.371s-3.345,27.766-3.648,28.933c0,0-2.34.846-2.292.174.113-1.621-1.839-14.082-1.9-16.633-.1-4.1.065-6.687,2.4-12.1" transform="translate(-404.613 -594.335)" fill="#e28262"/>
        <path id="Trazado_597597" data-name="Trazado 597597" d="M441.451,403.826s.821,16.265,3.83,25.013c.448,1.3,5.59-.429,5.59-.429s2.595-13.995,2.439-19.793c-.088-3.277-1.26-10.343-1.26-10.343s-9.644-1.261-10.6,5.552" transform="translate(-392.179 -353.739)" fill="#181b21"/>
        <path id="Trazado_597598" data-name="Trazado 597598" d="M460.333,698.113c.552-1.072,2.973-29.107,2.973-29.107l-5.443.371c-2.33,5.417-2.491,8.005-2.4,12.1.059,2.551,1.295,15.012,1.181,16.633,0,0,2.958,1.408,3.683,0" transform="translate(-404.613 -594.335)" fill="#181b21"/>
        <path id="Trazado_597599" data-name="Trazado 597599" d="M517.894,165.892l-4.126-14.959c-1.485-4-3.7-4.1-3.7-4.1-4.249.643-1.529,8.1-1.529,8.1l5.244,12.425" transform="translate(-451.015 -130.445)" fill="#e28262"/>
        <path id="Trazado_597600" data-name="Trazado 597600" d="M686.874,385.917c-1.784-1.323-1.907-1.683-2.177-2.221-1.163-2.31,1.8-1.8,2.528-1.523.416.162.291,1.188,1.44,2.633,0,0,1.916,1.527,2.445,1.517,0,0,.527.156.469.544,0,0-1.6.652-4.706-.951" transform="translate(-608.038 -339.294)" fill="#e28262"/>
        <path id="Trazado_597601" data-name="Trazado 597601" d="M562.527,303.544l12.083,9.141c.334,1.666-.43,1.786-.43,1.786l-9.746-4.435c-4.173-1.806-5.626-3.885-5.626-3.885s-1.705-1.6,1.01-3.2a2.369,2.369,0,0,1,2.709.592" transform="translate(-495.967 -268.966)" fill="#e28262"/>
        <path id="Trazado_597602" data-name="Trazado 597602" d="M705.6,378.794s-.529,1.023.852.957l1.461-.806a.522.522,0,0,0,.353-.569s-.124-.246-.576-.087Z" transform="translate(-626.761 -336.018)" fill="#e28262"/>
        <path id="Trazado_597603" data-name="Trazado 597603" d="M381.82,428.507s.063,16.271,2.209,25.27c.319,1.342,5.222.93,5.222.93s3.2-15.388,3.606-21.173c.231-3.27.885-8.993.885-8.993s-11.476-1.138-11.922,3.966" transform="translate(-339.203 -377.059)" fill="#f39672"/>
        <path id="Trazado_597604" data-name="Trazado 597604" d="M390.757,143.117a3.762,3.762,0,0,0-1.223,4.578l4.724,11.473s7.66,2.605,9.515-.052c.847-1.213,1.63-4.429,2.658-9.068.7-3.152.746-8.659-1.028-10.289-1.023-.941-4.336-.922-4.36-1.033l-5.366,1.729Z" transform="translate(-345.767 -123.242)" fill="#f39672"/>
        <path id="Trazado_597605" data-name="Trazado 597605" d="M399.971,307.89a14.447,14.447,0,0,1,2.9.885s1.764,7.518,1.864,8.661-7.761,7.06-16.543,3.691c0,0,4.435-10.46,5.083-12.647.744-2.511,6.693-.59,6.693-.59" transform="translate(-344.867 -272.901)" fill="#f39672"/>
        <path id="Trazado_597606" data-name="Trazado 597606" d="M520.082,182.344s2.592,3.052,2.81,5.32c.121,1.263-1.473,3.376-2.271,4.155-.565.552-3.913-7.368-.539-9.475" transform="translate(-460.713 -161.992)" fill="#4c3887"/>
        <path id="Trazado_597607" data-name="Trazado 597607" d="M384.906,405.044s-3.1.688-2.817,6.364c.272,5.543,10.364,6.7,11.66,1.111,1.394-6.011-3.332-9.535-8.843-7.474" transform="translate(-339.427 -359.31)" fill="#1d2127"/>
        <path id="Trazado_597608" data-name="Trazado 597608" d="M419.307,14.218a7.783,7.783,0,0,1,.027-1.8c.045-.56,1.142.646,1.119-.082-.1-3.335,1.108-4.923,1.582-5.18a5.868,5.868,0,0,1,3.72-.706c1.687.3,1.622,2.545,1.622,2.545,1.437-8.22-7.73-5.593-7.73-5.593a5.08,5.08,0,0,0-4,5.379c-.547,4.518,3.733,7.128,3.733,7.128Z" transform="translate(-369.208 -2.671)" fill="#1b2a59"/>
        <path id="Trazado_597609" data-name="Trazado 597609" d="M437.265,77.73a.9.9,0,0,1-.582.177,1.32,1.32,0,0,1-1.2-1.356,1.212,1.212,0,0,1,1.146-1.32,1.142,1.142,0,0,1,.8.367,1.647,1.647,0,0,1,.248,1.343,1.241,1.241,0,0,1-.413.789" transform="translate(-386.873 -66.834)" fill="#f3906b"/>
        <path id="Trazado_597610" data-name="Trazado 597610" d="M441.7,79.3c-.038-.388-.823-.018-.7.2a1.2,1.2,0,0,0,.314.306.569.569,0,0,1,.241.424c0,.022.007.089-.016.1-.1.071-.434-.308-.507-.388a.648.648,0,0,1-.094-.62.388.388,0,0,1,.43-.29c.176.01.356.023.346.241,0,0-.008.041-.01.021" transform="translate(-391.689 -70.211)" fill="#e47a5d"/>
        <path id="Trazado_597611" data-name="Trazado 597611" d="M442.255,84.7c.082-.081.16-.014.243.046a.374.374,0,0,1,.14.228.912.912,0,0,1-.1.648.49.49,0,0,1-.421.224c-.236-.007-.306-.215-.315-.415,0-.053-.007-.179.045-.213s.1.052.135.09a.336.336,0,0,0,.2.075.429.429,0,0,0,.351-.157.19.19,0,0,0,.036-.06c0,.131-.007.159-.021.088a.365.365,0,0,0-.044-.092c-.055-.091-.147-.152-.208-.239-.029-.04-.084-.18-.043-.222" transform="translate(-392.492 -75.214)" fill="#e47a5d"/>
        <path id="Trazado_597612" data-name="Trazado 597612" d="M480.227,68.9c.023.233-.087.433-.245.449s-.3-.16-.326-.393.087-.433.245-.448.3.161.326.392" transform="translate(-426.117 -60.864)" fill="#341e13"/>
        <path id="Trazado_597613" data-name="Trazado 597613" d="M509.121,64.869c.009.233-.112.427-.271.432s-.293-.178-.3-.411.112-.427.271-.432.293.178.3.411" transform="translate(-451.787 -57.263)" fill="#341e13"/>
        <path id="Trazado_597614" data-name="Trazado 597614" d="M472.344,60.345a3.209,3.209,0,0,1,2.031-.586s.1-.005.07-.3c0,0-.007-.257-.213-.232,0,0-1.813-.12-1.888,1.113" transform="translate(-419.623 -52.618)" fill="#1b2a59"/>
        <path id="Trazado_597615" data-name="Trazado 597615" d="M505.5,56.239c-.633-.513-1.8-.113-1.8-.113-.2.03-.145.279-.145.279.051.287.145.267.145.267a3.934,3.934,0,0,1,1.716-.122c.028-.1.056-.207.081-.312" transform="translate(-447.347 -49.73)" fill="#1b2a59"/>
        <path id="Trazado_597616" data-name="Trazado 597616" d="M490.7,98.416l-2.3.425c-.121.022-.169.094-.1.158a1.453,1.453,0,0,0,2.522-.472c.032-.075-.024-.118-.122-.111" transform="translate(-433.769 -87.431)" fill="#fff"/>
        <path id="Trazado_597617" data-name="Trazado 597617" d="M495.254,78.643c1.2-.087,1.269-.4,1.269-.4l-.631-1.269s.145,1.269-.638,1.671" transform="translate(-439.976 -68.381)" fill="#e47a5d"/>
        <path id="Trazado_597618" data-name="Trazado 597618" d="M381.82,428.507s.063,16.271,2.209,25.27c.319,1.342,5.222.93,5.222.93s3.2-15.388,3.606-21.173c.231-3.27.885-8.993.885-8.993s-11.476-1.138-11.922,3.966" transform="translate(-339.203 -377.059)" fill="#1d2127"/>
        <path id="Trazado_597619" data-name="Trazado 597619" d="M400.9,312.7s2.382,10.082,2.062,11.183c-.921,3.172-9.467,7.624-17.26,1.132a57.7,57.7,0,0,1,5.481-13.765s1.359,1.4,9.717,1.449" transform="translate(-342.649 -276.509)" fill="#1d2127"/>
        <path id="Trazado_597620" data-name="Trazado 597620" d="M408.921,160.069s8.721,2.687,10.575.03c.847-1.213,2.712-7.277,3.3-11.153-1.392-3.306-4.51-9.334-4.51-9.334a6.53,6.53,0,0,0-1.121-.135c1.123,4.215-.4,5.208-.4,5.208a5.6,5.6,0,0,1-5.785-3.563l-1.119.706s3.459,7.185-3.217,10.471c0,0-.16,7.708,2.284,7.77" transform="translate(-361.248 -123.909)" fill="#d1eff2"/>
        <path id="Trazado_597621" data-name="Trazado 597621" d="M445.432,95.665a.4.4,0,1,1-.4-.4.4.4,0,0,1,.4.4" transform="translate(-395.009 -84.634)" fill="#fff"/>
        <path id="Trazado_597622" data-name="Trazado 597622" d="M387.37,177.7a3.584,3.584,0,0,1-.156,5.067c-1.442,1.357-5.975,3.944-6.017,1.964-.083-3.891.069-6,1.511-7.361a3.125,3.125,0,0,1,4.662.33" transform="translate(-338.634 -156.775)" fill="#f39672"/>
        <path id="Trazado_597623" data-name="Trazado 597623" d="M377.641,202.554l-3.133-1.806-3.149,1.97s-1.843,11.741-1.164,14.428c.723,2.863,2.039.754,2.661-.029,0,0,5.139-12.282,4.785-14.563" transform="translate(-328.743 -178.342)" fill="#f39672"/>
        <path id="Trazado_597624" data-name="Trazado 597624" d="M375.654,327.521a71.347,71.347,0,0,0,10.634,6.211s1.652-.694.826-1.457c-1.4-1.3-7.535-7.169-8.951-8.468-2.509-.857-2.509,3.714-2.509,3.714" transform="translate(-333.725 -287.57)" fill="#f39672"/>
        <path id="Trazado_597625" data-name="Trazado 597625" d="M471.638,403.868c-2.039-.881-2.241-1.2-2.627-1.665-1.66-1.983,1.344-2.168,2.113-2.06.441.063.555,1.091,2,2.235,0,0,2.214,1.048,2.727.917,0,0,.548.031.581.422,0,0-1.409,1-4.8.151" transform="translate(-416.225 -355.46)" fill="#f39672"/>
        <path id="Trazado_597626" data-name="Trazado 597626" d="M488.734,400.115s-.873.75.432,1.207l1.657-.2s.467.018.541-.4c0,0-.023-.274-.5-.3Z" transform="translate(-433.93 -355.456)" fill="#f39672"/>
        <path id="Trazado_597627" data-name="Trazado 597627" d="M719.533,439.761l-.073-.016-.113-.024-.083-.014-.08-.013-.056,6.412-10.619,7.164.067-7.652,8.8-5.935q-.193.023-.39.055l-.085.014-.15.027-.1.02-.146.031-.092.02-.231.055-.061.016q-.143.037-.285.079l-.05.015c-.131.039-.262.08-.392.124l-.014.005q-.2.067-.39.143l-.028.011q-.22.087-.435.184l-.02.009q-.217.1-.428.207l-.014.007c-.142.073-.282.151-.418.231l-.008,0q-.208.122-.406.256a3.4,3.4,0,0,0-1.8,2.435q.034-3.826.067-7.651a3.4,3.4,0,0,1,1.8-2.436q.2-.133.406-.256l.008,0c.136-.081.276-.158.418-.232l.015-.007c.14-.073.283-.142.427-.207l.022-.009q.213-.1.432-.183l.009,0,.024-.009q.19-.075.383-.141l.018-.007c.129-.044.258-.084.387-.123l.034-.011.022-.006q.141-.041.282-.077l.063-.016c.076-.019.152-.038.227-.054l.046-.011.051-.011.139-.029.107-.021.142-.026.075-.013.019,0c.131-.022.26-.039.389-.055l.034,0,.025,0q.169-.019.335-.031l.028,0h.037c.1-.007.208-.012.31-.014h.009c.1,0,.191,0,.285,0h.039l.032,0c.095,0,.188.008.28.015h.008l.021,0c.1.008.189.019.28.031l.032,0,.021,0,.109.018.088.016.1.022c.024.005.049.009.072.016l.009,0c.082.02.162.043.24.067l.054.018c.078.026.155.054.229.084s.114.054.166.081l.046.025.056.031.044.029.055.036c.029.02.056.039.083.06l.047.036.016.012c.032.026.061.053.089.08l.011.011c.022.022.044.044.064.066v0h0v0l.018.021.029.034c.02.024.039.048.057.072l.025.034.013.017.024.038c.016.024.031.048.046.072l.031.053c.014.024.027.049.04.073l.012.022.012.025c.022.043.042.086.062.129l.01.021c.026.058.051.117.076.176l.05.114.023.052c.023.05.046.1.071.15.013.025.026.05.04.074l.022.041c.022.038.045.076.07.113s.034.048.051.071.049.067.075.1c.011.014.022.029.034.043q.053.066.112.131l.007.008c.041.045.085.089.131.133l.041.037c.033.031.068.062.1.092l.052.044c.036.029.073.058.112.086l.051.037c.056.04.113.078.173.116l.01.006.018.01.012.005.026.014.018.009.03.015.022.011.036.018.029.014.037.018.046.022.027.013.053.025.029.014.087.039c.2.09.438.188.658.262L734.24,428.3l-.067,7.651-10.629,7.173c-.22-.074-.457-.171-.658-.261l-.087-.039-.015-.007-.066-.031-.025-.012-.049-.023-.03-.014-.037-.018-.023-.011-.035-.018-.017-.009-.031-.016-.014-.007-.024-.013-.009-.005-.015-.008,0,0c-.06-.037-.117-.075-.172-.115l-.053-.039c-.037-.028-.074-.056-.109-.085l-.028-.022-.026-.022c-.035-.03-.068-.06-.1-.09l-.043-.04c-.045-.043-.089-.088-.129-.132h0l-.008-.009c-.039-.042-.076-.086-.111-.129l-.034-.043c-.026-.033-.052-.067-.076-.1l-.018-.024-.032-.046c-.025-.037-.048-.074-.07-.112l-.029-.053c-.01-.02-.022-.039-.032-.058v0c-.026-.051-.05-.1-.073-.153l-.018-.043-.06-.137c-.022-.052-.045-.105-.069-.158l-.013-.029q-.028-.061-.058-.122l-.025-.05c-.012-.024-.026-.048-.039-.071s-.02-.037-.031-.054-.03-.048-.046-.072-.024-.037-.037-.054l-.026-.035c-.018-.024-.037-.048-.056-.071l-.03-.035c-.026-.029-.053-.058-.082-.086l-.012-.011c-.033-.031-.068-.062-.105-.093l-.046-.035c-.026-.021-.054-.04-.083-.06l-.055-.037q-.048-.03-.1-.06l-.046-.025c-.052-.028-.107-.056-.166-.081s-.15-.059-.229-.084l-.055-.018c-.078-.025-.158-.048-.24-.067" transform="translate(-629.429 -380.495)" fill="#0082bc"/>
        <path id="Trazado_597628" data-name="Trazado 597628" d="M413.754,467.079l.067-7.652,13.627,5.734-.056,6.368h.013l.088.01c.109.012.217.023.324.032l.032,0c.079.006.156.012.234.016l.088,0,.175.008h.064c.137,0,.272,0,.4,0h.053c.111,0,.219-.007.325-.013l.025,0c.1-.007.2-.016.292-.026l.072-.008c.081-.009.161-.021.24-.033l.028,0c.085-.014.167-.03.247-.048l.061-.014c.075-.018.149-.037.22-.057l.031-.008.044-.014.116-.037.058-.021.1-.037.053-.022.09-.041.049-.024.089-.047.04-.022c.041-.024.081-.049.119-.074a1.37,1.37,0,0,0,.6-1.247l0-.373a1.7,1.7,0,0,1,.279-1.08,6.446,6.446,0,0,1,1.064-.808l13.61,5.727-.067,7.652-13.61-5.727a6.441,6.441,0,0,0-1.063.807,1.575,1.575,0,0,0-.277.965c0,.124,0,.247,0,.371a1.438,1.438,0,0,1-.6,1.364c-.038.026-.078.051-.119.074l-.042.022-.088.046-.05.024-.09.04-.052.022-.029.012-.068.024-.057.021-.113.037-.048.015-.008,0-.02,0c-.072.021-.147.04-.224.058l-.032.008-.027,0c-.081.018-.164.034-.249.048h0l-.019,0c-.08.013-.162.024-.246.034l-.035,0-.033,0c-.1.01-.193.019-.293.026h-.027c-.106.007-.215.012-.326.014h-.05c-.132,0-.267,0-.4,0h-.032l-.034,0c-.058,0-.116,0-.174-.007l-.088,0c-.083,0-.166-.01-.25-.018h-.015c-.108-.009-.217-.02-.327-.032l-.086-.01c-.1-.012-.193-.024-.291-.038l-.036,0-.012,0-.272-.043-.046-.009-.229-.041-.1-.021-.174-.035-.115-.026-.163-.038-.043-.009-.038-.009c-.147-.036-.295-.074-.442-.116l-.058-.016c-.15-.043-.3-.088-.448-.136l-.046-.015c-.153-.05-.305-.1-.456-.158l-.027-.01c-.157-.058-.313-.12-.466-.185-.075-.031-.15-.064-.222-.1q-.155-.069-.3-.141l-.1-.049-.188-.1-.108-.058-.166-.092-.1-.059-.062-.036-.1-.062-.088-.055c-.06-.039-.118-.077-.176-.117l-.056-.038q-.111-.077-.213-.156l-.051-.041c-.04-.031-.081-.063-.119-.095l-.021-.018c-.05-.042-.1-.084-.143-.126l-.062-.056c-.064-.061-.125-.122-.181-.183h0c-.05-.054-.1-.108-.138-.161l-.039-.052c-.023-.029-.046-.059-.067-.088l-.016-.024-.029-.045c-.025-.037-.047-.075-.069-.112l-.026-.047-.015-.026c-.02-.039-.038-.078-.055-.118,0-.006,0-.013-.008-.02-.011-.027-.022-.055-.031-.082s-.011-.035-.015-.052-.006-.018-.008-.026c-.01-.039-.02-.078-.026-.117,0-.008,0-.015,0-.024s0-.017,0-.025a1,1,0,0,1-.01-.131v-.014q.024-2.724.048-5.446Z" transform="translate(-367.573 -408.148)" fill="#2ca1df"/>
        <path id="Trazado_597629" data-name="Trazado 597629" d="M472.919,318.114l-32.9-13.844-25.665,17.318,13.627,5.734a5.865,5.865,0,0,1-.918.6,7.524,7.524,0,0,1-1.681.489c-1.146.212-2.553.177-3.37.728-1.277.862-.272,2.426,2.241,3.546.073.033.147.065.222.1,2.675,1.125,5.908,1.319,7.221.432,1.067-.72.246-1.863.883-2.7a6.457,6.457,0,0,1,1.064-.808l13.61,5.727,10.619-7.164-.136-.063a12.729,12.729,0,0,0-1.4-.512c-1.584-.348-3.725.074-5.093-.5-1.677-.746-1.334-2.44.729-3.832,2.086-1.408,5.142-1.975,6.827-1.266,1.045.466,1,1.2,1.409,1.8a3.1,3.1,0,0,0,.941.9c.05.031.24.126.48.233.2.09.438.188.658.262Z" transform="translate(-368.108 -270.309)" fill="#77b5e5"/>
        <path id="Trazado_597630" data-name="Trazado 597630" d="M626.2,707.393c0,.019,0,.037,0,.056s0,.041,0,.06,0,.033-.005.05,0,.039-.007.058-.007.038-.011.057l-.009.043c0,.02-.01.039-.016.057s-.008.027-.012.041l-.009.023a1.178,1.178,0,0,1-.065.156l0,0a1.3,1.3,0,0,1-.086.142l-.015.023a1.394,1.394,0,0,1-.106.131l-.032.035c-.013.013-.024.026-.037.038l-.044.041-.041.037-.039.032-.075.057-.041.029c-.028.019-.057.038-.086.056l-.039.025c-.025.015-.052.029-.079.043l-.044.025c-.043.021-.087.043-.133.063a3.614,3.614,0,0,1-.55.177q-.23.055-.473.09c-.154.022-.313.039-.473.053-.224.018-.453.028-.685.035-.508.015-1.028.01-1.534.024-.228.007-.453.017-.672.035l.068,7.778c.22-.018.445-.029.673-.035.506-.014,1.026-.009,1.533-.024.232-.006.461-.017.685-.035.161-.013.319-.03.473-.052s.32-.054.473-.09a3.53,3.53,0,0,0,.55-.177c.046-.02.09-.041.133-.064l.036-.02q.045-.024.088-.049l.009,0,.025-.016c.031-.018.061-.038.09-.058l.041-.029.074-.057.023-.018.017-.015c.014-.012.028-.024.041-.037s.03-.027.044-.041l.038-.037c.007-.009.015-.016.023-.024l.01-.012a1.4,1.4,0,0,0,.106-.131l.007-.008s.005-.01.008-.014a1.308,1.308,0,0,0,.086-.143h0a1.24,1.24,0,0,0,.066-.158.073.073,0,0,0,.005-.012.086.086,0,0,0,0-.009c.005-.016.009-.031.013-.046l.014-.052.009-.047c0-.012.006-.025.008-.038l0-.014c0-.02.006-.042.008-.062s0-.03,0-.044,0-.047,0-.07,0-.022,0-.033v-.016Z" transform="translate(-551.487 -628.438)" fill="#6d1e3a"/>
        <path id="Trazado_597631" data-name="Trazado 597631" d="M600.793,723.577l-.008,0a12.847,12.847,0,0,0-1.412.519c-.048.021-.095.043-.139.065l.068,7.777c.044-.022.09-.043.139-.065a13.369,13.369,0,0,1,1.411-.519l.008,0c.123-.027.248-.049.376-.068.153-.022.31-.039.469-.052l-.068-7.778c-.16.013-.317.03-.47.052-.128.018-.254.042-.376.068" transform="translate(-532.351 -642.709)" fill="#6d1e3a"/>
        <path id="Trazado_597632" data-name="Trazado 597632" d="M429.837,802.795l-.068-7.778-13.85,5.828.057,6.472a6.129,6.129,0,0,1-3.833-.485,1.391,1.391,0,0,1-.611-1.265c0-.128,0-.256,0-.385a1.728,1.728,0,0,0-.283-1.1,6.7,6.7,0,0,0-1.08-.821l-13.835,5.821.068,7.778,13.835-5.821a6.666,6.666,0,0,1,1.08.821,1.6,1.6,0,0,1,.281.975q0,.193,0,.385a1.459,1.459,0,0,0,.613,1.384c1.336.9,4.621.7,7.34-.44q.115-.048.226-.1c1.808-.805,2.849-1.839,2.842-2.684q-.024-2.768-.049-5.535Z" transform="translate(-352.094 -706.281)" fill="#922b58"/>
        <path id="Trazado_597633" data-name="Trazado 597633" d="M606.025,719.756l.068,7.777c-1.447.61-3.624.181-5.233.534a12.986,12.986,0,0,0-1.419.521c-.049.022-.1.043-.139.065l-.068-7.777c.044-.022.091-.043.139-.065a12.92,12.92,0,0,1,1.42-.521c1.608-.353,3.786.075,5.233-.533" transform="translate(-532.351 -639.421)" fill="#6d1e3a"/>
        <path id="Trazado_597634" data-name="Trazado 597634" d="M188.7,780.98l-26.086-17.6.068,7.777,26.086,17.6Z" transform="translate(-144.467 -678.175)" fill="#6d1e3a"/>
        <path id="Trazado_597635" data-name="Trazado 597635" d="M214.359,662.589c-.83-.561-2.261-.525-3.425-.739a7.616,7.616,0,0,1-1.71-.5,5.965,5.965,0,0,1-.933-.607l13.85-5.828-10.791-7.281c.044-.022.091-.043.139-.065a12.892,12.892,0,0,1,1.42-.521c1.608-.353,3.786.075,5.233-.534,1.647-.735,1.3-2.456-.8-3.87-2.12-1.431-5.226-2.007-6.989-1.264-1.01.451-.97,1.2-1.381,1.806a3.148,3.148,0,0,1-.957.915c-.051.031-.245.128-.491.239-.2.091-.442.189-.665.264l-10.8-7.291-33.439,14.071,26.086,17.6,13.835-5.821a6.7,6.7,0,0,1,1.08.821c.647.851-.187,2.013.9,2.745,1.336.9,4.622.7,7.34-.44.076-.032.152-.065.226-.1,2.554-1.139,3.576-2.728,2.279-3.6" transform="translate(-144.467 -566.18)" fill="#bd2f64"/>
        <path id="Trazado_597636" data-name="Trazado 597636" d="M1246.851,1064.316c0,4.618,8.413,8.361,18.792,8.361s18.791-3.743,18.791-8.361-8.413-8.361-18.791-8.361-18.792,3.743-18.792,8.361" transform="translate(-1107.684 -938.095)" fill="#727997" opacity="0.28"/>
        <path id="Trazado_597637" data-name="Trazado 597637" d="M1305.949,1087.307a10.224,10.224,0,0,1-3.516,2.051,3,3,0,0,1-2.93-.759.561.561,0,0,1,.086-.858c3.889-2.958,5.054-3.8,5.054-3.8h3.571a8.119,8.119,0,0,1,.078,2.015,3.094,3.094,0,0,1-1.959,1.187c-.073.012-.211-.1-.28-.067Z" transform="translate(-1154.321 -962.961)" fill="#191818"/>
        <path id="Trazado_597638" data-name="Trazado 597638" d="M1299.57,1098.183a1,1,0,0,0,.075.244,1.956,1.956,0,0,0,1.807.9,5.232,5.232,0,0,0,2.223-.755,9.9,9.9,0,0,0,1.841-1.249,5.539,5.539,0,0,1,1.392-.7,7.12,7.12,0,0,0,1.4-.946c0,.385-.024.7-.024.7a3.094,3.094,0,0,1-1.959,1.187c-.073.012-.21-.1-.28-.067l-.1.227a10.224,10.224,0,0,1-3.516,2.051,3,3,0,0,1-2.93-.759.56.56,0,0,1,.068-.846" transform="translate(-1154.318 -973.391)" fill="#060401"/>
        <path id="Trazado_597639" data-name="Trazado 597639" d="M1334.161,590.969c-3.971,4.384-5.545-.253-5.545-.253l-.492-26.948c-.052.4-.184-2.718,4.829-2.043s6.265,2.622,6.265,2.622-2.75,18.613-5.057,26.621" transform="translate(-1179.875 -498.944)" fill="#e28262"/>
        <path id="Trazado_597640" data-name="Trazado 597640" d="M1332.412,801.758s2.015,28.38,2.179,29.375c0,0,2.449.542,2.46-.023.028-1.359,2.824-17.967,2.86-20.1.091-5.408-1.3-6.43-2.694-10.073,0,0-4.816-3.561-4.806.823" transform="translate(-1183.695 -710.327)" fill="#e28262"/>
        <path id="Trazado_597641" data-name="Trazado 597641" d="M1329.774,591.99c2.307-8.008,3.862-27.641,3.862-27.641s-1.266-1.949-6.265-2.623-4.881,2.444-4.83,2.043a156.266,156.266,0,0,0-.128,27.893s4.283,2.274,7.36.328" transform="translate(-1174.292 -498.944)" fill="#00315e"/>
        <path id="Trazado_597642" data-name="Trazado 597642" d="M1342.876,437.674c.708,2.522,3.632,12.144,3.632,12.144-10.466,12.521-18.351,1.565-18.455.423-.125-1.367,1.4-6.587,1.678-12.216,0,0,2.854-4.393,13.145-.351" transform="translate(-1179.817 -387.304)" fill="#f39672"/>
        <path id="Trazado_597643" data-name="Trazado 597643" d="M1327.606,510.918c-.5-3.373.532-6.774,1.062-10.182H1344c.981,3.268,2,6.625,2,6.625s.655,7.731-5.91,8.657c0,0-11.442,1.984-12.484-5.1" transform="translate(-1179.309 -444.846)" fill="#00315e"/>
        <path id="Trazado_597644" data-name="Trazado 597644" d="M1398.644,597.546c-3.278,4.924-5.521.571-5.521.571l-5.317-26.252c.009.4.159-3.419,5.217-3.494s6.584,1.665,6.584,1.665.132,19.248-.963,27.51" transform="translate(-1232.906 -504.931)" fill="#f39672"/>
        <path id="Trazado_597645" data-name="Trazado 597645" d="M1434.31,812.638s5.265,29.906,5.575,30.866c0,0,2.5.173,2.429-.387-.174-1.349.278-20.206,0-22.324-.711-5.362-1.455-6.284-3.37-9.681,0,0-5.29-2.808-4.632,1.526" transform="translate(-1274.17 -719.785)" fill="#f39672"/>
        <path id="Trazado_597646" data-name="Trazado 597646" d="M1470.78,1098.389l-1.481,4.516s.306,4.043,3.548,1.538l.966-.936a1.034,1.034,0,0,0,.349-.993l-.288-1.73-.344-2.395s-2.032-1.379-2.75,0" transform="translate(-1305.304 -975.248)" fill="#191818"/>
        <path id="Trazado_597647" data-name="Trazado 597647" d="M1472.847,1140.775l.966-.935a1.008,1.008,0,0,0,.332-.517l.017.1a1.034,1.034,0,0,1-.349.992l-.966.936c-3.243,2.505-3.548-1.538-3.548-1.538l.058-.176c.182.954.9,3.141,3.491,1.136" transform="translate(-1305.304 -1012.157)" fill="#060401"/>
        <path id="Trazado_597648" data-name="Trazado 597648" d="M1387.185,576.576c-1.847-5.42-5.333-27.84-5.333-27.84.008.4,1.044-5.354,6.1-5.428s6.354,1.871,6.354,1.871,1.58,21.942.484,30.2c0,0-3.552,4.1-7.608,1.193" transform="translate(-1227.617 -482.665)" fill="#003980"/>
        <path id="Trazado_597649" data-name="Trazado 597649" d="M1225.95,260.673s-8.564,10.071-12.823,13.408c0,0-2.862-1.058-2.773-3,0,0,6.27-9.275,10.206-14.762,0,0,5.323-1.533,5.39,4.356" transform="translate(-1075.259 -227.548)" fill="#e28262"/>
        <path id="Trazado_597650" data-name="Trazado 597650" d="M1114.528,380.453s-9.352,5.443-13.224,7.264c0,0-.7,1.088.426,1.191,1.875.171,14.905-4.242,15.223-5.266,1.485-4.776-2.425-3.189-2.425-3.189" transform="translate(-978.193 -337.764)" fill="#e28262"/>
        <path id="Trazado_597651" data-name="Trazado 597651" d="M1296.257,249.6a3.49,3.49,0,0,0,4.461,2.065,3.442,3.442,0,0,0,2.024-4.449,3.491,3.491,0,0,0-4.462-2.065,3.442,3.442,0,0,0-2.023,4.449" transform="translate(-1151.378 -217.598)" fill="#e28262"/>
        <path id="Trazado_597652" data-name="Trazado 597652" d="M1235.879,243.641a4.574,4.574,0,0,0-5.151,1.926l-7.47,10.835a12.336,12.336,0,0,0,5.175,5.333s13.374-12.316,7.446-18.094" transform="translate(-1086.724 -216.282)" fill="#deecfb"/>
        <path id="Trazado_597653" data-name="Trazado 597653" d="M1388.954,109.972s.617-1.186,1.977-3.461c0,0,2.894-2.972,1.273-6.708,0,0-.89-3.123-6.353-2.67,0,0-.522,8.6,3.1,12.84" transform="translate(-1231.145 -86.251)" fill="#f3906b"/>
        <path id="Trazado_597654" data-name="Trazado 597654" d="M1367.04,168.91s-.919,8.569,1.041,9.217l-6.989-.416s1.1-2.589-.179-4.5Z" transform="translate(-1209.016 -150.057)" fill="#f39672"/>
        <path id="Trazado_597655" data-name="Trazado 597655" d="M1361.477,176.215c.116-1.958-.13-2.355-.563-3l6.126-4.3a41.691,41.691,0,0,0-.193,5.277,6.628,6.628,0,0,1-5.371,2.027" transform="translate(-1209.016 -150.058)" fill="#db765e"/>
        <path id="Trazado_597656" data-name="Trazado 597656" d="M1306.681,239.374c-1.557,1.137-1.735,3.855-1.179,5.554.638,1.951.89,4.44,1.529,7.261.865,3.823,1.452,6.767,2.417,10.563.8,3.14,13.416.61,13.416.61l4.521-15.452s.779-4.034-2.875-5.376a54.663,54.663,0,0,0-6.668-3.033,12.162,12.162,0,0,0-5.945-.765,29.536,29.536,0,0,0-5.215.638" transform="translate(-1159.533 -212.032)" fill="#f39672"/>
        <path id="Trazado_597657" data-name="Trazado 597657" d="M1334.388,103.313c-.36,1.644-.77,2.5-.316,4.01.409,1.353.314,2.776.9,4.087.843,1.871,1.94,1.627,2.779-.095.859-1.762,1.753-4.142-.185-5.447-1.245-.838-1.693-2.279-3.183-2.555" transform="translate(-1184.992 -91.782)" fill="#23140a"/>
        <path id="Trazado_597658" data-name="Trazado 597658" d="M1339.578,110.337l-.291-.969-.736-3.583a3.629,3.629,0,0,1,.057-1.489,3.652,3.652,0,0,0,.127-1.529,4.442,4.442,0,0,1,.957-3.907c1.6-2.275,5.115-2.1,5.115-2.1a4.9,4.9,0,0,1,4.489,4.657c.565,2.832-1.778,5.049-1.782,5.054-.187.177-.142,1.1-.209,1.361a3.72,3.72,0,0,1-2.358,2.162,10.45,10.45,0,0,1-3.52,1c-.443.019-1.683-.109-1.85-.665" transform="translate(-1189.103 -85.961)" fill="#f3906b"/>
        <path id="Trazado_597659" data-name="Trazado 597659" d="M1338.852,166.75c.57.514,1.345.28,1.951.652a1.024,1.024,0,0,0,1.027.1,1.612,1.612,0,0,1,.98.033c.362.1,1.018.419,1.369.561a1.3,1.3,0,0,0,1.555-.359,3.074,3.074,0,0,0,.806-1.277,1.415,1.415,0,0,1,2.377-.585,7.028,7.028,0,0,1-1.192,1.631,11.9,11.9,0,0,0-.209,2.126,3.72,3.72,0,0,1-2.358,2.162,11.913,11.913,0,0,1-3.86.58,1.853,1.853,0,0,1-1.509-1.006l-.291-.969-.735-3.583c-.013-.063-.018-.132-.026-.2a1.08,1.08,0,0,0,.114.133" transform="translate(-1189.315 -146.992)" fill="#23140a"/>
        <path id="Trazado_597660" data-name="Trazado 597660" d="M1326.313,72.682c.981,0,.97.822,1.722,1.279,1.612.98,4.113-.457,5.411,1.132a3.088,3.088,0,0,1,.329.5,7.434,7.434,0,0,1,.62,2.375c.036.235-.138.833.075,1.013.122.1.334.073.558,0,.044.359-.245.635-.369.964s-.318.613-.143.947c.453.86.105.718.146,2.445a7.325,7.325,0,0,1,1.187-1.1,8.781,8.781,0,0,0,1.678-1.856,11.756,11.756,0,0,0,1.019-2.238,6.3,6.3,0,0,0,.363-3.934s-.3-3.063-2.859-3.391c0,0,.326-1.973-4.358-2.495,0,0-3.7.058-3.9-1.218a1.816,1.816,0,0,0-.562,1.625,1.817,1.817,0,0,1-2.2-1.276s-1.267,4.583,1.287,5.22" transform="translate(-1176.855 -59.622)" fill="#23140a"/>
        <path id="Trazado_597661" data-name="Trazado 597661" d="M1411.376,170.122a.771.771,0,0,0,.492.292c.583.107,1.167-.436,1.3-1.213a1.3,1.3,0,0,0-.806-1.6.942.942,0,0,0-.782.242,1.969,1.969,0,0,0-.447,1.37,1.471,1.471,0,0,0,.238.906" transform="translate(-1253.634 -148.886)" fill="#f3906b"/>
        <path id="Trazado_597662" data-name="Trazado 597662" d="M1418.838,171.964c.09-.407.875.087.722.3a1.265,1.265,0,0,1-.373.285.611.611,0,0,0-.31.419c-.006.024-.019.095,0,.114.1.088.5-.272.589-.347a.7.7,0,0,0,.179-.646.417.417,0,0,0-.421-.364c-.187-.012-.38-.022-.4.213,0,0,0,.044.008.024" transform="translate(-1260.468 -152.556)" fill="#e47a5d"/>
        <path id="Trazado_597663" data-name="Trazado 597663" d="M1416.871,177.593c-.076-.1-.167-.035-.264.018a.392.392,0,0,0-.179.224.974.974,0,0,0,.021.7.524.524,0,0,0,.419.292c.252.023.353-.19.388-.4.01-.056.031-.191-.021-.232s-.11.043-.154.078a.35.35,0,0,1-.222.054.456.456,0,0,1-.354-.211.237.237,0,0,1-.03-.069c-.016.139-.013.171.011.1a.378.378,0,0,1,.059-.092c.069-.089.176-.144.252-.227.036-.038.112-.181.074-.23" transform="translate(-1258.286 -157.726)" fill="#e47a5d"/>
        <path id="Trazado_597664" data-name="Trazado 597664" d="M1355.566,161.837l1.181.456s-1.594.1-1.655-.364c0,0,.241-.9.5-1.76,0,0-.2,1.6-.029,1.667" transform="translate(-1203.844 -142.293)" fill="#e47a5d"/>
        <path id="Trazado_597665" data-name="Trazado 597665" d="M1377.807,156.578c0,.25.138.451.307.451s.306-.2.306-.451-.137-.451-.306-.451-.307.2-.307.451" transform="translate(-1224.024 -138.701)" fill="#23140a"/>
        <path id="Trazado_597666" data-name="Trazado 597666" d="M1347.277,153.185c0,.25.138.451.307.451s.307-.2.307-.451-.138-.451-.307-.451-.307.2-.307.451" transform="translate(-1196.901 -135.687)" fill="#23140a"/>
        <path id="Trazado_597667" data-name="Trazado 597667" d="M1373.743,148.062c-.11.022-.137-.126-.137-.126a.515.515,0,0,1,.007-.264.256.256,0,0,1,.131-.134,3.735,3.735,0,0,1,1.305.171c.259.077.679.27.706.509.008.071.015.194-.066.216a10.638,10.638,0,0,0-1.947-.372" transform="translate(-1220.279 -131.061)" fill="#23140a"/>
        <path id="Trazado_597668" data-name="Trazado 597668" d="M1339.911,144.69a9.262,9.262,0,0,1,1.523.159c.1.052.166-.083.167-.083a.517.517,0,0,0,.064-.257.253.253,0,0,0-.09-.164,2.764,2.764,0,0,0-1.129-.177,2.212,2.212,0,0,0-.568.077,1.1,1.1,0,0,0,.032.444" transform="translate(-1190.321 -128.077)" fill="#23140a"/>
        <path id="Trazado_597669" data-name="Trazado 597669" d="M1352.443,188.033c-.1,0-.149.044-.112.114a1.458,1.458,0,0,0,2.521.3c.059-.065.007-.131-.113-.147,0,0-1.284-.164-2.3-.272" transform="translate(-1201.38 -167.046)" fill="#fff"/>
        <path id="Trazado_597670" data-name="Trazado 597670" d="M1397.154,524.368a9.518,9.518,0,0,1,0,9.19c-2.685,4.857-10.883,3.087-10.907-3.2-.024-6.215,5.632-8.591,10.907-5.986" transform="translate(-1231.521 -464.914)" fill="#003980"/>
        <path id="Trazado_597671" data-name="Trazado 597671" d="M1311.9,239.256a29.533,29.533,0,0,0-5.215.638c-1.557,1.137-1.735,3.855-1.179,5.554.638,1.951.89,4.44,1.529,7.261.865,3.823-.226,6.617.739,10.414.8,3.14,17.494,0,17.494,0l2.121-14.693s.779-4.034-2.875-5.376a50.486,50.486,0,0,0-6.494-2.972s.44,2.972-4.406,2.151c0,0-2.96-.714-1.714-2.977" transform="translate(-1159.533 -212.552)" fill="#deecfb"/>
        <path id="Trazado_597672" data-name="Trazado 597672" d="M1338.152,435.237c.708,2.522,1.269,11.024,1.269,11.024-1.919,7.96-19.577,2.233-19.681,1.091-.125-1.367.417-7.871.693-13.5,0,0,7.427-2.657,17.719,1.386" transform="translate(-1172.421 -384.665)" fill="#deecfb"/>
        <path id="Trazado_597673" data-name="Trazado 597673" d="M1436.022,285.774c1.152,2.343,5.429,14.169,6.8,16.039.366.5,3.89,2.768,4.683-.328-1.943-12.276-4.881-19.279-4.881-19.279s-3.432-2.862-6.174-.217c0,0-1.244,2.161-.432,3.784" transform="translate(-1275.496 -249.519)" fill="#f39672"/>
        <path id="Trazado_597674" data-name="Trazado 597674" d="M1433.4,278.642a4.13,4.13,0,1,0,4.76-3.386,4.13,4.13,0,0,0-4.76,3.386" transform="translate(-1273.358 -244.482)" fill="#f39672"/>
        <path id="Trazado_597675" data-name="Trazado 597675" d="M1428.054,269.232s3.55,1.332,4.39,4.212l2.191,7.839s-2.871,4.175-7.15,4.036l-4.227-9.39s-2.844-5.274,4.8-6.7" transform="translate(-1263.941 -239.182)" fill="#deecfb"/>
        <path id="Trazado_597676" data-name="Trazado 597676" d="M1046.476,435.229l1.093-.03s-1.994.512-2.637-.136c0,0-.164-.1.091-.334a15.168,15.168,0,0,0,2.539-.283,11.073,11.073,0,0,1-2.987.3.325.325,0,0,1,.038-.609c-.4-.153-.058-.415-.058-.415a6.916,6.916,0,0,1,1.188-.458,28.275,28.275,0,0,0,2.722-1.061s-1.151-.753-.72-1.36l1.775.936,1.606,1.032.214,1.087-1.671,1.162a10.415,10.415,0,0,1-2.543.684s-2.638-.094-.649-.512" transform="translate(-927.803 -382.752)" fill="#e28262"/>
        <path id="Trazado_597677" data-name="Trazado 597677" d="M1429.629,813.867l4.592,28.617s1.521,1.466,5.051,0l.586-13.983s1.037-9.238-2.622-15.827c0,0-7.207-5.816-7.608,1.193" transform="translate(-1270.061 -719.956)" fill="#003980"/>
        <path id="Trazado_597678" data-name="Trazado 597678" d="M1333.995,811.173s1.955,2.828.2,13.443l-1.792,14.5a4.779,4.779,0,0,1-4.382.056l-1.445-28.878s1.3-4.9,7.417.883" transform="translate(-1178.512 -718.127)" fill="#00315e"/>
        <path id="Trazado_597679" data-name="Trazado 597679" d="M1040.055,498.63a1.116,1.116,0,0,0-.563-.92,2.073,2.073,0,0,0-.19-.111l-.063-.031c-.048-.023-.1-.045-.146-.066l-.036-.016-.033-.011c-.08-.03-.162-.059-.247-.084l0,0h0c-.086-.025-.175-.047-.265-.067l-.03-.008-.038-.007c-.106-.023-.215-.044-.326-.063h-.008l-.028,0c-.115-.018-.23-.035-.347-.05l-.037-.005c-.123-.016-.247-.03-.371-.044l-.022,0-.3-.035-.353-.042-.064-.008c-.115-.016-.227-.032-.339-.05l-.173-.03c-.117-.021-.234-.046-.352-.071l-.063-.014c-.086-.019-.17-.039-.255-.061l-.006,0c-.086-.022-.169-.045-.253-.069l-.08-.024c-.058-.017-.115-.035-.171-.054l-.083-.029c-.058-.02-.115-.041-.172-.062l-.064-.025c-.072-.029-.142-.058-.21-.088a6.045,6.045,0,0,1-.933-.608l.068,7.777a5.953,5.953,0,0,0,.933.608c.067.03.137.06.209.089l.016.006.049.018c.057.022.114.043.173.063l.081.027.176.056.049.015.025.007c.084.024.17.048.255.07h0l.261.062.025.005.035.007c.118.026.236.05.354.072l.145.026.029,0c.111.018.224.033.338.049l.068.009.346.041h0l.229.026.092.01.376.046.029,0c.118.016.236.032.351.052l.037.005c.111.018.22.039.326.062l.069.016c.091.021.18.043.267.068s.17.055.251.086l.069.027c.05.02.1.043.147.066l.063.031a1.922,1.922,0,0,1,.191.112,1.114,1.114,0,0,1,.563.92Z" transform="translate(-918.079 -440.518)" fill="#2d3a61"/>
        <path id="Trazado_597680" data-name="Trazado 597680" d="M872.874,581.363l.08-.018.108-.024.09-.016.076-.013.057,6.517,10.792,7.282-.068-7.777-8.939-6.033c.13.016.262.034.394.056l.091.016c.049.009.1.017.148.027l.107.021.142.029.1.022.23.056.064.016c.1.024.192.051.288.079l.055.016c.132.039.264.081.395.126l.02.007c.131.045.261.093.39.143l.032.013c.148.058.3.12.44.186l.021.01c.147.066.292.136.435.211l.014.007c.145.075.287.154.426.235l.007,0q.212.126.413.26a3.459,3.459,0,0,1,1.825,2.476q-.034-3.889-.068-7.778a3.459,3.459,0,0,0-1.824-2.475c-.134-.091-.272-.177-.413-.26l-.008,0c-.139-.082-.281-.16-.425-.235l-.015-.007c-.142-.074-.287-.144-.434-.211l-.021-.009q-.218-.1-.44-.186l-.008,0-.023-.008c-.13-.051-.261-.1-.394-.145l-.015-.005c-.133-.046-.266-.087-.4-.127l-.03-.01-.02-.005c-.1-.029-.193-.055-.291-.08l-.059-.014q-.119-.031-.237-.057l-.044-.011-.049-.01-.148-.031-.1-.021-.15-.026-.072-.013-.019,0c-.133-.023-.266-.041-.4-.057l-.031,0-.023,0c-.115-.012-.23-.023-.343-.031l-.028,0h-.037c-.211-.013-.417-.018-.618-.012h-.067c-.1,0-.194.008-.289.016h-.006l-.017,0c-.1.008-.2.019-.291.033l-.03,0-.022,0-.116.02-.082.015c-.04.008-.079.017-.118.025-.021,0-.042.008-.063.014l-.009,0c-.084.021-.166.044-.245.069l-.054.018c-.08.027-.159.054-.234.086s-.115.055-.169.083l-.047.027L872,573.9l-.044.029-.057.037c-.029.02-.057.04-.084.061l-.047.036-.017.013c-.032.027-.062.054-.09.081l-.011.01c-.023.022-.045.046-.067.069l-.018.021-.03.035c-.02.024-.04.048-.058.073l-.026.034-.013.018c-.009.013-.016.026-.025.039s-.032.048-.046.072-.022.037-.032.056-.027.048-.039.071c0,.008-.009.016-.013.025s-.009.018-.013.027c-.021.041-.041.083-.06.125l-.013.028c-.025.056-.049.112-.073.167s-.036.086-.055.129l-.022.049c-.023.051-.047.1-.072.152-.014.027-.028.054-.043.079l-.02.038c-.022.038-.046.077-.071.114l-.05.071-.078.1-.035.044c-.036.044-.073.088-.113.132a.078.078,0,0,0-.009.011c-.042.045-.087.09-.133.135l-.041.039c-.034.031-.069.062-.1.093l-.054.045c-.036.029-.074.058-.112.086l-.053.04c-.056.039-.114.079-.175.117l-.019.01-.008.006-.025.013-.014.007-.029.014-.02.011-.031.016-.029.014-.032.016-.037.018-.036.016-.04.019-.057.026-.026.013-.089.039c-.2.091-.442.19-.664.264l-10.8-7.291.068,7.778,10.805,7.29c.221-.075.46-.174.664-.264l.167-.076,0,0,.07-.032.005,0,.049-.024.02-.01.036-.018.023-.011.027-.014.023-.012.019-.01.02-.011.013-.007.012-.007,0,0c.061-.038.119-.078.176-.118l.051-.038c.039-.029.077-.058.114-.088l.027-.021.025-.022c.036-.031.071-.062.1-.093l.043-.039c.046-.044.09-.089.132-.135v0l.009-.01c.039-.044.076-.086.112-.13l.036-.045c.026-.033.052-.067.076-.1.006-.009.014-.018.02-.027l.03-.043c.026-.038.049-.076.071-.115.008-.014.015-.028.023-.042s.026-.047.038-.071c0,0,0,0,0,0,.025-.051.049-.1.073-.154.007-.016.014-.032.021-.047l.055-.128c.024-.057.049-.113.074-.17l.011-.024c.019-.044.04-.086.061-.129l.025-.049c.013-.025.026-.05.04-.073s.021-.037.031-.055.031-.048.047-.072.024-.038.038-.057l.026-.035c.018-.024.037-.048.057-.072l.031-.035c.026-.03.054-.059.084-.088l.011-.012c.033-.032.07-.063.108-.094l.046-.036q.041-.031.085-.062l.056-.037c.032-.02.066-.041.1-.061l.047-.025c.053-.029.108-.057.169-.083s.153-.059.233-.086l.054-.018c.08-.025.161-.048.245-.069" transform="translate(-762.167 -506.125)" fill="#2f3672"/>
        <path id="Trazado_597681" data-name="Trazado 597681" d="M1125.073,601.357l.068,7.777L1091.7,623.205l-.069-7.777Z" transform="translate(-969.792 -534.237)" fill="#3d4794"/>
        <path id="Trazado_597682" data-name="Trazado 597682" d="M857.924,457.724l13.833-5.821a6.645,6.645,0,0,1,1.082.82c.647.852-.187,2.013.9,2.745,1.336.9,4.621.7,7.34-.44.076-.032.151-.064.224-.1,2.554-1.139,3.578-2.73,2.28-3.606-.83-.559-2.26-.524-3.426-.739a7.635,7.635,0,0,1-1.709-.5,6.038,6.038,0,0,1-.933-.609l13.85-5.827,26.086,17.6L884.01,475.327l-10.792-7.282c.043-.021.088-.041.134-.062a13,13,0,0,1,1.424-.523c1.609-.353,3.786.076,5.177-.509,1.7-.759,1.356-2.48-.741-3.9-2.12-1.431-5.227-2.007-6.938-1.287-1.062.473-1.021,1.218-1.432,1.829a3.155,3.155,0,0,1-.957.915c-.051.03-.245.128-.492.238-.2.091-.442.19-.664.264Z" transform="translate(-762.167 -394.136)" fill="#4860a8"/>
        <path id="Trazado_597683" data-name="Trazado 597683" d="M241.762,770.655s1.144-.742.045-2.112a21.07,21.07,0,0,1-6.178-1.714c-4.174-1.313-10.037-7.775-12.706-10.715-3-3.3-7.536-.5-5.1,3.27,4.557,7.053,16.534,11.7,23.879,11.427" transform="translate(-192.895 -670.42)" fill="#f3906b"/>
        <path id="Trazado_597684" data-name="Trazado 597684" d="M88.918,959.332c1.745-8.149,2.267-27.023,2.267-27.023s-1.4-1.856-6.432-2.179-4.7,2.776-4.676,2.374a175.492,175.492,0,0,0,2.316,26.509s3.59,2.476,6.525.32" transform="translate(-71.128 -826.292)" fill="#002d58"/>
        <path id="Trazado_597685" data-name="Trazado 597685" d="M79.591,878.828c-.5-3.372.532-6.774,1.062-10.182H95.984c.981,3.268,2,6.625,2,6.625s.656,7.731-5.91,8.657c0,0-11.442,1.983-12.484-5.1" transform="translate(-70.59 -771.692)" fill="#006d97"/>
        <path id="Trazado_597686" data-name="Trazado 597686" d="M0,1393.445c0,6.5,11.842,11.768,26.45,11.768s26.448-5.269,26.448-11.768-11.842-11.768-26.448-11.768S0,1386.946,0,1393.445" transform="translate(0 -1227.462)" fill="#727997" opacity="0.28"/>
        <path id="Trazado_597687" data-name="Trazado 597687" d="M334.487,1453.483l-.874-.05c-.3-.046-.3.422-.336.438a9.512,9.512,0,0,1-2.069.656s-1.616-.21-1.789-.7l.228-3c1.8-.152,3.68-.5,3.68-.5l3.958-.556c1.9-.2,2.251.49,2.251.49s1.166,1.742-5.051,3.22" transform="translate(-292.652 -1287.925)" fill="#191818"/>
        <path id="Trazado_597688" data-name="Trazado 597688" d="M332.085,1455.711a4.743,4.743,0,0,1,1.024-.333c1.952-.342,3.862-.536,5.488-1.79a1.608,1.608,0,0,0,.706-1.143.709.709,0,0,1,.236.224s1.166,1.742-5.051,3.22l-.874-.05c-.3-.046-.3.422-.336.438a9.513,9.513,0,0,1-2.069.656s-1.616-.21-1.789-.7l.056-.731a3.119,3.119,0,0,0,2.609.209" transform="translate(-292.652 -1290.331)" fill="#100f0f"/>
        <path id="Trazado_597689" data-name="Trazado 597689" d="M97.587,1446.827l-.873-.05c-.3-.046-.3.421-.336.438a9.549,9.549,0,0,1-2.068.656s-1.616-.21-1.788-.7l.227-3c1.8-.151,3.681-.5,3.681-.5l3.958-.557c1.9-.2,2.251.491,2.251.491s1.166,1.742-5.051,3.22" transform="translate(-82.194 -1282.011)" fill="#191818"/>
        <path id="Trazado_597690" data-name="Trazado 597690" d="M95.185,1449.061a4.762,4.762,0,0,1,1.024-.333c1.953-.342,3.862-.536,5.488-1.791a1.607,1.607,0,0,0,.706-1.142.708.708,0,0,1,.236.224s1.166,1.742-5.051,3.22l-.873-.05c-.3-.046-.3.421-.336.438a9.547,9.547,0,0,1-2.068.656s-1.616-.21-1.788-.7l.055-.73a3.121,3.121,0,0,0,2.608.21" transform="translate(-82.195 -1284.423)" fill="#100f0f"/>
        <path id="Trazado_597691" data-name="Trazado 597691" d="M92.024,1199.174c.649-.773,2.776-29.2,2.776-29.2.353-4.37-6.914-2.536-6.914-2.536-1.058,4.351-.887,5.17-1.22,10.568-.132,2.132.208,19.793.129,21.151,0,0,3.373,2.234,5.228.018" transform="translate(-76.966 -1036.794)" fill="#002d58"/>
        <path id="Trazado_597692" data-name="Trazado 597692" d="M92.085,896.137s4.363,7.429,1.678,12.286-14-.429-13.3-6.053c.763-6.168,6.35-8.839,11.625-6.233" transform="translate(-71.453 -795.232)" fill="#1a3c76"/>
        <path id="Trazado_597693" data-name="Trazado 597693" d="M94.856,805.584c.709,2.522,3.632,12.144,3.632,12.144-8.011,7.555-18.35,1.565-18.455.423-.124-1.367,1.4-6.587,1.678-12.216,0,0,2.853-4.393,13.144-.351" transform="translate(-71.094 -714.15)" fill="#f39672"/>
        <path id="Trazado_597694" data-name="Trazado 597694" d="M148.787,938.458c-.85-8.291-6.756-29.44-6.756-29.44s-1.726-1.589-6.615-.347-5.43,7.624-5.533,7.233a194.355,194.355,0,0,0,13.259,25.18s3.657,1.872,5.645-2.626" transform="translate(-115.386 -806.829)" fill="#1a3c76"/>
        <path id="Trazado_597695" data-name="Trazado 597695" d="M252.033,1195.033c-.143-1-7.516-30.7-7.516-30.7-1.736-3.663-6.719.194-6.719.194a31.572,31.572,0,0,0,1.805,10.995c.678,2.026,6.946,20.371,7.382,21.658,0,0,3.7,1.174,5.049-2.143" transform="translate(-211.255 -1032.97)" fill="#1a3c76"/>
        <path id="Trazado_597696" data-name="Trazado 597696" d="M39.778,634.229s-.793,13.342-.287,18.728c0,0,0,2.448,4.311,3.675,0,0,1.568-14.854,2.845-21.486,0,0-2.546-4.918-6.869-.917" transform="translate(-34.933 -562.047)" fill="#e28262"/>
        <path id="Trazado_597697" data-name="Trazado 597697" d="M47.956,624.852a3.489,3.489,0,0,1-4.567-1.818,3.442,3.442,0,0,1,1.838-4.529,3.491,3.491,0,0,1,4.567,1.819,3.441,3.441,0,0,1-1.838,4.528" transform="translate(-38.298 -549.223)" fill="#e28262"/>
        <path id="Trazado_597698" data-name="Trazado 597698" d="M39.853,612.879a4.573,4.573,0,0,0-3.32,4.384l-.51,13.151a12.335,12.335,0,0,0,7.226,1.735s4.7-17.562-3.4-19.269" transform="translate(-32.002 -544.473)" fill="#ff2195"/>
        <path id="Trazado_597699" data-name="Trazado 597699" d="M128.161,538.08s.028,4.7.438,9.375l-6.2-1.027a4.585,4.585,0,0,0-.37-4.046Z" transform="translate(-108.413 -478.022)" fill="#f39672"/>
        <path id="Trazado_597700" data-name="Trazado 597700" d="M58.665,607.285c-1.556,1.137-1.735,3.856-1.179,5.554.638,1.951.891,4.44,1.53,7.261.865,3.823,1.452,6.767,2.416,10.563.8,3.14,13.415.61,13.415.61l4.522-15.452s.778-4.033-2.876-5.376a54.624,54.624,0,0,0-6.668-3.033,12.16,12.16,0,0,0-5.945-.765,29.54,29.54,0,0,0-5.216.637" transform="translate(-50.814 -538.878)" fill="#f39672"/>
        <path id="Trazado_597701" data-name="Trazado 597701" d="M149.132,892.282a9.516,9.516,0,0,1,0,9.189c-2.685,4.857-10.882,3.087-10.907-3.2-.024-6.215,5.632-8.591,10.907-5.985" transform="translate(-122.797 -791.763)" fill="#1a3c76"/>
        <path id="Trazado_597702" data-name="Trazado 597702" d="M64.039,607.168a29.545,29.545,0,0,0-5.216.637c-1.619,1.183-1.591,3.507-1.278,5.265.6,3.362,1.2,6.759,1.514,10.16.139,1.507.514,4.574.626,6.082a3.225,3.225,0,0,0,2.071,3.044c1.139.587,1.985.121,3.225.154a62.459,62.459,0,0,0,9.4-.646c.132-.016,5.011,3.276,3.406.854l1.745-16.378s.778-4.034-2.876-5.376a29.391,29.391,0,0,0-5.388-2.563s-4.9.125-7.224-1.234" transform="translate(-50.973 -539.399)" fill="#ff2195"/>
        <path id="Trazado_597703" data-name="Trazado 597703" d="M104.139,475.652l.264-1.02.627-3.761a3.782,3.782,0,0,0-.117-1.548,3.818,3.818,0,0,1-.193-1.587,4.629,4.629,0,0,0-1.149-4.032c-1.756-2.307-5.408-1.985-5.41-1.984a5.728,5.728,0,0,0-4.491,2.8,7.045,7.045,0,0,0-.813,5.227,10.591,10.591,0,0,0,3.053,4.776,7.375,7.375,0,0,0,3.031,1.413,12.345,12.345,0,0,0,3.3.486c.462,0,1.748-.18,1.9-.766" transform="translate(-82.306 -410.17)" fill="#f3906b"/>
        <path id="Trazado_597704" data-name="Trazado 597704" d="M98.874,458.854l-.582,2.335a1.135,1.135,0,0,0-.839,1.421l.211,1.928-.525.2c.044-.772-1.028-.783-1.028-.783-.783-.045-.916.623-.871,1.265.116,1.669-.491,4.319-1.89,4.785-.553.184-1.594.376-1.769-.372a10.182,10.182,0,0,0-1.947-2.733,7.838,7.838,0,0,1-1.62-8.087,6.363,6.363,0,0,1,1.495-2.209,8.067,8.067,0,0,1,4.656-2.077,6.376,6.376,0,0,1,3.708.647,7.716,7.716,0,0,1,1.723,1.576,1.8,1.8,0,0,1-.722,2.1" transform="translate(-77.763 -403.759)" fill="#351709"/>
        <path id="Trazado_597705" data-name="Trazado 597705" d="M156.152,540.14a.962.962,0,0,1-.609.229A1.413,1.413,0,0,1,154.166,539a1.3,1.3,0,0,1,1.134-1.487,1.222,1.222,0,0,1,.884.337,1.758,1.758,0,0,1,.356,1.416,1.322,1.322,0,0,1-.388.87" transform="translate(-136.954 -477.521)" fill="#f3906b"/>
        <path id="Trazado_597706" data-name="Trazado 597706" d="M160.593,541.887c-.068-.411-.88.037-.738.263a1.267,1.267,0,0,0,.356.305.611.611,0,0,1,.286.435c0,.025.014.1-.01.114-.1.082-.484-.3-.568-.379a.7.7,0,0,1-.143-.656.418.418,0,0,1,.441-.34c.188,0,.381,0,.385.235,0,0-.006.044-.009.023" transform="translate(-141.92 -481.176)" fill="#e47a5d"/>
        <path id="Trazado_597707" data-name="Trazado 597707" d="M161.658,547.576c.082-.094.169-.027.262.032a.393.393,0,0,1,.165.235.974.974,0,0,1-.06.7.523.523,0,0,1-.435.268c-.252.009-.341-.209-.364-.422-.006-.057-.02-.193.034-.231s.107.049.149.087a.358.358,0,0,0,.219.066.458.458,0,0,0,.365-.191.261.261,0,0,0,.033-.067c.009.14,0,.171-.016.1a.35.35,0,0,0-.054-.1c-.065-.093-.167-.153-.238-.241-.033-.04-.1-.186-.061-.234" transform="translate(-143.226 -486.417)" fill="#e47a5d"/>
        <path id="Trazado_597708" data-name="Trazado 597708" d="M434.736,876.413c-.321-.475-.04-.723-.69-.744-.74-.024-1.4-.39-1.906-.376-.875.024-4.181.8-1.962,2.688.516.441,1.994,2.416,3.017,1.831,1.511-.866,1-.547,1.765-2.427Z" transform="translate(-381.494 -777.598)" fill="#f39672"/>
        <path id="Trazado_597709" data-name="Trazado 597709" d="M195.921,653.683a3.879,3.879,0,1,0,5.36-1.167,3.88,3.88,0,0,0-5.36,1.167" transform="translate(-173.506 -579.139)" fill="#f39672"/>
        <path id="Trazado_597710" data-name="Trazado 597710" d="M92.493,784.579c.5,5.29.829,18.244.829,18.244-1.877,5.01-19.785.781-19.889-.36-.125-1.367.242-10.994.519-16.623a21.59,21.59,0,0,1,18.541-1.26" transform="translate(-65.215 -695.659)" fill="#ff2195"/>
        <path id="Trazado_597711" data-name="Trazado 597711" d="M185.241,637.258c4.717,1.328,5.3,7.035,5.3,7.035l2.13,9.374s-5.359,4.25-8.625,3.054a69.589,69.589,0,0,1-3.5-14.129s.034-5.181,4.689-5.335" transform="translate(-160.4 -566.131)" fill="#ff2195"/>
        <path id="Trazado_597712" data-name="Trazado 597712" d="M86.807,444.553c-.533.43-1.211.148-1.82.006-.831.975.164,1.948-1.095,2.421a13.937,13.937,0,0,1-2.39.441c-.59.1-1.185-.041-1.607.4-.457.477-.024,1.961-.563,2.245-.943.5-1.682-2.083-2.884-1.878-1.025.174-1.207,1.8-.847,2.6a1.261,1.261,0,0,0-.269-.182c-.489-1.274-1.113-1.3-1.652-2.2a3.683,3.683,0,0,1-.861-2.418c0-.012.165-.591.167-.6.392-1.435,1.063-1.68,1.385-2.289a12.091,12.091,0,0,1,1.3-1.66,16.623,16.623,0,0,1,1.065-1.691,4.988,4.988,0,0,1,2.812-1.19c1.038-.137,2.025.508,3.053.327.422-.074.817-.457,1.24-.433.516.029.873.541,1.32.742.829.373,2.136.222,2.844.806a1.713,1.713,0,0,1,.133,2.368c-.271.443-.819.7-1.063,1.158-.068.127-.251,1.015-.268,1.029" transform="translate(-64.691 -389.512)" fill="#351709"/>
        <path id="Trazado_597713" data-name="Trazado 597713" d="M1442.47,457.006a145.956,145.956,0,0,0-7.7,16s.063,1.612,1.25,1.114,10.772-14.073,10.781-15.309c.025-3.176-4.336-1.8-4.336-1.8" transform="translate(-1274.632 -405.734)" fill="#f39672"/>
        <path id="Trazado_597714" data-name="Trazado 597714" d="M1395.509,595.23l1.035-.352s-1.753,1.079-2.559.651c0,0-.187-.05-.012-.346a15.2,15.2,0,0,0,2.342-1.021,11.111,11.111,0,0,1-2.766,1.167s-.56-.161-.145-.593c-.423-.029-.178-.379-.178-.379a6.9,6.9,0,0,1,1-.789,28.2,28.2,0,0,0,2.286-1.819s-1.323-.379-1.09-1.086l1.972.368,1.84.511.526.976-1.253,1.6a10.433,10.433,0,0,1-2.227,1.406s-2.548.691-.772-.3" transform="translate(-1237.66 -524.735)" fill="#f39672"/>
        <g id="Grupo_155563" data-name="Grupo 155563" transform="translate(81.685 87.972)" style="isolation: isolate">
          <g id="Grupo_155562" data-name="Grupo 155562">
            <g id="Grupo_155561" data-name="Grupo 155561" clip-path="url(#clip-path-2)">
              <path id="Trazado_597715" data-name="Trazado 597715" d="M1025.5,842.268a1.1,1.1,0,0,1,.554-.905,1.9,1.9,0,0,1,.187-.11l.063-.03c.047-.022.094-.044.143-.065l.036-.016c.01,0,.023-.008.033-.011.078-.03.158-.058.242-.083h.005c.084-.024.172-.046.26-.066l.031-.008.04-.007q.155-.034.317-.061h.01l.034-.005q.161-.025.326-.048l.043-.005c.118-.016.238-.029.357-.043l.021,0,.081-.01.241-.027.334-.041.067-.008c.111-.015.22-.031.327-.048l.171-.029q.173-.033.347-.071l.065-.014c.083-.018.166-.038.248-.059l.008,0c.083-.021.166-.044.248-.068l.076-.022.168-.053.083-.028c.056-.019.11-.039.164-.06l.068-.025c.071-.029.14-.058.207-.088a5.831,5.831,0,0,0,.918-.6l-.067,7.651a5.807,5.807,0,0,1-.918.6c-.067.031-.137.06-.208.089l-.015.007-.047.017c-.055.021-.111.041-.169.061l-.08.027-.168.053-.052.016-.026.007c-.081.024-.163.046-.246.068l-.011,0c-.081.021-.163.04-.245.059l-.027.006-.04.008c-.115.025-.231.049-.346.07l-.142.025-.03,0c-.106.017-.214.032-.323.047l-.073.009-.323.039h-.01l-.229.027-.115.013c-.118.014-.236.027-.353.043l-.042.006c-.11.014-.219.03-.327.047l-.044.007c-.109.018-.214.039-.318.061l-.068.015c-.089.02-.177.042-.262.067h0q-.126.038-.245.084l-.069.027c-.049.02-.1.042-.144.065l-.062.03c-.065.035-.128.071-.187.11a1.1,1.1,0,0,0-.553.905Z" transform="translate(-992.665 -833.813)" fill="#003c74"/>
              <path id="Trazado_597716" data-name="Trazado 597716" d="M758,865.088l-.009-.044c0-.014-.006-.026-.008-.039a.123.123,0,0,0,0-.013c0-.021-.005-.041-.007-.061s0-.031-.005-.046,0-.043,0-.065,0-.024,0-.037v-.015l.067-7.652c0,.018,0,.035,0,.052s0,.043,0,.064,0,.031.005.045,0,.04.007.061.007.035.01.053.006.029.009.044.01.036.015.054.008.028.012.042l.008.022a1.267,1.267,0,0,0,.065.154v0a1.338,1.338,0,0,0,.084.14l.015.022a1.483,1.483,0,0,0,.1.128l.032.035.036.037.044.041.041.036.039.032c.024.019.048.037.073.056l.039.028c.029.02.058.039.088.057l.034.021c.027.016.055.032.084.047l.038.021c.042.021.086.042.131.062.087.037.177.069.27.1l.095.026c.063.018.126.037.191.052l.052.011c.073.017.148.032.223.045l.091.015c.07.012.142.022.213.031l.071.009c.093.011.188.02.284.028.06,0,.12.008.181.011l.153.01c.062,0,.124,0,.187.008l.15.005c.12,0,.24.005.36.007h.01l.426,0,.271,0,.134,0,.23,0h.059l.1,0,.175.007.162.009.168.011.057,0h0c.063,0,.125.011.186.018l.038,0c.081.009.16.018.239.03l.028.005c.117.017.232.037.344.062l.01,0,.011,0,.016,0,.024.007.02.006.032.01.024.008.04.013.026.008.048.016.029.01.053.018.031.011.058.02.033.011.06.021.039.014.056.021.047.017.055.02.05.018.057.021.051.019.057.022.051.02.057.021.051.021.057.023.049.02.06.025.044.018.1.044c.048.021.094.042.137.063l-.067,7.651-.137-.063-.1-.043-.033-.014-.071-.03-.041-.016-.066-.027-.046-.018-.062-.025-.048-.018-.06-.023-.05-.019-.057-.022-.049-.018-.058-.021-.045-.016-.056-.02-.049-.018-.047-.016-.049-.017-.044-.015-.043-.015-.042-.013-.038-.013-.039-.013-.034-.011-.032-.011-.03-.009-.027-.008-.023-.007-.022-.007-.016,0-.021-.005c-.112-.025-.228-.045-.346-.063-.087-.013-.175-.025-.264-.035l-.045,0q-.117-.012-.237-.021l-.166-.011-.164-.009-.171-.007-.164-.005-.224,0-.14,0-.269,0-.351,0h-.089q-.178,0-.355-.008h-.017l-.147-.005-.175-.007-.158-.01-.175-.011h-.019q-.135-.011-.266-.027l-.067-.008-.132-.017v0l-.085-.014-.09-.015c-.075-.013-.15-.029-.223-.045l-.053-.011-.015,0c-.061-.015-.119-.033-.178-.05-.031-.009-.062-.016-.092-.026-.093-.03-.183-.062-.27-.1-.045-.02-.089-.041-.131-.062l-.043-.024-.078-.043-.01-.005-.028-.018c-.029-.018-.057-.036-.084-.054l-.041-.029c-.025-.018-.049-.036-.072-.055l-.024-.018h0l-.017-.015-.039-.035-.045-.042-.036-.036-.023-.023a.125.125,0,0,0-.009-.012,1.5,1.5,0,0,1-.1-.129l-.006-.008-.008-.014a1.456,1.456,0,0,1-.085-.14v0a1.233,1.233,0,0,1-.064-.152s0-.009-.005-.014v0l0-.01c0-.013-.008-.026-.012-.041s-.011-.036-.015-.055" transform="translate(-755.052 -849.422)" fill="#003c74"/>
              <path id="Trazado_597717" data-name="Trazado 597717" d="M731.917,943.33l-.067,7.652,32.9,13.844.067-7.652Z" transform="translate(-731.849 -926.012)" fill="#004b8f"/>
              <path id="Trazado_597718" data-name="Trazado 597718" d="M1026.678,929.521l-.067,7.652,25.665-17.318.067-7.652Z" transform="translate(-993.711 -898.36)" fill="#003c74"/>
              <path id="Trazado_597719" data-name="Trazado 597719" d="M791.017,802.016l-13.611-5.727a6.54,6.54,0,0,0-1.063.807c-.636.837.184,1.981-.883,2.7-1.314.886-4.547.693-7.221-.432q-.113-.048-.222-.1c-2.512-1.12-3.518-2.685-2.242-3.546.816-.551,2.224-.516,3.37-.727a7.473,7.473,0,0,0,1.681-.49,5.844,5.844,0,0,0,.918-.6l-13.626-5.734-10.63,7.173c-.22-.074-.456-.172-.658-.262-.24-.107-.429-.2-.479-.233a3.106,3.106,0,0,1-.943-.9c-.4-.6-.365-1.334-1.358-1.778-1.735-.731-4.791-.164-6.878,1.244-2.063,1.392-2.4,3.085-.784,3.808,1.424.6,3.565.177,5.148.526a12.547,12.547,0,0,1,1.4.512c.048.021.094.042.137.063l-10.618,7.164,32.9,13.844Z" transform="translate(-732.386 -788.172)" fill="#005b9c"/>
            </g>
          </g>
        </g>
        <path id="Trazado_597720" data-name="Trazado 597720" d="M1128.3,1560.795c0,4.618-8.413,8.361-18.792,8.361s-18.791-3.742-18.791-8.361,8.413-8.361,18.791-8.361,18.792,3.743,18.792,8.361" transform="translate(-968.981 -1379.159)" fill="#727997" opacity="0.28"/>
        <path id="Trazado_597721" data-name="Trazado 597721" d="M1161.556,1611.056s-1.993-.365-1.432,1.262c0,0,4.654,2,7.9,1.548a2.035,2.035,0,0,0,1.926-2.555l.038-2.014-3.064.58.174,1.914Z" transform="translate(-1030.548 -1429.676)" fill="#e28262"/>
        <path id="Trazado_597722" data-name="Trazado 597722" d="M1147.145,1623.541a1.29,1.29,0,0,1-.306.864c-.8.924-2.379.952-3.488.882a37.533,37.533,0,0,1-5.308-.742c-.38-.08-.485-.2-.49-.316a1.549,1.549,0,0,1,1.194-.942l-1.7-.217a4.276,4.276,0,0,0-2.642.54c-.433,1.239,1.677,2.066,1.677,2.066a34.341,34.341,0,0,0,4.941,1.379s5.957,1.405,6.676-.427Z" transform="translate(-1007.739 -1441.905)" fill="#411423"/>
        <path id="Trazado_597723" data-name="Trazado 597723" d="M1267.574,1586.251s-1.993-.364-1.432,1.262c0,0,4.654,2,7.9,1.548a2.035,2.035,0,0,0,1.926-2.555l.038-2.014-3.064.58.174,1.914Z" transform="translate(-1124.733 -1407.639)" fill="#e28262"/>
        <path id="Trazado_597724" data-name="Trazado 597724" d="M1253.162,1598.736a1.286,1.286,0,0,1-.305.863c-.8.925-2.379.953-3.489.882a37.639,37.639,0,0,1-5.308-.742c-.38-.08-.485-.2-.49-.316a1.55,1.55,0,0,1,1.195-.942l-1.7-.217a4.274,4.274,0,0,0-2.642.54c-.433,1.238,1.677,2.065,1.677,2.065a34.362,34.362,0,0,0,4.941,1.38s5.957,1.4,6.677-.427Z" transform="translate(-1101.924 -1419.869)" fill="#411423"/>
        <path id="Trazado_597725" data-name="Trazado 597725" d="M1274.82,1073.055a5.688,5.688,0,1,0,5.688-5.688,5.689,5.689,0,0,0-5.688,5.688" transform="translate(-1132.531 -948.233)" fill="#003273"/>
        <path id="Trazado_597726" data-name="Trazado 597726" d="M1283.8,1139.517s-.079,1.43-2.648,1.465c0,0-2.431.829-3.481-2.337-4.137-12.469-3.044-25.482-3.044-25.482s5.841-3.253,11.281-1.028c0,0-.88,16.367-2.108,27.381" transform="translate(-1132.245 -987.314)" fill="#003273"/>
        <path id="Trazado_597727" data-name="Trazado 597727" d="M1302.938,1355.844s2,26.95,2.191,27.913a3.343,3.343,0,0,0,3.683-.034c-.01-1.322,1.431-12.342,1.58-14.412.255-3.557.683-8.051-1.565-13.163Z" transform="translate(-1157.511 -1204.512)" fill="#003273"/>
        <path id="Trazado_597728" data-name="Trazado 597728" d="M1166.412,1135.119s-.548,1.323-2.984.5c0,0-2.569-.023-2.511-3.357.227-13.136,5.984-26.749,5.984-26.749s6.483-.62,10.879,3.282c0,0-6.561,16.334-11.369,26.32" transform="translate(-1031.341 -982.093)" fill="#003d8d"/>
        <path id="Trazado_597729" data-name="Trazado 597729" d="M1213.271,1071.161a5.688,5.688,0,1,0,7.251-3.482,5.688,5.688,0,0,0-7.251,3.482" transform="translate(-1077.566 -948.224)" fill="#003d8d"/>
        <path id="Trazado_597730" data-name="Trazado 597730" d="M1231.852,1026.148c-.687-6.325-3.861-9.261-3.861-9.261L1217,1015.5a28.12,28.12,0,0,0-3.348,10.65c1.314,3.585,6,4.63,6,4.63l3.557,1.056s8.061-1.225,8.648-5.685" transform="translate(-1078.187 -902.154)" fill="#003d8d"/>
        <path id="Trazado_597731" data-name="Trazado 597731" d="M1163.73,1346.784s5.454,28.311,5.781,29.235c-.143-.069,2.578,1.251,3.782-.453-.205-1.306-.32-15.686-.479-17.755-.273-3.556-.236-6.874-3.215-11.6,0,0-7.446-5.33-5.869.57" transform="translate(-1033.646 -1193.995)" fill="#003d8d"/>
        <path id="Trazado_597732" data-name="Trazado 597732" d="M1336.382,924.779s-2,2.359-5.986,8.053l.688,1.167s6.823-3.437,9-7.3Z" transform="translate(-1181.904 -821.56)" fill="#e28262"/>
        <path id="Trazado_597733" data-name="Trazado 597733" d="M1323.325,795.439s5.136,11.208,8.221,10.781c0,0,1.064.067,1.278-.736,0,0,2.179-1.932-6.88-15.868a2.792,2.792,0,0,0-2.7-.878s-2.751,1.818.079,6.7" transform="translate(-1174.486 -700.659)" fill="#e28262"/>
        <rect id="Rect치ngulo_44952" data-name="Rect치ngulo 44952" width="5.552" height="5.901" transform="translate(140.532 86.007)" fill="#f5ae80"/>
        <path id="Trazado_597734" data-name="Trazado 597734" d="M1223.228,672.831l-.208-.943-.416-3.456a3.145,3.145,0,0,1,.206-1.4,3.192,3.192,0,0,0,.283-1.436,4.048,4.048,0,0,1,1.384-3.612c1.895-2.011,5.546-1.529,5.547-1.529a5.779,5.779,0,0,1,4.353,2.779,5.888,5.888,0,0,1,.52,4.8,9.753,9.753,0,0,1-3.337,4.191,7.875,7.875,0,0,1-3.126,1.131,13.654,13.654,0,0,1-3.34.273c-.464-.022-1.746-.253-1.866-.795" transform="translate(-1086.131 -586.69)" fill="#f39672"/>
        <path id="Trazado_597735" data-name="Trazado 597735" d="M1229.671,663.1c.274-.389,1.272-.629,1.272-.629,1.205,0,1.048,1.609,1.161,2.305.037.227.081.46.132.692.574,2.045,2.293,2.028,3.762,2.275q.081-.048.172-.1a5.88,5.88,0,0,1,1.112-1.849,7.886,7.886,0,0,0,2.086-8.033,6.39,6.39,0,0,0-1.377-2.3,8.119,8.119,0,0,0-4.56-2.351c-1.708-.322-7.819.507-6.152,4.219,0,0,2.514,2.9,2.39,5.771" transform="translate(-1090.045 -580.16)" fill="#2c130d"/>
        <path id="Trazado_597736" data-name="Trazado 597736" d="M1250.965,736.446a1.156,1.156,0,0,1,1.36-.8.91.91,0,0,1,.665.981c-.009.1-.031.2-.041.3a2.089,2.089,0,0,1-1.291,1.462" transform="translate(-1111.339 -653.504)" fill="#f7ae80"/>
        <path id="Trazado_597737" data-name="Trazado 597737" d="M1255.057,739.883a.612.612,0,0,0-.268-.073c-.4-.026-.731.6-.326.709a.23.23,0,0,1-.005.32c-.14.152-.327.369-.285.583.026.126.166.194.293.226.1.025.122-.054.041-.092a.456.456,0,0,1-.154-.126l-.012-.022a.066.066,0,0,1-.01-.016.135.135,0,0,1,0-.092.25.25,0,0,0,.314,0c.077-.092.019-.237.045-.343a.8.8,0,0,1,.094-.209.216.216,0,0,0-.149-.362.939.939,0,0,0-.123.009c-.169-.088.02-.343.123-.383a.326.326,0,0,1,.353.062.5.5,0,0,1,.112.358,1.178,1.178,0,0,1-.11.428c-.037.076-.083.166-.12.243s.059.125.1.037a2.541,2.541,0,0,0,.289-.7.536.536,0,0,0-.2-.547" transform="translate(-1114.183 -657.236)" fill="#dc9471"/>
        <path id="Trazado_597738" data-name="Trazado 597738" d="M1250.965,735.555s.048-.069.128-.194a1.625,1.625,0,0,1,.168-.194,1.318,1.318,0,0,1,.256-.2,1.069,1.069,0,0,1,.346-.125.9.9,0,0,1,.4.027,1.083,1.083,0,0,1,.2.085.941.941,0,0,1,.16.122.763.763,0,0,1,.211.359,1.08,1.08,0,0,1,.006.447l-.015.122,0,.016v0c0-.007,0,.018,0-.015v0l0,.007-.005.03-.012.06a1.337,1.337,0,0,1-.057.214,1.729,1.729,0,0,1-.188.375,2.235,2.235,0,0,1-.243.3,2.736,2.736,0,0,1-.457.379c-.121.08-.2.121-.2.121a1.416,1.416,0,0,0,.221-.073,2.3,2.3,0,0,0,.539-.309,1.848,1.848,0,0,0,.3-.3,1.6,1.6,0,0,0,.25-.413,1.559,1.559,0,0,0,.081-.243l.015-.059.007-.03,0-.008,0-.024,0-.016.018-.122a1.332,1.332,0,0,0-.005-.544,1.042,1.042,0,0,0-.3-.485,1.366,1.366,0,0,0-.109-.089l-.128-.071a1.137,1.137,0,0,0-.244-.086,1.017,1.017,0,0,0-.5.007,1.1,1.1,0,0,0-.392.2,1.12,1.12,0,0,0-.245.264,1.716,1.716,0,0,0-.137.236c-.052.137-.079.218-.079.218" transform="translate(-1111.339 -652.612)" fill="#dc9471"/>
        <path id="Trazado_597739" data-name="Trazado 597739" d="M1251.827,755.53a.336.336,0,1,1-.337-.337.336.336,0,0,1,.337.337" transform="translate(-1111.507 -670.902)" fill="#fff"/>
        <path id="Trazado_597740" data-name="Trazado 597740" d="M1251.571,755.709a.266.266,0,0,1-.266-.267.262.262,0,0,1,.185-.249.336.336,0,1,0,.337.337c0-.008,0-.016,0-.024a.263.263,0,0,1-.253.2" transform="translate(-1111.507 -670.902)" fill="#e8e8e8"/>
        <path id="Trazado_597741" data-name="Trazado 597741" d="M1215.972,818.1l-6.129-8.795a11.782,11.782,0,0,1,.359-3.864l1.959-13.477c-.232-1.544-.339-3.505-2.429-3.155a12.952,12.952,0,0,0-2.675.746c.266,1.252-1.894,2.056-1.894,2.056-2.972,1.284-3.658.438-3.658.438a44.1,44.1,0,0,0-4.159,2.335,3.063,3.063,0,0,0-.931,3.072l2.139,12.774-.376,3.173-3.907,9.905a8.4,8.4,0,0,1,3.806-.455c1.215.145,2.262.862,3.468,1a6.706,6.706,0,0,0,4.552-1.33,21.952,21.952,0,0,0,5.269-1.852h.115c1.364.007,2.908-.016,3.914-1.084.212-.225.836-1.113.578-1.483" transform="translate(-1060.972 -700.733)" fill="#ffd150"/>
        <path id="Trazado_597742" data-name="Trazado 597742" d="M1199.193,859.345l.036-15.517c.378-4.252,2.49-4.931,2.49-4.931,4.268-.5,3.611,7.409,3.611,7.409l-1.782,13.368" transform="translate(-1065.345 -745.243)" fill="#f39672"/>
        <path id="Trazado_597743" data-name="Trazado 597743" d="M1039.3,1067.793c1.958-1.048,2.133-1.386,2.478-1.879,1.488-2.115-1.521-2.048-2.278-1.876-.435.1-.462,1.133-1.81,2.395,0,0-2.119,1.23-2.641,1.143,0,0-.543.078-.543.469,0,0,1.488.879,4.794-.251" transform="translate(-919.044 -945.207)" fill="#f39672"/>
        <path id="Trazado_597744" data-name="Trazado 597744" d="M1094.541,1003.4l-13.291,7.275c-.574,1.6.164,1.829.164,1.829l10.29-2.96c4.392-1.176,6.134-3.02,6.134-3.02s1.921-1.331-.531-3.312a2.368,2.368,0,0,0-2.766.189" transform="translate(-960.373 -890.937)" fill="#f39672"/>
        <path id="Trazado_597745" data-name="Trazado 597745" d="M1236.466,663.645c.345,2.574-.044,5.98,1.239,8.792.571,1.252,1.2,1.873.858,3.325-.28,1.189-.842,2.31-1.147,3.541-.674,2.717.241,5.371,3.408,4.388a3.3,3.3,0,0,1,3.07.072,4.018,4.018,0,0,0,3.407.014c1.79-.872,1.251-2.19,2.254-3.51.764-1.006,1.844-.981,2.421-2.332.695-1.631-.133-2.5-.98-3.886a5.09,5.09,0,0,1-.733-4.13,5.98,5.98,0,0,0-.6-3.542c-.5-1.376-.28-2.575-.514-3.955-.465-2.729-1.956-6.432-4.814-7.233a8.019,8.019,0,0,0-4.559-.2c-1.836.673-3.88,1.391-3.8,3.648a37.3,37.3,0,0,0,.492,5.01" transform="translate(-1098.019 -581.653)" fill="#2c130d"/>
        <path id="Trazado_597746" data-name="Trazado 597746" d="M1061.677,1056.981s.373,1.089-.983.822l-1.328-1.011a.522.522,0,0,1-.266-.615s.159-.225.583,0Z" transform="translate(-940.861 -938.204)" fill="#f39672"/>
      </g>
    </g>
    <rect id="Rect치ngulo_44954" data-name="Rect치ngulo 44954" width="295" height="211" transform="translate(285 13286)" fill="none"/>
  </g>
</svg>
