<svg xmlns="http://www.w3.org/2000/svg" xmlns:xlink="http://www.w3.org/1999/xlink" width="1030" height="284" viewBox="0 0 1030 284">
  <defs>
    <clipPath id="clip-path">
      <path id="Unión_4" data-name="Unión 4" d="M498.4,182a19,19,0,0,1-19-19V91H340.6v72a19,19,0,0,1-19,19H178.8a19,19,0,0,1-19-19V91H0V19A19,19,0,0,1,19,0H161.8a19,19,0,0,1,19,19V91H319.6V19a19,19,0,0,1,19-19H481.4a19,19,0,0,1,19,19V91H639.2V19a19,19,0,0,1,19-19H801a19,19,0,0,1,19,19V91H660.2v72a19,19,0,0,1-19,19Z" transform="translate(0.001 -0.001)" fill="#ff2195"/>
    </clipPath>
    <clipPath id="clip-path-2">
      <rect id="Rectángulo_44574" data-name="Rectángulo 44574" width="834" height="201" transform="translate(0 0.474)" fill="#ff2195"/>
    </clipPath>
    <clipPath id="clip-path-3">
      <path id="Rectángulo_44573" data-name="Rectángulo 44573" d="M19,0H815a19,19,0,0,1,19,19V182a19,19,0,0,1-19,19H19A19,19,0,0,1,0,182V19A19,19,0,0,1,19,0Z" transform="translate(0 0.474)" fill="#ff2195"/>
    </clipPath>
    <clipPath id="clip-path-4">
      <rect id="Rectángulo_44572" data-name="Rectángulo 44572" width="834" height="320" transform="translate(0 0.474)" fill="#ff2195"/>
    </clipPath>
    <linearGradient id="linear-gradient" x1="0.5" x2="0.854" y2="0.319" gradientUnits="objectBoundingBox">
      <stop offset="0" stop-color="#00a6b7"/>
      <stop offset="1" stop-color="#4795e9"/>
    </linearGradient>
  </defs>
  <g id="Grupo_156342" data-name="Grupo 156342" transform="translate(-285 -1401)">
    <path id="Trazado_600380" data-name="Trazado 600380" d="M0,0H1030V284H0Z" transform="translate(285 1401)" fill="none"/>
    <path id="Trazado_600381" data-name="Trazado 600381" d="M7.559,14.078H5.081V19H2.857V6.2h4.5a5.235,5.235,0,0,1,3.419.994,3.516,3.516,0,0,1,1.2,2.876,3.6,3.6,0,0,1-.62,2.151,3.943,3.943,0,0,1-1.727,1.333l2.874,5.329V19H10.125ZM5.081,12.285H7.366a2.541,2.541,0,0,0,1.758-.567,1.977,1.977,0,0,0,.633-1.551,2.1,2.1,0,0,0-.584-1.591A2.483,2.483,0,0,0,7.427,8H5.081Zm12.99,6.891A4.419,4.419,0,0,1,14.779,17.9a4.639,4.639,0,0,1-1.261-3.406v-.264a5.706,5.706,0,0,1,.549-2.544A4.181,4.181,0,0,1,15.61,9.938a4.078,4.078,0,0,1,2.215-.624,3.733,3.733,0,0,1,3,1.239,5.24,5.24,0,0,1,1.059,3.507v.861H15.671a2.856,2.856,0,0,0,.787,1.863,2.362,2.362,0,0,0,1.736.686,2.892,2.892,0,0,0,2.391-1.187l1.151,1.1a3.845,3.845,0,0,1-1.525,1.323A4.774,4.774,0,0,1,18.071,19.176Zm-.255-8.147a1.8,1.8,0,0,0-1.419.615,3.189,3.189,0,0,0-.69,1.714h4.069V13.2a2.6,2.6,0,0,0-.571-1.622A1.785,1.785,0,0,0,17.816,11.028Zm5.326,3.138a5.619,5.619,0,0,1,1.02-3.542,3.313,3.313,0,0,1,2.76-1.31,3.114,3.114,0,0,1,2.522,1.116l.123-.94h1.9V22.656H29.33V18.191a3.188,3.188,0,0,1-2.426.984,3.282,3.282,0,0,1-2.733-1.332A5.884,5.884,0,0,1,23.142,14.166Zm2.136.185a3.968,3.968,0,0,0,.576,2.29,1.835,1.835,0,0,0,1.6.831A2.023,2.023,0,0,0,29.33,16.39V12.065a2.025,2.025,0,0,0-1.863-1.037,1.866,1.866,0,0,0-1.6.817A4.33,4.33,0,0,0,25.278,14.351Zm14.247,3.718a3.312,3.312,0,0,1-2.672,1.107,2.952,2.952,0,0,1-2.342-.905,3.851,3.851,0,0,1-.8-2.619V9.49h2.136v6.135q0,1.811,1.5,1.811a2.111,2.111,0,0,0,2.1-1.116V9.49H41.59V19H39.578Zm8.429,1.107A4.419,4.419,0,0,1,44.662,17.9,4.639,4.639,0,0,1,43.4,14.491v-.264a5.706,5.706,0,0,1,.549-2.544,4.181,4.181,0,0,1,1.542-1.745,4.078,4.078,0,0,1,2.215-.624,3.733,3.733,0,0,1,3,1.239,5.24,5.24,0,0,1,1.059,3.507v.861H45.554a2.856,2.856,0,0,0,.787,1.863,2.362,2.362,0,0,0,1.736.686,2.892,2.892,0,0,0,2.391-1.187l1.151,1.1a3.845,3.845,0,0,1-1.525,1.323A4.774,4.774,0,0,1,47.954,19.176ZM47.7,11.028a1.8,1.8,0,0,0-1.419.615,3.189,3.189,0,0,0-.69,1.714h4.069V13.2a2.6,2.6,0,0,0-.571-1.622A1.785,1.785,0,0,0,47.7,11.028Zm10.705.413a5.285,5.285,0,0,0-.87-.07A1.959,1.959,0,0,0,55.556,12.5V19H53.42V9.49h2.039l.053,1.063a2.406,2.406,0,0,1,2.145-1.239,2,2,0,0,1,.756.123ZM62.025,19H59.889V9.49h2.136ZM59.757,7.021a1.133,1.133,0,0,1,.312-.817,1.179,1.179,0,0,1,.892-.325,1.193,1.193,0,0,1,.9.325,1.125,1.125,0,0,1,.316.817,1.1,1.1,0,0,1-.316.8,1.2,1.2,0,0,1-.9.321,1.188,1.188,0,0,1-.892-.321A1.107,1.107,0,0,1,59.757,7.021Zm6.6,2.47.062.993a3.422,3.422,0,0,1,2.742-1.169,2.629,2.629,0,0,1,2.61,1.459A3.373,3.373,0,0,1,74.69,9.314a2.965,2.965,0,0,1,2.342.87,3.831,3.831,0,0,1,.787,2.566V19H75.683V12.813a1.891,1.891,0,0,0-.4-1.327,1.731,1.731,0,0,0-1.31-.422,1.778,1.778,0,0,0-1.191.391,2.063,2.063,0,0,0-.646,1.024L72.15,19H70.014V12.742A1.523,1.523,0,0,0,68.3,11.063a1.88,1.88,0,0,0-1.819,1.046V19H64.345V9.49ZM82.284,19H80.148V9.49h2.136ZM80.016,7.021a1.133,1.133,0,0,1,.312-.817,1.179,1.179,0,0,1,.892-.325,1.193,1.193,0,0,1,.9.325,1.125,1.125,0,0,1,.316.817,1.1,1.1,0,0,1-.316.8,1.2,1.2,0,0,1-.9.321,1.188,1.188,0,0,1-.892-.321A1.107,1.107,0,0,1,80.016,7.021ZM88.8,19.176A4.419,4.419,0,0,1,85.5,17.9a4.639,4.639,0,0,1-1.261-3.406v-.264a5.706,5.706,0,0,1,.549-2.544,4.181,4.181,0,0,1,1.542-1.745,4.078,4.078,0,0,1,2.215-.624,3.733,3.733,0,0,1,3,1.239,5.24,5.24,0,0,1,1.059,3.507v.861H86.4a2.856,2.856,0,0,0,.787,1.863,2.362,2.362,0,0,0,1.736.686,2.892,2.892,0,0,0,2.391-1.187l1.151,1.1a3.845,3.845,0,0,1-1.525,1.323A4.774,4.774,0,0,1,88.8,19.176Zm-.255-8.147a1.8,1.8,0,0,0-1.419.615,3.189,3.189,0,0,0-.69,1.714H90.5V13.2a2.6,2.6,0,0,0-.571-1.622A1.785,1.785,0,0,0,88.542,11.028ZM96.25,9.49l.062,1.1A3.419,3.419,0,0,1,99.08,9.314q2.971,0,3.023,3.4V19H99.967V12.839a1.958,1.958,0,0,0-.391-1.34,1.645,1.645,0,0,0-1.279-.435,2.058,2.058,0,0,0-1.925,1.169V19H94.237V9.49Zm10.705-2.312V9.49h1.679v1.582h-1.679v5.309a1.169,1.169,0,0,0,.215.787,1,1,0,0,0,.769.242,3.29,3.29,0,0,0,.747-.088v1.652a5.26,5.26,0,0,1-1.406.2q-2.461,0-2.461-2.716V11.072h-1.564V9.49h1.564V7.179Zm2.646,6.979a5.607,5.607,0,0,1,.554-2.518,4.044,4.044,0,0,1,1.556-1.723,4.383,4.383,0,0,1,2.3-.6,4.154,4.154,0,0,1,3.125,1.239,4.874,4.874,0,0,1,1.3,3.287l.009.5a5.658,5.658,0,0,1-.541,2.514,4,4,0,0,1-1.547,1.714,4.415,4.415,0,0,1-2.325.606,4.125,4.125,0,0,1-3.221-1.34,5.133,5.133,0,0,1-1.208-3.573Zm2.136.185a3.832,3.832,0,0,0,.606,2.3,1.971,1.971,0,0,0,1.688.831,1.95,1.95,0,0,0,1.683-.844,4.232,4.232,0,0,0,.6-2.47,3.782,3.782,0,0,0-.62-2.285,2.089,2.089,0,0,0-3.344-.013A4.152,4.152,0,0,0,111.736,14.342Zm13.843,2.074a.968.968,0,0,0-.47-.87,5,5,0,0,0-1.56-.527,8.02,8.02,0,0,1-1.819-.58,2.428,2.428,0,0,1-1.6-2.241,2.531,2.531,0,0,1,1.037-2.057,4.1,4.1,0,0,1,2.637-.826,4.266,4.266,0,0,1,2.755.844,2.677,2.677,0,0,1,1.05,2.188h-2.136a1.316,1.316,0,0,0-.457-1.024,1.752,1.752,0,0,0-1.213-.409,1.893,1.893,0,0,0-1.147.325,1.025,1.025,0,0,0-.444.87.866.866,0,0,0,.413.765,5.68,5.68,0,0,0,1.67.549,7.9,7.9,0,0,1,1.973.659,2.794,2.794,0,0,1,1.063.918,2.342,2.342,0,0,1,.347,1.3,2.478,2.478,0,0,1-1.063,2.079,4.535,4.535,0,0,1-2.786.8,4.917,4.917,0,0,1-2.083-.422,3.428,3.428,0,0,1-1.424-1.16,2.746,2.746,0,0,1-.51-1.591h2.074a1.5,1.5,0,0,0,.571,1.165,2.22,2.22,0,0,0,1.4.409,2.16,2.16,0,0,0,1.283-.321A.993.993,0,0,0,125.579,16.416Z" transform="translate(416 1631)" fill="#00316e"/>
    <path id="Trazado_600382" data-name="Trazado 600382" d="M22.408,14.834A4.621,4.621,0,0,1,20.9,18.029a5.154,5.154,0,0,1-3.507,1.147,4.99,4.99,0,0,1-2.694-.725,4.759,4.759,0,0,1-1.8-2.061,7.438,7.438,0,0,1-.659-3.1v-1.2a7.491,7.491,0,0,1,.642-3.19,4.835,4.835,0,0,1,1.841-2.127A5.136,5.136,0,0,1,17.5,6.027a4.946,4.946,0,0,1,3.41,1.147,4.793,4.793,0,0,1,1.5,3.248H20.193a3.161,3.161,0,0,0-.8-1.991A2.658,2.658,0,0,0,17.5,7.82a2.6,2.6,0,0,0-2.228,1.06,5.3,5.3,0,0,0-.8,3.11v1.135a5.62,5.62,0,0,0,.743,3.167,2.464,2.464,0,0,0,2.175,1.091,2.875,2.875,0,0,0,1.969-.589,3.071,3.071,0,0,0,.835-1.96Zm1.38-.677a5.607,5.607,0,0,1,.554-2.518A4.044,4.044,0,0,1,25.9,9.917a4.383,4.383,0,0,1,2.3-.6,4.154,4.154,0,0,1,3.125,1.239,4.874,4.874,0,0,1,1.3,3.287l.009.5a5.658,5.658,0,0,1-.541,2.514,4,4,0,0,1-1.547,1.714,4.415,4.415,0,0,1-2.325.606A4.125,4.125,0,0,1,25,17.835a5.133,5.133,0,0,1-1.208-3.573Zm2.136.185a3.832,3.832,0,0,0,.606,2.3,1.971,1.971,0,0,0,1.688.831,1.95,1.95,0,0,0,1.683-.844,4.232,4.232,0,0,0,.6-2.47,3.782,3.782,0,0,0-.62-2.285,2.089,2.089,0,0,0-3.344-.013A4.152,4.152,0,0,0,25.924,14.342ZM36.418,9.49l.062,1.1a3.419,3.419,0,0,1,2.769-1.274q2.971,0,3.023,3.4V19H40.136V12.839a1.958,1.958,0,0,0-.391-1.34,1.645,1.645,0,0,0-1.279-.435,2.058,2.058,0,0,0-1.925,1.169V19H34.405V9.49Zm13.359,6.926a.968.968,0,0,0-.47-.87,5,5,0,0,0-1.56-.527,8.02,8.02,0,0,1-1.819-.58,2.428,2.428,0,0,1-1.6-2.241,2.531,2.531,0,0,1,1.037-2.057A4.1,4.1,0,0,1,48,9.314a4.266,4.266,0,0,1,2.755.844,2.677,2.677,0,0,1,1.05,2.188H49.672a1.316,1.316,0,0,0-.457-1.024A1.752,1.752,0,0,0,48,10.914a1.893,1.893,0,0,0-1.147.325,1.025,1.025,0,0,0-.444.87.866.866,0,0,0,.413.765,5.68,5.68,0,0,0,1.67.549,7.9,7.9,0,0,1,1.973.659A2.794,2.794,0,0,1,51.531,15a2.342,2.342,0,0,1,.347,1.3,2.478,2.478,0,0,1-1.063,2.079,4.535,4.535,0,0,1-2.786.8,4.917,4.917,0,0,1-2.083-.422,3.428,3.428,0,0,1-1.424-1.16A2.746,2.746,0,0,1,44.012,16h2.074a1.5,1.5,0,0,0,.571,1.165,2.22,2.22,0,0,0,1.4.409,2.16,2.16,0,0,0,1.283-.321A.993.993,0,0,0,49.777,16.416Zm6.636-9.237V9.49h1.679v1.582H56.413v5.309a1.169,1.169,0,0,0,.215.787,1,1,0,0,0,.769.242,3.29,3.29,0,0,0,.747-.088v1.652a5.26,5.26,0,0,1-1.406.2q-2.461,0-2.461-2.716V11.072H52.713V9.49h1.564V7.179ZM64.7,11.441a5.285,5.285,0,0,0-.87-.07A1.959,1.959,0,0,0,61.854,12.5V19H59.718V9.49h2.039l.053,1.063a2.406,2.406,0,0,1,2.145-1.239,2,2,0,0,1,.756.123Zm7.11,6.627a3.312,3.312,0,0,1-2.672,1.107,2.952,2.952,0,0,1-2.342-.905,3.851,3.851,0,0,1-.8-2.619V9.49h2.136v6.135q0,1.811,1.5,1.811a2.111,2.111,0,0,0,2.1-1.116V9.49h2.136V19H71.864Zm8.147-.6A1.931,1.931,0,0,0,81.286,17a1.591,1.591,0,0,0,.563-1.151h2.013a3.137,3.137,0,0,1-.554,1.657A3.632,3.632,0,0,1,81.9,18.728a4.191,4.191,0,0,1-1.916.448,4.055,4.055,0,0,1-3.164-1.292,5.124,5.124,0,0,1-1.169-3.568V14.1a5.039,5.039,0,0,1,1.16-3.476,4.018,4.018,0,0,1,3.164-1.305,3.907,3.907,0,0,1,2.764.989,3.542,3.542,0,0,1,1.121,2.6H81.849a1.956,1.956,0,0,0-.558-1.345,1.8,1.8,0,0,0-1.332-.527,1.879,1.879,0,0,0-1.6.751,3.834,3.834,0,0,0-.571,2.281V14.4a3.9,3.9,0,0,0,.558,2.307A1.878,1.878,0,0,0,79.959,17.471Zm9.422,0A1.931,1.931,0,0,0,90.708,17a1.591,1.591,0,0,0,.563-1.151h2.013a3.137,3.137,0,0,1-.554,1.657,3.632,3.632,0,0,1-1.406,1.217,4.191,4.191,0,0,1-1.916.448,4.055,4.055,0,0,1-3.164-1.292,5.124,5.124,0,0,1-1.169-3.568V14.1a5.039,5.039,0,0,1,1.16-3.476A4.018,4.018,0,0,1,89.4,9.314a3.907,3.907,0,0,1,2.764.989,3.542,3.542,0,0,1,1.121,2.6H91.271a1.956,1.956,0,0,0-.558-1.345,1.8,1.8,0,0,0-1.332-.527,1.879,1.879,0,0,0-1.6.751,3.834,3.834,0,0,0-.571,2.281V14.4a3.9,3.9,0,0,0,.558,2.307A1.878,1.878,0,0,0,89.381,17.471ZM97.168,19H95.032V9.49h2.136ZM94.9,7.021a1.133,1.133,0,0,1,.312-.817,1.179,1.179,0,0,1,.892-.325A1.193,1.193,0,0,1,97,6.2a1.125,1.125,0,0,1,.316.817,1.1,1.1,0,0,1-.316.8,1.2,1.2,0,0,1-.9.321,1.188,1.188,0,0,1-.892-.321A1.107,1.107,0,0,1,94.9,7.021Zm4.192,7.137a5.607,5.607,0,0,1,.554-2.518A4.044,4.044,0,0,1,101.2,9.917a4.383,4.383,0,0,1,2.3-.6,4.154,4.154,0,0,1,3.125,1.239,4.874,4.874,0,0,1,1.3,3.287l.009.5a5.658,5.658,0,0,1-.541,2.514,4,4,0,0,1-1.547,1.714,4.415,4.415,0,0,1-2.325.606,4.125,4.125,0,0,1-3.221-1.34,5.133,5.133,0,0,1-1.208-3.573Zm2.136.185a3.832,3.832,0,0,0,.606,2.3,1.971,1.971,0,0,0,1.688.831,1.95,1.95,0,0,0,1.683-.844,4.232,4.232,0,0,0,.6-2.47,3.782,3.782,0,0,0-.62-2.285,2.089,2.089,0,0,0-3.344-.013A4.152,4.152,0,0,0,101.229,14.342ZM104.094,5.5h2.435l-2.435,2.663-1.714,0Zm7.629,3.99.062,1.1a3.419,3.419,0,0,1,2.769-1.274q2.971,0,3.023,3.4V19H115.44V12.839a1.958,1.958,0,0,0-.391-1.34,1.645,1.645,0,0,0-1.279-.435,2.058,2.058,0,0,0-1.925,1.169V19H109.71V9.49Z" transform="translate(735 1631)" fill="#00316e"/>
    <path id="Trazado_600383" data-name="Trazado 600383" d="M21.345,6.2l3.691,9.809L28.719,6.2h2.874V19H29.378V14.781l.22-5.643L25.818,19H24.228L20.457,9.147l.22,5.634V19H18.462V6.2Zm12.27,7.954a5.607,5.607,0,0,1,.554-2.518,4.044,4.044,0,0,1,1.556-1.723,4.383,4.383,0,0,1,2.3-.6,4.154,4.154,0,0,1,3.125,1.239,4.874,4.874,0,0,1,1.3,3.287l.009.5a5.658,5.658,0,0,1-.541,2.514,4,4,0,0,1-1.547,1.714,4.415,4.415,0,0,1-2.325.606,4.125,4.125,0,0,1-3.221-1.34,5.133,5.133,0,0,1-1.208-3.573Zm2.136.185a3.832,3.832,0,0,0,.606,2.3,1.971,1.971,0,0,0,1.688.831,1.95,1.95,0,0,0,1.683-.844,4.232,4.232,0,0,0,.6-2.47,3.782,3.782,0,0,0-.62-2.285,2.089,2.089,0,0,0-3.344-.013A4.152,4.152,0,0,0,35.75,14.342Zm8.112-.167a5.654,5.654,0,0,1,1.02-3.529,3.267,3.267,0,0,1,2.733-1.332,3.1,3.1,0,0,1,2.443,1.055V5.5h2.136V19H50.261l-.105-.984a3.148,3.148,0,0,1-2.558,1.16,3.248,3.248,0,0,1-2.7-1.345A5.861,5.861,0,0,1,43.862,14.175ZM46,14.359a3.958,3.958,0,0,0,.558,2.263,1.811,1.811,0,0,0,1.586.813,2.017,2.017,0,0,0,1.916-1.169V12.206a1.986,1.986,0,0,0-1.9-1.143,1.824,1.824,0,0,0-1.6.822A4.408,4.408,0,0,0,46,14.359ZM56.694,19H54.559V9.49h2.136ZM54.427,7.021a1.133,1.133,0,0,1,.312-.817,1.179,1.179,0,0,1,.892-.325,1.193,1.193,0,0,1,.9.325,1.125,1.125,0,0,1,.316.817,1.1,1.1,0,0,1-.316.8,1.2,1.2,0,0,1-.9.321,1.188,1.188,0,0,1-.892-.321A1.107,1.107,0,0,1,54.427,7.021ZM59.586,19V11.072h-1.45V9.49h1.45V8.84a3.8,3.8,0,0,1,.475-1.916,2.952,2.952,0,0,1,1.318-1.2,4.745,4.745,0,0,1,2.048-.4,5.969,5.969,0,0,1,1.349.149q.646.149,1.34.378l-.325,1.767a6.8,6.8,0,0,0-2.215-.422,1.979,1.979,0,0,0-1.415.426,1.705,1.705,0,0,0-.439,1.279v.6h1.872v1.582H61.722V19Zm7.541,0H64.991V9.49h2.136ZM73.4,17.471A1.931,1.931,0,0,0,74.729,17a1.591,1.591,0,0,0,.563-1.151H77.3a3.137,3.137,0,0,1-.554,1.657,3.632,3.632,0,0,1-1.406,1.217,4.191,4.191,0,0,1-1.916.448,4.055,4.055,0,0,1-3.164-1.292A5.124,5.124,0,0,1,69.1,14.315V14.1a5.039,5.039,0,0,1,1.16-3.476A4.018,4.018,0,0,1,73.42,9.314a3.907,3.907,0,0,1,2.764.989A3.542,3.542,0,0,1,77.3,12.9H75.292a1.956,1.956,0,0,0-.558-1.345,1.8,1.8,0,0,0-1.332-.527,1.879,1.879,0,0,0-1.6.751,3.834,3.834,0,0,0-.571,2.281V14.4a3.9,3.9,0,0,0,.558,2.307A1.878,1.878,0,0,0,73.4,17.471ZM84.6,19a3.3,3.3,0,0,1-.246-.888,3.593,3.593,0,0,1-4.834.246,2.615,2.615,0,0,1-.905-2.021A2.7,2.7,0,0,1,79.744,14a5.473,5.473,0,0,1,3.23-.813h1.31v-.624a1.666,1.666,0,0,0-.413-1.182,1.638,1.638,0,0,0-1.257-.444,1.881,1.881,0,0,0-1.2.365,1.129,1.129,0,0,0-.466.927H78.816a2.37,2.37,0,0,1,.519-1.463A3.455,3.455,0,0,1,80.746,9.7a4.955,4.955,0,0,1,1.991-.387,3.99,3.99,0,0,1,2.663.839,2.993,2.993,0,0,1,1.02,2.36V16.8a4.861,4.861,0,0,0,.36,2.048V19Zm-2.347-1.538a2.429,2.429,0,0,0,1.191-.308,2.055,2.055,0,0,0,.839-.826V14.535H83.132a3.148,3.148,0,0,0-1.784.413,1.338,1.338,0,0,0-.6,1.169,1.248,1.248,0,0,0,.409.98A1.583,1.583,0,0,0,82.253,17.462Zm10.31.009A1.931,1.931,0,0,0,93.89,17a1.591,1.591,0,0,0,.563-1.151h2.013a3.137,3.137,0,0,1-.554,1.657A3.632,3.632,0,0,1,94.5,18.728a4.191,4.191,0,0,1-1.916.448,4.055,4.055,0,0,1-3.164-1.292,5.124,5.124,0,0,1-1.169-3.568V14.1a5.039,5.039,0,0,1,1.16-3.476A4.018,4.018,0,0,1,92.58,9.314a3.907,3.907,0,0,1,2.764.989,3.542,3.542,0,0,1,1.121,2.6H94.452a1.956,1.956,0,0,0-.558-1.345,1.8,1.8,0,0,0-1.332-.527,1.879,1.879,0,0,0-1.6.751,3.834,3.834,0,0,0-.571,2.281V14.4a3.9,3.9,0,0,0,.558,2.307A1.878,1.878,0,0,0,92.563,17.471ZM100.35,19H98.214V9.49h2.136ZM98.082,7.021a1.133,1.133,0,0,1,.312-.817,1.179,1.179,0,0,1,.892-.325,1.193,1.193,0,0,1,.9.325,1.125,1.125,0,0,1,.316.817,1.1,1.1,0,0,1-.316.8,1.2,1.2,0,0,1-.9.321,1.188,1.188,0,0,1-.892-.321A1.107,1.107,0,0,1,98.082,7.021Zm4.192,7.137a5.607,5.607,0,0,1,.554-2.518,4.044,4.044,0,0,1,1.556-1.723,4.383,4.383,0,0,1,2.3-.6,4.154,4.154,0,0,1,3.125,1.239,4.874,4.874,0,0,1,1.3,3.287l.009.5a5.658,5.658,0,0,1-.541,2.514,4,4,0,0,1-1.547,1.714,4.415,4.415,0,0,1-2.325.606,4.125,4.125,0,0,1-3.221-1.34,5.133,5.133,0,0,1-1.208-3.573Zm2.136.185a3.832,3.832,0,0,0,.606,2.3,1.971,1.971,0,0,0,1.688.831,1.95,1.95,0,0,0,1.683-.844,4.232,4.232,0,0,0,.6-2.47,3.782,3.782,0,0,0-.62-2.285,2.089,2.089,0,0,0-3.344-.013A4.152,4.152,0,0,0,104.41,14.342ZM107.275,5.5h2.435l-2.435,2.663-1.714,0ZM114.9,9.49l.062,1.1a3.419,3.419,0,0,1,2.769-1.274q2.971,0,3.023,3.4V19h-2.136V12.839a1.958,1.958,0,0,0-.391-1.34,1.645,1.645,0,0,0-1.279-.435,2.058,2.058,0,0,0-1.925,1.169V19h-2.136V9.49Z" transform="translate(1050 1631)" fill="#00316e"/>
    <path id="Trazado_600384" data-name="Trazado 600384" d="M38.519,19V6.2H42.3a5.928,5.928,0,0,1,3.01.756A5.154,5.154,0,0,1,47.343,9.1a6.807,6.807,0,0,1,.721,3.182v.642a6.779,6.779,0,0,1-.725,3.2,5.092,5.092,0,0,1-2.065,2.127A6.2,6.2,0,0,1,42.2,19ZM40.742,8v9.229h1.45a3.339,3.339,0,0,0,2.685-1.094,4.766,4.766,0,0,0,.954-3.142v-.712a4.891,4.891,0,0,0-.905-3.182A3.209,3.209,0,0,0,42.3,8Zm11.6,11H50.208V9.49h2.136ZM50.076,7.021a1.133,1.133,0,0,1,.312-.817,1.179,1.179,0,0,1,.892-.325,1.193,1.193,0,0,1,.9.325,1.125,1.125,0,0,1,.316.817,1.1,1.1,0,0,1-.316.8,1.2,1.2,0,0,1-.9.321,1.188,1.188,0,0,1-.892-.321A1.107,1.107,0,0,1,50.076,7.021ZM60,16.416a.968.968,0,0,0-.47-.87,5,5,0,0,0-1.56-.527,8.02,8.02,0,0,1-1.819-.58,2.428,2.428,0,0,1-1.6-2.241,2.531,2.531,0,0,1,1.037-2.057,4.1,4.1,0,0,1,2.637-.826,4.266,4.266,0,0,1,2.755.844,2.677,2.677,0,0,1,1.05,2.188H59.894a1.316,1.316,0,0,0-.457-1.024,1.752,1.752,0,0,0-1.213-.409,1.893,1.893,0,0,0-1.147.325,1.025,1.025,0,0,0-.444.87.866.866,0,0,0,.413.765,5.68,5.68,0,0,0,1.67.549,7.9,7.9,0,0,1,1.973.659A2.794,2.794,0,0,1,61.752,15a2.342,2.342,0,0,1,.347,1.3,2.478,2.478,0,0,1-1.063,2.079,4.535,4.535,0,0,1-2.786.8,4.917,4.917,0,0,1-2.083-.422,3.428,3.428,0,0,1-1.424-1.16A2.746,2.746,0,0,1,54.233,16h2.074a1.5,1.5,0,0,0,.571,1.165,2.22,2.22,0,0,0,1.4.409,2.16,2.16,0,0,0,1.283-.321A.993.993,0,0,0,60,16.416Zm8.147,2.76A4.419,4.419,0,0,1,64.855,17.9a4.639,4.639,0,0,1-1.261-3.406v-.264a5.706,5.706,0,0,1,.549-2.544,4.181,4.181,0,0,1,1.542-1.745A4.078,4.078,0,0,1,67.9,9.314a3.733,3.733,0,0,1,3,1.239,5.24,5.24,0,0,1,1.059,3.507v.861H65.747a2.856,2.856,0,0,0,.787,1.863,2.362,2.362,0,0,0,1.736.686,2.892,2.892,0,0,0,2.391-1.187l1.151,1.1a3.845,3.845,0,0,1-1.525,1.323A4.774,4.774,0,0,1,68.146,19.176Zm-.255-8.147a1.8,1.8,0,0,0-1.419.615,3.189,3.189,0,0,0-.69,1.714h4.069V13.2a2.6,2.6,0,0,0-.571-1.622A1.785,1.785,0,0,0,67.892,11.028ZM75.6,9.49l.062,1.1A3.419,3.419,0,0,1,78.43,9.314q2.971,0,3.023,3.4V19H79.317V12.839a1.958,1.958,0,0,0-.391-1.34,1.645,1.645,0,0,0-1.279-.435,2.058,2.058,0,0,0-1.925,1.169V19H73.587V9.49Zm5.186-3.8A2.363,2.363,0,0,1,80.227,7.3a1.78,1.78,0,0,1-1.4.642,2.088,2.088,0,0,1-.593-.075,3.773,3.773,0,0,1-.712-.338,3.519,3.519,0,0,0-.65-.316,1.551,1.551,0,0,0-.417-.053.745.745,0,0,0-.567.25.923.923,0,0,0-.233.655L74.343,8A2.43,2.43,0,0,1,74.9,6.37a1.752,1.752,0,0,1,1.393-.659,2.593,2.593,0,0,1,1.208.4,2.555,2.555,0,0,0,1.165.4.759.759,0,0,0,.571-.25.925.925,0,0,0,.237-.664Zm2.443,8.464a5.607,5.607,0,0,1,.554-2.518,4.044,4.044,0,0,1,1.556-1.723,4.383,4.383,0,0,1,2.3-.6,4.154,4.154,0,0,1,3.125,1.239,4.874,4.874,0,0,1,1.3,3.287l.009.5a5.658,5.658,0,0,1-.541,2.514,4,4,0,0,1-1.547,1.714,4.415,4.415,0,0,1-2.325.606,4.125,4.125,0,0,1-3.221-1.34,5.133,5.133,0,0,1-1.208-3.573Zm2.136.185a3.832,3.832,0,0,0,.606,2.3,1.971,1.971,0,0,0,1.688.831,1.95,1.95,0,0,0,1.683-.844,4.232,4.232,0,0,0,.6-2.47,3.782,3.782,0,0,0-.62-2.285,2.089,2.089,0,0,0-3.344-.013A4.152,4.152,0,0,0,85.364,14.342Z" transform="translate(575 1427)" fill="#00316e"/>
    <path id="Trazado_600385" data-name="Trazado 600385" d="M41.625,16.021H36.668L35.631,19H33.32L38.154,6.2h2L44.992,19h-2.32Zm-4.333-1.793H41L39.147,8.919ZM47.8,9.49l.062,1.1a3.419,3.419,0,0,1,2.769-1.274q2.971,0,3.023,3.4V19H51.513V12.839a1.958,1.958,0,0,0-.391-1.34,1.645,1.645,0,0,0-1.279-.435,2.058,2.058,0,0,0-1.925,1.169V19H45.783V9.49ZM61.506,19a3.3,3.3,0,0,1-.246-.888,3.593,3.593,0,0,1-4.834.246,2.615,2.615,0,0,1-.905-2.021A2.7,2.7,0,0,1,56.65,14a5.473,5.473,0,0,1,3.23-.813h1.31v-.624a1.666,1.666,0,0,0-.413-1.182,1.638,1.638,0,0,0-1.257-.444,1.881,1.881,0,0,0-1.2.365,1.129,1.129,0,0,0-.466.927H55.723a2.37,2.37,0,0,1,.519-1.463A3.455,3.455,0,0,1,57.652,9.7a4.955,4.955,0,0,1,1.991-.387,3.99,3.99,0,0,1,2.663.839,2.993,2.993,0,0,1,1.02,2.36V16.8a4.861,4.861,0,0,0,.36,2.048V19ZM59.16,17.462a2.429,2.429,0,0,0,1.191-.308,2.055,2.055,0,0,0,.839-.826V14.535H60.039a3.148,3.148,0,0,0-1.784.413,1.338,1.338,0,0,0-.6,1.169,1.248,1.248,0,0,0,.409.98A1.583,1.583,0,0,0,59.16,17.462ZM60.346,5.5h2.435L60.346,8.163l-1.714,0ZM67.834,19H65.7V5.5h2.136Zm4.6,0H70.3V9.49h2.136ZM70.164,7.021a1.133,1.133,0,0,1,.312-.817,1.179,1.179,0,0,1,.892-.325,1.193,1.193,0,0,1,.9.325,1.125,1.125,0,0,1,.316.817,1.1,1.1,0,0,1-.316.8,1.2,1.2,0,0,1-.9.321,1.188,1.188,0,0,1-.892-.321A1.107,1.107,0,0,1,70.164,7.021Zm9.923,9.4a.968.968,0,0,0-.47-.87,5,5,0,0,0-1.56-.527,8.02,8.02,0,0,1-1.819-.58,2.428,2.428,0,0,1-1.6-2.241,2.531,2.531,0,0,1,1.037-2.057,4.1,4.1,0,0,1,2.637-.826,4.266,4.266,0,0,1,2.755.844,2.677,2.677,0,0,1,1.05,2.188H79.981a1.316,1.316,0,0,0-.457-1.024,1.752,1.752,0,0,0-1.213-.409,1.893,1.893,0,0,0-1.147.325,1.025,1.025,0,0,0-.444.87.866.866,0,0,0,.413.765,5.68,5.68,0,0,0,1.67.549,7.9,7.9,0,0,1,1.973.659A2.794,2.794,0,0,1,81.84,15a2.342,2.342,0,0,1,.347,1.3,2.478,2.478,0,0,1-1.063,2.079,4.535,4.535,0,0,1-2.786.8,4.917,4.917,0,0,1-2.083-.422,3.428,3.428,0,0,1-1.424-1.16A2.746,2.746,0,0,1,74.321,16H76.4a1.5,1.5,0,0,0,.571,1.165,2.22,2.22,0,0,0,1.4.409,2.16,2.16,0,0,0,1.283-.321A.993.993,0,0,0,80.086,16.416ZM86.318,19H84.182V9.49h2.136ZM84.05,7.021a1.133,1.133,0,0,1,.312-.817,1.179,1.179,0,0,1,.892-.325,1.193,1.193,0,0,1,.9.325,1.125,1.125,0,0,1,.316.817,1.1,1.1,0,0,1-.316.8,1.2,1.2,0,0,1-.9.321,1.188,1.188,0,0,1-.892-.321A1.107,1.107,0,0,1,84.05,7.021Zm9.923,9.4a.968.968,0,0,0-.47-.87,5,5,0,0,0-1.56-.527,8.02,8.02,0,0,1-1.819-.58,2.428,2.428,0,0,1-1.6-2.241,2.531,2.531,0,0,1,1.037-2.057A4.1,4.1,0,0,1,92.2,9.314a4.266,4.266,0,0,1,2.755.844A2.677,2.677,0,0,1,96,12.347H93.868a1.316,1.316,0,0,0-.457-1.024,1.752,1.752,0,0,0-1.213-.409,1.893,1.893,0,0,0-1.147.325,1.025,1.025,0,0,0-.444.87.866.866,0,0,0,.413.765,5.68,5.68,0,0,0,1.67.549,7.9,7.9,0,0,1,1.973.659A2.794,2.794,0,0,1,95.727,15a2.342,2.342,0,0,1,.347,1.3A2.478,2.478,0,0,1,95.01,18.38a4.535,4.535,0,0,1-2.786.8,4.917,4.917,0,0,1-2.083-.422,3.428,3.428,0,0,1-1.424-1.16A2.746,2.746,0,0,1,88.208,16h2.074a1.5,1.5,0,0,0,.571,1.165,2.22,2.22,0,0,0,1.4.409,2.16,2.16,0,0,0,1.283-.321A.993.993,0,0,0,93.973,16.416Z" transform="translate(890 1427)" fill="#00316e"/>
    <g id="Enmascarar_grupo_69" data-name="Enmascarar grupo 69" transform="translate(389.999 1449.001)" clip-path="url(#clip-path)">
      <g id="Grupo_155252" data-name="Grupo 155252" transform="translate(0.001 -129.475)">
        <g id="Grupo_155251" data-name="Grupo 155251" transform="translate(0 0)">
          <g id="Grupo_155250" data-name="Grupo 155250" transform="translate(-7 116)" clip-path="url(#clip-path-2)">
            <g id="Grupo_155249" data-name="Grupo 155249">
              <g id="Grupo_155248" data-name="Grupo 155248" clip-path="url(#clip-path-3)">
                <g id="Grupo_155247" data-name="Grupo 155247">
                  <g id="Grupo_155246" data-name="Grupo 155246">
                    <g id="Grupo_155245" data-name="Grupo 155245" clip-path="url(#clip-path-4)">
                      <path id="Trazado_598847" data-name="Trazado 598847" d="M0,0H834.3V204.116H0Z" transform="translate(-0.126 0.071)" fill="url(#linear-gradient)"/>
                    </g>
                  </g>
                </g>
              </g>
            </g>
          </g>
        </g>
      </g>
    </g>
    <path id="Trazado_600386" data-name="Trazado 600386" d="M19,0H120a19,19,0,0,1,19,19V120a19,19,0,0,1-19,19H19A19,19,0,0,1,0,120V19A19,19,0,0,1,19,0Z" transform="translate(1050 1470)" fill="#b6c3d4"/>
    <path id="Trazado_596392" data-name="Trazado 596392" d="M120.616,0H18.94A18.97,18.97,0,0,0,0,19V121a18.97,18.97,0,0,0,18.94,19H120.616a18.97,18.97,0,0,0,18.94-19V19A18.97,18.97,0,0,0,120.616,0Z" transform="translate(730.445 1470)" fill="#b6c3d4"/>
    <path id="Trazado_600387" data-name="Trazado 600387" d="M19,0H120a19,19,0,0,1,19,19V120a19,19,0,0,1-19,19H19A19,19,0,0,1,0,120V19A19,19,0,0,1,19,0Z" transform="translate(411 1470)" fill="#b6c3d4"/>
    <path id="Trazado_600388" data-name="Trazado 600388" d="M19,0H121a19,19,0,0,1,19,19V121a19,19,0,0,1-19,19H19A19,19,0,0,1,0,121V19A19,19,0,0,1,19,0Z" transform="translate(890 1469)" fill="#b6c3d4"/>
    <path id="Trazado_600389" data-name="Trazado 600389" d="M19,0H120a19,19,0,0,1,19,19V120a19,19,0,0,1-19,19H19A19,19,0,0,1,0,120V19A19,19,0,0,1,19,0Z" transform="translate(571 1470)" fill="#b6c3d4"/>
    <path id="Trazado_600390" data-name="Trazado 600390" d="M19,0h83a19,19,0,0,1,19,19v83a19,19,0,0,1-19,19H19A19,19,0,0,1,0,102V19A19,19,0,0,1,19,0Z" transform="translate(420 1479)" fill="#fff"/>
    <path id="Trazado_600391" data-name="Trazado 600391" d="M19,0h83a19,19,0,0,1,19,19v83a19,19,0,0,1-19,19H19A19,19,0,0,1,0,102V19A19,19,0,0,1,19,0Z" transform="translate(580 1480)" fill="#fff"/>
    <path id="Trazado_600392" data-name="Trazado 600392" d="M19,0h83a19,19,0,0,1,19,19v83a19,19,0,0,1-19,19H19A19,19,0,0,1,0,102V19A19,19,0,0,1,19,0Z" transform="translate(740 1479)" fill="#fff"/>
    <path id="Trazado_600393" data-name="Trazado 600393" d="M19,0h83a19,19,0,0,1,19,19v83a19,19,0,0,1-19,19H19A19,19,0,0,1,0,102V19A19,19,0,0,1,19,0Z" transform="translate(899 1480)" fill="#fff"/>
    <path id="Trazado_600394" data-name="Trazado 600394" d="M19,0h83a19,19,0,0,1,19,19v83a19,19,0,0,1-19,19H19A19,19,0,0,1,0,102V19A19,19,0,0,1,19,0Z" transform="translate(1059 1479)" fill="#fff"/>
    <g id="lista-de-tareas" transform="translate(431.918 1495)">
      <path id="Trazado_596393" data-name="Trazado 596393" d="M425.954,120.49a4.246,4.246,0,0,0-4.241,4.241V159.3a1.273,1.273,0,0,0,.1.475l3.028,7.268a1.208,1.208,0,0,0,2.23,0l3.028-7.267a1.269,1.269,0,0,0,.1-.476V124.731A4.245,4.245,0,0,0,425.954,120.49Zm0,42.951-1.221-2.929h2.441Zm1.824-5.345h-3.649V131.4h3.649Zm0-29.114h-3.649v-4.251a1.825,1.825,0,0,1,3.649,0v4.251Z" transform="translate(-353.108 -105.933)" fill="#516e75"/>
      <path id="Trazado_596394" data-name="Trazado 596394" d="M106.772,291.6l-3.264,3.731-.925-1.234a1.208,1.208,0,1,0-1.933,1.45l1.82,2.426a1.209,1.209,0,0,0,1.876.071l4.246-4.852a1.208,1.208,0,1,0-1.818-1.591Z" transform="translate(-70.621 -256.004)" fill="#516e75"/>
      <path id="Trazado_596395" data-name="Trazado 596395" d="M102.47,137.315a1.208,1.208,0,0,0,1.876.071l4.246-4.852a1.208,1.208,0,1,0-1.818-1.591l-3.264,3.731-.925-1.234a1.208,1.208,0,0,0-1.933,1.45Z" transform="translate(-70.622 -114.759)" fill="#516e75"/>
      <path id="Trazado_596396" data-name="Trazado 596396" d="M101.616,218.127h6.065a1.208,1.208,0,0,0,1.208-1.208v-4.852a1.208,1.208,0,0,0-1.208-1.208h-6.065a1.208,1.208,0,0,0-1.208,1.208v4.852A1.208,1.208,0,0,0,101.616,218.127Zm1.208-4.852h3.649v2.436h-3.649Z" transform="translate(-70.621 -185.383)" fill="#516e75"/>
      <path id="Trazado_596397" data-name="Trazado 596397" d="M101.616,378.779h6.065a1.208,1.208,0,0,0,1.208-1.208v-4.852a1.208,1.208,0,0,0-1.208-1.208h-6.065a1.208,1.208,0,0,0-1.208,1.208v4.852A1.208,1.208,0,0,0,101.616,378.779Zm1.208-4.852h3.649v2.436h-3.649Z" transform="translate(-70.621 -326.626)" fill="#516e75"/>
      <path id="Trazado_596398" data-name="Trazado 596398" d="M194.409,137.8H202.9a3.634,3.634,0,1,0,0-7.269h-8.491a3.634,3.634,0,0,0,0,7.269Zm0-4.852H202.9a1.218,1.218,0,0,1,0,2.436h-8.491a1.218,1.218,0,0,1,0-2.436Z" transform="translate(-150.071 -114.76)" fill="#516e75"/>
      <path id="Trazado_596399" data-name="Trazado 596399" d="M194.409,218.127H202.9a3.634,3.634,0,1,0,0-7.269h-8.491a3.634,3.634,0,1,0,0,7.269Zm0-4.852H202.9a1.218,1.218,0,1,1,0,2.436h-8.491a1.218,1.218,0,1,1,0-2.436Z" transform="translate(-150.071 -185.383)" fill="#516e75"/>
      <path id="Trazado_596400" data-name="Trazado 596400" d="M194.409,298.453H202.9a3.634,3.634,0,1,0,0-7.269h-8.491a3.634,3.634,0,1,0,0,7.269Zm0-4.852H202.9a1.218,1.218,0,1,1,0,2.436h-8.491a1.218,1.218,0,1,1,0-2.436Z" transform="translate(-150.071 -256.005)" fill="#516e75"/>
      <path id="Trazado_596401" data-name="Trazado 596401" d="M194.409,378.779H202.9a3.634,3.634,0,1,0,0-7.269h-8.491a3.634,3.634,0,0,0,0,7.269Zm0-4.852H202.9a1.218,1.218,0,0,1,0,2.436h-8.491a1.218,1.218,0,1,1,0-2.436Z" transform="translate(-150.071 -326.626)" fill="#516e75"/>
      <path id="Trazado_596402" data-name="Trazado 596402" d="M61.322,6.065h-6.07V4.847a1.208,1.208,0,0,0-1.208-1.208H52.83A2.434,2.434,0,0,1,50.4,1.208,1.208,1.208,0,0,0,49.191,0H37.06a1.208,1.208,0,0,0-1.208,1.208,2.434,2.434,0,0,1-2.431,2.431H32.208A1.208,1.208,0,0,0,31,4.847V6.065h-6.07a4.853,4.853,0,0,0-4.847,4.847v46.1a4.853,4.853,0,0,0,4.847,4.847H61.322a4.853,4.853,0,0,0,4.847-4.847v-46.1a4.853,4.853,0,0,0-4.847-4.847Zm-27.906-.01h0a4.856,4.856,0,0,0,4.695-3.639H48.135A4.856,4.856,0,0,0,52.83,6.055h0v4.862H33.416ZM58.9,13.334V54.589H27.351V13.334ZM63.753,57.01a2.434,2.434,0,0,1-2.431,2.431H24.929A2.434,2.434,0,0,1,22.5,57.01v-46.1a2.434,2.434,0,0,1,2.431-2.431H31v2.436H26.142a1.208,1.208,0,0,0-1.208,1.208V55.8A1.208,1.208,0,0,0,26.142,57H60.109A1.208,1.208,0,0,0,61.317,55.8V12.126a1.208,1.208,0,0,0-1.208-1.208H55.251V8.482h6.07a2.434,2.434,0,0,1,2.431,2.431Z" fill="#516e75"/>
    </g>
    <path id="Trazado_600395" data-name="Trazado 600395" d="M8395.713,11739H8382a6,6,0,0,1-6-6v-27a6,6,0,0,1,6-6h45a6,6,0,0,1,6,6v27a6,6,0,0,1-6,6h-12.712l-9.287,13Z" transform="translate(-7924 -10130)" fill="#ff2195"/>
    <path id="Trazado_600396" data-name="Trazado 600396" d="M8395.713,11739H8382a6,6,0,0,1-6-6v-27a6,6,0,0,1,6-6h45a6,6,0,0,1,6,6v27a6,6,0,0,1-6,6h-12.712l-9.287,13Z" transform="translate(-7603.999 -10130)" fill="#ff2195"/>
    <path id="Trazado_600397" data-name="Trazado 600397" d="M8395.713,11739H8382a6,6,0,0,1-6-6v-27a6,6,0,0,1,6-6h45a6,6,0,0,1,6,6v27a6,6,0,0,1-6,6h-12.712l-9.287,13Z" transform="translate(-7284.999 -10130)" fill="#ff2195"/>
    <path id="Trazado_600398" data-name="Trazado 600398" d="M8395.713,11739H8382a6,6,0,0,1-6-6v-27a6,6,0,0,1,6-6h45a6,6,0,0,1,6,6v27a6,6,0,0,1-6,6h-12.712l-9.287,13Z" transform="translate(9364.001 13209) rotate(180)" fill="#ff2195"/>
    <path id="Trazado_600399" data-name="Trazado 600399" d="M8395.713,11739H8382a6,6,0,0,1-6-6v-27a6,6,0,0,1,6-6h45a6,6,0,0,1,6,6v27a6,6,0,0,1-6,6h-12.712l-9.287,13Z" transform="translate(9045.001 13209) rotate(180)" fill="#ff2195"/>
    <path id="Trazado_600400" data-name="Trazado 600400" d="M29.043,19.079a7.838,7.838,0,0,1-1.617,5.353,5.552,5.552,0,0,1-4.376,1.825,5.6,5.6,0,0,1-4.407-1.825,7.819,7.819,0,0,1-1.624-5.353V15.16a7.867,7.867,0,0,1,1.617-5.353A5.549,5.549,0,0,1,23.025,7.97a5.572,5.572,0,0,1,4.388,1.837,7.827,7.827,0,0,1,1.63,5.353Zm-3.552-4.285a5.849,5.849,0,0,0-.635-3.094,2.2,2.2,0,0,0-3.662-.006,5.939,5.939,0,0,0-.623,3.1V19.42a5.952,5.952,0,0,0,.629,3.125,2.06,2.06,0,0,0,1.849.977,2.024,2.024,0,0,0,1.819-.977,6,6,0,0,0,.623-3.125Zm5.42,9.07,3-.366V11.461h-3.04V9.423l6.592-1.2V23.5l3,.366V26H30.911Z" transform="translate(452 1573)" fill="#fff"/>
    <path id="Trazado_600401" data-name="Trazado 600401" d="M27.658,19.079a7.838,7.838,0,0,1-1.617,5.353,5.552,5.552,0,0,1-4.376,1.825,5.6,5.6,0,0,1-4.407-1.825,7.819,7.819,0,0,1-1.624-5.353V15.16a7.867,7.867,0,0,1,1.617-5.353A5.549,5.549,0,0,1,21.64,7.97a5.572,5.572,0,0,1,4.388,1.837,7.827,7.827,0,0,1,1.63,5.353Zm-3.552-4.285a5.849,5.849,0,0,0-.635-3.094,2.2,2.2,0,0,0-3.662-.006,5.939,5.939,0,0,0-.623,3.1V19.42a5.952,5.952,0,0,0,.629,3.125,2.06,2.06,0,0,0,1.849.977,2.024,2.024,0,0,0,1.819-.977,6,6,0,0,0,.623-3.125ZM29.623,26V23.668l5.75-6.165a13.913,13.913,0,0,0,1.77-2.411,3.91,3.91,0,0,0,.525-1.825,2.746,2.746,0,0,0-.6-1.837,2.123,2.123,0,0,0-1.715-.714,2.216,2.216,0,0,0-1.874.836,3.569,3.569,0,0,0-.641,2.228H29.367l-.024-.073a5.373,5.373,0,0,1,1.581-4.071A5.931,5.931,0,0,1,35.348,7.97,6.194,6.194,0,0,1,39.669,9.4a4.891,4.891,0,0,1,1.575,3.809,5.374,5.374,0,0,1-.885,2.979,28.059,28.059,0,0,1-2.936,3.564L34.262,23.2l.024.061H38.9l.146-1.758h2.71V26Z" transform="translate(612 1473)" fill="#fff"/>
    <path id="Trazado_600402" data-name="Trazado 600402" d="M27.523,19.079a7.838,7.838,0,0,1-1.617,5.353,5.552,5.552,0,0,1-4.376,1.825,5.6,5.6,0,0,1-4.407-1.825A7.819,7.819,0,0,1,15.5,19.079V15.16a7.867,7.867,0,0,1,1.617-5.353A5.549,5.549,0,0,1,21.505,7.97a5.572,5.572,0,0,1,4.388,1.837,7.827,7.827,0,0,1,1.63,5.353Zm-3.552-4.285a5.849,5.849,0,0,0-.635-3.094,2.2,2.2,0,0,0-3.662-.006,5.939,5.939,0,0,0-.623,3.1V19.42a5.952,5.952,0,0,0,.629,3.125,2.06,2.06,0,0,0,1.849.977,2.024,2.024,0,0,0,1.819-.977,6,6,0,0,0,.623-3.125Zm16.04,4.59h2.014v2.368H40.011V23.5l1.892.366V26H34.555V23.864l1.9-.366V21.752H29.208l-.171-1.746,7.385-11.78h3.589Zm-7.642,0h4.089V12.975l-.073-.024-.293.513Z" transform="translate(931 1473)" fill="#fff"/>
    <path id="Trazado_600403" data-name="Trazado 600403" d="M27.78,19.079a7.838,7.838,0,0,1-1.617,5.353,5.552,5.552,0,0,1-4.376,1.825,5.6,5.6,0,0,1-4.407-1.825,7.819,7.819,0,0,1-1.624-5.353V15.16a7.867,7.867,0,0,1,1.617-5.353A5.549,5.549,0,0,1,21.762,7.97,5.572,5.572,0,0,1,26.15,9.807a7.827,7.827,0,0,1,1.63,5.353Zm-3.552-4.285a5.849,5.849,0,0,0-.635-3.094,2.2,2.2,0,0,0-3.662-.006,5.939,5.939,0,0,0-.623,3.1V19.42a5.952,5.952,0,0,0,.629,3.125,2.06,2.06,0,0,0,1.849.977,2.024,2.024,0,0,0,1.819-.977,6,6,0,0,0,.623-3.125ZM33.5,15.6h2a2.432,2.432,0,0,0,1.88-.665A2.634,2.634,0,0,0,38,13.085a2.406,2.406,0,0,0-.61-1.721,2.317,2.317,0,0,0-1.77-.647,2.5,2.5,0,0,0-1.685.586,1.928,1.928,0,0,0-.684,1.538H29.794l-.024-.073a4.044,4.044,0,0,1,1.6-3.442,6.38,6.38,0,0,1,4.15-1.355,6.826,6.826,0,0,1,4.4,1.318,4.543,4.543,0,0,1,1.642,3.76,3.774,3.774,0,0,1-.732,2.2,4.87,4.87,0,0,1-2.014,1.63,4.532,4.532,0,0,1,2.252,1.611,4.238,4.238,0,0,1,.775,2.527,4.618,4.618,0,0,1-1.776,3.839,7.131,7.131,0,0,1-4.547,1.4,6.96,6.96,0,0,1-4.254-1.312,4.192,4.192,0,0,1-1.715-3.7l.024-.073h3.455a2.184,2.184,0,0,0,.732,1.691,2.654,2.654,0,0,0,1.855.665,2.7,2.7,0,0,0,1.947-.684,2.448,2.448,0,0,0,.714-1.855,2.688,2.688,0,0,0-.7-2.057,2.936,2.936,0,0,0-2.069-.653h-2Z" transform="translate(772 1573)" fill="#fff"/>
    <path id="Trazado_600404" data-name="Trazado 600404" d="M27.9,19.079a7.838,7.838,0,0,1-1.617,5.353,5.552,5.552,0,0,1-4.376,1.825A5.6,5.6,0,0,1,17.5,24.431a7.819,7.819,0,0,1-1.624-5.353V15.16A7.867,7.867,0,0,1,17.5,9.807,5.549,5.549,0,0,1,21.884,7.97a5.572,5.572,0,0,1,4.388,1.837A7.827,7.827,0,0,1,27.9,15.16ZM24.35,14.794a5.849,5.849,0,0,0-.635-3.094,2.2,2.2,0,0,0-3.662-.006,5.939,5.939,0,0,0-.623,3.1V19.42a5.952,5.952,0,0,0,.629,3.125,2.06,2.06,0,0,0,1.849.977,2.024,2.024,0,0,0,1.819-.977,6,6,0,0,0,.623-3.125Zm14.807-2.515-.317-1.2H34.054l-.5,4.1a4.453,4.453,0,0,1,1.2-.6,5.559,5.559,0,0,1,5.505,1.3,6.443,6.443,0,0,1,1.4,4.419,6.089,6.089,0,0,1-1.544,4.26,5.711,5.711,0,0,1-4.449,1.7,6.685,6.685,0,0,1-4.187-1.337,4.229,4.229,0,0,1-1.685-3.68l.024-.061,3.418-.171a2.487,2.487,0,0,0,.671,1.849,2.389,2.389,0,0,0,1.758.665,2.065,2.065,0,0,0,1.843-.891,4.064,4.064,0,0,0,.6-2.307,4.294,4.294,0,0,0-.635-2.466,2.142,2.142,0,0,0-1.892-.928,2.706,2.706,0,0,0-1.556.378,2.065,2.065,0,0,0-.775,1.025L30.1,18.126l1.025-9.9H41.354v4.053Z" transform="translate(1091 1573)" fill="#fff"/>
    <g id="herramienta-de-diseno" transform="translate(612 1521.429)">
      <path id="Trazado_596403" data-name="Trazado 596403" d="M340.474,219.758a1.113,1.113,0,1,0-1.574,0A1.112,1.112,0,0,0,340.474,219.758Zm0,0" transform="translate(-300.88 -193.158)" fill="#516e75"/>
      <path id="Trazado_596404" data-name="Trazado 596404" d="M1.113,57.5H55.889a1.113,1.113,0,0,0,.787-1.9L1.9.826A1.113,1.113,0,0,0,0,1.613V56.388A1.113,1.113,0,0,0,1.113,57.5ZM2.227,4.3l8.955,8.955L8.82,15.617a1.113,1.113,0,0,0,1.574,1.575l2.362-2.361,4.723,4.724-2.362,2.361a1.113,1.113,0,1,0,1.574,1.575l2.362-2.361,4.723,4.723-2.361,2.362a1.113,1.113,0,0,0,1.574,1.574l2.362-2.362,4.723,4.724-2.361,2.362a1.113,1.113,0,0,0,1.574,1.574l2.362-2.361,4.723,4.723L34.012,40.81a1.113,1.113,0,1,0,1.575,1.574l2.361-2.362,4.723,4.723L40.31,47.108a1.114,1.114,0,0,0,1.575,1.574l2.361-2.362L53.2,55.275H2.227Zm0,0" transform="translate(0 0)" fill="#516e75"/>
      <path id="Trazado_596405" data-name="Trazado 596405" d="M87.9,205.815a1.113,1.113,0,0,0-1.9.787v22.379a1.113,1.113,0,0,0,1.113,1.113h22.379a1.113,1.113,0,0,0,.788-1.9Zm.326,22.053V209.29L106.8,227.868Zm0,0" transform="translate(-76.425 -182.168)" fill="#516e75"/>
      <path id="Trazado_596406" data-name="Trazado 596406" d="M272.91,153.772a1.113,1.113,0,1,0,1.575-1.574l-4.724-4.724a1.113,1.113,0,0,0-1.574,1.574Zm0,0" transform="translate(-238.038 -130.322)" fill="#516e75"/>
      <path id="Trazado_596407" data-name="Trazado 596407" d="M124.064,11.846,155.315,43.1a3.338,3.338,0,0,0,4.724,0l3.149-3.148a3.346,3.346,0,0,0,0-4.724L131.937,3.974a1.11,1.11,0,0,0-.435-.269L122.055.557a1.114,1.114,0,0,0-1.408,1.408l3.149,9.447a1.114,1.114,0,0,0,.269.435ZM161.612,36.8a1.115,1.115,0,0,1,0,1.575l-3.148,3.149a1.114,1.114,0,0,1-1.575,0l-2.412-2.412,4.723-4.724Zm-3.986-3.987L152.9,37.536l-1.574-1.575,4.724-4.723Zm-25.74-25.74,22.591,22.591-4.723,4.724L127.163,11.8Zm-1.693-1.456L125.706,10.1l-2.243-6.73Zm0,0" transform="translate(-107.164)" fill="#516e75"/>
    </g>
    <g id="caja-de-herramientas" transform="translate(760.51 1494.928)">
      <path id="Trazado_596409" data-name="Trazado 596409" d="M64,28.34H59.925a2.393,2.393,0,0,0-2.338-1.9H54.795a2.383,2.383,0,0,0-1.82.845v-3.6a.895.895,0,0,0-1.789,0V28.34H49.233V17.987a.895.895,0,1,0-1.789,0V28.34H45.49V14.351a8.219,8.219,0,0,0,5.7,0v5.161a.895.895,0,0,0,1.789,0v-6.1A8.16,8.16,0,0,0,53.488.37h0a1.644,1.644,0,0,0-2.679,1.279v5.7a.166.166,0,0,1-.083.143L48.421,8.824a.166.166,0,0,1-.165,0L45.949,7.493a.166.166,0,0,1-.083-.143v-5.7A1.645,1.645,0,0,0,43.184.373,8.159,8.159,0,0,0,43.7,13.416V28.34h-5.82V12.479l.764-3.755a.944.944,0,0,0-.022-.443L36.428,1.206a1.7,1.7,0,0,0-3.258,0l-2.2,7.076a.947.947,0,0,0-.022.443l.764,3.755V28.34H28.808L23.035,16.362l2.242-1.08a2.357,2.357,0,0,0,1.1-3.149L24.5,8.246a2.362,2.362,0,0,0-3.149-1.1L11.131,12.073a2.345,2.345,0,0,0-1.334,2.1l-.05,4.813a2.359,2.359,0,0,0,3.383,2.15L16.5,19.51l4.064,8.432a2.365,2.365,0,0,0-.122.4H16.368a4.5,4.5,0,0,0-4.49,4.49V56.581a4.5,4.5,0,0,0,4.49,4.49H64a4.5,4.5,0,0,0,4.49-4.49V32.83A4.5,4.5,0,0,0,64,28.34ZM41.969,6.922a6.328,6.328,0,0,1,2.109-4.959V7.349a1.96,1.96,0,0,0,.977,1.693l2.306,1.332a1.96,1.96,0,0,0,1.954,0l2.306-1.331A1.96,1.96,0,0,0,52.6,7.35V1.963a6.372,6.372,0,1,1-10.63,4.959ZM66.7,32.83v2.758H59.976V30.129H64A2.7,2.7,0,0,1,66.7,32.83Zm0,7.849H59.976v-3.3H66.7ZM54.195,28.83a.608.608,0,0,1,.6-.6h2.793a.608.608,0,0,1,.6.6V42.236a.608.608,0,0,1-.6.6H54.795a.608.608,0,0,1-.6-.6V28.83Zm-1.789,1.3v5.459H27.964V30.129ZM25.575,42.836c-2.986,0-2.82.007-2.912-.012a.61.61,0,0,1-.481-.587V28.83a.61.61,0,0,1,.6-.6h2.793a.608.608,0,0,1,.6.6V42.236A.607.607,0,0,1,25.575,42.836Zm7.349-33.4h3.749l-.418,2.054H33.342ZM34.8,1.993l1.755,5.658h-3.51ZM33.506,13.283h2.586V28.34H33.506ZM25.575,26.441H22.782a2.417,2.417,0,0,0-.873.167L19.591,21.8,22.9,20.2l3.019,6.263a2.938,2.938,0,0,0-.343-.025Zm-4.152-9.3.7,1.452-3.309,1.595-.7-1.452Zm-9.071,2.386A.57.57,0,0,1,11.535,19l.05-4.813a.566.566,0,0,1,.322-.507L22.132,8.757a.571.571,0,0,1,.761.266l1.873,3.886a.569.569,0,0,1-.266.761Zm4.015,10.6h4.026v5.459H13.667V32.83A2.7,2.7,0,0,1,16.368,30.129Zm4.026,10.55H13.667v-3.3h6.727v3.3ZM64,59.283H16.368a2.7,2.7,0,0,1-2.7-2.7V42.468h6.739a2.392,2.392,0,0,0,2.377,2.157h2.793a2.392,2.392,0,0,0,2.377-2.157h9.079a.895.895,0,0,0,0-1.789H27.964v-3.3H52.406v3.3h-11.2a.895.895,0,0,0,0,1.789H52.417a2.392,2.392,0,0,0,2.377,2.157h2.793a2.392,2.392,0,0,0,2.377-2.157H66.7V56.582A2.7,2.7,0,0,1,64,59.283Z" transform="translate(0 0)" fill="#516e75"/>
    </g>
    <g id="analisis-de-los-datos" transform="translate(930 1524.463)">
      <path id="Trazado_596410" data-name="Trazado 596410" d="M55.24,41.45A2.758,2.758,0,0,0,58,38.692V3.758A2.758,2.758,0,0,0,55.24,1H3.758A2.758,2.758,0,0,0,1,3.758V38.692A2.758,2.758,0,0,0,3.758,41.45h16.18a15.7,15.7,0,0,0,7.516,6.256l-2.933,2.937h-3.3V47.885a2.758,2.758,0,0,0-2.758-2.758H7.435a2.758,2.758,0,0,0-2.758,2.758V55.24A2.758,2.758,0,0,0,7.435,58H18.467a2.758,2.758,0,0,0,2.758-2.758V52.482H24.9a.919.919,0,0,0,.65-.269l3.881-3.881A15.365,15.365,0,0,0,41.44,46.414l2.39,2.39-.269.269a.919.919,0,0,0,0,1.3l6.212,6.212a4.82,4.82,0,0,0,6.816-6.816l-6.212-6.212a.919.919,0,0,0-1.3,0l-.272.269L46.427,41.45ZM19.386,55.24a.919.919,0,0,1-.919.919H7.435a.919.919,0,0,1-.919-.919V47.885a.919.919,0,0,1,.919-.919H18.467a.919.919,0,0,1,.919.919ZM3.758,39.611a.919.919,0,0,1-.919-.919V3.758a.919.919,0,0,1,.919-.919H55.24a.919.919,0,0,1,.919.919V38.692a.919.919,0,0,1-.919.919H47.4a15.57,15.57,0,0,0-7.859-20.695l4.666-4.666v2.377h1.839v-4.6a.919.919,0,0,0-.919-.919h-4.6v1.839h2.377L37.65,18.209a15.548,15.548,0,0,0-3.948-.634l-4.343-6.949a.919.919,0,0,0-.78-.432H24.9V7.435a2.758,2.758,0,0,0-2.758-2.758H11.112A2.758,2.758,0,0,0,8.355,7.435V14.79a2.758,2.758,0,0,0,2.758,2.758H22.144A2.758,2.758,0,0,0,24.9,14.79V12.032H28.07l3.5,5.6a15.6,15.6,0,0,0-10.211,5.349l-1.287-1.446a.919.919,0,0,0-.68-.308h0a.919.919,0,0,0-.678.3L8.6,32.555,9.951,33.8l9.425-10.282.836.941a15.423,15.423,0,0,0-2.406,11.477H6.516V11.113H4.677V36.853a.919.919,0,0,0,.919.919H18.24a15.352,15.352,0,0,0,.711,1.839ZM23.064,7.435V14.79a.919.919,0,0,1-.919.919H11.112a.919.919,0,0,1-.919-.919V7.435a.919.919,0,0,1,.919-.919H22.144A.919.919,0,0,1,23.064,7.435ZM19.386,33.176a13.79,13.79,0,1,1,13.79,13.79A13.79,13.79,0,0,1,19.386,33.176Zm35.9,17.894a2.981,2.981,0,1,1-4.216,4.216l-5.562-5.562,4.216-4.216ZM45.127,47.5l-2.163-2.163a15.71,15.71,0,0,0,2.377-2.377L47.5,45.127Z" transform="translate(0)" fill="#516e75"/>
      <path id="Trazado_596411" data-name="Trazado 596411" d="M34.951,23A11.951,11.951,0,1,0,46.9,34.951,11.951,11.951,0,0,0,34.951,23Zm-.4,1.859-5.995,5.995-1.71-1.923a10.09,10.09,0,0,1,7.7-4.072Zm.4,20.2a10.112,10.112,0,0,1-9-5.516H36.79V37.709H25.23a9.956,9.956,0,0,1,.618-7.133l1.98,2.228a.919.919,0,0,0,.661.308h.027a.919.919,0,0,0,.65-.269l7.8-7.8a10.112,10.112,0,0,1-2.016,20.022Z" transform="translate(-1.775 -1.775)" fill="#516e75"/>
      <path id="Trazado_596412" data-name="Trazado 596412" d="M13,9h9.193v1.839H13Z" transform="translate(-0.968 -0.645)" fill="#516e75"/>
      <path id="Trazado_596413" data-name="Trazado 596413" d="M13,13h9.193v1.839H13Z" transform="translate(-0.968 -0.968)" fill="#516e75"/>
      <path id="Trazado_596414" data-name="Trazado 596414" d="M9,53h9.193v1.839H9Z" transform="translate(-0.645 -4.195)" fill="#516e75"/>
      <path id="Trazado_596415" data-name="Trazado 596415" d="M9,57h9.193v1.839H9Z" transform="translate(-0.645 -4.518)" fill="#516e75"/>
    </g>
    <g id="Grupo_155257" data-name="Grupo 155257">
      <g id="web" transform="translate(1091 1498)">
        <g id="Grupo_155255" data-name="Grupo 155255">
          <g id="Grupo_155254" data-name="Grupo 155254">
            <path id="Trazado_596416" data-name="Trazado 596416" d="M52.25,0H4.75A4.756,4.756,0,0,0,0,4.75v47.5A4.756,4.756,0,0,0,4.75,57h47.5A4.756,4.756,0,0,0,57,52.25V4.75A4.756,4.756,0,0,0,52.25,0ZM55.1,52.25a2.85,2.85,0,0,1-2.85,2.85H4.75A2.85,2.85,0,0,1,1.9,52.25V9.5H55.1V52.25Zm0-44.65H1.9V4.75A2.85,2.85,0,0,1,4.75,1.9h47.5A2.85,2.85,0,0,1,55.1,4.75V7.6Z" fill="#516e75"/>
            <path id="Trazado_596417" data-name="Trazado 596417" d="M44.567,34.133h-.95a.95.95,0,0,0,0,1.9h.95a.95.95,0,0,0,0-1.9Z" transform="translate(-37.917 -30.333)" fill="#516e75"/>
            <path id="Trazado_596418" data-name="Trazado 596418" d="M86.644,34.19a.87.87,0,0,0-.722,0,1.1,1.1,0,0,0-.313.2.963.963,0,0,0,0,1.349,1.1,1.1,0,0,0,.313.2.9.9,0,0,0,.722,0,1.1,1.1,0,0,0,.313-.2.963.963,0,0,0,0-1.349A1.1,1.1,0,0,0,86.644,34.19Z" transform="translate(-75.833 -30.314)" fill="#516e75"/>
            <path id="Trazado_596419" data-name="Trazado 596419" d="M120.78,34.156a.95.95,0,0,0-1.039.208,1.1,1.1,0,0,0-.2.313.9.9,0,0,0,0,.722,1.1,1.1,0,0,0,.2.313.963.963,0,0,0,1.349,0,1.1,1.1,0,0,0,.2-.313.8.8,0,0,0,.076-.361A.95.95,0,0,0,120.78,34.156Z" transform="translate(-106.166 -30.289)" fill="#516e75"/>
            <path id="Trazado_596420" data-name="Trazado 596420" d="M195.384,34.133h-32.3a.95.95,0,0,0,0,1.9h32.3a.95.95,0,0,0,0-1.9Z" transform="translate(-144.084 -30.333)" fill="#516e75"/>
          </g>
        </g>
      </g>
      <g id="cambio" transform="translate(1102.71 1513)">
        <g id="Grupo_155256" data-name="Grupo 155256" transform="translate(0.312 0)">
          <path id="Trazado_596421" data-name="Trazado 596421" d="M273.884,2.618H269.65l1.043-1.043a.922.922,0,0,0-1.3-1.3L266.78,2.886a.911.911,0,0,0-.269.652.943.943,0,0,0,.269.652L269.4,6.807a.924.924,0,0,0,.652.269.937.937,0,0,0,.652-.269.921.921,0,0,0,0-1.3l-1.043-1.043h4.235a4.991,4.991,0,0,1,4.987,4.987v3.092a.921.921,0,0,0,1.841,0V9.446A6.84,6.84,0,0,0,273.884,2.618Z" transform="translate(-246.09 0)" fill="#516e75"/>
          <path id="Trazado_596422" data-name="Trazado 596422" d="M245.753,230.925H230.633a.923.923,0,0,0-.921.921v15.121a.923.923,0,0,0,.921.921h15.121a.923.923,0,0,0,.921-.921V231.846A.918.918,0,0,0,245.753,230.925Zm-.921,15.121h-13.28v-13.28h13.28v13.28Z" transform="translate(-212.113 -213.209)" fill="#516e75"/>
          <path id="Trazado_596423" data-name="Trazado 596423" d="M11.635,283.276a.922.922,0,0,0-1.3,1.3l1.043,1.043H7.14a4.991,4.991,0,0,1-4.987-4.987v-3.092a.921.921,0,0,0-1.841,0v3.092a6.833,6.833,0,0,0,6.828,6.828h4.235l-1.043,1.043a.921.921,0,0,0,.652,1.573.937.937,0,0,0,.652-.269l2.616-2.616a.921.921,0,0,0,0-1.3Z" transform="translate(-0.312 -255.403)" fill="#516e75"/>
          <path id="Trazado_596424" data-name="Trazado 596424" d="M2.133,1.866A.917.917,0,0,0,3.053.946.943.943,0,0,0,2.785.294.921.921,0,0,0,1.212.946a.929.929,0,0,0,.269.652A.943.943,0,0,0,2.133,1.866Z" transform="translate(-1.143 -0.023)" fill="#516e75"/>
          <path id="Trazado_596425" data-name="Trazado 596425" d="M100.733,1.866a.921.921,0,1,0-.921-.921A.923.923,0,0,0,100.733,1.866Z" transform="translate(-92.179 -0.023)" fill="#516e75"/>
          <path id="Trazado_596426" data-name="Trazado 596426" d="M51.433,1.866a.921.921,0,1,0-.921-.921A.923.923,0,0,0,51.433,1.866Z" transform="translate(-46.661 -0.023)" fill="#516e75"/>
          <path id="Trazado_596427" data-name="Trazado 596427" d="M149.933,1.866a.921.921,0,1,0-.921-.921A.923.923,0,0,0,149.933,1.866Z" transform="translate(-137.604 -0.023)" fill="#516e75"/>
          <path id="Trazado_596428" data-name="Trazado 596428" d="M199.233.025a.943.943,0,0,0-.652.269.926.926,0,0,0,0,1.3.921.921,0,0,0,1.573-.652.917.917,0,0,0-.921-.921Z" transform="translate(-183.122 -0.023)" fill="#516e75"/>
          <path id="Trazado_596429" data-name="Trazado 596429" d="M199.233,147.925a.921.921,0,1,0,.921.921A.914.914,0,0,0,199.233,147.925Z" transform="translate(-183.122 -136.577)" fill="#516e75"/>
          <path id="Trazado_596430" data-name="Trazado 596430" d="M199.233,98.625a.921.921,0,1,0,.921.921A.914.914,0,0,0,199.233,98.625Z" transform="translate(-183.122 -91.059)" fill="#516e75"/>
          <path id="Trazado_596431" data-name="Trazado 596431" d="M199.233,49.325a.921.921,0,1,0,.921.921A.923.923,0,0,0,199.233,49.325Z" transform="translate(-183.122 -45.541)" fill="#516e75"/>
          <path id="Trazado_596432" data-name="Trazado 596432" d="M199.233,197.125a.917.917,0,0,0-.921.921.943.943,0,0,0,.269.652.922.922,0,1,0,.652-1.573Z" transform="translate(-183.122 -182.002)" fill="#516e75"/>
          <path id="Trazado_596433" data-name="Trazado 596433" d="M149.933,198.966a.921.921,0,1,0-.921-.921A.923.923,0,0,0,149.933,198.966Z" transform="translate(-137.604 -182.002)" fill="#516e75"/>
          <path id="Trazado_596434" data-name="Trazado 596434" d="M100.733,198.966a.921.921,0,1,0-.921-.921A.914.914,0,0,0,100.733,198.966Z" transform="translate(-92.179 -182.002)" fill="#516e75"/>
          <path id="Trazado_596435" data-name="Trazado 596435" d="M51.433,198.966a.921.921,0,1,0-.921-.921A.923.923,0,0,0,51.433,198.966Z" transform="translate(-46.661 -182.002)" fill="#516e75"/>
          <path id="Trazado_596436" data-name="Trazado 596436" d="M2.133,198.966a.922.922,0,1,0-.921-.921.917.917,0,0,0,.921.921Z" transform="translate(-1.143 -182.002)" fill="#516e75"/>
          <path id="Trazado_596437" data-name="Trazado 596437" d="M2.133,149.766a.921.921,0,1,0-.921-.921A.923.923,0,0,0,2.133,149.766Z" transform="translate(-1.143 -136.577)" fill="#516e75"/>
          <path id="Trazado_596438" data-name="Trazado 596438" d="M2.133,100.466a.921.921,0,1,0-.921-.921A.923.923,0,0,0,2.133,100.466Z" transform="translate(-1.143 -91.059)" fill="#516e75"/>
          <path id="Trazado_596439" data-name="Trazado 596439" d="M2.133,51.166a.921.921,0,1,0-.921-.921A.923.923,0,0,0,2.133,51.166Z" transform="translate(-1.143 -45.541)" fill="#516e75"/>
        </g>
      </g>
    </g>
  </g>
</svg>
