<svg xmlns="http://www.w3.org/2000/svg" xmlns:xlink="http://www.w3.org/1999/xlink" width="1030" height="368" viewBox="0 0 1030 368">
  <defs>
    <linearGradient id="linear-gradient" x1="0.5" x2="0.5" y2="0.72" gradientUnits="objectBoundingBox">
      <stop offset="0" stop-color="#c0d6f6"/>
      <stop offset="1" stop-color="#fff"/>
    </linearGradient>
    <linearGradient id="linear-gradient-2" y1="0.548" x2="1" y2="0.557" gradientUnits="objectBoundingBox">
      <stop offset="0" stop-color="#4795e9"/>
      <stop offset="1" stop-color="#00a6b7"/>
    </linearGradient>
    <linearGradient id="linear-gradient-3" x1="-0.074" y1="0.548" x2="1" y2="0.556" gradientUnits="objectBoundingBox">
      <stop offset="0" stop-color="#4795e9"/>
      <stop offset="0.966" stop-color="#02a5b9"/>
      <stop offset="1" stop-color="#00a6b7"/>
    </linearGradient>
    <linearGradient id="linear-gradient-4" x1="0.5" y1="0" x2="0.5" y2="1" xlink:href="#linear-gradient-2"/>
    <radialGradient id="radial-gradient" cx="0.712" cy="0.285" r="0.5" gradientUnits="objectBoundingBox">
      <stop offset="0" stop-color="#fff"/>
      <stop offset="0.13" stop-color="#fefef8"/>
      <stop offset="1" stop-color="#ffa8d9"/>
    </radialGradient>
    <radialGradient id="radial-gradient-2" cx="0.712" cy="0.285" r="0.5" gradientUnits="objectBoundingBox">
      <stop offset="0" stop-color="#fff"/>
      <stop offset="0.13" stop-color="#fefef8"/>
      <stop offset="1" stop-color="#c0d6f6"/>
    </radialGradient>
    <radialGradient id="radial-gradient-3" cx="0.712" cy="0.285" r="0.5" gradientUnits="objectBoundingBox">
      <stop offset="0" stop-color="#fff"/>
      <stop offset="0.13" stop-color="#fefef8"/>
      <stop offset="1" stop-color="#cbf0aa"/>
    </radialGradient>
  </defs>
  <g id="Grupo_156343" data-name="Grupo 156343" transform="translate(-285 -2383)">
    <path id="Trazado_600405" data-name="Trazado 600405" d="M0,0H1030V157H0Z" transform="translate(285 2383)" fill="none"/>
    <path id="Trazado_600406" data-name="Trazado 600406" d="M0,0H1030V210H0Z" transform="translate(1315 2750) rotate(180)" fill="url(#linear-gradient)"/>
    <path id="Trazado_600407" data-name="Trazado 600407" d="M32.976,14.078H30.5V19H28.273V6.2h4.5a5.235,5.235,0,0,1,3.419.994,3.516,3.516,0,0,1,1.2,2.876,3.6,3.6,0,0,1-.62,2.151,3.943,3.943,0,0,1-1.727,1.333l2.874,5.329V19H35.542ZM30.5,12.285h2.285a2.541,2.541,0,0,0,1.758-.567,1.977,1.977,0,0,0,.633-1.551,2.1,2.1,0,0,0-.584-1.591A2.483,2.483,0,0,0,32.844,8H30.5Zm12.99,6.891A4.419,4.419,0,0,1,40.2,17.9a4.639,4.639,0,0,1-1.261-3.406v-.264a5.706,5.706,0,0,1,.549-2.544,4.181,4.181,0,0,1,1.542-1.745,4.078,4.078,0,0,1,2.215-.624,3.733,3.733,0,0,1,3,1.239A5.24,5.24,0,0,1,47.3,14.061v.861H41.088a2.856,2.856,0,0,0,.787,1.863,2.362,2.362,0,0,0,1.736.686A2.892,2.892,0,0,0,46,16.284l1.151,1.1a3.845,3.845,0,0,1-1.525,1.323A4.774,4.774,0,0,1,43.487,19.176Zm-.255-8.147a1.8,1.8,0,0,0-1.419.615,3.189,3.189,0,0,0-.69,1.714h4.069V13.2a2.6,2.6,0,0,0-.571-1.622A1.785,1.785,0,0,0,43.232,11.028Zm5.326,3.146a5.654,5.654,0,0,1,1.02-3.529,3.267,3.267,0,0,1,2.733-1.332,3.1,3.1,0,0,1,2.443,1.055V5.5h2.136V19H54.957l-.105-.984a3.148,3.148,0,0,1-2.558,1.16,3.248,3.248,0,0,1-2.7-1.345A5.861,5.861,0,0,1,48.559,14.175Zm2.136.185a3.958,3.958,0,0,0,.558,2.263,1.811,1.811,0,0,0,1.586.813,2.017,2.017,0,0,0,1.916-1.169V12.206a1.986,1.986,0,0,0-1.9-1.143,1.824,1.824,0,0,0-1.6.822A4.408,4.408,0,0,0,50.694,14.359ZM64.88,18.068a3.312,3.312,0,0,1-2.672,1.107,2.952,2.952,0,0,1-2.342-.905,3.851,3.851,0,0,1-.8-2.619V9.49h2.136v6.135q0,1.811,1.5,1.811a2.111,2.111,0,0,0,2.1-1.116V9.49h2.136V19H64.933Zm8.147-.6A1.931,1.931,0,0,0,74.354,17a1.591,1.591,0,0,0,.563-1.151H76.93a3.137,3.137,0,0,1-.554,1.657,3.632,3.632,0,0,1-1.406,1.217,4.191,4.191,0,0,1-1.916.448,4.055,4.055,0,0,1-3.164-1.292,5.124,5.124,0,0,1-1.169-3.568V14.1a5.039,5.039,0,0,1,1.16-3.476,4.018,4.018,0,0,1,3.164-1.305,3.907,3.907,0,0,1,2.764.989,3.542,3.542,0,0,1,1.121,2.6H74.917a1.956,1.956,0,0,0-.558-1.345,1.8,1.8,0,0,0-1.332-.527,1.879,1.879,0,0,0-1.6.751,3.834,3.834,0,0,0-.571,2.281V14.4a3.9,3.9,0,0,0,.558,2.307A1.878,1.878,0,0,0,73.027,17.471Zm9.422,0A1.931,1.931,0,0,0,83.776,17a1.591,1.591,0,0,0,.563-1.151h2.013A3.137,3.137,0,0,1,85.8,17.51a3.632,3.632,0,0,1-1.406,1.217,4.191,4.191,0,0,1-1.916.448,4.055,4.055,0,0,1-3.164-1.292,5.124,5.124,0,0,1-1.169-3.568V14.1A5.039,5.039,0,0,1,79.3,10.62a4.018,4.018,0,0,1,3.164-1.305,3.907,3.907,0,0,1,2.764.989,3.542,3.542,0,0,1,1.121,2.6H84.339a1.956,1.956,0,0,0-.558-1.345,1.8,1.8,0,0,0-1.332-.527,1.879,1.879,0,0,0-1.6.751,3.834,3.834,0,0,0-.571,2.281V14.4a3.9,3.9,0,0,0,.558,2.307A1.878,1.878,0,0,0,82.449,17.471ZM90.236,19H88.1V9.49h2.136ZM87.969,7.021a1.133,1.133,0,0,1,.312-.817,1.179,1.179,0,0,1,.892-.325,1.193,1.193,0,0,1,.9.325,1.125,1.125,0,0,1,.316.817,1.1,1.1,0,0,1-.316.8,1.2,1.2,0,0,1-.9.321,1.188,1.188,0,0,1-.892-.321A1.107,1.107,0,0,1,87.969,7.021Zm4.192,7.137a5.607,5.607,0,0,1,.554-2.518,4.044,4.044,0,0,1,1.556-1.723,4.383,4.383,0,0,1,2.3-.6A4.154,4.154,0,0,1,99.7,10.554a4.874,4.874,0,0,1,1.3,3.287l.009.5a5.658,5.658,0,0,1-.541,2.514,4,4,0,0,1-1.547,1.714,4.415,4.415,0,0,1-2.325.606,4.125,4.125,0,0,1-3.221-1.34,5.133,5.133,0,0,1-1.208-3.573Zm2.136.185a3.832,3.832,0,0,0,.606,2.3,1.971,1.971,0,0,0,1.688.831,1.95,1.95,0,0,0,1.683-.844,4.232,4.232,0,0,0,.6-2.47,3.782,3.782,0,0,0-.62-2.285,2.089,2.089,0,0,0-3.344-.013A4.152,4.152,0,0,0,94.3,14.342ZM97.162,5.5H99.6L97.162,8.163l-1.714,0Zm7.629,3.99.062,1.1a3.419,3.419,0,0,1,2.769-1.274q2.971,0,3.023,3.4V19h-2.136V12.839a1.958,1.958,0,0,0-.391-1.34,1.645,1.645,0,0,0-1.279-.435,2.058,2.058,0,0,0-1.925,1.169V19h-2.136V9.49ZM116.9,14.175a5.654,5.654,0,0,1,1.02-3.529,3.267,3.267,0,0,1,2.733-1.332,3.1,3.1,0,0,1,2.443,1.055V5.5h2.136V19H123.3l-.105-.984a3.148,3.148,0,0,1-2.558,1.16,3.248,3.248,0,0,1-2.7-1.345A5.861,5.861,0,0,1,116.9,14.175Zm2.136.185a3.958,3.958,0,0,0,.558,2.263,1.811,1.811,0,0,0,1.586.813,2.017,2.017,0,0,0,1.916-1.169V12.206a1.986,1.986,0,0,0-1.9-1.143,1.824,1.824,0,0,0-1.6.822A4.408,4.408,0,0,0,119.038,14.359Zm12.612,4.816a4.419,4.419,0,0,1-3.292-1.279,4.639,4.639,0,0,1-1.261-3.406v-.264a5.706,5.706,0,0,1,.549-2.544,4.181,4.181,0,0,1,1.542-1.745,4.078,4.078,0,0,1,2.215-.624,3.733,3.733,0,0,1,3,1.239,5.24,5.24,0,0,1,1.059,3.507v.861h-6.214a2.856,2.856,0,0,0,.787,1.863,2.362,2.362,0,0,0,1.736.686,2.892,2.892,0,0,0,2.391-1.187l1.151,1.1a3.845,3.845,0,0,1-1.525,1.323A4.774,4.774,0,0,1,131.65,19.176Zm-.255-8.147a1.8,1.8,0,0,0-1.419.615,3.189,3.189,0,0,0-.69,1.714h4.069V13.2a2.6,2.6,0,0,0-.571-1.622A1.785,1.785,0,0,0,131.4,11.028ZM28.375,43H26.239V33.49h2.136ZM26.107,31.021a1.133,1.133,0,0,1,.312-.817,1.179,1.179,0,0,1,.892-.325,1.193,1.193,0,0,1,.9.325,1.125,1.125,0,0,1,.316.817,1.1,1.1,0,0,1-.316.8,1.2,1.2,0,0,1-.9.321,1.188,1.188,0,0,1-.892-.321A1.107,1.107,0,0,1,26.107,31.021Zm6.574,2.47.062,1.1a3.419,3.419,0,0,1,2.769-1.274q2.971,0,3.023,3.4V43H36.4V36.839a1.958,1.958,0,0,0-.391-1.34,1.645,1.645,0,0,0-1.279-.435A2.058,2.058,0,0,0,32.8,36.232V43H30.668V33.49Zm11.936,7.98A1.931,1.931,0,0,0,45.944,41a1.591,1.591,0,0,0,.563-1.151h2.013a3.137,3.137,0,0,1-.554,1.657,3.632,3.632,0,0,1-1.406,1.217,4.191,4.191,0,0,1-1.916.448,4.055,4.055,0,0,1-3.164-1.292,5.124,5.124,0,0,1-1.169-3.568V38.1a5.039,5.039,0,0,1,1.16-3.476,4.018,4.018,0,0,1,3.164-1.305A3.907,3.907,0,0,1,47.4,34.3a3.542,3.542,0,0,1,1.121,2.6H46.506a1.956,1.956,0,0,0-.558-1.345,1.8,1.8,0,0,0-1.332-.527,1.879,1.879,0,0,0-1.6.751,3.834,3.834,0,0,0-.571,2.281V38.4A3.9,3.9,0,0,0,43,40.71,1.878,1.878,0,0,0,44.617,41.471Zm9.7,1.705A4.419,4.419,0,0,1,51.028,41.9a4.639,4.639,0,0,1-1.261-3.406v-.264a5.706,5.706,0,0,1,.549-2.544,4.181,4.181,0,0,1,1.542-1.745,4.078,4.078,0,0,1,2.215-.624,3.733,3.733,0,0,1,3,1.239,5.24,5.24,0,0,1,1.059,3.507v.861H51.92a2.856,2.856,0,0,0,.787,1.863,2.362,2.362,0,0,0,1.736.686,2.892,2.892,0,0,0,2.391-1.187l1.151,1.1a3.845,3.845,0,0,1-1.525,1.323A4.774,4.774,0,0,1,54.32,43.176Zm-.255-8.147a1.8,1.8,0,0,0-1.419.615,3.189,3.189,0,0,0-.69,1.714h4.069V37.2a2.6,2.6,0,0,0-.571-1.622A1.785,1.785,0,0,0,54.065,35.028Zm10.705.413a5.285,5.285,0,0,0-.87-.07A1.959,1.959,0,0,0,61.922,36.5V43H59.787V33.49h2.039l.053,1.063a2.406,2.406,0,0,1,2.145-1.239,2,2,0,0,1,.756.123Zm4.465-4.263V33.49h1.679v1.582H69.235v5.309a1.169,1.169,0,0,0,.215.787,1,1,0,0,0,.769.242,3.29,3.29,0,0,0,.747-.088v1.652a5.26,5.26,0,0,1-1.406.2q-2.461,0-2.461-2.716V35.072H65.535V33.49H67.1V31.179ZM74.816,43H72.68V33.49h2.136ZM72.548,31.021a1.133,1.133,0,0,1,.312-.817,1.179,1.179,0,0,1,.892-.325,1.193,1.193,0,0,1,.9.325,1.125,1.125,0,0,1,.316.817,1.1,1.1,0,0,1-.316.8,1.2,1.2,0,0,1-.9.321,1.188,1.188,0,0,1-.892-.321A1.107,1.107,0,0,1,72.548,31.021Zm4.192,7.154a5.654,5.654,0,0,1,1.02-3.529,3.267,3.267,0,0,1,2.733-1.332,3.1,3.1,0,0,1,2.443,1.055V29.5h2.136V43H83.139l-.105-.984a3.148,3.148,0,0,1-2.558,1.16,3.248,3.248,0,0,1-2.7-1.345A5.861,5.861,0,0,1,76.741,38.175Zm2.136.185a3.958,3.958,0,0,0,.558,2.263,1.811,1.811,0,0,0,1.586.813,2.017,2.017,0,0,0,1.916-1.169V36.206a1.986,1.986,0,0,0-1.9-1.143,1.824,1.824,0,0,0-1.6.822A4.408,4.408,0,0,0,78.876,38.359Zm14.186,3.709a3.312,3.312,0,0,1-2.672,1.107,2.952,2.952,0,0,1-2.342-.905,3.851,3.851,0,0,1-.8-2.619V33.49h2.136v6.135q0,1.811,1.5,1.811a2.111,2.111,0,0,0,2.1-1.116V33.49h2.136V43H93.115Zm6.249-8.578.062.993a3.422,3.422,0,0,1,2.742-1.169,2.629,2.629,0,0,1,2.61,1.459,3.373,3.373,0,0,1,2.918-1.459,2.965,2.965,0,0,1,2.342.87,3.831,3.831,0,0,1,.787,2.566V43h-2.136V36.813a1.891,1.891,0,0,0-.4-1.327,1.731,1.731,0,0,0-1.31-.422,1.778,1.778,0,0,0-1.191.391,2.063,2.063,0,0,0-.646,1.024L105.1,43h-2.136V36.742a1.523,1.523,0,0,0-1.714-1.679,1.88,1.88,0,0,0-1.819,1.046V43H97.3V33.49Zm22,4.852a5.712,5.712,0,0,1-.989,3.524,3.221,3.221,0,0,1-2.72,1.31,3.1,3.1,0,0,1-2.6-1.2L114.894,43H112.96V29.5H115.1v4.9a3.091,3.091,0,0,1,2.487-1.09,3.258,3.258,0,0,1,2.733,1.292,5.807,5.807,0,0,1,.993,3.612Zm-2.136-.185a4.037,4.037,0,0,0-.545-2.32,1.815,1.815,0,0,0-1.582-.773,1.983,1.983,0,0,0-1.951,1.213V40.2a2,2,0,0,0,1.969,1.239,1.8,1.8,0,0,0,1.547-.747,3.912,3.912,0,0,0,.563-2.259Zm8.9-2.716a5.285,5.285,0,0,0-.87-.07A1.959,1.959,0,0,0,125.23,36.5V43h-2.136V33.49h2.039l.053,1.063a2.406,2.406,0,0,1,2.145-1.239,2,2,0,0,1,.756.123Zm5.537,7.734a4.419,4.419,0,0,1-3.292-1.279,4.639,4.639,0,0,1-1.261-3.406v-.264a5.706,5.706,0,0,1,.549-2.544,4.181,4.181,0,0,1,1.542-1.745,4.078,4.078,0,0,1,2.215-.624,3.733,3.733,0,0,1,3,1.239,5.24,5.24,0,0,1,1.059,3.507v.861h-6.214A2.856,2.856,0,0,0,132,40.785a2.362,2.362,0,0,0,1.736.686,2.892,2.892,0,0,0,2.391-1.187l1.151,1.1a3.845,3.845,0,0,1-1.525,1.323A4.774,4.774,0,0,1,133.615,43.176Zm-.255-8.147a1.8,1.8,0,0,0-1.419.615,3.189,3.189,0,0,0-.69,1.714h4.069V37.2a2.6,2.6,0,0,0-.571-1.622A1.785,1.785,0,0,0,133.36,35.028Z" transform="translate(298 2588)" fill="#00316e"/>
    <path id="Trazado_600408" data-name="Trazado 600408" d="M37.919,19V6.2H41.7a5.928,5.928,0,0,1,3.01.756A5.154,5.154,0,0,1,46.744,9.1a6.807,6.807,0,0,1,.721,3.182v.642a6.779,6.779,0,0,1-.725,3.2,5.092,5.092,0,0,1-2.065,2.127A6.2,6.2,0,0,1,41.6,19ZM40.143,8v9.229h1.45a3.339,3.339,0,0,0,2.685-1.094,4.766,4.766,0,0,0,.954-3.142v-.712a4.891,4.891,0,0,0-.905-3.182A3.209,3.209,0,0,0,41.7,8Zm13.518,11.18A4.419,4.419,0,0,1,50.369,17.9a4.639,4.639,0,0,1-1.261-3.406v-.264a5.706,5.706,0,0,1,.549-2.544A4.181,4.181,0,0,1,51.2,9.938a4.078,4.078,0,0,1,2.215-.624,3.733,3.733,0,0,1,3,1.239,5.24,5.24,0,0,1,1.059,3.507v.861H51.261a2.856,2.856,0,0,0,.787,1.863,2.362,2.362,0,0,0,1.736.686,2.892,2.892,0,0,0,2.391-1.187l1.151,1.1A3.845,3.845,0,0,1,55.8,18.706,4.774,4.774,0,0,1,53.661,19.176Zm-.255-8.147a1.8,1.8,0,0,0-1.419.615,3.189,3.189,0,0,0-.69,1.714h4.069V13.2a2.6,2.6,0,0,0-.571-1.622A1.785,1.785,0,0,0,53.406,11.028Zm8.4-3.85V9.49h1.679v1.582H61.808v5.309a1.169,1.169,0,0,0,.215.787,1,1,0,0,0,.769.242,3.29,3.29,0,0,0,.747-.088v1.652a5.26,5.26,0,0,1-1.406.2q-2.461,0-2.461-2.716V11.072H58.108V9.49h1.564V7.179Zm7.5,12A4.419,4.419,0,0,1,66.014,17.9a4.639,4.639,0,0,1-1.261-3.406v-.264a5.706,5.706,0,0,1,.549-2.544,4.181,4.181,0,0,1,1.542-1.745,4.078,4.078,0,0,1,2.215-.624,3.733,3.733,0,0,1,3,1.239,5.24,5.24,0,0,1,1.059,3.507v.861H66.906a2.856,2.856,0,0,0,.787,1.863,2.362,2.362,0,0,0,1.736.686,2.892,2.892,0,0,0,2.391-1.187l1.151,1.1a3.845,3.845,0,0,1-1.525,1.323A4.774,4.774,0,0,1,69.305,19.176Zm-.255-8.147a1.8,1.8,0,0,0-1.419.615,3.189,3.189,0,0,0-.69,1.714H71.01V13.2a2.6,2.6,0,0,0-.571-1.622A1.785,1.785,0,0,0,69.05,11.028Zm9.633,6.442A1.931,1.931,0,0,0,80.01,17a1.591,1.591,0,0,0,.563-1.151h2.013a3.137,3.137,0,0,1-.554,1.657,3.632,3.632,0,0,1-1.406,1.217,4.191,4.191,0,0,1-1.916.448,4.055,4.055,0,0,1-3.164-1.292,5.124,5.124,0,0,1-1.169-3.568V14.1a5.039,5.039,0,0,1,1.16-3.476A4.018,4.018,0,0,1,78.7,9.314a3.907,3.907,0,0,1,2.764.989,3.542,3.542,0,0,1,1.121,2.6H80.573a1.956,1.956,0,0,0-.558-1.345,1.8,1.8,0,0,0-1.332-.527,1.879,1.879,0,0,0-1.6.751,3.834,3.834,0,0,0-.571,2.281V14.4a3.9,3.9,0,0,0,.558,2.307A1.878,1.878,0,0,0,78.683,17.471Zm9.422,0A1.931,1.931,0,0,0,89.432,17a1.591,1.591,0,0,0,.563-1.151h2.013a3.137,3.137,0,0,1-.554,1.657,3.632,3.632,0,0,1-1.406,1.217,4.191,4.191,0,0,1-1.916.448,4.055,4.055,0,0,1-3.164-1.292A5.124,5.124,0,0,1,83.8,14.315V14.1a5.039,5.039,0,0,1,1.16-3.476,4.018,4.018,0,0,1,3.164-1.305,3.907,3.907,0,0,1,2.764.989,3.542,3.542,0,0,1,1.121,2.6H89.995a1.956,1.956,0,0,0-.558-1.345,1.8,1.8,0,0,0-1.332-.527,1.879,1.879,0,0,0-1.6.751,3.834,3.834,0,0,0-.571,2.281V14.4a3.9,3.9,0,0,0,.558,2.307A1.878,1.878,0,0,0,88.1,17.471ZM95.892,19H93.756V9.49h2.136ZM93.625,7.021a1.133,1.133,0,0,1,.312-.817,1.179,1.179,0,0,1,.892-.325,1.193,1.193,0,0,1,.9.325,1.125,1.125,0,0,1,.316.817,1.1,1.1,0,0,1-.316.8,1.2,1.2,0,0,1-.9.321,1.188,1.188,0,0,1-.892-.321A1.107,1.107,0,0,1,93.625,7.021Zm4.192,7.137a5.607,5.607,0,0,1,.554-2.518,4.044,4.044,0,0,1,1.556-1.723,4.383,4.383,0,0,1,2.3-.6,4.154,4.154,0,0,1,3.125,1.239,4.874,4.874,0,0,1,1.3,3.287l.009.5a5.658,5.658,0,0,1-.541,2.514,4,4,0,0,1-1.547,1.714,4.415,4.415,0,0,1-2.325.606,4.125,4.125,0,0,1-3.221-1.34,5.133,5.133,0,0,1-1.208-3.573Zm2.136.185a3.832,3.832,0,0,0,.606,2.3,1.971,1.971,0,0,0,1.688.831,1.95,1.95,0,0,0,1.683-.844,4.232,4.232,0,0,0,.6-2.47,3.782,3.782,0,0,0-.62-2.285,2.089,2.089,0,0,0-3.344-.013A4.152,4.152,0,0,0,99.953,14.342ZM102.818,5.5h2.435l-2.435,2.663-1.714,0Zm7.629,3.99.062,1.1a3.419,3.419,0,0,1,2.769-1.274q2.971,0,3.023,3.4V19h-2.136V12.839a1.958,1.958,0,0,0-.391-1.34,1.645,1.645,0,0,0-1.279-.435,2.058,2.058,0,0,0-1.925,1.169V19h-2.136V9.49ZM30.124,31.179V33.49H31.8v1.582H30.124v5.309a1.169,1.169,0,0,0,.215.787,1,1,0,0,0,.769.242,3.29,3.29,0,0,0,.747-.088v1.652a5.26,5.26,0,0,1-1.406.2q-2.461,0-2.461-2.716V35.072H26.423V33.49h1.564V31.179Zm7.5,12A4.419,4.419,0,0,1,34.329,41.9a4.639,4.639,0,0,1-1.261-3.406v-.264a5.706,5.706,0,0,1,.549-2.544,4.181,4.181,0,0,1,1.542-1.745,4.078,4.078,0,0,1,2.215-.624,3.733,3.733,0,0,1,3,1.239,5.24,5.24,0,0,1,1.059,3.507v.861H35.221a2.856,2.856,0,0,0,.787,1.863,2.362,2.362,0,0,0,1.736.686,2.892,2.892,0,0,0,2.391-1.187l1.151,1.1a3.845,3.845,0,0,1-1.525,1.323A4.774,4.774,0,0,1,37.621,43.176Zm-.255-8.147a1.8,1.8,0,0,0-1.419.615,3.189,3.189,0,0,0-.69,1.714h4.069V37.2a2.6,2.6,0,0,0-.571-1.622A1.785,1.785,0,0,0,37.366,35.028ZM45.1,33.49l.062.993A3.422,3.422,0,0,1,47.9,33.314a2.629,2.629,0,0,1,2.61,1.459,3.373,3.373,0,0,1,2.918-1.459,2.965,2.965,0,0,1,2.342.87,3.831,3.831,0,0,1,.787,2.566V43H54.425V36.813a1.891,1.891,0,0,0-.4-1.327,1.731,1.731,0,0,0-1.31-.422,1.778,1.778,0,0,0-1.191.391,2.063,2.063,0,0,0-.646,1.024L50.892,43H48.756V36.742a1.523,1.523,0,0,0-1.714-1.679,1.88,1.88,0,0,0-1.819,1.046V43H43.087V33.49Zm21.981,4.852a5.662,5.662,0,0,1-1,3.52,3.481,3.481,0,0,1-5.194.286v4.509H58.75V33.49h1.969l.088.967a3.137,3.137,0,0,1,2.558-1.143,3.242,3.242,0,0,1,2.729,1.3,5.813,5.813,0,0,1,.989,3.6Zm-2.127-.185a3.966,3.966,0,0,0-.567-2.259,1.843,1.843,0,0,0-1.622-.835,1.965,1.965,0,0,0-1.881,1.081v4.219a1.983,1.983,0,0,0,1.9,1.107,1.841,1.841,0,0,0,1.6-.822A4.366,4.366,0,0,0,64.955,38.157Zm8.912-2.716a5.285,5.285,0,0,0-.87-.07A1.959,1.959,0,0,0,71.019,36.5V43H68.883V33.49h2.039l.053,1.063a2.406,2.406,0,0,1,2.145-1.239,2,2,0,0,1,.756.123ZM80.634,43a3.3,3.3,0,0,1-.246-.888,3.593,3.593,0,0,1-4.834.246,2.615,2.615,0,0,1-.905-2.021A2.7,2.7,0,0,1,75.778,38a5.473,5.473,0,0,1,3.23-.813h1.31v-.624a1.666,1.666,0,0,0-.413-1.182,1.638,1.638,0,0,0-1.257-.444,1.881,1.881,0,0,0-1.2.365,1.129,1.129,0,0,0-.466.927H74.851a2.37,2.37,0,0,1,.519-1.463A3.455,3.455,0,0,1,76.78,33.7a4.955,4.955,0,0,1,1.991-.387,3.99,3.99,0,0,1,2.663.839,2.993,2.993,0,0,1,1.02,2.36V40.8a4.861,4.861,0,0,0,.36,2.048V43Zm-2.347-1.538a2.429,2.429,0,0,0,1.191-.308,2.055,2.055,0,0,0,.839-.826V38.535H79.167a3.148,3.148,0,0,0-1.784.413,1.338,1.338,0,0,0-.6,1.169,1.248,1.248,0,0,0,.409.98A1.583,1.583,0,0,0,78.288,41.462Zm8.385-7.972.062,1.1A3.419,3.419,0,0,1,89.5,33.314q2.971,0,3.023,3.4V43H90.39V36.839A1.958,1.958,0,0,0,90,35.5a1.645,1.645,0,0,0-1.279-.435A2.058,2.058,0,0,0,86.8,36.232V43H84.66V33.49ZM100.383,43a3.3,3.3,0,0,1-.246-.888,3.593,3.593,0,0,1-4.834.246,2.615,2.615,0,0,1-.905-2.021A2.7,2.7,0,0,1,95.527,38a5.473,5.473,0,0,1,3.23-.813h1.31v-.624a1.666,1.666,0,0,0-.413-1.182A1.638,1.638,0,0,0,98.4,34.94a1.881,1.881,0,0,0-1.2.365,1.129,1.129,0,0,0-.466.927H94.6a2.37,2.37,0,0,1,.519-1.463A3.455,3.455,0,0,1,96.529,33.7a4.955,4.955,0,0,1,1.991-.387,3.99,3.99,0,0,1,2.663.839,2.993,2.993,0,0,1,1.02,2.36V40.8a4.861,4.861,0,0,0,.36,2.048V43Zm-2.347-1.538a2.429,2.429,0,0,0,1.191-.308,2.055,2.055,0,0,0,.839-.826V38.535H98.916a3.148,3.148,0,0,0-1.784.413,1.338,1.338,0,0,0-.6,1.169,1.248,1.248,0,0,0,.409.98A1.583,1.583,0,0,0,98.037,41.462Zm10.485-3.287a5.654,5.654,0,0,1,1.02-3.529,3.267,3.267,0,0,1,2.733-1.332,3.1,3.1,0,0,1,2.443,1.055V29.5h2.136V43H114.92l-.105-.984a3.148,3.148,0,0,1-2.558,1.16,3.248,3.248,0,0,1-2.7-1.345A5.861,5.861,0,0,1,108.522,38.175Zm2.136.185a3.958,3.958,0,0,0,.558,2.263,1.811,1.811,0,0,0,1.586.813,2.017,2.017,0,0,0,1.916-1.169V36.206a1.986,1.986,0,0,0-1.9-1.143,1.824,1.824,0,0,0-1.6.822A4.408,4.408,0,0,0,110.658,38.359Zm12.612,4.816a4.419,4.419,0,0,1-3.292-1.279,4.639,4.639,0,0,1-1.261-3.406v-.264a5.706,5.706,0,0,1,.549-2.544,4.181,4.181,0,0,1,1.542-1.745,4.078,4.078,0,0,1,2.215-.624,3.733,3.733,0,0,1,3,1.239,5.24,5.24,0,0,1,1.059,3.507v.861h-6.214a2.856,2.856,0,0,0,.787,1.863,2.362,2.362,0,0,0,1.736.686,2.892,2.892,0,0,0,2.391-1.187l1.151,1.1a3.845,3.845,0,0,1-1.525,1.323A4.774,4.774,0,0,1,123.27,43.176Zm-.255-8.147a1.8,1.8,0,0,0-1.419.615,3.189,3.189,0,0,0-.69,1.714h4.069V37.2a2.6,2.6,0,0,0-.571-1.622A1.785,1.785,0,0,0,123.015,35.028ZM43.685,62.342a5.662,5.662,0,0,1-1,3.52,3.481,3.481,0,0,1-5.194.286v4.509H35.353V57.49h1.969l.088.967a3.137,3.137,0,0,1,2.558-1.143,3.242,3.242,0,0,1,2.729,1.3,5.813,5.813,0,0,1,.989,3.6Zm-2.127-.185a3.966,3.966,0,0,0-.567-2.259,1.843,1.843,0,0,0-1.622-.835,1.965,1.965,0,0,0-1.881,1.081v4.219a1.983,1.983,0,0,0,1.9,1.107,1.841,1.841,0,0,0,1.6-.822A4.366,4.366,0,0,0,41.558,62.157Zm8.912-2.716a5.285,5.285,0,0,0-.87-.07A1.959,1.959,0,0,0,47.623,60.5V67H45.487V57.49h2.039l.053,1.063a2.406,2.406,0,0,1,2.145-1.239,2,2,0,0,1,.756.123Zm.633,2.716a5.607,5.607,0,0,1,.554-2.518,4.044,4.044,0,0,1,1.556-1.723,4.383,4.383,0,0,1,2.3-.6,4.154,4.154,0,0,1,3.125,1.239,4.874,4.874,0,0,1,1.3,3.287l.009.5a5.658,5.658,0,0,1-.541,2.514,4,4,0,0,1-1.547,1.714,4.415,4.415,0,0,1-2.325.606,4.125,4.125,0,0,1-3.221-1.34A5.133,5.133,0,0,1,51.1,62.263Zm2.136.185a3.832,3.832,0,0,0,.606,2.3,1.971,1.971,0,0,0,1.688.831,1.95,1.95,0,0,0,1.683-.844,4.232,4.232,0,0,0,.6-2.47,3.782,3.782,0,0,0-.62-2.285,2.089,2.089,0,0,0-3.344-.013A4.152,4.152,0,0,0,53.239,62.342Zm16.857,0a5.712,5.712,0,0,1-.989,3.524,3.221,3.221,0,0,1-2.72,1.31,3.1,3.1,0,0,1-2.6-1.2L63.68,67H61.747V53.5h2.136v4.9a3.091,3.091,0,0,1,2.487-1.09A3.258,3.258,0,0,1,69.1,58.606a5.807,5.807,0,0,1,.993,3.612Zm-2.136-.185a4.037,4.037,0,0,0-.545-2.32,1.815,1.815,0,0,0-1.582-.773,1.983,1.983,0,0,0-1.951,1.213V64.2a2,2,0,0,0,1.969,1.239,1.8,1.8,0,0,0,1.547-.747,3.912,3.912,0,0,0,.563-2.259ZM74.157,67H72.021V53.5h2.136Zm6.513.176A4.419,4.419,0,0,1,77.378,65.9a4.639,4.639,0,0,1-1.261-3.406v-.264a5.706,5.706,0,0,1,.549-2.544,4.181,4.181,0,0,1,1.542-1.745,4.078,4.078,0,0,1,2.215-.624,3.733,3.733,0,0,1,3,1.239,5.24,5.24,0,0,1,1.059,3.507v.861H78.27a2.856,2.856,0,0,0,.787,1.863,2.362,2.362,0,0,0,1.736.686,2.892,2.892,0,0,0,2.391-1.187l1.151,1.1a3.845,3.845,0,0,1-1.525,1.323A4.774,4.774,0,0,1,80.669,67.176Zm-.255-8.147A1.8,1.8,0,0,0,79,59.644a3.189,3.189,0,0,0-.69,1.714h4.069V61.2a2.6,2.6,0,0,0-.571-1.622A1.785,1.785,0,0,0,80.415,59.028Zm7.734-1.538.062.993a3.422,3.422,0,0,1,2.742-1.169,2.629,2.629,0,0,1,2.61,1.459,3.373,3.373,0,0,1,2.918-1.459,2.965,2.965,0,0,1,2.342.87,3.831,3.831,0,0,1,.787,2.566V67H97.474V60.813a1.891,1.891,0,0,0-.4-1.327,1.731,1.731,0,0,0-1.31-.422,1.778,1.778,0,0,0-1.191.391,2.063,2.063,0,0,0-.646,1.024L93.941,67H91.805V60.742a1.523,1.523,0,0,0-1.714-1.679,1.88,1.88,0,0,0-1.819,1.046V67H86.136V57.49ZM107.485,67a3.3,3.3,0,0,1-.246-.888,3.593,3.593,0,0,1-4.834.246,2.615,2.615,0,0,1-.905-2.021A2.7,2.7,0,0,1,102.629,62a5.473,5.473,0,0,1,3.23-.813h1.31v-.624a1.666,1.666,0,0,0-.413-1.182,1.638,1.638,0,0,0-1.257-.444,1.881,1.881,0,0,0-1.2.365,1.129,1.129,0,0,0-.466.927H101.7a2.37,2.37,0,0,1,.519-1.463,3.455,3.455,0,0,1,1.411-1.068,4.955,4.955,0,0,1,1.991-.387,3.99,3.99,0,0,1,2.663.839,2.993,2.993,0,0,1,1.02,2.36V64.8a4.861,4.861,0,0,0,.36,2.048V67Zm-2.347-1.538a2.429,2.429,0,0,0,1.191-.308,2.055,2.055,0,0,0,.839-.826V62.535h-1.151a3.148,3.148,0,0,0-1.784.413,1.338,1.338,0,0,0-.6,1.169,1.248,1.248,0,0,0,.409.98A1.583,1.583,0,0,0,105.138,65.462Zm11.733-1.046a.968.968,0,0,0-.47-.87,5,5,0,0,0-1.56-.527,8.02,8.02,0,0,1-1.819-.58,2.428,2.428,0,0,1-1.6-2.241,2.531,2.531,0,0,1,1.037-2.057,4.1,4.1,0,0,1,2.637-.826,4.266,4.266,0,0,1,2.755.844,2.677,2.677,0,0,1,1.05,2.188h-2.136a1.316,1.316,0,0,0-.457-1.024,1.752,1.752,0,0,0-1.213-.409,1.893,1.893,0,0,0-1.147.325,1.025,1.025,0,0,0-.444.87.866.866,0,0,0,.413.765,5.68,5.68,0,0,0,1.67.549,7.9,7.9,0,0,1,1.973.659,2.794,2.794,0,0,1,1.063.918,2.342,2.342,0,0,1,.347,1.3,2.478,2.478,0,0,1-1.063,2.079,4.535,4.535,0,0,1-2.786.8,4.917,4.917,0,0,1-2.083-.422,3.428,3.428,0,0,1-1.424-1.16,2.746,2.746,0,0,1-.51-1.591h2.074a1.5,1.5,0,0,0,.571,1.165,2.22,2.22,0,0,0,1.4.409,2.16,2.16,0,0,0,1.283-.321A.993.993,0,0,0,116.872,64.416Z" transform="translate(514 2588)" fill="#00316e"/>
    <path id="Trazado_600409" data-name="Trazado 600409" d="M59.266,6.2l3.691,9.809L66.64,6.2h2.874V19H67.3V14.781l.22-5.643L63.739,19H62.148L58.378,9.147l.22,5.634V19H56.383V6.2ZM77.617,19a3.3,3.3,0,0,1-.246-.888,3.593,3.593,0,0,1-4.834.246,2.615,2.615,0,0,1-.905-2.021A2.7,2.7,0,0,1,72.761,14a5.473,5.473,0,0,1,3.23-.813H77.3v-.624a1.666,1.666,0,0,0-.413-1.182,1.638,1.638,0,0,0-1.257-.444,1.881,1.881,0,0,0-1.2.365,1.129,1.129,0,0,0-.466.927H71.834a2.37,2.37,0,0,1,.519-1.463A3.455,3.455,0,0,1,73.763,9.7a4.955,4.955,0,0,1,1.991-.387,3.99,3.99,0,0,1,2.663.839,2.993,2.993,0,0,1,1.02,2.36V16.8a4.861,4.861,0,0,0,.36,2.048V19Zm-2.347-1.538a2.429,2.429,0,0,0,1.191-.308,2.055,2.055,0,0,0,.839-.826V14.535H76.149a3.148,3.148,0,0,0-1.784.413,1.338,1.338,0,0,0-.6,1.169,1.248,1.248,0,0,0,.409.98A1.583,1.583,0,0,0,75.271,17.462ZM85,15.941,86.934,9.49H89.21L85.431,20.441q-.87,2.4-2.953,2.4a3.807,3.807,0,0,1-1.028-.159v-1.66l.4.026a2.079,2.079,0,0,0,1.217-.294,1.95,1.95,0,0,0,.646-.988l.308-.817L80.685,9.49h2.3Zm5.036-1.784a5.607,5.607,0,0,1,.554-2.518,4.044,4.044,0,0,1,1.556-1.723,4.383,4.383,0,0,1,2.3-.6,4.154,4.154,0,0,1,3.125,1.239,4.874,4.874,0,0,1,1.3,3.287l.009.5a5.658,5.658,0,0,1-.541,2.514,4,4,0,0,1-1.547,1.714,4.415,4.415,0,0,1-2.325.606,4.125,4.125,0,0,1-3.221-1.34,5.133,5.133,0,0,1-1.208-3.573Zm2.136.185a3.832,3.832,0,0,0,.606,2.3,1.971,1.971,0,0,0,1.688.831,1.95,1.95,0,0,0,1.683-.844,4.232,4.232,0,0,0,.6-2.47,3.782,3.782,0,0,0-.62-2.285,2.089,2.089,0,0,0-3.344-.013A4.152,4.152,0,0,0,92.172,14.342Zm13.491-2.9a5.285,5.285,0,0,0-.87-.07,1.959,1.959,0,0,0-1.978,1.125V19H100.68V9.49h2.039l.053,1.063a2.406,2.406,0,0,1,2.145-1.239,2,2,0,0,1,.756.123ZM32.538,43a3.3,3.3,0,0,1-.246-.888,3.593,3.593,0,0,1-4.834.246,2.615,2.615,0,0,1-.905-2.021A2.7,2.7,0,0,1,27.682,38a5.473,5.473,0,0,1,3.23-.813h1.31v-.624a1.666,1.666,0,0,0-.413-1.182,1.638,1.638,0,0,0-1.257-.444,1.881,1.881,0,0,0-1.2.365,1.129,1.129,0,0,0-.466.927H26.755a2.37,2.37,0,0,1,.519-1.463A3.455,3.455,0,0,1,28.684,33.7a4.955,4.955,0,0,1,1.991-.387,3.99,3.99,0,0,1,2.663.839,2.993,2.993,0,0,1,1.02,2.36V40.8a4.861,4.861,0,0,0,.36,2.048V43Zm-2.347-1.538a2.429,2.429,0,0,0,1.191-.308,2.055,2.055,0,0,0,.839-.826V38.535H31.07a3.148,3.148,0,0,0-1.784.413,1.338,1.338,0,0,0-.6,1.169,1.248,1.248,0,0,0,.409.98A1.583,1.583,0,0,0,30.191,41.462Zm6-3.287a5.654,5.654,0,0,1,1.02-3.529,3.267,3.267,0,0,1,2.733-1.332,3.1,3.1,0,0,1,2.443,1.055V29.5h2.136V43H42.593l-.105-.984a3.148,3.148,0,0,1-2.558,1.16,3.248,3.248,0,0,1-2.7-1.345A5.861,5.861,0,0,1,36.194,38.175Zm2.136.185a3.958,3.958,0,0,0,.558,2.263,1.811,1.811,0,0,0,1.586.813,2.017,2.017,0,0,0,1.916-1.169V36.206a1.986,1.986,0,0,0-1.9-1.143,1.824,1.824,0,0,0-1.6.822A4.408,4.408,0,0,0,38.33,38.359ZM52.437,43a3.3,3.3,0,0,1-.246-.888,3.593,3.593,0,0,1-4.834.246,2.615,2.615,0,0,1-.905-2.021A2.7,2.7,0,0,1,47.581,38a5.473,5.473,0,0,1,3.23-.813h1.31v-.624a1.666,1.666,0,0,0-.413-1.182,1.638,1.638,0,0,0-1.257-.444,1.881,1.881,0,0,0-1.2.365,1.129,1.129,0,0,0-.466.927H46.653a2.37,2.37,0,0,1,.519-1.463A3.455,3.455,0,0,1,48.583,33.7a4.955,4.955,0,0,1,1.991-.387,3.99,3.99,0,0,1,2.663.839,2.993,2.993,0,0,1,1.02,2.36V40.8a4.861,4.861,0,0,0,.36,2.048V43ZM50.09,41.462a2.429,2.429,0,0,0,1.191-.308,2.055,2.055,0,0,0,.839-.826V38.535H50.969a3.148,3.148,0,0,0-1.784.413,1.338,1.338,0,0,0-.6,1.169A1.248,1.248,0,0,0,49,41.1,1.583,1.583,0,0,0,50.09,41.462Zm14.73-3.12a5.662,5.662,0,0,1-1,3.52,3.481,3.481,0,0,1-5.194.286v4.509H56.488V33.49h1.969l.088.967A3.137,3.137,0,0,1,61.1,33.314a3.242,3.242,0,0,1,2.729,1.3,5.813,5.813,0,0,1,.989,3.6Zm-2.127-.185a3.966,3.966,0,0,0-.567-2.259,1.843,1.843,0,0,0-1.622-.835,1.965,1.965,0,0,0-1.881,1.081v4.219a1.983,1.983,0,0,0,1.9,1.107,1.841,1.841,0,0,0,1.6-.822A4.366,4.366,0,0,0,62.693,38.157ZM69.3,31.179V33.49h1.679v1.582H69.3v5.309a1.169,1.169,0,0,0,.215.787,1,1,0,0,0,.769.242,3.29,3.29,0,0,0,.747-.088v1.652a5.26,5.26,0,0,1-1.406.2q-2.461,0-2.461-2.716V35.072H65.6V33.49h1.564V31.179ZM78.294,43a3.3,3.3,0,0,1-.246-.888,3.593,3.593,0,0,1-4.834.246,2.615,2.615,0,0,1-.905-2.021A2.7,2.7,0,0,1,73.438,38a5.473,5.473,0,0,1,3.23-.813h1.31v-.624a1.666,1.666,0,0,0-.413-1.182,1.638,1.638,0,0,0-1.257-.444,1.881,1.881,0,0,0-1.2.365,1.129,1.129,0,0,0-.466.927H72.511a2.37,2.37,0,0,1,.519-1.463A3.455,3.455,0,0,1,74.44,33.7a4.955,4.955,0,0,1,1.991-.387,3.99,3.99,0,0,1,2.663.839,2.993,2.993,0,0,1,1.02,2.36V40.8a4.861,4.861,0,0,0,.36,2.048V43Zm-2.347-1.538a2.429,2.429,0,0,0,1.191-.308,2.055,2.055,0,0,0,.839-.826V38.535H76.826a3.148,3.148,0,0,0-1.784.413,1.338,1.338,0,0,0-.6,1.169,1.248,1.248,0,0,0,.409.98A1.583,1.583,0,0,0,75.947,41.462ZM90.7,38.342a5.712,5.712,0,0,1-.989,3.524,3.221,3.221,0,0,1-2.72,1.31,3.1,3.1,0,0,1-2.6-1.2L84.279,43H82.346V29.5h2.136v4.9a3.091,3.091,0,0,1,2.487-1.09A3.258,3.258,0,0,1,89.7,34.606a5.807,5.807,0,0,1,.993,3.612Zm-2.136-.185a4.037,4.037,0,0,0-.545-2.32,1.815,1.815,0,0,0-1.582-.773,1.983,1.983,0,0,0-1.951,1.213V40.2a2,2,0,0,0,1.969,1.239A1.8,1.8,0,0,0,88,40.688a3.912,3.912,0,0,0,.563-2.259ZM94.756,43H92.62V33.49h2.136ZM92.488,31.021A1.133,1.133,0,0,1,92.8,30.2a1.179,1.179,0,0,1,.892-.325,1.193,1.193,0,0,1,.9.325,1.125,1.125,0,0,1,.316.817,1.1,1.1,0,0,1-.316.8,1.2,1.2,0,0,1-.9.321,1.188,1.188,0,0,1-.892-.321A1.107,1.107,0,0,1,92.488,31.021ZM99.353,43H97.217V29.5h2.136Zm4.6,0h-2.136V33.49h2.136Zm-2.268-11.979a1.133,1.133,0,0,1,.312-.817,1.179,1.179,0,0,1,.892-.325,1.193,1.193,0,0,1,.9.325,1.125,1.125,0,0,1,.316.817,1.1,1.1,0,0,1-.316.8,1.2,1.2,0,0,1-.9.321,1.188,1.188,0,0,1-.892-.321A1.107,1.107,0,0,1,101.682,31.021Zm4.192,7.154a5.654,5.654,0,0,1,1.02-3.529,3.267,3.267,0,0,1,2.733-1.332,3.1,3.1,0,0,1,2.443,1.055V29.5h2.136V43h-1.934l-.105-.984a3.148,3.148,0,0,1-2.558,1.16,3.248,3.248,0,0,1-2.7-1.345A5.861,5.861,0,0,1,105.874,38.175Zm2.136.185a3.958,3.958,0,0,0,.558,2.263,1.811,1.811,0,0,0,1.586.813,2.017,2.017,0,0,0,1.916-1.169V36.206a1.986,1.986,0,0,0-1.9-1.143,1.824,1.824,0,0,0-1.6.822A4.408,4.408,0,0,0,108.01,38.359ZM122.116,43a3.3,3.3,0,0,1-.246-.888,3.593,3.593,0,0,1-4.834.246,2.615,2.615,0,0,1-.905-2.021A2.7,2.7,0,0,1,117.26,38a5.473,5.473,0,0,1,3.23-.813h1.31v-.624a1.666,1.666,0,0,0-.413-1.182,1.638,1.638,0,0,0-1.257-.444,1.881,1.881,0,0,0-1.2.365,1.129,1.129,0,0,0-.466.927h-2.136a2.37,2.37,0,0,1,.519-1.463,3.455,3.455,0,0,1,1.411-1.068,4.955,4.955,0,0,1,1.991-.387,3.99,3.99,0,0,1,2.663.839,2.993,2.993,0,0,1,1.02,2.36V40.8a4.861,4.861,0,0,0,.36,2.048V43Zm-2.347-1.538a2.429,2.429,0,0,0,1.191-.308,2.055,2.055,0,0,0,.839-.826V38.535h-1.151a3.148,3.148,0,0,0-1.784.413,1.338,1.338,0,0,0-.6,1.169,1.248,1.248,0,0,0,.409.98A1.583,1.583,0,0,0,119.77,41.462Zm6-3.287a5.654,5.654,0,0,1,1.02-3.529,3.267,3.267,0,0,1,2.733-1.332,3.1,3.1,0,0,1,2.443,1.055V29.5H134.1V43h-1.934l-.105-.984a3.148,3.148,0,0,1-2.558,1.16,3.248,3.248,0,0,1-2.7-1.345A5.861,5.861,0,0,1,125.772,38.175Zm2.136.185a3.958,3.958,0,0,0,.558,2.263,1.811,1.811,0,0,0,1.586.813,2.017,2.017,0,0,0,1.916-1.169V36.206a1.986,1.986,0,0,0-1.9-1.143,1.824,1.824,0,0,0-1.6.822A4.408,4.408,0,0,0,127.908,38.359Z" transform="translate(720 2588)" fill="#00316e"/>
    <path id="Trazado_600410" data-name="Trazado 600410" d="M44.766,6.2l3.691,9.809L52.14,6.2h2.874V19H52.8V14.781l.22-5.643L49.239,19H47.648L43.878,9.147l.22,5.634V19H41.883V6.2ZM63.117,19a3.3,3.3,0,0,1-.246-.888,3.593,3.593,0,0,1-4.834.246,2.615,2.615,0,0,1-.905-2.021A2.7,2.7,0,0,1,58.261,14a5.473,5.473,0,0,1,3.23-.813H62.8v-.624a1.666,1.666,0,0,0-.413-1.182,1.638,1.638,0,0,0-1.257-.444,1.881,1.881,0,0,0-1.2.365,1.129,1.129,0,0,0-.466.927H57.334a2.37,2.37,0,0,1,.519-1.463A3.455,3.455,0,0,1,59.263,9.7a4.955,4.955,0,0,1,1.991-.387,3.99,3.99,0,0,1,2.663.839,2.993,2.993,0,0,1,1.02,2.36V16.8a4.861,4.861,0,0,0,.36,2.048V19Zm-2.347-1.538a2.429,2.429,0,0,0,1.191-.308,2.055,2.055,0,0,0,.839-.826V14.535H61.649a3.148,3.148,0,0,0-1.784.413,1.338,1.338,0,0,0-.6,1.169,1.248,1.248,0,0,0,.409.98A1.583,1.583,0,0,0,60.771,17.462ZM70.5,15.941,72.434,9.49H74.71L70.931,20.441q-.87,2.4-2.953,2.4a3.807,3.807,0,0,1-1.028-.159v-1.66l.4.026a2.079,2.079,0,0,0,1.217-.294,1.95,1.95,0,0,0,.646-.988l.308-.817L66.185,9.49h2.3Zm5.036-1.784a5.607,5.607,0,0,1,.554-2.518,4.044,4.044,0,0,1,1.556-1.723,4.383,4.383,0,0,1,2.3-.6,4.154,4.154,0,0,1,3.125,1.239,4.874,4.874,0,0,1,1.3,3.287l.009.5a5.658,5.658,0,0,1-.541,2.514,4,4,0,0,1-1.547,1.714,4.415,4.415,0,0,1-2.325.606,4.125,4.125,0,0,1-3.221-1.34,5.133,5.133,0,0,1-1.208-3.573Zm2.136.185a3.832,3.832,0,0,0,.606,2.3,1.971,1.971,0,0,0,1.688.831,1.95,1.95,0,0,0,1.683-.844,4.232,4.232,0,0,0,.6-2.47,3.782,3.782,0,0,0-.62-2.285,2.089,2.089,0,0,0-3.344-.013A4.152,4.152,0,0,0,77.672,14.342Zm13.491-2.9a5.285,5.285,0,0,0-.87-.07A1.959,1.959,0,0,0,88.315,12.5V19H86.18V9.49h2.039l.053,1.063a2.406,2.406,0,0,1,2.145-1.239,2,2,0,0,1,.756.123ZM8.858,43.176A4.419,4.419,0,0,1,5.566,41.9a4.639,4.639,0,0,1-1.261-3.406v-.264a5.706,5.706,0,0,1,.549-2.544A4.181,4.181,0,0,1,6.4,33.938a4.078,4.078,0,0,1,2.215-.624,3.733,3.733,0,0,1,3,1.239,5.24,5.24,0,0,1,1.059,3.507v.861H6.458a2.856,2.856,0,0,0,.787,1.863,2.362,2.362,0,0,0,1.736.686,2.892,2.892,0,0,0,2.391-1.187l1.151,1.1A3.845,3.845,0,0,1,11,42.706,4.774,4.774,0,0,1,8.858,43.176ZM8.6,35.028a1.8,1.8,0,0,0-1.419.615,3.189,3.189,0,0,0-.69,1.714h4.069V37.2a2.6,2.6,0,0,0-.571-1.622A1.785,1.785,0,0,0,8.6,35.028ZM14.9,43V35.072h-1.45V33.49H14.9v-.65a3.8,3.8,0,0,1,.475-1.916,2.952,2.952,0,0,1,1.318-1.2,4.745,4.745,0,0,1,2.048-.4,5.97,5.97,0,0,1,1.349.149q.646.149,1.34.378L21.1,31.609a6.8,6.8,0,0,0-2.215-.422,1.979,1.979,0,0,0-1.415.426,1.705,1.705,0,0,0-.439,1.279v.6H18.9v1.582H17.032V43Zm7.541,0H20.3V33.49h2.136Zm6.275-1.529A1.931,1.931,0,0,0,30.04,41a1.591,1.591,0,0,0,.563-1.151h2.013a3.137,3.137,0,0,1-.554,1.657,3.632,3.632,0,0,1-1.406,1.217,4.191,4.191,0,0,1-1.916.448,4.055,4.055,0,0,1-3.164-1.292,5.124,5.124,0,0,1-1.169-3.568V38.1a5.039,5.039,0,0,1,1.16-3.476,4.018,4.018,0,0,1,3.164-1.305,3.907,3.907,0,0,1,2.764.989,3.542,3.542,0,0,1,1.121,2.6H30.6a1.956,1.956,0,0,0-.558-1.345,1.8,1.8,0,0,0-1.332-.527,1.879,1.879,0,0,0-1.6.751,3.834,3.834,0,0,0-.571,2.281V38.4A3.9,3.9,0,0,0,27.1,40.71,1.878,1.878,0,0,0,28.712,41.471ZM36.5,43H34.364V33.49H36.5ZM34.232,31.021a1.133,1.133,0,0,1,.312-.817,1.179,1.179,0,0,1,.892-.325,1.193,1.193,0,0,1,.9.325,1.125,1.125,0,0,1,.316.817,1.1,1.1,0,0,1-.316.8,1.2,1.2,0,0,1-.9.321,1.188,1.188,0,0,1-.892-.321A1.107,1.107,0,0,1,34.232,31.021Zm8.78,12.155A4.419,4.419,0,0,1,39.721,41.9a4.639,4.639,0,0,1-1.261-3.406v-.264a5.706,5.706,0,0,1,.549-2.544,4.181,4.181,0,0,1,1.542-1.745,4.078,4.078,0,0,1,2.215-.624,3.733,3.733,0,0,1,3,1.239,5.24,5.24,0,0,1,1.059,3.507v.861H40.613a2.856,2.856,0,0,0,.787,1.863,2.362,2.362,0,0,0,1.736.686,2.892,2.892,0,0,0,2.391-1.187l1.151,1.1a3.845,3.845,0,0,1-1.525,1.323A4.774,4.774,0,0,1,43.012,43.176Zm-.255-8.147a1.8,1.8,0,0,0-1.419.615,3.189,3.189,0,0,0-.69,1.714h4.069V37.2a2.6,2.6,0,0,0-.571-1.622A1.785,1.785,0,0,0,42.757,35.028Zm7.708-1.538.062,1.1A3.419,3.419,0,0,1,53.3,33.314q2.971,0,3.023,3.4V43H54.183V36.839a1.958,1.958,0,0,0-.391-1.34,1.645,1.645,0,0,0-1.279-.435,2.058,2.058,0,0,0-1.925,1.169V43H48.453V33.49ZM62.4,41.471A1.931,1.931,0,0,0,63.728,41a1.591,1.591,0,0,0,.563-1.151H66.3a3.137,3.137,0,0,1-.554,1.657,3.632,3.632,0,0,1-1.406,1.217,4.191,4.191,0,0,1-1.916.448,4.055,4.055,0,0,1-3.164-1.292,5.124,5.124,0,0,1-1.169-3.568V38.1a5.039,5.039,0,0,1,1.16-3.476,4.018,4.018,0,0,1,3.164-1.305,3.907,3.907,0,0,1,2.764.989A3.542,3.542,0,0,1,66.3,36.9H64.291a1.956,1.956,0,0,0-.558-1.345,1.8,1.8,0,0,0-1.332-.527,1.879,1.879,0,0,0-1.6.751,3.834,3.834,0,0,0-.571,2.281V38.4a3.9,3.9,0,0,0,.558,2.307A1.878,1.878,0,0,0,62.4,41.471ZM70.188,43H68.052V33.49h2.136ZM67.92,31.021a1.133,1.133,0,0,1,.312-.817,1.179,1.179,0,0,1,.892-.325,1.193,1.193,0,0,1,.9.325,1.125,1.125,0,0,1,.316.817,1.1,1.1,0,0,1-.316.8,1.2,1.2,0,0,1-.9.321,1.188,1.188,0,0,1-.892-.321A1.107,1.107,0,0,1,67.92,31.021ZM78.195,43a3.3,3.3,0,0,1-.246-.888,3.593,3.593,0,0,1-4.834.246,2.615,2.615,0,0,1-.905-2.021A2.7,2.7,0,0,1,73.339,38a5.473,5.473,0,0,1,3.23-.813h1.31v-.624a1.666,1.666,0,0,0-.413-1.182,1.638,1.638,0,0,0-1.257-.444,1.881,1.881,0,0,0-1.2.365,1.129,1.129,0,0,0-.466.927H72.412a2.37,2.37,0,0,1,.519-1.463A3.455,3.455,0,0,1,74.341,33.7a4.955,4.955,0,0,1,1.991-.387,3.99,3.99,0,0,1,2.663.839,2.993,2.993,0,0,1,1.02,2.36V40.8a4.861,4.861,0,0,0,.36,2.048V43Zm-2.347-1.538a2.429,2.429,0,0,0,1.191-.308,2.055,2.055,0,0,0,.839-.826V38.535H76.727a3.148,3.148,0,0,0-1.784.413,1.338,1.338,0,0,0-.6,1.169,1.248,1.248,0,0,0,.409.98A1.583,1.583,0,0,0,75.848,41.462ZM90.06,39.941l1.934-6.451H94.27L90.491,44.441q-.87,2.4-2.953,2.4a3.807,3.807,0,0,1-1.028-.159v-1.66l.4.026a2.079,2.079,0,0,0,1.217-.294,1.95,1.95,0,0,0,.646-.988l.308-.817-3.34-9.459h2.3Zm15.68,2.127a3.312,3.312,0,0,1-2.672,1.107,2.952,2.952,0,0,1-2.342-.905,3.851,3.851,0,0,1-.8-2.619V33.49h2.136v6.135q0,1.811,1.5,1.811a2.111,2.111,0,0,0,2.1-1.116V33.49h2.136V43h-2.013Zm9.571-1.652a.968.968,0,0,0-.47-.87,5,5,0,0,0-1.56-.527,8.02,8.02,0,0,1-1.819-.58,2.428,2.428,0,0,1-1.6-2.241,2.531,2.531,0,0,1,1.037-2.057,4.1,4.1,0,0,1,2.637-.826,4.266,4.266,0,0,1,2.755.844,2.677,2.677,0,0,1,1.05,2.188h-2.136a1.316,1.316,0,0,0-.457-1.024,1.752,1.752,0,0,0-1.213-.409,1.893,1.893,0,0,0-1.147.325,1.025,1.025,0,0,0-.444.87.866.866,0,0,0,.413.765,5.68,5.68,0,0,0,1.67.549,7.9,7.9,0,0,1,1.973.659,2.794,2.794,0,0,1,1.063.918,2.342,2.342,0,0,1,.347,1.3,2.478,2.478,0,0,1-1.063,2.079,4.535,4.535,0,0,1-2.786.8,4.917,4.917,0,0,1-2.083-.422,3.428,3.428,0,0,1-1.424-1.16,2.746,2.746,0,0,1-.51-1.591h2.074a1.5,1.5,0,0,0,.571,1.165,2.22,2.22,0,0,0,1.4.409,2.16,2.16,0,0,0,1.283-.321A.993.993,0,0,0,115.311,40.416Zm3.56-2.259a5.607,5.607,0,0,1,.554-2.518,4.044,4.044,0,0,1,1.556-1.723,4.383,4.383,0,0,1,2.3-.6,4.154,4.154,0,0,1,3.125,1.239,4.874,4.874,0,0,1,1.3,3.287l.009.5a5.658,5.658,0,0,1-.541,2.514,4,4,0,0,1-1.547,1.714,4.415,4.415,0,0,1-2.325.606,4.125,4.125,0,0,1-3.221-1.34,5.133,5.133,0,0,1-1.208-3.573Zm2.136.185a3.832,3.832,0,0,0,.606,2.3,1.971,1.971,0,0,0,1.688.831,1.95,1.95,0,0,0,1.683-.844,4.232,4.232,0,0,0,.6-2.47,3.782,3.782,0,0,0-.62-2.285,2.089,2.089,0,0,0-3.344-.013A4.152,4.152,0,0,0,121.006,38.342ZM4.2,62.175a5.654,5.654,0,0,1,1.02-3.529,3.267,3.267,0,0,1,2.733-1.332A3.1,3.1,0,0,1,10.4,58.369V53.5h2.136V67H10.6l-.105-.984a3.148,3.148,0,0,1-2.558,1.16,3.248,3.248,0,0,1-2.7-1.345A5.861,5.861,0,0,1,4.2,62.175Zm2.136.185A3.958,3.958,0,0,0,6.9,64.623a1.811,1.811,0,0,0,1.586.813A2.017,2.017,0,0,0,10.4,64.267V60.206a1.986,1.986,0,0,0-1.9-1.143,1.824,1.824,0,0,0-1.6.822A4.408,4.408,0,0,0,6.34,62.359Zm12.612,4.816A4.419,4.419,0,0,1,15.661,65.9,4.639,4.639,0,0,1,14.4,62.491v-.264a5.706,5.706,0,0,1,.549-2.544,4.181,4.181,0,0,1,1.542-1.745,4.078,4.078,0,0,1,2.215-.624,3.733,3.733,0,0,1,3,1.239,5.24,5.24,0,0,1,1.059,3.507v.861H16.553a2.856,2.856,0,0,0,.787,1.863,2.362,2.362,0,0,0,1.736.686,2.892,2.892,0,0,0,2.391-1.187l1.151,1.1a3.845,3.845,0,0,1-1.525,1.323A4.774,4.774,0,0,1,18.952,67.176ZM18.7,59.028a1.8,1.8,0,0,0-1.419.615,3.189,3.189,0,0,0-.69,1.714h4.069V61.2a2.6,2.6,0,0,0-.571-1.622A1.785,1.785,0,0,0,18.7,59.028ZM26.7,67H24.56V53.5H26.7Zm9.483-11.821V57.49h1.679v1.582H36.179v5.309a1.169,1.169,0,0,0,.215.787,1,1,0,0,0,.769.242,3.29,3.29,0,0,0,.747-.088v1.652a5.26,5.26,0,0,1-1.406.2q-2.461,0-2.461-2.716V59.072H32.479V57.49h1.564V55.179ZM41.76,67H39.624V57.49H41.76ZM39.492,55.021A1.133,1.133,0,0,1,39.8,54.2a1.179,1.179,0,0,1,.892-.325,1.193,1.193,0,0,1,.9.325,1.125,1.125,0,0,1,.316.817,1.1,1.1,0,0,1-.316.8,1.2,1.2,0,0,1-.9.321,1.188,1.188,0,0,1-.892-.321A1.107,1.107,0,0,1,39.492,55.021Zm8.78,12.155A4.419,4.419,0,0,1,44.981,65.9a4.639,4.639,0,0,1-1.261-3.406v-.264a5.706,5.706,0,0,1,.549-2.544,4.181,4.181,0,0,1,1.542-1.745,4.078,4.078,0,0,1,2.215-.624,3.733,3.733,0,0,1,3,1.239,5.24,5.24,0,0,1,1.059,3.507v.861H45.873a2.856,2.856,0,0,0,.787,1.863,2.362,2.362,0,0,0,1.736.686,2.892,2.892,0,0,0,2.391-1.187l1.151,1.1a3.845,3.845,0,0,1-1.525,1.323A4.774,4.774,0,0,1,48.272,67.176Zm-.255-8.147a1.8,1.8,0,0,0-1.419.615,3.189,3.189,0,0,0-.69,1.714h4.069V61.2a2.6,2.6,0,0,0-.571-1.622A1.785,1.785,0,0,0,48.018,59.028Zm7.734-1.538.062.993a3.422,3.422,0,0,1,2.742-1.169,2.629,2.629,0,0,1,2.61,1.459,3.373,3.373,0,0,1,2.918-1.459,2.965,2.965,0,0,1,2.342.87,3.831,3.831,0,0,1,.787,2.566V67H65.077V60.813a1.891,1.891,0,0,0-.4-1.327,1.731,1.731,0,0,0-1.31-.422,1.778,1.778,0,0,0-1.191.391,2.063,2.063,0,0,0-.646,1.024L61.544,67H59.408V60.742a1.523,1.523,0,0,0-1.714-1.679,1.88,1.88,0,0,0-1.819,1.046V67H53.739V57.49Zm21.981,4.852a5.662,5.662,0,0,1-1,3.52,3.481,3.481,0,0,1-5.194.286v4.509H69.4V57.49H71.37l.088.967a3.137,3.137,0,0,1,2.558-1.143,3.242,3.242,0,0,1,2.729,1.3,5.813,5.813,0,0,1,.989,3.6Zm-2.127-.185A3.966,3.966,0,0,0,75.04,59.9a1.843,1.843,0,0,0-1.622-.835,1.965,1.965,0,0,0-1.881,1.081v4.219a1.983,1.983,0,0,0,1.9,1.107,1.841,1.841,0,0,0,1.6-.822A4.366,4.366,0,0,0,75.606,62.157Zm3.533,0a5.607,5.607,0,0,1,.554-2.518,4.044,4.044,0,0,1,1.556-1.723,4.383,4.383,0,0,1,2.3-.6,4.154,4.154,0,0,1,3.125,1.239,4.874,4.874,0,0,1,1.3,3.287l.009.5a5.658,5.658,0,0,1-.541,2.514,4,4,0,0,1-1.547,1.714,4.415,4.415,0,0,1-2.325.606,4.125,4.125,0,0,1-3.221-1.34,5.133,5.133,0,0,1-1.208-3.573Zm2.136.185a3.832,3.832,0,0,0,.606,2.3,1.971,1.971,0,0,0,1.688.831,1.95,1.95,0,0,0,1.683-.844,4.232,4.232,0,0,0,.6-2.47,3.782,3.782,0,0,0-.62-2.285,2.089,2.089,0,0,0-3.344-.013A4.152,4.152,0,0,0,81.275,62.342ZM96.542,67H94.406V53.5h2.136Zm4.6,0H99V57.49h2.136ZM98.871,55.021a1.133,1.133,0,0,1,.312-.817,1.179,1.179,0,0,1,.892-.325,1.193,1.193,0,0,1,.9.325,1.125,1.125,0,0,1,.316.817,1.1,1.1,0,0,1-.316.8,1.2,1.2,0,0,1-.9.321,1.188,1.188,0,0,1-.892-.321A1.107,1.107,0,0,1,98.871,55.021Zm12.938,7.321a5.712,5.712,0,0,1-.989,3.524,3.221,3.221,0,0,1-2.72,1.31,3.1,3.1,0,0,1-2.6-1.2L105.393,67h-1.934V53.5h2.136v4.9a3.091,3.091,0,0,1,2.487-1.09,3.258,3.258,0,0,1,2.733,1.292,5.807,5.807,0,0,1,.993,3.612Zm-2.136-.185a4.037,4.037,0,0,0-.545-2.32,1.815,1.815,0,0,0-1.582-.773,1.983,1.983,0,0,0-1.951,1.213V64.2a2,2,0,0,0,1.969,1.239,1.8,1.8,0,0,0,1.547-.747,3.912,3.912,0,0,0,.563-2.259Zm8.9-2.716a5.285,5.285,0,0,0-.87-.07,1.959,1.959,0,0,0-1.978,1.125V67h-2.136V57.49h2.039l.053,1.063a2.406,2.406,0,0,1,2.145-1.239,2,2,0,0,1,.756.123Zm5.537,7.734a4.419,4.419,0,0,1-3.292-1.279,4.639,4.639,0,0,1-1.261-3.406v-.264a5.706,5.706,0,0,1,.549-2.544,4.181,4.181,0,0,1,1.542-1.745,4.078,4.078,0,0,1,2.215-.624,3.733,3.733,0,0,1,3,1.239,5.24,5.24,0,0,1,1.059,3.507v.861h-6.214a2.856,2.856,0,0,0,.787,1.863,2.362,2.362,0,0,0,1.736.686,2.892,2.892,0,0,0,2.391-1.187l1.151,1.1a3.845,3.845,0,0,1-1.525,1.323A4.774,4.774,0,0,1,124.113,67.176Zm-.255-8.147a1.8,1.8,0,0,0-1.419.615,3.189,3.189,0,0,0-.69,1.714h4.069V61.2a2.6,2.6,0,0,0-.571-1.622A1.785,1.785,0,0,0,123.858,59.028Z" transform="translate(944 2588)" fill="#00316e"/>
    <path id="Trazado_600411" data-name="Trazado 600411" d="M45.233,14.834a4.621,4.621,0,0,1-1.512,3.195,5.154,5.154,0,0,1-3.507,1.147,4.99,4.99,0,0,1-2.694-.725,4.759,4.759,0,0,1-1.8-2.061,7.438,7.438,0,0,1-.659-3.1v-1.2a7.491,7.491,0,0,1,.642-3.19,4.835,4.835,0,0,1,1.841-2.127,5.136,5.136,0,0,1,2.773-.747,4.946,4.946,0,0,1,3.41,1.147,4.793,4.793,0,0,1,1.5,3.248H43.018a3.161,3.161,0,0,0-.8-1.991A2.658,2.658,0,0,0,40.32,7.82a2.6,2.6,0,0,0-2.228,1.06,5.3,5.3,0,0,0-.8,3.11v1.135a5.62,5.62,0,0,0,.743,3.167,2.464,2.464,0,0,0,2.175,1.091,2.875,2.875,0,0,0,1.969-.589,3.071,3.071,0,0,0,.835-1.96ZM52.695,19a3.3,3.3,0,0,1-.246-.888,3.593,3.593,0,0,1-4.834.246,2.615,2.615,0,0,1-.905-2.021A2.7,2.7,0,0,1,47.839,14a5.473,5.473,0,0,1,3.23-.813h1.31v-.624a1.666,1.666,0,0,0-.413-1.182,1.638,1.638,0,0,0-1.257-.444,1.881,1.881,0,0,0-1.2.365,1.129,1.129,0,0,0-.466.927H46.912a2.37,2.37,0,0,1,.519-1.463A3.455,3.455,0,0,1,48.841,9.7a4.955,4.955,0,0,1,1.991-.387,3.99,3.99,0,0,1,2.663.839,2.993,2.993,0,0,1,1.02,2.36V16.8a4.861,4.861,0,0,0,.36,2.048V19Zm-2.347-1.538a2.429,2.429,0,0,0,1.191-.308,2.055,2.055,0,0,0,.839-.826V14.535H51.227a3.148,3.148,0,0,0-1.784.413,1.338,1.338,0,0,0-.6,1.169,1.248,1.248,0,0,0,.409.98A1.583,1.583,0,0,0,50.348,17.462ZM58.759,9.49l.062.993a3.422,3.422,0,0,1,2.742-1.169,2.629,2.629,0,0,1,2.61,1.459,3.373,3.373,0,0,1,2.918-1.459,2.965,2.965,0,0,1,2.342.87,3.831,3.831,0,0,1,.787,2.566V19H68.084V12.813a1.891,1.891,0,0,0-.4-1.327,1.731,1.731,0,0,0-1.31-.422,1.778,1.778,0,0,0-1.191.391,2.063,2.063,0,0,0-.646,1.024L64.551,19H62.416V12.742A1.523,1.523,0,0,0,60.7,11.063a1.88,1.88,0,0,0-1.819,1.046V19H56.747V9.49Zm22,4.852a5.712,5.712,0,0,1-.989,3.524,3.221,3.221,0,0,1-2.72,1.31,3.1,3.1,0,0,1-2.6-1.2L74.342,19H72.409V5.5h2.136v4.9a3.091,3.091,0,0,1,2.487-1.09,3.258,3.258,0,0,1,2.733,1.292,5.807,5.807,0,0,1,.993,3.612Zm-2.136-.185a4.037,4.037,0,0,0-.545-2.32,1.815,1.815,0,0,0-1.582-.773,1.983,1.983,0,0,0-1.951,1.213V16.2a2,2,0,0,0,1.969,1.239,1.8,1.8,0,0,0,1.547-.747,3.912,3.912,0,0,0,.563-2.259ZM84.819,19H82.683V9.49h2.136ZM82.551,7.021a1.133,1.133,0,0,1,.312-.817,1.179,1.179,0,0,1,.892-.325,1.193,1.193,0,0,1,.9.325,1.125,1.125,0,0,1,.316.817,1.1,1.1,0,0,1-.316.8,1.2,1.2,0,0,1-.9.321,1.188,1.188,0,0,1-.892-.321A1.107,1.107,0,0,1,82.551,7.021Zm4.192,7.137a5.607,5.607,0,0,1,.554-2.518,4.044,4.044,0,0,1,1.556-1.723,4.383,4.383,0,0,1,2.3-.6,4.154,4.154,0,0,1,3.125,1.239,4.874,4.874,0,0,1,1.3,3.287l.009.5a5.658,5.658,0,0,1-.541,2.514A4,4,0,0,1,93.5,18.569a4.415,4.415,0,0,1-2.325.606,4.125,4.125,0,0,1-3.221-1.34,5.133,5.133,0,0,1-1.208-3.573Zm2.136.185a3.832,3.832,0,0,0,.606,2.3,1.971,1.971,0,0,0,1.688.831,1.95,1.95,0,0,0,1.683-.844,4.232,4.232,0,0,0,.6-2.47,3.782,3.782,0,0,0-.62-2.285,2.089,2.089,0,0,0-3.344-.013A4.152,4.152,0,0,0,88.879,14.342Zm13.843,2.074a.968.968,0,0,0-.47-.87,5,5,0,0,0-1.56-.527,8.02,8.02,0,0,1-1.819-.58,2.428,2.428,0,0,1-1.6-2.241,2.531,2.531,0,0,1,1.037-2.057,4.1,4.1,0,0,1,2.637-.826,4.266,4.266,0,0,1,2.755.844,2.677,2.677,0,0,1,1.05,2.188h-2.136a1.316,1.316,0,0,0-.457-1.024,1.752,1.752,0,0,0-1.213-.409,1.893,1.893,0,0,0-1.147.325,1.025,1.025,0,0,0-.444.87.866.866,0,0,0,.413.765,5.68,5.68,0,0,0,1.67.549,7.9,7.9,0,0,1,1.973.659,2.794,2.794,0,0,1,1.063.918,2.342,2.342,0,0,1,.347,1.3,2.478,2.478,0,0,1-1.063,2.079,4.535,4.535,0,0,1-2.786.8,4.917,4.917,0,0,1-2.083-.422,3.428,3.428,0,0,1-1.424-1.16A2.746,2.746,0,0,1,96.957,16h2.074a1.5,1.5,0,0,0,.571,1.165,2.22,2.22,0,0,0,1.4.409,2.16,2.16,0,0,0,1.283-.321A.993.993,0,0,0,102.722,16.416Zm11.769-.475,1.934-6.451H118.7l-3.779,10.951q-.87,2.4-2.953,2.4a3.807,3.807,0,0,1-1.028-.159v-1.66l.4.026a2.079,2.079,0,0,0,1.217-.294,1.95,1.95,0,0,0,.646-.988l.308-.817-3.34-9.459h2.3ZM6.1,33.49l.062.993A3.422,3.422,0,0,1,8.9,33.314a2.629,2.629,0,0,1,2.61,1.459,3.373,3.373,0,0,1,2.918-1.459,2.965,2.965,0,0,1,2.342.87,3.831,3.831,0,0,1,.787,2.566V43H15.425V36.813a1.891,1.891,0,0,0-.4-1.327,1.731,1.731,0,0,0-1.31-.422,1.778,1.778,0,0,0-1.191.391,2.063,2.063,0,0,0-.646,1.024L11.892,43H9.756V36.742a1.523,1.523,0,0,0-1.714-1.679,1.88,1.88,0,0,0-1.819,1.046V43H4.087V33.49Zm17.842,9.686A4.419,4.419,0,0,1,20.65,41.9a4.639,4.639,0,0,1-1.261-3.406v-.264a5.706,5.706,0,0,1,.549-2.544,4.181,4.181,0,0,1,1.542-1.745,4.078,4.078,0,0,1,2.215-.624,3.733,3.733,0,0,1,3,1.239,5.24,5.24,0,0,1,1.059,3.507v.861H21.542a2.856,2.856,0,0,0,.787,1.863,2.362,2.362,0,0,0,1.736.686,2.892,2.892,0,0,0,2.391-1.187l1.151,1.1a3.845,3.845,0,0,1-1.525,1.323A4.774,4.774,0,0,1,23.941,43.176Zm-.255-8.147a1.8,1.8,0,0,0-1.419.615,3.189,3.189,0,0,0-.69,1.714h4.069V37.2a2.6,2.6,0,0,0-.571-1.622A1.785,1.785,0,0,0,23.687,35.028Zm7.954-1.538V43.844a3.129,3.129,0,0,1-.725,2.228,2.779,2.779,0,0,1-2.123.769,4.268,4.268,0,0,1-1.134-.149V45a3.291,3.291,0,0,0,.756.079q1.063,0,1.09-1.16V33.49Zm-2.32-2.47a1.133,1.133,0,0,1,.312-.817,1.179,1.179,0,0,1,.892-.325,1.193,1.193,0,0,1,.9.325,1.125,1.125,0,0,1,.316.817,1.1,1.1,0,0,1-.316.8,1.2,1.2,0,0,1-.9.321,1.188,1.188,0,0,1-.892-.321A1.107,1.107,0,0,1,29.32,31.021Zm4.2,7.137a5.607,5.607,0,0,1,.554-2.518,4.044,4.044,0,0,1,1.556-1.723,4.383,4.383,0,0,1,2.3-.6,4.154,4.154,0,0,1,3.125,1.239,4.874,4.874,0,0,1,1.3,3.287l.009.5a5.658,5.658,0,0,1-.541,2.514,4,4,0,0,1-1.547,1.714,4.415,4.415,0,0,1-2.325.606,4.125,4.125,0,0,1-3.221-1.34,5.133,5.133,0,0,1-1.208-3.573Zm2.136.185a3.832,3.832,0,0,0,.606,2.3,1.971,1.971,0,0,0,1.688.831,1.95,1.95,0,0,0,1.683-.844,4.232,4.232,0,0,0,.6-2.47,3.782,3.782,0,0,0-.62-2.285,2.089,2.089,0,0,0-3.344-.013A4.152,4.152,0,0,0,35.657,38.342Zm13.491-2.9a5.285,5.285,0,0,0-.87-.07A1.959,1.959,0,0,0,46.3,36.5V43H44.165V33.49H46.2l.053,1.063A2.406,2.406,0,0,1,48.4,33.314a2,2,0,0,1,.756.123ZM55.916,43a3.3,3.3,0,0,1-.246-.888,3.593,3.593,0,0,1-4.834.246,2.615,2.615,0,0,1-.905-2.021A2.7,2.7,0,0,1,51.06,38a5.473,5.473,0,0,1,3.23-.813H55.6v-.624a1.666,1.666,0,0,0-.413-1.182,1.638,1.638,0,0,0-1.257-.444,1.881,1.881,0,0,0-1.2.365,1.129,1.129,0,0,0-.466.927H50.133a2.37,2.37,0,0,1,.519-1.463A3.455,3.455,0,0,1,52.062,33.7a4.955,4.955,0,0,1,1.991-.387,3.99,3.99,0,0,1,2.663.839,2.993,2.993,0,0,1,1.02,2.36V40.8a4.861,4.861,0,0,0,.36,2.048V43Zm-2.347-1.538a2.429,2.429,0,0,0,1.191-.308,2.055,2.055,0,0,0,.839-.826V38.535H54.448a3.148,3.148,0,0,0-1.784.413,1.338,1.338,0,0,0-.6,1.169,1.248,1.248,0,0,0,.409.98A1.583,1.583,0,0,0,53.569,41.462ZM65.3,40.416a.968.968,0,0,0-.47-.87,5,5,0,0,0-1.56-.527,8.02,8.02,0,0,1-1.819-.58,2.428,2.428,0,0,1-1.6-2.241,2.531,2.531,0,0,1,1.037-2.057,4.1,4.1,0,0,1,2.637-.826,4.266,4.266,0,0,1,2.755.844,2.677,2.677,0,0,1,1.05,2.188H65.2a1.316,1.316,0,0,0-.457-1.024,1.752,1.752,0,0,0-1.213-.409,1.893,1.893,0,0,0-1.147.325,1.025,1.025,0,0,0-.444.87.866.866,0,0,0,.413.765,5.68,5.68,0,0,0,1.67.549,7.9,7.9,0,0,1,1.973.659A2.794,2.794,0,0,1,67.056,39a2.342,2.342,0,0,1,.347,1.3A2.478,2.478,0,0,1,66.34,42.38a4.535,4.535,0,0,1-2.786.8,4.917,4.917,0,0,1-2.083-.422,3.428,3.428,0,0,1-1.424-1.16A2.746,2.746,0,0,1,59.537,40h2.074a1.5,1.5,0,0,0,.571,1.165,2.22,2.22,0,0,0,1.4.409,2.16,2.16,0,0,0,1.283-.321A.993.993,0,0,0,65.3,40.416Zm16.77-2.074a5.662,5.662,0,0,1-1,3.52,3.481,3.481,0,0,1-5.194.286v4.509H73.74V33.49h1.969l.088.967a3.137,3.137,0,0,1,2.558-1.143,3.242,3.242,0,0,1,2.729,1.3,5.813,5.813,0,0,1,.989,3.6Zm-2.127-.185a3.966,3.966,0,0,0-.567-2.259,1.843,1.843,0,0,0-1.622-.835,1.965,1.965,0,0,0-1.881,1.081v4.219a1.983,1.983,0,0,0,1.9,1.107,1.841,1.841,0,0,0,1.6-.822A4.366,4.366,0,0,0,79.945,38.157Zm8.912-2.716a5.285,5.285,0,0,0-.87-.07A1.959,1.959,0,0,0,86.01,36.5V43H83.874V33.49h2.039l.053,1.063a2.406,2.406,0,0,1,2.145-1.239,2,2,0,0,1,.756.123Zm5.537,7.734A4.419,4.419,0,0,1,91.1,41.9a4.639,4.639,0,0,1-1.261-3.406v-.264a5.706,5.706,0,0,1,.549-2.544,4.181,4.181,0,0,1,1.542-1.745,4.078,4.078,0,0,1,2.215-.624,3.733,3.733,0,0,1,3,1.239,5.24,5.24,0,0,1,1.059,3.507v.861H92a2.856,2.856,0,0,0,.787,1.863,2.362,2.362,0,0,0,1.736.686,2.892,2.892,0,0,0,2.391-1.187l1.151,1.1a3.845,3.845,0,0,1-1.525,1.323A4.774,4.774,0,0,1,94.395,43.176Zm-.255-8.147a1.8,1.8,0,0,0-1.419.615,3.189,3.189,0,0,0-.69,1.714H96.1V37.2a2.6,2.6,0,0,0-.571-1.622A1.785,1.785,0,0,0,94.14,35.028Zm8.965,5.265,2.013-6.8h2.206l-3.3,9.51h-1.854l-3.322-9.51h2.215ZM110.927,43h-2.136V33.49h2.136Zm-2.268-11.979a1.133,1.133,0,0,1,.312-.817,1.179,1.179,0,0,1,.892-.325,1.193,1.193,0,0,1,.9.325,1.125,1.125,0,0,1,.316.817,1.1,1.1,0,0,1-.316.8,1.2,1.2,0,0,1-.9.321,1.188,1.188,0,0,1-.892-.321A1.107,1.107,0,0,1,108.659,31.021ZM118.934,43a3.3,3.3,0,0,1-.246-.888,3.593,3.593,0,0,1-4.834.246,2.615,2.615,0,0,1-.905-2.021A2.7,2.7,0,0,1,114.078,38a5.473,5.473,0,0,1,3.23-.813h1.31v-.624a1.666,1.666,0,0,0-.413-1.182,1.638,1.638,0,0,0-1.257-.444,1.881,1.881,0,0,0-1.2.365,1.129,1.129,0,0,0-.466.927H113.15a2.37,2.37,0,0,1,.519-1.463A3.455,3.455,0,0,1,115.08,33.7a4.955,4.955,0,0,1,1.991-.387,3.99,3.99,0,0,1,2.663.839,2.993,2.993,0,0,1,1.02,2.36V40.8a4.861,4.861,0,0,0,.36,2.048V43Zm-2.347-1.538a2.429,2.429,0,0,0,1.191-.308,2.055,2.055,0,0,0,.839-.826V38.535h-1.151a3.148,3.148,0,0,0-1.784.413,1.338,1.338,0,0,0-.6,1.169,1.248,1.248,0,0,0,.409.98A1.583,1.583,0,0,0,116.587,41.462Zm11.733-1.046a.968.968,0,0,0-.47-.87,5,5,0,0,0-1.56-.527,8.02,8.02,0,0,1-1.819-.58,2.428,2.428,0,0,1-1.6-2.241,2.531,2.531,0,0,1,1.037-2.057,4.1,4.1,0,0,1,2.637-.826,4.266,4.266,0,0,1,2.755.844,2.677,2.677,0,0,1,1.05,2.188h-2.136a1.316,1.316,0,0,0-.457-1.024,1.752,1.752,0,0,0-1.213-.409,1.893,1.893,0,0,0-1.147.325,1.025,1.025,0,0,0-.444.87.866.866,0,0,0,.413.765,5.68,5.68,0,0,0,1.67.549,7.9,7.9,0,0,1,1.973.659,2.794,2.794,0,0,1,1.063.918,2.342,2.342,0,0,1,.347,1.3,2.478,2.478,0,0,1-1.063,2.079,4.535,4.535,0,0,1-2.786.8,4.917,4.917,0,0,1-2.083-.422,3.428,3.428,0,0,1-1.424-1.16,2.746,2.746,0,0,1-.51-1.591h2.074a1.5,1.5,0,0,0,.571,1.165,2.22,2.22,0,0,0,1.4.409,2.16,2.16,0,0,0,1.283-.321A.993.993,0,0,0,128.32,40.416ZM142.444,43a3.3,3.3,0,0,1-.246-.888,3.593,3.593,0,0,1-4.834.246,2.615,2.615,0,0,1-.905-2.021A2.7,2.7,0,0,1,137.588,38a5.473,5.473,0,0,1,3.23-.813h1.31v-.624a1.666,1.666,0,0,0-.413-1.182,1.638,1.638,0,0,0-1.257-.444,1.881,1.881,0,0,0-1.2.365,1.129,1.129,0,0,0-.466.927h-2.136a2.37,2.37,0,0,1,.519-1.463A3.455,3.455,0,0,1,138.59,33.7a4.955,4.955,0,0,1,1.991-.387,3.99,3.99,0,0,1,2.663.839,2.993,2.993,0,0,1,1.02,2.36V40.8a4.861,4.861,0,0,0,.36,2.048V43ZM140.1,41.462a2.429,2.429,0,0,0,1.191-.308,2.055,2.055,0,0,0,.839-.826V38.535h-1.151a3.148,3.148,0,0,0-1.784.413,1.338,1.338,0,0,0-.6,1.169,1.248,1.248,0,0,0,.409.98A1.583,1.583,0,0,0,140.1,41.462ZM148.772,43h-2.136V29.5h2.136ZM30.349,67H28.213V53.5h2.136Zm8.007,0a3.3,3.3,0,0,1-.246-.888,3.593,3.593,0,0,1-4.834.246,2.615,2.615,0,0,1-.905-2.021A2.7,2.7,0,0,1,33.5,62a5.473,5.473,0,0,1,3.23-.813h1.31v-.624a1.666,1.666,0,0,0-.413-1.182,1.638,1.638,0,0,0-1.257-.444,1.881,1.881,0,0,0-1.2.365,1.129,1.129,0,0,0-.466.927H32.572a2.37,2.37,0,0,1,.519-1.463A3.455,3.455,0,0,1,34.5,57.7a4.955,4.955,0,0,1,1.991-.387,3.99,3.99,0,0,1,2.663.839,2.993,2.993,0,0,1,1.02,2.36V64.8a4.861,4.861,0,0,0,.36,2.048V67Zm-2.347-1.538a2.429,2.429,0,0,0,1.191-.308,2.055,2.055,0,0,0,.839-.826V62.535H36.888a3.148,3.148,0,0,0-1.784.413,1.338,1.338,0,0,0-.6,1.169,1.248,1.248,0,0,0,.409.98A1.583,1.583,0,0,0,36.009,65.462Zm8.385-7.972.062,1.1a3.419,3.419,0,0,1,2.769-1.274q2.971,0,3.023,3.4V67H48.111V60.839a1.958,1.958,0,0,0-.391-1.34,1.645,1.645,0,0,0-1.279-.435,2.058,2.058,0,0,0-1.925,1.169V67H42.381V57.49Zm10.31,7.8h5.063V67H52.049V65.6l4.825-6.39H52.137V57.49h7.444v1.354ZM67.157,67a3.3,3.3,0,0,1-.246-.888,3.593,3.593,0,0,1-4.834.246,2.615,2.615,0,0,1-.905-2.021A2.7,2.7,0,0,1,62.3,62a5.473,5.473,0,0,1,3.23-.813h1.31v-.624a1.666,1.666,0,0,0-.413-1.182,1.638,1.638,0,0,0-1.257-.444,1.881,1.881,0,0,0-1.2.365,1.129,1.129,0,0,0-.466.927H61.374a2.37,2.37,0,0,1,.519-1.463A3.455,3.455,0,0,1,63.3,57.7a4.955,4.955,0,0,1,1.991-.387,3.99,3.99,0,0,1,2.663.839,2.993,2.993,0,0,1,1.02,2.36V64.8a4.861,4.861,0,0,0,.36,2.048V67Zm-2.347-1.538A2.429,2.429,0,0,0,66,65.154a2.055,2.055,0,0,0,.839-.826V62.535H65.689a3.148,3.148,0,0,0-1.784.413,1.338,1.338,0,0,0-.6,1.169,1.248,1.248,0,0,0,.409.98A1.583,1.583,0,0,0,64.811,65.462Zm8.411-7.972.062.993a3.422,3.422,0,0,1,2.742-1.169,2.629,2.629,0,0,1,2.61,1.459,3.373,3.373,0,0,1,2.918-1.459,2.965,2.965,0,0,1,2.342.87,3.831,3.831,0,0,1,.787,2.566V67H82.547V60.813a1.891,1.891,0,0,0-.4-1.327,1.731,1.731,0,0,0-1.31-.422,1.778,1.778,0,0,0-1.191.391A2.063,2.063,0,0,0,79,60.479L79.014,67H76.878V60.742a1.523,1.523,0,0,0-1.714-1.679,1.88,1.88,0,0,0-1.819,1.046V67H71.209V57.49ZM89.147,67H87.012V57.49h2.136ZM86.88,55.021a1.133,1.133,0,0,1,.312-.817,1.179,1.179,0,0,1,.892-.325,1.193,1.193,0,0,1,.9.325,1.125,1.125,0,0,1,.316.817,1.1,1.1,0,0,1-.316.8,1.2,1.2,0,0,1-.9.321,1.188,1.188,0,0,1-.892-.321A1.107,1.107,0,0,1,86.88,55.021Zm8.78,12.155A4.419,4.419,0,0,1,92.369,65.9a4.639,4.639,0,0,1-1.261-3.406v-.264a5.706,5.706,0,0,1,.549-2.544A4.181,4.181,0,0,1,93.2,57.938a4.078,4.078,0,0,1,2.215-.624,3.733,3.733,0,0,1,3,1.239,5.24,5.24,0,0,1,1.059,3.507v.861H93.261a2.856,2.856,0,0,0,.787,1.863,2.362,2.362,0,0,0,1.736.686,2.892,2.892,0,0,0,2.391-1.187l1.151,1.1A3.845,3.845,0,0,1,97.8,66.706,4.774,4.774,0,0,1,95.66,67.176Zm-.255-8.147a1.8,1.8,0,0,0-1.419.615,3.189,3.189,0,0,0-.69,1.714h4.069V61.2a2.6,2.6,0,0,0-.571-1.622A1.785,1.785,0,0,0,95.405,59.028Zm7.708-1.538.062,1.1a3.419,3.419,0,0,1,2.769-1.274q2.971,0,3.023,3.4V67h-2.136V60.839a1.958,1.958,0,0,0-.391-1.34,1.645,1.645,0,0,0-1.279-.435,2.058,2.058,0,0,0-1.925,1.169V67H101.1V57.49Zm10.705-2.312V57.49H115.5v1.582h-1.679v5.309a1.169,1.169,0,0,0,.215.787,1,1,0,0,0,.769.242,3.29,3.29,0,0,0,.747-.088v1.652a5.26,5.26,0,0,1-1.406.2q-2.461,0-2.461-2.716V59.072h-1.564V57.49h1.564V55.179Zm2.646,6.979a5.607,5.607,0,0,1,.554-2.518,4.044,4.044,0,0,1,1.556-1.723,4.383,4.383,0,0,1,2.3-.6A4.154,4.154,0,0,1,124,58.554a4.874,4.874,0,0,1,1.3,3.287l.009.5a5.658,5.658,0,0,1-.541,2.514,4,4,0,0,1-1.547,1.714,4.415,4.415,0,0,1-2.325.606,4.125,4.125,0,0,1-3.221-1.34,5.133,5.133,0,0,1-1.208-3.573Zm2.136.185a3.832,3.832,0,0,0,.606,2.3,1.971,1.971,0,0,0,1.688.831,1.95,1.95,0,0,0,1.683-.844,4.232,4.232,0,0,0,.6-2.47,3.782,3.782,0,0,0-.62-2.285,2.089,2.089,0,0,0-3.344-.013A4.152,4.152,0,0,0,118.6,62.342Z" transform="translate(1143 2588)" fill="#00316e"/>
    <path id="Trazado_600412" data-name="Trazado 600412" d="M67,0A67,67,0,1,1,0,67,67,67,0,0,1,67,0Z" transform="translate(313 2406)" fill="url(#linear-gradient-2)"/>
    <path id="Trazado_600413" data-name="Trazado 600413" d="M67,0A67,67,0,1,1,0,67,67,67,0,0,1,67,0Z" transform="translate(524 2406)" fill="url(#linear-gradient-3)"/>
    <path id="Trazado_600414" data-name="Trazado 600414" d="M67,0A67,67,0,1,1,0,67,67,67,0,0,1,67,0Z" transform="translate(734 2540) rotate(-90)" fill="url(#linear-gradient-4)"/>
    <path id="Trazado_600415" data-name="Trazado 600415" d="M67,0A67,67,0,1,1,0,67,67,67,0,0,1,67,0Z" transform="translate(943 2540) rotate(-90)" fill="url(#linear-gradient-4)"/>
    <path id="Trazado_600416" data-name="Trazado 600416" d="M67,0A67,67,0,1,1,0,67,67,67,0,0,1,67,0Z" transform="translate(1153 2540) rotate(-90)" fill="url(#linear-gradient-4)"/>
    <path id="Trazado_596482" data-name="Trazado 596482" d="M-8091-9173.609h840" transform="translate(8481 11713.609)" fill="none" stroke="#9fbbc2" stroke-width="2" stroke-dasharray="3"/>
    <path id="Trazado_600417" data-name="Trazado 600417" d="M8395.713,11739H8382a6,6,0,0,1-6-6v-27a6,6,0,0,1,6-6h45a6,6,0,0,1,6,6v27a6,6,0,0,1-6,6h-12.712l-9.287,13Z" transform="translate(-8025 -9177)" fill="#ff2195"/>
    <path id="Trazado_600418" data-name="Trazado 600418" d="M8395.713,11739H8382a6,6,0,0,1-6-6v-27a6,6,0,0,1,6-6h45a6,6,0,0,1,6,6v27a6,6,0,0,1-6,6h-12.712l-9.287,13Z" transform="translate(-7813.999 -9177)" fill="#ff2195"/>
    <path id="Trazado_600419" data-name="Trazado 600419" d="M8395.713,11739H8382a6,6,0,0,1-6-6v-27a6,6,0,0,1,6-6h45a6,6,0,0,1,6,6v27a6,6,0,0,1-6,6h-12.712l-9.287,13Z" transform="translate(-7603.999 -9177)" fill="#ff2195"/>
    <path id="Trazado_600420" data-name="Trazado 600420" d="M8395.713,11739H8382a6,6,0,0,1-6-6v-27a6,6,0,0,1,6-6h45a6,6,0,0,1,6,6v27a6,6,0,0,1-6,6h-12.712l-9.287,13Z" transform="translate(-7394.999 -9177)" fill="#ff2195"/>
    <path id="Trazado_600421" data-name="Trazado 600421" d="M8395.713,11739H8382a6,6,0,0,1-6-6v-27a6,6,0,0,1,6-6h45a6,6,0,0,1,6,6v27a6,6,0,0,1-6,6h-12.712l-9.287,13Z" transform="translate(-7184.999 -9177)" fill="#ff2195"/>
    <path id="Trazado_600422" data-name="Trazado 600422" d="M29.043,19.079a7.838,7.838,0,0,1-1.617,5.353,5.552,5.552,0,0,1-4.376,1.825,5.6,5.6,0,0,1-4.407-1.825,7.819,7.819,0,0,1-1.624-5.353V15.16a7.867,7.867,0,0,1,1.617-5.353A5.549,5.549,0,0,1,23.025,7.97a5.572,5.572,0,0,1,4.388,1.837,7.827,7.827,0,0,1,1.63,5.353Zm-3.552-4.285a5.849,5.849,0,0,0-.635-3.094,2.2,2.2,0,0,0-3.662-.006,5.939,5.939,0,0,0-.623,3.1V19.42a5.952,5.952,0,0,0,.629,3.125,2.06,2.06,0,0,0,1.849.977,2.024,2.024,0,0,0,1.819-.977,6,6,0,0,0,.623-3.125Zm5.42,9.07,3-.366V11.461h-3.04V9.423l6.592-1.2V23.5l3,.366V26H30.911Z" transform="translate(351 2526)" fill="#fff"/>
    <path id="Trazado_600423" data-name="Trazado 600423" d="M27.658,19.079a7.838,7.838,0,0,1-1.617,5.353,5.552,5.552,0,0,1-4.376,1.825,5.6,5.6,0,0,1-4.407-1.825,7.819,7.819,0,0,1-1.624-5.353V15.16a7.867,7.867,0,0,1,1.617-5.353A5.549,5.549,0,0,1,21.64,7.97a5.572,5.572,0,0,1,4.388,1.837,7.827,7.827,0,0,1,1.63,5.353Zm-3.552-4.285a5.849,5.849,0,0,0-.635-3.094,2.2,2.2,0,0,0-3.662-.006,5.939,5.939,0,0,0-.623,3.1V19.42a5.952,5.952,0,0,0,.629,3.125,2.06,2.06,0,0,0,1.849.977,2.024,2.024,0,0,0,1.819-.977,6,6,0,0,0,.623-3.125ZM29.623,26V23.668l5.75-6.165a13.913,13.913,0,0,0,1.77-2.411,3.91,3.91,0,0,0,.525-1.825,2.746,2.746,0,0,0-.6-1.837,2.123,2.123,0,0,0-1.715-.714,2.216,2.216,0,0,0-1.874.836,3.569,3.569,0,0,0-.641,2.228H29.367l-.024-.073a5.373,5.373,0,0,1,1.581-4.071A5.931,5.931,0,0,1,35.348,7.97,6.194,6.194,0,0,1,39.669,9.4a4.891,4.891,0,0,1,1.575,3.809,5.374,5.374,0,0,1-.885,2.979,28.059,28.059,0,0,1-2.936,3.564L34.262,23.2l.024.061H38.9l.146-1.758h2.71V26Z" transform="translate(563 2526)" fill="#fff"/>
    <path id="Trazado_600424" data-name="Trazado 600424" d="M27.78,19.079a7.838,7.838,0,0,1-1.617,5.353,5.552,5.552,0,0,1-4.376,1.825,5.6,5.6,0,0,1-4.407-1.825,7.819,7.819,0,0,1-1.624-5.353V15.16a7.867,7.867,0,0,1,1.617-5.353A5.549,5.549,0,0,1,21.762,7.97,5.572,5.572,0,0,1,26.15,9.807a7.827,7.827,0,0,1,1.63,5.353Zm-3.552-4.285a5.849,5.849,0,0,0-.635-3.094,2.2,2.2,0,0,0-3.662-.006,5.939,5.939,0,0,0-.623,3.1V19.42a5.952,5.952,0,0,0,.629,3.125,2.06,2.06,0,0,0,1.849.977,2.024,2.024,0,0,0,1.819-.977,6,6,0,0,0,.623-3.125ZM33.5,15.6h2a2.432,2.432,0,0,0,1.88-.665A2.634,2.634,0,0,0,38,13.085a2.406,2.406,0,0,0-.61-1.721,2.317,2.317,0,0,0-1.77-.647,2.5,2.5,0,0,0-1.685.586,1.928,1.928,0,0,0-.684,1.538H29.794l-.024-.073a4.044,4.044,0,0,1,1.6-3.442,6.38,6.38,0,0,1,4.15-1.355,6.826,6.826,0,0,1,4.4,1.318,4.543,4.543,0,0,1,1.642,3.76,3.774,3.774,0,0,1-.732,2.2,4.87,4.87,0,0,1-2.014,1.63,4.532,4.532,0,0,1,2.252,1.611,4.238,4.238,0,0,1,.775,2.527,4.618,4.618,0,0,1-1.776,3.839,7.131,7.131,0,0,1-4.547,1.4,6.96,6.96,0,0,1-4.254-1.312,4.192,4.192,0,0,1-1.715-3.7l.024-.073h3.455a2.184,2.184,0,0,0,.732,1.691,2.654,2.654,0,0,0,1.855.665,2.7,2.7,0,0,0,1.947-.684,2.448,2.448,0,0,0,.714-1.855,2.688,2.688,0,0,0-.7-2.057,2.936,2.936,0,0,0-2.069-.653h-2Z" transform="translate(772 2526)" fill="#fff"/>
    <path id="Trazado_600425" data-name="Trazado 600425" d="M27.523,19.079a7.838,7.838,0,0,1-1.617,5.353,5.552,5.552,0,0,1-4.376,1.825,5.6,5.6,0,0,1-4.407-1.825A7.819,7.819,0,0,1,15.5,19.079V15.16a7.867,7.867,0,0,1,1.617-5.353A5.549,5.549,0,0,1,21.505,7.97a5.572,5.572,0,0,1,4.388,1.837,7.827,7.827,0,0,1,1.63,5.353Zm-3.552-4.285a5.849,5.849,0,0,0-.635-3.094,2.2,2.2,0,0,0-3.662-.006,5.939,5.939,0,0,0-.623,3.1V19.42a5.952,5.952,0,0,0,.629,3.125,2.06,2.06,0,0,0,1.849.977,2.024,2.024,0,0,0,1.819-.977,6,6,0,0,0,.623-3.125Zm16.04,4.59h2.014v2.368H40.011V23.5l1.892.366V26H34.555V23.864l1.9-.366V21.752H29.208l-.171-1.746,7.385-11.78h3.589Zm-7.642,0h4.089V12.975l-.073-.024-.293.513Z" transform="translate(981 2526)" fill="#fff"/>
    <path id="Trazado_600426" data-name="Trazado 600426" d="M27.9,19.079a7.838,7.838,0,0,1-1.617,5.353,5.552,5.552,0,0,1-4.376,1.825A5.6,5.6,0,0,1,17.5,24.431a7.819,7.819,0,0,1-1.624-5.353V15.16A7.867,7.867,0,0,1,17.5,9.807,5.549,5.549,0,0,1,21.884,7.97a5.572,5.572,0,0,1,4.388,1.837A7.827,7.827,0,0,1,27.9,15.16ZM24.35,14.794a5.849,5.849,0,0,0-.635-3.094,2.2,2.2,0,0,0-3.662-.006,5.939,5.939,0,0,0-.623,3.1V19.42a5.952,5.952,0,0,0,.629,3.125,2.06,2.06,0,0,0,1.849.977,2.024,2.024,0,0,0,1.819-.977,6,6,0,0,0,.623-3.125Zm14.807-2.515-.317-1.2H34.054l-.5,4.1a4.453,4.453,0,0,1,1.2-.6,5.559,5.559,0,0,1,5.505,1.3,6.443,6.443,0,0,1,1.4,4.419,6.089,6.089,0,0,1-1.544,4.26,5.711,5.711,0,0,1-4.449,1.7,6.685,6.685,0,0,1-4.187-1.337,4.229,4.229,0,0,1-1.685-3.68l.024-.061,3.418-.171a2.487,2.487,0,0,0,.671,1.849,2.389,2.389,0,0,0,1.758.665,2.065,2.065,0,0,0,1.843-.891,4.064,4.064,0,0,0,.6-2.307,4.294,4.294,0,0,0-.635-2.466,2.142,2.142,0,0,0-1.892-.928,2.706,2.706,0,0,0-1.556.378,2.065,2.065,0,0,0-.775,1.025L30.1,18.126l1.025-9.9H41.354v4.053Z" transform="translate(1191 2526)" fill="#fff"/>
    <path id="Trazado_600427" data-name="Trazado 600427" d="M53,0A53,53,0,1,1,0,53,53,53,0,0,1,53,0Z" transform="translate(327 2420)" fill="#fff"/>
    <path id="Trazado_600428" data-name="Trazado 600428" d="M53,0A53,53,0,1,1,0,53,53,53,0,0,1,53,0Z" transform="translate(538 2420)" fill="#fff"/>
    <path id="Trazado_600429" data-name="Trazado 600429" d="M53,0A53,53,0,1,1,0,53,53,53,0,0,1,53,0Z" transform="translate(748 2420)" fill="#fff"/>
    <path id="Trazado_600430" data-name="Trazado 600430" d="M53,0A53,53,0,1,1,0,53,53,53,0,0,1,53,0Z" transform="translate(957 2420)" fill="#fff"/>
    <path id="Trazado_600431" data-name="Trazado 600431" d="M53,0A53,53,0,1,1,0,53,53,53,0,0,1,53,0Z" transform="translate(1167 2420)" fill="#fff"/>
    <path id="Trazado_596483" data-name="Trazado 596483" d="M-8091-8923.673h1030" transform="translate(8376 11673.673)" fill="none" stroke="#ff2195" stroke-width="2"/>
    <g id="reducir" transform="translate(350.274 2444.672)">
      <g id="Grupo_155264" data-name="Grupo 155264" transform="translate(14.826 0.328)">
        <path id="Trazado_596484" data-name="Trazado 596484" d="M20.945,9.286H16.466V2.568a2.239,2.239,0,0,1,2.24-2.24h6.719V4.807H20.945Z" transform="translate(-16.466 -0.328)" fill="#516e75"/>
        <path id="Trazado_596485" data-name="Trazado 596485" d="M16.466,16.281h4.479V29.612H16.466Z" transform="translate(-16.466 -1.99)" fill="#516e75"/>
        <path id="Trazado_596486" data-name="Trazado 596486" d="M32.423,42.114H45.765v4.479H32.423Z" transform="translate(-18.128 -4.681)" fill="#516e75"/>
        <path id="Trazado_596487" data-name="Trazado 596487" d="M59.993,46.072H53.274V41.593h4.479V37.114h4.479v6.719A2.239,2.239,0,0,1,59.993,46.072Z" transform="translate(-20.3 -4.16)" fill="#516e75"/>
        <path id="Trazado_596488" data-name="Trazado 596488" d="M58.274,16.281h4.479V29.612H58.274Z" transform="translate(-20.821 -1.99)" fill="#516e75"/>
        <path id="Trazado_596489" data-name="Trazado 596489" d="M62.232,9.286H57.753V4.807H53.274V.328h6.719a2.239,2.239,0,0,1,2.24,2.24Z" transform="translate(-20.3 -0.328)" fill="#516e75"/>
        <path id="Trazado_596490" data-name="Trazado 596490" d="M32.423.328H45.765V4.807H32.423Z" transform="translate(-18.128 -0.328)" fill="#516e75"/>
      </g>
      <path id="Trazado_596491" data-name="Trazado 596491" d="M21.586,60.892H2.966a2.239,2.239,0,0,1-2.24-2.24V39.225a2.239,2.239,0,0,1,2.24-2.24H21.586a2.239,2.239,0,0,1,2.24,2.24V58.653A2.24,2.24,0,0,1,21.586,60.892ZM5.205,56.413H19.347V41.464H5.205Z" transform="translate(0 -3.818)" fill="#516e75"/>
      <path id="Trazado_596492" data-name="Trazado 596492" d="M32.1,27.273a2.238,2.238,0,0,0,2.114,2.114l6.008.326A2.2,2.2,0,0,0,42.578,27.6a2.239,2.239,0,0,0-2.114-2.357l-1-.055,9.746-9.746a2.24,2.24,0,0,0-3.168-3.167L36.3,22.02l-.055-1A2.238,2.238,0,0,0,34.008,18.9c-.04,0-.082,0-.124,0a2.238,2.238,0,0,0-2.114,2.358Z" transform="translate(-3.233 -1.176)" fill="#516e75"/>
    </g>
    <path id="Trazado_600432" data-name="Trazado 600432" d="M12,0A12,12,0,1,1,0,12,12,12,0,0,1,12,0Z" transform="translate(451 2502)" fill="url(#radial-gradient)"/>
    <path id="Trazado_600433" data-name="Trazado 600433" d="M12,0A12,12,0,1,1,0,12,12,12,0,0,1,12,0Z" transform="translate(891 2502)" fill="url(#radial-gradient-2)"/>
    <path id="Trazado_600434" data-name="Trazado 600434" d="M12,0A12,12,0,1,1,0,12,12,12,0,0,1,12,0Z" transform="translate(1105 2421)" fill="url(#radial-gradient-3)"/>
    <path id="Trazado_600435" data-name="Trazado 600435" d="M12,0A12,12,0,1,1,0,12,12,12,0,0,1,12,0Z" transform="translate(661 2406)" fill="url(#radial-gradient-3)"/>
    <g id="lupa" transform="translate(562 2444)">
      <g id="Grupo_155271" data-name="Grupo 155271" transform="translate(0)">
        <g id="Grupo_155270" data-name="Grupo 155270">
          <path id="Trazado_596493" data-name="Trazado 596493" d="M.933,49.121l10.2-10.2h0l3.646-3.646a3.163,3.163,0,0,1,4.468,0l.447.447,1.54-1.54a20.875,20.875,0,1,1,2.681,2.681l-1.54,1.54.447.447a3.163,3.163,0,0,1,0,4.468L8.976,57.164a3.158,3.158,0,0,1-4.468,0L.933,53.589A3.163,3.163,0,0,1,.933,49.121ZM37.249,37.9A17.057,17.057,0,1,0,20.192,20.848,17.076,17.076,0,0,0,37.249,37.9ZM19.695,41.083,17.014,38.4l-1.859,1.859,2.681,2.681ZM6.742,54.036l8.413-8.413-2.681-2.681L4.061,51.355Z" transform="translate(-0.009)" fill="#516e75"/>
        </g>
      </g>
      <g id="Grupo_155273" data-name="Grupo 155273" transform="translate(23.974 7.583)">
        <g id="Grupo_155272" data-name="Grupo 155272" transform="translate(0)">
          <path id="Trazado_596494" data-name="Trazado 596494" d="M180.317,66.835a1.9,1.9,0,1,1,0,3.792,9.485,9.485,0,0,0-9.474,9.474,1.9,1.9,0,1,1-3.792,0A13.28,13.28,0,0,1,180.317,66.835Z" transform="translate(-167.051 -66.835)" fill="#516e75"/>
        </g>
      </g>
    </g>
    <g id="adaptado" transform="translate(754.682 2441)">
      <path id="Trazado_596495" data-name="Trazado 596495" d="M327.166,371.5a9.263,9.263,0,1,0,9.263-9.263A9.273,9.273,0,0,0,327.166,371.5Zm9.263-5.558a5.558,5.558,0,1,1-5.558,5.558A5.564,5.564,0,0,1,336.429,365.938Z" transform="translate(-272.458 -317.497)" fill="#516e75"/>
      <path id="Trazado_596496" data-name="Trazado 596496" d="M27.166,380.758H45.691V362.233H27.166Zm3.705-14.82H41.986v11.115H30.871Z" transform="translate(-9.508 -317.497)" fill="#516e75"/>
      <path id="Trazado_596497" data-name="Trazado 596497" d="M26.92,0l-10.6,18.554h21.2Zm0,7.468,4.218,7.381H22.7Z" fill="#516e75"/>
      <path id="Trazado_596498" data-name="Trazado 596498" d="M87.166,301.233h3.705v3.705H87.166Z" transform="translate(-62.098 -264.03)" fill="#516e75"/>
      <path id="Trazado_596499" data-name="Trazado 596499" d="M87.166,241.233h3.705v3.705H87.166Z" transform="translate(-62.098 -211.44)" fill="#516e75"/>
      <path id="Trazado_596500" data-name="Trazado 596500" d="M87.166,181.233h3.705v3.705H87.166Z" transform="translate(-62.098 -158.85)" fill="#516e75"/>
      <path id="Trazado_596501" data-name="Trazado 596501" d="M387.166,301.233h3.705v3.705h-3.705Z" transform="translate(-325.048 -264.03)" fill="#516e75"/>
      <path id="Trazado_596502" data-name="Trazado 596502" d="M387.166,241.233h3.705v3.705h-3.705Z" transform="translate(-325.048 -211.44)" fill="#516e75"/>
      <path id="Trazado_596503" data-name="Trazado 596503" d="M387.166,181.233h3.705v3.705h-3.705Z" transform="translate(-325.048 -158.85)" fill="#516e75"/>
      <path id="Trazado_596504" data-name="Trazado 596504" d="M207.166,60.233h3.705v3.705h-3.705Z" transform="translate(-167.278 -52.794)" fill="#516e75"/>
      <path id="Trazado_596505" data-name="Trazado 596505" d="M267.166,60.233h3.705v3.705h-3.705Z" transform="translate(-219.868 -52.794)" fill="#516e75"/>
      <path id="Trazado_596506" data-name="Trazado 596506" d="M207.166,422.233h3.705v3.705h-3.705Z" transform="translate(-167.278 -370.087)" fill="#516e75"/>
      <path id="Trazado_596507" data-name="Trazado 596507" d="M267.166,422.233h3.705v3.705h-3.705Z" transform="translate(-219.868 -370.087)" fill="#516e75"/>
      <path id="Trazado_596508" data-name="Trazado 596508" d="M324.626.233h-9.263L308.416,9.5l6.947,9.263h9.263L331.573,9.5Zm-1.853,14.82h-5.558L313.047,9.5l4.168-5.558h5.558L326.941,9.5Z" transform="translate(-256.023 -0.204)" fill="#516e75"/>
    </g>
    <g id="a-tiempo" transform="translate(980 2443)">
      <path id="Trazado_596509" data-name="Trazado 596509" d="M26.86,53.6a26.774,26.774,0,0,0,6.774-.867,14.27,14.27,0,0,0,12.836,8.117A14.456,14.456,0,0,0,60.852,46.471a14.27,14.27,0,0,0-8.117-12.836A26.812,26.812,0,1,0,26.86,53.6Zm30.426-7.131A10.96,10.96,0,0,1,46.471,57.286,10.756,10.756,0,1,1,57.286,46.471ZM26.86,3.566A23.3,23.3,0,0,1,49.346,32.5a14.505,14.505,0,0,0-2.875-.287A14.278,14.278,0,0,0,32.209,46.471a14.5,14.5,0,0,0,.287,2.875A23.243,23.243,0,1,1,26.86,3.566Z" fill="#516e75"/>
      <path id="Trazado_596510" data-name="Trazado 596510" d="M211,61h3.566v3.566H211Z" transform="translate(-185.923 -53.75)" fill="#516e75"/>
      <path id="Trazado_596511" data-name="Trazado 596511" d="M211,361h3.566v3.566H211Z" transform="translate(-185.923 -318.095)" fill="#516e75"/>
      <path id="Trazado_596512" data-name="Trazado 596512" d="M0,0H3.566V3.566H0Z" transform="translate(11.73 14.254) rotate(-45)" fill="#516e75"/>
      <path id="Trazado_596513" data-name="Trazado 596513" d="M0,0H3.566V3.566H0Z" transform="translate(11.728 39.463) rotate(-45)" fill="#516e75"/>
      <path id="Trazado_596514" data-name="Trazado 596514" d="M0,0H3.566V3.566H0Z" transform="translate(36.94 14.256) rotate(-45)" fill="#516e75"/>
      <path id="Trazado_596515" data-name="Trazado 596515" d="M61,211h3.566v3.566H61Z" transform="translate(-53.75 -185.923)" fill="#516e75"/>
      <path id="Trazado_596516" data-name="Trazado 596516" d="M361,211h3.566v3.566H361Z" transform="translate(-318.095 -185.923)" fill="#516e75"/>
      <path id="Trazado_596517" data-name="Trazado 596517" d="M221.7,131.7h-7.131V121H211v14.262h10.7Z" transform="translate(-185.923 -106.619)" fill="#516e75"/>
      <path id="Trazado_596518" data-name="Trazado 596518" d="M337.915,353.959l-2.521,2.521,4.826,4.826,8.392-8.392-2.521-2.521-5.871,5.871Z" transform="translate(-295.532 -308.749)" fill="#516e75"/>
    </g>
    <g id="cumplimiento" transform="translate(1192 2445)">
      <path id="Trazado_596519" data-name="Trazado 596519" d="M49.541,14.963l2.437-3.133L45.17,5.022,42.037,7.459A25.116,25.116,0,0,0,33.81,4.047L33.319,0H23.681L23.19,4.047a25.121,25.121,0,0,0-8.226,3.412L11.83,5.022,5.022,11.83l2.437,3.133A25.119,25.119,0,0,0,4.047,23.19L0,23.681v9.639l4.047.491a25.12,25.12,0,0,0,3.412,8.226L5.022,45.17l6.808,6.808,3.133-2.437a25.116,25.116,0,0,0,8.226,3.412L23.681,57h9.639l.491-4.047a25.121,25.121,0,0,0,8.226-3.412l3.133,2.437,6.808-6.808-2.437-3.133a25.119,25.119,0,0,0,3.412-8.226L57,33.319V23.681l-4.047-.491a25.121,25.121,0,0,0-3.412-8.226Zm4.119,15.4-3.563.432-.2,1.236a22.346,22.346,0,0,1-4.5,10.113l2.14,2.751-2.638,2.638-2.751-2.14a22.34,22.34,0,0,1-10.114,4.5l-1.236.2L30.36,53.66H26.64L26.207,50.1l-1.236-.2a22.344,22.344,0,0,1-10.114-4.5l-2.751,2.14L9.469,44.893l2.14-2.751a22.34,22.34,0,0,1-4.5-10.113l-.2-1.236L3.34,30.36V26.64L6.9,26.207l.2-1.236a22.345,22.345,0,0,1,4.5-10.113l-2.14-2.751,2.638-2.638,2.751,2.14a22.34,22.34,0,0,1,10.114-4.5l1.236-.2L26.64,3.34H30.36L30.793,6.9l1.236.2a22.344,22.344,0,0,1,10.114,4.5l2.751-2.14,2.638,2.638-2.14,2.751a22.341,22.341,0,0,1,4.5,10.113l.2,1.236,3.563.432Z" fill="#516e75"/>
      <path id="Trazado_596520" data-name="Trazado 596520" d="M109.369,91a18.369,18.369,0,1,0,18.369,18.369A18.39,18.39,0,0,0,109.369,91Zm0,33.4A15.029,15.029,0,1,1,124.4,109.369,15.046,15.046,0,0,1,109.369,124.4Z" transform="translate(-80.869 -80.869)" fill="#516e75"/>
      <path id="Trazado_596521" data-name="Trazado 596521" d="M191.585,207.562l-3.829-3.829-2.362,2.362,6.191,6.191,9.53-9.53-2.361-2.362Z" transform="translate(-164.754 -178.084)" fill="#516e75"/>
    </g>
  </g>
</svg>
