<svg xmlns="http://www.w3.org/2000/svg" width="328" height="480.721" viewBox="0 0 328 480.721">
  <g id="Grupo_156343" data-name="Grupo 156343" transform="translate(-272 -3785.279)">
    <rect id="Rectángulo_44617" data-name="Rectángulo 44617" width="328" height="357" transform="translate(272 3909)" fill="#deecfb"/>
    <text id="_Archivos_de_audio_pódcasts._Archivos_de_video_audiovisuales_fotografías_animaciones._eBooks_audiolibros_eMagazines._Cursos_online_descargables_o_con_acceso_online_tutoriales._Software_online_local_._Herramientas_web_apps_web_._Herram" data-name="● Archivos de audio, pódcasts.
● Archivos de video, audiovisuales, fotografías, animaciones.
● eBooks, audiolibros, eMagazines.
● Cursos online descargables o con acceso online, tutoriales.
● Software (online/local).
● Herramientas web (apps web).
● Herram" transform="translate(307 3931)" fill="#ff2195" font-size="16" font-family="SegoeUI, Segoe UI"><tspan x="0" y="17">●</tspan><tspan y="17" xml:space="preserve" fill="#12263f" font-family="Roboto-Regular, Roboto"> Archivos de audio, pódcasts.</tspan><tspan x="0" y="41">●</tspan><tspan y="41" xml:space="preserve" fill="#12263f" font-family="Roboto-Regular, Roboto"> Archivos de video, audiovisuales, </tspan><tspan x="0" y="65" fill="#12263f" font-family="Roboto-Regular, Roboto">fotografías, animaciones.</tspan><tspan x="0" y="89">●</tspan><tspan y="89" xml:space="preserve" fill="#12263f" font-family="Roboto-Regular, Roboto"> eBooks, audiolibros, eMagazines.</tspan><tspan x="0" y="113">●</tspan><tspan y="113" xml:space="preserve" fill="#12263f" font-family="Roboto-Regular, Roboto"> Cursos online descargables o con </tspan><tspan x="0" y="137" fill="#12263f" font-family="Roboto-Regular, Roboto">acceso online, tutoriales.</tspan><tspan x="0" y="161">●</tspan><tspan y="161" xml:space="preserve" fill="#12263f" font-family="Roboto-Regular, Roboto"> Software (online/local).</tspan><tspan x="0" y="185">●</tspan><tspan y="185" xml:space="preserve" fill="#12263f" font-family="Roboto-Regular, Roboto"> Herramientas web (apps web).</tspan><tspan x="0" y="209">●</tspan><tspan y="209" xml:space="preserve" fill="#12263f" font-family="Roboto-Regular, Roboto"> Herramientas móviles (apps </tspan><tspan x="0" y="233" fill="#12263f" font-family="Roboto-Regular, Roboto">móviles).</tspan><tspan x="0" y="257">●</tspan><tspan y="257" font-family="Roboto-Regular, Roboto"> </tspan><tspan y="257" fill="#12263f" font-family="Roboto-Regular, Roboto">Videojuegos online.</tspan><tspan x="0" y="281">●</tspan><tspan y="281" font-family="Roboto-Regular, Roboto"> </tspan><tspan y="281" fill="#12263f" font-family="Roboto-Regular, Roboto">Manuales, infografías, plantillas. </tspan><tspan fill="#12263f" font-family="Roboto-Regular, Roboto"><tspan x="0" y="305">UI/UX.</tspan></tspan></text>
    <g id="Grupo_156047" data-name="Grupo 156047" transform="translate(-13 -11)">
      <path id="Trazado_598849" data-name="Trazado 598849" d="M0,0H328V82H0Z" transform="translate(285 3839)" fill="#deecfb"/>
      <rect id="Rectángulo_44613" data-name="Rectángulo 44613" width="271" height="81" transform="translate(342 3839)" fill="#a2caf4"/>
      <path id="Trazado_600406" data-name="Trazado 600406" d="M36.514,13.742V18h-2.49V5.914h4.715a5.455,5.455,0,0,1,2.395.5,3.67,3.67,0,0,1,1.59,1.415,3.946,3.946,0,0,1,.556,2.088,3.47,3.47,0,0,1-1.216,2.8A5.065,5.065,0,0,1,38.7,13.742Zm0-2.017h2.225a2.187,2.187,0,0,0,1.507-.465,1.691,1.691,0,0,0,.519-1.328A1.994,1.994,0,0,0,40.241,8.5,1.953,1.953,0,0,0,38.8,7.931H36.514Zm13.364-.457a6.517,6.517,0,0,0-.863-.066,1.757,1.757,0,0,0-1.785.921V18h-2.4V9.019H47.1l.066,1.071a2.223,2.223,0,0,1,2-1.237,2.514,2.514,0,0,1,.747.108Zm.481,2.158a5.327,5.327,0,0,1,.515-2.382,3.767,3.767,0,0,1,1.482-1.619A4.323,4.323,0,0,1,54.6,8.853a4.09,4.09,0,0,1,2.968,1.112,4.464,4.464,0,0,1,1.282,3.021l.017.614a4.694,4.694,0,0,1-1.154,3.316,4.472,4.472,0,0,1-6.2,0,4.777,4.777,0,0,1-1.158-3.387Zm2.4.17a3.357,3.357,0,0,0,.481,1.958,1.73,1.73,0,0,0,2.739.008,3.674,3.674,0,0,0,.49-2.141,3.324,3.324,0,0,0-.49-1.945,1.592,1.592,0,0,0-1.378-.69,1.566,1.566,0,0,0-1.361.686A3.735,3.735,0,0,0,52.759,13.6Zm7.213-.154a5.413,5.413,0,0,1,.942-3.345,3.057,3.057,0,0,1,2.577-1.245,2.751,2.751,0,0,1,2.167.979V5.25h2.407V18H65.9l-.116-.955a2.823,2.823,0,0,1-2.308,1.121,3.049,3.049,0,0,1-2.544-1.249A5.587,5.587,0,0,1,59.972,13.443Zm2.4.179a3.546,3.546,0,0,0,.44,1.937,1.433,1.433,0,0,0,1.278.673,1.605,1.605,0,0,0,1.569-.939v-3.55a1.582,1.582,0,0,0-1.552-.939Q62.371,10.8,62.371,13.621ZM75.3,17.087a3.008,3.008,0,0,1-2.457,1.079,2.837,2.837,0,0,1-2.2-.83,3.543,3.543,0,0,1-.776-2.432V9.019h2.4v5.809q0,1.4,1.278,1.4a1.732,1.732,0,0,0,1.677-.848V9.019h2.407V18H75.37Zm7.869-.855a1.573,1.573,0,0,0,1.079-.365,1.28,1.28,0,0,0,.432-.971h2.25a3.077,3.077,0,0,1-.5,1.673,3.286,3.286,0,0,1-1.341,1.179,4.2,4.2,0,0,1-1.88.419,3.9,3.9,0,0,1-3.038-1.224,4.845,4.845,0,0,1-1.112-3.383V13.4a4.79,4.79,0,0,1,1.1-3.312A3.854,3.854,0,0,1,83.2,8.853a3.778,3.778,0,0,1,2.7.959,3.4,3.4,0,0,1,1.033,2.552h-2.25a1.648,1.648,0,0,0-.432-1.139,1.6,1.6,0,0,0-2.362.173,3.541,3.541,0,0,0-.427,1.983v.249a3.586,3.586,0,0,0,.423,2A1.463,1.463,0,0,0,83.173,16.232Zm8-9.421V9.019H92.71v1.76H91.175v4.482a1.07,1.07,0,0,0,.191.714.959.959,0,0,0,.73.216,3.826,3.826,0,0,0,.706-.058V17.95a4.938,4.938,0,0,1-1.453.216,2.29,2.29,0,0,1-2.573-2.548V10.778H87.464V9.019h1.312V6.811Zm2.25,6.616a5.326,5.326,0,0,1,.515-2.382A3.768,3.768,0,0,1,95.42,9.425a4.323,4.323,0,0,1,2.245-.573,4.09,4.09,0,0,1,2.968,1.112,4.464,4.464,0,0,1,1.282,3.021l.017.614a4.694,4.694,0,0,1-1.154,3.316,4.472,4.472,0,0,1-6.2,0,4.777,4.777,0,0,1-1.158-3.387Zm2.4.17a3.357,3.357,0,0,0,.481,1.958,1.73,1.73,0,0,0,2.739.008,3.674,3.674,0,0,0,.49-2.141,3.324,3.324,0,0,0-.49-1.945,1.592,1.592,0,0,0-1.378-.69,1.566,1.566,0,0,0-1.361.686A3.736,3.736,0,0,0,95.823,13.6Zm12.451,1.922a.773.773,0,0,0-.436-.693,4.95,4.95,0,0,0-1.4-.452q-3.2-.672-3.2-2.723a2.468,2.468,0,0,1,.992-2,4,4,0,0,1,2.594-.8,4.307,4.307,0,0,1,2.735.805,2.538,2.538,0,0,1,1.025,2.092h-2.4a1.161,1.161,0,0,0-.332-.851,1.405,1.405,0,0,0-1.038-.336,1.436,1.436,0,0,0-.938.274.865.865,0,0,0-.332.7.739.739,0,0,0,.378.643,3.885,3.885,0,0,0,1.274.423,10.407,10.407,0,0,1,1.511.4,2.482,2.482,0,0,1,1.9,2.416,2.343,2.343,0,0,1-1.054,1.988,4.548,4.548,0,0,1-2.723.76,4.75,4.75,0,0,1-2-.4,3.363,3.363,0,0,1-1.374-1.1,2.565,2.565,0,0,1-.5-1.515h2.274a1.252,1.252,0,0,0,.473.979,1.877,1.877,0,0,0,1.179.34,1.737,1.737,0,0,0,1.042-.261A.814.814,0,0,0,108.274,15.518Zm7.736-2.075a5.413,5.413,0,0,1,.942-3.345,3.057,3.057,0,0,1,2.577-1.245,2.751,2.751,0,0,1,2.167.979V5.25H124.1V18h-2.167l-.116-.955a2.823,2.823,0,0,1-2.308,1.121,3.049,3.049,0,0,1-2.544-1.249A5.587,5.587,0,0,1,116.01,13.443Zm2.4.179a3.546,3.546,0,0,0,.44,1.937,1.433,1.433,0,0,0,1.278.673,1.605,1.605,0,0,0,1.569-.939v-3.55a1.582,1.582,0,0,0-1.552-.939Q118.409,10.8,118.409,13.621ZM128.495,18h-2.407V9.019h2.407ZM125.947,6.694a1.181,1.181,0,0,1,.361-.888,1.556,1.556,0,0,1,1.963,0,1.175,1.175,0,0,1,.365.888,1.178,1.178,0,0,1-.369.9,1.539,1.539,0,0,1-1.951,0A1.178,1.178,0,0,1,125.947,6.694Zm4.175,6.749a5.264,5.264,0,0,1,.984-3.329,3.187,3.187,0,0,1,2.652-1.262,2.8,2.8,0,0,1,2.3,1.013l.1-.847h2.175V17.7a3.839,3.839,0,0,1-.535,2.05,3.439,3.439,0,0,1-1.507,1.328,5.3,5.3,0,0,1-2.274.457,4.925,4.925,0,0,1-1.926-.394,3.418,3.418,0,0,1-1.419-1.017l1.063-1.461a2.81,2.81,0,0,0,2.175,1,2.057,2.057,0,0,0,1.486-.51,1.915,1.915,0,0,0,.531-1.448v-.481a2.775,2.775,0,0,1-2.183.938,3.179,3.179,0,0,1-2.619-1.266,5.262,5.262,0,0,1-1-3.358Zm2.4.179a3.278,3.278,0,0,0,.49,1.916,1.558,1.558,0,0,0,1.345.694,1.666,1.666,0,0,0,1.569-.823V11.626a1.662,1.662,0,0,0-1.552-.823,1.568,1.568,0,0,0-1.357.707A3.694,3.694,0,0,0,132.521,13.621ZM142.706,18H140.3V9.019h2.407ZM140.157,6.694a1.181,1.181,0,0,1,.361-.888,1.556,1.556,0,0,1,1.963,0,1.175,1.175,0,0,1,.365.888,1.178,1.178,0,0,1-.369.9,1.539,1.539,0,0,1-1.951,0A1.178,1.178,0,0,1,140.157,6.694Zm7.4.116V9.019h1.536v1.76h-1.536v4.482a1.07,1.07,0,0,0,.191.714.959.959,0,0,0,.73.216,3.826,3.826,0,0,0,.706-.058V17.95a4.939,4.939,0,0,1-1.453.216,2.29,2.29,0,0,1-2.573-2.548V10.778h-1.312V9.019h1.312V6.811ZM155.63,18a2.664,2.664,0,0,1-.241-.805,2.9,2.9,0,0,1-2.266.971,3.189,3.189,0,0,1-2.187-.764,2.456,2.456,0,0,1-.867-1.926,2.538,2.538,0,0,1,1.058-2.191,5.222,5.222,0,0,1,3.059-.772h1.1V12a1.48,1.48,0,0,0-.32-1,1.257,1.257,0,0,0-1.009-.374,1.429,1.429,0,0,0-.95.291.987.987,0,0,0-.344.8h-2.4a2.41,2.41,0,0,1,.481-1.444,3.182,3.182,0,0,1,1.361-1.042,4.961,4.961,0,0,1,1.976-.378,3.92,3.92,0,0,1,2.635.834,2.918,2.918,0,0,1,.975,2.345v3.893a4.294,4.294,0,0,0,.357,1.934V18Zm-1.984-1.668a2.066,2.066,0,0,0,.979-.237,1.554,1.554,0,0,0,.664-.635V13.916h-.9q-1.8,0-1.917,1.245l-.008.141a.96.96,0,0,0,.315.739A1.225,1.225,0,0,0,153.646,16.332ZM162.072,18h-2.407V5.25h2.407Zm6.109.166a4.409,4.409,0,0,1-3.217-1.212,4.308,4.308,0,0,1-1.241-3.229v-.232a5.426,5.426,0,0,1,.523-2.42,3.838,3.838,0,0,1,1.482-1.644,4.159,4.159,0,0,1,2.187-.577,3.727,3.727,0,0,1,2.9,1.162,4.722,4.722,0,0,1,1.058,3.3v.979h-5.719a2.228,2.228,0,0,0,.7,1.411,2.12,2.12,0,0,0,1.482.531,2.589,2.589,0,0,0,2.167-1l1.179,1.32a3.6,3.6,0,0,1-1.461,1.191A4.793,4.793,0,0,1,168.181,18.166Zm-.274-7.379a1.5,1.5,0,0,0-1.158.484,2.5,2.5,0,0,0-.569,1.384h3.337v-.192a1.786,1.786,0,0,0-.432-1.238A1.547,1.547,0,0,0,167.907,10.787ZM178.1,15.518a.773.773,0,0,0-.436-.693,4.95,4.95,0,0,0-1.4-.452q-3.2-.672-3.2-2.723a2.468,2.468,0,0,1,.992-2,4,4,0,0,1,2.594-.8,4.307,4.307,0,0,1,2.735.805,2.538,2.538,0,0,1,1.025,2.092h-2.4a1.161,1.161,0,0,0-.332-.851,1.405,1.405,0,0,0-1.038-.336,1.436,1.436,0,0,0-.938.274.865.865,0,0,0-.332.7.739.739,0,0,0,.378.643,3.885,3.885,0,0,0,1.274.423,10.407,10.407,0,0,1,1.511.4,2.482,2.482,0,0,1,1.9,2.416,2.343,2.343,0,0,1-1.054,1.988,4.548,4.548,0,0,1-2.723.76,4.75,4.75,0,0,1-2-.4,3.363,3.363,0,0,1-1.374-1.1,2.565,2.565,0,0,1-.5-1.515h2.274a1.252,1.252,0,0,0,.473.979,1.877,1.877,0,0,0,1.179.34,1.737,1.737,0,0,0,1.042-.261A.814.814,0,0,0,178.1,15.518Z" transform="translate(399 3866)" fill="#12263f"/>
      <path id="Intersección_11" data-name="Intersección 11" d="M8441,11822v-82h60.017a65.074,65.074,0,0,1-28.75,82Z" transform="translate(-8099 -7902)" fill="#12263f" opacity="0.11"/>
      <circle id="Elipse_5503" data-name="Elipse 5503" cx="57" cy="57" r="57" transform="translate(285 3806)" fill="#4795e9"/>
      <circle id="Elipse_5504" data-name="Elipse 5504" cx="32" cy="32" r="32" transform="translate(310 3831)" fill="#e8e8e8"/>
      <path id="Unión_20" data-name="Unión 20" d="M29.8,71.482,0,49.436,33.932,10.277A24.2,24.2,0,1,1,70.82,41.326L39.2,77.6Z" transform="translate(325.109 3796.279)" fill="#6f88aa"/>
      <path id="Trazado_600408" data-name="Trazado 600408" d="M22.652,19.079a7.838,7.838,0,0,1-1.617,5.353,5.552,5.552,0,0,1-4.376,1.825,5.6,5.6,0,0,1-4.407-1.825,7.819,7.819,0,0,1-1.624-5.353V15.16a7.867,7.867,0,0,1,1.617-5.353A5.549,5.549,0,0,1,16.634,7.97a5.572,5.572,0,0,1,4.388,1.837,7.827,7.827,0,0,1,1.63,5.353ZM19.1,14.794a5.849,5.849,0,0,0-.635-3.094,2.05,2.05,0,0,0-1.831-.983,2.035,2.035,0,0,0-1.831.977,5.939,5.939,0,0,0-.623,3.1V19.42a5.952,5.952,0,0,0,.629,3.125,2.06,2.06,0,0,0,1.849.977,2.024,2.024,0,0,0,1.819-.977A6,6,0,0,0,19.1,19.42Zm5.42,9.07,3-.366V11.461h-3.04V9.423l6.592-1.2V23.5l3,.366V26H24.519Z" transform="translate(356.999 3802.081)" fill="#fff"/>
      <circle id="Elipse_5505" data-name="Elipse 5505" cx="25" cy="25" r="25" transform="translate(317 3838)" fill="#fff"/>
      <path id="video-marketing" d="M13.22,5.991a2.1,2.1,0,0,0-3.157,1.823v5.363A2.1,2.1,0,0,0,13.22,15l4.621-2.681a2.109,2.109,0,0,0,0-3.647Zm-1,7.1V7.9l4.478,2.6ZM25.4,11.249V4.306A2.155,2.155,0,0,0,23.25,2.153H4.305A2.155,2.155,0,0,0,2.152,4.306V16.685a2.155,2.155,0,0,0,2.153,2.153H23.25A2.155,2.155,0,0,0,25.4,16.685a1.076,1.076,0,0,1,2.153,0A4.31,4.31,0,0,1,23.25,20.99H4.305A4.31,4.31,0,0,1,0,16.685V4.306A4.31,4.31,0,0,1,4.305,0H23.25a4.31,4.31,0,0,1,4.306,4.306v6.943a1.076,1.076,0,1,1-2.153,0Zm2.153,14.1a1.076,1.076,0,0,1-1.076,1.076H12.647a1.076,1.076,0,1,1,0-2.153H26.479A1.076,1.076,0,0,1,27.555,25.35ZM9.418,25.4A2.153,2.153,0,0,1,5.37,26.426H1.076a1.076,1.076,0,0,1,0-2.153H5.433A2.153,2.153,0,0,1,9.418,25.4Zm0,0" transform="translate(328 3849)" fill="#6f88aa"/>
    </g>
  </g>
</svg>
