<svg xmlns="http://www.w3.org/2000/svg" width="328" height="286.721" viewBox="0 0 328 286.721">
  <g id="Grupo_156345" data-name="Grupo 156345" transform="translate(-636 -3796.279)">
    <g id="Grupo_155993" data-name="Grupo 155993">
      <path id="Trazado_598848" data-name="Trazado 598848" d="M0,0H328V82H0Z" transform="translate(636 3838)" fill="#ffd7ec"/>
      <rect id="Rectángulo_44620" data-name="Rectángulo 44620" width="271" height="82" transform="translate(693 3838)" fill="#ff8fca"/>
      <path id="Trazado_600405" data-name="Trazado 600405" d="M8.351,12.762H3.569V16H9.181v2h-8.1V5.914H9.164V7.931H3.569v2.88H8.351ZM13.9,11.7l1.511-2.681h2.565l-2.557,4.4L18.087,18H15.514l-1.6-2.822L12.318,18H9.737L12.4,13.418l-2.548-4.4h2.573Zm13.314,1.893a5.387,5.387,0,0,1-.942,3.324,3.021,3.021,0,0,1-2.544,1.249,2.8,2.8,0,0,1-2.2-.946v4.233h-2.4V9.019h2.225l.083.88a2.819,2.819,0,0,1,2.274-1.046A3.041,3.041,0,0,1,26.3,10.081a5.532,5.532,0,0,1,.921,3.387Zm-2.4-.174a3.535,3.535,0,0,0-.444-1.934,1.446,1.446,0,0,0-1.291-.681,1.571,1.571,0,0,0-1.552.863v3.677a1.6,1.6,0,0,0,1.569.888Q24.819,16.232,24.819,13.418Zm8.019,4.748a4.409,4.409,0,0,1-3.217-1.212,4.308,4.308,0,0,1-1.241-3.229v-.232a5.426,5.426,0,0,1,.523-2.42,3.838,3.838,0,0,1,1.482-1.644,4.159,4.159,0,0,1,2.187-.577,3.727,3.727,0,0,1,2.9,1.162,4.722,4.722,0,0,1,1.058,3.3v.979H30.813a2.229,2.229,0,0,0,.7,1.411A2.12,2.12,0,0,0,33,16.232a2.589,2.589,0,0,0,2.167-1l1.179,1.32a3.6,3.6,0,0,1-1.461,1.191A4.793,4.793,0,0,1,32.838,18.166Zm-.274-7.379a1.5,1.5,0,0,0-1.158.484,2.5,2.5,0,0,0-.569,1.384h3.337v-.192a1.786,1.786,0,0,0-.432-1.238A1.547,1.547,0,0,0,32.564,10.787Zm10.376.481a6.517,6.517,0,0,0-.863-.066,1.757,1.757,0,0,0-1.785.921V18h-2.4V9.019h2.266l.066,1.071a2.223,2.223,0,0,1,2-1.237,2.514,2.514,0,0,1,.747.108ZM46.625,18H44.218V9.019h2.407ZM44.077,6.694a1.181,1.181,0,0,1,.361-.888,1.556,1.556,0,0,1,1.963,0,1.175,1.175,0,0,1,.365.888,1.178,1.178,0,0,1-.369.9,1.539,1.539,0,0,1-1.951,0A1.178,1.178,0,0,1,44.077,6.694Zm8.658,11.472a4.409,4.409,0,0,1-3.217-1.212,4.308,4.308,0,0,1-1.241-3.229v-.232a5.426,5.426,0,0,1,.523-2.42,3.838,3.838,0,0,1,1.482-1.644,4.159,4.159,0,0,1,2.187-.577,3.727,3.727,0,0,1,2.9,1.162,4.722,4.722,0,0,1,1.058,3.3v.979H50.709a2.229,2.229,0,0,0,.7,1.411,2.12,2.12,0,0,0,1.482.531,2.589,2.589,0,0,0,2.167-1l1.179,1.32a3.6,3.6,0,0,1-1.461,1.191A4.793,4.793,0,0,1,52.735,18.166Zm-.274-7.379a1.5,1.5,0,0,0-1.158.484,2.5,2.5,0,0,0-.569,1.384h3.337v-.192a1.786,1.786,0,0,0-.432-1.238A1.547,1.547,0,0,0,52.461,10.787ZM60,9.019l.075,1.038a3.136,3.136,0,0,1,2.582-1.2,2.606,2.606,0,0,1,2.125.838,3.912,3.912,0,0,1,.714,2.507V18h-2.4V12.256a1.556,1.556,0,0,0-.332-1.108,1.486,1.486,0,0,0-1.1-.344,1.65,1.65,0,0,0-1.519.863V18h-2.4V9.019Zm11.048,7.213a1.573,1.573,0,0,0,1.079-.365,1.28,1.28,0,0,0,.432-.971h2.25a3.077,3.077,0,0,1-.5,1.673,3.286,3.286,0,0,1-1.341,1.179,4.2,4.2,0,0,1-1.88.419,3.9,3.9,0,0,1-3.038-1.224,4.845,4.845,0,0,1-1.112-3.383V13.4a4.79,4.79,0,0,1,1.1-3.312,3.854,3.854,0,0,1,3.03-1.237,3.778,3.778,0,0,1,2.7.959,3.4,3.4,0,0,1,1.033,2.552h-2.25a1.648,1.648,0,0,0-.432-1.139,1.6,1.6,0,0,0-2.362.173,3.541,3.541,0,0,0-.427,1.983v.249a3.586,3.586,0,0,0,.423,2A1.463,1.463,0,0,0,71.046,16.232ZM78.708,18H76.3V9.019h2.407ZM76.16,6.694a1.181,1.181,0,0,1,.361-.888,1.556,1.556,0,0,1,1.963,0,1.175,1.175,0,0,1,.365.888,1.178,1.178,0,0,1-.369.9,1.539,1.539,0,0,1-1.951,0A1.178,1.178,0,0,1,76.16,6.694ZM85.888,18a2.664,2.664,0,0,1-.241-.805,2.9,2.9,0,0,1-2.266.971,3.189,3.189,0,0,1-2.187-.764,2.456,2.456,0,0,1-.867-1.926,2.538,2.538,0,0,1,1.058-2.191,5.222,5.222,0,0,1,3.059-.772h1.1V12a1.48,1.48,0,0,0-.32-1,1.257,1.257,0,0,0-1.009-.374,1.429,1.429,0,0,0-.95.291.987.987,0,0,0-.344.8h-2.4a2.41,2.41,0,0,1,.481-1.444A3.182,3.182,0,0,1,82.369,9.23a4.961,4.961,0,0,1,1.976-.378,3.92,3.92,0,0,1,2.635.834,2.918,2.918,0,0,1,.975,2.345v3.893a4.294,4.294,0,0,0,.357,1.934V18ZM83.9,16.332a2.066,2.066,0,0,0,.979-.237,1.554,1.554,0,0,0,.664-.635V13.916h-.9q-1.8,0-1.917,1.245l-.008.141a.96.96,0,0,0,.315.739A1.225,1.225,0,0,0,83.9,16.332ZM3.569,33.742V38H1.079V25.914H5.794a5.455,5.455,0,0,1,2.395.5,3.67,3.67,0,0,1,1.59,1.415,3.946,3.946,0,0,1,.556,2.088,3.47,3.47,0,0,1-1.216,2.8,5.065,5.065,0,0,1-3.366,1.025Zm0-2.017H5.794A2.187,2.187,0,0,0,7.3,31.26a1.691,1.691,0,0,0,.519-1.328A1.994,1.994,0,0,0,7.3,28.5a1.953,1.953,0,0,0-1.444-.564H3.569Zm13.364-.457a6.517,6.517,0,0,0-.863-.066,1.757,1.757,0,0,0-1.785.921V38h-2.4V29.019h2.266l.066,1.071a2.223,2.223,0,0,1,2-1.237,2.514,2.514,0,0,1,.747.108Zm.481,2.158a5.327,5.327,0,0,1,.515-2.382,3.768,3.768,0,0,1,1.482-1.619,4.323,4.323,0,0,1,2.245-.573,4.09,4.09,0,0,1,2.968,1.112,4.464,4.464,0,0,1,1.282,3.021l.017.614a4.694,4.694,0,0,1-1.154,3.316,4.011,4.011,0,0,1-3.1,1.249,4.031,4.031,0,0,1-3.1-1.245,4.777,4.777,0,0,1-1.158-3.387Zm2.4.17a3.357,3.357,0,0,0,.481,1.958,1.73,1.73,0,0,0,2.739.008,3.674,3.674,0,0,0,.49-2.141,3.324,3.324,0,0,0-.49-1.945,1.592,1.592,0,0,0-1.378-.69,1.566,1.566,0,0,0-1.361.686A3.735,3.735,0,0,0,19.814,33.6Zm11.322,2.635a1.573,1.573,0,0,0,1.079-.365,1.28,1.28,0,0,0,.432-.971H34.9a3.077,3.077,0,0,1-.5,1.673,3.286,3.286,0,0,1-1.341,1.179,4.2,4.2,0,0,1-1.88.419,3.9,3.9,0,0,1-3.038-1.224,4.845,4.845,0,0,1-1.112-3.383V33.4a4.79,4.79,0,0,1,1.1-3.312,3.854,3.854,0,0,1,3.03-1.237,3.778,3.778,0,0,1,2.7.959A3.4,3.4,0,0,1,34.9,32.364h-2.25a1.648,1.648,0,0,0-.432-1.139,1.6,1.6,0,0,0-2.362.173,3.541,3.541,0,0,0-.427,1.983v.249a3.586,3.586,0,0,0,.423,2A1.463,1.463,0,0,0,31.136,36.232ZM40.4,38.166a4.409,4.409,0,0,1-3.217-1.212,4.308,4.308,0,0,1-1.241-3.229v-.232a5.426,5.426,0,0,1,.523-2.42,3.838,3.838,0,0,1,1.482-1.644,4.159,4.159,0,0,1,2.187-.577,3.727,3.727,0,0,1,2.9,1.162,4.722,4.722,0,0,1,1.058,3.3v.979H38.375a2.229,2.229,0,0,0,.7,1.411,2.12,2.12,0,0,0,1.482.531,2.589,2.589,0,0,0,2.167-1l1.179,1.32a3.6,3.6,0,0,1-1.461,1.191A4.793,4.793,0,0,1,40.4,38.166Zm-.274-7.379a1.5,1.5,0,0,0-1.158.484,2.5,2.5,0,0,0-.569,1.384h3.337v-.192a1.786,1.786,0,0,0-.432-1.238A1.547,1.547,0,0,0,40.126,30.787Zm10.193,4.731a.773.773,0,0,0-.436-.693,4.95,4.95,0,0,0-1.4-.452q-3.2-.672-3.2-2.723a2.468,2.468,0,0,1,.992-2,4,4,0,0,1,2.594-.8,4.307,4.307,0,0,1,2.735.805,2.538,2.538,0,0,1,1.025,2.092h-2.4A1.161,1.161,0,0,0,49.9,30.9a1.405,1.405,0,0,0-1.038-.336,1.436,1.436,0,0,0-.938.274.865.865,0,0,0-.332.7.739.739,0,0,0,.378.643,3.885,3.885,0,0,0,1.274.423,10.407,10.407,0,0,1,1.511.4,2.482,2.482,0,0,1,1.9,2.416A2.343,2.343,0,0,1,51.6,37.406a4.548,4.548,0,0,1-2.723.76,4.75,4.75,0,0,1-2-.4,3.363,3.363,0,0,1-1.374-1.1,2.565,2.565,0,0,1-.5-1.515h2.274a1.252,1.252,0,0,0,.473.979,1.877,1.877,0,0,0,1.179.34,1.737,1.737,0,0,0,1.042-.261A.814.814,0,0,0,50.319,35.518Zm3.5-2.092a5.327,5.327,0,0,1,.515-2.382,3.767,3.767,0,0,1,1.482-1.619,4.323,4.323,0,0,1,2.245-.573,4.09,4.09,0,0,1,2.968,1.112,4.464,4.464,0,0,1,1.282,3.021l.017.614a4.694,4.694,0,0,1-1.154,3.316,4.472,4.472,0,0,1-6.2,0,4.777,4.777,0,0,1-1.158-3.387Zm2.4.17a3.357,3.357,0,0,0,.481,1.958,1.73,1.73,0,0,0,2.739.008,3.674,3.674,0,0,0,.49-2.141,3.324,3.324,0,0,0-.49-1.945,1.592,1.592,0,0,0-1.378-.69,1.566,1.566,0,0,0-1.361.686A3.735,3.735,0,0,0,56.221,33.6ZM7.346,54.829a1.278,1.278,0,0,0-.5-1.083,6.533,6.533,0,0,0-1.793-.8A12.71,12.71,0,0,1,3,52.123a3.35,3.35,0,0,1-2.059-3A2.919,2.919,0,0,1,1.5,47.379a3.6,3.6,0,0,1,1.585-1.2,5.967,5.967,0,0,1,2.32-.432,5.432,5.432,0,0,1,2.308.469,3.674,3.674,0,0,1,1.573,1.324,3.464,3.464,0,0,1,.56,1.942H7.354a1.63,1.63,0,0,0-.523-1.291,2.15,2.15,0,0,0-1.469-.461,2.3,2.3,0,0,0-1.419.386,1.217,1.217,0,0,0-.506,1.017,1.166,1.166,0,0,0,.594.988,6.705,6.705,0,0,0,1.747.747,7.55,7.55,0,0,1,3.1,1.585,3.157,3.157,0,0,1,.971,2.357,2.909,2.909,0,0,1-1.187,2.461,5.2,5.2,0,0,1-3.2.892,6.171,6.171,0,0,1-2.54-.51,4.019,4.019,0,0,1-1.747-1.4,3.582,3.582,0,0,1-.6-2.059h2.5q0,2,2.391,2a2.326,2.326,0,0,0,1.386-.361A1.175,1.175,0,0,0,7.346,54.829Zm8.16,3.337a4.409,4.409,0,0,1-3.217-1.212,4.308,4.308,0,0,1-1.241-3.229v-.232a5.426,5.426,0,0,1,.523-2.42,3.838,3.838,0,0,1,1.482-1.644,4.159,4.159,0,0,1,2.187-.577,3.727,3.727,0,0,1,2.9,1.162,4.722,4.722,0,0,1,1.058,3.3v.979H13.48a2.229,2.229,0,0,0,.7,1.411,2.12,2.12,0,0,0,1.482.531,2.589,2.589,0,0,0,2.167-1l1.179,1.32a3.6,3.6,0,0,1-1.461,1.191A4.793,4.793,0,0,1,15.506,58.166Zm-.274-7.379a1.5,1.5,0,0,0-1.158.484,2.5,2.5,0,0,0-.569,1.384h3.337v-.192a1.786,1.786,0,0,0-.432-1.238A1.547,1.547,0,0,0,15.232,50.787Zm10.376.481a6.517,6.517,0,0,0-.863-.066,1.757,1.757,0,0,0-1.785.921V58h-2.4V49.019h2.266l.066,1.071a2.223,2.223,0,0,1,2-1.237,2.514,2.514,0,0,1,.747.108Zm4.665,3.8,1.668-6.051h2.507L31.418,58H29.127L26.1,49.019H28.6ZM38.034,58H35.627V49.019h2.407ZM35.486,46.694a1.181,1.181,0,0,1,.361-.888,1.556,1.556,0,0,1,1.963,0,1.268,1.268,0,0,1,0,1.785,1.539,1.539,0,0,1-1.951,0A1.178,1.178,0,0,1,35.486,46.694Zm8.259,9.538a1.573,1.573,0,0,0,1.079-.365,1.28,1.28,0,0,0,.432-.971h2.25a3.077,3.077,0,0,1-.5,1.673,3.286,3.286,0,0,1-1.341,1.179,4.2,4.2,0,0,1-1.88.419,3.9,3.9,0,0,1-3.038-1.224,4.845,4.845,0,0,1-1.112-3.383V53.4a4.79,4.79,0,0,1,1.1-3.312,3.854,3.854,0,0,1,3.03-1.237,3.778,3.778,0,0,1,2.7.959,3.4,3.4,0,0,1,1.033,2.552h-2.25a1.648,1.648,0,0,0-.432-1.139,1.6,1.6,0,0,0-2.362.173,3.541,3.541,0,0,0-.427,1.983v.249a3.586,3.586,0,0,0,.423,2A1.463,1.463,0,0,0,43.745,56.232ZM51.407,58H49V49.019h2.407ZM48.858,46.694a1.181,1.181,0,0,1,.361-.888,1.556,1.556,0,0,1,1.963,0,1.268,1.268,0,0,1,0,1.785,1.539,1.539,0,0,1-1.951,0A1.178,1.178,0,0,1,48.858,46.694Zm4.15,6.732a5.327,5.327,0,0,1,.515-2.382,3.767,3.767,0,0,1,1.482-1.619,4.323,4.323,0,0,1,2.245-.573,4.09,4.09,0,0,1,2.968,1.112A4.464,4.464,0,0,1,61.5,52.986l.017.614a4.694,4.694,0,0,1-1.154,3.316,4.472,4.472,0,0,1-6.2,0,4.777,4.777,0,0,1-1.158-3.387Zm2.4.17a3.357,3.357,0,0,0,.481,1.958,1.73,1.73,0,0,0,2.739.008,3.674,3.674,0,0,0,.49-2.141,3.324,3.324,0,0,0-.49-1.945,1.592,1.592,0,0,0-1.378-.69,1.566,1.566,0,0,0-1.361.686A3.735,3.735,0,0,0,55.408,53.6Z" transform="translate(770 3849)" fill="#12263f"/>
      <path id="Intersección_12" data-name="Intersección 12" d="M8441,11822v-82h60.017a65.074,65.074,0,0,1-28.75,82Z" transform="translate(-7748 -7902)" fill="#12263f" opacity="0.11"/>
      <circle id="Elipse_5507" data-name="Elipse 5507" cx="57" cy="57" r="57" transform="translate(636 3806)" fill="#ff2195"/>
      <circle id="Elipse_5509" data-name="Elipse 5509" cx="32" cy="32" r="32" transform="translate(661 3831)" fill="#e8e8e8"/>
      <path id="Unión_21" data-name="Unión 21" d="M29.8,71.482,0,49.436,33.932,10.277A24.2,24.2,0,1,1,70.82,41.326L39.2,77.6Z" transform="translate(676.109 3796.279)" fill="#6f88aa"/>
      <path id="Trazado_600409" data-name="Trazado 600409" d="M21.266,19.079a7.838,7.838,0,0,1-1.617,5.353,5.552,5.552,0,0,1-4.376,1.825,5.6,5.6,0,0,1-4.407-1.825,7.819,7.819,0,0,1-1.624-5.353V15.16A7.867,7.867,0,0,1,10.86,9.807,5.549,5.549,0,0,1,15.248,7.97a5.572,5.572,0,0,1,4.388,1.837,7.827,7.827,0,0,1,1.63,5.353Zm-3.552-4.285a5.849,5.849,0,0,0-.635-3.094,2.05,2.05,0,0,0-1.831-.983,2.035,2.035,0,0,0-1.831.977,5.939,5.939,0,0,0-.623,3.1V19.42a5.952,5.952,0,0,0,.629,3.125,2.06,2.06,0,0,0,1.849.977,2.024,2.024,0,0,0,1.819-.977,6,6,0,0,0,.623-3.125ZM23.232,26V23.668l5.75-6.165a13.913,13.913,0,0,0,1.77-2.411,3.91,3.91,0,0,0,.525-1.825,2.746,2.746,0,0,0-.6-1.837,2.123,2.123,0,0,0-1.715-.714,2.216,2.216,0,0,0-1.874.836,3.569,3.569,0,0,0-.641,2.228H22.975l-.024-.073a5.373,5.373,0,0,1,1.581-4.071A5.931,5.931,0,0,1,28.957,7.97,6.194,6.194,0,0,1,33.278,9.4a4.891,4.891,0,0,1,1.575,3.809,5.374,5.374,0,0,1-.885,2.979,28.059,28.059,0,0,1-2.936,3.564L27.87,23.2l.024.061h4.614l.146-1.758h2.71V26Z" transform="translate(707.999 3802.081)" fill="#fff"/>
      <circle id="Elipse_5510" data-name="Elipse 5510" cx="25" cy="25" r="25" transform="translate(668 3838)" fill="#fff"/>
      <g id="prueba" transform="translate(679 3849)">
        <path id="Trazado_597568" data-name="Trazado 597568" d="M28.147,5.371a2.542,2.542,0,0,0-3.591,0l-4.694,4.694V5.925a2.542,2.542,0,0,0-2.539-2.539H14.862a2.54,2.54,0,0,0-1.943-1.123,3.1,3.1,0,0,0-5.975,0A2.54,2.54,0,0,0,5,3.386H2.539A2.542,2.542,0,0,0,0,5.925V26.351a2.542,2.542,0,0,0,2.539,2.539H17.323a2.542,2.542,0,0,0,2.539-2.539V17.246l8.285-8.285a2.542,2.542,0,0,0,0-3.591ZM6.263,4.8A.847.847,0,0,1,7.11,3.95h.564A.846.846,0,0,0,8.52,3.1a1.411,1.411,0,0,1,2.821,0,.846.846,0,0,0,.846.846h.564A.847.847,0,0,1,13.6,4.8v.282H6.263ZM18.169,26.351a.847.847,0,0,1-.846.846H2.539a.847.847,0,0,1-.846-.846V5.925a.847.847,0,0,1,.846-.846H4.571v.846a.846.846,0,0,0,.846.846h9.028a.846.846,0,0,0,.846-.846V5.078h2.031a.847.847,0,0,1,.846.846v5.832l-4.786,4.786a.845.845,0,0,0-.159.22l-2.394,4.788a.846.846,0,0,0,1.136,1.136l4.788-2.394a.846.846,0,0,0,.22-.159l1.195-1.195ZM14.948,19.3l-1.467.733.733-1.466Zm1.429-.965-1.2-1.2,6.384-6.384,1.2,1.2Zm7.581-7.581-1.2-1.2,1.2-1.2,1.2,1.2ZM26.95,7.765l-.6.6-1.2-1.2.6-.6a.846.846,0,1,1,1.2,1.2Z" fill="#6f88aa"/>
        <path id="Trazado_597569" data-name="Trazado 597569" d="M64.609,152.248l-2.594,2.593-1-1a.846.846,0,1,0-1.2,1.2l1.6,1.6a.846.846,0,0,0,1.2,0l3.192-3.192a.846.846,0,0,0-1.2-1.2Z" transform="translate(-56.212 -143.424)" fill="#6f88aa"/>
        <path id="Trazado_597570" data-name="Trazado 597570" d="M64.609,250.679l-2.594,2.594-1-1a.846.846,0,1,0-1.2,1.2l1.6,1.6a.846.846,0,0,0,1.2,0l3.192-3.192a.846.846,0,0,0-1.2-1.2Z" transform="translate(-56.212 -236.3)" fill="#6f88aa"/>
        <path id="Trazado_597571" data-name="Trazado 597571" d="M66.83,362.247a.846.846,0,0,0-1.2,0l-1.094,1.094-1.094-1.094a.846.846,0,0,0-1.2,1.2l1.094,1.094-1.094,1.094a.846.846,0,1,0,1.2,1.2l1.094-1.094,1.094,1.094a.846.846,0,0,0,1.2-1.2l-1.094-1.094,1.094-1.094A.846.846,0,0,0,66.83,362.247Z" transform="translate(-58.501 -341.573)" fill="#6f88aa"/>
      </g>
    </g>
    <rect id="Rectángulo_45168" data-name="Rectángulo 45168" width="328" height="163" transform="translate(636 3920)" fill="#ffd7ec"/>
    <text id="_Pruebas_piloto._Línea_de_proceso_experiencia_escalable._Desarrollo_de_marca._Naming._" data-name="● Pruebas piloto.
● Línea de proceso, experiencia escalable.
● Desarrollo de marca.
● Naming.
" transform="translate(661 3942)" fill="#ff2195" font-size="16" font-family="SegoeUI, Segoe UI"><tspan x="0" y="17">●</tspan><tspan y="17" font-family="Roboto-Regular, Roboto"> </tspan><tspan y="17" fill="#12263f" font-family="Roboto-Regular, Roboto">Pruebas piloto.</tspan><tspan x="0" y="41">●</tspan><tspan y="41" font-family="Roboto-Regular, Roboto"> </tspan><tspan y="41" fill="#12263f" font-family="Roboto-Regular, Roboto">Línea de proceso, experiencia </tspan><tspan x="0" y="65" fill="#12263f" font-family="Roboto-Regular, Roboto">escalable.</tspan><tspan x="0" y="89">●</tspan><tspan y="89" font-family="Roboto-Regular, Roboto"> </tspan><tspan y="89" fill="#12263f" font-family="Roboto-Regular, Roboto">Desarrollo de marca.</tspan><tspan x="0" y="113">●</tspan><tspan y="113" font-family="Roboto-Regular, Roboto"> </tspan><tspan y="113" fill="#12263f" font-family="Roboto-Regular, Roboto">Naming.</tspan><tspan fill="#12263f" font-family="Roboto-Regular, Roboto"><tspan x="0" y="137"></tspan></tspan></text>
  </g>
</svg>
