<svg xmlns="http://www.w3.org/2000/svg" xmlns:xlink="http://www.w3.org/1999/xlink" width="1030" height="412" viewBox="0 0 1030 412">
  <defs>
    <clipPath id="clip-path">
      <rect id="Rectángulo_45021" data-name="Rectángulo 45021" width="275.959" height="180.147" fill="none"/>
    </clipPath>
    <clipPath id="clip-path-2">
      <rect id="Rectángulo_45020" data-name="Rectángulo 45020" width="275.958" height="180.147" fill="none"/>
    </clipPath>
    <clipPath id="clip-path-3">
      <rect id="Rectángulo_45004" data-name="Rectángulo 45004" width="24.246" height="21.679" fill="none"/>
    </clipPath>
    <clipPath id="clip-path-4">
      <rect id="Rectángulo_45005" data-name="Rectángulo 45005" width="8.276" height="6.065" fill="none"/>
    </clipPath>
    <clipPath id="clip-path-5">
      <rect id="Rectángulo_45006" data-name="Rectángulo 45006" width="4.307" height="2.441" fill="none"/>
    </clipPath>
    <clipPath id="clip-path-6">
      <rect id="Rectángulo_45007" data-name="Rectángulo 45007" width="36.801" height="5.485" fill="none"/>
    </clipPath>
    <clipPath id="clip-path-7">
      <rect id="Rectángulo_45008" data-name="Rectángulo 45008" width="44.041" height="2.271" fill="none"/>
    </clipPath>
    <clipPath id="clip-path-8">
      <rect id="Rectángulo_45009" data-name="Rectángulo 45009" width="11.68" height="19.699" fill="none"/>
    </clipPath>
    <clipPath id="clip-path-9">
      <rect id="Rectángulo_45010" data-name="Rectángulo 45010" width="7.476" height="16.528" fill="none"/>
    </clipPath>
    <clipPath id="clip-path-10">
      <rect id="Rectángulo_45011" data-name="Rectángulo 45011" width="22.395" height="49.898" fill="none"/>
    </clipPath>
    <clipPath id="clip-path-11">
      <rect id="Rectángulo_45012" data-name="Rectángulo 45012" width="25.275" height="105.795" fill="none"/>
    </clipPath>
    <clipPath id="clip-path-12">
      <rect id="Rectángulo_45018" data-name="Rectángulo 45018" width="3.055" height="9.579" fill="none"/>
    </clipPath>
    <clipPath id="clip-path-13">
      <rect id="Rectángulo_45019" data-name="Rectángulo 45019" width="3.687" height="7.851" fill="none"/>
    </clipPath>
    <radialGradient id="radial-gradient" cx="0.712" cy="0.285" r="0.5" gradientUnits="objectBoundingBox">
      <stop offset="0" stop-color="#fff"/>
      <stop offset="0.13" stop-color="#fefef8"/>
      <stop offset="1" stop-color="#cbf0aa"/>
    </radialGradient>
    <radialGradient id="radial-gradient-2" cx="0.712" cy="0.285" r="0.5" gradientUnits="objectBoundingBox">
      <stop offset="0" stop-color="#fff"/>
      <stop offset="0.13" stop-color="#fefef8"/>
      <stop offset="1" stop-color="#ffa8d9"/>
    </radialGradient>
    <radialGradient id="radial-gradient-3" cx="0.712" cy="0.285" r="0.5" gradientUnits="objectBoundingBox">
      <stop offset="0" stop-color="#fff"/>
      <stop offset="0.13" stop-color="#fefef8"/>
      <stop offset="1" stop-color="#c0d6f6"/>
    </radialGradient>
  </defs>
  <g id="Grupo_156411" data-name="Grupo 156411" transform="translate(-285 -1890)">
    <path id="Trazado_600445" data-name="Trazado 600445" d="M0,0H1030V412H0Z" transform="translate(285 1890)" fill="none"/>
    <path id="Trazado_600446" data-name="Trazado 600446" d="M19,0H276a19,19,0,0,1,19,19V54a19,19,0,0,1-19,19H19A19,19,0,0,1,0,54V19A19,19,0,0,1,19,0Z" transform="translate(653 1928)" fill="#deecfb"/>
    <path id="Trazado_600447" data-name="Trazado 600447" d="M19,0H296a19,19,0,0,1,19,19V54a19,19,0,0,1-19,19H19A19,19,0,0,1,0,54V19A19,19,0,0,1,19,0Z" transform="translate(915 2043)" fill="#deecfb"/>
    <path id="Trazado_600448" data-name="Trazado 600448" d="M19,0H296a19,19,0,0,1,19,19V54a19,19,0,0,1-19,19H19A19,19,0,0,1,0,54V19A19,19,0,0,1,19,0Z" transform="translate(852 2184)" fill="#deecfb"/>
    <path id="Trazado_600449" data-name="Trazado 600449" d="M19,0H296a19,19,0,0,1,19,19V54a19,19,0,0,1-19,19H19A19,19,0,0,1,0,54V19A19,19,0,0,1,19,0Z" transform="translate(433 2183)" fill="#deecfb"/>
    <path id="Trazado_600450" data-name="Trazado 600450" d="M19,0H296a19,19,0,0,1,19,19V54a19,19,0,0,1-19,19H19A19,19,0,0,1,0,54V19A19,19,0,0,1,19,0Z" transform="translate(370 2043)" fill="#deecfb"/>
    <path id="Trazado_600451" data-name="Trazado 600451" d="M23.035,18.552a8.311,8.311,0,0,1-3.6.668,6.074,6.074,0,0,1-4.562-1.705,6.233,6.233,0,0,1-1.661-4.544,6.659,6.659,0,0,1,1.868-4.9,6.533,6.533,0,0,1,4.847-1.881,9.065,9.065,0,0,1,3.111.466V9.385a5.513,5.513,0,0,0-2.883-.756,3.824,3.824,0,0,0-2.865,1.116,4.142,4.142,0,0,0-1.09,3.023,4.062,4.062,0,0,0,1.028,2.914,3.633,3.633,0,0,0,2.769,1.085,5.905,5.905,0,0,0,3.041-.809Zm6.214.668a4.838,4.838,0,0,1-3.538-1.261,4.573,4.573,0,0,1-1.288-3.423,4.573,4.573,0,0,1,1.336-3.494A5.048,5.048,0,0,1,29.372,9.78a4.78,4.78,0,0,1,3.516,1.261,4.483,4.483,0,0,1,1.274,3.335,4.759,4.759,0,0,1-1.314,3.542A4.892,4.892,0,0,1,29.249,19.22Zm.07-7.312a1.852,1.852,0,0,0-1.529.677,2.984,2.984,0,0,0-.545,1.916q0,2.593,2.092,2.593,2,0,2-2.663Q31.332,11.907,29.319,11.907ZM44.656,19H41.888V14q0-2.092-1.494-2.092a1.483,1.483,0,0,0-1.187.554,2.109,2.109,0,0,0-.466,1.406V19H35.964V10h2.777v1.424h.035A3.183,3.183,0,0,1,41.668,9.78q2.988,0,2.988,3.709Zm1.608-.237v-2.25a5.913,5.913,0,0,0,1.367.615,4.531,4.531,0,0,0,1.288.2,2.762,2.762,0,0,0,1.165-.2.653.653,0,0,0,.426-.615.569.569,0,0,0-.193-.439,1.8,1.8,0,0,0-.5-.308,5.635,5.635,0,0,0-.664-.237q-.36-.105-.694-.237a6.653,6.653,0,0,1-.945-.435,2.731,2.731,0,0,1-.686-.541,2.125,2.125,0,0,1-.422-.712,2.841,2.841,0,0,1-.145-.958,2.466,2.466,0,0,1,.33-1.3,2.692,2.692,0,0,1,.879-.892,4.016,4.016,0,0,1,1.257-.51A6.553,6.553,0,0,1,50.2,9.78a8.168,8.168,0,0,1,1.213.092,9.053,9.053,0,0,1,1.213.268v2.145a4.383,4.383,0,0,0-1.129-.461,4.764,4.764,0,0,0-1.182-.154,2.619,2.619,0,0,0-.514.048,1.693,1.693,0,0,0-.426.141.783.783,0,0,0-.29.237.546.546,0,0,0-.105.33.609.609,0,0,0,.158.422,1.374,1.374,0,0,0,.413.3,4.078,4.078,0,0,0,.567.229q.312.1.62.207a8.056,8.056,0,0,1,1,.422,3.2,3.2,0,0,1,.769.536,2.105,2.105,0,0,1,.492.721,2.884,2.884,0,0,1-.176,2.351,2.78,2.78,0,0,1-.923.923,4.185,4.185,0,0,1-1.327.519,7.357,7.357,0,0,1-1.56.163A8.042,8.042,0,0,1,46.265,18.763Zm13.948.132a4.105,4.105,0,0,1-1.854.325q-2.936,0-2.936-3.05V12.048H53.964V10h1.459V8.058l2.769-.791V10h2.021v2.048H58.191v3.639q0,1.406,1.116,1.406a1.882,1.882,0,0,0,.905-.255Zm7.436-6.39a2.409,2.409,0,0,0-1.169-.272,1.684,1.684,0,0,0-1.415.664,2.9,2.9,0,0,0-.51,1.806V19H61.777V10h2.777v1.67h.035a2.4,2.4,0,0,1,2.373-1.828,1.788,1.788,0,0,1,.686.105Zm9.9,6.5H74.776V17.629h-.044a3.141,3.141,0,0,1-2.751,1.591q-3.129,0-3.129-3.788V10h2.769v5.186q0,1.907,1.512,1.907a1.5,1.5,0,0,0,1.2-.523,2.109,2.109,0,0,0,.448-1.419V10h2.769ZM81.289,8.576a1.622,1.622,0,0,1-1.151-.417,1.345,1.345,0,0,1-.448-1.024,1.3,1.3,0,0,1,.448-1.02,1.88,1.88,0,0,1,2.307,0,1.3,1.3,0,0,1,.444,1.02,1.34,1.34,0,0,1-.444,1.037A1.65,1.65,0,0,1,81.289,8.576ZM82.66,19H79.883V10H82.66Zm8.209-6.5a2.409,2.409,0,0,0-1.169-.272,1.684,1.684,0,0,0-1.415.664,2.9,2.9,0,0,0-.51,1.806V19H85V10h2.777v1.67h.035a2.4,2.4,0,0,1,2.373-1.828,1.788,1.788,0,0,1,.686.105Zm9.07,5.449H99.9V23.14H97.127V10H99.9v1.354h.035a3.534,3.534,0,0,1,5.594-.374,5.108,5.108,0,0,1,.954,3.265,5.537,5.537,0,0,1-1.112,3.612,3.625,3.625,0,0,1-2.958,1.362A2.8,2.8,0,0,1,99.939,17.954Zm-.079-3.691v.721a2.291,2.291,0,0,0,.492,1.521,1.6,1.6,0,0,0,1.292.589,1.7,1.7,0,0,0,1.472-.734,3.543,3.543,0,0,0,.523-2.079q0-2.373-1.846-2.373a1.733,1.733,0,0,0-1.393.646A2.576,2.576,0,0,0,99.86,14.263Zm14.3-1.758a2.409,2.409,0,0,0-1.169-.272,1.684,1.684,0,0,0-1.415.664,2.9,2.9,0,0,0-.51,1.806V19h-2.777V10h2.777v1.67h.035a2.4,2.4,0,0,1,2.373-1.828,1.788,1.788,0,0,1,.686.105Zm5.511,6.715a4.838,4.838,0,0,1-3.538-1.261,4.573,4.573,0,0,1-1.288-3.423,4.573,4.573,0,0,1,1.336-3.494,5.048,5.048,0,0,1,3.612-1.261,4.78,4.78,0,0,1,3.516,1.261,4.483,4.483,0,0,1,1.274,3.335,4.759,4.759,0,0,1-1.314,3.542A4.892,4.892,0,0,1,119.671,19.22Zm.07-7.312a1.852,1.852,0,0,0-1.529.677,2.984,2.984,0,0,0-.545,1.916q0,2.593,2.092,2.593,2,0,2-2.663Q121.754,11.907,119.741,11.907Zm12.085,6.987a4.105,4.105,0,0,1-1.854.325q-2.936,0-2.936-3.05V12.048h-1.459V10h1.459V8.058l2.769-.791V10h2.021v2.048H129.8v3.639q0,1.406,1.116,1.406a1.882,1.882,0,0,0,.905-.255Zm5.783.325a4.838,4.838,0,0,1-3.538-1.261,4.573,4.573,0,0,1-1.288-3.423,4.573,4.573,0,0,1,1.336-3.494,5.048,5.048,0,0,1,3.612-1.261,4.78,4.78,0,0,1,3.516,1.261,4.483,4.483,0,0,1,1.274,3.335,4.759,4.759,0,0,1-1.314,3.542A4.892,4.892,0,0,1,137.609,19.22Zm.07-7.312a1.852,1.852,0,0,0-1.529.677,2.984,2.984,0,0,0-.545,1.916q0,2.593,2.092,2.593,2,0,2-2.663Q139.692,11.907,137.68,11.907Zm12.085,6.987a4.105,4.105,0,0,1-1.854.325q-2.936,0-2.936-3.05V12.048h-1.459V10h1.459V8.058l2.769-.791V10h2.021v2.048h-2.021v3.639q0,1.406,1.116,1.406a1.882,1.882,0,0,0,.905-.255Zm2.971-10.318a1.622,1.622,0,0,1-1.151-.417,1.345,1.345,0,0,1-.448-1.024,1.3,1.3,0,0,1,.448-1.02,1.88,1.88,0,0,1,2.307,0,1.3,1.3,0,0,1,.444,1.02,1.34,1.34,0,0,1-.444,1.037A1.65,1.65,0,0,1,152.735,8.576ZM154.106,19h-2.777V10h2.777Zm5.15-1.046h-.035V23.14h-2.777V10h2.777v1.354h.035a3.534,3.534,0,0,1,5.594-.374,5.108,5.108,0,0,1,.954,3.265,5.537,5.537,0,0,1-1.112,3.612,3.625,3.625,0,0,1-2.958,1.362A2.8,2.8,0,0,1,159.257,17.954Zm-.079-3.691v.721a2.291,2.291,0,0,0,.492,1.521,1.6,1.6,0,0,0,1.292.589,1.7,1.7,0,0,0,1.472-.734,3.543,3.543,0,0,0,.523-2.079q0-2.373-1.846-2.373a1.733,1.733,0,0,0-1.393.646A2.576,2.576,0,0,0,159.178,14.263ZM171.9,19.22a4.838,4.838,0,0,1-3.538-1.261,4.573,4.573,0,0,1-1.288-3.423,4.573,4.573,0,0,1,1.336-3.494,5.048,5.048,0,0,1,3.612-1.261,4.78,4.78,0,0,1,3.516,1.261,4.483,4.483,0,0,1,1.274,3.335,4.759,4.759,0,0,1-1.314,3.542A4.892,4.892,0,0,1,171.9,19.22Zm.07-7.312a1.852,1.852,0,0,0-1.529.677,2.984,2.984,0,0,0-.545,1.916q0,2.593,2.092,2.593,2,0,2-2.663Q173.979,11.907,171.966,11.907Z" transform="translate(706 1954.896)" fill="#00316e"/>
    <path id="Trazado_600452" data-name="Trazado 600452" d="M13.6,6.4,9.26,19H6.043L1.754,6.4H4.813l2.628,8.771A6.282,6.282,0,0,1,7.7,16.425h.053a7.1,7.1,0,0,1,.272-1.292L10.631,6.4ZM20.976,19H18.348V17.708h-.035a2.933,2.933,0,0,1-2.681,1.512,2.8,2.8,0,0,1-2.061-.743A2.661,2.661,0,0,1,12.82,16.5q0-2.619,3.1-3.023l2.443-.325q0-1.477-1.6-1.477a5.46,5.46,0,0,0-3.059.958V10.536a6.881,6.881,0,0,1,1.586-.527,8.339,8.339,0,0,1,1.833-.229q3.85,0,3.85,3.841Zm-2.61-3.656v-.606l-1.635.211q-1.354.176-1.354,1.222a1.01,1.01,0,0,0,.33.778,1.266,1.266,0,0,0,.892.3,1.644,1.644,0,0,0,1.274-.541A1.952,1.952,0,0,0,18.366,15.344ZM25.951,19H23.173V5.676h2.777ZM29.695,8.576a1.622,1.622,0,0,1-1.151-.417A1.345,1.345,0,0,1,28.1,7.135a1.3,1.3,0,0,1,.448-1.02,1.88,1.88,0,0,1,2.307,0,1.3,1.3,0,0,1,.444,1.02,1.34,1.34,0,0,1-.444,1.037A1.65,1.65,0,0,1,29.695,8.576ZM31.066,19H28.289V10h2.777ZM42.21,19H39.433V17.761H39.4a3.114,3.114,0,0,1-2.786,1.459A3.412,3.412,0,0,1,33.9,18.029,4.93,4.93,0,0,1,32.868,14.7,5.366,5.366,0,0,1,34,11.125,3.7,3.7,0,0,1,36.972,9.78,2.527,2.527,0,0,1,39.4,11.028h.035V5.676H42.21Zm-2.725-4.377v-.677a2.13,2.13,0,0,0-.51-1.459,1.8,1.8,0,0,0-2.769.145,3.367,3.367,0,0,0-.519,1.991,2.914,2.914,0,0,0,.5,1.828,1.779,1.779,0,0,0,2.764-.035A2.821,2.821,0,0,0,39.486,14.623ZM52.037,19H49.409V17.708h-.035a2.933,2.933,0,0,1-2.681,1.512,2.8,2.8,0,0,1-2.061-.743A2.661,2.661,0,0,1,43.88,16.5q0-2.619,3.1-3.023l2.443-.325q0-1.477-1.6-1.477a5.46,5.46,0,0,0-3.059.958V10.536a6.881,6.881,0,0,1,1.586-.527,8.339,8.339,0,0,1,1.833-.229q3.85,0,3.85,3.841Zm-2.61-3.656v-.606l-1.635.211q-1.354.176-1.354,1.222a1.01,1.01,0,0,0,.33.778,1.266,1.266,0,0,0,.892.3,1.644,1.644,0,0,0,1.274-.541A1.952,1.952,0,0,0,49.426,15.344Zm11.628,3.331a5.492,5.492,0,0,1-2.716.545,4.593,4.593,0,0,1-3.357-1.257A4.341,4.341,0,0,1,53.7,14.72,4.782,4.782,0,0,1,55.073,11.1,5.083,5.083,0,0,1,58.751,9.78a4.72,4.72,0,0,1,2.3.422v2.355a3.166,3.166,0,0,0-1.942-.65,2.559,2.559,0,0,0-1.894.7,2.607,2.607,0,0,0-.7,1.929,2.565,2.565,0,0,0,.668,1.876,2.455,2.455,0,0,0,1.837.681,3.666,3.666,0,0,0,2.03-.65Zm3.226-10.1a1.622,1.622,0,0,1-1.151-.417,1.345,1.345,0,0,1-.448-1.024,1.3,1.3,0,0,1,.448-1.02,1.88,1.88,0,0,1,2.307,0,1.3,1.3,0,0,1,.444,1.02,1.34,1.34,0,0,1-.444,1.037A1.65,1.65,0,0,1,64.28,8.576ZM65.651,19H62.874V10h2.777Zm6.627.22a4.838,4.838,0,0,1-3.538-1.261,4.573,4.573,0,0,1-1.288-3.423,4.573,4.573,0,0,1,1.336-3.494A5.048,5.048,0,0,1,72.4,9.78a4.78,4.78,0,0,1,3.516,1.261,4.483,4.483,0,0,1,1.274,3.335,4.759,4.759,0,0,1-1.314,3.542A4.892,4.892,0,0,1,72.278,19.22Zm.07-7.312a1.852,1.852,0,0,0-1.529.677,2.984,2.984,0,0,0-.545,1.916q0,2.593,2.092,2.593,2,0,2-2.663Q74.361,11.907,72.348,11.907ZM87.685,19H84.917V14q0-2.092-1.494-2.092a1.483,1.483,0,0,0-1.187.554,2.109,2.109,0,0,0-.466,1.406V19H78.993V10H81.77v1.424h.035A3.183,3.183,0,0,1,84.7,9.78q2.988,0,2.988,3.709Zm10.283-3.709H92.1q.141,1.96,2.47,1.96a4.822,4.822,0,0,0,2.61-.7v2a6.858,6.858,0,0,1-3.243.668,4.565,4.565,0,0,1-3.384-1.208,4.566,4.566,0,0,1-1.2-3.371,4.816,4.816,0,0,1,1.3-3.551,4.334,4.334,0,0,1,3.2-1.31,3.933,3.933,0,0,1,3.045,1.169,4.5,4.5,0,0,1,1.077,3.173Zm-2.575-1.705q0-1.934-1.564-1.934a1.494,1.494,0,0,0-1.156.554,2.513,2.513,0,0,0-.593,1.38Zm3.639,5.177v-2.25a5.913,5.913,0,0,0,1.367.615,4.531,4.531,0,0,0,1.288.2,2.762,2.762,0,0,0,1.165-.2.653.653,0,0,0,.426-.615.569.569,0,0,0-.193-.439,1.8,1.8,0,0,0-.5-.308,5.635,5.635,0,0,0-.664-.237q-.36-.105-.694-.237a6.653,6.653,0,0,1-.945-.435,2.731,2.731,0,0,1-.686-.541,2.125,2.125,0,0,1-.422-.712,2.841,2.841,0,0,1-.145-.958,2.466,2.466,0,0,1,.33-1.3,2.692,2.692,0,0,1,.879-.892,4.016,4.016,0,0,1,1.257-.51,6.553,6.553,0,0,1,1.472-.163,8.168,8.168,0,0,1,1.213.092,9.053,9.053,0,0,1,1.213.268v2.145a4.383,4.383,0,0,0-1.129-.461,4.764,4.764,0,0,0-1.182-.154,2.619,2.619,0,0,0-.514.048,1.693,1.693,0,0,0-.426.141.783.783,0,0,0-.29.237.546.546,0,0,0-.105.33.609.609,0,0,0,.158.422,1.374,1.374,0,0,0,.413.3,4.078,4.078,0,0,0,.567.229q.312.1.62.207a8.056,8.056,0,0,1,1,.422,3.2,3.2,0,0,1,.769.536,2.105,2.105,0,0,1,.492.721,2.884,2.884,0,0,1-.176,2.351,2.78,2.78,0,0,1-.923.923,4.185,4.185,0,0,1-1.327.519,7.357,7.357,0,0,1-1.56.163A8.042,8.042,0,0,1,99.032,18.763Zm16.286-.809h-.035V23.14h-2.777V10h2.777v1.354h.035a3.534,3.534,0,0,1,5.594-.374,5.108,5.108,0,0,1,.954,3.265,5.537,5.537,0,0,1-1.112,3.612A3.625,3.625,0,0,1,117.8,19.22,2.8,2.8,0,0,1,115.318,17.954Zm-.079-3.691v.721a2.291,2.291,0,0,0,.492,1.521,1.6,1.6,0,0,0,1.292.589,1.7,1.7,0,0,0,1.472-.734,3.543,3.543,0,0,0,.523-2.079q0-2.373-1.846-2.373a1.733,1.733,0,0,0-1.393.646A2.576,2.576,0,0,0,115.239,14.263Zm16.515,1.028h-5.871q.141,1.96,2.47,1.96a4.822,4.822,0,0,0,2.61-.7v2a6.858,6.858,0,0,1-3.243.668,4.565,4.565,0,0,1-3.384-1.208,4.566,4.566,0,0,1-1.2-3.371,4.816,4.816,0,0,1,1.3-3.551,4.334,4.334,0,0,1,3.2-1.31,3.933,3.933,0,0,1,3.045,1.169,4.5,4.5,0,0,1,1.077,3.173Zm-2.575-1.705q0-1.934-1.564-1.934a1.494,1.494,0,0,0-1.156.554,2.513,2.513,0,0,0-.593,1.38Zm13.034,9.554h-2.777V17.761H139.4a3.085,3.085,0,0,1-2.769,1.459,3.446,3.446,0,0,1-2.729-1.182,4.881,4.881,0,0,1-1.033-3.318A5.394,5.394,0,0,1,134,11.125a3.679,3.679,0,0,1,2.953-1.345,2.678,2.678,0,0,1,2.443,1.266h.035V10h2.777ZM139.488,14.7v-.721a2.2,2.2,0,0,0-.51-1.477,1.643,1.643,0,0,0-1.31-.6,1.7,1.7,0,0,0-1.45.725,3.359,3.359,0,0,0-.527,2.008,2.835,2.835,0,0,0,.514,1.8,1.629,1.629,0,0,0,1.34.65,1.722,1.722,0,0,0,1.411-.659A2.673,2.673,0,0,0,139.488,14.7ZM153.1,19h-2.769V17.629h-.044a3.141,3.141,0,0,1-2.751,1.591q-3.129,0-3.129-3.788V10h2.769v5.186q0,1.907,1.512,1.907a1.5,1.5,0,0,0,1.2-.523,2.109,2.109,0,0,0,.448-1.419V10H153.1Zm10.424-3.709h-5.871q.141,1.96,2.47,1.96a4.822,4.822,0,0,0,2.61-.7v2a6.858,6.858,0,0,1-3.243.668,4.565,4.565,0,0,1-3.384-1.208,4.566,4.566,0,0,1-1.2-3.371,4.816,4.816,0,0,1,1.3-3.551,4.334,4.334,0,0,1,3.2-1.31,3.933,3.933,0,0,1,3.045,1.169,4.5,4.5,0,0,1,1.077,3.173Zm-2.575-1.705q0-1.934-1.564-1.934a1.494,1.494,0,0,0-1.156.554,2.513,2.513,0,0,0-.593,1.38ZM173.871,19H171.1V14q0-2.092-1.494-2.092a1.483,1.483,0,0,0-1.187.554,2.109,2.109,0,0,0-.466,1.406V19h-2.777V10h2.777v1.424h.035a3.183,3.183,0,0,1,2.892-1.644q2.988,0,2.988,3.709ZM172.64,5.843a3.2,3.2,0,0,1-.488,1.9,1.558,1.558,0,0,1-1.332.672,3.144,3.144,0,0,1-1.477-.378,2.959,2.959,0,0,0-1.081-.413q-.7,0-.7.949h-1.239a3.225,3.225,0,0,1,.483-1.9A1.568,1.568,0,0,1,168.158,6a3.008,3.008,0,0,1,1.477.431,2.476,2.476,0,0,0,1.055.387q.686,0,.686-.976ZM183.556,19h-2.628V17.708h-.035a2.933,2.933,0,0,1-2.681,1.512,2.8,2.8,0,0,1-2.061-.743A2.661,2.661,0,0,1,175.4,16.5q0-2.619,3.1-3.023l2.443-.325q0-1.477-1.6-1.477a5.46,5.46,0,0,0-3.059.958V10.536a6.881,6.881,0,0,1,1.586-.527,8.339,8.339,0,0,1,1.833-.229q3.85,0,3.85,3.841Zm-2.61-3.656v-.606l-1.635.211q-1.354.176-1.354,1.222a1.01,1.01,0,0,0,.33.778,1.266,1.266,0,0,0,.892.3,1.644,1.644,0,0,0,1.274-.541A1.952,1.952,0,0,0,180.946,15.344Zm17.859-.053h-5.871q.141,1.96,2.47,1.96a4.822,4.822,0,0,0,2.61-.7v2a6.858,6.858,0,0,1-3.243.668,4.565,4.565,0,0,1-3.384-1.208,4.566,4.566,0,0,1-1.2-3.371,4.816,4.816,0,0,1,1.3-3.551,4.334,4.334,0,0,1,3.2-1.31,3.933,3.933,0,0,1,3.045,1.169,4.5,4.5,0,0,1,1.077,3.173Zm-2.575-1.705q0-1.934-1.564-1.934a1.494,1.494,0,0,0-1.156.554,2.513,2.513,0,0,0-.593,1.38Zm3.639,5.177v-2.25a5.913,5.913,0,0,0,1.367.615,4.531,4.531,0,0,0,1.288.2,2.762,2.762,0,0,0,1.165-.2.653.653,0,0,0,.426-.615.569.569,0,0,0-.193-.439,1.8,1.8,0,0,0-.5-.308,5.635,5.635,0,0,0-.664-.237q-.36-.105-.694-.237a6.653,6.653,0,0,1-.945-.435,2.731,2.731,0,0,1-.686-.541,2.125,2.125,0,0,1-.422-.712,2.841,2.841,0,0,1-.145-.958,2.466,2.466,0,0,1,.33-1.3,2.692,2.692,0,0,1,.879-.892,4.016,4.016,0,0,1,1.257-.51,6.553,6.553,0,0,1,1.472-.163,8.168,8.168,0,0,1,1.213.092,9.053,9.053,0,0,1,1.213.268v2.145a4.383,4.383,0,0,0-1.129-.461,4.764,4.764,0,0,0-1.182-.154,2.619,2.619,0,0,0-.514.048,1.693,1.693,0,0,0-.426.141.783.783,0,0,0-.29.237.546.546,0,0,0-.105.33.609.609,0,0,0,.158.422,1.374,1.374,0,0,0,.413.3,4.078,4.078,0,0,0,.567.229q.312.1.62.207a8.056,8.056,0,0,1,1,.422,3.2,3.2,0,0,1,.769.536,2.105,2.105,0,0,1,.492.721,2.884,2.884,0,0,1-.176,2.351,2.78,2.78,0,0,1-.923.923,4.185,4.185,0,0,1-1.327.519,7.357,7.357,0,0,1-1.56.163A8.042,8.042,0,0,1,199.869,18.763Zm15.328-.088a5.492,5.492,0,0,1-2.716.545,4.593,4.593,0,0,1-3.357-1.257,4.341,4.341,0,0,1-1.283-3.243,4.782,4.782,0,0,1,1.375-3.617,5.083,5.083,0,0,1,3.678-1.323,4.72,4.72,0,0,1,2.3.422v2.355a3.166,3.166,0,0,0-1.942-.65,2.559,2.559,0,0,0-1.894.7,2.607,2.607,0,0,0-.7,1.929,2.565,2.565,0,0,0,.668,1.876,2.455,2.455,0,0,0,1.837.681,3.666,3.666,0,0,0,2.03-.65ZM224.5,19h-2.628V17.708h-.035a2.933,2.933,0,0,1-2.681,1.512,2.8,2.8,0,0,1-2.061-.743,2.661,2.661,0,0,1-.751-1.982q0-2.619,3.1-3.023l2.443-.325q0-1.477-1.6-1.477a5.46,5.46,0,0,0-3.059.958V10.536a6.881,6.881,0,0,1,1.586-.527,8.339,8.339,0,0,1,1.833-.229q3.85,0,3.85,3.841Zm-2.61-3.656v-.606l-1.635.211q-1.354.176-1.354,1.222a1.01,1.01,0,0,0,.33.778,1.266,1.266,0,0,0,.892.3,1.644,1.644,0,0,0,1.274-.541A1.952,1.952,0,0,0,221.894,15.344ZM229.479,19H226.7V5.676h2.777Zm9.826,0h-2.628V17.708h-.035a2.933,2.933,0,0,1-2.681,1.512,2.8,2.8,0,0,1-2.061-.743,2.661,2.661,0,0,1-.751-1.982q0-2.619,3.1-3.023l2.443-.325q0-1.477-1.6-1.477a5.46,5.46,0,0,0-3.059.958V10.536a6.881,6.881,0,0,1,1.586-.527,8.339,8.339,0,0,1,1.833-.229q3.85,0,3.85,3.841Zm-2.61-3.656v-.606l-1.635.211q-1.354.176-1.354,1.222a1.01,1.01,0,0,0,.33.778,1.266,1.266,0,0,0,.892.3,1.644,1.644,0,0,0,1.274-.541A1.952,1.952,0,0,0,236.695,15.344Z" transform="translate(952 2069)" fill="#00316e"/>
    <path id="Trazado_600453" data-name="Trazado 600453" d="M9.377,19.22a5.867,5.867,0,0,1-4.412-1.762A6.327,6.327,0,0,1,3.26,12.865,6.779,6.779,0,0,1,4.992,8.031,6,6,0,0,1,9.58,6.186a5.721,5.721,0,0,1,4.364,1.767,6.513,6.513,0,0,1,1.666,4.658,6.671,6.671,0,0,1-1.727,4.79A5.928,5.928,0,0,1,9.377,19.22ZM9.5,8.629A2.858,2.858,0,0,0,7.127,9.75a4.672,4.672,0,0,0-.879,2.966,4.586,4.586,0,0,0,.879,2.962,2.816,2.816,0,0,0,2.3,1.09,2.844,2.844,0,0,0,2.329-1.059,4.536,4.536,0,0,0,.861-2.94,4.915,4.915,0,0,0-.835-3.05A2.722,2.722,0,0,0,9.5,8.629Zm10.74,9.325h-.035V23.14H17.428V10h2.777v1.354h.035A3.265,3.265,0,0,1,23.132,9.78a3.253,3.253,0,0,1,2.7,1.2,5.108,5.108,0,0,1,.954,3.265,5.537,5.537,0,0,1-1.112,3.612,3.625,3.625,0,0,1-2.958,1.362A2.8,2.8,0,0,1,20.241,17.954Zm-.079-3.691v.721a2.291,2.291,0,0,0,.492,1.521,1.6,1.6,0,0,0,1.292.589,1.7,1.7,0,0,0,1.472-.734,3.543,3.543,0,0,0,.523-2.079q0-2.373-1.846-2.373a1.733,1.733,0,0,0-1.393.646A2.576,2.576,0,0,0,20.162,14.263Zm13.869,4.632a4.105,4.105,0,0,1-1.854.325q-2.936,0-2.936-3.05V12.048H27.782V10h1.459V8.058l2.769-.791V10h2.021v2.048H32.009v3.639q0,1.406,1.116,1.406a1.882,1.882,0,0,0,.905-.255ZM37,8.576a1.622,1.622,0,0,1-1.151-.417A1.345,1.345,0,0,1,35.4,7.135a1.3,1.3,0,0,1,.448-1.02,1.88,1.88,0,0,1,2.307,0,1.3,1.3,0,0,1,.444,1.02,1.34,1.34,0,0,1-.444,1.037A1.65,1.65,0,0,1,37,8.576ZM38.373,19H35.6V10h2.777ZM55,19H52.233V13.867q0-1.96-1.441-1.96a1.324,1.324,0,0,0-1.116.589,2.42,2.42,0,0,0-.431,1.468V19H46.467V13.814q0-1.907-1.415-1.907a1.356,1.356,0,0,0-1.138.563A2.475,2.475,0,0,0,43.488,14v5H40.71V10h2.777v1.406h.035A3.41,3.41,0,0,1,46.432,9.78a2.592,2.592,0,0,1,2.61,1.679A3.329,3.329,0,0,1,52.066,9.78Q55,9.78,55,13.4ZM58.6,8.576a1.622,1.622,0,0,1-1.151-.417,1.345,1.345,0,0,1-.448-1.024,1.3,1.3,0,0,1,.448-1.02,1.88,1.88,0,0,1,2.307,0,1.3,1.3,0,0,1,.444,1.02,1.34,1.34,0,0,1-.444,1.037A1.65,1.65,0,0,1,58.6,8.576ZM59.976,19H57.2V10h2.777Zm9.466,0H61.365V17.849l4.518-5.8H61.813V10h7.594v1.371l-4.28,5.581h4.315Zm8.982,0H75.8V17.708h-.035a2.933,2.933,0,0,1-2.681,1.512,2.8,2.8,0,0,1-2.061-.743,2.661,2.661,0,0,1-.751-1.982q0-2.619,3.1-3.023l2.443-.325q0-1.477-1.6-1.477a5.46,5.46,0,0,0-3.059.958V10.536a6.881,6.881,0,0,1,1.586-.527,8.339,8.339,0,0,1,1.833-.229q3.85,0,3.85,3.841Zm-2.61-3.656v-.606l-1.635.211q-1.354.176-1.354,1.222a1.01,1.01,0,0,0,.33.778,1.266,1.266,0,0,0,.892.3,1.644,1.644,0,0,0,1.274-.541A1.952,1.952,0,0,0,75.814,15.344Zm11.628,3.331a5.492,5.492,0,0,1-2.716.545,4.593,4.593,0,0,1-3.357-1.257,4.341,4.341,0,0,1-1.283-3.243A4.782,4.782,0,0,1,81.461,11.1,5.083,5.083,0,0,1,85.139,9.78a4.72,4.72,0,0,1,2.3.422v2.355a3.166,3.166,0,0,0-1.942-.65,2.559,2.559,0,0,0-1.894.7,2.607,2.607,0,0,0-.7,1.929,2.565,2.565,0,0,0,.668,1.876,2.455,2.455,0,0,0,1.837.681,3.666,3.666,0,0,0,2.03-.65Zm3.226-10.1a1.622,1.622,0,0,1-1.151-.417,1.345,1.345,0,0,1-.448-1.024,1.3,1.3,0,0,1,.448-1.02,1.88,1.88,0,0,1,2.307,0,1.3,1.3,0,0,1,.444,1.02,1.34,1.34,0,0,1-.444,1.037A1.65,1.65,0,0,1,90.667,8.576ZM92.039,19H89.261V10h2.777Zm6.627.22a4.838,4.838,0,0,1-3.538-1.261,4.573,4.573,0,0,1-1.288-3.423,4.573,4.573,0,0,1,1.336-3.494A5.048,5.048,0,0,1,98.789,9.78a4.78,4.78,0,0,1,3.516,1.261,4.483,4.483,0,0,1,1.274,3.335,4.759,4.759,0,0,1-1.314,3.542A4.892,4.892,0,0,1,98.666,19.22Zm.07-7.312a1.852,1.852,0,0,0-1.529.677,2.984,2.984,0,0,0-.545,1.916q0,2.593,2.092,2.593,2,0,2-2.663Q100.749,11.907,98.736,11.907Zm2.979-6.17L98.964,8.576h-2l2.285-2.839ZM114.064,19H111.3V14q0-2.092-1.494-2.092a1.483,1.483,0,0,0-1.187.554,2.109,2.109,0,0,0-.466,1.406V19h-2.777V10h2.777v1.424h.035a3.183,3.183,0,0,1,2.892-1.644q2.988,0,2.988,3.709Zm15.97,0h-2.777V17.761h-.035a3.114,3.114,0,0,1-2.786,1.459,3.412,3.412,0,0,1-2.716-1.191,4.93,4.93,0,0,1-1.028-3.327,5.366,5.366,0,0,1,1.134-3.577A3.7,3.7,0,0,1,124.8,9.78a2.527,2.527,0,0,1,2.426,1.248h.035V5.676h2.777Zm-2.725-4.377v-.677a2.13,2.13,0,0,0-.51-1.459,1.8,1.8,0,0,0-2.769.145,3.367,3.367,0,0,0-.519,1.991,2.914,2.914,0,0,0,.5,1.828,1.779,1.779,0,0,0,2.764-.035A2.821,2.821,0,0,0,127.309,14.623Zm13.148.668h-5.871q.141,1.96,2.47,1.96a4.822,4.822,0,0,0,2.61-.7v2a6.858,6.858,0,0,1-3.243.668,4.565,4.565,0,0,1-3.384-1.208,4.566,4.566,0,0,1-1.2-3.371,4.816,4.816,0,0,1,1.3-3.551,4.334,4.334,0,0,1,3.2-1.31,3.933,3.933,0,0,1,3.045,1.169,4.5,4.5,0,0,1,1.077,3.173Zm-2.575-1.705q0-1.934-1.564-1.934a1.494,1.494,0,0,0-1.156.554,2.513,2.513,0,0,0-.593,1.38Zm12.006,4.368h-.035V23.14h-2.777V10h2.777v1.354h.035a3.534,3.534,0,0,1,5.594-.374,5.108,5.108,0,0,1,.954,3.265,5.537,5.537,0,0,1-1.112,3.612,3.625,3.625,0,0,1-2.958,1.362A2.8,2.8,0,0,1,149.888,17.954Zm-.079-3.691v.721A2.291,2.291,0,0,0,150.3,16.5a1.6,1.6,0,0,0,1.292.589,1.7,1.7,0,0,0,1.472-.734,3.543,3.543,0,0,0,.523-2.079q0-2.373-1.846-2.373a1.733,1.733,0,0,0-1.393.646A2.576,2.576,0,0,0,149.809,14.263Zm14.3-1.758a2.409,2.409,0,0,0-1.169-.272,1.684,1.684,0,0,0-1.415.664,2.9,2.9,0,0,0-.51,1.806V19h-2.777V10h2.777v1.67h.035a2.4,2.4,0,0,1,2.373-1.828,1.788,1.788,0,0,1,.686.105Zm5.511,6.715a4.838,4.838,0,0,1-3.538-1.261,4.573,4.573,0,0,1-1.288-3.423,4.573,4.573,0,0,1,1.336-3.494,5.048,5.048,0,0,1,3.612-1.261,4.78,4.78,0,0,1,3.516,1.261,4.483,4.483,0,0,1,1.274,3.335,4.759,4.759,0,0,1-1.314,3.542A4.892,4.892,0,0,1,169.62,19.22Zm.07-7.312a1.852,1.852,0,0,0-1.529.677,2.984,2.984,0,0,0-.545,1.916q0,2.593,2.092,2.593,2,0,2-2.663Q171.7,11.907,169.69,11.907Zm12.085,6.987a4.105,4.105,0,0,1-1.854.325q-2.936,0-2.936-3.05V12.048h-1.459V10h1.459V8.058l2.769-.791V10h2.021v2.048h-2.021v3.639q0,1.406,1.116,1.406a1.882,1.882,0,0,0,.905-.255Zm5.783.325a4.838,4.838,0,0,1-3.538-1.261,4.573,4.573,0,0,1-1.288-3.423,4.573,4.573,0,0,1,1.336-3.494,5.048,5.048,0,0,1,3.612-1.261,4.78,4.78,0,0,1,3.516,1.261,4.483,4.483,0,0,1,1.274,3.335,4.759,4.759,0,0,1-1.314,3.542A4.892,4.892,0,0,1,187.558,19.22Zm.07-7.312a1.852,1.852,0,0,0-1.529.677,2.984,2.984,0,0,0-.545,1.916q0,2.593,2.092,2.593,2,0,2-2.663Q189.641,11.907,187.628,11.907Zm12.085,6.987a4.105,4.105,0,0,1-1.854.325q-2.936,0-2.936-3.05V12.048h-1.459V10h1.459V8.058l2.769-.791V10h2.021v2.048h-2.021v3.639q0,1.406,1.116,1.406a1.882,1.882,0,0,0,.905-.255Zm2.971-10.318a1.622,1.622,0,0,1-1.151-.417,1.345,1.345,0,0,1-.448-1.024,1.3,1.3,0,0,1,.448-1.02,1.88,1.88,0,0,1,2.307,0,1.3,1.3,0,0,1,.444,1.02,1.34,1.34,0,0,1-.444,1.037A1.65,1.65,0,0,1,202.684,8.576ZM204.055,19h-2.777V10h2.777Zm5.15-1.046h-.035V23.14h-2.777V10h2.777v1.354h.035a3.534,3.534,0,0,1,5.594-.374,5.108,5.108,0,0,1,.954,3.265,5.537,5.537,0,0,1-1.112,3.612,3.625,3.625,0,0,1-2.958,1.362A2.8,2.8,0,0,1,209.206,17.954Zm-.079-3.691v.721a2.291,2.291,0,0,0,.492,1.521,1.6,1.6,0,0,0,1.292.589,1.7,1.7,0,0,0,1.472-.734,3.543,3.543,0,0,0,.523-2.079q0-2.373-1.846-2.373a1.733,1.733,0,0,0-1.393.646A2.576,2.576,0,0,0,209.126,14.263Zm12.718,4.957a4.838,4.838,0,0,1-3.538-1.261,4.573,4.573,0,0,1-1.288-3.423,4.573,4.573,0,0,1,1.336-3.494,5.048,5.048,0,0,1,3.612-1.261,4.78,4.78,0,0,1,3.516,1.261,4.483,4.483,0,0,1,1.274,3.335,4.759,4.759,0,0,1-1.314,3.542A4.892,4.892,0,0,1,221.844,19.22Zm.07-7.312a1.852,1.852,0,0,0-1.529.677,2.984,2.984,0,0,0-.545,1.916q0,2.593,2.092,2.593,2,0,2-2.663Q223.927,11.907,221.915,11.907Z" transform="translate(413 2069)" fill="#00316e"/>
    <path id="Trazado_600454" data-name="Trazado 600454" d="M5.005,19H2.167V6.4H5.005Zm11.285,0H13.522V14q0-2.092-1.494-2.092a1.483,1.483,0,0,0-1.187.554,2.109,2.109,0,0,0-.466,1.406V19H7.6V10h2.777v1.424h.035A3.183,3.183,0,0,1,13.3,9.78q2.988,0,2.988,3.709Zm7.638-.105a4.105,4.105,0,0,1-1.854.325q-2.936,0-2.936-3.05V12.048H17.679V10h1.459V8.058l2.769-.791V10h2.021v2.048H21.907v3.639q0,1.406,1.116,1.406a1.882,1.882,0,0,0,.905-.255Zm9.58-3.6H27.637q.141,1.96,2.47,1.96a4.822,4.822,0,0,0,2.61-.7v2a6.858,6.858,0,0,1-3.243.668,4.565,4.565,0,0,1-3.384-1.208,4.566,4.566,0,0,1-1.2-3.371,4.816,4.816,0,0,1,1.3-3.551,4.334,4.334,0,0,1,3.2-1.31,3.933,3.933,0,0,1,3.045,1.169,4.5,4.5,0,0,1,1.077,3.173Zm-2.575-1.705q0-1.934-1.564-1.934a1.494,1.494,0,0,0-1.156.554,2.513,2.513,0,0,0-.593,1.38Zm10.1-1.081a2.409,2.409,0,0,0-1.169-.272,1.684,1.684,0,0,0-1.415.664,2.9,2.9,0,0,0-.51,1.806V19H35.161V10h2.777v1.67h.035a2.4,2.4,0,0,1,2.373-1.828,1.788,1.788,0,0,1,.686.105Zm8.78,6.5H47.184V17.708h-.035a2.933,2.933,0,0,1-2.681,1.512,2.8,2.8,0,0,1-2.061-.743,2.661,2.661,0,0,1-.751-1.982q0-2.619,3.1-3.023l2.443-.325q0-1.477-1.6-1.477a5.46,5.46,0,0,0-3.059.958V10.536a6.881,6.881,0,0,1,1.586-.527,8.339,8.339,0,0,1,1.833-.229q3.85,0,3.85,3.841ZM47.2,15.344v-.606l-1.635.211q-1.354.176-1.354,1.222a1.01,1.01,0,0,0,.33.778,1.266,1.266,0,0,0,.892.3,1.644,1.644,0,0,0,1.274-.541A1.952,1.952,0,0,0,47.2,15.344ZM58.83,18.675a5.492,5.492,0,0,1-2.716.545,4.593,4.593,0,0,1-3.357-1.257,4.341,4.341,0,0,1-1.283-3.243A4.782,4.782,0,0,1,52.849,11.1,5.083,5.083,0,0,1,56.527,9.78a4.72,4.72,0,0,1,2.3.422v2.355a3.166,3.166,0,0,0-1.942-.65,2.559,2.559,0,0,0-1.894.7,2.607,2.607,0,0,0-.7,1.929,2.565,2.565,0,0,0,.668,1.876,2.455,2.455,0,0,0,1.837.681,3.666,3.666,0,0,0,2.03-.65Zm8.64,0a5.492,5.492,0,0,1-2.716.545A4.593,4.593,0,0,1,61.4,17.963a4.341,4.341,0,0,1-1.283-3.243A4.782,4.782,0,0,1,61.488,11.1,5.083,5.083,0,0,1,65.167,9.78a4.72,4.72,0,0,1,2.3.422v2.355a3.166,3.166,0,0,0-1.942-.65,2.559,2.559,0,0,0-1.894.7,2.607,2.607,0,0,0-.7,1.929,2.565,2.565,0,0,0,.668,1.876,2.455,2.455,0,0,0,1.837.681,3.666,3.666,0,0,0,2.03-.65Zm3.226-10.1a1.622,1.622,0,0,1-1.151-.417A1.345,1.345,0,0,1,69.1,7.135a1.3,1.3,0,0,1,.448-1.02,1.88,1.88,0,0,1,2.307,0,1.3,1.3,0,0,1,.444,1.02,1.34,1.34,0,0,1-.444,1.037A1.65,1.65,0,0,1,70.695,8.576ZM72.066,19H69.289V10h2.777Zm6.627.22a4.838,4.838,0,0,1-3.538-1.261,4.573,4.573,0,0,1-1.288-3.423A4.573,4.573,0,0,1,75.2,11.042,5.048,5.048,0,0,1,78.816,9.78a4.78,4.78,0,0,1,3.516,1.261,4.483,4.483,0,0,1,1.274,3.335,4.759,4.759,0,0,1-1.314,3.542A4.892,4.892,0,0,1,78.693,19.22Zm.07-7.312a1.852,1.852,0,0,0-1.529.677,2.984,2.984,0,0,0-.545,1.916q0,2.593,2.092,2.593,2,0,2-2.663Q80.776,11.907,78.763,11.907Zm2.979-6.17L78.992,8.576h-2l2.285-2.839ZM94.091,19H91.323V14q0-2.092-1.494-2.092a1.483,1.483,0,0,0-1.187.554,2.109,2.109,0,0,0-.466,1.406V19H85.4V10h2.777v1.424h.035A3.183,3.183,0,0,1,91.1,9.78q2.988,0,2.988,3.709Zm13.983-.325a5.492,5.492,0,0,1-2.716.545A4.593,4.593,0,0,1,102,17.963a4.341,4.341,0,0,1-1.283-3.243,4.782,4.782,0,0,1,1.375-3.617,5.083,5.083,0,0,1,3.678-1.323,4.72,4.72,0,0,1,2.3.422v2.355a3.166,3.166,0,0,0-1.942-.65,2.559,2.559,0,0,0-1.894.7,2.607,2.607,0,0,0-.7,1.929,2.565,2.565,0,0,0,.668,1.876,2.455,2.455,0,0,0,1.837.681,3.666,3.666,0,0,0,2.03-.65Zm6.108.545a4.838,4.838,0,0,1-3.538-1.261,4.573,4.573,0,0,1-1.288-3.423,4.573,4.573,0,0,1,1.336-3.494,5.048,5.048,0,0,1,3.612-1.261,4.78,4.78,0,0,1,3.516,1.261,4.483,4.483,0,0,1,1.274,3.335,4.759,4.759,0,0,1-1.314,3.542A4.892,4.892,0,0,1,114.183,19.22Zm.07-7.312a1.852,1.852,0,0,0-1.529.677,2.984,2.984,0,0,0-.545,1.916q0,2.593,2.092,2.593,2,0,2-2.663Q116.266,11.907,114.253,11.907ZM129.59,19h-2.769V14q0-2.092-1.494-2.092a1.483,1.483,0,0,0-1.187.554,2.109,2.109,0,0,0-.466,1.406V19H120.9V10h2.777v1.424h.035A3.183,3.183,0,0,1,126.6,9.78q2.988,0,2.988,3.709Zm15.249-3.709h-5.871q.141,1.96,2.47,1.96a4.822,4.822,0,0,0,2.61-.7v2a6.858,6.858,0,0,1-3.243.668,4.565,4.565,0,0,1-3.384-1.208,4.566,4.566,0,0,1-1.2-3.371,4.816,4.816,0,0,1,1.3-3.551,4.334,4.334,0,0,1,3.2-1.31,3.933,3.933,0,0,1,3.045,1.169,4.5,4.5,0,0,1,1.077,3.173Zm-2.575-1.705q0-1.934-1.564-1.934a1.494,1.494,0,0,0-1.156.554,2.513,2.513,0,0,0-.593,1.38Zm7,5.414h-2.777V5.676h2.777Zm10.116-1.046h-.035V23.14h-2.777V10h2.777v1.354h.035a3.534,3.534,0,0,1,5.594-.374,5.108,5.108,0,0,1,.954,3.265,5.537,5.537,0,0,1-1.112,3.612,3.625,3.625,0,0,1-2.958,1.362A2.8,2.8,0,0,1,159.385,17.954Zm-.079-3.691v.721A2.291,2.291,0,0,0,159.8,16.5a1.6,1.6,0,0,0,1.292.589,1.7,1.7,0,0,0,1.472-.734,3.543,3.543,0,0,0,.523-2.079q0-2.373-1.846-2.373a1.733,1.733,0,0,0-1.393.646A2.576,2.576,0,0,0,159.306,14.263Zm14.3-1.758a2.409,2.409,0,0,0-1.169-.272,1.684,1.684,0,0,0-1.415.664,2.9,2.9,0,0,0-.51,1.806V19h-2.777V10h2.777v1.67h.035a2.4,2.4,0,0,1,2.373-1.828,1.788,1.788,0,0,1,.686.105Zm5.511,6.715a4.838,4.838,0,0,1-3.538-1.261,4.573,4.573,0,0,1-1.288-3.423,4.573,4.573,0,0,1,1.336-3.494A5.048,5.048,0,0,1,179.24,9.78a4.78,4.78,0,0,1,3.516,1.261,4.483,4.483,0,0,1,1.274,3.335,4.759,4.759,0,0,1-1.314,3.542A4.892,4.892,0,0,1,179.117,19.22Zm.07-7.312a1.852,1.852,0,0,0-1.529.677,2.984,2.984,0,0,0-.545,1.916q0,2.593,2.092,2.593,2,0,2-2.663Q181.2,11.907,179.187,11.907ZM194.638,19h-2.777V17.761h-.035a3.114,3.114,0,0,1-2.786,1.459,3.412,3.412,0,0,1-2.716-1.191A4.93,4.93,0,0,1,185.3,14.7a5.366,5.366,0,0,1,1.134-3.577A3.7,3.7,0,0,1,189.4,9.78a2.527,2.527,0,0,1,2.426,1.248h.035V5.676h2.777Zm-2.725-4.377v-.677a2.13,2.13,0,0,0-.51-1.459,1.8,1.8,0,0,0-2.769.145,3.367,3.367,0,0,0-.519,1.991,2.914,2.914,0,0,0,.5,1.828,1.779,1.779,0,0,0,2.764-.035A2.821,2.821,0,0,0,191.914,14.623ZM205.528,19h-2.769V17.629h-.044a3.141,3.141,0,0,1-2.751,1.591q-3.129,0-3.129-3.788V10H199.6v5.186q0,1.907,1.512,1.907a1.5,1.5,0,0,0,1.2-.523,2.109,2.109,0,0,0,.448-1.419V10h2.769Zm9.158-.325a5.492,5.492,0,0,1-2.716.545,4.593,4.593,0,0,1-3.357-1.257,4.341,4.341,0,0,1-1.283-3.243,4.782,4.782,0,0,1,1.375-3.617,5.083,5.083,0,0,1,3.678-1.323,4.72,4.72,0,0,1,2.3.422v2.355a3.166,3.166,0,0,0-1.942-.65,2.559,2.559,0,0,0-1.894.7,2.607,2.607,0,0,0-.7,1.929,2.565,2.565,0,0,0,.668,1.876,2.455,2.455,0,0,0,1.837.681,3.666,3.666,0,0,0,2.03-.65Zm7.26.22a4.105,4.105,0,0,1-1.854.325q-2.936,0-2.936-3.05V12.048H215.7V10h1.459V8.058l2.769-.791V10h2.021v2.048h-2.021v3.639q0,1.406,1.116,1.406a1.882,1.882,0,0,0,.905-.255Zm5.783.325a4.838,4.838,0,0,1-3.538-1.261,4.573,4.573,0,0,1-1.288-3.423,4.573,4.573,0,0,1,1.336-3.494,5.048,5.048,0,0,1,3.612-1.261,4.78,4.78,0,0,1,3.516,1.261,4.483,4.483,0,0,1,1.274,3.335,4.759,4.759,0,0,1-1.314,3.542A4.892,4.892,0,0,1,227.729,19.22Zm.07-7.312a1.852,1.852,0,0,0-1.529.677,2.984,2.984,0,0,0-.545,1.916q0,2.593,2.092,2.593,2,0,2-2.663Q229.812,11.907,227.8,11.907Z" transform="translate(893 2209.896)" fill="#00316e"/>
    <path id="Trazado_600455" data-name="Trazado 600455" d="M16.017,19H12.756L10.8,15.757q-.22-.369-.422-.659a3.662,3.662,0,0,0-.409-.5,1.625,1.625,0,0,0-.431-.316,1.093,1.093,0,0,0-.488-.11H8.283V19H5.444V6.4h4.5q4.588,0,4.588,3.428a3.55,3.55,0,0,1-.2,1.217,3.382,3.382,0,0,1-.571,1.006,3.621,3.621,0,0,1-.892.773,4.6,4.6,0,0,1-1.165.51v.035a1.806,1.806,0,0,1,.545.286,3.9,3.9,0,0,1,.51.461,6.438,6.438,0,0,1,.47.567q.224.3.409.593ZM8.283,8.523V12.03h1.23a2.04,2.04,0,0,0,1.468-.527,1.76,1.76,0,0,0,.563-1.327q0-1.652-1.978-1.652ZM24.56,15.291H18.689q.141,1.96,2.47,1.96a4.822,4.822,0,0,0,2.61-.7v2a6.858,6.858,0,0,1-3.243.668,4.565,4.565,0,0,1-3.384-1.208,4.566,4.566,0,0,1-1.2-3.371,4.816,4.816,0,0,1,1.3-3.551,4.334,4.334,0,0,1,3.2-1.31,3.933,3.933,0,0,1,3.045,1.169,4.5,4.5,0,0,1,1.077,3.173Zm-2.575-1.705q0-1.934-1.564-1.934a1.494,1.494,0,0,0-1.156.554,2.513,2.513,0,0,0-.593,1.38Zm9.668,5.309a4.105,4.105,0,0,1-1.854.325q-2.936,0-2.936-3.05V12.048H25.4V10h1.459V8.058l2.769-.791V10h2.021v2.048H29.631v3.639q0,1.406,1.116,1.406a1.882,1.882,0,0,0,.905-.255Zm7.436-6.39a2.409,2.409,0,0,0-1.169-.272A1.684,1.684,0,0,0,36.5,12.9a2.9,2.9,0,0,0-.51,1.806V19H33.217V10h2.777v1.67h.035A2.4,2.4,0,0,1,38.4,9.842a1.788,1.788,0,0,1,.686.105ZM44.6,19.22a4.838,4.838,0,0,1-3.538-1.261,4.573,4.573,0,0,1-1.288-3.423,4.573,4.573,0,0,1,1.336-3.494A5.048,5.048,0,0,1,44.722,9.78a4.78,4.78,0,0,1,3.516,1.261,4.483,4.483,0,0,1,1.274,3.335A4.759,4.759,0,0,1,48.2,17.919,4.892,4.892,0,0,1,44.6,19.22Zm.07-7.312a1.852,1.852,0,0,0-1.529.677A2.984,2.984,0,0,0,42.6,14.5q0,2.593,2.092,2.593,2,0,2-2.663Q46.682,11.907,44.669,11.907ZM58.626,19H56V17.708h-.035a2.933,2.933,0,0,1-2.681,1.512,2.8,2.8,0,0,1-2.061-.743A2.661,2.661,0,0,1,50.47,16.5q0-2.619,3.1-3.023l2.443-.325q0-1.477-1.6-1.477a5.46,5.46,0,0,0-3.059.958V10.536a6.881,6.881,0,0,1,1.586-.527,8.339,8.339,0,0,1,1.833-.229q3.85,0,3.85,3.841Zm-2.61-3.656v-.606l-1.635.211q-1.354.176-1.354,1.222a1.01,1.01,0,0,0,.33.778,1.266,1.266,0,0,0,.892.3,1.644,1.644,0,0,0,1.274-.541A1.952,1.952,0,0,0,56.016,15.344ZM63.6,19H60.824V5.676H63.6ZM67.345,8.576a1.622,1.622,0,0,1-1.151-.417,1.345,1.345,0,0,1-.448-1.024,1.3,1.3,0,0,1,.448-1.02,1.88,1.88,0,0,1,2.307,0,1.3,1.3,0,0,1,.444,1.02A1.34,1.34,0,0,1,68.5,8.172,1.65,1.65,0,0,1,67.345,8.576ZM68.716,19H65.939V10h2.777Zm16.629,0H82.577V13.867q0-1.96-1.441-1.96a1.324,1.324,0,0,0-1.116.589,2.42,2.42,0,0,0-.431,1.468V19H76.811V13.814q0-1.907-1.415-1.907a1.356,1.356,0,0,0-1.138.563A2.475,2.475,0,0,0,73.832,14v5H71.054V10h2.777v1.406h.035A3.41,3.41,0,0,1,76.776,9.78a2.592,2.592,0,0,1,2.61,1.679A3.329,3.329,0,0,1,82.41,9.78q2.936,0,2.936,3.621Zm10.283-3.709H89.757q.141,1.96,2.47,1.96a4.822,4.822,0,0,0,2.61-.7v2a6.858,6.858,0,0,1-3.243.668,4.565,4.565,0,0,1-3.384-1.208,4.566,4.566,0,0,1-1.2-3.371,4.816,4.816,0,0,1,1.3-3.551,4.334,4.334,0,0,1,3.2-1.31,3.933,3.933,0,0,1,3.045,1.169,4.5,4.5,0,0,1,1.077,3.173Zm-2.575-1.705q0-1.934-1.564-1.934a1.494,1.494,0,0,0-1.156.554,2.513,2.513,0,0,0-.593,1.38ZM105.973,19H103.2V14q0-2.092-1.494-2.092a1.483,1.483,0,0,0-1.187.554,2.109,2.109,0,0,0-.466,1.406V19H97.281V10h2.777v1.424h.035a3.183,3.183,0,0,1,2.892-1.644q2.988,0,2.988,3.709Zm7.638-.105a4.105,4.105,0,0,1-1.854.325q-2.936,0-2.936-3.05V12.048h-1.459V10h1.459V8.058l2.769-.791V10h2.021v2.048h-2.021v3.639q0,1.406,1.116,1.406a1.882,1.882,0,0,0,.905-.255Zm9.053.105h-2.628V17.708H120a2.933,2.933,0,0,1-2.681,1.512,2.8,2.8,0,0,1-2.061-.743,2.661,2.661,0,0,1-.751-1.982q0-2.619,3.1-3.023l2.443-.325q0-1.477-1.6-1.477a5.46,5.46,0,0,0-3.059.958V10.536a6.881,6.881,0,0,1,1.586-.527,8.339,8.339,0,0,1,1.833-.229q3.85,0,3.85,3.841Zm-2.61-3.656v-.606l-1.635.211q-1.354.176-1.354,1.222a1.01,1.01,0,0,0,.33.778,1.266,1.266,0,0,0,.892.3,1.644,1.644,0,0,0,1.274-.541A1.952,1.952,0,0,0,120.053,15.344Zm11.628,3.331a5.492,5.492,0,0,1-2.716.545,4.593,4.593,0,0,1-3.357-1.257,4.341,4.341,0,0,1-1.283-3.243A4.782,4.782,0,0,1,125.7,11.1a5.083,5.083,0,0,1,3.678-1.323,4.72,4.72,0,0,1,2.3.422v2.355a3.166,3.166,0,0,0-1.942-.65,2.559,2.559,0,0,0-1.894.7,2.607,2.607,0,0,0-.7,1.929,2.565,2.565,0,0,0,.668,1.876,2.455,2.455,0,0,0,1.837.681,3.666,3.666,0,0,0,2.03-.65Zm3.226-10.1a1.622,1.622,0,0,1-1.151-.417,1.345,1.345,0,0,1-.448-1.024,1.3,1.3,0,0,1,.448-1.02,1.88,1.88,0,0,1,2.307,0,1.3,1.3,0,0,1,.444,1.02,1.34,1.34,0,0,1-.444,1.037A1.65,1.65,0,0,1,134.907,8.576ZM136.278,19H133.5V10h2.777Zm6.627.22a4.838,4.838,0,0,1-3.538-1.261,4.573,4.573,0,0,1-1.288-3.423,4.573,4.573,0,0,1,1.336-3.494,5.048,5.048,0,0,1,3.612-1.261,4.78,4.78,0,0,1,3.516,1.261,4.483,4.483,0,0,1,1.274,3.335,4.759,4.759,0,0,1-1.314,3.542A4.892,4.892,0,0,1,142.9,19.22Zm.07-7.312a1.852,1.852,0,0,0-1.529.677A2.984,2.984,0,0,0,140.9,14.5q0,2.593,2.092,2.593,2,0,2-2.663Q144.988,11.907,142.975,11.907Zm2.979-6.17L143.2,8.576h-2l2.285-2.839ZM158.3,19h-2.769V14q0-2.092-1.494-2.092a1.483,1.483,0,0,0-1.187.554,2.109,2.109,0,0,0-.466,1.406V19h-2.777V10h2.777v1.424h.035a3.183,3.183,0,0,1,2.892-1.644q2.988,0,2.988,3.709Zm15.97,0H171.5V17.761h-.035a3.114,3.114,0,0,1-2.786,1.459,3.412,3.412,0,0,1-2.716-1.191A4.93,4.93,0,0,1,164.93,14.7a5.366,5.366,0,0,1,1.134-3.577,3.7,3.7,0,0,1,2.971-1.345,2.527,2.527,0,0,1,2.426,1.248h.035V5.676h2.777Zm-2.725-4.377v-.677a2.13,2.13,0,0,0-.51-1.459,1.8,1.8,0,0,0-2.769.145,3.367,3.367,0,0,0-.519,1.991,2.914,2.914,0,0,0,.5,1.828,1.779,1.779,0,0,0,2.764-.035A2.821,2.821,0,0,0,171.548,14.623Zm13.148.668h-5.871q.141,1.96,2.47,1.96a4.822,4.822,0,0,0,2.61-.7v2a6.858,6.858,0,0,1-3.243.668,4.565,4.565,0,0,1-3.384-1.208,4.566,4.566,0,0,1-1.2-3.371,4.816,4.816,0,0,1,1.3-3.551,4.334,4.334,0,0,1,3.2-1.31,3.933,3.933,0,0,1,3.045,1.169,4.5,4.5,0,0,1,1.077,3.173Zm-2.575-1.705q0-1.934-1.564-1.934a1.494,1.494,0,0,0-1.156.554,2.513,2.513,0,0,0-.593,1.38Zm7,5.414h-2.777V5.676h2.777Zm15.855,0h-2.769V17.629h-.044a3.141,3.141,0,0,1-2.751,1.591q-3.129,0-3.129-3.788V10h2.769v5.186q0,1.907,1.512,1.907a1.5,1.5,0,0,0,1.2-.523,2.109,2.109,0,0,0,.448-1.419V10h2.769Zm1.749-.237v-2.25a5.913,5.913,0,0,0,1.367.615,4.531,4.531,0,0,0,1.288.2,2.762,2.762,0,0,0,1.165-.2.653.653,0,0,0,.426-.615.569.569,0,0,0-.193-.439,1.8,1.8,0,0,0-.5-.308,5.635,5.635,0,0,0-.664-.237q-.36-.105-.694-.237a6.653,6.653,0,0,1-.945-.435,2.731,2.731,0,0,1-.686-.541,2.125,2.125,0,0,1-.422-.712,2.841,2.841,0,0,1-.145-.958,2.466,2.466,0,0,1,.33-1.3,2.692,2.692,0,0,1,.879-.892,4.016,4.016,0,0,1,1.257-.51,6.553,6.553,0,0,1,1.472-.163,8.168,8.168,0,0,1,1.213.092,9.053,9.053,0,0,1,1.213.268v2.145a4.383,4.383,0,0,0-1.129-.461,4.764,4.764,0,0,0-1.182-.154,2.619,2.619,0,0,0-.514.048,1.693,1.693,0,0,0-.426.141.783.783,0,0,0-.29.237.546.546,0,0,0-.105.33.609.609,0,0,0,.158.422,1.374,1.374,0,0,0,.413.3,4.078,4.078,0,0,0,.567.229q.312.1.62.207a8.056,8.056,0,0,1,1,.422,3.2,3.2,0,0,1,.769.536,2.105,2.105,0,0,1,.492.721,2.884,2.884,0,0,1-.176,2.351,2.78,2.78,0,0,1-.923.923,4.185,4.185,0,0,1-1.327.519,7.357,7.357,0,0,1-1.56.163A8.042,8.042,0,0,1,206.731,18.763Zm17.06.237h-2.769V17.629h-.044a3.141,3.141,0,0,1-2.751,1.591q-3.129,0-3.129-3.788V10h2.769v5.186q0,1.907,1.512,1.907a1.5,1.5,0,0,0,1.2-.523,2.109,2.109,0,0,0,.448-1.419V10h2.769Zm9.826,0h-2.628V17.708h-.035a2.933,2.933,0,0,1-2.681,1.512,2.8,2.8,0,0,1-2.061-.743,2.661,2.661,0,0,1-.751-1.982q0-2.619,3.1-3.023l2.443-.325q0-1.477-1.6-1.477a5.46,5.46,0,0,0-3.059.958V10.536a6.881,6.881,0,0,1,1.586-.527,8.339,8.339,0,0,1,1.833-.229q3.85,0,3.85,3.841Zm-2.61-3.656v-.606l-1.635.211q-1.354.176-1.354,1.222a1.01,1.01,0,0,0,.33.778,1.266,1.266,0,0,0,.892.3,1.644,1.644,0,0,0,1.274-.541A1.952,1.952,0,0,0,231.006,15.344ZM241.685,12.5a2.409,2.409,0,0,0-1.169-.272,1.684,1.684,0,0,0-1.415.664,2.9,2.9,0,0,0-.51,1.806V19h-2.777V10h2.777v1.67h.035A2.4,2.4,0,0,1,241,9.842a1.788,1.788,0,0,1,.686.105Zm2.769-3.929a1.622,1.622,0,0,1-1.151-.417,1.345,1.345,0,0,1-.448-1.024,1.3,1.3,0,0,1,.448-1.02,1.88,1.88,0,0,1,2.307,0,1.3,1.3,0,0,1,.444,1.02,1.34,1.34,0,0,1-.444,1.037A1.65,1.65,0,0,1,244.454,8.576ZM245.825,19h-2.777V10h2.777Zm6.627.22a4.838,4.838,0,0,1-3.538-1.261,4.573,4.573,0,0,1-1.288-3.423,4.573,4.573,0,0,1,1.336-3.494,5.048,5.048,0,0,1,3.612-1.261,4.78,4.78,0,0,1,3.516,1.261,4.483,4.483,0,0,1,1.274,3.335,4.759,4.759,0,0,1-1.314,3.542A4.892,4.892,0,0,1,252.452,19.22Zm.07-7.312a1.852,1.852,0,0,0-1.529.677,2.984,2.984,0,0,0-.545,1.916q0,2.593,2.092,2.593,2,0,2-2.663Q254.535,11.907,252.522,11.907Z" transform="translate(460 2208.896)" fill="#00316e"/>
    <path id="Trazado_597817" data-name="Trazado 597817" d="M7.7,13.556.059,22.67S-.6,26.427,2.5,27.02s3.888-.857,3.888-.857L17.456,15.092v-3.1L4.737,0H2.5L.059,1.384V3.625L1.376,6.393Z" transform="translate(779.255 2235.403) rotate(180)" fill="#ff2195"/>
    <g id="Grupo_155621" data-name="Grupo 155621" transform="translate(-42 305.149)">
      <path id="Trazado_597788" data-name="Trazado 597788" d="M7.7,13.556.059,22.67S-.6,26.427,2.5,27.02s3.888-.857,3.888-.857L17.456,15.092v-3.1L4.737,0H2.5L.059,1.384V3.625L1.376,6.393Z" transform="translate(1180.556 1709.413) rotate(90)" fill="#ff2195"/>
      <g id="proximo" transform="translate(1182.071 1707.935) rotate(90)">
        <g id="Grupo_155338" data-name="Grupo 155338" transform="translate(0 0)">
          <g id="Grupo_155337" data-name="Grupo 155337">
            <path id="Trazado_596737" data-name="Trazado 596737" d="M18.624,11.518,8.576,1.47a5.023,5.023,0,1,0-7.1,7.1l6.5,6.5-6.5,6.5a5.023,5.023,0,1,0,7.1,7.1L18.624,18.622a5.022,5.022,0,0,0,0-7.1Zm-1.776,5.328L6.8,26.894a2.571,2.571,0,0,1-3.552,0,2.514,2.514,0,0,1,0-3.552L11.52,15.07,3.248,6.8A2.513,2.513,0,0,1,6.8,3.243L16.848,13.291a2.514,2.514,0,0,1,0,3.555Z" fill="#a2caf4"/>
          </g>
        </g>
      </g>
    </g>
    <g id="proximo-2" data-name="proximo" transform="translate(780.734 2236.919) rotate(180)">
      <g id="Grupo_155338-2" data-name="Grupo 155338" transform="translate(0 0)">
        <g id="Grupo_155337-2" data-name="Grupo 155337">
          <path id="Trazado_596737-2" data-name="Trazado 596737" d="M18.624,11.518,8.576,1.47a5.023,5.023,0,1,0-7.1,7.1l6.5,6.5-6.5,6.5a5.023,5.023,0,1,0,7.1,7.1L18.624,18.622a5.022,5.022,0,0,0,0-7.1Zm-1.776,5.328L6.8,26.894a2.571,2.571,0,0,1-3.552,0,2.514,2.514,0,0,1,0-3.552L11.52,15.07,3.248,6.8A2.513,2.513,0,0,1,6.8,3.243L16.848,13.291a2.514,2.514,0,0,1,0,3.555Z" fill="#a2caf4"/>
        </g>
      </g>
    </g>
    <g id="Grupo_155622" data-name="Grupo 155622" transform="translate(19 308)">
      <path id="Trazado_597791" data-name="Trazado 597791" d="M7.7,13.556.059,22.67S-.6,26.427,2.5,27.02s3.888-.857,3.888-.857L17.456,15.092v-3.1L4.737,0H2.5L.059,1.384V3.625L1.376,6.393Z" transform="translate(319.931 1758.929)" fill="#ff2195"/>
      <g id="proximo-3" data-name="proximo" transform="translate(318.452 1756.929)">
        <g id="Grupo_155338-3" data-name="Grupo 155338" transform="translate(0 0)">
          <g id="Grupo_155337-3" data-name="Grupo 155337">
            <path id="Trazado_596737-3" data-name="Trazado 596737" d="M18.624,11.518,8.576,1.47a5.023,5.023,0,1,0-7.1,7.1l6.5,6.5-6.5,6.5a5.023,5.023,0,1,0,7.1,7.1L18.624,18.622a5.022,5.022,0,0,0,0-7.1Zm-1.776,5.328L6.8,26.894a2.571,2.571,0,0,1-3.552,0,2.514,2.514,0,0,1,0-3.552L11.52,15.07,3.248,6.8A2.513,2.513,0,0,1,6.8,3.243L16.848,13.291a2.514,2.514,0,0,1,0,3.555Z" fill="#a2caf4"/>
          </g>
        </g>
      </g>
    </g>
    <path id="Trazado_597818" data-name="Trazado 597818" d="M-3552.6-10045.176H-3382v50.26" transform="translate(4507 12008)" fill="none" stroke="#ff2195" stroke-width="4" stroke-dasharray="3"/>
    <path id="Trazado_597819" data-name="Trazado 597819" d="M-3552.6-10045.176h62.28" transform="translate(4329.686 12266.998)" fill="none" stroke="#ff2195" stroke-width="4" stroke-dasharray="3"/>
    <path id="Trazado_597820" data-name="Trazado 597820" d="M-3394.65-10045.176H-3552.6v66.26" transform="translate(4027.601 12008)" fill="none" stroke="#ff2195" stroke-width="4" stroke-dasharray="3"/>
    <path id="Trazado_597821" data-name="Trazado 597821" d="M-3298.568-9928.5h70.281v142.348h-123.429" transform="translate(4539.646 12008)" fill="none" stroke="#ff2195" stroke-width="4" stroke-dasharray="3"/>
    <path id="Trazado_597822" data-name="Trazado 597822" d="M-3300.826-9928.5h-50.889v142.348H-3218.2" transform="translate(3640.271 12008)" fill="none" stroke="#ff2195" stroke-width="4" stroke-dasharray="3"/>
    <path id="Trazado_597823" data-name="Trazado 597823" d="M7.7,13.556.059,22.67S-.6,26.427,2.5,27.02s3.888-.857,3.888-.857L17.456,15.092v-3.1l-6.542-6.17L4.737,0H2.5L.059,1.384V3.625L1.376,6.393Z" transform="translate(624.382 1949.753)" fill="#ff2195"/>
    <g id="proximo-4" data-name="proximo" transform="translate(622.904 1947.753)">
      <g id="Grupo_155338-4" data-name="Grupo 155338" transform="translate(0 0)">
        <g id="Grupo_155337-4" data-name="Grupo 155337">
          <path id="Trazado_596737-4" data-name="Trazado 596737" d="M18.624,11.518,8.576,1.47a5.023,5.023,0,1,0-7.1,7.1l6.5,6.5-6.5,6.5a5.023,5.023,0,1,0,7.1,7.1L18.624,18.622a5.022,5.022,0,0,0,0-7.1Zm-1.776,5.328L6.8,26.894a2.571,2.571,0,0,1-3.552,0,2.514,2.514,0,0,1,0-3.552L11.52,15.07,3.248,6.8A2.513,2.513,0,0,1,6.8,3.243L16.848,13.291a2.514,2.514,0,0,1,0,3.555Z" fill="#a2caf4"/>
        </g>
      </g>
    </g>
    <path id="Trazado_597824" data-name="Trazado 597824" d="M7.7,13.556.059,22.67S-.6,26.427,2.5,27.02s3.888-.857,3.888-.857L17.456,15.092v-3.1L4.737,0H2.5L.059,1.384V3.625L1.376,6.393Z" transform="translate(1194.57 2235.403) rotate(180)" fill="#ff2195"/>
    <g id="proximo-5" data-name="proximo" transform="translate(1196.048 2236.919) rotate(180)">
      <g id="Grupo_155338-5" data-name="Grupo 155338" transform="translate(0 0)">
        <g id="Grupo_155337-5" data-name="Grupo 155337">
          <path id="Trazado_596737-5" data-name="Trazado 596737" d="M18.624,11.518,8.576,1.47a5.023,5.023,0,1,0-7.1,7.1l6.5,6.5-6.5,6.5a5.023,5.023,0,1,0,7.1,7.1L18.624,18.622a5.022,5.022,0,0,0,0-7.1Zm-1.776,5.328L6.8,26.894a2.571,2.571,0,0,1-3.552,0,2.514,2.514,0,0,1,0-3.552L11.52,15.07,3.248,6.8A2.513,2.513,0,0,1,6.8,3.243L16.848,13.291a2.514,2.514,0,0,1,0,3.555Z" fill="#a2caf4"/>
        </g>
      </g>
    </g>
    <g id="Grupo_155659" data-name="Grupo 155659" transform="translate(657.021 2010.084)">
      <g id="Grupo_155658" data-name="Grupo 155658" clip-path="url(#clip-path)">
        <g id="Grupo_155657" data-name="Grupo 155657">
          <g id="Grupo_155656" data-name="Grupo 155656" clip-path="url(#clip-path-2)">
            <path id="Trazado_597825" data-name="Trazado 597825" d="M18.035,205.328S21.3,238.555,35.64,232.485c12.321-10.141-17.605-27.157-17.605-27.157" transform="translate(-6.461 -73.554)" fill="#2aa289"/>
            <path id="Trazado_597826" data-name="Trazado 597826" d="M35.336,231.951a.21.21,0,0,1-.03.015.182.182,0,0,1-.237-.1c-3.8-9.163-14.53-22.651-14.638-22.786a.183.183,0,0,1,.029-.256.177.177,0,0,1,.256.029c.108.135,10.87,13.663,14.689,22.875a.181.181,0,0,1-.069.222" transform="translate(-7.305 -74.791)" fill="#35cba8"/>
            <path id="Trazado_597827" data-name="Trazado 597827" d="M40.491,235.283a.181.181,0,0,1-.155.021.183.183,0,0,1-.118-.229l1.8-5.591a.182.182,0,0,1,.347.111l-1.8,5.592a.185.185,0,0,1-.074.1" transform="translate(-14.404 -82.161)" fill="#35cba8"/>
            <path id="Trazado_597828" data-name="Trazado 597828" d="M34.439,233.367a.18.18,0,0,1-.1.029l-5.7.11a.182.182,0,1,1-.007-.363l5.7-.11a.182.182,0,0,1,.1.334" transform="translate(-10.194 -83.478)" fill="#35cba8"/>
            <path id="Trazado_597829" data-name="Trazado 597829" d="M34.331,225.8a.182.182,0,0,1-.266-.225l1.8-4.145a.182.182,0,1,1,.334.144l-1.8,4.145a.186.186,0,0,1-.068.08" transform="translate(-12.198 -79.282)" fill="#35cba8"/>
            <path id="Trazado_597830" data-name="Trazado 597830" d="M30.7,220.749a.182.182,0,0,1-.262-.234l1.588-3.157a.182.182,0,1,1,.326.163l-1.588,3.157a.18.18,0,0,1-.064.071" transform="translate(-10.896 -77.827)" fill="#35cba8"/>
            <path id="Trazado_597831" data-name="Trazado 597831" d="M26.946,220.292a.175.175,0,0,1-.069.026l-3.695.633a.182.182,0,1,1-.061-.359l3.695-.633a.182.182,0,0,1,.13.332" transform="translate(-8.228 -78.794)" fill="#35cba8"/>
            <path id="Trazado_597832" data-name="Trazado 597832" d="M5.978,222.937s14.44,30.1,25.839,19.488c8.1-13.747-25.839-19.488-25.839-19.488" transform="translate(-2.141 -79.862)" fill="#35cba8"/>
            <path id="Trazado_597833" data-name="Trazado 597833" d="M31.378,241.987a.2.2,0,0,1-.022.024A.181.181,0,0,1,31.1,242c-6.708-7.308-21.407-16.307-21.555-16.4a.182.182,0,0,1-.06-.25.176.176,0,0,1,.25-.061c.148.09,14.891,9.116,21.633,16.463a.181.181,0,0,1,.012.232" transform="translate(-3.388 -80.695)" fill="#2aa289"/>
            <path id="Trazado_597834" data-name="Trazado 597834" d="M38.3,243.009a.182.182,0,0,1-.327-.1l-.226-5.868a.182.182,0,0,1,.364-.014l.226,5.868a.181.181,0,0,1-.037.117" transform="translate(-13.523 -84.845)" fill="#2aa289"/>
            <path id="Trazado_597835" data-name="Trazado 597835" d="M31.04,242.535a.182.182,0,0,1-.08.06l-5.32,2.056a.182.182,0,1,1-.131-.339l5.319-2.056a.182.182,0,0,1,.211.279" transform="translate(-9.097 -86.778)" fill="#2aa289"/>
            <path id="Trazado_597836" data-name="Trazado 597836" d="M29.119,236.207a.182.182,0,0,1-.327-.121l.271-4.51a.182.182,0,1,1,.363.021l-.271,4.51a.187.187,0,0,1-.037.1" transform="translate(-10.314 -82.895)" fill="#2aa289"/>
            <path id="Trazado_597837" data-name="Trazado 597837" d="M23.789,232.745a.182.182,0,0,1-.326-.131l.411-3.51a.182.182,0,1,1,.362.042l-.411,3.51a.184.184,0,0,1-.035.089" transform="translate(-8.405 -82.013)" fill="#2aa289"/>
            <path id="Trazado_597838" data-name="Trazado 597838" d="M19.623,233.2a.176.176,0,0,1-.055.049l-3.255,1.859a.182.182,0,1,1-.18-.316l3.255-1.859a.182.182,0,0,1,.236.268" transform="translate(-5.746 -83.433)" fill="#2aa289"/>
            <path id="Trazado_597839" data-name="Trazado 597839" d="M320.806,209.94s-26.8,19.912-14.207,29.079c15.04,5.336,14.207-29.079,14.207-29.079" transform="translate(-108.626 -75.206)" fill="#2aa289"/>
            <path id="Trazado_597840" data-name="Trazado 597840" d="M309.865,238.522a.189.189,0,0,1-.028-.017.182.182,0,0,1-.038-.254c5.9-7.977,11.929-24.123,11.989-24.285a.183.183,0,0,1,.234-.107.177.177,0,0,1,.107.234c-.06.162-6.112,16.356-12.038,24.374a.181.181,0,0,1-.226.056" transform="translate(-110.965 -76.605)" fill="#35cba8"/>
            <path id="Trazado_597841" data-name="Trazado 597841" d="M313.7,245.516a.182.182,0,0,1,.039-.341l5.718-1.34a.182.182,0,0,1,.083.354l-5.718,1.34a.18.18,0,0,1-.122-.014" transform="translate(-112.338 -87.346)" fill="#35cba8"/>
            <path id="Trazado_597842" data-name="Trazado 597842" d="M314.844,238.513a.179.179,0,0,1-.074-.067l-3.032-4.83a.182.182,0,1,1,.308-.194l3.032,4.83a.182.182,0,0,1-.234.261" transform="translate(-111.663 -83.588)" fill="#35cba8"/>
            <path id="Trazado_597843" data-name="Trazado 597843" d="M319.344,235.351a.182.182,0,0,1,.056-.344l4.479-.594a.182.182,0,1,1,.048.361l-4.479.594a.183.183,0,0,1-.1-.017" transform="translate(-114.36 -83.972)" fill="#35cba8"/>
            <path id="Trazado_597844" data-name="Trazado 597844" d="M322.275,229.536a.182.182,0,0,1,.066-.345l3.524-.265a.182.182,0,1,1,.028.363l-3.524.266a.184.184,0,0,1-.094-.018" transform="translate(-115.41 -82.007)" fill="#35cba8"/>
            <path id="Trazado_597845" data-name="Trazado 597845" d="M321.94,225.506a.193.193,0,0,1-.058-.045l-2.445-2.841a.182.182,0,1,1,.276-.237l2.446,2.841a.182.182,0,0,1-.218.282" transform="translate(-114.414 -79.64)" fill="#35cba8"/>
            <path id="Trazado_597846" data-name="Trazado 597846" d="M327.178,233.938s-21.071,4.649-16.073,13.387c7.456,7.127,16.073-13.387,16.073-13.387" transform="translate(-111.171 -83.802)" fill="#35cba8"/>
            <path id="Trazado_597847" data-name="Trazado 597847" d="M313.153,247.1a.125.125,0,0,1-.012-.018.118.118,0,0,1,.045-.16c5.588-3.143,13.418-11.067,13.5-11.146a.118.118,0,0,1,.166,0,.114.114,0,0,1,0,.167c-.079.08-7.932,8.027-13.549,11.186a.117.117,0,0,1-.148-.027" transform="translate(-112.169 -84.446)" fill="#2aa289"/>
            <path id="Trazado_597848" data-name="Trazado 597848" d="M316.958,250.9a.118.118,0,0,1,.113-.191l3.726.723a.118.118,0,0,1-.045.232l-3.726-.723a.117.117,0,0,1-.068-.04" transform="translate(-113.532 -89.81)" fill="#2aa289"/>
            <path id="Trazado_597849" data-name="Trazado 597849" d="M319.685,246.634a.121.121,0,0,1-.026-.059l-.51-3.65a.118.118,0,0,1,.1-.133.119.119,0,0,1,.133.1l.509,3.65a.118.118,0,0,1-.207.092" transform="translate(-114.327 -86.973)" fill="#2aa289"/>
            <path id="Trazado_597850" data-name="Trazado 597850" d="M323.087,246.155a.115.115,0,0,1-.022-.109.118.118,0,0,1,.146-.079l2.8.836a.117.117,0,1,1-.067.225l-2.8-.835a.118.118,0,0,1-.056-.038" transform="translate(-115.728 -88.11)" fill="#2aa289"/>
            <path id="Trazado_597851" data-name="Trazado 597851" d="M326.4,243.394a.118.118,0,0,1,.13-.186l2.148.776a.118.118,0,0,1-.08.221l-2.148-.776a.114.114,0,0,1-.051-.035" transform="translate(-116.916 -87.121)" fill="#2aa289"/>
            <path id="Trazado_597852" data-name="Trazado 597852" d="M327.312,240.842a.119.119,0,0,1-.022-.042l-.69-2.322a.117.117,0,1,1,.225-.067l.691,2.323a.118.118,0,0,1-.2.108" transform="translate(-116.994 -85.374)" fill="#2aa289"/>
            <path id="Trazado_597853" data-name="Trazado 597853" d="M189.952,155.27a1.819,1.819,0,0,1-.325-3.609c.456-.087,10.563-2.152,11.149-14.926a1.819,1.819,0,1,1,3.635.167c-.723,15.757-14,18.316-14.136,18.339a1.853,1.853,0,0,1-.323.029" transform="translate(-67.395 -48.36)" fill="#d13f4a"/>
            <path id="Trazado_597854" data-name="Trazado 597854" d="M178.5,137.912a6.452,6.452,0,0,0-6.6-2.7,5.421,5.421,0,0,0-3.73,1.993,8.094,8.094,0,0,0-1.4,4.8,27.568,27.568,0,0,0,.637,5.042,3.206,3.206,0,0,1-.037,1.854,3.4,3.4,0,0,1-.569.805c-1.209,1.416-2.357,3.144-2.108,4.99.119.884.553,1.8.225,2.627-.342.865-1.345,1.223-2.058,1.821a4.112,4.112,0,0,0-1.027,4.443,6.541,6.541,0,0,0,3.239,3.459c3.39,1.773,7.663,1.268,10.988-.626a10.825,10.825,0,0,0,2.61-2.014,8.6,8.6,0,0,0,2.081-7.406c-.336-1.672-1.176-3.238-1.291-4.939-.137-2.038.777-3.985,1.1-6a10.7,10.7,0,0,0-2.065-8.154" transform="translate(-57.882 -48.388)" fill="#03123f"/>
            <path id="Trazado_597855" data-name="Trazado 597855" d="M183.507,161.421a5.715,5.715,0,0,0-3.643,3.6c-.816,2.187.4,4.433,1.42,6.346,1.339,2.512,3.142,4.931,3.368,7.769.091,1.138-.081,2.288.049,3.422a6.421,6.421,0,0,0,10.936,3.788,4.807,4.807,0,0,0,1.119-1.681,5.564,5.564,0,0,0-.465-4.285c-.645-1.329-1.579-2.493-2.344-3.756a16.832,16.832,0,0,1-2.28-6.462c-.374-2.776-.222-6.018-2.35-7.841-1.547-1.324-3.831-1.383-5.809-.9" transform="translate(-64.336 -57.726)" fill="#f94c51"/>
            <path id="Trazado_597856" data-name="Trazado 597856" d="M181.992,162.912a5.808,5.808,0,0,1,4.614-1.566,4.728,4.728,0,0,0-.475,3.26s-2.837-1.616-4.139-1.694" transform="translate(-65.194 -57.778)" fill="#f79b63"/>
            <path id="Trazado_597857" data-name="Trazado 597857" d="M192.78,173.676c-.119-.882-.184-1.81-.287-2.725-.054.059-.1.123-.157.18a4.953,4.953,0,0,1-3.1,1.381,2.354,2.354,0,0,0-1.058.2c-.447.263-.6.829-.92,1.235a2.888,2.888,0,0,1-2.462.805c-.67-.034-1.45-.107-1.9.389a1.055,1.055,0,0,0-.188.3c1.254,2.245,2.754,4.447,3.034,6.974a8.009,8.009,0,0,1,1.021-.023,23.64,23.64,0,0,0,6.531-.437,11.554,11.554,0,0,0,2.362-.893c-.2-.3-.4-.612-.593-.925a16.829,16.829,0,0,1-2.28-6.461" transform="translate(-65.449 -61.239)" fill="#d13f4a"/>
            <path id="Trazado_597858" data-name="Trazado 597858" d="M171.354,137.97s-3.276,1.264-1.85,10.617" transform="translate(-60.592 -49.424)" fill="none" stroke="#03123f" stroke-linecap="round" stroke-linejoin="round" stroke-width="0.283"/>
            <path id="Trazado_597859" data-name="Trazado 597859" d="M183.417,160.986a2.02,2.02,0,0,0,.9,1.186,1.018,1.018,0,0,0,1.414-.764,1.921,1.921,0,0,0-.048-.691q-.137-.681-.336-1.346a2.557,2.557,0,0,0-.472-.986c-.546-.617-1.838-.678-2.1.236-.218.763.361,1.682.64,2.366" transform="translate(-65.458 -56.573)" fill="#f79b63"/>
            <path id="Trazado_597860" data-name="Trazado 597860" d="M184.876,158.385c-.546-.617-1.839-.679-2.1.236a1.611,1.611,0,0,0,.017.825,9.851,9.851,0,0,1,2.84,1.07c-.083-.385-.173-.768-.286-1.145a2.565,2.565,0,0,0-.472-.986" transform="translate(-65.459 -56.573)" fill="#c67a4f"/>
            <path id="Trazado_597861" data-name="Trazado 597861" d="M183.342,144.1a10.5,10.5,0,0,0-1.97-5.094,6.769,6.769,0,0,0-4.65-2.685,5.024,5.024,0,0,0-4.711,2.292c-1.488,2.541-.752,5.356.265,7.9a.684.684,0,0,0-.343.105,1.251,1.251,0,0,0-.5,1.371,1.027,1.027,0,0,0,.135.286,1.063,1.063,0,0,0,.866.427,1.494,1.494,0,0,0,.771-.232,8.647,8.647,0,0,0,1.579,2.068,5.277,5.277,0,0,0,4.2,1.513,5.138,5.138,0,0,0,3.78-3.01,8.991,8.991,0,0,0,.578-4.939" transform="translate(-61.317 -48.826)" fill="#f79b63"/>
            <path id="Trazado_597862" data-name="Trazado 597862" d="M173.452,142.215l-2.176.516a10.992,10.992,0,0,0,1,5.9.682.682,0,0,0-.343.105,1.251,1.251,0,0,0-.5,1.371,1.046,1.046,0,0,0,.136.286,1.061,1.061,0,0,0,.866.427,1.5,1.5,0,0,0,.771-.232,8.643,8.643,0,0,0,1.578,2.068,5.769,5.769,0,0,0,2.749,1.452c-6.177-4.486-4.019-11.7-4.086-11.89" transform="translate(-61.318 -50.945)" fill="#c67a4f"/>
            <path id="Trazado_597863" data-name="Trazado 597863" d="M171.044,144.025s4.243-1.834,5.152-5.337c0,0,3.975,2.863,6.653,3.116,0,0-1.735-7.552-7.966-5.671,0,0-5.184-.127-3.838,7.892" transform="translate(-61.193 -48.658)" fill="#03123f"/>
            <path id="Trazado_597864" data-name="Trazado 597864" d="M182.252,149.979a.716.716,0,0,0,.561.641,1.059,1.059,0,0,0,.861-.216.915.915,0,0,0,.337-.447.543.543,0,0,0-.109-.531" transform="translate(-65.287 -53.528)" fill="none" stroke="#03123f" stroke-linecap="round" stroke-linejoin="round" stroke-width="0.283"/>
            <path id="Trazado_597865" data-name="Trazado 597865" d="M182.909,153.826a2.957,2.957,0,0,1,2.591-.868s-.4,2.327-2.591.946" transform="translate(-65.523 -54.777)" fill="#e9575d"/>
            <path id="Trazado_597866" data-name="Trazado 597866" d="M182.437,153.706a5.5,5.5,0,0,0,3.205-1.135" transform="translate(-65.353 -54.655)" fill="none" stroke="#03123f" stroke-linecap="round" stroke-linejoin="round" stroke-width="0.283"/>
            <path id="Trazado_597867" data-name="Trazado 597867" d="M172.454,146.992l.161.4a5.776,5.776,0,0,1,.2.563,4.353,4.353,0,0,1,.142,1.175,1.643,1.643,0,0,1-.04.438.631.631,0,0,1-.236.362c-.055.037-.123.069-.146.132a.249.249,0,0,0,0,.109,2.645,2.645,0,0,0,.151.728c.066.159.165.339.085.492a.985.985,0,0,1-.312-.469c-.134-.288-.326-.544-.483-.818a5.383,5.383,0,0,1-.558-1.581,1.96,1.96,0,0,1-.055-.48,1.076,1.076,0,0,1,.922-1.015" transform="translate(-61.386 -52.656)" fill="#03123f"/>
            <path id="Trazado_597868" data-name="Trazado 597868" d="M177.592,144.886a2.192,2.192,0,0,0-.674.25,3.3,3.3,0,0,0-.612.438,4.521,4.521,0,0,0-.922,1.221.091.091,0,0,1-.163-.08,4.725,4.725,0,0,1,.9-1.334,3.6,3.6,0,0,1,.64-.514,2.478,2.478,0,0,1,.783-.332.178.178,0,0,1,.076.348l-.01,0Z" transform="translate(-62.766 -51.774)" fill="#03123f"/>
            <path id="Trazado_597869" data-name="Trazado 597869" d="M182.716,143.482a2.494,2.494,0,0,1,.825-.207,3.614,3.614,0,0,1,.821.025,4.742,4.742,0,0,1,1.521.522.091.091,0,0,1-.081.162,4.509,4.509,0,0,0-1.472-.418,3.347,3.347,0,0,0-.752.018,2.216,2.216,0,0,0-.688.207l-.015.008a.178.178,0,1,1-.167-.314l.009,0" transform="translate(-65.416 -51.32)" fill="#03123f"/>
            <path id="Trazado_597870" data-name="Trazado 597870" d="M186.109,146.286a.539.539,0,1,1-.539-.539.54.54,0,0,1,.539.539" transform="translate(-66.283 -52.21)" fill="#03123f"/>
            <path id="Trazado_597871" data-name="Trazado 597871" d="M179.037,148.3a.539.539,0,1,1-.539-.539.539.539,0,0,1,.539.539" transform="translate(-63.749 -52.931)" fill="#03123f"/>
            <path id="Trazado_597872" data-name="Trazado 597872" d="M172.05,153.318a.817.817,0,0,1,.78.243,1.231,1.231,0,0,1,.313.78" transform="translate(-61.633 -54.914)" fill="none" stroke="#03123f" stroke-linecap="round" stroke-linejoin="round" stroke-width="0.283"/>
            <path id="Trazado_597873" data-name="Trazado 597873" d="M172.951,153.694a.823.823,0,0,0-.329.564.182.182,0,0,0,.015.134" transform="translate(-61.835 -55.057)" fill="none" stroke="#03123f" stroke-linecap="round" stroke-linejoin="round" stroke-width="0.283"/>
            <path id="Trazado_597874" data-name="Trazado 597874" d="M174.564,155.138a.356.356,0,1,1-.356-.356.356.356,0,0,1,.356.356" transform="translate(-62.278 -55.447)" fill="#fff"/>
            <path id="Trazado_597875" data-name="Trazado 597875" d="M162.151,179.471s.35,4.014,6.4,4.788" transform="translate(-58.087 -64.291)" fill="none" stroke="#03123f" stroke-linecap="round" stroke-linejoin="round" stroke-width="0.283"/>
            <path id="Trazado_597876" data-name="Trazado 597876" d="M188.783,254.289l-5.294.019a2.306,2.306,0,0,1-.709-.072.777.777,0,0,1-.517-.456.75.75,0,0,1,.089-.611,1.759,1.759,0,0,1,.435-.461,23.219,23.219,0,0,1,2.31-1.268,12.2,12.2,0,0,1,2.668-1.452,2.5,2.5,0,0,1,.746-.158,1.885,1.885,0,0,1,1.3.567,4.451,4.451,0,0,1,.823,1.189,3.385,3.385,0,0,1,.474,1.543c-.009,1.527-1.277,1.157-2.322,1.161" transform="translate(-65.28 -89.495)" fill="#f79b63"/>
            <path id="Trazado_597877" data-name="Trazado 597877" d="M190.408,233.808a1.82,1.82,0,0,1-1.81-1.655c-.92-10.151,1.455-30.586,1.557-31.451a1.819,1.819,0,1,1,3.613.425c-.024.208-2.433,20.923-1.546,30.7a1.82,1.82,0,0,1-1.648,1.976c-.056.005-.111.008-.166.008" transform="translate(-67.485 -71.321)" fill="#03123f"/>
            <path id="Trazado_597878" data-name="Trazado 597878" d="M238.714,133.169a8.108,8.108,0,0,1-16.216,0H190.923V162.94a8.108,8.108,0,0,0,0,16.216v33.379h72a7.393,7.393,0,0,0,7.371-7.371v-72Z" transform="translate(-65.489 -47.704)" fill="#00a6b7"/>
            <g id="Grupo_155625" data-name="Grupo 155625" transform="translate(180.554 88.154)" style="mix-blend-mode: multiply;isolation: isolate">
              <g id="Grupo_155624" data-name="Grupo 155624">
                <g id="Grupo_155623" data-name="Grupo 155623" clip-path="url(#clip-path-3)">
                  <path id="Trazado_597879" data-name="Trazado 597879" d="M281.336,137.433s21.864,8.8,24.246,21.6v-18.76s-22.246-3.467-24.246-2.845" transform="translate(-281.335 -137.359)" fill="#d1d3d4"/>
                </g>
              </g>
            </g>
            <g id="Grupo_155628" data-name="Grupo 155628" transform="translate(117.328 123.335)" style="mix-blend-mode: multiply;isolation: isolate">
              <g id="Grupo_155627" data-name="Grupo 155627">
                <g id="Grupo_155626" data-name="Grupo 155626" clip-path="url(#clip-path-4)">
                  <path id="Trazado_597880" data-name="Trazado 597880" d="M187.082,195.975a.522.522,0,0,1,.383.073.535.535,0,0,1,.128.312,3.528,3.528,0,0,0,.825,1.674c.062.07.147.144.237.119s.13-.148.146-.248l.106-.708a1.421,1.421,0,0,1,.613.577.96.96,0,0,0,.68.471,6.812,6.812,0,0,0-.388-1.448c.466.126.787.6,1.264.682.059-.132-.035-.278-.124-.392L190,195.872a8.013,8.013,0,0,0-.82-.941,6.356,6.356,0,0,0-1.676-1.057c-.824-.385-1.682-.7-2.5-1.094a8.448,8.448,0,0,0-1.088-.486,2.023,2.023,0,0,0-1.1-.067,8.07,8.07,0,0,0,.612,3.051,5.942,5.942,0,0,0,.839.291,8.594,8.594,0,0,0,2.813.406" transform="translate(-182.818 -192.178)" fill="#d1d3d4"/>
                </g>
              </g>
            </g>
            <path id="Trazado_597881" data-name="Trazado 597881" d="M192.369,192.208a1.027,1.027,0,0,1,.325-.157.374.374,0,0,1,.34.078.356.356,0,0,1,.074.352.717.717,0,0,1-.21.309c-.357.337-.857.483-1.238.793a.6.6,0,0,0-.18.212.471.471,0,0,0-.022.27,1.36,1.36,0,0,0,.259.524,21.265,21.265,0,0,0,1.364,1.751,9.24,9.24,0,0,1,.948,1.193.319.319,0,0,1,.062.175.214.214,0,0,1-.193.184.442.442,0,0,1-.275-.076,2.119,2.119,0,0,1-.578-.624q-.279-.387-.587-.752c-.022-.026-.05-.055-.085-.053a.094.094,0,0,0-.062.037c-.112.133-.037.334.037.493a6.314,6.314,0,0,1,.406,1.167.372.372,0,0,1,0,.237.263.263,0,0,1-.377.067.756.756,0,0,1-.241-.354l-.576-1.341a.738.738,0,0,0-.188.558,5.973,5.973,0,0,1,.024.605c-.013.142-.076.3-.214.338a.274.274,0,0,1-.272-.114.662.662,0,0,1-.108-.289c-.114-.637.018-1.349-.335-1.891a7.138,7.138,0,0,0-.51-.582c-.4-.487-.656-1.4-.038-1.839a1.635,1.635,0,0,1,.271-.144,2.246,2.246,0,0,1,.553-.212,1.753,1.753,0,0,0,.538-.214c.189-.1.37-.219.549-.339l.268-.18c.067-.046.228-.112.27-.179" transform="translate(-67.902 -68.794)" fill="#f79b63"/>
            <path id="Trazado_597882" data-name="Trazado 597882" d="M183.468,185.469a1.814,1.814,0,0,1-.785-.178c-5.037-2.414-7.891-5.539-8.482-9.29-.912-5.8,4.095-10.626,4.308-10.829a1.819,1.819,0,0,1,2.508,2.636c-.071.068-3.842,3.757-3.219,7.641.4,2.491,2.572,4.7,6.457,6.559a1.819,1.819,0,0,1-.787,3.46" transform="translate(-62.363 -58.99)" fill="#f94c51"/>
            <path id="Trazado_597883" data-name="Trazado 597883" d="M181.065,172.9a12.955,12.955,0,0,1,2.617-3.636" transform="translate(-64.862 -60.636)" fill="none" stroke="#03123f" stroke-linecap="round" stroke-linejoin="round" stroke-width="0.283"/>
            <g id="Grupo_155631" data-name="Grupo 155631" transform="translate(133.044 85.327)" style="mix-blend-mode: multiply;isolation: isolate">
              <g id="Grupo_155630" data-name="Grupo 155630">
                <g id="Grupo_155629" data-name="Grupo 155629" clip-path="url(#clip-path-5)">
                  <path id="Trazado_597884" data-name="Trazado 597884" d="M211.076,135.023a1.067,1.067,0,0,1-.1-.474q-.022-.362-.078-.721a.57.57,0,0,0-.181-.395.2.2,0,0,0-.1-.039.208.208,0,0,0-.187.133.612.612,0,0,0-.038.239q-.017.7-.063,1.389a.228.228,0,0,1-.046.15.155.155,0,0,1-.1.042.307.307,0,0,1-.281-.188.9.9,0,0,1-.063-.352q-.018-.427-.037-.855a.381.381,0,0,0-.027-.152.135.135,0,0,0-.121-.083c-.06,0-.1.061-.13.115a3.183,3.183,0,0,0-.133,1.187.484.484,0,0,1-.09.275.331.331,0,0,1-.361.079.529.529,0,0,1-.277-.266,1.426,1.426,0,0,1-.114-.375,3.24,3.24,0,0,1-.052-.333,1.608,1.608,0,0,0-.04-.3.726.726,0,0,0-.325-.4,1.49,1.49,0,0,0-.492-.175.692.692,0,0,1-.23-.072.2.2,0,0,1-.1-.2.2.2,0,0,1,.136-.136.59.59,0,0,1,.2-.019l1.151.022a5.165,5.165,0,0,0,.732-.021c.229-.029.453-.088.682-.119a2.735,2.735,0,0,1,.615-.012.912.912,0,0,1,.553.2.982.982,0,0,1,.231.686,4.991,4.991,0,0,1-.032.807q-.025.2-.064.4c-.022.113-.037.171-.167.154a.38.38,0,0,1-.268-.189" transform="translate(-207.306 -132.955)" fill="#d1d3d4"/>
                </g>
              </g>
            </g>
            <path id="Trazado_597885" data-name="Trazado 597885" d="M208.453,133.2a.585.585,0,0,1,.1.073.357.357,0,0,1,.077.087.474.474,0,0,1,.04.092,1.331,1.331,0,0,1,.032.46c0,.185-.019.372-.01.558a.86.86,0,0,0,.126.452.414.414,0,0,0,.408.187.446.446,0,0,0,.309-.352,1.6,1.6,0,0,0,0-.492,4.811,4.811,0,0,1,.039-1.16.175.175,0,0,1,.053-.121c.1-.074.2.081.223.2a4.939,4.939,0,0,1,.045,1.246c-.02.216-.027.485.164.588a.365.365,0,0,0,.456-.178,1.064,1.064,0,0,0,.09-.529q0-.679-.006-1.357a.207.207,0,0,1,.031-.134c.084-.1.242.031.288.157a4.814,4.814,0,0,1,.1,1.479c.007.211.094.48.305.483s.308-.285.322-.507q.039-.632.035-1.266a1.234,1.234,0,0,0-.121-.632c-.331-.556-1-.454-1.549-.445a5.411,5.411,0,0,0-.79,0,.955.955,0,0,0-.36.13,1.27,1.27,0,0,1-.34.128,2.3,2.3,0,0,1-.4.1c-.065.008-.13.012-.2.014l-.37.016a.519.519,0,0,0-.283.067.258.258,0,0,0-.027.4.409.409,0,0,0,.152.083,3.727,3.727,0,0,0,.714.076.962.962,0,0,1,.334.1" transform="translate(-74.214 -47.309)" fill="#f79b63"/>
            <g id="Grupo_155634" data-name="Grupo 155634" transform="translate(0 162.084)" style="mix-blend-mode: multiply;isolation: isolate">
              <g id="Grupo_155633" data-name="Grupo 155633">
                <g id="Grupo_155632" data-name="Grupo 155632" clip-path="url(#clip-path-6)">
                  <path id="Trazado_597886" data-name="Trazado 597886" d="M36.8,255.3c0,1.515-8.238,2.742-18.4,2.742S0,256.813,0,255.3s8.238-2.742,18.4-2.742,18.4,1.228,18.4,2.742" transform="translate(0 -252.556)" fill="#e6e7e8"/>
                </g>
              </g>
            </g>
            <g id="Grupo_155637" data-name="Grupo 155637" transform="translate(221.35 165.9)" style="mix-blend-mode: multiply;isolation: isolate">
              <g id="Grupo_155636" data-name="Grupo 155636">
                <g id="Grupo_155635" data-name="Grupo 155635" clip-path="url(#clip-path-7)">
                  <path id="Trazado_597887" data-name="Trazado 597887" d="M388.943,259.638c0,.627-9.859,1.136-22.02,1.136s-22.021-.509-22.021-1.136,9.859-1.135,22.021-1.135,22.02.508,22.02,1.135" transform="translate(-344.903 -258.503)" fill="#e6e7e8"/>
                </g>
              </g>
            </g>
            <path id="Trazado_597888" data-name="Trazado 597888" d="M347.084,166.983a9.551,9.551,0,0,1-1.545-.125c-3.659-.6-6.674-3.27-8.959-7.94l3.268-1.6c1.738,3.55,3.851,5.552,6.28,5.949,4.176.687,8.382-3.437,8.423-3.479l2.587,2.558c-.2.207-4.654,4.636-10.054,4.636" transform="translate(-120.571 -56.356)" fill="#d89330"/>
            <path id="Trazado_597889" data-name="Trazado 597889" d="M398.79,257.43l-7.017.024a3.054,3.054,0,0,1-.94-.094,1.033,1.033,0,0,1-.686-.605.994.994,0,0,1,.117-.811,2.327,2.327,0,0,1,.576-.611,15.929,15.929,0,0,1,3.522-1.92,1.767,1.767,0,0,0,.5-.291c.106-.1.187-.221.286-.325a1.574,1.574,0,0,1,1.065-.442,3.712,3.712,0,0,1,1.164.172,7.622,7.622,0,0,1,3.329,1.789c.631.616,1.87,2.229.587,2.835a6.111,6.111,0,0,1-2.5.279" transform="translate(-139.746 -90.399)" fill="#f79b63"/>
            <path id="Trazado_597890" data-name="Trazado 597890" d="M393.911,239.94a3.641,3.641,0,0,0,.513.339H397.9a3.628,3.628,0,0,0,.523-6.047c-10.519-8.317-9.535-25.774-9.524-25.949a3.638,3.638,0,0,0-7.26-.482c-.059.87-1.277,21.428,12.271,32.139" transform="translate(-136.694 -73.223)" fill="#030f2d"/>
            <path id="Trazado_597891" data-name="Trazado 597891" d="M356.1,257.43l-7.017.024a3.056,3.056,0,0,1-.94-.094,1.034,1.034,0,0,1-.686-.605,1,1,0,0,1,.117-.811,2.339,2.339,0,0,1,.576-.611,15.93,15.93,0,0,1,3.522-1.92,1.769,1.769,0,0,0,.5-.291c.106-.1.187-.221.286-.325a1.574,1.574,0,0,1,1.065-.442,3.712,3.712,0,0,1,1.164.172,7.623,7.623,0,0,1,3.329,1.789c.631.616,1.869,2.229.587,2.835a6.111,6.111,0,0,1-2.5.279" transform="translate(-124.454 -90.399)" fill="#f79b63"/>
            <path id="Trazado_597892" data-name="Trazado 597892" d="M371.257,36.4,301.664,17.955l-8.088,30.522a8.108,8.108,0,1,1-4.154,15.675l-8.088,30.522,30.522,8.088a8.108,8.108,0,1,0,15.675,4.154L358.053,115l18.441-69.594a7.392,7.392,0,0,0-5.237-9.012" transform="translate(-100.781 -6.432)" fill="#4795e9"/>
            <g id="Grupo_155640" data-name="Grupo 155640" transform="translate(226.165 83.724)" style="mix-blend-mode: multiply;isolation: isolate">
              <g id="Grupo_155639" data-name="Grupo 155639">
                <g id="Grupo_155638" data-name="Grupo 155638" clip-path="url(#clip-path-8)">
                  <path id="Trazado_597893" data-name="Trazado 597893" d="M360.786,147.012a1.439,1.439,0,0,1-.722-.411c-.349-.468.021-1.106.221-1.655a2.73,2.73,0,0,0-.345-2.486,7.841,7.841,0,0,1-.858-1.123c-.349-.735-.094-1.608-.214-2.412a8.7,8.7,0,0,0-.69-1.86,2.357,2.357,0,0,1-.082-1.927c.341-.66,1.185-1.039,1.3-1.774a4.834,4.834,0,0,1,.058-.642c.226-.767,1.961-.907,1.277-1.885-.612-.875-2.362-.013-3.03.363a1.107,1.107,0,0,0-.4.33,1.446,1.446,0,0,0-.159.656c-.173,1.608-1.243,2.949-2.059,4.345a25.3,25.3,0,0,0-1.572,3.352c-.716,1.78-1.378,3.706-.977,5.582a5.76,5.76,0,0,0,.766,1.831l10.793,2.86a2.813,2.813,0,0,0-.277-.872,5.186,5.186,0,0,0-3.023-2.271" transform="translate(-352.406 -130.457)" fill="#d1d3d4"/>
                </g>
              </g>
            </g>
            <path id="Trazado_597894" data-name="Trazado 597894" d="M345,150.974a4.387,4.387,0,0,0,3.083,1.825,3.61,3.61,0,0,0,1.395-.376,16.673,16.673,0,0,0,4.051-2.946,2.394,2.394,0,0,0,.652-3.761l-2.885-4.8a5.174,5.174,0,0,0-1.884-2.119,4.133,4.133,0,0,0-3.389.155c-1.977.816-4.854,2.9-5.152,5.233-.3,2.373,2.7,5.212,4.13,6.792" transform="translate(-122.101 -49.611)" fill="#f79b63"/>
            <path id="Trazado_597895" data-name="Trazado 597895" d="M356.223,155.622l2.385,2.515,2.837-1.258-1.961-3.921a18.789,18.789,0,0,0-3.261,2.663" transform="translate(-127.608 -54.794)" fill="#f79b63"/>
            <path id="Trazado_597896" data-name="Trazado 597896" d="M381.158,186.757c0-.051.009-.1.008-.152,0-1.737-.728-3.274-1.209-4.942-1.994-6.912-5.073-13.151-8.3-19.538-2.022-4-5.328-5.951-9.53-4.81a10.311,10.311,0,0,0-5.2,3.17,6.141,6.141,0,0,0-.644.963,8.327,8.327,0,0,0-.029,6.808,37.413,37.413,0,0,0,3.465,6.093,46.692,46.692,0,0,1,5.645,13.337l.919,5.367s1.457,5.1,9.335,3.193,5.544-9.489,5.544-9.489" transform="translate(-127.362 -56.239)" fill="#fab850"/>
            <g id="Grupo_155643" data-name="Grupo 155643" transform="translate(228.179 105.339)" style="mix-blend-mode: multiply;isolation: isolate">
              <g id="Grupo_155642" data-name="Grupo 155642">
                <g id="Grupo_155641" data-name="Grupo 155641" clip-path="url(#clip-path-9)">
                  <path id="Trazado_597897" data-name="Trazado 597897" d="M363.019,165.724a17.424,17.424,0,0,1-6.06-1.348,4.069,4.069,0,0,0-.735-.241,8.4,8.4,0,0,0,.028,6.678,37.41,37.41,0,0,0,3.466,6.093c.756,1.219,1.449,2.475,2.091,3.758-.626-3.7-2.214-6.994-2.941-10.146-1.017-4.406,4.151-4.795,4.151-4.795" transform="translate(-355.543 -164.137)" fill="#e6e7e8"/>
                </g>
              </g>
            </g>
            <path id="Trazado_597898" data-name="Trazado 597898" d="M381.179,212.185c7.878-1.905,5.544-9.489,5.544-9.489,0-.051.008-.1.008-.152a6.835,6.835,0,0,0-.092-1.057,50.462,50.462,0,0,1-15.569,2.982l.774,4.523s1.457,5.1,9.335,3.194" transform="translate(-132.926 -72.178)" fill="#03123f"/>
            <path id="Trazado_597899" data-name="Trazado 597899" d="M344.1,153.378a1.717,1.717,0,0,1-.124.767c-.057.121-.138.229-.191.352a.465.465,0,0,0-.018.387.445.445,0,0,0,.271.206.951.951,0,0,0,.916-.251,1.677,1.677,0,0,0,.443-.877,2.181,2.181,0,0,0-.061-1.194c-.148-.4-.655-1.079-1.167-.934-.244.069-.23.293-.193.5a6.457,6.457,0,0,1,.123,1.043" transform="translate(-123.135 -54.384)" fill="#f79b63"/>
            <path id="Trazado_597900" data-name="Trazado 597900" d="M338.475,143.528s4.512,3.4,7.7-.486a1.494,1.494,0,0,1-1.347-.623,5.245,5.245,0,0,0,2.487.365c.937-.246,1.547,1.739,1.547,1.739l.637-.261-.57-1.619s.111-.777,1.12-.6,1.858,2.544-.042,2.876c0,0,2.127,2.575,4.7.625a2.218,2.218,0,0,1-1.3-1.638c-.129-1.155.408-6.312-4-7.733,0,0-.286-1.3.442-1.613a2.2,2.2,0,0,0-1.9,1.144,3.009,3.009,0,0,1,.1-1.314s-.925.376-.967,1.174a7.621,7.621,0,0,0-7.591,3.281c-2.957,4.291-1.024,4.679-1.024,4.679" transform="translate(-121.028 -48.143)" fill="#2c173c"/>
            <path id="Trazado_597901" data-name="Trazado 597901" d="M344.3,150.89a1.318,1.318,0,0,0,.6.465,1.154,1.154,0,0,0,.734,0c.242-.076.483-.192.544-.383a.873.873,0,0,0-.148-.684l-.006-.009a.091.091,0,0,1,.145-.108.971.971,0,0,1,.306.893,1,1,0,0,1-.753.606,1.3,1.3,0,0,1-1.583-.7.091.091,0,0,1,.156-.092Z" transform="translate(-123.275 -53.786)" fill="#03123f"/>
            <path id="Trazado_597902" data-name="Trazado 597902" d="M349.6,157.251a3.717,3.717,0,0,0,2.175-2.179.091.091,0,0,1,.175.051v0a3.253,3.253,0,0,1-.925,1.357,4.524,4.524,0,0,1-1.4.845.041.041,0,0,1-.031-.077Z" transform="translate(-125.226 -55.527)" fill="#03123f"/>
            <path id="Trazado_597903" data-name="Trazado 597903" d="M362.186,127.35a1.262,1.262,0,0,0,.431-.1.459.459,0,0,0,.262-.338.438.438,0,0,0-.2-.392.882.882,0,0,0-.44-.129c-.6-.04-1.19.209-1.794.213a.733.733,0,0,1-.337-.061.582.582,0,0,1-.232-.239,1.676,1.676,0,0,1-.162-.7,25.93,25.93,0,0,1-.071-2.726,11.329,11.329,0,0,0-.031-1.873.386.386,0,0,0-.077-.214.264.264,0,0,0-.327-.024.541.541,0,0,0-.2.286,2.6,2.6,0,0,0-.063,1.044c.025.39.035.781.029,1.171a.14.14,0,0,1-.039.117.111.111,0,0,1-.087.012c-.211-.039-.3-.289-.35-.5a7.79,7.79,0,0,0-.524-1.424.454.454,0,0,0-.184-.228.322.322,0,0,0-.409.229.928.928,0,0,0,.048.524l.5,1.723a.905.905,0,0,1-.614-.383,7.027,7.027,0,0,0-.449-.594.437.437,0,0,0-.466-.153.338.338,0,0,0-.17.32.816.816,0,0,0,.124.359c.389.694,1.069,1.267,1.157,2.057a8.734,8.734,0,0,1-.031.951c0,.774.474,1.846,1.4,1.777a2.031,2.031,0,0,0,.37-.074,2.762,2.762,0,0,0,.691-.229,2.127,2.127,0,0,1,.678-.217c.26-.05.523-.081.786-.107l.4-.037a1.318,1.318,0,0,1,.4-.04" transform="translate(-127.608 -43.244)" fill="#f79b63"/>
            <path id="Trazado_597904" data-name="Trazado 597904" d="M361.063,153.188c-.432,0-.713-.019-1.06-.041-.33-.024-.656-.058-.981-.1-.65-.078-1.3-.2-1.945-.338a15.193,15.193,0,0,1-3.85-1.42,9.707,9.707,0,0,1-3.353-2.987,8.615,8.615,0,0,1-1.453-4.327,13.666,13.666,0,0,1,.44-4.123,22.487,22.487,0,0,1,1.333-3.594,42.342,42.342,0,0,1,3.713-6.285,1.947,1.947,0,0,1,3.233,2.169l-.019.028a38.438,38.438,0,0,0-3.173,5.754,18.559,18.559,0,0,0-1,2.939,9.477,9.477,0,0,0-.223,2.759,4.409,4.409,0,0,0,2.637,3.666,10.7,10.7,0,0,0,2.679.879c.487.089.982.165,1.483.209.25.021.5.039.748.049.23.009.528.015.675.008a2.377,2.377,0,0,1,.227,4.748l-.1,0Z" transform="translate(-124.805 -46.261)" fill="#fab850"/>
            <path id="Trazado_597905" data-name="Trazado 597905" d="M356.643,164.033a18.333,18.333,0,0,0,7.69,1.655" transform="translate(-127.758 -58.761)" fill="none" stroke="#03123f" stroke-linecap="round" stroke-linejoin="round" stroke-width="0.283"/>
            <path id="Trazado_597906" data-name="Trazado 597906" d="M362.693,158.631a17.19,17.19,0,0,0,3.546.369,2.336,2.336,0,0,1,1.7.775" transform="translate(-129.926 -56.826)" fill="none" stroke="#03123f" stroke-linecap="round" stroke-linejoin="round" stroke-width="0.283"/>
            <path id="Trazado_597907" data-name="Trazado 597907" d="M376.975,206.439a3.638,3.638,0,0,0-5.142-.189c-.638.592-14.34,13.525-14.864,29.573.021.79.277,4.682,3.412,4.747,3.6.075,3.844-3.621,3.844-3.621h0c-.108-13.328,12.355-25.178,12.56-25.371a3.639,3.639,0,0,0,.187-5.14" transform="translate(-127.875 -73.535)" fill="#03123f"/>
            <path id="Trazado_597908" data-name="Trazado 597908" d="M116.032,158.414V128.643H84.457a8.108,8.108,0,1,0-16.216,0H36.666v71.995a7.393,7.393,0,0,0,7.371,7.371h72V174.63a8.108,8.108,0,0,1,0-16.216" transform="translate(-13.135 -43.179)" fill="#afafaf"/>
            <path id="Trazado_597909" data-name="Trazado 597909" d="M120.444,37.862l2.8-31.451L51.53.03a7.392,7.392,0,0,0-7.995,6.688L37.154,78.43l31.451,2.8a8.108,8.108,0,1,1,16.152,1.438l31.451,2.8,2.8-31.451a8.108,8.108,0,1,0,1.438-16.152" transform="translate(-13.309 0)" fill="#ff2195"/>
            <g id="Grupo_155646" data-name="Grupo 155646" transform="translate(53.495 8.131)" style="mix-blend-mode: multiply;isolation: isolate">
              <g id="Grupo_155645" data-name="Grupo 155645">
                <g id="Grupo_155644" data-name="Grupo 155644" clip-path="url(#clip-path-10)">
                  <path id="Trazado_597910" data-name="Trazado 597910" d="M105.749,12.669s-.481,15.884-13.959,23.746L90.046,52.78s8.985,3.53,7.851,9.787L83.354,58.028l.893-27.711s16.529-4.653,21.5-17.649" transform="translate(-83.354 -12.669)" fill="#939598"/>
                </g>
              </g>
            </g>
            <path id="Trazado_597911" data-name="Trazado 597911" d="M44.182,13.209c-.029-.257.212-.429.441-.576l.134-1.51a2.056,2.056,0,0,0-.858.031,6.842,6.842,0,0,0-1.982.635A2.319,2.319,0,0,0,40.7,13.4c-.127.907.286,2.163,1.273,2.323a2.288,2.288,0,0,0,1.013,0,.883.883,0,0,0,.657-.7c.079-.809.8-.6,1.5-.672a.653.653,0,0,0,.411-.138c.71-.707-1.18-.718-1.37-.993" transform="translate(-14.57 -3.972)" fill="#f79b63"/>
            <path id="Trazado_597912" data-name="Trazado 597912" d="M57.187,34.868c-.658-.006-1.159-.042-1.725-.09-.549-.052-1.094-.113-1.637-.2a27.276,27.276,0,0,1-3.236-.677,20.783,20.783,0,0,1-6.2-2.794,14.2,14.2,0,0,1-4.737-5.375,15.689,15.689,0,0,1-1.555-6.912,2.377,2.377,0,0,1,4.753-.066v.066a10.969,10.969,0,0,0,1.008,4.837,9.512,9.512,0,0,0,3.171,3.649,16.211,16.211,0,0,0,4.794,2.2,22.638,22.638,0,0,0,2.693.592c.456.076.915.131,1.373.18.441.044.949.079,1.3.086l.07,0a2.25,2.25,0,0,1-.07,4.5" transform="translate(-13.646 -5.88)" fill="#7fccbe"/>
            <path id="Trazado_597913" data-name="Trazado 597913" d="M116.848,3.718a1.47,1.47,0,0,0-.166-.949.658.658,0,0,0-.85-.251c-.177.112-.288.337-.495.373-.421.073-.537-.652-.947-.773-.472-.139-.8.61-1.3.59a1.173,1.173,0,0,1-.571-.292.779.779,0,0,0-.962-.055c-.21.212-.175.573-.35.816a.987.987,0,0,1-1.107.182,2.217,2.217,0,0,0-.8-.181c-.274.019-.562.234-.537.508.033.352.477.46.8.6.736.307,1.126,1.1,1.733,1.621a4.95,4.95,0,0,0,2.371.918,1.879,1.879,0,0,0,2.1-.655,4.762,4.762,0,0,0,1.071-2.45" transform="translate(-38.964 -0.753)" fill="#f79b63"/>
            <g id="Grupo_155649" data-name="Grupo 155649" transform="translate(45.77 59.035)" style="mix-blend-mode: multiply;isolation: isolate">
              <g id="Grupo_155648" data-name="Grupo 155648">
                <g id="Grupo_155647" data-name="Grupo 155647" clip-path="url(#clip-path-11)">
                  <path id="Trazado_597914" data-name="Trazado 597914" d="M93.428,91.987V114.1H74.483V91.987H71.318v105.8h3.165V180.85H93.428v16.932h3.165V91.987Zm0,43.362H74.483V115.689H93.428Zm0,21.959H74.483V136.932H93.428Zm-18.946,1.584H93.428v20.375H74.483Z" transform="translate(-71.318 -91.987)" fill="#939598"/>
                </g>
              </g>
            </g>
            <path id="Trazado_597915" data-name="Trazado 597915" d="M95.121,94.881H69.976l.973-2.894H96.113Z" transform="translate(-25.067 -32.952)" fill="#939598"/>
            <rect id="Rectángulo_45013" data-name="Rectángulo 45013" width="21.922" height="1.584" transform="translate(41.188 75.793)" fill="#939598"/>
            <path id="Trazado_597916" data-name="Trazado 597916" d="M86.792,114.6a1.306,1.306,0,0,0,.1,1.287,1.37,1.37,0,0,0,.793.312,32.976,32.976,0,0,0,6.806.63,1.93,1.93,0,0,0,.929-.211.715.715,0,0,0,.347-.817,1.063,1.063,0,0,0-.481-.462l-1.451-.891a14.6,14.6,0,0,0-5.093-2.285c-1.378-.228-1.619,1.372-1.947,2.437" transform="translate(-31.048 -40.17)" fill="#f79b63"/>
            <rect id="Rectángulo_45014" data-name="Rectángulo 45014" width="21.922" height="1.584" transform="translate(33.685 98.381)" fill="#939598"/>
            <rect id="Rectángulo_45015" data-name="Rectángulo 45015" width="21.922" height="1.584" transform="translate(25.84 120.969)" fill="#939598"/>
            <rect id="Rectángulo_45016" data-name="Rectángulo 45016" width="21.922" height="1.584" transform="translate(17.996 143.557)" fill="#939598"/>
            <rect id="Rectángulo_45017" data-name="Rectángulo 45017" width="21.922" height="1.584" transform="translate(10.459 166.145)" fill="#939598"/>
            <path id="Trazado_597917" data-name="Trazado 597917" d="M82.965,91.987,41.8,212.163l2.732.936L86.018,91.987Z" transform="translate(-14.973 -32.952)" fill="#d1d3d4"/>
            <path id="Trazado_597918" data-name="Trazado 597918" d="M48.513,91.987,7.344,212.163l2.733.936L51.566,91.987Z" transform="translate(-2.631 -32.952)" fill="#d1d3d4"/>
            <path id="Trazado_597919" data-name="Trazado 597919" d="M72.435,31.9s-8.016-1.954-8.175,13.143,0,15.992,0,15.992,8.372,2.3,16.033,0l.136-17.143S80.895,31.9,72.435,31.9" transform="translate(-22.994 -11.398)" fill="#92e7d6"/>
            <g id="Grupo_155652" data-name="Grupo 155652" transform="translate(54.384 27.753)" style="mix-blend-mode: multiply;isolation: isolate">
              <g id="Grupo_155651" data-name="Grupo 155651">
                <g id="Grupo_155650" data-name="Grupo 155650" clip-path="url(#clip-path-12)">
                  <path id="Trazado_597920" data-name="Trazado 597920" d="M87.3,43.244a.563.563,0,0,0-.137.037c-.757.336-2.508.653-2.421.839a45.869,45.869,0,0,1,3.009,8.7l.039-4.837a20.436,20.436,0,0,0-.49-4.742" transform="translate(-84.74 -43.244)" fill="#d1d3d4"/>
                </g>
              </g>
            </g>
            <path id="Trazado_597921" data-name="Trazado 597921" d="M82.07,25.622c.182-.015.5-.058.764-.1l.836-.136c.56-.1,1.122-.22,1.681-.353a30.716,30.716,0,0,0,3.3-.98,23.683,23.683,0,0,0,5.954-3.1,15.105,15.105,0,0,0,4.288-4.75,14.789,14.789,0,0,0,1.81-6.157l.005-.062a2.24,2.24,0,0,1,4.468.311,19.427,19.427,0,0,1-2.108,8.15,19.981,19.981,0,0,1-5.419,6.473,28.741,28.741,0,0,1-7.124,4.046A35.836,35.836,0,0,1,86.7,30.253q-.971.268-1.962.484l-1,.2c-.354.063-.649.117-1.086.172h-.006a2.759,2.759,0,0,1-.691-5.475c.037-.005.084-.01.121-.013" transform="translate(-28.492 -2.848)" fill="#92e7d6"/>
            <path id="Trazado_597922" data-name="Trazado 597922" d="M59.406,122.721a3.639,3.639,0,0,1-3.172-5.414c8.836-15.808,6.384-33.451,6.359-33.627a3.638,3.638,0,0,1,7.2-1.053c.12.82,2.821,20.288-7.207,38.23a3.638,3.638,0,0,1-3.179,1.864" transform="translate(-19.978 -28.484)" fill="#05223a"/>
            <path id="Trazado_597923" data-name="Trazado 597923" d="M64.235,77.345s-1.72,7.423,8.051,7.7,7.982-7.7,7.982-7.7-6.472,1.929-16.033,0" transform="translate(-22.969 -27.707)" fill="#062b4f"/>
            <path id="Trazado_597924" data-name="Trazado 597924" d="M86.7,103.246a4.062,4.062,0,0,1-2.09-.567,2.836,2.836,0,0,1-.882-4.335c7.481-9.091,6.072-11.972,5.714-12.457-1.187-1.606-6.268-1.634-8.6-1.294a3.624,3.624,0,0,1-4.2-2.543,3.2,3.2,0,0,1,2.974-3.59c1.2-.175,11.8-1.543,15.976,4.1,3.189,4.317,1.255,10.649-5.914,19.36a3.853,3.853,0,0,1-2.979,1.321" transform="translate(-27.438 -28.01)" fill="#062b4f"/>
            <path id="Trazado_597925" data-name="Trazado 597925" d="M67.441,17.882a4.555,4.555,0,0,0,.279,1.89c.562,1.227,2.045,1.694,3.375,1.925a26.665,26.665,0,0,0,4.862.395,3.04,3.04,0,0,0,1.209-.187c.943-.419,1.251-1.586,1.407-2.607a44.055,44.055,0,0,0,.512-6.772,3.243,3.243,0,0,0-.537-2.147A3.109,3.109,0,0,0,77,9.55a25.161,25.161,0,0,0-5.352-.914c-.9-.061-2.382-.11-3.059.61a2.9,2.9,0,0,0-.6,1.268,27.635,27.635,0,0,0-.545,7.368" transform="translate(-24.155 -3.082)" fill="#f79b63"/>
            <path id="Trazado_597926" data-name="Trazado 597926" d="M73.755,28.493V31.55l2.639.278.417-3.334Z" transform="translate(-26.421 -10.207)" fill="#f79b63"/>
            <path id="Trazado_597927" data-name="Trazado 597927" d="M67.513,5.582A5.273,5.273,0,0,1,67.955,6.6l.427-.783c.039-.073.1-.157.183-.139s.1.119.109.2c.018.221.035.441.053.662.441.231.966-.017,1.434-.189a7.716,7.716,0,0,1,4.258-.011c1.4.3,2.763.716,4.129,1.13a1.736,1.736,0,0,1,.466.192,1.251,1.251,0,0,1,.424.533,2.668,2.668,0,0,1-.837,3.036,4.561,4.561,0,0,1-3.183.895,1.116,1.116,0,0,0-.739.118,1.009,1.009,0,0,0-.308.662,18.3,18.3,0,0,0-.239,1.878c.153-.308-.255-.657-.589-.576a1.114,1.114,0,0,0-.675.728,1.705,1.705,0,0,0-.058,1.368.844.844,0,0,0,1.173.393.918.918,0,0,1-.245.941,3.364,3.364,0,0,0-.64.8,1.031,1.031,0,0,0,.5,1.289.74.74,0,0,1,.284.164.364.364,0,0,1-.107.492,1.023,1.023,0,0,1-.533.153,20.867,20.867,0,0,1-7-.553,2.232,2.232,0,0,1-1.127-.544.332.332,0,0,1-.093-.157.414.414,0,0,1,.088-.273,5.61,5.61,0,0,0,.433-3.887c-.241-1.311-.692-2.584-.825-3.91a4.807,4.807,0,0,1,.137-1.9,3.437,3.437,0,0,1,1.5-1.886c.245-.148.952-.262,1.1-.455.186-.236-.026-1.047.049-1.384" transform="translate(-23.173 -2)" fill="#03123f"/>
            <path id="Trazado_597928" data-name="Trazado 597928" d="M66.758,30.811A4.028,4.028,0,0,0,63.7,32.954c-.5,1.315.271,2.711,1.023,3.938l.954,1.554a2.284,2.284,0,0,0,1.033,1.045,2.819,2.819,0,0,0,1.527.017c3.073-.571,6.612-1.853,8.363-4.2,1.844-2.476-1.379-3.462-3.548-4.016a14.9,14.9,0,0,0-6.3-.479" transform="translate(-22.762 -10.977)" fill="#7fccbe"/>
            <path id="Trazado_597929" data-name="Trazado 597929" d="M86.782,43.224a11.682,11.682,0,0,1-3.428.89" transform="translate(-29.859 -15.484)" fill="none" stroke="#03123f" stroke-linecap="round" stroke-linejoin="round" stroke-width="0.283"/>
            <path id="Trazado_597930" data-name="Trazado 597930" d="M56.829,141.762a3.21,3.21,0,0,1,1.143-.128,2.51,2.51,0,0,1,1.15.2,2.336,2.336,0,0,1,.981,1.723,11.547,11.547,0,0,1,.162,3.253,1.128,1.128,0,0,0,.187.949,1.212,1.212,0,0,0,.633.229,4.272,4.272,0,0,1,.917.278c.311.133.651.387.6.721a.689.689,0,0,1-.318.431,3.434,3.434,0,0,1-2.7.153l-1.69-.373a2.047,2.047,0,0,1-.765-.281,1.909,1.909,0,0,1-.617-1.075,12.539,12.539,0,0,1-.49-3.452c0-.88-.2-2.261.807-2.629" transform="translate(-20.062 -50.736)" fill="#f79b63"/>
            <path id="Trazado_597931" data-name="Trazado 597931" d="M167.321,238.342s-12.824,7.77-7.581,12.4c6.5,3.021,7.581-12.4,7.581-12.4" transform="translate(-56.772 -85.38)" fill="#35cba8"/>
            <path id="Trazado_597932" data-name="Trazado 597932" d="M161.192,250.532l-.012-.009a.082.082,0,0,1-.006-.116c2.973-3.317,6.353-10.281,6.387-10.351a.082.082,0,0,1,.109-.038.079.079,0,0,1,.039.109c-.034.07-3.424,7.054-6.413,10.389a.081.081,0,0,1-.1.015" transform="translate(-57.729 -85.978)" fill="#2aa289"/>
            <path id="Trazado_597933" data-name="Trazado 597933" d="M163.152,253.672a.082.082,0,0,1,.031-.151l2.613-.357a.082.082,0,1,1,.022.162l-2.613.358a.082.082,0,0,1-.054-.012" transform="translate(-58.431 -90.689)" fill="#2aa289"/>
            <path id="Trazado_597934" data-name="Trazado 597934" d="M163.993,250.455a.079.079,0,0,1-.03-.033l-1.151-2.288a.082.082,0,0,1,.146-.074l1.151,2.288a.082.082,0,0,1-.116.107" transform="translate(-58.32 -88.846)" fill="#2aa289"/>
            <path id="Trazado_597935" data-name="Trazado 597935" d="M166.124,249.337a.082.082,0,0,1,.04-.151l2.027-.076a.082.082,0,1,1,.006.163l-2.028.076a.085.085,0,0,1-.046-.012" transform="translate(-59.496 -89.237)" fill="#2aa289"/>
            <path id="Trazado_597936" data-name="Trazado 597936" d="M167.688,246.821a.082.082,0,0,1,.044-.151l1.586.03a.082.082,0,0,1,0,.164l-1.587-.03a.09.09,0,0,1-.041-.012" transform="translate(-60.056 -88.363)" fill="#2aa289"/>
            <path id="Trazado_597937" data-name="Trazado 597937" d="M167.716,244.939a.09.09,0,0,1-.024-.022l-.973-1.374a.082.082,0,1,1,.133-.094l.974,1.373a.082.082,0,0,1-.11.117" transform="translate(-59.717 -87.197)" fill="#2aa289"/>
            <g id="Grupo_155655" data-name="Grupo 155655" transform="translate(101.71 157.831)" style="mix-blend-mode: multiply;isolation: isolate">
              <g id="Grupo_155654" data-name="Grupo 155654">
                <g id="Grupo_155653" data-name="Grupo 155653" clip-path="url(#clip-path-13)">
                  <path id="Trazado_597938" data-name="Trazado 597938" d="M161.168,245.929c-2.34,2.443-3.91,5.339-1.427,7.532a4.261,4.261,0,0,0,.982.32c2.573-2.45,1.051-6.516.445-7.851" transform="translate(-158.482 -245.929)" fill="#2aa289"/>
                </g>
              </g>
            </g>
            <path id="Trazado_597939" data-name="Trazado 597939" d="M153.871,235.869s-4.128,14.414,2.866,14.25c6.821-2.2-2.866-14.25-2.866-14.25" transform="translate(-54.687 -84.494)" fill="#35cba8"/>
            <path id="Trazado_597940" data-name="Trazado 597940" d="M157.353,249.859l-.015,0a.082.082,0,0,1-.083-.081c-.073-4.455-2.326-11.86-2.348-11.934a.082.082,0,0,1,.054-.1.079.079,0,0,1,.1.055c.023.074,2.282,7.5,2.355,11.979a.082.082,0,0,1-.065.081" transform="translate(-55.49 -85.164)" fill="#2aa289"/>
            <path id="Trazado_597941" data-name="Trazado 597941" d="M158.439,252.268a.081.081,0,0,1-.068-.017.082.082,0,0,1-.012-.115l1.674-2.038a.082.082,0,1,1,.126.1l-1.674,2.038a.087.087,0,0,1-.047.028" transform="translate(-56.722 -89.581)" fill="#2aa289"/>
            <path id="Trazado_597942" data-name="Trazado 597942" d="M156.734,250.328a.078.078,0,0,1-.045,0l-2.4-.9a.082.082,0,0,1,.057-.153l2.4.9a.082.082,0,0,1-.012.157" transform="translate(-55.252 -89.295)" fill="#2aa289"/>
            <path id="Trazado_597943" data-name="Trazado 597943" d="M157.567,247.291a.082.082,0,0,1-.074-.138l1.436-1.434a.082.082,0,0,1,.116.116l-1.436,1.434a.081.081,0,0,1-.042.022" transform="translate(-56.409 -88.014)" fill="#2aa289"/>
            <path id="Trazado_597944" data-name="Trazado 597944" d="M156.976,244.561a.08.08,0,0,1-.077-.026.082.082,0,0,1,.006-.116l1.185-1.056a.081.081,0,0,1,.116.006.083.083,0,0,1-.006.116l-1.185,1.056a.081.081,0,0,1-.039.019" transform="translate(-56.198 -87.172)" fill="#2aa289"/>
            <path id="Trazado_597945" data-name="Trazado 597945" d="M155.717,243.751a.1.1,0,0,1-.033,0l-1.647-.347a.082.082,0,0,1-.063-.1.081.081,0,0,1,.1-.063l1.647.347a.081.081,0,0,1,.064.1.083.083,0,0,1-.064.064" transform="translate(-55.156 -87.136)" fill="#2aa289"/>
          </g>
        </g>
      </g>
    </g>
    <path id="Trazado_600456" data-name="Trazado 600456" d="M12.71,0A12.71,12.71,0,1,1,0,12.71,12.71,12.71,0,0,1,12.71,0Z" transform="translate(631.601 2029.084)" fill="url(#radial-gradient)"/>
    <path id="Trazado_600457" data-name="Trazado 600457" d="M11.5,0A11.5,11.5,0,1,1,0,11.5,11.5,11.5,0,0,1,11.5,0Z" transform="translate(927 2144)" fill="url(#radial-gradient-2)"/>
    <path id="Trazado_600458" data-name="Trazado 600458" d="M11.5,0A11.5,11.5,0,1,1,0,11.5,11.5,11.5,0,0,1,11.5,0Z" transform="translate(1187 1976)" fill="url(#radial-gradient-3)"/>
  </g>
</svg>
