<svg xmlns="http://www.w3.org/2000/svg" width="71" height="71" viewBox="0 0 71 71">
  <g id="Grupo_156000" data-name="Grupo 156000" transform="translate(-285 -3325)">
    <circle id="Elipse_5543" data-name="Elipse 5543" cx="35.5" cy="35.5" r="35.5" transform="translate(285 3325)" fill="#ffe9f6"/>
    <g id="exam" transform="translate(243.765 3336.246)">
      <g id="Grupo_155608" data-name="Grupo 155608" transform="translate(60.236)">
        <g id="Grupo_155607" data-name="Grupo 155607">
          <path id="Trazado_597802" data-name="Trazado 597802" d="M89.648,5.115H85.592a3.843,3.843,0,0,0-3.616-2.558h-1.5a3.837,3.837,0,0,0-7.234,0h-1.5a3.842,3.842,0,0,0-3.616,2.558H64.072a3.841,3.841,0,0,0-3.836,3.836V39.642a3.841,3.841,0,0,0,3.836,3.836H89.648a3.841,3.841,0,0,0,3.836-3.836V8.952A3.841,3.841,0,0,0,89.648,5.115ZM70.466,6.394a1.28,1.28,0,0,1,1.279-1.279H74.3a1.279,1.279,0,0,0,1.279-1.279,1.279,1.279,0,0,1,2.558,0,1.279,1.279,0,0,0,1.279,1.279h2.558a1.28,1.28,0,0,1,1.279,1.279V7.673H70.466ZM90.927,39.642a1.28,1.28,0,0,1-1.279,1.279H64.072a1.28,1.28,0,0,1-1.279-1.279V8.952a1.28,1.28,0,0,1,1.279-1.279h3.836V8.952a1.279,1.279,0,0,0,1.279,1.279H84.533a1.279,1.279,0,0,0,1.279-1.279V7.673h3.836a1.28,1.28,0,0,1,1.279,1.279V39.642Z" transform="translate(-60.236)" fill="#6f88aa"/>
        </g>
      </g>
      <g id="Grupo_155610" data-name="Grupo 155610" transform="translate(66.63 15.345)">
        <g id="Grupo_155609" data-name="Grupo 155609" transform="translate(0)">
          <path id="Trazado_597803" data-name="Trazado 597803" d="M141.924,180.706h-5.115a1.279,1.279,0,1,0,0,2.558h5.115a1.279,1.279,0,1,0,0-2.558Z" transform="translate(-135.53 -180.706)" fill="#6f88aa"/>
        </g>
      </g>
      <g id="Grupo_155612" data-name="Grupo 155612" transform="translate(66.63 24.297)">
        <g id="Grupo_155611" data-name="Grupo 155611" transform="translate(0)">
          <path id="Trazado_597804" data-name="Trazado 597804" d="M141.924,286.118h-5.115a1.279,1.279,0,0,0,0,2.558h5.115a1.279,1.279,0,0,0,0-2.558Z" transform="translate(-135.53 -286.118)" fill="#6f88aa"/>
        </g>
      </g>
      <g id="Grupo_155614" data-name="Grupo 155614" transform="translate(66.63 33.248)">
        <g id="Grupo_155613" data-name="Grupo 155613" transform="translate(0)">
          <path id="Trazado_597805" data-name="Trazado 597805" d="M141.924,391.529h-5.115a1.279,1.279,0,1,0,0,2.558h5.115a1.279,1.279,0,1,0,0-2.558Z" transform="translate(-135.53 -391.529)" fill="#6f88aa"/>
        </g>
      </g>
      <g id="Grupo_155616" data-name="Grupo 155616" transform="translate(78.139 14.067)">
        <g id="Grupo_155615" data-name="Grupo 155615" transform="translate(0)">
          <path id="Trazado_597806" data-name="Trazado 597806" d="M279.635,166.021a1.279,1.279,0,0,0-1.808,0l-2.932,2.932-1.653-1.653a1.279,1.279,0,1,0-1.808,1.808l2.558,2.558a1.279,1.279,0,0,0,1.809,0l3.836-3.836A1.279,1.279,0,0,0,279.635,166.021Z" transform="translate(-271.058 -165.646)" fill="#6f88aa"/>
        </g>
      </g>
      <g id="Grupo_155618" data-name="Grupo 155618" transform="translate(78.139 21.739)">
        <g id="Grupo_155617" data-name="Grupo 155617" transform="translate(0)">
          <path id="Trazado_597807" data-name="Trazado 597807" d="M279.635,256.374a1.279,1.279,0,0,0-1.808,0l-2.932,2.932-1.653-1.653a1.279,1.279,0,1,0-1.808,1.808l2.558,2.558a1.279,1.279,0,0,0,1.809,0l3.836-3.836A1.279,1.279,0,0,0,279.635,256.374Z" transform="translate(-271.058 -255.999)" fill="#6f88aa"/>
        </g>
      </g>
      <g id="Grupo_155620" data-name="Grupo 155620" transform="translate(78.139 30.691)">
        <g id="Grupo_155619" data-name="Grupo 155619" transform="translate(0)">
          <path id="Trazado_597808" data-name="Trazado 597808" d="M276.7,365.248l1.653-1.653a1.279,1.279,0,0,0-1.809-1.808l-1.653,1.653-1.653-1.653a1.279,1.279,0,1,0-1.808,1.808l1.653,1.653-1.653,1.653a1.279,1.279,0,0,0,1.809,1.808l1.653-1.653,1.653,1.653a1.279,1.279,0,0,0,1.808-1.809Z" transform="translate(-271.058 -361.411)" fill="#6f88aa"/>
        </g>
      </g>
    </g>
  </g>
</svg>
