<svg id="Grupo_156073" data-name="Grupo 156073" xmlns="http://www.w3.org/2000/svg" xmlns:xlink="http://www.w3.org/1999/xlink" width="64.208" height="125.305" viewBox="0 0 64.208 125.305">
  <defs>
    <clipPath id="clip-path">
      <rect id="Rectángulo_45186" data-name="Rectángulo 45186" width="64.208" height="125.305" fill="none"/>
    </clipPath>
  </defs>
  <g id="Grupo_156067" data-name="Grupo 156067" transform="translate(0 0)" clip-path="url(#clip-path)">
    <path id="Trazado_598834" data-name="Trazado 598834" d="M1.911,14.311V8.1S2.214.441,9.564.441H57.235s6.671-1.136,6.518,13.87-.606,102.768-.606,102.768.3,6.366-7.125,7.277-43.2,0-43.2,0-9.853.909-10.913-6.973,0-70.18,0-70.18L.294,46.092v-8.64l1.262-1.263V33.915H.294V25.477H1.658V17.949" transform="translate(0.02 0.029)" fill="#fff"/>
    <path id="Trazado_598835" data-name="Trazado 598835" d="M1.877,14.34l-.045-4.122c-.185-2.723.31-5.747,2.282-7.788C6.063.219,9.229.13,11.93.2l4.12-.027C21.4.127,51.262.024,57.255,0a4.9,4.9,0,0,1,2.832.788c5.2,4.175,3.921,12.5,4.1,18.375-.263,21.118-.6,44.311-.635,65.306l-.048,21.767L63.5,117.126c.128,3.967-3.244,7.22-7.072,7.582-14.5,1.114-29.067.351-43.593.219-3.311.184-7.73-.586-9.994-3.669-2.188-3.157-1.541-7.03-1.8-10.591-.258-14.107-.07-28.2.165-42.3l.406-21.14.14.272L.136,46.379,0,46.284V46.12l.048-8.639V37.37l.078-.077L1.4,36.037l-.075.181.013-2.274.243.243L.313,34.175l-.234,0,0-.229.087-8.438,0-.147.142,0,1.365.014-.132.13.078-7.528h.107l.077,7.528v.129H1.678l-1.365.014.145-.144.087,8.438-.232-.232c.19-.013,1.352,0,1.506-.014v.246l.012,2.274c.007.122,0,.107-.075.181L.5,37.668l.078-.187L.627,46.12l-.136-.258,1.623,1.1.141.1v.176L2.08,68.377c.022,12.384-.228,30.045.072,42.264.247,3.295-.335,7.151,1.6,9.945,2.029,2.7,5.883,3.423,9.106,3.256,14.462.2,29.012,1.018,43.451.1a6.97,6.97,0,0,0,6.53-6.809l.114-10.886.21-21.773c.261-20.963.1-44.233.135-65.318-.2-5.65.984-13.594-3.733-17.58A3.583,3.583,0,0,0,57.255.938L24.291.82,16.049.767c-2.363.057-5.9-.216-8.182.119C4.391,1.408,2.276,4.85,2.051,8.162c0,1.239-.064,4.875-.067,6.178H1.877" transform="translate(0 0)" fill="#445666"/>
    <rect id="Rectángulo_45184" data-name="Rectángulo 45184" width="17.333" height="15.834" transform="translate(22.967 23.634)" fill="#fff"/>
    <path id="Trazado_598836" data-name="Trazado 598836" d="M39.458,34.2c-.006-1.482-.021-2.965-.033-4.448q-.014-2.113-.058-4.226c-.014-.77.009-1.553-.045-2.321A3.686,3.686,0,0,0,39,22.016c.1-.17.045-.314-.308-.345-2.847-.249-5.82-.037-8.678-.01-1.428.014-5.141.042-6.568.082-1.348.037-1.348.037-1.687.359-.021-.056-.042-.111-.064-.165-.045-.1-.253.029-.276.094-.013.037-.02.076-.032.114-.035.014-.087.064-.028.072h.007a15.468,15.468,0,0,0-.31,3.925c-.03,1.468-.057,2.937-.066,4.406l-.029,4.185c0,.765-.029,1.534-.005,2.3a2.729,2.729,0,0,0,.321,1.679c.16.274,2.888.118,4.021.133,1.477.02,2.953.024,4.43.028,2.832.006,5.879.337,8.674-.161h0c.141.277.859-.136.909-.347a18.083,18.083,0,0,0,.148-4.161M34.787,38l-4.456.011c-2.747.006-8.239-.036-8.239-.036s.028-.689.055-1.136c.047-.763.01-1.534.005-2.3q-.016-2.187-.03-4.374c-.01-1.385-.034-2.769-.062-4.154a14.267,14.267,0,0,0-.244-3.737c.349.279.349.279,1.549.313,1.4.041,4.727.1,6.126.11,2.8.027,8.865-.133,8.865-.133a4.57,4.57,0,0,1,0,.754c-.09.765-.028,1.581-.041,2.35q-.04,2.239-.055,4.478c-.007,1.418-.018,2.836-.024,4.254a23.7,23.7,0,0,0,.026,3.675A22.665,22.665,0,0,0,34.787,38" transform="translate(1.455 1.497)" fill="#6f88aa"/>
    <path id="Trazado_598837" data-name="Trazado 598837" d="M34.1,26.595a17.069,17.069,0,0,0,3.127-3.067c.1-.161-.127-.152-.221-.1a17.65,17.65,0,0,0-3.323,2.7q-1.744,1.561-3.432,3.184c-.048.046-.1.094-.143.14-1.154-1.041-2.323-2.066-3.524-3.053a17.594,17.594,0,0,0-3.894-2.851c-.046-.019-.207.055-.167.118a17.545,17.545,0,0,0,3.3,3.039c1.23,1.082,2.454,2.172,3.653,3.289.015.013.029.027.043.04q-1.3,1.269-2.567,2.57a23.54,23.54,0,0,0-3,3.345c-.251.386.4.3.568.156a69.906,69.906,0,0,0,5.539-5.563q1.431,1.344,2.831,2.723.841.831,1.665,1.678A6.285,6.285,0,0,0,36.4,36.532c.125.055.4-.106.36-.253a4.58,4.58,0,0,0-1.341-1.719q-.828-.844-1.669-1.675-1.527-1.5-3.111-2.946.135-.136.27-.27,1.579-1.556,3.191-3.075" transform="translate(1.564 1.625)" fill="#6f88aa"/>
    <path id="Trazado_598838" data-name="Trazado 598838" d="M40.739,98a25.591,25.591,0,0,0-4.407-.168q-2.855,0-5.712,0-2.759.006-5.518.029a31.8,31.8,0,0,0-5.71.273c-.064.013-.185.2,0,.249a20,20,0,0,0,4.939.273c1.9.019,3.792.026,5.688.03a82.588,82.588,0,0,0,10.72-.16c.147-.019.381-.472,0-.529" transform="translate(1.34 6.794)" fill="#6f88aa"/>
    <path id="Trazado_598839" data-name="Trazado 598839" d="M40.74,101.466a28.351,28.351,0,0,0-5.133-.154l-5.356.009c-3.443.006-7.447-.261-10.858.228-.086.012-.232.277,0,.318a31.231,31.231,0,0,0,4.983.2q2.666.022,5.33.028l5.129.01a42.653,42.653,0,0,0,5.906-.152c.128-.019.357-.417,0-.487" transform="translate(1.338 7.032)" fill="#6f88aa"/>
    <rect id="Rectángulo_45185" data-name="Rectángulo 45185" width="46.075" height="25.597" transform="translate(9.511 45.804)" fill="#fff"/>
    <path id="Trazado_598840" data-name="Trazado 598840" d="M55.8,63c-.009-1.971-.029-8.207-.043-10.178q-.021-2.811-.077-5.619c-.019-1.023.012-2.063-.06-3.084a4.878,4.878,0,0,0-.434-1.583c.128-.227.06-.418-.409-.459-3.784-.333-7.736-.051-11.535-.014-1.9.018-29.585.056-31.482.109-1.791.05-1.791.05-2.243.478-.027-.073-.053-.147-.084-.218-.06-.137-.337.037-.367.125-.016.049-.027.1-.042.151-.047.019-.116.087-.038.1H9a20.6,20.6,0,0,0-.412,5.217c-.029,1.387-.086,5.394-.089,5.856-.013,1.854-.025,7.974-.037,9.828-.006,1.017-.04,2.038-.007,3.054a3.619,3.619,0,0,0,.427,2.233c.213.364,3.837.155,5.344.176,1.962.027,26.679.031,28.641.035,3.764.01,7.813.449,11.529-.214h0c.186.369,1.141-.181,1.207-.461A23.994,23.994,0,0,0,55.8,63M49.6,68.049l-5.924.014c-3.651.01-33.7-.048-33.7-.048s.036-.915.073-1.51c.062-1.014.013-2.038.006-3.054-.013-1.938-.027-8.142-.04-10.08,0-.191,0-.382-.006-.573,1.119.1,2.311-.013,3.36,0q2.952.032,5.9.045,5.781.029,11.562.038l11.3.012A86.548,86.548,0,0,0,53.738,52.6a1.288,1.288,0,0,0,.48-.315c0,.352-.007.7-.01,1.057-.011,1.885-.025,8.037-.031,9.921a31.578,31.578,0,0,0,.033,4.884,30.209,30.209,0,0,0-4.614-.1m4.738-23.777c-.12,1.015-.036,2.1-.055,3.123q-.04,2.284-.059,4.569l-.028-.007c-3.571-.587-7.309-.3-10.922-.291l-11.6.012q-5.666.006-11.331.036-2.984.016-5.966.044a41.168,41.168,0,0,0-4.385.1q-.024-2.007-.065-4.012A18.979,18.979,0,0,0,9.6,42.883c.464.371.464.371,2.06.417,1.858.052,29.036.129,30.9.147,3.723.035,11.782-.178,11.782-.178a6.07,6.07,0,0,1,0,1" transform="translate(0.586 2.911)" fill="#6f88aa"/>
    <path id="Trazado_598841" data-name="Trazado 598841" d="M26.731,45.744c.106-.115.139-.238-.077-.25-2.446-.135-10.342-.33-12.852.145-.005-.013-.009-.025-.015-.037-.032-.2-.492.018-.559.087a2.035,2.035,0,0,0-.446,1.373c-.014.3-.025.6-.016.9a1.034,1.034,0,0,0,.02.188c-.1.658.476.587.5.589,2.917.137,10.779.206,13.43-.029.066-.005.3-.168.322-.268a.1.1,0,0,0,.052-.079,19.6,19.6,0,0,0-.1-2.223c-.028-.224-.093-.262-.26-.395m-7.8,2.4c-1.3-.027-3.731-.107-5.03-.1a9.964,9.964,0,0,0,.052-1.987c1.186.1,10.957.081,12.417-.1A1.363,1.363,0,0,0,26.07,47c0,.5-.042.992.415,1.264.03.018.065.039.1.059-1.757-.17-6.389-.152-7.657-.178" transform="translate(0.886 3.149)" fill="#6f88aa"/>
    <path id="Trazado_598842" data-name="Trazado 598842" d="M48.307,48.17a4.758,4.758,0,0,0,.047-.515,8.751,8.751,0,0,0-.2-2.2c-.348-.249-6-.071-7.9-.1a43.618,43.618,0,0,0-5.994.185c0-.332-.721.073-.8.229a5.515,5.515,0,0,0-.249,3.214c.061.288.643.265.7.061.018-.06,6.033-.1,8.3-.1,1.733,0,5.7.21,6.1-.313.217-.283.359-.431,0-.452m-1.137-.117,0,.066c-1.651-.046-3.323.009-4.953.009-2.234,0-5.909-.068-8.137.107.075-.533.1-1.661.132-2.193a11.35,11.35,0,0,0,2.1.112c1.2.018,2.4.03,3.605.064,1.938.057,5.373.027,7.315-.149a15.355,15.355,0,0,0-.064,1.984" transform="translate(2.298 3.147)" fill="#6f88aa"/>
    <path id="Trazado_598843" data-name="Trazado 598843" d="M49.818,58.639a10.046,10.046,0,0,0-.171-4.356,62.8,62.8,0,0,0-8.918-.195l-9.525,0q-4.63,0-9.258.02c-2.783.006-8.841-.128-9.015-.106-.817.1-.752,1.815-.784,2.381-.055.991-.176,1.975-.245,2.965-.029.405,6.682.195,9.491.2l9.865.024c3.194.009,6.389.021,9.583.022,3.232,0,5.585.094,8.794-.125.182-.013.618-.795.183-.833m-8.02,0c-3.3,0-6.6.014-9.9.021l-9.615.024c-2.989.007-5.994-.06-8.974.209l.005-.018a26.328,26.328,0,0,0,.151-2.934c0-.292.039-.627.032-.944.921.07,1.875.012,2.77.016,1.585.009,3.169.007,4.754.012q4.755.01,9.51.02l9.241,0c3.039,0,6.056-.088,9.163-.161a.26.26,0,0,0-.044.123c-.056.779-.109,1.556-.12,2.337a7.577,7.577,0,0,0,0,1.227c-2.319-.106-4.7.067-6.979.067" transform="translate(0.827 3.751)" fill="#6f88aa"/>
    <path id="Trazado_598844" data-name="Trazado 598844" d="M49.686,60.906a21.456,21.456,0,0,0-4.219-.163l-4.8,0-9.885.009q-4.8,0-9.607.015l-4.809.016a17.886,17.886,0,0,0-4.656.314c-.042.012-.114.158,0,.215,1.04.515,2.647.311,3.779.315l4.787.016q4.934.016,9.868.016l9.591.009c3.116,0,6.87.332,9.953-.155.16-.025.449-.522,0-.612" transform="translate(0.809 4.217)" fill="#6f88aa"/>
    <path id="Trazado_598845" data-name="Trazado 598845" d="M49.689,62.922c-3-.2-7.8-.025-10.812-.021l-9.107.01q-4.556,0-9.112.015c-2.881.007-6.109-.272-8.947.294-.061.013-.176.191,0,.24,2.589.71,5.7.29,8.363.3q4.545.011,9.09.015l9.095.01c3.024,0,8.413.165,11.43-.021.371-.024.769-.784,0-.836" transform="translate(0.807 4.363)" fill="#6f88aa"/>
    <path id="Trazado_598846" data-name="Trazado 598846" d="M5.016,99.18c-.4-30.893-1.146-61.822.336-92.7C5.964,2.669,15.046,2,17.676,3.625a1.947,1.947,0,0,1,.69,1.029c.19.754.154,1.442.555,1.466,6.449,1.388,13.292.864,19.912.985l4.03.08c1.291-.011,2.782.12,3.484-.637a7.815,7.815,0,0,0,.884-1.66A2.879,2.879,0,0,1,49,3.391a12.968,12.968,0,0,1,8.244,1.125A4.765,4.765,0,0,1,59.5,8.19c.2,2.748.222,5.4.3,8.1.216,10.747.238,21.489.3,32.231-.178-.165.3,65.077.088,64.3,2.914,9.328-16.482,8-21.9,8.475-8.722.213-17.443.064-26.16-.152a13.721,13.721,0,0,1-5.061-2.63A7.754,7.754,0,0,1,4.4,110.83a41.814,41.814,0,0,0,.16-8.467c.582,3.746-.244,7.545-.124,11.283.459,3.855,4.375,6.294,7.7,7.217q13.069.194,26.137-.125c5.427-.465,18.474.41,21.283-4.737a3.729,3.729,0,0,0,0-3.027l-.4-64.448c-.189-13.392-.134-26.853-.656-40.221-.171-2.741-2.96-3.83-5.4-4.019-1.66-.034-4.087-.718-5.026,1.053A7.841,7.841,0,0,1,47.033,7.2a3.173,3.173,0,0,1-2.121.878c-1.375.134-4.671-.058-6.092-.06-5.353-.005-10.754.026-16.134-.434a17.969,17.969,0,0,1-4.085-.7,1.358,1.358,0,0,1-.837-1.027c-.136-.985-.247-1.688-1.357-1.946C13.673,3.332,7.028,3.388,6.1,6.615,4.557,37.427,5.082,68.332,5.016,99.18" transform="translate(0.294 0.194)" fill="#445666"/>
  </g>
</svg>
