<svg xmlns="http://www.w3.org/2000/svg" xmlns:xlink="http://www.w3.org/1999/xlink" width="190" height="187" viewBox="0 0 190 187">
  <defs>
    <clipPath id="clip-path">
      <rect id="Rect치ngulo_44586" data-name="Rect치ngulo 44586" width="168.423" height="149.328" fill="none"/>
    </clipPath>
  </defs>
  <g id="Grupo_155262" data-name="Grupo 155262" transform="translate(-390 -504)">
    <g id="Grupo_155261" data-name="Grupo 155261" transform="translate(55.968 4.132)">
      <g id="Grupo_155260" data-name="Grupo 155260" transform="translate(345.032 524.714)">
        <g id="Grupo_155259" data-name="Grupo 155259" clip-path="url(#clip-path)">
          <path id="Trazado_596440" data-name="Trazado 596440" d="M84.21,49.69A84.212,84.212,0,1,0,168.423,133.9,84.212,84.212,0,0,0,84.21,49.69" transform="translate(0 -43.565)" fill="#a5dcf0"/>
          <path id="Trazado_596441" data-name="Trazado 596441" d="M319.7,399.668a12.558,12.558,0,0,0-23.941-5.08,10.821,10.821,0,0,0-15.945,1.725,12.217,12.217,0,1,0-.41,22.816c-.01.046-.021.091-.03.138a11.685,11.685,0,0,0,1.993,9.153A84.436,84.436,0,0,0,319.7,399.668" transform="translate(-167.896 -259.096)" fill="#d8edee"/>
          <path id="Trazado_596442" data-name="Trazado 596442" d="M29.841,363.981a9.923,9.923,0,1,0,6.5-18.517c.072-.125.147-.255.215-.384a10.311,10.311,0,0,0-13.339-14.233A9.042,9.042,0,0,0,9.182,326.62a8.735,8.735,0,0,0-5.562-2.96,83.91,83.91,0,0,0,19.118,40.114,8.979,8.979,0,0,0,4.283-2.022,9.913,9.913,0,0,0,2.82,2.229M18.626,346.391c0-.292-.022-.585-.052-.877.153.262.321.511.5.757-.152.036-.3.076-.446.12" transform="translate(-2.311 -218.455)" fill="#d8edee"/>
          <path id="Trazado_596443" data-name="Trazado 596443" d="M202.872,284.857l-10.955,62.03,33.951-2.049-12.919-60.631Z" transform="translate(-122.51 -193.27)" fill="#d8edee"/>
          <path id="Trazado_596444" data-name="Trazado 596444" d="M249.625,404.6a5.639,5.639,0,0,0-2.716-6.935,8.251,8.251,0,1,0-13.921-8.3,8.45,8.45,0,0,0-.381,1.444,8.959,8.959,0,0,0-1.131-.5,8.8,8.8,0,0,0-7.882,15.6,7.584,7.584,0,0,0-.492,11.231,8.69,8.69,0,0,0-.684,1.444,8.564,8.564,0,1,0,16.451,1.252c.031.011.061.024.093.036a8.214,8.214,0,0,0,9.112-12.983,5.62,5.62,0,0,0,1.551-2.287" transform="translate(-140.223 -256.924)" fill="#d8edee"/>
          <path id="Trazado_596445" data-name="Trazado 596445" d="M399.968,326.884a8.311,8.311,0,0,0-.777,1.258,8.457,8.457,0,0,0-.925-.805,8.71,8.71,0,0,0-11.96,12.495A7.5,7.5,0,0,0,382.6,350.32a8.47,8.47,0,0,0,.622,13.035,8.44,8.44,0,0,0,6.153,1.63,83.939,83.939,0,0,0,20.1-40.8,8.169,8.169,0,0,0-9.512,2.7" transform="translate(-242.47 -218.432)" fill="#d8edee"/>
          <path id="Trazado_596446" data-name="Trazado 596446" d="M179.315,395.781a7.633,7.633,0,0,0,.983-2.065c1.1-3.621-.613-7.346-3.824-8.32a6.354,6.354,0,0,0-7.428,3.8,6.581,6.581,0,0,0-6.248,4.9,6.845,6.845,0,0,0,1.316,6.589,4.956,4.956,0,0,0-2.908,3.235,4.529,4.529,0,0,0,2.664,5.8,3.808,3.808,0,0,0,.6.125c-.005.016-.013.033-.018.05a4.59,4.59,0,1,0,8.721,2.647,5.722,5.722,0,0,0,.244-1.469c.062.021.121.042.184.061,3.851,1.169,8.042-1.4,9.36-5.749,1.206-3.971-.41-8.047-3.64-9.609" transform="translate(-102.757 -257.713)" fill="#d8edee"/>
          <path id="Trazado_596447" data-name="Trazado 596447" d="M97.2,423.632a12.217,12.217,0,1,0-4.664-22.338c0-.047,0-.093,0-.141a11.719,11.719,0,0,0-22-5.308,8.042,8.042,0,0,0-11.632,6.367,11.781,11.781,0,0,0-9.523.627,84.407,84.407,0,0,0,37.7,27.348c.153,0,.306.008.461,0a10.823,10.823,0,0,0,9.659-6.559" transform="translate(-31.526 -260.642)" fill="#d8edee"/>
          <path id="Trazado_596448" data-name="Trazado 596448" d="M320.054,424.394a12.562,12.562,0,0,0-17.84,2.028,10.817,10.817,0,0,0-15.926-1.887,12.217,12.217,0,1,0-5.5,22.146c-.02.042-.041.084-.061.127a11.682,11.682,0,0,0-1.031,4.925,84.312,84.312,0,0,0,40.362-27.339" transform="translate(-170.485 -280.958)" fill="#fff"/>
          <path id="Trazado_596449" data-name="Trazado 596449" d="M35.64,382.513l.126-.064a11.718,11.718,0,0,0-5.2-22.023,8.043,8.043,0,0,0-10.934-7.5,11.771,11.771,0,0,0-11.817-10.4,84.33,84.33,0,0,0,33.5,47.584,12.249,12.249,0,0,0-5.679-7.6" transform="translate(-4.989 -230.497)" fill="#fff"/>
          <path id="Trazado_596450" data-name="Trazado 596450" d="M210.944,317.66l-8.5,43.385,26.334-1.433-10.02-42.408Z" transform="translate(-129.232 -214.334)" fill="#fff"/>
          <path id="Trazado_596451" data-name="Trazado 596451" d="M238.868,436.959c.031.01.061.024.093.035a8.214,8.214,0,0,0,9.112-12.982,5.637,5.637,0,0,0-1.165-9.222,8.251,8.251,0,1,0-13.921-8.3,8.32,8.32,0,0,0-.38,1.444,8.8,8.8,0,0,0-9.013,15.1,7.585,7.585,0,0,0-.491,11.231,8.547,8.547,0,0,0-.329,8.124c.553.01,1.106.02,1.661.02a84.773,84.773,0,0,0,14.2-1.2,8.522,8.522,0,0,0,.239-4.251" transform="translate(-140.223 -267.859)" fill="#fff"/>
          <path id="Trazado_596452" data-name="Trazado 596452" d="M410.9,344.741a8.715,8.715,0,0,0-6.565,8.532,7.5,7.5,0,0,0-9.462,5.846,8.609,8.609,0,0,0-1.562.244,8.474,8.474,0,0,0,2.554,16.675A83.988,83.988,0,0,0,412.4,344.5a8.839,8.839,0,0,0-1.5.242" transform="translate(-246.991 -231.757)" fill="#fff"/>
          <path id="Trazado_596453" data-name="Trazado 596453" d="M188.523,411.21a7.627,7.627,0,0,0,.173-2.28c-.278-3.775-3.216-6.634-6.563-6.387a6.355,6.355,0,0,0-5.561,6.222,6.581,6.581,0,0,0-4.064,6.823,6.847,6.847,0,0,0,3.6,5.675,4.959,4.959,0,0,0-1.55,4.065,4.529,4.529,0,0,0,4.573,4.452,3.91,3.91,0,0,0,.6-.1c0,.018,0,.035,0,.054a4.59,4.59,0,1,0,9.09-.67,5.742,5.742,0,0,0-.3-1.458c.064,0,.128,0,.193-.009,4.014-.3,7-4.205,6.664-8.732-.305-4.14-3.281-7.361-6.856-7.655" transform="translate(-110.107 -268.8)" fill="#fff"/>
          <path id="Trazado_596454" data-name="Trazado 596454" d="M118.914,451.816a12.219,12.219,0,1,0-6.94-22.492c0-.047,0-.094,0-.141a11.719,11.719,0,0,0-22-5.308,8.042,8.042,0,0,0-11.632,6.367,11.711,11.711,0,0,0-4.369-.716,11.834,11.834,0,0,0-1.994.226,83.957,83.957,0,0,0,44.51,22.221c.05-.1.1-.205.147-.311a12.3,12.3,0,0,0,2.276.154" transform="translate(-45.95 -278.535)" fill="#fff"/>
          <path id="Trazado_596455" data-name="Trazado 596455" d="M340.847,160.779a4.228,4.228,0,0,0-.928.3,4.9,4.9,0,0,0-.074-.551,4.8,4.8,0,0,0-8.894-1.447,4.291,4.291,0,0,0-7.284,2.235,4.76,4.76,0,0,0-5.457,3.65h27.641a4.2,4.2,0,0,0-5-4.184m-9.548,3.908c.044-.058.089-.118.129-.179.089.108.185.212.282.311-.134-.05-.273-.094-.412-.132" transform="translate(-203.13 -111.837)" fill="#fff"/>
          <path id="Trazado_596456" data-name="Trazado 596456" d="M104.251,212.841a3.281,3.281,0,0,0-.725.232,3.612,3.612,0,0,0-.058-.43,3.75,3.75,0,0,0-6.944-1.13,3.351,3.351,0,0,0-5.687,1.745,3.715,3.715,0,0,0-4.259,2.85h21.579a3.186,3.186,0,0,0-.061-.677,3.277,3.277,0,0,0-3.845-2.589M96.8,215.892c.035-.045.069-.092.1-.139.069.084.144.165.221.243-.105-.039-.213-.073-.322-.1" transform="translate(-55.267 -145.65)" fill="#fff"/>
        </g>
      </g>
      <path id="Trazado_596457" data-name="Trazado 596457" d="M220.875,306.493c3.335-8.363,10.87-18.921,10.75-23.666s-5.607-11.345-11.634-11.193-11.174,6.941-11.051,11.768,11.934,23.091,11.934,23.091" transform="translate(211.656 339.472)" fill="#f05a2a"/>
      <path id="Trazado_596458" data-name="Trazado 596458" d="M224.305,301.089c2.725-6.834,8.884-15.463,8.786-19.341s-4.582-9.271-9.507-9.147-9.133,5.672-9.032,9.616,9.753,18.871,9.753,18.871" transform="translate(208.073 338.854)" fill="#f8ec3a"/>
      <path id="Trazado_596459" data-name="Trazado 596459" d="M227.794,294.441c2.1-5.267,6.845-11.915,6.77-14.9s-3.531-7.144-7.327-7.049-7.037,4.372-6.96,7.411,7.516,14.542,7.516,14.542" transform="translate(204.418 338.925)" fill="#fff"/>
      <path id="Trazado_596460" data-name="Trazado 596460" d="M206.6,301.124c3.383-4.939,9.81-10.695,10.423-13.791s-1.985-8.178-5.918-8.958-8.261,2.877-8.886,6.026,4.382,16.723,4.382,16.723" transform="translate(215.983 335.234)" fill="#f05a2a"/>
      <path id="Trazado_596461" data-name="Trazado 596461" d="M210.179,297.632c2.763-4.038,8.018-8.74,8.519-11.27s-1.624-6.684-4.838-7.32-6.752,2.351-7.261,4.924,3.58,13.667,3.58,13.667" transform="translate(213.177 334.797)" fill="#f8ec3a"/>
      <path id="Trazado_596462" data-name="Trazado 596462" d="M214,293.328c2.129-3.112,6.178-6.736,6.564-8.685s-1.251-5.151-3.727-5.641-5.2,1.812-5.6,3.8,2.76,10.53,2.76,10.53" transform="translate(210.211 334.809)" fill="#fff"/>
      <path id="Trazado_596463" data-name="Trazado 596463" d="M232.867,288.912c-.019-3.8,1.26-9.133.461-10.972s-3.993-3.554-6.328-2.54-3.278,4.489-2.465,6.358,8.332,7.153,8.332,7.153" transform="translate(201.883 337.258)" fill="#f05a2a"/>
      <path id="Trazado_596464" data-name="Trazado 596464" d="M232.846,286.913c-.014-3.108,1.03-7.464.377-8.966s-3.263-2.905-5.173-2.076a4.4,4.4,0,0,0-2.013,5.2c.664,1.528,6.809,5.845,6.809,5.845" transform="translate(200.89 336.923)" fill="#f8ec3a"/>
      <path id="Trazado_596465" data-name="Trazado 596465" d="M232.636,284.437c-.011-2.395.794-5.751.291-6.909a3.019,3.019,0,1,0-5.538,2.406c.512,1.178,5.248,4.5,5.248,4.5" transform="translate(199.993 336.85)" fill="#fff"/>
      <path id="Trazado_596466" data-name="Trazado 596466" d="M208.132,32.312c-16.818,22.277-23.015,3.03-32.311,3.1-4.869.037-8.408,20.064-32.312-3.1a32.312,32.312,0,1,1,64.623,0" transform="translate(253.422 512.868)" fill="#e8af2e"/>
      <path id="Trazado_596467" data-name="Trazado 596467" d="M143.509,64.076c3.542,20.158,13.279,22.625,18.59,43.7,11.532,7.676,10.646,5.9,29.215,1.514,2.653-19.394,16.818-31.091,16.818-45.21.885-21.1-61.966-16.966-64.623,0" transform="translate(253.422 481.104)" fill="#e8af2e"/>
      <path id="Trazado_596468" data-name="Trazado 596468" d="M200.79,142.594a.885.885,0,0,1-.885-.881c0-.123-.075-12.364-1.853-17.378-1.819-5.127-7.89-19.078-7.952-19.218a.885.885,0,0,1,1.623-.707c.25.575,6.158,14.148,8,19.334,1.879,5.3,1.953,17.447,1.955,17.962a.886.886,0,0,1-.882.889Z" transform="translate(223.728 446.558)" fill="#403f41"/>
      <path id="Trazado_596469" data-name="Trazado 596469" d="M250.534,142.595h0a.886.886,0,0,1-.881-.889c0-.515.075-12.665,1.955-17.962,1.841-5.185,7.745-18.758,8-19.333a.885.885,0,1,1,1.623.707c-.061.14-6.131,14.091-7.951,19.218-1.78,5.014-1.852,17.254-1.853,17.377a.885.885,0,0,1-.885.882" transform="translate(185.668 446.557)" fill="#403f41"/>
      <path id="Trazado_596470" data-name="Trazado 596470" d="M204.6,237.137v9.972c0,3.066,1.989,5.552,4.445,5.551h13.331c2.45,0,4.44-2.485,4.44-5.551v-9.971Z" transform="translate(214.425 361.492)" fill="#a6a8ab"/>
      <path id="Trazado_596471" data-name="Trazado 596471" d="M189.3,203.318v16.168a5.551,5.551,0,0,0,5.549,5.552h22.186a5.552,5.552,0,0,0,5.549-5.552V203.318Z" transform="translate(224.193 383.08)" fill="#221f1f"/>
      <path id="Trazado_596472" data-name="Trazado 596472" d="M202.21,116.732c-2.184,0-3.96-2.23-3.96-4.97s1.775-4.965,3.96-4.966,3.962,2.228,3.962,4.966-1.777,4.97-3.962,4.97m0-8.459c-1.37,0-2.484,1.566-2.483,3.489s1.114,3.492,2.483,3.493,2.485-1.567,2.485-3.493c0-1.891-1.138-3.489-2.485-3.489" transform="translate(218.478 444.695)" fill="#403f41"/>
      <path id="Trazado_596473" data-name="Trazado 596473" d="M220.033,116.732h0a3.6,3.6,0,0,1-2.864-1.529,5.688,5.688,0,0,1-1.1-3.44c0-2.738,1.777-4.965,3.962-4.965a3.6,3.6,0,0,1,2.868,1.529,5.948,5.948,0,0,1,0,6.875,3.6,3.6,0,0,1-2.868,1.53m0-1.477h0a2.16,2.16,0,0,0,1.693-.948,4.2,4.2,0,0,0,.792-2.544h0a4.2,4.2,0,0,0-.792-2.541,2.159,2.159,0,0,0-1.693-.948c-1.347,0-2.485,1.6-2.485,3.488a4.2,4.2,0,0,0,.793,2.544,2.157,2.157,0,0,0,1.69.948Z" transform="translate(207.102 444.694)" fill="#403f41"/>
      <path id="Trazado_596474" data-name="Trazado 596474" d="M237.862,116.732h0a3.6,3.6,0,0,1-2.866-1.529,5.688,5.688,0,0,1-1.1-3.439c0-2.738,1.779-4.966,3.964-4.966s3.963,2.227,3.963,4.965a5.687,5.687,0,0,1-1.1,3.44,3.6,3.6,0,0,1-2.866,1.529m0-1.477h0a2.159,2.159,0,0,0,1.692-.948,4.2,4.2,0,0,0,.793-2.544c0-1.891-1.138-3.488-2.486-3.488-1.371,0-2.486,1.565-2.487,3.489a4.208,4.208,0,0,0,.793,2.544,2.16,2.16,0,0,0,1.692.948Z" transform="translate(195.723 444.694)" fill="#403f41"/>
      <path id="Trazado_596475" data-name="Trazado 596475" d="M255.693,116.733c-2.185,0-3.962-2.229-3.962-4.97a5.68,5.68,0,0,1,1.1-3.436,3.6,3.6,0,0,1,2.866-1.529h0a3.592,3.592,0,0,1,2.863,1.529,5.685,5.685,0,0,1,1.094,3.436h0c0,2.74-1.777,4.969-3.96,4.969m0-8.458a2.16,2.16,0,0,0-1.693.948,4.2,4.2,0,0,0-.793,2.541c0,1.926,1.115,3.493,2.485,3.493s2.483-1.567,2.483-3.493a4.2,4.2,0,0,0-.792-2.541,2.154,2.154,0,0,0-1.689-.948h0Z" transform="translate(184.339 444.694)" fill="#403f41"/>
      <path id="Trazado_596476" data-name="Trazado 596476" d="M198.613,11.641c7.974-5.884,22.2-.88,27.468,2.949,7.325,5.321,12.732,17.071,11.887,24.668s-4.058,11.6-7.045,18.674c-1.063,2.514,3.632-7.662-2.075-21.38-4.26-10.238-16.576-12.85-24.742-13.794-5.713-.661-13.424-5.263-5.493-11.117" transform="translate(220.412 507.162)" fill="#fde039"/>
      <path id="Trazado_596477" data-name="Trazado 596477" d="M221.441,212.936a.778.778,0,0,1-.759.8H186.5a.778.778,0,0,1-.758-.8v-1.387a.779.779,0,0,1,.758-.8h34.179a.78.78,0,0,1,.759.8Z" transform="translate(226.46 378.335)" fill="#403f41"/>
      <path id="Trazado_596478" data-name="Trazado 596478" d="M221.442,226.129a.781.781,0,0,1-.759.8H186.5a.78.78,0,0,1-.758-.8v-1.387a.779.779,0,0,1,.758-.8h34.178a.779.779,0,0,1,.759.8Z" transform="translate(226.46 369.913)" fill="#403f41"/>
      <path id="Trazado_596479" data-name="Trazado 596479" d="M221.657,239.324a.779.779,0,0,1-.759.8H186.721a.78.78,0,0,1-.761-.8v-1.386a.781.781,0,0,1,.761-.8H220.9a.781.781,0,0,1,.759.8Z" transform="translate(226.324 361.492)" fill="#403f41"/>
    </g>
    <rect id="Rect치ngulo_44587" data-name="Rect치ngulo 44587" width="190" height="187" transform="translate(390 504)" fill="none"/>
  </g>
</svg>
