<svg xmlns="http://www.w3.org/2000/svg" width="152" height="152" viewBox="0 0 152 152">
  <g id="Grupo_156410" data-name="Grupo 156410" transform="translate(-467 -8271)">
    <circle id="Elipse_5527" data-name="Elipse 5527" cx="76" cy="76" r="76" transform="translate(467 8271)" fill="#fff"/>
    <g id="motivacion" transform="translate(457.191 8285)">
      <g id="Grupo_155375" data-name="Grupo 155375" transform="translate(38.809 1.786)">
        <g id="Grupo_155372" data-name="Grupo 155372" transform="translate(9.837 43.859)">
          <g id="XMLID_1_">
            <g id="Grupo_155371" data-name="Grupo 155371">
              <path id="Trazado_596805" data-name="Trazado 596805" d="M152.021,218.984a5.812,5.812,0,0,1-4.11,9.922,5.814,5.814,0,0,1,0,11.627,5.814,5.814,0,0,1,0,11.627,5.814,5.814,0,0,1,0,11.627H120.293a27.837,27.837,0,0,1-14.983-4.375l-.247-.157-24.775-.1V219.707h24.334l14.883-12.792a11.963,11.963,0,0,0,3.716-5.817l1.688-5.955a3.67,3.67,0,0,1,6.927-.394l.18.434a25.863,25.863,0,0,1,1.112,16.273l-1.2,4.646a.943.943,0,0,0,.913,1.179h15.066A5.786,5.786,0,0,1,152.021,218.984Z" transform="translate(-80.289 -192.473)" fill="#ffe0d1"/>
            </g>
          </g>
        </g>
        <g id="Grupo_155374" data-name="Grupo 155374">
          <path id="Trazado_596806" data-name="Trazado 596806" d="M132.713,34.093h14.862a1.238,1.238,0,0,0,.833-2.154l-25.946-23.6a3.11,3.11,0,0,0-4.185,0L92.33,31.939a1.238,1.238,0,0,0,.833,2.154h14.862v27.39a2.15,2.15,0,0,0,2.15,2.15h22.417Z" transform="translate(-79.327 -7.529)" fill="#00a6b7"/>
          <g id="Grupo_155373" data-name="Grupo 155373" transform="translate(74.688 33.769)">
            <path id="Trazado_596807" data-name="Trazado 596807" d="M371.137,176.6V166.02a1.309,1.309,0,0,1,1.309-1.309H376.3a1.309,1.309,0,0,0,.987-2.17L366.67,150.374a1.309,1.309,0,0,0-1.973,0L354.078,162.54a1.309,1.309,0,0,0,.987,2.17h3.856a1.309,1.309,0,0,1,1.309,1.309V176.6a1.88,1.88,0,0,0,1.88,1.88h7.148A1.88,1.88,0,0,0,371.137,176.6Z" transform="translate(-353.753 -149.925)" fill="#dbebef"/>
          </g>
          <path id="Trazado_596808" data-name="Trazado 596808" d="M153.059,342.879a5.809,5.809,0,0,1-5.142,3.1H120.3c-4.34,0-11.759-3.027-14.325-4.133a4.939,4.939,0,0,0-1.936-.4,2.265,2.265,0,0,1-2.256-2.265V309.8a10.022,10.022,0,0,0-.313-2.489H80.29v39.447l24.775.1.247.157a27.837,27.837,0,0,0,14.983,4.375h27.479a5.9,5.9,0,0,0,5.951-5.7,5.781,5.781,0,0,0-.664-2.817Z" transform="translate(-70.453 -236.219)" fill="#ffd1c2"/>
          <path id="Trazado_596809" data-name="Trazado 596809" d="M60.1,337.983a6.479,6.479,0,0,0,6.479-6.479V296.969A6.479,6.479,0,0,0,60.1,290.49H41.351a2.542,2.542,0,0,0-2.542,2.542v42.409a2.542,2.542,0,0,0,2.542,2.542H60.1Z" transform="translate(-38.809 -223.387)" fill="#a59ca6"/>
          <path id="Trazado_596810" data-name="Trazado 596810" d="M60.339,290.515c0,.093.007,34.817.007,34.817a6.479,6.479,0,0,1-6.479,6.479H38.809v3.65A2.542,2.542,0,0,0,41.351,338H60.1a6.479,6.479,0,0,0,6.479-6.479V296.988A6.478,6.478,0,0,0,60.339,290.515Z" transform="translate(-38.809 -223.406)" fill="#8f8390"/>
        </g>
      </g>
      <g id="Grupo_155376" data-name="Grupo 155376" transform="translate(46.867 0)">
        <path id="Trazado_596811" data-name="Trazado 596811" d="M372.9,155.65l-10.619-12.166a3.088,3.088,0,0,0-4.653,0L347.006,155.65a3.088,3.088,0,0,0,2.326,5.119h3.387v11.989a1.779,1.779,0,1,0,3.557,0V160.3a3.091,3.091,0,0,0-3.088-3.088h-2.824l9.587-10.983,9.587,10.983h-2.824a3.091,3.091,0,0,0-3.088,3.088v12.459a1.779,1.779,0,1,0,3.557,0V160.768h3.387a3.088,3.088,0,0,0,2.327-5.119Z" transform="translate(-281.391 -108.65)"/>
        <path id="Trazado_596812" data-name="Trazado 596812" d="M149.779,297.169a7.6,7.6,0,0,0-7.592-7.592h-2.024a1.779,1.779,0,0,0,0,3.557h2.024a4.035,4.035,0,0,1,0,8.07,1.779,1.779,0,1,0,0,3.557,4.035,4.035,0,1,1,0,8.07,1.779,1.779,0,1,0,0,3.557,4.035,4.035,0,1,1,0,8.07,1.779,1.779,0,1,0,0,3.557,4.035,4.035,0,1,1,0,8.07H114.569a26.022,26.022,0,0,1-14.027-4.1l-.246-.157a1.778,1.778,0,0,0-.956-.279h-5.1c.022-.246.035-.494.035-.746v-5.86a1.779,1.779,0,1,0-3.557,0v5.86a4.705,4.705,0,0,1-4.7,4.7H74.565a1.779,1.779,0,0,0,0,3.557H86.022a8.26,8.26,0,0,0,7.044-3.954h5.757a29.569,29.569,0,0,0,15.746,4.532h27.618a7.589,7.589,0,0,0,4.878-13.406,7.583,7.583,0,0,0,0-11.627,7.583,7.583,0,0,0,0-11.627,7.58,7.58,0,0,0,2.714-5.814Z" transform="translate(-72.786 -220.905)"/>
        <path id="Trazado_596813" data-name="Trazado 596813" d="M87.441,30.129h13.083v7.935a1.779,1.779,0,1,0,3.557,0V28.35a1.778,1.778,0,0,0-1.779-1.779H88.839L113.751,3.911a1.325,1.325,0,0,1,1.792,0l24.912,22.661H126.99a1.778,1.778,0,0,0-1.779,1.779V38.7a1.779,1.779,0,0,0,3.557,0v-8.57h13.083a3.017,3.017,0,0,0,2.03-5.248L117.936,1.28a4.869,4.869,0,0,0-6.579,0L85.412,24.88a3.016,3.016,0,0,0,2.03,5.248Z" transform="translate(-81.662 0)"/>
        <path id="Trazado_596814" data-name="Trazado 596814" d="M154.1,184.969a1.778,1.778,0,0,0-1.779,1.779v12.246a1.779,1.779,0,1,0,3.557,0V186.748A1.779,1.779,0,0,0,154.1,184.969Z" transform="translate(-133.461 -141.104)"/>
        <path id="Trazado_596815" data-name="Trazado 596815" d="M74.565,211.773H86.022a4.705,4.705,0,0,1,4.7,4.7v21.1a1.779,1.779,0,0,0,3.557,0s-.013-21.573-.033-21.807H98.9a1.779,1.779,0,0,0,1.159-.43l14.883-12.791a13.715,13.715,0,0,0,4.268-6.68L120.9,189.9a1.893,1.893,0,0,1,3.572-.2l.178.433a24.076,24.076,0,0,1,1.038,15.155l-1.2,4.644a2.721,2.721,0,0,0,2.635,3.4h5.461a1.779,1.779,0,1,0,0-3.557H128.2l.929-3.6a27.633,27.633,0,0,0-1.191-17.394l-.178-.433a5.45,5.45,0,0,0-10.285.582l-1.688,5.956a10.17,10.17,0,0,1-3.164,4.953L98.239,212.2H93.088a8.26,8.26,0,0,0-7.066-3.989H74.565a1.778,1.778,0,1,0,0,3.557Z" transform="translate(-72.786 -141.105)"/>
      </g>
    </g>
  </g>
</svg>
