<svg xmlns="http://www.w3.org/2000/svg" width="71" height="71" viewBox="0 0 71 71">
  <g id="Grupo_155998" data-name="Grupo 155998" transform="translate(-285 -3049)">
    <circle id="Elipse_5541" data-name="Elipse 5541" cx="35.5" cy="35.5" r="35.5" transform="translate(285 3049)" fill="#ffe9f6"/>
    <g id="grupo" transform="translate(300.184 3023.911)">
      <g id="Grupo_155600" data-name="Grupo 155600" transform="translate(0 58.273)">
        <g id="Grupo_155599" data-name="Grupo 155599">
          <path id="Trazado_597798" data-name="Trazado 597798" d="M34.179,232.689h-3.92a5.85,5.85,0,0,0-1.542.207,5.871,5.871,0,0,0-5.231-3.216H16.558a5.871,5.871,0,0,0-5.231,3.216,5.85,5.85,0,0,0-1.542-.207H5.866A5.873,5.873,0,0,0,0,238.555v6.266a3.524,3.524,0,0,0,3.52,3.52H36.525a3.524,3.524,0,0,0,3.52-3.52v-6.266A5.873,5.873,0,0,0,34.179,232.689Zm-23.487,2.857v10.448H3.52a1.174,1.174,0,0,1-1.173-1.173v-6.266a3.524,3.524,0,0,1,3.52-3.52h3.92a3.508,3.508,0,0,1,.92.123C10.7,235.287,10.692,235.416,10.692,235.546Zm16.314,10.448H13.038V235.546a3.524,3.524,0,0,1,3.52-3.52h6.929a3.524,3.524,0,0,1,3.52,3.52ZM37.7,244.821a1.174,1.174,0,0,1-1.173,1.173H29.352V235.546c0-.13-.006-.259-.014-.388a3.512,3.512,0,0,1,.92-.123h3.92a3.524,3.524,0,0,1,3.52,3.52Z" transform="translate(0 -229.68)" fill="#6f88aa"/>
        </g>
      </g>
      <g id="Grupo_155602" data-name="Grupo 155602" transform="translate(2.613 50.203)">
        <g id="Grupo_155601" data-name="Grupo 155601">
          <path id="Trazado_597799" data-name="Trazado 597799" d="M38.626,126.5a5.213,5.213,0,1,0,5.213,5.213A5.218,5.218,0,0,0,38.626,126.5Zm0,8.079a2.866,2.866,0,1,1,2.866-2.866A2.869,2.869,0,0,1,38.626,134.583Z" transform="translate(-33.414 -126.504)" fill="#6f88aa"/>
        </g>
      </g>
      <g id="Grupo_155604" data-name="Grupo 155604" transform="translate(13.058 43.729)">
        <g id="Grupo_155603" data-name="Grupo 155603">
          <path id="Trazado_597800" data-name="Trazado 597800" d="M173.926,43.729a6.964,6.964,0,1,0,6.964,6.964A6.972,6.972,0,0,0,173.926,43.729Zm0,11.581a4.617,4.617,0,1,1,4.617-4.617A4.623,4.623,0,0,1,173.926,55.31Z" transform="translate(-166.962 -43.729)" fill="#6f88aa"/>
        </g>
      </g>
      <g id="Grupo_155606" data-name="Grupo 155606" transform="translate(27.006 50.203)">
        <g id="Grupo_155605" data-name="Grupo 155605">
          <path id="Trazado_597801" data-name="Trazado 597801" d="M350.507,126.5a5.213,5.213,0,1,0,5.213,5.213A5.218,5.218,0,0,0,350.507,126.5Zm0,8.079a2.866,2.866,0,1,1,2.866-2.866A2.869,2.869,0,0,1,350.507,134.583Z" transform="translate(-345.294 -126.504)" fill="#6f88aa"/>
        </g>
      </g>
    </g>
  </g>
</svg>
