<svg xmlns="http://www.w3.org/2000/svg" width="71" height="70" viewBox="0 0 71 70">
  <g id="Grupo_155999" data-name="Grupo 155999" transform="translate(-285 -3180)">
    <ellipse id="Elipse_5542" data-name="Elipse 5542" cx="35.5" cy="35" rx="35.5" ry="35" transform="translate(285 3180)" fill="#ffe9f6"/>
    <g id="opinion" transform="translate(299 3189)">
      <path id="Trazado_597814" data-name="Trazado 597814" d="M109.143,275.1l-2.378-2.081-1.643,1.878,4.275,3.74,5.81-6.778-1.894-1.624Z" transform="translate(-96.38 -243.181)" fill="#6f88aa"/>
      <path id="Trazado_597815" data-name="Trazado 597815" d="M40.647,22.269A11.228,11.228,0,0,0,31.185,5H26.2A11.227,11.227,0,0,0,15.61,19.969H11.226a11.227,11.227,0,0,0-5.6,20.961,5.032,5.032,0,0,1-.837,2.447l-2.135,3.2H7.415a7.579,7.579,0,0,0,6.746-4.158h2.055A11.226,11.226,0,0,0,26.8,27.453h1.414A7.563,7.563,0,0,0,35,31.68h4.756l-2.135-3.2a5.031,5.031,0,0,1-.841-2.514A11.255,11.255,0,0,0,40.647,22.269ZM16.216,39.927H12.469l-.3.822a5.074,5.074,0,0,1-4.755,3.336H7.272a7.513,7.513,0,0,0,.865-3.668l-.021-1.024-.688-.333a8.733,8.733,0,0,1,3.8-16.6h4.99a8.732,8.732,0,0,1,0,17.463ZM34.985,24.09l-.688.333-.022,1.094a7.514,7.514,0,0,0,.865,3.668H35a5.064,5.064,0,0,1-4.776-3.391l-.292-.836H26.2c-.222,0-.445-.009-.666-.026a11.254,11.254,0,0,0-7.118-4.747A8.734,8.734,0,0,1,26.2,7.495h4.99a8.733,8.733,0,0,1,3.8,16.6Z" fill="#6f88aa"/>
      <path id="Trazado_597816" data-name="Trazado 597816" d="M296.878,85.227l-2.86,2.86-2.86-2.86-1.764,1.764,2.86,2.86-2.86,2.86,1.764,1.764,2.86-2.86,2.86,2.86,1.764-1.764-2.86-2.86,2.86-2.86Z" transform="translate(-265.328 -73.555)" fill="#6f88aa"/>
    </g>
  </g>
</svg>
