<svg xmlns="http://www.w3.org/2000/svg" width="71" height="71" viewBox="0 0 71 71">
  <g id="Grupo_156001" data-name="Grupo 156001" transform="translate(-285 -3475)">
    <circle id="Elipse_5544" data-name="Elipse 5544" cx="35.5" cy="35.5" r="35.5" transform="translate(285 3475)" fill="#ffe9f6"/>
    <g id="testing" transform="translate(300 3475)">
      <path id="Trazado_597809" data-name="Trazado 597809" d="M39.39,16H1.189A1.189,1.189,0,0,0,0,17.189V45.721A1.189,1.189,0,0,0,1.189,46.91H16.723v4.755H13.157a1.189,1.189,0,1,0,0,2.378H27.423a1.189,1.189,0,0,0,0-2.378H23.856V46.91H39.39a1.189,1.189,0,0,0,1.189-1.189V17.189A1.189,1.189,0,0,0,39.39,16ZM38.2,39.777H21.478v-21.4H38.2Zm-19.1-21.4v21.4H2.378v-21.4Zm2.378,33.288H19.1V46.91h2.378Zm-19.1-7.133V42.155H38.2v2.378Z" fill="#6f88aa"/>
      <path id="Trazado_597810" data-name="Trazado 597810" d="M78.725,82.784a1.189,1.189,0,0,0,1.681,0l4.755-4.755a1.189,1.189,0,0,0-1.681-1.681l-3.915,3.915-1.537-1.537a1.189,1.189,0,0,0-1.681,1.681Z" transform="translate(-69.976 -55.244)" fill="#6f88aa"/>
      <path id="Trazado_597811" data-name="Trazado 597811" d="M331.348,82.784a1.189,1.189,0,0,0,1.681,0l1.537-1.537,1.537,1.537a1.189,1.189,0,0,0,1.681-1.681l-1.537-1.537,1.537-1.537a1.189,1.189,0,0,0-1.681-1.681l-1.537,1.537-1.537-1.537a1.189,1.189,0,1,0-1.681,1.681l1.537,1.537L331.348,81.1A1.189,1.189,0,0,0,331.348,82.784Z" transform="translate(-304.766 -55.244)" fill="#6f88aa"/>
      <path id="Trazado_597812" data-name="Trazado 597812" d="M94.567,196a3.567,3.567,0,1,0,3.567,3.567A3.571,3.571,0,0,0,94.567,196Zm0,4.755a1.189,1.189,0,1,1,1.189-1.189A1.19,1.19,0,0,1,94.567,200.755Z" transform="translate(-83.788 -165.734)" fill="#6f88aa"/>
      <path id="Trazado_597813" data-name="Trazado 597813" d="M334.567,196a3.567,3.567,0,1,0,3.567,3.567A3.571,3.571,0,0,0,334.567,196Zm0,4.755a1.189,1.189,0,1,1,1.189-1.189A1.19,1.19,0,0,1,334.567,200.755Z" transform="translate(-304.766 -165.734)" fill="#6f88aa"/>
    </g>
  </g>
</svg>
