<svg xmlns="http://www.w3.org/2000/svg" width="85" height="85" viewBox="0 0 85 85"><g transform="translate(-913 -3863)"><circle cx="42.5" cy="42.5" r="42.5" transform="translate(913 3863)" fill="#fff"/><g transform="translate(927.986 3878)"><path d="M54.975,43.244,39.382,27.651l10.61-10.59h0l3.068-3.068a8.133,8.133,0,0,0,0-11.5l-.1-.1a8.142,8.142,0,0,0-11.5,0L38.387,5.453,27.775,16.045,12.206.476a1.624,1.624,0,0,0-2.3,0L.489,9.9a1.624,1.624,0,0,0,0,2.3L16.047,27.751,2.8,40.975a1.645,1.645,0,0,0-.446.836L.052,53.5a1.636,1.636,0,0,0,1.92,1.9l11.6-2.381a1.644,1.644,0,0,0,.839-.445L27.653,39.357l15.6,15.6a1.624,1.624,0,0,0,2.3,0l9.42-9.42a1.624,1.624,0,0,0,0-2.3Zm-17.89-17.89L34.727,23l9.461-9.444,2.358,2.358ZM43.751,4.682a4.89,4.89,0,0,1,6.908,0l.1.1a4.89,4.89,0,0,1,0,6.908l-1.92,1.92L41.831,6.6ZM39.533,8.9l2.358,2.358L32.43,20.7l-2.358-2.358Zm-21.19,21.15L20.7,32.405,8.6,44.48l-.052-.052-2.309-2.3ZM13.264,49.13,10.9,46.774,23,34.7l2.358,2.358ZM4.951,45.423l2.5,2.5h0L9.98,50.441,3.711,51.728Zm39.455,6.093-3.74-3.74,1.221-1.221a1.624,1.624,0,0,0-2.3-2.3l-1.221,1.221-3.027-3.027,2.789-2.789a1.624,1.624,0,1,0-2.3-2.3l-2.789,2.789-3.094-3.094,1.221-1.221a1.624,1.624,0,0,0-2.3-2.3l-1.221,1.221L25.3,32.406l2.789-2.789a1.624,1.624,0,1,0-2.3-2.3L23,30.109l-2.357-2.357,1.221-1.221a1.624,1.624,0,0,0-2.3-2.3l-1.221,1.221-3-3,2.789-2.789a1.624,1.624,0,0,0-2.3-2.3l-2.789,2.789-3.027-3.027,1.221-1.221a1.624,1.624,0,1,0-2.3-2.3L7.727,14.837,3.935,11.044l7.123-7.124L26.623,19.486l0,0,0,0L35.934,28.8h0L51.53,44.393Z" transform="translate(0)" fill="#516e75"/></g></g></svg>