<svg xmlns="http://www.w3.org/2000/svg" width="85" height="85" viewBox="0 0 85 85"><g transform="translate(-1223 -3863)"><circle cx="42.5" cy="42.5" r="42.5" transform="translate(1223 3863)" fill="#fff"/><g transform="translate(1236 3866.738)"><g transform="translate(0 10.262)"><path d="M59.459,41.607A23.485,23.485,0,0,0,41.2,21.013V18.057a3.956,3.956,0,0,0-.955-7.8H31.864a3.956,3.956,0,0,0-.955,7.8v2.965a23.363,23.363,0,0,0-11.458,6.3,23.616,23.616,0,0,0-1.976,2.242c-.029,0-.058,0-.088,0H9.1a1.164,1.164,0,1,0,0,2.327h6.8a23.326,23.326,0,0,0-2.065,4.472H1.164a1.164,1.164,0,1,0,0,2.327H13.17a23.658,23.658,0,0,0-.577,4.472H7.447a1.164,1.164,0,0,0,0,2.327h5.183a23.623,23.623,0,0,0,.727,4.472H5.818a1.164,1.164,0,1,0,0,2.327H14.1A23.5,23.5,0,0,0,33.747,67.334q1.153.114,2.306.113A23.56,23.56,0,0,0,48.88,63.657a1.164,1.164,0,1,0-1.27-1.95,21.177,21.177,0,1,1,6.237-6.245A1.164,1.164,0,1,0,55.8,56.729,23.579,23.579,0,0,0,59.459,41.607ZM30.235,14.218a1.631,1.631,0,0,1,1.629-1.629h8.378a1.629,1.629,0,1,1,0,3.258H31.864A1.631,1.631,0,0,1,30.235,14.218Zm3,6.4V18.174h5.633v2.443A23.708,23.708,0,0,0,33.236,20.622Z" transform="translate(0 -10.262)" fill="#516e75" stroke="#516e75" stroke-width="0.5"/><path d="M436.934,425.5a1.164,1.164,0,1,0,.823.341A1.17,1.17,0,0,0,436.934,425.5Z" transform="translate(-385.065 -377.184)" fill="#516e75" stroke="#516e75" stroke-width="0.5"/><path d="M172.922,144.609a18.05,18.05,0,1,0,18.05,18.05A18.071,18.071,0,0,0,172.922,144.609Zm0,33.773a15.723,15.723,0,1,1,15.723-15.723A15.741,15.741,0,0,1,172.922,178.382Z" transform="translate(-136.852 -128.977)" fill="#516e75" stroke="#516e75" stroke-width="0.5"/><path d="M270.559,219.752l-5.763,5.763a3.607,3.607,0,0,0-3.194,0l-2.579-2.579a1.164,1.164,0,0,0-1.646,1.646l2.579,2.579a3.616,3.616,0,1,0,6.485,0l5.594-5.594h0l.169-.169a1.164,1.164,0,0,0-1.646-1.646Zm-7.36,10.294a1.289,1.289,0,1,1,1.289-1.289A1.29,1.29,0,0,1,263.2,230.046Z" transform="translate(-227.128 -195.075)" fill="#516e75" stroke="#516e75" stroke-width="0.5"/><path d="M399.9,289.86h-1.078a1.164,1.164,0,0,0,0,2.327H399.9a1.164,1.164,0,1,0,0-2.327Z" transform="translate(-351.385 -257.327)" fill="#516e75" stroke="#516e75" stroke-width="0.5"/><path d="M195.323,289.616h-1.078a1.164,1.164,0,1,0,0,2.327h1.078a1.164,1.164,0,1,0,0-2.327Z" transform="translate(-170.616 -257.111)" fill="#516e75" stroke="#516e75" stroke-width="0.5"/><path d="M301.287,186.224a1.164,1.164,0,0,0,1.164-1.164v-1.078a1.164,1.164,0,1,0-2.327,0v1.078A1.164,1.164,0,0,0,301.287,186.224Z" transform="translate(-265.202 -162.741)" fill="#516e75" stroke="#516e75" stroke-width="0.5"/><path d="M301.043,387.393a1.164,1.164,0,0,0-1.164,1.164v1.078a1.164,1.164,0,0,0,2.327,0v-1.078A1.164,1.164,0,0,0,301.043,387.393Z" transform="translate(-264.986 -343.511)" fill="#516e75" stroke="#516e75" stroke-width="0.5"/><path d="M1.164,351.44a1.164,1.164,0,1,0,.823,1.986,1.164,1.164,0,0,0-.823-1.986Z" transform="translate(0 -311.742)" fill="#516e75" stroke="#516e75" stroke-width="0.5"/></g></g></g></svg>