<svg xmlns="http://www.w3.org/2000/svg" xmlns:xlink="http://www.w3.org/1999/xlink" width="820" height="243.511" viewBox="0 0 820 243.511"><defs><clipPath id="a"><rect width="652.816" height="231.509" fill="none"/></clipPath><clipPath id="c"><rect width="8.68" height="21.805" fill="none"/></clipPath><clipPath id="d"><rect width="88.339" height="89.891" fill="none"/></clipPath><clipPath id="e"><rect width="42.131" height="12.154" fill="none"/></clipPath><clipPath id="f"><rect width="44.32" height="15.376" fill="none"/></clipPath><radialGradient id="g" cx="0.712" cy="0.285" r="0.5" gradientUnits="objectBoundingBox"><stop offset="0" stop-color="#fff"/><stop offset="0.13" stop-color="#fefef8"/><stop offset="1" stop-color="#ffa8d9"/></radialGradient><radialGradient id="h" cx="0.712" cy="0.285" r="0.5" gradientUnits="objectBoundingBox"><stop offset="0" stop-color="#fff"/><stop offset="0.13" stop-color="#fefef8"/><stop offset="1" stop-color="#c0d6f6"/></radialGradient><radialGradient id="i" cx="0.712" cy="0.285" r="0.5" gradientUnits="objectBoundingBox"><stop offset="0" stop-color="#fff"/><stop offset="0.13" stop-color="#fefef8"/><stop offset="1" stop-color="#cbf0aa"/></radialGradient></defs><g transform="translate(-390 -5582.998)"><path d="M1524.387,11939.5H760.709c1.009-10.058,3.4-24.531,9.036-36.373,6.62-13.9,16.11-20.94,28.209-20.94,6.482,0,13.791,2.056,21.724,6.11a20.372,20.372,0,0,0,9.264,2.427c8.455,0,16.422-6.239,25.073-19.634,7.806-12.087,15.5-28.99,23.645-46.887l0-.009.006-.014c4.269-9.38,8.683-19.08,13.43-28.821a377.324,377.324,0,0,1,19.059-35.016,183.924,183.924,0,0,1,23.265-30.545,117.7,117.7,0,0,1,13.647-12.2,92.446,92.446,0,0,1,15.223-9.405,81.074,81.074,0,0,1,16.973-6.054,83.07,83.07,0,0,1,18.9-2.142,100.4,100.4,0,0,1,21.075,2.344,138.146,138.146,0,0,1,23.367,7.411c56.57,23.321,97.51,49.718,130.405,70.927,38.023,24.515,65.492,42.225,95.545,42.225a79.4,79.4,0,0,0,24.788-4.056,122.232,122.232,0,0,0,27.131-13.051,120.3,120.3,0,0,1,34.39-14.342,159.07,159.07,0,0,1,38.955-4.671,181.158,181.158,0,0,1,39.114,4.3,170.567,170.567,0,0,1,36.833,12.6c24.418,11.715,42.985,28.4,53.693,48.247a88.16,88.16,0,0,1,10.571,39.707,103.586,103.586,0,0,1-2,22.95,133.343,133.343,0,0,1-7.647,24.9Z" transform="translate(-347 -6117)" fill="#fff"/><g transform="translate(473.592 5595)"><g clip-path="url(#a)"><g clip-path="url(#a)"><path d="M126.892,57.852c4.867-1.168,7.689-10.171,6.13-16.772-2-8.461-5.375-11.489-14.05-14.667Z" transform="translate(-7.129 -1.583)" fill="#5e2f36"/><path d="M448.7,219.068l-1.134,25.445h93.068s-2.533-20.66-4.23-27.507Z" transform="translate(-26.819 -13.003)" fill="#4f512e"/><path d="M558.217,105.923a20.194,20.194,0,0,1,13.176-6.168c8.359-.549,9.335-.119,12.8-1.076s5.548-2.81,3.1-11.438a12.962,12.962,0,0,1-11.01-.88c-5.505-3.262-11.724-9.188-10.4-35,.7-13.707,26.71-26.57,39.758-16.376s13.66,26.709,9.99,34.661-5.5,9.044-6.32,13.289-.158,10.371,2.7,12.6,23.1.909,28.579,8.076c7.706,8.705,33.374,43.969,39.488,53.612,2.942,4.639,6.106,8.707,5.4,11.019-1.41,5.17-40.188,65.143-40.188,65.143h-6.346l-1.567-20.763,20.682-41.206-21.112-31-73.183,7.465-.361-11.2s-11.33.071-16.628-.869Z" transform="translate(-32.764 -1.876)" fill="#f8c6a3"/><path d="M610.88,89.02a3.383,3.383,0,0,1-.178.9,5.907,5.907,0,0,1-3.815,3.836,17.669,17.669,0,0,1-5.368.7,19.173,19.173,0,0,1-12.342-4.33,12.988,12.988,0,0,1-12.057-1.489,6.6,6.6,0,0,0,7.228-8.494c-.931-3.329,26.531,8.865,26.531,8.865Z" transform="translate(-34.582 -4.768)" fill="#f3bd99"/><path d="M670.729,178.828c-.47-1.567-5.956-10.968-5.956-10.968,8.771-4.542,13.286-15.089,13.288-15.093h0l-8.114-5.589-24.678,3.916,18.567,27.263-20.682,41.206.491,6.5c6.888-11.474,27.477-45.934,27.085-47.239" transform="translate(-38.539 -8.819)" fill="#f3bd99"/><path d="M587.664,101.338c6,1.941,19.508,2.945,24.976-1.709,0,0,7.091.48,11.188.83,6.27.534,13.318.475,19.9,7.286s29.808,41.206,29.808,41.206-6.933,12.456-24.589,14.523l-8.859-12.538s-1.687,23.867-.747,44.548c.642,14.125,2.7,41.994,2.7,41.994H557.787s-2.193-71.685,2.507-87.04l8.028-45.991a73.608,73.608,0,0,1,8.511-.856,42.044,42.044,0,0,0,10.831-2.254" transform="translate(-33.393 -5.97)" fill="#00a6b7"/><path d="M618.71,34.016a11.025,11.025,0,0,0-3.809.195,10.875,10.875,0,0,0-17.153-11.875,4.125,4.125,0,0,0-6.269-.015,12.745,12.745,0,0,0-23.108,10.512,9.111,9.111,0,1,0-1.8,17.887c1.849,8.055,7.565,10.63,9.342,10.421,1.8-.213,1.048-6.894,6.227-7.1,7.368-.293,7.834,10.184,5.483,14.414s-4.371,2.787-5.483,3.134c-1.723,1.1,1.786,7.673,7.623,11.341,6.676,4.2,14.32,3.68,18.924,2.64,1.16-.262,2.792-1.569,4.556-3.58.1.018.2.041.307.055a6.4,6.4,0,0,0,6.215-9.788,9.091,9.091,0,0,0,5.31-13.147,4.137,4.137,0,0,0,.385-6.595,11.062,11.062,0,0,0-6.748-18.5" transform="translate(-33.37 -0.952)" fill="#d6594c"/><path d="M619.22,80.953c-2.727.049-3.33-2.972-4.4-1.9a19.875,19.875,0,0,1-5.545,3.557c-3.143,1.462-12.685,1.205-14.909.12-7.321-3.571-7.415-6.451-7.415-6.451,4.743-2.232,3.807-6.4,3.5-10.023a11.859,11.859,0,0,1-1.255,5.221c-2.35,4.23-4.371,2.787-5.483,3.134-1.724,1.1,1.786,7.672,7.623,11.341,6.676,4.2,14.32,3.68,18.924,2.64,1.16-.263,2.792-1.569,4.557-3.581.1.019.2.041.307.055a6.417,6.417,0,0,0,7.165-5.568,6.212,6.212,0,0,0,0-1.435,2.9,2.9,0,0,1-3.072,2.895" transform="translate(-34.951 -3.97)" fill="#bf4a41"/><path d="M364.591,72.086c-2.084-1.667-5-2.084-7.085,1.111s2.361,14.727,8.752,11.115Z" transform="translate(-21.391 -4.243)" fill="#f8c6a3"/><path d="M417.216,72.086c2.084-1.667,5-2.084,7.085,1.111s-2.362,14.727-8.753,11.115Z" transform="translate(-24.901 -4.243)" fill="#f8c6a3"/><path d="M362.621,74.389c0-16.117,12.028-29.182,26.866-29.182s26.866,13.065,26.866,29.182-12.028,29.182-26.866,29.182-26.866-13.065-26.866-29.182" transform="translate(-21.729 -2.709)" fill="#65439b"/><path d="M416.352,75.191a31.126,31.126,0,0,0-2.782-12.933,20.663,20.663,0,0,1-4.17,17.506c-3.161,4.108-18.839,6.236-31.794,1.722-12.675-4.416-12.933-17.478-10.217-22.886a30.806,30.806,0,0,0-4.768,16.59c0,16.117,12.028,29.182,26.866,29.182s26.866-13.065,26.866-29.182" transform="translate(-21.729 -3.511)" fill="#523c7c"/><path d="M418.009,50.929c-3.111,6.45-12.555,8.34-21.093,4.222S383.98,42.466,387.09,36.016s12.555-8.34,21.093-4.222,12.937,12.685,9.826,19.135" transform="translate(-23.135 -1.775)" fill="#65439b"/><path d="M136.163,243.981c1.316-12.053,3.913-27.261,7.017-35.845h82.91c3.1,8.584,5.7,23.792,7.017,35.845Z" transform="translate(-8.159 -12.472)" fill="#394e5b"/><path d="M328.5,210.586H244.194l-1.88,33.542H330.38Z" transform="translate(-14.52 -12.619)" fill="#47b"/><path d="M265.379,48.06c-2.084-1.667-5-2.084-7.085,1.111s2.361,14.727,8.752,11.115Z" transform="translate(-15.446 -2.803)" fill="#f8c6a3"/><path d="M315.972,48.028c2.1-1.644,5.024-2.03,7.073,1.189s-2.523,14.7-8.874,11.018Z" transform="translate(-18.826 -2.804)" fill="#f8c6a3"/><rect width="22.562" height="19.115" transform="translate(260.546 72.241)" fill="#f8c6a3"/><path d="M277.154,79.275v3.817s2.375,3.311,11.281,3.311,11.281-2.453,11.281-2.453v-7.1H277.154Z" transform="translate(-16.608 -4.605)" fill="#f3bd99"/><path d="M470.653,52.329c-2.084-1.667-5-2.084-7.085,1.111s2.361,14.727,8.752,11.115Z" transform="translate(-27.747 -3.059)" fill="#c17a61"/><path d="M132.615,101.629s-8.232-5.126-16.591-5.675-9.335-.12-12.8-1.076-5.548-2.811-3.1-11.438c0,0,6.8,2.074,12.331-1.147,8.637-5.032,8.221-21.7,8.221-35.422s-25.853-25.884-38.9-15.69-13.66,26.709-9.99,34.661,5.505,9.044,6.32,13.289.159,10.37-2.7,12.6-17.443-1.425-24.42,6.728c-7.1,8.291-31.195,49.136-35.68,57.088s-7.136,10.6-3.262,19.165,25.486,37.107,25.486,37.107l9.378-12.214L31.819,166.357l22.019-30.584,69.813,8.3.361-10.171s18.934-3.237,28.086-6.945Z" transform="translate(-0.609 -1.642)" fill="#e0a375"/><path d="M152.722,125.591c-2.232.745-16.015-10.778-17.016-8.219-1.328,3.392-.017,9.758,3.744,13.2-5.856,1.444-12.856,2.726-14.608,2.387-4.668-.905-10.865-9.482-11.277-20.163l-9.719,24.432,2.65,9.255,22.77,2.708.361-10.172s18.934-3.236,28.086-6.945Z" transform="translate(-6.223 -6.759)" fill="#d7986a"/><path d="M82.769,85.312a3.343,3.343,0,0,0,.177.9,5.909,5.909,0,0,0,3.815,3.836,17.669,17.669,0,0,0,5.368.7,19.173,19.173,0,0,0,12.342-4.33s6.827,2.115,12.331-1.148c-4.115-.916-9.5-3.965-9.722-7.414s-24.31,7.444-24.31,7.444Z" transform="translate(-4.96 -4.625)" fill="#ce8e60"/><path d="M55.035,128.281s-28.748,39.271-30.081,41.484,21.79,33.586,21.79,33.586L32.7,172.4l22.019-30.584,11.457,1.363,2.254-6.98Z" transform="translate(-1.492 -7.687)" fill="#d7986a"/><path d="M64.372,97.143C58.8,107.91,53.3,124.017,54.725,139.921S61.7,170.5,59.433,179.067,34.948,213.362,24.957,237.3h97.662s2.039-23.57,2.243-51.5-.5-42.271-.5-42.271-10.152,1.413-13.519-12.538c-3.835-15.885-2.089-26.913,2.191-31.008l-7.849-.783c-2.49,3.041-5.764,9.858-10.4,15.027-5.329,5.938-21.308,5.405-24.285-.157-2.174-4.063-.236-13.739,1.566-17.328,0,0-5.286-.534-7.7.406" transform="translate(-1.495 -5.788)" fill="#ffb4b6"/><path d="M126.952,164.164c-6.287,1.316-34.419,7.172-35.581,6.828-1.1-.327-23.358-2.243-30.409-2.845a61.214,61.214,0,0,1,1.153,9.941l.007.023s34.3,9.35,43.651,9.91,13.832-2.617,21.282-9.908q-.011-8.012-.1-13.949" transform="translate(-3.653 -9.837)" fill="#d3545e" opacity="0.23"/><path d="M154.8,133.308c-5.988,1.39-10.823,3.318-28.086,6.945-9.888,9.515-21.049,20-22.976,20.746-3.578,1.388-41.212.611-44.351-1.09L58.1,153.225s-3.474,2.208-2.847,10.517,4.2,8.93,4.2,8.93,39.975,8.461,48.786,6.015,47.439-34.839,47.439-34.839Z" transform="translate(-3.306 -7.988)" fill="#f8c6a3"/><path d="M155.547,135.553l-7.557-.153s-11.546,13.585-17.785,19.653-18.236,19.356-24.2,20.316-41.218-1.61-41.237-1.611c10.851,2.142,37.109,6.978,44.046,5.052,8.811-2.446,47.44-34.839,47.44-34.839Z" transform="translate(-3.881 -8.113)" fill="#f3bd99"/><path d="M521.383,52.3c2.1-1.644,5.024-2.03,7.073,1.189s-2.523,14.7-8.873,11.018Z" transform="translate(-31.134 -3.059)" fill="#c17a61"/><rect width="22.562" height="19.115" transform="translate(454.941 76.253)" fill="#c17a61"/><path d="M483.94,81.114v5.545A29.773,29.773,0,0,0,496.48,88.7c7.186-.369,10.022-3.074,10.022-3.074V81.114Z" transform="translate(-28.999 -4.861)" fill="#b5715a"/><path d="M152.647,135.4c.263,6.4.324,18.736,1.637,27.036,1.867,11.812-8.138,25.431-11.8,41.314,0,0,14.871,8.367,42.529,8.367s42.53-8.367,42.53-8.367c-3.662-15.883-13.667-29.5-11.8-41.314,1.312-8.3,2.238-20.547,2.5-26.946Z" transform="translate(-8.538 -8.113)" fill="#4795e9"/><path d="M216.383,168.6a21.448,21.448,0,0,1,.008-6.163c.841-5.313,1.52-12.238,1.971-18.217-.8-4.17-1.406-7.339-1.406-7.339l-1.545-1.4-62.116-.085c.045,1.076.083,2.331.124,3.7,2.805.651,10.066,5.6,11.882,14.844,1.528,7.773,6.107,19.968,23.931,22.114,11.141,1.341,21.186-3.508,27.152-7.454" transform="translate(-9.186 -8.113)" fill="#3981ce"/><path d="M332.719,217.261s-10.651,5.64-46.534,5.64-46.534-5.64-46.534-5.64.113-2.6.348-7.154c.4-8.038,1.184-22.176,2.322-38.8.019-.291.038-.583.066-.874.085-1.326.179-2.66.282-4.014.028-.451.066-.9.094-1.354.808-11.206,2.313-21.189,2.454-32.226.094-.667.188-1.326.273-1.984s.188-1.307.282-1.955c.282-1.955.573-3.883.855-5.772.15-.978.31-1.955.461-2.914,2.472-15.586,5.067-27.695,6.355-28.372,2.35-1.26,21.462-2.67,21.462-2.67s3.14,3.807,11.281,3.807,11.281-3.807,11.281-3.807,19.121,1.41,21.471,2.67,6.881,32.94,9.232,61.923,4.55,63.493,4.55,63.493" transform="translate(-14.36 -5.344)" fill="#def1f8"/><g transform="translate(303.922 114.066)" opacity="0.37"><g clip-path="url(#c)"><path d="M326.165,121.8c-4.859,1.763-2.078,21.345-2.078,21.345l7.888-.718c-.738-7.358-1.573-14.567-2.435-21.088a12.02,12.02,0,0,0-3.375.461" transform="translate(-323.294 -121.337)" fill="#90c8ee"/></g></g><g transform="translate(225.638 114.873)" opacity="0.37"><g clip-path="url(#d)"><path d="M328.36,168.851s-32.969,13.847-39.878,16.715-29.622-5.923-34.106-7.483c-1.617-.564-7.69-2.595-14.355,34,.4-8.038,1.184-22.176,2.322-38.8.019-.291.038-.583.066-.874.085-1.326.179-2.66.282-4.014.028-.451.066-.9.094-1.354.808-11.206,2.313-21.189,2.454-32.226.094-.667.188-1.326.273-1.984s.188-1.307.282-1.955c.282-1.955.573-3.883.855-5.772.16-.978.31-1.955.461-2.914,4.917,1.758,6.364,4.522,7.1,9.363,1.072,7.079.874,29.02.874,29.02l33.194,13.829Z" transform="translate(-240.021 -122.195)" fill="#90c8ee"/></g></g><path d="M236.552,133.308s42.233,26.529,45.9,27.663,41.746-3.432,44.759-5.348l-.5-5.828s5.675,1.539,5.63,9.872-4.9,9.855-4.9,9.855-39.286,11.233-48.247,9.408-54.444-28.122-54.444-28.122Z" transform="translate(-13.468 -7.988)" fill="#f8c6a3"/><path d="M329.4,150.844l.5,5.828c-3.013,1.916-41.094,6.483-44.759,5.349a100.981,100.981,0,0,1-10.055-5.594l-5.452-.356c3.068,2.3,12.649,10.12,25.639,14.122s13.555,1.731,19.2-.946c5.2-2.468,15.908-8.733,20.1-12.316-1.331-5.031-5.178-6.087-5.178-6.087" transform="translate(-16.157 -9.039)" fill="#edb48e"/><path d="M280.7,174.126c-3.77-1.831-43.007-24-51.268-29.593l-4.684,6.946s45.483,26.3,54.444,28.122,48.247-9.408,48.247-9.408-42.5,5.992-46.738,3.932" transform="translate(-13.468 -8.661)" fill="#f3bd99"/><path d="M189.559,23.271c-7.8,0-18.938.676-22.319,13.358-6.364.053-12.973,3.79-12.033,12.878,1.2,11.638-.363,14.392-5.215,18.453-6.731,5.635-7.366,11.887-6.451,17.27S142.158,96.673,139,104.578s-.593,18.775,9.289,22.53,15.613,5.929,18.578,14.427,10.52,21.013,31.179,20.067c24.678-1.13,37.13-26.248,32.854-40.028-3.557-11.462-3.953-16.009-1.572-24.889,2.208-8.239,1.091-16.559-9.3-23.052-7.808-4.879-7.134-16.836-8.147-24.325-1.69-12.512-7.778-26.039-22.319-26.039" transform="translate(-8.252 -1.394)" fill="#aa683a"/><path d="M142.36,103.413l-1.94,2.771c7.042,4.125,28.21,21.086,34.725,23.216s38.81,4.708,56.609,5.562a22.439,22.439,0,0,0-.7-8.587c-1.738-5.6-2.716-9.546-2.989-13.155l-38.692-2.093Z" transform="translate(-8.414 -6.197)" fill="#935b35"/><path d="M412.087,88.048c-7.694.744-27.912,1.686-41.282-.682s-29.246-5.71-38.159-2.646a78.136,78.136,0,0,0-13.492,5.809l4.5.946s60.365,20.681,63.229,20.959,26.015-1.949,26.015-1.949Z" transform="translate(-19.124 -5.003)" fill="#c17a61"/><path d="M386.882,112.77c2.587.252,21.736-1.543,25.4-1.891l-7.428-14.472c-7.113,2.383-15.769,6.27-19.262,6.149s-41.306-12.981-49.2-13.385-17.239,1.694-17.239,1.694l4.5.946s60.365,20.681,63.229,20.959" transform="translate(-19.124 -5.34)" fill="#b5715a"/><path d="M530.014,92.392c-10.318-.386-21.711-4.5-27.933-2.193,0,0-1.522,3.446-10.61,3.916a22.178,22.178,0,0,1-11.952-2.6s-10.268-2.987-18.393-4.946c-7.345-1.77-11.352-1.4-19.976-.7C432.694,86.561,411.5,88.6,411.5,88.6s-5.417,20.478,5.454,30.584c0,0,10.987,1.518,16.861,2.82,7.664,1.7,9.647,3.806,9.647,5.965,0,5.04,0,57.177,1.634,82.56,0,0,13.09,7.427,49.324,6.707S536.891,211,536.891,211s-5.537-74.389-5.577-78.33a5.016,5.016,0,0,1,.619-2.755" transform="translate(-24.577 -5.111)" fill="#ffeaa8"/><path d="M452.6,184.173c5.475-4.366,73.086,18.6,76.645,15.315,1.592-1.469,3.951-5.459,6.072-9.494-.231-3.146-.476-6.479-.725-9.891-5.656.994-13.559,2.687-13.559,2.687l3.025-24.3s-62.972-.061-67.313-4.333-5.24-27.755-5.787-33.141-11.223-8.847-22.556-11.138L422.5,98.9l-11.777,8.539c.8,4.579,2.6,9.16,6.267,12.565,0,0,10.986,1.518,16.86,2.82,7.665,1.7,9.648,3.806,9.648,5.964,0,5.04,0,57.177,1.633,82.56,0,0,1.994-22.805,7.469-27.171" transform="translate(-24.611 -5.926)" fill="#f7d89a"/><path d="M434.773,86.5c-.007,0-24.463,9.753-24.463,9.753a42.221,42.221,0,0,0,.342,10.268c4.821.337,10.968.723,10.968.723L432.9,96.271Z" transform="translate(-24.577 -5.183)" fill="#f7d89a"/><path d="M205.626,98.221,181.491,103.7s-25.078-7.748-35.681-9.175-23.038,5.442-23.038,5.442,11.162,2.114,16.59,5.676,32.953,18.649,41.925,19.057,32.214,0,32.214,0Z" transform="translate(-7.357 -5.652)" fill="#f8c6a3"/><path d="M181.286,124.945c8.971.408,32.214,0,32.214,0l-7.875-26.476a33.192,33.192,0,0,0-10.015,19.57s-8.469,1.384-14.378.854-37.417-15.7-44.41-16.877-14.051-1.8-14.051-1.8,11.162,2.113,16.591,5.675,32.953,18.649,41.924,19.057" transform="translate(-7.357 -5.9)" fill="#f3bd99"/><path d="M346.06,142.063s-.048,8.8,7.724,22.188c4.038,6.955,2.775,13.3,0,25.476s-11.63,48.933-11.63,48.933h97.231s-5.418-25.308-16.458-43.522c-9.4-15.508-17.788-23.462-16.458-29.818,2.726-13.014,12-42.466,7.805-45.983l-68.215,3.934Z" transform="translate(-20.503 -7.151)" fill="#ff2195"/><path d="M354.034,145.156a24.428,24.428,0,0,0,4.146-7.532s30.443,1.438,35.113,1.425c3.526-.01,16.345-9.661,22.285-14.781.083-2.457-.21-4.225-1.053-4.931l-68.215,3.933v18.793a29.665,29.665,0,0,0,1.166,6.892,11.038,11.038,0,0,0,6.559-3.8" transform="translate(-20.752 -7.151)" fill="#d9167c"/><path d="M557.33,153.169S541.4,181.546,531.964,193.96a5.309,5.309,0,0,1-4.987,2.487c-6.4-.127-67.524-17.872-74.684-21.133-7.914-3.6-10.916-6.573-12.078-15.664s5.057-18.805,5.057-18.805l.069,12.224s13.845,5.951,20.7,7.831,47.748,9.558,47.748,9.558l17.391-27.889Z" transform="translate(-26.37 -8.44)" fill="#f8c6a3"/><path d="M549.459,149.978l-18.28-7.409-8.855,14.2a29.58,29.58,0,0,0,6.3,11.929,31.212,31.212,0,0,0,7.18,6.315s-6.949,11.279-8.8,12.67-60.212-14.716-60.212-14.716l38.366-4.146c-11.716-2.226-33.938-6.5-39.12-7.922-6.854-1.88-20.7-7.831-20.7-7.831l-.07-12.225s-6.219,9.715-5.057,18.805,4.166,12.061,12.079,15.665c7.16,3.26,68.283,21.006,74.683,21.133a5.305,5.305,0,0,0,4.986-2.488c7.354-9.677,18.655-29.049,23.282-37.125Z" transform="translate(-26.37 -8.44)" fill="#f3bd99"/><path d="M418.7,119.334c4.6-.7,9.477,6.471,16.817,12.686,6.622,5.606,23.666,17.6,26.133,17.717l61.461,2.166-8.67,13.9c-8.359,1.55-54.9,3.987-58.186,3.047-6.243-1.783-40.268-23.877-40.268-23.877,2.3-10.509,3.269-20.907,2.713-25.642" transform="translate(-24.927 -7.148)" fill="#ffdbc2"/><path d="M569.34,140.791c-4.541,11.469-17,30.947-17,30.947C534.633,168.824,526.5,152.9,526.5,152.9s3.243-6.308,8.066-14.712c0-.009,0-.009.009-.019,1.279-2.247,2.679-4.635,4.165-7.1,1.062-1.711,3.836-2.435,9.213-2.266a101.43,101.43,0,0,0,17.025-1.354,44.921,44.921,0,0,0,1.485-10.726,58.031,58.031,0,0,1-17.476,3.591,24.856,24.856,0,0,0-3.8.442c.63-.959,1.26-1.908,1.9-2.848,7.286-10.773,13.838-13.923,19.394-13.161,6.242,7.521,5.932,28.278,2.858,36.043" transform="translate(-31.549 -6.27)" fill="#00a6b7"/><path d="M348.887,122.542c-5.288-.9-14.442,3.45-21.783,9.666-6.622,5.606-25.3,17.639-27.764,17.756-3.379.161-38.915-3.8-38.915-3.8s10.49,12.48,23.873,16.769c10.576,3.389,17.2,4.778,23.619,3.838s36.076-21.624,36.076-21.624c4.893-3.028,8.046-17.482,4.893-22.6" transform="translate(-15.605 -7.336)" fill="#ffdbc2"/><path d="M342.439,136.1c1.35,2-18.086,14.7-23.8,18.96s-10.838,7.01-17.147,6.6-22.8-3.484-40.321-14.707h0c2.553,2.811,11.82,12.338,23.171,15.975,10.576,3.389,17.195,4.779,23.619,3.839s36.076-21.625,36.076-21.625c4.893-3.027,8.046-17.481,4.893-22.6-5.288-.9-14.442,3.45-21.783,9.665,0,0,13.94,1.891,15.29,3.895" transform="translate(-15.65 -7.336)" fill="#fbd1b5"/><path d="M364.837,101.136l23.573,8.287s29.7-16.883,39.705-20.682c16.267-13.884,29.677-2.373,29.677-2.373s-6.443.337-22.85,13.907c-5,4.138-34.462,31.261-43.433,30.83s-36.986-4.343-36.986-4.343Z" transform="translate(-21.244 -4.907)" fill="#f8c6a3"/><path d="M391.511,131.321c8.97.431,38.429-26.692,43.433-30.83,16.406-13.571,22.849-13.907,22.849-13.907-5.73-3.252-14.783,1-24.476,8.929s-37.421,28.812-40.8,28.835-19.9-2.293-19.9-2.293c-1.969-17.66-7.78-20.7-7.78-20.7l-10.312,25.626s28.015,3.912,36.985,4.343" transform="translate(-21.244 -5.122)" fill="#f3bd99"/><path d="M323.843,91.979s6.563-.73,17.678,2.745c11.9,3.721,21.386,7.013,21.386,7.013s8.676,10.686,2.013,29.969c0,0-10.03-.785-20.86-2.018-9.8-1.115-9.76-2.013-13.247.693,0,0-5.2-2.22-7.553-16.087-2.449-14.452.583-22.315.583-22.315" transform="translate(-19.313 -5.508)" fill="#00a5c8"/><g transform="translate(305.561 114.045)" opacity="0.37"><g clip-path="url(#e)"><path d="M325.038,122.822c2.544,7.868,5.938,9.32,5.938,9.32,3.487-2.706,3.449-1.808,13.247-.692,10.831,1.232,20.86,2.018,20.86,2.018a46.748,46.748,0,0,0,2.085-8.364c-12.757-1.545-36.04-5.071-40.9-3.308a2.633,2.633,0,0,0-1.231,1.026" transform="translate(-325.038 -121.314)" fill="#3e65ae"/></g></g><path d="M114.548,57.411c1.8.213,6.951-3,8.7-11.305,0,0,5.557-14.077-8.073-20.344S88.019,20.794,78.9,29.051c-10.862,9.832-12.1,24.557-9,35.253C72.615,73.7,75.109,78.879,82.83,82.359c4.6,1.041,12.246,1.557,18.924-2.64,5.837-3.668,9.345-10.245,7.623-11.341-1.113-.347-3.133,1.1-5.483-3.134s-1.889-14.578,5.483-14.414c5.294.118,3.372,6.367,5.17,6.581" transform="translate(-4.1 -1.308)" fill="#5e2f36"/><path d="M84.784,24.336S82.672,3.837,62.727.678c-20.269-3.21-30.92,5.432-35.1,16.465-4.354,11.5,4.074,25.069-6.11,32.276S.839,59.759.055,70.884,7.106,84.323,8.046,90.451,3.53,103,11.194,110.837s29.6,8.964,41.348-8.2c10.07-14.706,6.424-29.562,6.738-45.386s1.756-24.72,8.774-29.61c6.072-4.23,13.005.937,13.005.937Z" transform="translate(0 0)" fill="#5e2f36"/><path d="M276.268,27a8.348,8.348,0,0,0-8.891,1.945c-4.168,4.029-5.419,13.754-2.5,25.008s5.61,23.089,23.063,24.451c15.969,1.247,23.216-11.88,25.179-23.306,1.427-8.307,1.917-12.543,1.917-12.543a12.906,12.906,0,0,0,6.334-5.239c2.877-4.876-1.526-3.675-6.111-4.23,0,0,5.362-2.921,7.286-7.286,2.977-6.757.173-8.183-5.523-6.933s-11.716-.342-19.913-2.7S276.547,15.607,276.268,27" transform="translate(-15.777 -0.914)" fill="#2f256a"/><path d="M274.245,89.4s2.151,6.34,14.016,6.34,14.017-6.338,14.017-6.34l-.023,0-2.713-.214s-3.133,3.8-11.281,3.8-11.281-3.8-11.281-3.8l-2.725.215h-.009" transform="translate(-16.433 -5.344)" fill="#00a5c8"/><path d="M251.327,91.988s-7.475-1.34-18.866,1.083c-12.2,2.595-21.947,4.988-21.947,4.988s-9.635,9.829-4.8,29.65c0,0,9.614.373,20.511.641,10.315.254,15.225,1.5,16.881,4.635,0,0,4.932-4.334,7.595-18.748s.627-22.249.627-22.249" transform="translate(-12.245 -5.49)" fill="#00a5c8"/><g transform="translate(192.118 112.119)" opacity="0.37"><g clip-path="url(#f)"><path d="M234.475,130.579c4.849.665,7.5,1.924,8.632,4.063,0,0,3-2.633,5.577-10.619-2.33-1.941-6.227-3.067-12.976-3.884-10.048-1.215-22.488-.8-31.344-.8.012.67.047,1.364.095,2.069.011.155.023.311.035.469.057.722.128,1.457.228,2.216l0,.016c.1.736.222,1.495.361,2.264.035.194.071.387.108.583.153.79.321,1.592.522,2.416,0,0,9.614.374,20.512.642,2.22.055,4.175.158,5.916.314.824.073,1.608.157,2.333.257" transform="translate(-204.364 -119.266)" fill="#3e65ae"/></g></g><path d="M507.155,28.248a8.347,8.347,0,0,1,8.891,1.945c4.168,4.029,5.419,13.754,2.5,25.008s-6.8,25.784-24.306,25.784c-18.31,0-21.973-13.213-23.936-24.639-1.427-8.307-1.917-12.543-1.917-12.543a12.906,12.906,0,0,1-6.334-5.239c-2.877-4.876,1.526-3.675,6.11-4.23,0,0-5.362-2.921-7.286-7.286-2.977-6.758-.173-8.183,5.523-6.933s11.716-.342,19.913-2.7,20.561-.557,20.84,10.836" transform="translate(-27.545 -0.989)" fill="#3f292d"/><path d="M562,92.574c12.34-.484,47.157-8.539,51.87-6.337s9.009,7.456,3,15.138-42.524,21.567-51.76,21.6Z" transform="translate(-33.676 -5.145)" fill="#c17a61"/><path d="M616.866,101.575c4.214-5.384,3.364-9.573.856-12.356.9,3.114,1.947,6.722-8.36,11.744s-36.94,11.837-36.94,11.837C569.057,98.018,562,92.774,562,92.774l3.105,30.406c9.235-.038,45.746-13.923,51.76-21.6" transform="translate(-33.676 -5.346)" fill="#b5715a"/><path d="M539.141,130.193c1.066-1.713,3.721-2.263,9.1-2.095a101.927,101.927,0,0,0,17.026-1.356s5.692-19.013-5.106-33.751c0,0-12.57.24-22.888-.147,0,0-14.736,23.477,1.871,37.347" transform="translate(-31.833 -5.564)" fill="#ffeaa8"/><path d="M549.5,121.086a24.855,24.855,0,0,0-3.8.442c-9.89,2.012-7.85,10-10.613,17.41,1.279-2.247,2.679-4.635,4.165-7.1,1.062-1.711,3.836-2.435,9.213-2.266a101.429,101.429,0,0,0,17.025-1.354,44.924,44.924,0,0,0,1.485-10.726,58.03,58.03,0,0,1-17.476,3.591" transform="translate(-32.064 -7.041)" fill="#f7d89a"/><path d="M457.057,163.115c-2.439-1.247-33.718-19.236-34.245-20.093s-1.254-2.527-1.076-10.551a25.382,25.382,0,0,0-3.037-13.134c.557,4.734-.415,15.132-2.712,25.643,0,0,34.025,22.093,40.267,23.876,3.29.94,49.828-1.5,58.186-3.047l2.6-4.165c-11.972.545-57.863,2.556-59.982,1.472" transform="translate(-24.927 -7.151)" fill="#fbd1b5"/><path d="M412.713,57.358c-.025.011-11.313,4.9-22.608-6.306,0,0,2.578,9.1,15.367,10.611,4.786.567,9.235-.944,8.905-1.561a29.649,29.649,0,0,0-1.665-2.744" transform="translate(-23.376 -3.059)" fill="#523c7c"/><path d="M536.625,165.969a34.368,34.368,0,0,0,16.324,7.544s12.456-19.478,17-30.947a33.578,33.578,0,0,0,1.778-8.323c-14.7,30.83-35.1,31.726-35.1,31.726" transform="translate(-32.156 -8.044)" fill="#0b828f"/><path d="M646.6,137.181c.173,6.135-1.233,16.007-1.233,16.007l8.859,12.538a36.828,36.828,0,0,0,10.681-2.872Z" transform="translate(-38.672 -8.22)" fill="#0b828f"/></g></g></g><rect width="820" height="8" transform="translate(390 5818.335)" fill="#6f88aa"/><circle cx="11.5" cy="11.5" r="11.5" transform="translate(1082 5612.627)" fill="url(#g)"/><circle cx="11.5" cy="11.5" r="11.5" transform="translate(422 5780.255)" fill="url(#h)"/><circle cx="11.5" cy="11.5" r="11.5" transform="translate(1173 5747.854)" fill="url(#i)"/><g transform="matrix(0.914, -0.407, 0.407, 0.914, 388.504, 5636.858)"><path d="M226.706,443.5l-2.171,1.628,2.171,1.629v.63a4.474,4.474,0,0,1-4.473,4.473h-13.54a4.474,4.474,0,0,1-4.473-4.473v-.63l2.171-1.629L204.22,443.5v-7.3h22.486Z" transform="translate(-159.877 -338.603)" fill="#d8ecfe"/><path d="M215.133,451.847h-6.44a4.473,4.473,0,0,1-4.473-4.473v-.63l2.171-1.628-2.171-1.628v-7.3h6.516v11.191a4.473,4.473,0,0,0,4.4,4.473Z" transform="translate(-159.877 -338.595)" fill="#b3dafe"/><path d="M140.008,245.561a5.62,5.62,0,0,1-5.62,5.623v18.529H123.144v-5.464a5.586,5.586,0,0,0-3.177-5.054,33.733,33.733,0,0,1-19.309-30.5v-.039H111.9v.037a5.622,5.622,0,1,0,11.243,0v-.037h11.243v11.28A5.62,5.62,0,0,1,140.008,245.561Z" transform="translate(-78.802 -176.132)" fill="#00a6b7"/><path d="M127.488,264.25v5.464h-4.344V264.25a5.586,5.586,0,0,0-3.177-5.054,33.733,33.733,0,0,1-19.309-30.5v-.039H105v.039a33.734,33.734,0,0,0,19.309,30.5A5.586,5.586,0,0,1,127.488,264.25Z" transform="translate(-78.802 -176.133)" fill="#0b828f"/><path d="M289.73,208.522v.037a33.73,33.73,0,0,1-19.3,30.492,5.6,5.6,0,0,0-3.19,5.06v5.464H256V231.046a5.622,5.622,0,0,0,0-11.243v-11.28h11.243a5.622,5.622,0,0,1,11.243,0H289.73Z" transform="translate(-200.414 -155.994)" fill="#4795e9"/><path d="M269.465,107.182H258.222a5.622,5.622,0,0,0-11.243,0H235.735V95.975a5.622,5.622,0,0,1,0-11.243V73.489A33.729,33.729,0,0,1,269.465,107.182Z" transform="translate(-180.15 -54.654)" fill="#ffd150"/><path d="M128.767,90.353a5.62,5.62,0,0,0,5.62,5.623v11.206H123.144v.037a5.622,5.622,0,1,1-11.243,0v-.037H100.658a33.665,33.665,0,0,1,33.73-33.693V84.732a5.619,5.619,0,0,0-5.62,5.62Z" transform="translate(-78.802 -54.654)" fill="#ff2195"/><path d="M134.388,73.489v.276A33.658,33.658,0,0,0,105,107.182h-4.344A33.665,33.665,0,0,1,134.388,73.489Z" transform="translate(-78.802 -54.654)" fill="#ec7ebc"/><g transform="translate(44.343 104.892)"><path d="M204.22,469.823h22.486v3.257H204.22Z" transform="translate(-204.22 -469.823)" fill="#eaf6ff"/></g><g transform="translate(44.343 104.892)"><path d="M204.22,469.823h6.516v3.257H204.22Z" transform="translate(-204.22 -469.823)" fill="#d8ecfe"/></g><g transform="translate(0 3.677)"><g transform="translate(53.957 0)"><path d="M250.127,13.681a1.629,1.629,0,0,1-1.629-1.629V5.306a1.629,1.629,0,0,1,3.258,0v6.746A1.629,1.629,0,0,1,250.127,13.681Z" transform="translate(-248.498 -3.677)" fill="#e8e8e8"/></g><g transform="translate(77.562 7.228)"><path d="M358.84,46.068a1.63,1.63,0,0,1-1.409-2.444l3.373-5.842a1.629,1.629,0,1,1,2.821,1.629l-3.373,5.842A1.628,1.628,0,0,1,358.84,46.068Z" transform="translate(-357.212 -36.967)" fill="#e8e8e8"/></g><g transform="translate(7.229 26.978)"><g transform="translate(87.614)"><path d="M438.427,134.557a1.629,1.629,0,0,1-.816-3.04l5.842-3.373a1.629,1.629,0,1,1,1.629,2.821l-5.842,3.373A1.623,1.623,0,0,1,438.427,134.557Z" transform="translate(-436.797 -127.926)" fill="#e8e8e8"/></g><g transform="translate(0 50.584)"><path d="M34.922,367.521a1.629,1.629,0,0,1-.816-3.04l5.842-3.373a1.629,1.629,0,1,1,1.629,2.821L35.735,367.3A1.623,1.623,0,0,1,34.922,367.521Z" transform="translate(-33.292 -360.89)" fill="#e8e8e8"/></g></g><g transform="translate(26.978 7.229)"><path d="M129.252,46.068a1.628,1.628,0,0,1-1.412-.815l-3.373-5.842a1.629,1.629,0,0,1,2.821-1.629l3.373,5.842a1.629,1.629,0,0,1-1.409,2.443Z" transform="translate(-124.249 -36.968)" fill="#e8e8e8"/></g><g transform="translate(7.229 26.978)"><path d="M40.762,134.556a1.62,1.62,0,0,1-.813-.219l-5.842-3.373a1.629,1.629,0,1,1,1.629-2.821l5.842,3.373a1.629,1.629,0,0,1-.816,3.04Z" transform="translate(-33.292 -127.924)" fill="#e8e8e8"/><g transform="translate(87.614 50.584)"><path d="M444.267,367.52a1.619,1.619,0,0,1-.813-.219l-5.842-3.373a1.629,1.629,0,0,1,1.629-2.821l5.842,3.373a1.629,1.629,0,0,1-.816,3.04Z" transform="translate(-436.797 -360.889)" fill="#e8e8e8"/></g></g><g transform="translate(0 53.957)"><path d="M8.375,255.432H1.629a1.629,1.629,0,0,1,0-3.258H8.375a1.629,1.629,0,0,1,0,3.258Z" transform="translate(0 -252.174)" fill="#e8e8e8"/><g transform="translate(101.168)"><path d="M474.3,255.432h-6.746a1.629,1.629,0,1,1,0-3.258H474.3a1.629,1.629,0,1,1,0,3.258Z" transform="translate(-465.928 -252.174)" fill="#e8e8e8"/></g></g></g><path d="M208.686,421.767H181.7a3.373,3.373,0,1,1,0-6.746h26.984a3.373,3.373,0,1,1,0,6.746Z" transform="translate(-139.608 -322.028)" fill="#eaf6ff"/><path d="M188.214,421.765H181.7a3.373,3.373,0,1,1,0-6.745h6.515a3.373,3.373,0,1,0,0,6.745Z" transform="translate(-139.604 -322.027)" fill="#d8ecfe"/></g></g></svg>