<svg xmlns="http://www.w3.org/2000/svg" width="85" height="85" viewBox="0 0 85 85"><g transform="translate(-285 -3863)"><circle cx="42.5" cy="42.5" r="42.5" transform="translate(285 3863)" fill="#fff"/><g transform="translate(271.976 3878)"><g transform="translate(31.024 0)"><path d="M75.546,6.5,79.27,2.773A1.624,1.624,0,0,0,78.121,0H61.881a1.624,1.624,0,0,0-1.624,1.624V12.992H51.263a6.5,6.5,0,1,0-11.245,0h-.874a8.129,8.129,0,0,0-8.12,8.12v9.852a4.875,4.875,0,0,0,5.828,4.778L34.436,49.311a4.869,4.869,0,1,0,9.429,2.437l1.776-9.692,1.776,9.692q.014.078.036.154a4.872,4.872,0,0,0,9.393-2.591L53.761,31.991V22.737h6.5V53.81a1.624,1.624,0,1,0,3.248,0V22.457a4.871,4.871,0,0,0,0-9.186v-.279H78.121a1.624,1.624,0,0,0,1.148-2.772ZM45.64,6.5a3.248,3.248,0,1,1-3.248,3.248A3.252,3.252,0,0,1,45.64,6.5ZM63.5,17.864a1.626,1.626,0,0,1-1.624,1.624H52.137a1.624,1.624,0,0,0-1.624,1.624V32.135a1.63,1.63,0,0,0,.025.285c3.3,18.553,3.126,17.576,3.16,17.7a1.624,1.624,0,0,1-3.1.956L47.238,32.751a1.624,1.624,0,0,0-3.195,0L40.686,51.071a1.624,1.624,0,0,1-3.1-.956c.034-.119-.152.9,3.16-17.7a1.62,1.62,0,0,0,.025-.285V21.112a1.624,1.624,0,1,0-3.248,0v9.852a1.624,1.624,0,1,1-3.248,0V21.112a4.878,4.878,0,0,1,4.872-4.872H61.881A1.626,1.626,0,0,1,63.5,17.864Zm0-8.12v-6.5H74.2l-2.1,2.1a1.624,1.624,0,0,0,0,2.3l2.1,2.1H63.5Z" transform="translate(-31.024 0)" fill="#516e75"/></g></g></g></svg>