<svg xmlns="http://www.w3.org/2000/svg" width="85" height="85" viewBox="0 0 85 85"><g transform="translate(-600 -3863)"><circle cx="42.5" cy="42.5" r="42.5" transform="translate(600 3863)" fill="#fff"/><g transform="translate(615 3877.999)"><path d="M1.624,376.455H31.078a1.624,1.624,0,0,0,1.624-1.624v-3.465a4.881,4.881,0,0,0-3.248-4.594v-2.114A4.668,4.668,0,0,0,24.79,360H7.912a4.668,4.668,0,0,0-4.663,4.663v2.114A4.881,4.881,0,0,0,0,371.366v3.465A1.624,1.624,0,0,0,1.624,376.455Zm6.287-13.211H24.79a1.416,1.416,0,0,1,1.415,1.414v1.834H6.5v-1.834A1.416,1.416,0,0,1,7.912,363.244Zm-4.663,8.121a1.626,1.626,0,0,1,1.624-1.624H27.829a1.626,1.626,0,0,1,1.625,1.624v1.841H3.248Zm0,0" transform="translate(0 -321.014)" fill="#516e75"/><path d="M100.345,33.815a4.871,4.871,0,0,0,8.729-3.507,19.166,19.166,0,0,0,4.03-1.15l15.208,20.2A4.873,4.873,0,1,0,136.1,43.5L120.89,23.3a19.192,19.192,0,0,0,2.219-3.553,4.872,4.872,0,0,0,5.784-7.421L121.077,1.941a4.871,4.871,0,0,0-8.729,3.507A19.126,19.126,0,0,0,98.314,16.012a4.874,4.874,0,0,0-5.785,7.422ZM118.632,25.7,120.8,28.58l-2.6,1.954-2.169-2.88A19.127,19.127,0,0,0,118.632,25.7Zm14.549,22.025a1.626,1.626,0,0,1-2.275-.321L120.159,33.129l2.6-1.954L133.5,45.449A1.626,1.626,0,0,1,133.181,47.724ZM116.207,3.575a1.626,1.626,0,0,1,2.275.321L126.3,14.276A1.624,1.624,0,1,1,123.7,16.23L115.887,5.849A1.626,1.626,0,0,1,116.207,3.575Zm-2.377,4.944,6.737,8.949a15.91,15.91,0,0,1-12.976,9.77l-6.737-8.949A15.9,15.9,0,0,1,113.831,8.519ZM95.445,19.206a1.623,1.623,0,0,1,2.274.321l7.816,10.381h0a1.624,1.624,0,0,1-2.6,1.954L95.124,21.48A1.624,1.624,0,0,1,95.445,19.206Zm0,0" transform="translate(-81.635 0)" fill="#516e75"/></g></g></svg>