<svg xmlns="http://www.w3.org/2000/svg" xmlns:xlink="http://www.w3.org/1999/xlink" width="190" height="364.479" viewBox="0 0 190 364.479">
  <defs>
    <clipPath id="clip-path">
      <rect id="Rectángulo_45098" data-name="Rectángulo 45098" width="132.991" height="364.48" fill="none"/>
    </clipPath>
  </defs>
  <g id="Grupo_155891" data-name="Grupo 155891" transform="translate(-180 -2322)">
    <g id="Grupo_155793" data-name="Grupo 155793" transform="translate(180 2589)">
      <rect id="Rectángulo_45100" data-name="Rectángulo 45100" width="95.058" height="95.999" fill="#f1ca89"/>
      <rect id="Rectángulo_45101" data-name="Rectángulo 45101" width="42.942" height="95.999" transform="translate(95.058)" fill="#efa856"/>
      <rect id="Rectángulo_45102" data-name="Rectángulo 45102" width="14.957" height="14.957" transform="translate(42.726)" fill="#f2f3f7"/>
      <rect id="Rectángulo_45103" data-name="Rectángulo 45103" width="14.957" height="14.957" transform="translate(110.654)" fill="#f2f3f7"/>
    </g>
    <g id="_x31_4_Briefcase" transform="translate(180 2488.763)">
      <g id="Grupo_155859" data-name="Grupo 155859" transform="translate(0 24.2)">
        <g id="Grupo_155830" data-name="Grupo 155830" transform="translate(32.69 0)">
          <path id="Trazado_598371" data-name="Trazado 598371" d="M194.2,34.6v10.4h5.2V34.6a5.2,5.2,0,1,1,10.4,0v10.4h5.2V34.6a10.4,10.4,0,0,0-20.806,0Z" transform="translate(-194.2 -24.2)" fill="#edebed"/>
        </g>
        <g id="Grupo_155831" data-name="Grupo 155831" transform="translate(32.673 0.034)">
          <path id="Trazado_598372" data-name="Trazado 598372" d="M201.826,26.975a2.7,2.7,0,0,1,1.885-2.575A10.41,10.41,0,0,0,194.1,34.769v10.4h5.2v-10.4a5.188,5.188,0,0,1,4.646-5.168A2.692,2.692,0,0,1,201.826,26.975Z" transform="translate(-194.1 -24.4)" fill="#e3e3e3"/>
        </g>
        <g id="Grupo_155832" data-name="Grupo 155832" transform="translate(0 36.41)">
          <path id="Trazado_598373" data-name="Trazado 598373" d="M79.536,280.394H6.649A6.652,6.652,0,0,1,0,273.745V240.5H86.185v33.245A6.652,6.652,0,0,1,79.536,280.394Z" transform="translate(0 -240.5)" fill="#998c97"/>
        </g>
        <g id="Grupo_155833" data-name="Grupo 155833" transform="translate(0 36.41)">
          <path id="Trazado_598374" data-name="Trazado 598374" d="M0,240.5v33.245a6.652,6.652,0,0,0,6.649,6.649H37.622a6.652,6.652,0,0,1-6.649-6.649V258.579a75.324,75.324,0,0,0,12.12.993c20.452,0,36.544-8.635,43.092-12.793V240.5Z" transform="translate(0 -240.5)" fill="#8a7e88"/>
        </g>
        <g id="Grupo_155834" data-name="Grupo 155834" transform="translate(0 13.87)">
          <path id="Trazado_598375" data-name="Trazado 598375" d="M86.185,129.139s-18.213,13.87-43.092,13.87S0,129.139,0,129.139v-15.6A6.925,6.925,0,0,1,6.935,106.6H79.249a6.925,6.925,0,0,1,6.935,6.935Z" transform="translate(0 -106.6)" fill="#a89ca7"/>
        </g>
        <g id="Grupo_155835" data-name="Grupo 155835" transform="translate(0 13.87)">
          <path id="Trazado_598376" data-name="Trazado 598376" d="M30.973,113.535a6.925,6.925,0,0,1,6.935-6.935H6.935A6.936,6.936,0,0,0,0,113.535v15.6a78.313,78.313,0,0,0,30.973,12.793Z" transform="translate(0 -106.6)" fill="#998c97"/>
        </g>
        <g id="Grupo_155836" data-name="Grupo 155836" transform="translate(35.282 37.874)">
          <path id="Trazado_598377" data-name="Trazado 598377" d="M222.612,254.418h-10.4a2.609,2.609,0,1,1,0-5.218h10.4a2.609,2.609,0,0,1,0,5.218Z" transform="translate(-209.6 -249.2)" fill="#ffe885"/>
        </g>
        <g id="Grupo_155837" data-name="Grupo 155837" transform="translate(35.282 37.891)">
          <path id="Trazado_598378" data-name="Trazado 598378" d="M214.8,251.909a2.611,2.611,0,0,1,2.609-2.609h-5.2a2.609,2.609,0,0,0,0,5.218h5.2A2.633,2.633,0,0,1,214.8,251.909Z" transform="translate(-209.6 -249.3)" fill="#fce25a"/>
        </g>
        <g id="Grupo_155838" data-name="Grupo 155838" transform="translate(10.403 12.137)">
          <path id="Trazado_598379" data-name="Trazado 598379" d="M70.469,162.2H63.534a1.731,1.731,0,0,1-1.734-1.734V98.034A1.731,1.731,0,0,1,63.534,96.3h6.935A1.731,1.731,0,0,1,72.2,98.034v62.433A1.731,1.731,0,0,1,70.469,162.2Z" transform="translate(-61.8 -96.3)" fill="#7c6a7a"/>
        </g>
        <g id="Grupo_155839" data-name="Grupo 155839" transform="translate(10.403 30.484)">
          <path id="Trazado_598380" data-name="Trazado 598380" d="M67,210.518a5.194,5.194,0,0,1-5.2-5.2v29.188a5.2,5.2,0,0,1,10.4,0V205.3A5.208,5.208,0,0,1,67,210.518Z" transform="translate(-61.8 -205.3)" fill="#6d5c6c"/>
        </g>
        <g id="Grupo_155840" data-name="Grupo 155840" transform="translate(65.379 12.137)">
          <path id="Trazado_598381" data-name="Trazado 598381" d="M390.134,162.2h6.935a1.731,1.731,0,0,0,1.734-1.734V98.034a1.731,1.731,0,0,0-1.734-1.734h-6.935a1.731,1.731,0,0,0-1.734,1.734v62.433A1.731,1.731,0,0,0,390.134,162.2Z" transform="translate(-388.4 -96.3)" fill="#7c6a7a"/>
        </g>
        <g id="Grupo_155841" data-name="Grupo 155841" transform="translate(65.379 30.484)">
          <path id="Trazado_598382" data-name="Trazado 598382" d="M393.6,210.518a5.194,5.194,0,0,1-5.2-5.2v29.188a5.2,5.2,0,1,1,10.4,0V205.3A5.208,5.208,0,0,1,393.6,210.518Z" transform="translate(-388.4 -205.3)" fill="#6d5c6c"/>
        </g>
        <g id="Grupo_155842" data-name="Grupo 155842" transform="translate(7.81 39.877)">
          <path id="Trazado_598383" data-name="Trazado 598383" d="M46.4,263.709a2.611,2.611,0,0,0,2.609,2.609h10.4a2.609,2.609,0,1,0,0-5.218H48.992A2.619,2.619,0,0,0,46.4,263.709Z" transform="translate(-46.4 -261.1)" fill="#f7f5f6"/>
        </g>
        <g id="Grupo_155843" data-name="Grupo 155843" transform="translate(7.81 45.079)">
          <path id="Trazado_598384" data-name="Trazado 598384" d="M46.4,294.609a2.611,2.611,0,0,0,2.609,2.609h10.4a2.609,2.609,0,1,0,0-5.218H48.992A2.619,2.619,0,0,0,46.4,294.609Z" transform="translate(-46.4 -292)" fill="#edebed"/>
        </g>
        <g id="Grupo_155844" data-name="Grupo 155844" transform="translate(7.794 45.079)">
          <path id="Trazado_598385" data-name="Trazado 598385" d="M51.518,294.609A2.611,2.611,0,0,1,54.127,292H48.909a2.609,2.609,0,1,0,0,5.218h5.2A2.608,2.608,0,0,1,51.518,294.609Z" transform="translate(-46.3 -292)" fill="#e3e3e3"/>
        </g>
        <g id="Grupo_155845" data-name="Grupo 155845" transform="translate(7.794 39.877)">
          <path id="Trazado_598386" data-name="Trazado 598386" d="M51.518,263.709a2.611,2.611,0,0,1,2.609-2.609H48.909a2.609,2.609,0,1,0,0,5.218h5.2A2.608,2.608,0,0,1,51.518,263.709Z" transform="translate(-46.3 -261.1)" fill="#edebed"/>
        </g>
        <g id="Grupo_155846" data-name="Grupo 155846" transform="translate(62.77 39.877)">
          <path id="Trazado_598387" data-name="Trazado 598387" d="M372.9,263.709a2.611,2.611,0,0,0,2.609,2.609h10.4a2.609,2.609,0,0,0,0-5.218h-10.4A2.622,2.622,0,0,0,372.9,263.709Z" transform="translate(-372.9 -261.1)" fill="#f7f5f6"/>
        </g>
        <g id="Grupo_155847" data-name="Grupo 155847" transform="translate(62.77 45.079)">
          <path id="Trazado_598388" data-name="Trazado 598388" d="M372.9,294.609a2.611,2.611,0,0,0,2.609,2.609h10.4a2.609,2.609,0,1,0,0-5.218h-10.4A2.622,2.622,0,0,0,372.9,294.609Z" transform="translate(-372.9 -292)" fill="#edebed"/>
        </g>
        <g id="Grupo_155848" data-name="Grupo 155848" transform="translate(62.77 45.079)">
          <path id="Trazado_598389" data-name="Trazado 598389" d="M378.1,294.609A2.611,2.611,0,0,1,380.71,292h-5.2a2.609,2.609,0,1,0,0,5.218h5.2A2.611,2.611,0,0,1,378.1,294.609Z" transform="translate(-372.9 -292)" fill="#e3e3e3"/>
        </g>
        <g id="Grupo_155849" data-name="Grupo 155849" transform="translate(62.77 39.877)">
          <path id="Trazado_598390" data-name="Trazado 598390" d="M378.1,263.709a2.611,2.611,0,0,1,2.609-2.609h-5.2a2.609,2.609,0,1,0,0,5.218h5.2A2.611,2.611,0,0,1,378.1,263.709Z" transform="translate(-372.9 -261.1)" fill="#edebed"/>
        </g>
        <g id="Grupo_155858" data-name="Grupo 155858" transform="translate(14.308 20.233)">
          <g id="Grupo_155850" data-name="Grupo 155850" transform="translate(0 8.955)">
            <circle id="Elipse_5554" data-name="Elipse 5554" cx="1.296" cy="1.296" r="1.296" fill="#998c97"/>
          </g>
          <g id="Grupo_155851" data-name="Grupo 155851">
            <circle id="Elipse_5555" data-name="Elipse 5555" cx="1.296" cy="1.296" r="1.296" fill="#998c97"/>
          </g>
          <g id="Grupo_155852" data-name="Grupo 155852" transform="translate(0 47.115)">
            <circle id="Elipse_5556" data-name="Elipse 5556" cx="1.296" cy="1.296" r="1.296" fill="#8a7e88"/>
          </g>
          <g id="Grupo_155853" data-name="Grupo 155853" transform="translate(0 38.16)">
            <circle id="Elipse_5557" data-name="Elipse 5557" cx="1.296" cy="1.296" r="1.296" fill="#8a7e88"/>
          </g>
          <g id="Grupo_155854" data-name="Grupo 155854" transform="translate(54.976 8.955)">
            <circle id="Elipse_5558" data-name="Elipse 5558" cx="1.296" cy="1.296" r="1.296" fill="#a89ca7"/>
          </g>
          <g id="Grupo_155855" data-name="Grupo 155855" transform="translate(54.976)">
            <circle id="Elipse_5559" data-name="Elipse 5559" cx="1.296" cy="1.296" r="1.296" fill="#a89ca7"/>
          </g>
          <g id="Grupo_155856" data-name="Grupo 155856" transform="translate(54.976 47.115)">
            <circle id="Elipse_5560" data-name="Elipse 5560" cx="1.296" cy="1.296" r="1.296" fill="#998c97"/>
          </g>
          <g id="Grupo_155857" data-name="Grupo 155857" transform="translate(54.976 38.16)">
            <circle id="Elipse_5561" data-name="Elipse 5561" cx="1.296" cy="1.296" r="1.296" fill="#998c97"/>
          </g>
        </g>
      </g>
    </g>
    <g id="_x30_3_Book" transform="translate(295.491 2724.654) rotate(-90)">
      <g id="Grupo_155884" data-name="Grupo 155884" transform="translate(39.7 0)">
        <g id="Grupo_155870" data-name="Grupo 155870" transform="translate(0 5.996)">
          <path id="Trazado_598400" data-name="Trazado 598400" d="M93.661,109.713H45.7a5.987,5.987,0,0,1-6-6,15.583,15.583,0,0,1,4.017-10.449l42.93-47.616A13.487,13.487,0,0,1,96.659,41.2a5.987,5.987,0,0,1,6,6V100.72a8.99,8.99,0,0,1-8.993,8.993Z" transform="translate(-39.7 -41.2)" fill="#9fa2e2"/>
        </g>
        <g id="Grupo_155871" data-name="Grupo 155871" transform="translate(0 39.248)">
          <path id="Trazado_598401" data-name="Trazado 598401" d="M57.687,301.963a2.994,2.994,0,0,1,3-3V269.7L43.717,288.516A15.583,15.583,0,0,0,39.7,298.965a5.987,5.987,0,0,0,6,6H60.685A2.994,2.994,0,0,1,57.687,301.963Z" transform="translate(-39.7 -269.7)" fill="#8e93d6"/>
        </g>
        <g id="Grupo_155872" data-name="Grupo 155872" transform="translate(5.996 56.522)">
          <path id="Trazado_598402" data-name="Trazado 598402" d="M86.9,400.391h32.976a5.987,5.987,0,0,0,6-6v-6H80.9v6a6,6,0,0,0,6,6Z" transform="translate(-80.9 -388.4)" fill="#f7f5f6"/>
        </g>
        <g id="Grupo_155873" data-name="Grupo 155873" transform="translate(5.996 56.522)">
          <path id="Trazado_598403" data-name="Trazado 598403" d="M89.893,394.4v-6H80.9v6a5.987,5.987,0,0,0,6,6h8.993A6,6,0,0,1,89.893,394.4Z" transform="translate(-80.9 -388.4)" fill="#edebed"/>
        </g>
        <g id="Grupo_155874" data-name="Grupo 155874" transform="translate(0)">
          <path id="Trazado_598404" data-name="Trazado 598404" d="M45.7,0a5.987,5.987,0,0,0-6,6V68.513a5.987,5.987,0,0,1,6-6H90.678a5.987,5.987,0,0,0,6-6V6a5.987,5.987,0,0,0-6-6Z" transform="translate(-39.7 0)" fill="#b9baf0"/>
        </g>
        <g id="Grupo_155875" data-name="Grupo 155875" transform="translate(0)">
          <path id="Trazado_598405" data-name="Trazado 598405" d="M48.693,56.522V6a5.987,5.987,0,0,1,6-6H45.7a5.987,5.987,0,0,0-6,6V68.513a5.987,5.987,0,0,1,6-6h8.993a6,6,0,0,1-6-6Z" transform="translate(-39.7 0)" fill="#9fa2e2"/>
        </g>
        <g id="Grupo_155876" data-name="Grupo 155876" transform="translate(35.974 0)">
          <path id="Trazado_598406" data-name="Trazado 598406" d="M289.068,14.829l2.488-1.237a2.99,2.99,0,0,1,2.678,0l2.488,1.237a1.5,1.5,0,0,0,2.168-1.339V0H286.9V13.49A1.5,1.5,0,0,0,289.068,14.829Z" transform="translate(-286.9 0)" fill="#daf3f6"/>
        </g>
        <g id="Grupo_155877" data-name="Grupo 155877" transform="translate(8.993 29.673)">
          <path id="Trazado_598407" data-name="Trazado 598407" d="M101.5,223.386V208.4a4.49,4.49,0,0,1,4.5-4.5h29.978a4.49,4.49,0,0,1,4.5,4.5v14.989a4.49,4.49,0,0,1-4.5,4.5H106A4.49,4.49,0,0,1,101.5,223.386Z" transform="translate(-101.5 -203.9)" fill="#8e93d6"/>
        </g>
        <g id="Grupo_155878" data-name="Grupo 155878" transform="translate(8.993 29.673)">
          <path id="Trazado_598408" data-name="Trazado 598408" d="M110.493,223.386V208.4a4.49,4.49,0,0,1,4.5-4.5H106a4.49,4.49,0,0,0-4.5,4.5v14.989a4.49,4.49,0,0,0,4.5,4.5h8.993A4.49,4.49,0,0,1,110.493,223.386Z" transform="translate(-101.5 -203.9)" fill="#7d84c9"/>
        </g>
        <g id="Grupo_155879" data-name="Grupo 155879" transform="translate(35.974 2.998)">
          <path id="Trazado_598409" data-name="Trazado 598409" d="M292.9,26.6a5.987,5.987,0,0,1-6-6V31.092a1.5,1.5,0,0,0,2.168,1.339l2.488-1.237a2.99,2.99,0,0,1,2.678,0l2.488,1.237a1.5,1.5,0,0,0,2.168-1.339V20.6A5.987,5.987,0,0,1,292.9,26.6Z" transform="translate(-286.9 -20.6)" fill="#a4e5ee"/>
        </g>
        <g id="Grupo_155883" data-name="Grupo 155883" transform="translate(13.898 34.577)">
          <g id="Grupo_155880" data-name="Grupo 155880">
            <path id="Trazado_598410" data-name="Trazado 598410" d="M163.272,239.783h-26.98a1.091,1.091,0,0,1,0-2.183h26.98a1.091,1.091,0,1,1,0,2.183Z" transform="translate(-135.2 -237.6)" fill="#6972b7"/>
          </g>
          <g id="Grupo_155881" data-name="Grupo 155881" transform="translate(0 5.996)">
            <path id="Trazado_598411" data-name="Trazado 598411" d="M163.272,280.983h-26.98a1.091,1.091,0,0,1,0-2.183h26.98a1.091,1.091,0,1,1,0,2.183Z" transform="translate(-135.2 -278.8)" fill="#6972b7"/>
          </g>
          <g id="Grupo_155882" data-name="Grupo 155882" transform="translate(6.738 11.991)">
            <path id="Trazado_598412" data-name="Trazado 598412" d="M196.1,322.183h-13.5a1.091,1.091,0,1,1,0-2.183h13.49a1.1,1.1,0,0,1,1.091,1.091A1.087,1.087,0,0,1,196.1,322.183Z" transform="translate(-181.5 -320)" fill="#6972b7"/>
          </g>
        </g>
      </g>
    </g>
    <g id="Grupo_155790" data-name="Grupo 155790" transform="translate(237.009 2322)">
      <g id="Grupo_155789" data-name="Grupo 155789" clip-path="url(#clip-path)">
        <path id="Trazado_598273" data-name="Trazado 598273" d="M45.479,268.938c-2.049-2.114-9.115-11.167-9.243-15.716-.18-6.429-.053-15.264.243-24.893H26.355c.405,10.5.439,23.587.293,27.544-.217.664-.954,5.067-1.32,5.706-.552.966-.087,8.269-.087,8.269l20.487-.826c-.08-.027-.146-.046-.187-.058s-.049-.016-.061-.027" transform="translate(10.21 93.039)" fill="#ef6e4b"/>
        <path id="Trazado_598274" data-name="Trazado 598274" d="M38.95,294.213c.428-27.173,5.857-68.309,6.6-75.123.483-4.4,4.269-15.9,9.33-32.707,11.738-38.987,12.5-67.117,8.481-92.507l-26.226.605C32.6,114.643,6.864,136.4,24.372,159.723c.705,8.708,5.675,38.237,3.567,51.242-2.488,15.347-3.973,22.859-3.04,40.682.388,7.419,4.414,30.675,4.394,42.566Z" transform="translate(7.474 38.253)" fill="#0d527c"/>
        <path id="Trazado_598275" data-name="Trazado 598275" d="M83.215,55.4l-5.025,5.983c-5.044,5.976-3.778,6.455-2.828,10.563.884,3.844,8.082,3,10.946,1.842,2.428-.961,8.9.525,10.686-.816.723-.539,0-.83-2.086-1.036A15.275,15.275,0,0,1,90.3,70.624c1.541-2.267,10.322-.5,11.6-3.172.618-1.3-9.869,1.013-10.869-.331,0,0,.481-.877,5.534-2.428,2.9-.894,5.893-1.787,6.061-2.76.3-1.772-5.451,1.148-12.742,1.8,0,0,2.944-1.51,5.765-2.726,2.58-1.1,5.106-1.858,4.507-2.96-.487-.905-4.466.922-7.046,1.989A31.174,31.174,0,0,1,82.295,62.48a10.838,10.838,0,0,1-1.529-.023c4.621-6.522,2.449-7.061,2.449-7.061" transform="translate(30.353 22.573)" fill="#ffb899"/>
        <path id="Trazado_598276" data-name="Trazado 598276" d="M79.341,60.413s.486,3.41-1.354,5.292a4.253,4.253,0,0,0,2.884-5.27,11.15,11.15,0,0,1-1.53-.023" transform="translate(31.778 24.617)" fill="#e09c7f"/>
        <path id="Trazado_598277" data-name="Trazado 598277" d="M10.345,6.323c-6.522,8.242-11.775,78.85,0,104.3,0,0,23.062,3.72,41.355-2.542,0,0,4.387-91.742-6.614-103.187Z" transform="translate(1.364 1.995)" fill="#0e3944"/>
        <path id="Trazado_598278" data-name="Trazado 598278" d="M34.753,41.11c16.974,4.09,20.141,5.377,29.642,53.115,0,0,24.718-28.416,29.568-26.3,0,0-1.595,2.55,1.82,8.477a7.3,7.3,0,0,0,5.558,3.638c.7,5.63-24.363,43.982-32.414,46.445s-29.433-23.7-32.641-32.257S34.753,41.11,34.753,41.11" transform="translate(13.983 16.751)" fill="#fe63ba"/>
        <path id="Trazado_598279" data-name="Trazado 598279" d="M16.481,35.825c1.051-1.962,19.367,1.309,21.163,2.805s-6.867,8.116-11.508,6.213-10.887-6.721-9.655-9.018" transform="translate(6.651 14.349)" fill="#b72e48"/>
        <path id="Trazado_598280" data-name="Trazado 598280" d="M24.61,229.743H12.641c1.348,12.369,2.345,22.872,2.345,22.872l-1.309,18.249H26.72c-.864-5.464-3.317-21.836-2.822-28.739.291-4.055.522-8.2.712-12.382" transform="translate(5.151 93.616)" fill="#ff8b66"/>
        <path id="Trazado_598281" data-name="Trazado 598281" d="M7.385,183.269h0c1.047,8.681,3,14.487,3.779,21.791,1.134,10.635-5.37,26.041-1.151,43.167,2,8.107,4.89,34.876,6.4,49.68H26.3c.007-.139.013-.287.021-.419,2.584-36.033,2.018-77.58,3.925-93.914.8-6.884,5.592-18.064,7.461-26.948.01-.044,5.685-25.84,9.572-28C63.2,139.759,68.108,93.877,68.108,93.877L28.976,95.7S4.9,114.633,8.447,148.341c0,0-.049.346-.124.951-2.089,15.867-1.887,26.11-.939,33.977" transform="translate(2.729 38.253)" fill="#105e99"/>
        <path id="Trazado_598282" data-name="Trazado 598282" d="M13.523,250.1s.486-4.493,6.663-3.969,5.406,5.046,5.406,5.046a1.421,1.421,0,0,1,1.754,0c.766.728-.374,6.961,1.1,8.273s.74,4.757.74,4.757H11.039s-.663-4.428,1.254-6.069-2.239-7.546,1.23-8.038" transform="translate(4.453 100.275)" fill="#cdcfd0"/>
        <path id="Trazado_598283" data-name="Trazado 598283" d="M11.479,162.086c7.1,16.01,72.554,11.08,70.174-3.519C75.3,119.593,65.532,95.422,65.532,95.422,83.521,64.718,52.1,43.2,52.1,43.2S22.774,32.464,6.691,46.262s17.958,56.423,17.958,56.423c-4.626,11.4-16.224,52.514-13.17,59.4" transform="translate(0.967 15.982)" fill="#ff8fca"/>
        <path id="Trazado_598284" data-name="Trazado 598284" d="M16.677,5.533S39.789-2.2,44.444,14.067,44.872,47.5,34.023,46.356C18.757,44.742-1.277,14.688,16.677,5.533" transform="translate(3.909 1.505)" fill="#ffb899"/>
        <path id="Trazado_598286" data-name="Trazado 598286" d="M24.318,14.879a.483.483,0,0,0,.377-.221,3.191,3.191,0,0,1,2.843-1.324.48.48,0,1,0,.1-.956,4.131,4.131,0,0,0-3.752,1.764.479.479,0,0,0,.432.738" transform="translate(9.702 5.038)" fill="#1a4850"/>
        <path id="Trazado_598287" data-name="Trazado 598287" d="M31.888,12.891a.476.476,0,0,0,.277-.11,3.158,3.158,0,0,1,3.113-.394.48.48,0,0,0,.386-.88,4.134,4.134,0,0,0-4.113.535.48.48,0,0,0,.336.849" transform="translate(12.786 4.557)" fill="#1a4850"/>
        <path id="Trazado_598288" data-name="Trazado 598288" d="M36.182,24.514s-3.489,2.248-9.585.279c0,0,1.833,7.226,5.709,6.308s3.876-6.587,3.876-6.587" transform="translate(10.838 9.989)" fill="#1a4850"/>
        <path id="Trazado_598289" data-name="Trazado 598289" d="M26.8,11.418A26.338,26.338,0,0,0,21.787,26.91s-3.879-4.753-5.907-.624,6.1,10.162,6.1,10.162-13.083.738-14.618-16.18c-.647-7.127,8.6-13.636,19.447-8.85" transform="translate(2.985 3.984)" fill="#0e3944"/>
        <path id="Trazado_598290" data-name="Trazado 598290" d="M18.682,26.132c1.773,4.776,8.572,13.05,15.772,10.686,0,0-1.809,7.12,1.187,9.716,0,0,3.163,5.51-4.038,6.294-9.008.981-14.024-6.294-14.024-6.294,3.925-8.739-1.465-19.52-1.465-19.52a1.566,1.566,0,0,0,2.569-.881" transform="translate(6.566 10.648)" fill="#e09c7f"/>
        <path id="Trazado_598291" data-name="Trazado 598291" d="M29.819,17.879s-3.085-1.524-5.354,0a7.658,7.658,0,0,1,4.767.587Z" transform="translate(9.969 7.009)" fill="#1a4850"/>
        <path id="Trazado_598292" data-name="Trazado 598292" d="M35.417,16.885a2.18,2.18,0,0,0-2.731,1.127l.445.632a2.312,2.312,0,0,1,2.286-1.759" transform="translate(13.319 6.83)" fill="#1a4850"/>
        <path id="Trazado_598293" data-name="Trazado 598293" d="M33.122,24.315l-.428-.966a1.806,1.806,0,0,0,1.089-2.308,1.392,1.392,0,0,0-.764-.853,1.7,1.7,0,0,0-1.217.148l-.512-.923a2.79,2.79,0,0,1,2.072-.222,2.382,2.382,0,0,1,1.4,1.45,2.812,2.812,0,0,1-1.637,3.675" transform="translate(12.75 7.771)" fill="#db614d"/>
        <path id="Trazado_598294" data-name="Trazado 598294" d="M15.932,2.933C1.681,9.362,7.716,24.252,7.716,24.252c1.458-5.679,12.334-9.8,12.334-9.8-.805,4.4,3.308,8.453,3.308,8.453a19.851,19.851,0,0,1,3.751-4,20.8,20.8,0,0,0,.791-2.381,18.379,18.379,0,0,0,.452-2.245c.045-.363.1-.715.106-1.051s.052-.656.032-.949a10.065,10.065,0,0,0-.091-1.424c-.041-.343-.063-.54-.063-.54l.125.531a10.405,10.405,0,0,1,.249,1.42c.053.3.048.622.075.966s.015.707.013,1.084a18.887,18.887,0,0,1-.205,2.352c-.068.448-.151.89-.243,1.323.514-.352,1.037-.677,1.568-.968.193-.318.383-.645.559-.982A12.114,12.114,0,0,0,31.7,12.486a7.54,7.54,0,0,0,.1-1.25c0-.305.007-.481.007-.481s.02.175.053.479a7.44,7.44,0,0,1,.055,1.274,12.564,12.564,0,0,1-.8,3.817c-.014.035-.03.07-.044.107a22.392,22.392,0,0,1,4.662-1.586c-.044-.431-.1-.882-.17-1.334A17.978,17.978,0,0,0,34.95,10.8a10.253,10.253,0,0,0-.467-1.185,10.1,10.1,0,0,1,.669,1.1,18.47,18.47,0,0,1,1.1,2.631c.151.443.284.89.405,1.317a27.239,27.239,0,0,1,2.859-.367c-.151-.747-.36-1.666-.632-2.581a18.335,18.335,0,0,0-1.053-2.767,10.273,10.273,0,0,0-.67-1.179,10.476,10.476,0,0,1,.86,1.067,18.633,18.633,0,0,1,1.517,2.625A28.918,28.918,0,0,1,40.7,14.228a30.454,30.454,0,0,1,4.208.149c0-.115,0-.235,0-.372a14.412,14.412,0,0,0-.245-2.472,10.866,10.866,0,0,0-.74-2.4,6.366,6.366,0,0,0-.386-.743c-.1-.177-.16-.279-.16-.279l.21.243a6.541,6.541,0,0,1,.528.67,11.322,11.322,0,0,1,1.225,2.308,15.139,15.139,0,0,1,.749,2.536c.055.259.091.479.121.67.877.135,1.389.258,1.389.258C48.65.726,30.181-3.5,15.932,2.933" transform="translate(2.627 0)" fill="#0e3944"/>
        <path id="Trazado_598295" data-name="Trazado 598295" d="M14.245,41.734c.151,3.464,9.064,9.84,19.737,8.528s6.46-10.6,4.508-11.809c0,0-6.384,4.467-21.163-2.805a3.5,3.5,0,0,0-1.759,3.216,2.76,2.76,0,0,1-1.323,2.87" transform="translate(5.805 14.526)" fill="#fe63ba"/>
        <path id="Trazado_598296" data-name="Trazado 598296" d="M12.462,145.938a8.986,8.986,0,0,1,0,4.215c-.618,1.6-3.292,5.109-2.878,7.044s-1.7,2.815-1.52-2.639,0-9.676,4.4-8.621" transform="translate(3.282 59.401)" fill="#e09c7f"/>
        <path id="Trazado_598297" data-name="Trazado 598297" d="M12.191,148.581,10.67,156.5s-1.056,5.454-2.111,5.278-1.583-4.4-1.583-4.4-2.639-1.4-2.815-2.2-.173-3.609-1.495-3.961-.968-10.2-.968-10.2,9.377,4.926,10.494,7.565" transform="translate(0.674 57.461)" fill="#ffb899"/>
        <path id="Trazado_598298" data-name="Trazado 598298" d="M7.658,44.411c7.18-5.126,16.147,21.7,17.235,31.433,2.463,22.047-.7,106.09-6.686,113.185s-13.019-1.755-16.89-4.719,2.024-63.132,2.024-63.132S-6.058,54.2,7.658,44.411" transform="translate(0 17.834)" fill="#fe63ba"/>
        <path id="Trazado_598299" data-name="Trazado 598299" d="M24.289,263.94s-1-13.485,1.634-17.008c0,0,2.916,4.631,6.905,4.631,2.6,0,3.641-5.973,5.862-4.631,1.948,1.178,3.261,4.548,8.493,8s9.486,2.469,9.812,9.011Z" transform="translate(9.821 100.54)" fill="#bfc0c1"/>
      </g>
    </g>
  </g>
</svg>
