<svg xmlns="http://www.w3.org/2000/svg" xmlns:xlink="http://www.w3.org/1999/xlink" width="190" height="387.001" viewBox="0 0 190 387.001">
  <defs>
    <clipPath id="clip-path">
      <rect id="Rectángulo_45097" data-name="Rectángulo 45097" width="183.675" height="387" fill="none"/>
    </clipPath>
  </defs>
  <g id="Grupo_155890" data-name="Grupo 155890" transform="translate(-1230 -2298)">
    <g id="Grupo_155794" data-name="Grupo 155794" transform="translate(1282 2589)">
      <rect id="Rectángulo_45100" data-name="Rectángulo 45100" width="95.058" height="95.999" transform="translate(42.942 0)" fill="#f1ca89"/>
      <rect id="Rectángulo_45101" data-name="Rectángulo 45101" width="42.942" height="95.999" transform="translate(0 0)" fill="#efa856"/>
      <rect id="Rectángulo_45102" data-name="Rectángulo 45102" width="14.957" height="14.957" transform="translate(80.318 0)" fill="#f2f3f7"/>
      <rect id="Rectángulo_45103" data-name="Rectángulo 45103" width="14.957" height="14.957" transform="translate(12.389 0)" fill="#f2f3f7"/>
    </g>
    <g id="_x32_8_Color_Pencil" transform="translate(1349.478 2533.521)">
      <g id="Grupo_155829" data-name="Grupo 155829" transform="translate(19.1 -0.075)">
        <g id="Grupo_155795" data-name="Grupo 155795" transform="translate(3.353 0.008)">
          <path id="Trazado_598338" data-name="Trazado 598338" d="M61.176,10.71,55.588,16.3,50,10.71,54.568.651a1.125,1.125,0,0,1,2.04,0Z" transform="translate(-50 0)" fill="#fcd9a4"/>
        </g>
        <g id="Grupo_155796" data-name="Grupo 155796" transform="translate(3.353 0.008)">
          <path id="Trazado_598339" data-name="Trazado 598339" d="M53.722,10.71v3.722L50,10.71,54.568.651a1.125,1.125,0,0,1,2.04,0l.846,1.855Z" transform="translate(-50 0)" fill="#fccc83"/>
        </g>
        <g id="Grupo_155797" data-name="Grupo 155797" transform="translate(3.353 10.718)">
          <path id="Trazado_598340" data-name="Trazado 598340" d="M50,98.7H61.176v34.788H50Z" transform="translate(-50 -98.7)" fill="#f27c7c"/>
        </g>
        <g id="Grupo_155798" data-name="Grupo 155798" transform="translate(7.075 10.718)">
          <path id="Trazado_598341" data-name="Trazado 598341" d="M84.3,98.7h3.722v34.788H84.3Z" transform="translate(-84.3 -98.7)" fill="#f59393"/>
        </g>
        <g id="Grupo_155799" data-name="Grupo 155799" transform="translate(3.353 10.718)">
          <path id="Trazado_598342" data-name="Trazado 598342" d="M50,98.7h3.722v34.788H50Z" transform="translate(-50 -98.7)" fill="#ec6161"/>
        </g>
        <g id="Grupo_155800" data-name="Grupo 155800" transform="translate(5.675 0.008)">
          <path id="Trazado_598343" data-name="Trazado 598343" d="M71.4,5.588,73.646.651a1.125,1.125,0,0,1,2.04,0l2.246,4.937Z" transform="translate(-71.4 0)" fill="#f59393"/>
        </g>
        <g id="Grupo_155801" data-name="Grupo 155801" transform="translate(5.675 0.008)">
          <path id="Trazado_598344" data-name="Trazado 598344" d="M75.133,5.588H71.4L73.646.651a1.125,1.125,0,0,1,2.04,0l.846,1.855Z" transform="translate(-71.4 0)" fill="#f27c7c"/>
        </g>
        <g id="Grupo_155802" data-name="Grupo 155802" transform="translate(14.529 0)">
          <path id="Trazado_598345" data-name="Trazado 598345" d="M164.176,10.643l-5.588,5.588L153,10.643,157.568.584a1.119,1.119,0,0,1,2.04,0Z" transform="translate(-153 0.075)" fill="#fcd9a4"/>
        </g>
        <g id="Grupo_155803" data-name="Grupo 155803" transform="translate(14.529 0)">
          <path id="Trazado_598346" data-name="Trazado 598346" d="M156.722,10.643v3.722L153,10.643,157.568.584a1.119,1.119,0,0,1,2.04,0l.846,1.855Z" transform="translate(-153 0.075)" fill="#fccc83"/>
        </g>
        <g id="Grupo_155804" data-name="Grupo 155804" transform="translate(14.529 10.718)">
          <path id="Trazado_598347" data-name="Trazado 598347" d="M153,98.7h11.176v34.788H153Z" transform="translate(-153 -98.7)" fill="#fce25a"/>
        </g>
        <g id="Grupo_155805" data-name="Grupo 155805" transform="translate(18.251 10.718)">
          <path id="Trazado_598348" data-name="Trazado 598348" d="M187.3,98.7h3.722v34.788H187.3Z" transform="translate(-187.3 -98.7)" fill="#ffe885"/>
        </g>
        <g id="Grupo_155806" data-name="Grupo 155806" transform="translate(14.529 10.718)">
          <path id="Trazado_598349" data-name="Trazado 598349" d="M153,98.7h3.722v34.788H153Z" transform="translate(-153 -98.7)" fill="#fcdd30"/>
        </g>
        <g id="Grupo_155807" data-name="Grupo 155807" transform="translate(16.851 0)">
          <path id="Trazado_598350" data-name="Trazado 598350" d="M174.4,5.521,176.646.584a1.119,1.119,0,0,1,2.04,0l2.246,4.937Z" transform="translate(-174.4 0.075)" fill="#ffe885"/>
        </g>
        <g id="Grupo_155808" data-name="Grupo 155808" transform="translate(16.862 0)">
          <path id="Trazado_598351" data-name="Trazado 598351" d="M178.222,5.521H174.5L176.735.584a1.119,1.119,0,0,1,2.04,0l.846,1.855Z" transform="translate(-174.5 0.075)" fill="#fce25a"/>
        </g>
        <g id="Grupo_155809" data-name="Grupo 155809" transform="translate(25.706 0)">
          <path id="Trazado_598352" data-name="Trazado 598352" d="M267.176,10.643l-5.588,5.588L256,10.643,260.568.584a1.119,1.119,0,0,1,2.04,0Z" transform="translate(-256 0.075)" fill="#fcd9a4"/>
        </g>
        <g id="Grupo_155810" data-name="Grupo 155810" transform="translate(25.706 0)">
          <path id="Trazado_598353" data-name="Trazado 598353" d="M259.722,10.643v3.722L256,10.643,260.568.584a1.119,1.119,0,0,1,2.04,0l.846,1.855Z" transform="translate(-256 0.075)" fill="#fccc83"/>
        </g>
        <g id="Grupo_155811" data-name="Grupo 155811" transform="translate(25.706 10.718)">
          <path id="Trazado_598354" data-name="Trazado 598354" d="M256,98.7h11.176v34.788H256Z" transform="translate(-256 -98.7)" fill="#fbb241"/>
        </g>
        <g id="Grupo_155812" data-name="Grupo 155812" transform="translate(29.428 10.718)">
          <path id="Trazado_598355" data-name="Trazado 598355" d="M290.3,98.7h3.722v34.788H290.3Z" transform="translate(-290.3 -98.7)" fill="#fcbf65"/>
        </g>
        <g id="Grupo_155813" data-name="Grupo 155813" transform="translate(25.706 10.718)">
          <path id="Trazado_598356" data-name="Trazado 598356" d="M256,98.7h3.722v34.788H256Z" transform="translate(-256 -98.7)" fill="#fca413"/>
        </g>
        <g id="Grupo_155814" data-name="Grupo 155814" transform="translate(28.039 0)">
          <path id="Trazado_598357" data-name="Trazado 598357" d="M277.5,5.521,279.735.584a1.119,1.119,0,0,1,2.04,0l2.246,4.937Z" transform="translate(-277.5 0.075)" fill="#fcbf65"/>
        </g>
        <g id="Grupo_155815" data-name="Grupo 155815" transform="translate(28.039 0)">
          <path id="Trazado_598358" data-name="Trazado 598358" d="M281.222,5.521H277.5L279.735.584a1.119,1.119,0,0,1,2.04,0l.846,1.855Z" transform="translate(-277.5 0.075)" fill="#fbb241"/>
        </g>
        <g id="Grupo_155816" data-name="Grupo 155816" transform="translate(36.882 0)">
          <path id="Trazado_598359" data-name="Trazado 598359" d="M370.176,10.643l-5.588,5.588L359,10.643,363.568.584a1.119,1.119,0,0,1,2.04,0Z" transform="translate(-359 0.075)" fill="#fcd9a4"/>
        </g>
        <g id="Grupo_155817" data-name="Grupo 155817" transform="translate(36.882 0)">
          <path id="Trazado_598360" data-name="Trazado 598360" d="M362.733,10.643v3.722L359,10.643,363.568.584a1.119,1.119,0,0,1,2.04,0l.846,1.855Z" transform="translate(-359 0.075)" fill="#fccc83"/>
        </g>
        <g id="Grupo_155818" data-name="Grupo 155818" transform="translate(36.882 10.718)">
          <path id="Trazado_598361" data-name="Trazado 598361" d="M359,98.7h11.176v34.788H359Z" transform="translate(-359 -98.7)" fill="#ce8ff2"/>
        </g>
        <g id="Grupo_155819" data-name="Grupo 155819" transform="translate(40.615 10.718)">
          <path id="Trazado_598362" data-name="Trazado 598362" d="M393.4,98.7h3.722v34.788H393.4Z" transform="translate(-393.4 -98.7)" fill="#deb5f6"/>
        </g>
        <g id="Grupo_155820" data-name="Grupo 155820" transform="translate(36.882 10.718)">
          <path id="Trazado_598363" data-name="Trazado 598363" d="M359,98.7h3.722v34.788H359Z" transform="translate(-359 -98.7)" fill="#bd6aee"/>
        </g>
        <g id="Grupo_155821" data-name="Grupo 155821" transform="translate(39.215 0)">
          <path id="Trazado_598364" data-name="Trazado 598364" d="M380.5,5.521,382.735.584a1.119,1.119,0,0,1,2.04,0l2.246,4.937Z" transform="translate(-380.5 0.075)" fill="#deb5f6"/>
        </g>
        <g id="Grupo_155822" data-name="Grupo 155822" transform="translate(39.215 0)">
          <path id="Trazado_598365" data-name="Trazado 598365" d="M384.222,5.521H380.5L382.735.584a1.119,1.119,0,0,1,2.04,0l.846,1.855Z" transform="translate(-380.5 0.075)" fill="#ce8ff2"/>
        </g>
        <g id="Grupo_155823" data-name="Grupo 155823" transform="translate(0 24.26)">
          <path id="Trazado_598366" data-name="Trazado 598366" d="M67.159,223.5h-5.48a3.35,3.35,0,0,0-2.93,1.725l-1.812,3.255a3.363,3.363,0,0,1-2.93,1.725H35.6a3.35,3.35,0,0,1-2.93-1.725l-1.812-3.255a3.363,3.363,0,0,0-2.93-1.725h-5.48a3.348,3.348,0,0,0-3.353,3.353v24.588a3.348,3.348,0,0,0,3.353,3.353H67.159a3.348,3.348,0,0,0,3.353-3.353V226.864A3.357,3.357,0,0,0,67.159,223.5Z" transform="translate(-19.1 -223.5)" fill="#a4e5ee"/>
        </g>
        <g id="Grupo_155824" data-name="Grupo 155824" transform="translate(0 24.26)">
          <path id="Trazado_598367" data-name="Trazado 598367" d="M33.629,251.452V229.566a3.288,3.288,0,0,1-.955-1.085l-1.812-3.255a3.363,3.363,0,0,0-2.93-1.725h-5.48a3.348,3.348,0,0,0-3.353,3.353v24.588a3.348,3.348,0,0,0,3.353,3.353H36.982A3.332,3.332,0,0,1,33.629,251.452Z" transform="translate(-19.1 -223.5)" fill="#6bd7e5"/>
        </g>
        <g id="Grupo_155825" data-name="Grupo 155825" transform="translate(0 42.153)">
          <path id="Trazado_598368" data-name="Trazado 598368" d="M19.1,388.4H70.522v6.706H19.1Z" transform="translate(-19.1 -388.4)" fill="#edebed"/>
        </g>
        <g id="Grupo_155826" data-name="Grupo 155826" transform="translate(0 42.153)">
          <path id="Trazado_598369" data-name="Trazado 598369" d="M19.1,388.4H33.629v6.706H19.1Z" transform="translate(-19.1 -388.4)" fill="#e3e3e3"/>
        </g>
        <g id="Grupo_155828" data-name="Grupo 155828" transform="translate(17.437 35.751)">
          <g id="Grupo_155827" data-name="Grupo 155827">
            <path id="Trazado_598370" data-name="Trazado 598370" d="M195.523,331.028H180.614a.814.814,0,0,1,0-1.628h14.909a.814.814,0,0,1,0,1.628Z" transform="translate(-179.8 -329.4)" fill="#6bd7e5"/>
          </g>
        </g>
      </g>
    </g>
    <g id="_x30_9_Exam" transform="translate(1322.926 2619.479)">
      <g id="Grupo_155869" data-name="Grupo 155869" transform="translate(29.7 0)">
        <g id="Grupo_155860" data-name="Grupo 155860" transform="translate(0 10.148)">
          <path id="Trazado_598391" data-name="Trazado 598391" d="M33.654,134.674H70.562a3.949,3.949,0,0,0,3.954-3.954V83.254A3.949,3.949,0,0,0,70.562,79.3H33.654A3.949,3.949,0,0,0,29.7,83.254V130.72A3.949,3.949,0,0,0,33.654,134.674Z" transform="translate(-29.7 -79.3)" fill="#d6d6d6"/>
        </g>
        <g id="Grupo_155861" data-name="Grupo 155861" transform="translate(5.273 5.081)">
          <path id="Trazado_598392" data-name="Trazado 598392" d="M74.854,95.062h36.921a3.949,3.949,0,0,0,3.954-3.954V43.654a3.949,3.949,0,0,0-3.954-3.954H74.854A3.949,3.949,0,0,0,70.9,43.654V91.12A3.946,3.946,0,0,0,74.854,95.062Z" transform="translate(-70.9 -39.7)" fill="#e3e3e3"/>
        </g>
        <g id="Grupo_155862" data-name="Grupo 155862" transform="translate(10.545 0)">
          <path id="Trazado_598393" data-name="Trazado 598393" d="M116.054,55.374h36.921a3.949,3.949,0,0,0,3.954-3.954V3.954A3.949,3.949,0,0,0,152.975,0H116.054A3.949,3.949,0,0,0,112.1,3.954V51.42A3.957,3.957,0,0,0,116.054,55.374Z" transform="translate(-112.1 0)" fill="#f7f5f6"/>
        </g>
        <g id="Grupo_155863" data-name="Grupo 155863" transform="translate(10.545)">
          <path id="Trazado_598394" data-name="Trazado 598394" d="M120.009,51.42V3.954A3.949,3.949,0,0,1,123.963,0h-7.909A3.949,3.949,0,0,0,112.1,3.954V51.42a3.949,3.949,0,0,0,3.954,3.954h7.909A3.957,3.957,0,0,1,120.009,51.42Z" transform="translate(-112.1 0)" fill="#edebed"/>
        </g>
        <g id="Grupo_155868" data-name="Grupo 155868" transform="translate(17.494 6.949)">
          <g id="Grupo_155864" data-name="Grupo 155864" transform="translate(0 15.818)">
            <path id="Trazado_598396" data-name="Trazado 598396" d="M196.359,179.82h-29a.96.96,0,1,1,0-1.92h29a.96.96,0,1,1,0,1.92Z" transform="translate(-166.4 -177.9)" fill="#e3e3e3"/>
          </g>
          <g id="Grupo_155865" data-name="Grupo 155865" transform="translate(0 23.726)">
            <path id="Trazado_598397" data-name="Trazado 598397" d="M196.359,241.62h-29a.96.96,0,1,1,0-1.92h29a.96.96,0,1,1,0,1.92Z" transform="translate(-166.4 -239.7)" fill="#e3e3e3"/>
          </g>
          <g id="Grupo_155866" data-name="Grupo 155866" transform="translate(0 31.648)">
            <path id="Trazado_598398" data-name="Trazado 598398" d="M196.359,303.52h-29a.96.96,0,1,1,0-1.92h29a.96.96,0,1,1,0,1.92Z" transform="translate(-166.4 -301.6)" fill="#e3e3e3"/>
          </g>
          <g id="Grupo_155867" data-name="Grupo 155867" transform="translate(0 7.909)">
            <path id="Trazado_598399" data-name="Trazado 598399" d="M181.859,118.02h-14.5a.96.96,0,0,1,0-1.92h14.5a.96.96,0,0,1,0,1.92Z" transform="translate(-166.4 -116.1)" fill="#e3e3e3"/>
          </g>
        </g>
      </g>
    </g>
    <g id="Line" transform="translate(1227.998 2630.997)">
      <path id="Trazado_598415" data-name="Trazado 598415" d="M52.85,2.147a1.857,1.857,0,0,0-2.024.39L2.537,50.826A1.869,1.869,0,0,0,3.856,54H52.144A1.857,1.857,0,0,0,54,52.144V3.856A1.857,1.857,0,0,0,52.85,2.147ZM42.858,42.858A1.857,1.857,0,0,1,41,44.715H26.143a1.869,1.869,0,0,1-1.319-3.176L39.682,26.681A1.869,1.869,0,0,1,42.858,28Z" transform="translate(0 0)" fill="#3a9ca6"/>
      <g id="Grupo_155889" data-name="Grupo 155889" transform="translate(44.715 11.285)">
        <path id="Trazado_598416" data-name="Trazado 598416" d="M34.286,16v3.715H26.857a1.857,1.857,0,0,1,0-3.715Z" transform="translate(-25 0.715)" fill="#005c66"/>
        <path id="Trazado_598417" data-name="Trazado 598417" d="M34.286,10v3.715H26.857a1.857,1.857,0,1,1,0-3.715Z" transform="translate(-25 -4.428)" fill="#005c66"/>
        <path id="Trazado_598418" data-name="Trazado 598418" d="M34.286,22v3.715H26.857a1.857,1.857,0,0,1,0-3.715Z" transform="translate(-25 5.859)" fill="#005c66"/>
        <path id="Trazado_598419" data-name="Trazado 598419" d="M33.429,19v3.715H27.857a1.857,1.857,0,0,1,0-3.715Z" transform="translate(-24.143 3.287)" fill="#005c66"/>
        <path id="Trazado_598420" data-name="Trazado 598420" d="M33.429,13v3.715H27.857a1.857,1.857,0,0,1,0-3.715Z" transform="translate(-24.143 -1.856)" fill="#005c66"/>
        <path id="Trazado_598421" data-name="Trazado 598421" d="M33.429,7v3.715H27.857a1.857,1.857,0,0,1,0-3.715Z" transform="translate(-24.143 -7)" fill="#005c66"/>
        <path id="Trazado_598422" data-name="Trazado 598422" d="M33.429,25v3.715H27.857a1.857,1.857,0,0,1,0-3.715Z" transform="translate(-24.143 8.431)" fill="#005c66"/>
      </g>
    </g>
    <g id="Grupo_155787" data-name="Grupo 155787" transform="translate(1230 2298)">
      <g id="Grupo_155786" data-name="Grupo 155786" clip-path="url(#clip-path)">
        <path id="Trazado_598234" data-name="Trazado 598234" d="M23.325,89.123c-3.856-2.026-9.582,14.921-3.523,17.835s10.674-9.5,10.674-9.5-3.116-6.211-7.15-8.33" transform="translate(5.332 27.646)" fill="#00a6b7"/>
        <path id="Trazado_598235" data-name="Trazado 598235" d="M8.425,100.014c1.54-.387,6.461.194,6.461.194,3.8,1.134,5.91,1.743,8.128,1.344s7.053,3.3,7.053,3.3a19.385,19.385,0,0,0,1.526-10.579s-3-1.016-3.573-1.835c-1.16-1.627-.658-4.674-3.384-7.2a28.094,28.094,0,0,1-4.922-7.044s-2.05-.087-1.758,1.83c.3,1.936,2.39,4.139,2.256,5.036a2.222,2.222,0,0,1-.136.519.113.113,0,0,0-.007.046,2.12,2.12,0,0,1-1.193,1.334.274.274,0,0,1-.125.051c-2.146.516-6.675-1.433-8.6-2.489-2.679-1.473-6.486-3.3-6.7-1.315s2.076,1.245,7.411,5.6l-.241.662c.367.336-4.282-.612-8.241-2.3C-.354,86.016-.267,88.236.368,89.037s3.543,1.574,5.507,2.435c1.3.554,2.662,1.122,3.472,1.456l.029.931c-5.9.275-7.331-1.589-8.206-.107s3.255,2.9,5.137,2.834a16.22,16.22,0,0,1,3.741.712c-4.47,1.091-5.935-.038-6.373,1.291-.444,1.375,3.209,1.812,4.749,1.425" transform="translate(0 24.302)" fill="#bb6e5c"/>
        <path id="Trazado_598236" data-name="Trazado 598236" d="M17.029,90.342C15,88.153,15.519,84.331,15.6,83.864A2.127,2.127,0,0,1,14.4,85.2a5.11,5.11,0,0,0,2.626,5.144" transform="translate(4.473 26.064)" fill="#874538"/>
        <path id="Trazado_598237" data-name="Trazado 598237" d="M80.971,47.776c-9.491,4.571-25.843,62.459-25.843,62.459s-2.513-2.5-3.537-.7S22.7,101.921,22.7,101.921s5.664,10.22-3.523,17.835c0,0,29.763,14.652,39.8,16.627S84.764,87.531,84.764,87.531Z" transform="translate(5.959 14.848)" fill="#7fd2db"/>
        <path id="Trazado_598238" data-name="Trazado 598238" d="M26.672,299.212a18.745,18.745,0,0,0,.145,2.43h41.23c0-.815-.016-1.629-.059-2.43a75.705,75.705,0,0,0-3.871-20.142l-10.3-4.424c-.887,5.311-3.172,8.7-6.039,10.915a14.745,14.745,0,0,1-2.358,1.514c-.378.2-.756.392-1.15.568a19.749,19.749,0,0,1-2.635.974,64.4,64.4,0,0,1-9.9,1.733c-4.4.683-5.065,5.762-5.065,8.862" transform="translate(8.289 85.357)" fill="#0e3944"/>
        <path id="Trazado_598239" data-name="Trazado 598239" d="M26.672,293.388a18.746,18.746,0,0,0,.145,2.43h41.23c0-.815-.016-1.629-.059-2.43Z" transform="translate(8.289 91.181)" fill="#adbec4"/>
        <path id="Trazado_598240" data-name="Trazado 598240" d="M40.972,284.487l5.719,1.834,1.209-2.1-4.569-1.252a14.658,14.658,0,0,1-2.358,1.514" transform="translate(12.734 87.945)" fill="#adbec4"/>
        <path id="Trazado_598241" data-name="Trazado 598241" d="M38.086,285.536l3.856,2.561,2.373-.932-3.594-2.6a19.815,19.815,0,0,1-2.635.975" transform="translate(11.837 88.438)" fill="#adbec4"/>
        <path id="Trazado_598242" data-name="Trazado 598242" d="M82.515,300.317a10.377,10.377,0,0,0,.465,2.43h27.462a12.392,12.392,0,0,0,.771-2.43c2.707-13.141-15.542-29.223-15.542-29.223l-5.792,7.728s.67,12.37-4.235,14.946c-2.94,1.543-3.318,4.453-3.129,6.549" transform="translate(25.632 84.253)" fill="#0e3944"/>
        <path id="Trazado_598243" data-name="Trazado 598243" d="M111.2,293.388H82.5a10.3,10.3,0,0,0,.465,2.43h27.461a12.311,12.311,0,0,0,.772-2.43" transform="translate(25.642 91.181)" fill="#adbec4"/>
        <path id="Trazado_598244" data-name="Trazado 598244" d="M85.85,288.336s11.57-2.637,16.845.777V287.2s-9.733-4.729-16.845,1.133" transform="translate(26.681 88.699)" fill="#adbec4"/>
        <path id="Trazado_598245" data-name="Trazado 598245" d="M87.6,286.1s7.388-3.378,14.554,0l-.819-1.927S92.774,280.932,87.6,286.1" transform="translate(27.224 88.005)" fill="#adbec4"/>
        <path id="Trazado_598246" data-name="Trazado 598246" d="M140.716,131.333c0,26.124-2.572,52.729-3.231,59.478s-7.648,82.141-8.632,111.306c-.5,14.94-5.3,33.023-5.3,33.023s-14.234-11.5-22.3-2.956l-2.02-11.658,3.778-9.178s-4.037-7.592-.734-13.491S106.6,165.874,106.6,165.874l-6.359-.408L69.733,311.347v8.31S63.1,330.241,63.044,337L42.771,330.1l3.3-9.577-2.2-13.673,7.364-17.831S72.312,149.574,70.6,133.926Z" transform="translate(13.293 40.817)" fill="#0d527c"/>
        <path id="Trazado_598247" data-name="Trazado 598247" d="M62.215,84.945c-.013,1.73-.013,3.5,0,5.282,0,3.3.039,6.711.092,10.145.026,1.743.052,3.5.092,5.256.079,4.195.184,8.415.315,12.544.052,1.783.1,3.552.157,5.3.157,4.811.341,9.464.511,13.789.079,1.874.157,3.683.236,5.414.157,3.932.328,7.5.472,10.526.1,2.15.2,4.05.288,5.623.17,3.329.275,5.243.275,5.243S72.964,173,91.262,175.9c32.219,5.1,43.23-10.395,43.23-10.395s.131-1.219.354-3.395c.157-1.429.341-3.277.564-5.466.275-2.608.577-5.7.918-9.162q.256-2.536.511-5.309c.367-3.867.76-8.048,1.167-12.426.144-1.7.3-3.447.446-5.2.315-3.5.616-7.1.9-10.709.144-1.756.288-3.526.419-5.282.315-3.88.59-7.76.852-11.548.118-1.809.236-3.578.341-5.335.262-4.142.472-8.14.642-11.863.079-1.874.144-3.67.184-5.387.118-3.867.157-7.327.079-10.25-.052-2.215-.157-4.116-.341-5.623a9.249,9.249,0,0,0-.918-3.67c-3.133-4.6-10.067-6.737-23.568-10.513a49.817,49.817,0,0,0-11.024-1.77c-5.256-.249-10.211-.288-14.759-.052-11.732.629-20.815,3.12-25.626,8.887-.131.157-.262.315-.393.485-.642.839-1.167,2.635-1.586,5.191a100.169,100.169,0,0,0-.983,10.2c-.1,1.665-.184,3.434-.236,5.3-.131,3.8-.21,7.97-.223,12.348" transform="translate(19.333 13.172)" fill="#7fd2db"/>
        <path id="Trazado_598248" data-name="Trazado 598248" d="M63.313,55.315c28.182-5.335,60.414,1.874,78.215,7.065-.052-2.215-.157-4.116-.341-5.623-17.905-5.125-48.145-11.587-75.895-7.118-.131.157-.262.315-.393.485-.642.839-1.167,2.635-1.586,5.191" transform="translate(19.677 14.961)" fill="#d1eff2"/>
        <path id="Trazado_598249" data-name="Trazado 598249" d="M62.383,66.923c23.961-3.434,57.413,2.359,79.172,7.209.079-1.874.144-3.67.184-5.387-21.785-4.837-54.516-10.395-79.119-7.118-.1,1.665-.184,3.434-.236,5.3" transform="translate(19.388 18.847)" fill="#d1eff2"/>
        <path id="Trazado_598250" data-name="Trazado 598250" d="M62.215,74.981c-.013,1.73-.013,3.5,0,5.282,24.761-2.163,56.718,2.6,78.411,6.777.118-1.809.236-3.578.341-5.335-21.785-4.195-53.48-8.861-78.752-6.724" transform="translate(19.333 23.137)" fill="#d1eff2"/>
        <path id="Trazado_598251" data-name="Trazado 598251" d="M62.283,86.624c.026,1.743.052,3.5.092,5.256,22.179.118,54.122,4.535,76.956,8.206.144-1.756.288-3.526.419-5.282-22.939-3.7-54.817-8.074-77.468-8.179" transform="translate(19.357 26.922)" fill="#d1eff2"/>
        <path id="Trazado_598252" data-name="Trazado 598252" d="M62.593,100.2c.052,1.783.1,3.552.157,5.3,23.673,2.451,53.664,4.758,75.134,6.279.144-1.7.3-3.447.446-5.2-21.654-1.56-52.012-3.893-75.737-6.37" transform="translate(19.453 31.142)" fill="#d1eff2"/>
        <path id="Trazado_598253" data-name="Trazado 598253" d="M63.1,114.764c.079,1.874.157,3.683.236,5.414,18.469,3.893,41.106,4.955,60.283,4.955,4.352,0,8.533-.052,12.426-.144q.256-2.536.511-5.309c-21.353.485-51.068-.013-73.457-4.915" transform="translate(19.612 35.667)" fill="#d1eff2"/>
        <path id="Trazado_598254" data-name="Trazado 598254" d="M63.643,126.924c.1,2.15.2,4.05.288,5.623a128.783,128.783,0,0,0,40.556,6.384,148.978,148.978,0,0,0,29.912-3.093c.157-1.429.341-3.277.564-5.466-17.918,3.893-44.016,6.108-71.32-3.447" transform="translate(19.779 39.446)" fill="#d1eff2"/>
        <path id="Trazado_598255" data-name="Trazado 598255" d="M102.86,42.515c1.473.214,4.588,2.211,4.665,3.7.244,4.656-8.708,8.52-16.907,7.865s-8.213-5.1-6.668-7.318c1.6-2.294,5.243-6.226,18.909-4.243" transform="translate(25.845 13.045)" fill="#00a6b7"/>
        <path id="Trazado_598256" data-name="Trazado 598256" d="M84.983,37.164l2.906,17.17s4.649,2.669,15.457-3.4c0,0-4.4-13.24,1.15-21.95,0,0-1.223-.026-3.169.048,0,0-2.746,9.848-16.343,8.132" transform="translate(26.412 9.006)" fill="#a8604f"/>
        <path id="Trazado_598257" data-name="Trazado 598257" d="M80.911,15.673s-4.96-4.05-.474-5.369c0,0-1.893-4.96.277-5.77S85.1,5.716,86.3,3.593,90.128-1.936,94.766,1.4s7.219-2.139,9.212-.37.776,4.631,4.028,5.058,6.3,1.185,5.559,4.442,2.842,3.471,3.01,5.458-1.358,2.564-1.5,4.256,2.27,2.413,1.406,4.957-3.327,2.181-3.133,4,1.814,5.857-.52,6.429-3.21,4.68-5.933,4.1S80.911,15.673,80.911,15.673" transform="translate(24.415 0)" fill="#0e3944"/>
        <path id="Trazado_598258" data-name="Trazado 598258" d="M109.75,27.633C110.34,43.91,87.1,50.911,82.739,43.154c-1.4-2.485-2.785-9.384-3.3-14.145-.119-1.08-.206-2.172-.254-3.265-.329-7.418.992-14.794,5.252-16.428,14.825-5.7,24.585-1.646,25.309,18.317" transform="translate(24.596 2.161)" fill="#bb6e5c"/>
        <path id="Trazado_598259" data-name="Trazado 598259" d="M91.023,19.479c.013,1.11-.476,2.016-1.093,2.024s-1.127-.886-1.14-2,.476-2.017,1.092-2.025,1.129.887,1.142,2" transform="translate(27.594 5.433)" fill="#1a4850"/>
        <path id="Trazado_598260" data-name="Trazado 598260" d="M83.281,20.214c.013,1.11-.476,2.017-1.093,2.024s-1.127-.886-1.14-2,.476-2.017,1.093-2.025,1.127.887,1.14,2" transform="translate(25.188 5.661)" fill="#1a4850"/>
        <path id="Trazado_598263" data-name="Trazado 598263" d="M92.422,15.246a.656.656,0,0,0,.457-1.169,6.187,6.187,0,0,0-4.458-.952.655.655,0,0,0,.228,1.29,4.935,4.935,0,0,1,3.421.695.665.665,0,0,0,.351.136" transform="translate(27.312 4.054)" fill="#0e3944"/>
        <path id="Trazado_598264" data-name="Trazado 598264" d="M80.153,16.846h.022a.655.655,0,0,0,.686-.624c.022-.5,1.2-.746,1.819-.769a.655.655,0,0,0-.045-1.309c-1.112.037-3.013.5-3.084,2.017a.656.656,0,0,0,.6.684" transform="translate(24.723 4.396)" fill="#0e3944"/>
        <path id="Trazado_598265" data-name="Trazado 598265" d="M83.719,28.453a8.157,8.157,0,0,0,1.657-.056l-.121-.975c-1.375.172-2.376.016-2.823-.438a.9.9,0,0,1-.263-.548,17.881,17.881,0,0,0,3.425-9.063l-.98-.06A17.116,17.116,0,0,1,81.3,25.952l-.088.107-.018.138a1.846,1.846,0,0,0,.543,1.479,3.049,3.049,0,0,0,1.986.777" transform="translate(25.23 5.381)" fill="#874538"/>
        <path id="Trazado_598266" data-name="Trazado 598266" d="M82.467,27.748s.389.669,3.888.225a23.825,23.825,0,0,0,5.726-1.384s-.5,7.04-5.767,7.068c-4.366.024-3.846-5.909-3.846-5.909" transform="translate(25.624 8.264)" fill="#1a4850"/>
        <path id="Trazado_598267" data-name="Trazado 598267" d="M104.91,29.28s.346-5.9-3.223-9.311-.468-8.435-.468-8.435-14.3-2.42-20.674,3.366c0,0-4.765-8.38,8.845-11.8s35.719,7.152,17.144,35.859l3.032-9.936Z" transform="translate(24.781 0.771)" fill="#0e3944"/>
        <path id="Trazado_598268" data-name="Trazado 598268" d="M99.466,22.9s3.2-3.835,6.234-1.538-1.947,9.339-5.2,9.114S99.466,22.9,99.466,22.9" transform="translate(30.685 6.412)" fill="#bb6e5c"/>
        <path id="Trazado_598269" data-name="Trazado 598269" d="M104.511,101.745c-3.471-.058-5.435,15.921,1.358,17.6,0,0,8.14-17.445-1.358-17.6" transform="translate(31.495 31.621)" fill="#00a6b7"/>
        <path id="Trazado_598270" data-name="Trazado 598270" d="M110.553,116.393c-1.488.6-11.907,4.3-13.968,4.019a1.7,1.7,0,0,1-.233-.039c-2.008-.392-4.26-2.358-5.667-2.864-1.463-.531-1.967-1.927-3.242-2.872s-2.079-3.83-2.079-3.83-4.344-3.892-2.527-4.411c2.268-.638,4.834,1.638,4.834,1.638l5.618.959s6.747-2.665,6.462-4.019-3.078-.243-5.522-.443c-1.615-.125-1.734-1.888-1.734-1.888l4.158-1.047s6.073-.987,7.374-.447,6.1,3.561,6.1,3.561l8.991-.2,1.738,11.743s-8.819-.477-10.3.135" transform="translate(25.607 31.386)" fill="#bb6e5c"/>
        <path id="Trazado_598271" data-name="Trazado 598271" d="M95.647,118.045c-2.008-.392-4.26-2.358-5.667-2.864-1.463-.531-1.967-1.927-3.242-2.872s-2.08-3.83-2.08-3.83c1.106.919,6.412,1.882,6.817,2.323s-.227.886-.039,1.784,2.07.918,1.958,1.878a1.843,1.843,0,0,0,1.313,2.327,1.555,1.555,0,0,1,.939,1.254" transform="translate(26.311 33.714)" fill="#874538"/>
        <path id="Trazado_598272" data-name="Trazado 598272" d="M127.7,51.91c-9.257,4.864-12.534,25.129-11.551,33.348L126.328,112.3s-2,3.649-.36,4.3l-22.209.627s5.685,5.92,1.358,17.6c0,0,29.03,8.7,41.467,0,3.6-2.515,5.526-9.693,4.624-14.939C144.835,82.837,127.7,51.91,127.7,51.91" transform="translate(32.247 16.133)" fill="#7fd2db"/>
      </g>
    </g>
  </g>
</svg>
